<svg width="512" height="382" viewBox="0 0 512 382" fill="none" xmlns="http://www.w3.org/2000/svg">
<path d="M512 335.258H0V335.514H512V335.258Z" fill="#EBEBEB"/>
<path d="M460.698 351.734H426.783V351.99H460.698V351.734Z" fill="#EBEBEB"/>
<path d="M339.169 354.519H330.271V354.775H339.169V354.519Z" fill="#EBEBEB"/>
<path d="M425.759 342.231H406.108V342.487H425.759V342.231Z" fill="#EBEBEB"/>
<path d="M97.9456 343.951H53.719V344.207H97.9456V343.951Z" fill="#EBEBEB"/>
<path d="M113.551 343.951H107.069V344.207H113.551V343.951Z" fill="#EBEBEB"/>
<path d="M230.554 348.273H134.625V348.529H230.554V348.273Z" fill="#EBEBEB"/>
<path d="M242.688 289.587H44.9638C43.4148 289.584 41.9302 288.967 40.8359 287.871C39.7416 286.775 39.127 285.289 39.127 283.74V5.79584C39.1404 4.25577 39.761 2.78321 40.8539 1.69802C41.9467 0.612821 43.4236 0.00263822 44.9638 0H242.688C244.239 0 245.726 0.616026 246.822 1.71256C247.919 2.80909 248.535 4.29631 248.535 5.84704V283.74C248.535 285.291 247.919 286.778 246.822 287.875C245.726 288.971 244.239 289.587 242.688 289.587ZM44.9638 0.204801C43.4827 0.207513 42.0632 0.797763 41.0169 1.84599C39.9706 2.89422 39.383 4.31478 39.383 5.79584V283.74C39.383 285.221 39.9706 286.642 41.0169 287.69C42.0632 288.738 43.4827 289.328 44.9638 289.331H242.688C244.17 289.328 245.59 288.739 246.638 287.691C247.686 286.643 248.276 285.222 248.279 283.74V5.79584C248.276 4.31384 247.686 2.8933 246.638 1.84537C245.59 0.79743 244.17 0.207508 242.688 0.204801H44.9638Z" fill="#EBEBEB"/>
<path d="M464.189 289.587H266.455C264.905 289.584 263.419 288.968 262.323 287.872C261.228 286.776 260.611 285.29 260.608 283.74V5.79584C260.624 4.25484 261.247 2.78229 262.341 1.69738C263.436 0.612463 264.914 0.00260945 266.455 0H464.189C465.728 0.0053294 467.202 0.616703 468.293 1.70161C469.383 2.78652 470.002 4.25754 470.016 5.79584V283.74C470.016 285.287 469.403 286.771 468.311 287.867C467.218 288.963 465.737 289.582 464.189 289.587ZM266.455 0.204801C264.973 0.207508 263.552 0.79743 262.504 1.84537C261.457 2.8933 260.867 4.31384 260.864 5.79584V283.74C260.867 285.222 261.457 286.643 262.504 287.691C263.552 288.739 264.973 289.328 266.455 289.331H464.189C465.671 289.328 467.092 288.739 468.14 287.691C469.188 286.643 469.778 285.222 469.78 283.74V5.79584C469.778 4.31384 469.188 2.8933 468.14 1.84537C467.092 0.79743 465.671 0.207508 464.189 0.204801H266.455Z" fill="#EBEBEB"/>
<path d="M253.952 306.944L263.168 318.935L287.846 303.483L281.068 289.997C288.148 283.23 293.887 275.187 297.984 266.291L312.863 268.288L319.386 239.923L305.05 235.182C305.244 225.403 303.591 215.675 300.175 206.51L312.166 197.294L296.755 172.606L283.259 179.384C276.497 172.302 268.458 166.563 259.564 162.468L261.54 147.538L233.175 141.015L228.434 155.351C218.655 155.16 208.928 156.813 199.762 160.225L190.546 148.234L165.888 163.646L172.646 177.152C165.57 183.922 159.831 191.964 155.73 200.858L140.81 198.881L134.287 227.246L148.623 231.987C148.43 241.765 150.08 251.492 153.487 260.659L141.507 269.875L156.959 294.543L170.404 287.744C177.17 294.828 185.213 300.571 194.109 304.671L192.123 319.59L220.498 326.113L225.239 311.777C235.029 311.989 244.771 310.349 253.952 306.944ZM218.01 271.974C210.409 270.234 203.496 266.279 198.144 260.609C192.792 254.939 189.241 247.809 187.943 240.121C186.644 232.433 187.654 224.532 190.846 217.418C194.039 210.305 199.269 204.298 205.876 200.157C212.483 196.017 220.169 193.929 227.963 194.158C235.757 194.387 243.307 196.922 249.66 201.444C256.012 205.965 260.881 212.269 263.65 219.557C266.419 226.846 266.964 234.793 265.216 242.391C262.877 252.573 256.59 261.408 247.737 266.956C238.885 272.503 228.192 274.309 218.01 271.974Z" fill="#F0F0F0"/>
<path d="M344.064 119.306L347.627 103.823L339.825 101.243C339.938 95.8956 339.034 90.5755 337.162 85.5655L343.716 80.5581L335.278 67.0823L327.915 70.7892C324.218 66.932 319.827 63.8056 314.972 61.5732L316.058 53.3812L300.564 49.8279L297.984 57.6512C292.641 57.5394 287.325 58.4393 282.317 60.3034L277.299 53.76L263.834 62.1978L267.53 69.5604C263.673 73.2581 260.547 77.6491 258.314 82.5037L250.173 81.4183L246.61 96.9012L254.413 99.4919C254.305 104.835 255.208 110.151 257.075 115.159L250.532 120.166L258.959 133.642L266.332 129.935C270.022 133.798 274.41 136.925 279.265 139.151L278.18 147.343L293.673 150.907L296.253 143.104C301.6 143.207 306.918 142.303 311.931 140.442L316.938 146.985L330.404 138.547L326.656 131.164C330.513 127.47 333.639 123.083 335.872 118.231L344.064 119.306ZM292.291 121.354C288.147 120.4 284.379 118.239 281.463 115.144C278.547 112.049 276.614 108.158 275.909 103.965C275.204 99.7715 275.757 95.4631 277.5 91.5844C279.243 87.7057 282.097 84.4308 285.701 82.1737C289.305 79.9166 293.497 78.7787 297.748 78.9038C301.998 79.0289 306.116 80.4113 309.581 82.8764C313.046 85.3415 315.702 88.7786 317.214 92.7531C318.726 96.7276 319.025 101.061 318.075 105.206C317.441 107.962 316.27 110.566 314.628 112.87C312.987 115.173 310.907 117.129 308.508 118.627C306.109 120.126 303.438 121.136 300.648 121.6C297.858 122.065 295.004 121.974 292.25 121.334L292.291 121.354Z" fill="#F0F0F0"/>
<path d="M427.899 305.766L429.353 299.438L426.168 298.414C426.211 296.232 425.843 294.061 425.083 292.014L427.755 289.966L424.305 284.457L421.294 285.972C419.786 284.395 417.993 283.116 416.01 282.204L416.451 278.876L410.122 277.422L409.098 280.607C406.915 280.56 404.744 280.928 402.698 281.692L400.65 279.02L395.151 282.46L396.657 285.471C395.076 286.981 393.798 288.777 392.888 290.765L389.56 290.314L388.096 296.612L391.281 297.636C391.234 299.822 391.602 301.997 392.366 304.046L389.693 306.094L393.134 311.593L396.145 310.077C397.656 311.658 399.452 312.94 401.439 313.856L400.988 317.184L407.316 318.638L408.34 315.453C410.516 315.491 412.679 315.123 414.72 314.368L416.768 317.041L422.267 313.59L420.751 310.579C422.332 309.072 423.614 307.279 424.53 305.295L427.899 305.766ZM406.743 306.596C405.049 306.204 403.51 305.318 402.32 304.051C401.13 302.784 400.342 301.193 400.057 299.478C399.772 297.763 400.001 296.002 400.717 294.418C401.433 292.834 402.603 291.498 404.078 290.579C405.554 289.66 407.269 289.199 409.006 289.255C410.744 289.311 412.425 289.881 413.839 290.893C415.252 291.905 416.334 293.313 416.946 294.94C417.559 296.567 417.675 298.339 417.28 300.032C416.751 302.299 415.345 304.263 413.369 305.493C411.394 306.724 409.011 307.121 406.743 306.596Z" fill="#F0F0F0"/>
<path d="M415.007 90.8492L415.969 86.6508L413.85 85.9545C413.878 84.5057 413.635 83.0644 413.133 81.7049L414.904 80.3532L412.672 76.6975L410.675 77.7215C409.676 76.6756 408.487 75.8279 407.173 75.223L407.46 73.0111L403.272 72.0486L402.565 74.158C401.119 74.1276 399.68 74.3744 398.326 74.8851L396.964 73.1135L393.318 75.3971L394.342 77.3939C393.29 78.3903 392.439 79.5791 391.834 80.8959L389.632 80.599L388.659 84.7974L390.779 85.5039C390.751 86.9494 390.994 88.3874 391.496 89.7433L389.652 91.1359L391.936 94.7814L393.933 93.7574C394.931 94.8074 396.12 95.6586 397.435 96.2662L397.148 98.4678L401.347 99.4304L402.043 97.3209C403.492 97.349 404.933 97.1059 406.292 96.6041L407.644 98.3756L411.3 96.0921L410.276 94.0953C411.32 93.0899 412.167 91.8988 412.774 90.583L415.007 90.8492ZM400.978 91.3919C399.854 91.1327 398.833 90.546 398.043 89.7059C397.253 88.8659 396.73 87.8104 396.541 86.6731C396.351 85.5357 396.503 84.3677 396.977 83.3168C397.452 82.2659 398.228 81.3794 399.206 80.7696C400.185 80.1597 401.322 79.854 402.475 79.891C403.627 79.928 404.743 80.3061 405.68 80.9775C406.618 81.6489 407.335 82.5833 407.741 83.6625C408.147 84.7417 408.224 85.9171 407.962 87.0399C407.611 88.542 406.678 89.8437 405.369 90.6595C404.06 91.4753 402.481 91.7387 400.978 91.3919Z" fill="#F0F0F0"/>
<path d="M107.458 170.803L108.421 166.605L106.312 165.908C106.336 164.459 106.09 163.018 105.585 161.659L107.356 160.307L105.073 156.672L103.025 157.696C102.025 156.65 100.837 155.802 99.5225 155.197L99.8194 152.985L95.621 152.023L94.9145 154.143C93.4689 154.114 92.0309 154.357 90.6751 154.859L89.3132 153.088L85.6678 155.371L86.6918 157.368C85.6395 158.365 84.7879 159.553 84.183 160.87L81.9814 160.584L81.0188 164.772L83.1282 165.478C83.0995 166.924 83.3426 168.362 83.845 169.718L82.1042 171.008L84.3878 174.653L86.4358 173.629C87.438 174.679 88.6297 175.531 89.9481 176.138L89.6511 178.34L93.8495 179.302L94.5458 177.193C95.9947 177.221 97.436 176.978 98.7954 176.476L100.147 178.248L103.803 175.964L102.779 173.967C103.825 172.964 104.672 171.772 105.277 170.455L107.458 170.803ZM93.4297 171.356C92.3068 171.098 91.2855 170.514 90.4948 169.676C89.7042 168.838 89.1797 167.784 88.9877 166.648C88.7957 165.512 88.9448 164.345 89.4161 163.294C89.8874 162.242 90.6598 161.354 91.6356 160.742C92.6115 160.129 93.747 159.82 94.8986 159.853C96.0502 159.886 97.1663 160.259 98.1057 160.926C99.0451 161.593 99.7657 162.523 100.176 163.6C100.587 164.676 100.67 165.85 100.413 166.973C100.243 167.72 99.9272 168.426 99.4839 169.05C99.0406 169.674 98.4786 170.205 97.83 170.612C97.1814 171.019 96.4589 171.295 95.7039 171.422C94.9488 171.55 94.176 171.527 93.4297 171.356Z" fill="#F0F0F0"/>
<path d="M202.23 53.248L203.715 46.7559L200.448 45.6704C200.494 43.4316 200.116 41.2043 199.332 39.1066L202.076 37.0074L198.543 31.3549L195.471 32.9114C193.924 31.2884 192.083 29.9748 190.044 29.0407L190.464 25.6L183.972 24.105L182.886 27.3818C180.644 27.3346 178.413 27.7133 176.312 28.4979L174.264 25.7536L168.622 29.2864L170.168 32.3584C168.551 33.9063 167.238 35.7437 166.298 37.7754L162.816 37.3555L161.321 43.8477L164.598 44.9331C164.553 47.171 164.928 49.3974 165.704 51.497L162.97 53.545L166.502 59.1975L169.574 57.641C171.123 59.2617 172.965 60.575 175.002 61.5117L174.551 64.9319L181.043 66.4167L182.118 63.1501C184.361 63.1973 186.592 62.8185 188.693 62.0339L190.792 64.7783L196.434 61.2455L194.888 58.1735C196.505 56.6256 197.818 54.7882 198.758 52.7565L202.23 53.248ZM180.521 54.0979C178.781 53.6999 177.198 52.7946 175.973 51.4967C174.748 50.1989 173.935 48.5667 173.638 46.8068C173.34 45.0469 173.572 43.2383 174.303 41.6099C175.033 39.9815 176.231 38.6065 177.743 37.6589C179.256 36.7112 181.015 36.2335 182.8 36.2862C184.584 36.3389 186.312 36.9197 187.766 37.955C189.22 38.9902 190.334 40.4336 190.967 42.1022C191.601 43.7709 191.725 45.59 191.324 47.3293C190.785 49.6566 189.345 51.6752 187.32 52.9422C185.295 54.2091 182.85 54.6211 180.521 54.0877V54.0979Z" fill="#F0F0F0"/>
<path d="M125.768 311.951L127.253 305.459L123.986 304.384C124.033 302.142 123.654 299.911 122.87 297.81L125.614 295.711L122.081 290.069L119.009 291.615C117.464 289.994 115.626 288.681 113.592 287.744L114.043 284.324L107.52 282.839L106.496 286.106C104.257 286.059 102.03 286.438 99.9323 287.222L97.8331 284.478L92.1601 288.01L93.7166 291.082C92.096 292.627 90.7826 294.465 89.8459 296.499L86.4257 296.049L84.9307 302.541L88.2075 303.626C88.1413 305.891 88.5098 308.147 89.2929 310.272L86.5486 312.32L90.1121 317.962L93.1841 316.416C94.7264 318.04 96.5651 319.354 98.6011 320.287L98.1505 323.707L104.643 325.202L105.728 321.925C107.966 321.97 110.192 321.595 112.292 320.819L114.34 323.553L119.992 320.021L118.436 316.949C120.057 315.4 121.37 313.558 122.307 311.521L125.768 311.951ZM104.059 312.801C102.32 312.401 100.739 311.495 99.515 310.196C98.2913 308.898 97.4802 307.265 97.1843 305.506C96.8884 303.746 97.1209 301.938 97.8525 300.311C98.584 298.683 99.7818 297.309 101.294 296.362C102.807 295.416 104.566 294.939 106.35 294.992C108.133 295.045 109.861 295.626 111.314 296.661C112.768 297.696 113.881 299.139 114.515 300.807C115.148 302.475 115.273 304.294 114.872 306.033C114.336 308.364 112.895 310.387 110.867 311.656C108.84 312.926 106.39 313.338 104.059 312.801Z" fill="#F0F0F0"/>
<path d="M376.176 216.126C379.76 216.202 383.325 215.597 386.683 214.344L390.052 218.737L399.083 213.084L396.595 208.138C399.19 205.665 401.292 202.722 402.79 199.465L408.258 200.182L410.624 189.799L405.391 188.068C405.468 184.481 404.864 180.913 403.609 177.551L408.002 174.193L402.34 165.161L397.404 167.639C394.924 165.047 391.978 162.946 388.72 161.444L389.448 155.976L379.085 153.6L377.344 158.833C373.761 158.766 370.198 159.371 366.838 160.615L363.52 156.222L354.488 161.874L356.976 166.82C354.379 169.291 352.277 172.235 350.781 175.493L345.313 174.766L342.927 185.16L348.16 186.89C348.084 190.477 348.689 194.045 349.942 197.407L345.549 200.766L351.211 209.797L356.147 207.319C358.627 209.911 361.573 212.013 364.831 213.514L364.104 218.972L374.487 221.368L376.176 216.126ZM373.524 201.544C370.744 200.904 368.215 199.455 366.258 197.378C364.301 195.302 363.003 192.692 362.529 189.878C362.055 187.064 362.427 184.173 363.596 181.57C364.765 178.968 366.68 176.77 369.098 175.255C371.516 173.74 374.329 172.977 377.181 173.061C380.033 173.144 382.797 174.072 385.122 175.726C387.447 177.38 389.229 179.687 390.243 182.354C391.257 185.021 391.458 187.929 390.82 190.71C390.396 192.557 389.612 194.303 388.513 195.847C387.415 197.391 386.023 198.704 384.416 199.71C382.81 200.716 381.022 201.396 379.153 201.71C377.284 202.025 375.371 201.968 373.524 201.544Z" fill="#F0F0F0"/>
<path d="M256 381.501C365.652 381.501 454.543 376.312 454.543 369.91C454.543 363.508 365.652 358.318 256 358.318C146.347 358.318 57.4565 363.508 57.4565 369.91C57.4565 376.312 146.347 381.501 256 381.501Z" fill="#F5F5F5"/>
<path d="M122.388 300.749C122.388 300.749 131.543 303.022 133.54 310.989C136.09 306.422 141.507 301.025 152.996 299.059C152.996 299.059 151.091 319.652 131.246 318.218C131.261 317.875 131.296 317.533 131.348 317.194C128.195 315.802 122.603 311.716 122.388 300.749Z" fill="#DCD7C9"/>
<path opacity="0.2" d="M122.388 300.749C122.388 300.749 131.543 303.022 133.54 310.989C136.09 306.422 141.507 301.025 152.996 299.059C152.996 299.059 151.091 319.652 131.246 318.218C131.261 317.875 131.296 317.533 131.348 317.194C128.195 315.802 122.603 311.716 122.388 300.749Z" fill="black"/>
<path d="M149.852 366.766C138.22 372.838 135.25 368.374 135.25 368.374C135.25 368.374 129.854 372.685 120.003 367.544C114.012 364.411 108.483 356.086 105.667 346.993C102.421 336.456 102.861 324.874 110.541 319.273C123.331 309.934 134.984 317.553 134.984 317.553C134.984 317.553 146.135 311.798 157.092 317.942C157.587 318.226 158.059 318.547 158.505 318.904C170.424 328.284 161.075 360.919 149.852 366.766Z" fill="#DCD7C9"/>
<path opacity="0.2" d="M144.507 355.154C132.874 361.216 129.905 356.762 129.905 356.762C129.905 356.762 124.498 361.073 114.647 355.932C111.401 354.253 108.298 351.027 105.697 346.993C102.451 336.456 102.892 324.874 110.572 319.273C123.361 309.934 135.015 317.553 135.015 317.553C135.015 317.553 146.166 311.798 157.123 317.942C157.618 318.226 158.09 318.547 158.536 318.904C159.918 332.267 152.709 350.884 144.507 355.154Z" fill="white"/>
<path d="M187.689 333.967C192.809 331.643 198.318 331.264 200.202 333.261L199.393 334.182C199.393 334.182 193.935 330.619 187.689 335.38V333.967Z" fill="#DCD7C9"/>
<path d="M177.93 369.592C173.219 370.158 168.46 370.209 163.738 369.746C160.453 369.483 157.245 368.615 154.276 367.186L153.825 366.94C147.681 363.346 144.875 349.194 144.875 349.194L189.686 333.261V333.353C189.781 333.537 189.873 333.742 189.962 333.967C198.492 352.614 188.18 368.363 177.93 369.592Z" fill="#DCD7C9"/>
<path opacity="0.7" d="M175.104 368.292C158.72 368.486 144.865 349.194 144.865 349.194L189.675 333.261C196.608 347.576 191.488 368.087 175.104 368.292Z" fill="white"/>
<path opacity="0.2" d="M177.93 369.592C173.219 370.158 168.46 370.209 163.738 369.746C160.468 369.401 157.274 368.536 154.276 367.186L153.825 366.94C147.681 363.346 144.875 349.194 144.875 349.194C144.875 349.194 164.106 378.89 183.409 366.95C196.915 358.605 192.707 340.173 190.003 333.967C198.492 352.614 188.18 368.363 177.93 369.592Z" fill="black"/>
<path opacity="0.2" d="M171.407 340.398C171.775 340.251 172.156 340.138 172.544 340.06C173.711 339.845 174.797 339.272 176.015 339.466C176.353 339.493 176.667 339.647 176.896 339.896C177.055 340.164 177.12 340.478 177.08 340.787C177.102 341.497 176.947 342.2 176.63 342.835C176.388 343.227 176.08 343.574 175.718 343.859C174.825 344.567 173.767 345.038 172.642 345.227C171.518 345.417 170.364 345.32 169.288 344.945C168.732 344.79 168.234 344.477 167.854 344.043C167.667 343.825 167.553 343.554 167.527 343.268C167.501 342.981 167.566 342.694 167.711 342.446C167.918 342.197 168.181 342 168.479 341.873C169.422 341.318 170.4 340.826 171.407 340.398Z" fill="black"/>
<path d="M173.056 341.166C173.081 341.294 173.081 341.426 173.056 341.555C172.925 341.955 172.661 342.298 172.308 342.528C172.053 342.739 171.738 342.864 171.407 342.886C170.383 342.886 170.383 341.862 170.752 341.156C171.121 340.449 172.974 339.906 173.056 341.166Z" fill="#263238"/>
<path d="M251.515 325.632C241.275 319.109 239.739 312.32 240.251 307.763C241.398 298.25 252.068 290.488 261.489 287.283C276.961 282.061 280.484 274.104 280.515 274.022L282.409 274.811C282.266 275.169 278.6 283.669 262.144 289.229C253.307 292.209 243.323 299.346 242.278 307.989C241.592 313.672 245.156 319.171 252.57 323.881L251.515 325.632Z" fill="#263238"/>
<path d="M252.57 336.384C241.746 335.247 234.865 330.24 233.708 322.642C232.274 313.324 240.077 302.725 252.262 297.452C273.766 288.133 283.423 279.101 283.525 279.02L284.938 280.504C284.539 280.873 275.005 289.864 253.082 299.346C241.736 304.251 234.435 313.928 235.674 322.345C236.698 328.95 242.903 333.332 252.723 334.356L252.57 336.384Z" fill="#263238"/>
<path d="M415.795 246.569L414.31 245.166C415.191 244.224 435.62 221.921 405.709 193.485C400.589 188.621 395.868 184.002 391.711 179.927C370.012 158.679 358.062 146.975 336.077 144.527L336.302 142.479C358.994 144.998 371.845 157.593 393.144 178.452C397.302 182.548 402.002 187.136 407.112 191.99C438.549 221.87 416.031 246.323 415.795 246.569Z" fill="#DCD7C9"/>
<path d="M408.269 248.832L405.637 245.76L406.948 247.327L405.627 245.76C405.801 245.617 422.492 231.229 418.703 210.043C416.338 196.803 394.25 168.714 369.306 152.341C358.82 145.449 343.593 137.882 330.66 140.933L329.718 136.95C344.054 133.56 360.438 141.589 371.558 148.91C395.51 164.639 419.901 193.434 422.758 209.326C426.947 232.868 409.037 248.238 408.269 248.832Z" fill="#263238"/>
<path d="M427.008 245.504L403.046 220.037C402.651 219.616 402.176 219.277 401.649 219.041C401.121 218.806 400.552 218.678 399.974 218.665C398.868 218.665 387.789 218.665 387.789 218.665C387.2 218.629 386.61 218.714 386.055 218.915C385.5 219.116 384.993 219.428 384.563 219.832L370.739 232.847C369.9 233.637 369.408 234.727 369.372 235.879C369.335 237.031 369.757 238.15 370.545 238.991L394.496 264.458C394.89 264.881 395.365 265.22 395.893 265.456C396.421 265.691 396.99 265.819 397.568 265.83C398.684 265.83 408.75 265.83 409.856 265.83C410.994 265.852 412.096 265.429 412.928 264.653L426.762 251.638C427.603 250.854 428.101 249.77 428.147 248.621C428.193 247.473 427.783 246.353 427.008 245.504Z" fill="#263238"/>
<path opacity="0.2" d="M427.008 245.504L403.046 220.037C402.651 219.616 402.176 219.277 401.649 219.041C401.121 218.806 400.552 218.678 399.974 218.665C398.868 218.665 387.789 218.665 387.789 218.665C387.2 218.629 386.61 218.714 386.055 218.915C385.5 219.116 384.993 219.428 384.563 219.832L370.739 232.847C369.9 233.637 369.408 234.727 369.372 235.879C369.335 237.031 369.757 238.15 370.545 238.991L394.496 264.458C394.89 264.881 395.365 265.22 395.893 265.456C396.421 265.691 396.99 265.819 397.568 265.83C398.684 265.83 408.75 265.83 409.856 265.83C410.994 265.852 412.096 265.429 412.928 264.653L426.762 251.638C427.603 250.854 428.101 249.77 428.147 248.621C428.193 247.473 427.783 246.353 427.008 245.504Z" fill="white"/>
<path opacity="0.2" d="M396.904 219.883L383.064 232.894C381.313 234.54 381.228 237.294 382.874 239.045L406.826 264.525C408.472 266.276 411.226 266.361 412.978 264.715L426.818 251.704C428.569 250.058 428.654 247.304 427.008 245.553L403.056 220.073C401.41 218.322 398.656 218.237 396.904 219.883Z" fill="black"/>
<path d="M395.694 256.748C394.539 255.707 393.167 254.937 391.678 254.492C390.188 254.047 388.619 253.94 387.082 254.177L368.077 274.299C366.828 275.63 368.077 278.282 371.487 281.108C375.491 284.396 378.706 284.068 379.679 283.075L398.828 262.728C398.732 261.572 398.405 260.447 397.867 259.42C397.328 258.393 396.59 257.484 395.694 256.748Z" fill="#DCD7C9"/>
<path opacity="0.2" d="M368.077 274.299C371.149 271.094 382.679 279.849 379.638 283.074C378.706 284.098 375.491 284.395 371.446 281.108C368.067 278.282 366.828 275.63 368.077 274.299Z" fill="black"/>
<path d="M338.882 334.213V345.959H312.576V334.213C312.579 331.706 313.577 329.302 315.351 327.529C317.125 325.757 319.53 324.762 322.038 324.762H329.421C331.928 324.762 334.333 325.757 336.108 327.529C337.882 329.302 338.88 331.706 338.882 334.213Z" fill="#263238"/>
<path opacity="0.2" d="M338.882 334.213V345.959H312.576V334.213C312.579 331.706 313.577 329.302 315.351 327.529C317.125 325.757 319.53 324.762 322.038 324.762H329.421C331.928 324.762 334.333 325.757 336.108 327.529C337.882 329.302 338.88 331.706 338.882 334.213Z" fill="white"/>
<path opacity="0.2" d="M338.883 334.213V345.959H317.696V334.213C317.696 331.707 318.692 329.303 320.464 327.53C322.237 325.757 324.641 324.762 327.148 324.762H329.421C331.928 324.762 334.334 325.757 336.108 327.529C337.882 329.302 338.88 331.706 338.883 334.213Z" fill="black"/>
<path d="M377.702 282.788L377.057 283.474L330.752 332.698C330.255 333.226 329.659 333.651 328.998 333.95C328.336 334.248 327.623 334.413 326.898 334.435C326.173 334.457 325.45 334.337 324.772 334.08C324.094 333.823 323.472 333.435 322.944 332.938C322.415 332.441 321.99 331.845 321.692 331.184C321.394 330.523 321.229 329.809 321.206 329.084C321.184 328.359 321.305 327.637 321.562 326.958C321.818 326.28 322.206 325.659 322.703 325.13L367.974 277.002L368.998 275.978C371.886 274.893 378.798 280.218 377.702 282.788Z" fill="#DCD7C9"/>
<path d="M349.122 334.213V345.959H322.826V334.213C322.826 331.707 323.822 329.303 325.594 327.53C327.367 325.757 329.771 324.762 332.278 324.762H339.671C342.178 324.762 344.582 325.757 346.354 327.53C348.127 329.303 349.122 331.707 349.122 334.213Z" fill="#263238"/>
<path opacity="0.2" d="M349.122 334.213V345.959H322.826V334.213C322.826 331.707 323.822 329.303 325.594 327.53C327.367 325.757 329.771 324.762 332.278 324.762H339.671C342.178 324.762 344.582 325.757 346.354 327.53C348.127 329.303 349.122 331.707 349.122 334.213Z" fill="white"/>
<path opacity="0.2" d="M349.123 334.213V345.959H327.946V334.213C327.946 331.707 328.942 329.303 330.715 327.53C332.487 325.757 334.891 324.762 337.398 324.762H339.671C342.178 324.762 344.582 325.757 346.354 327.53C348.127 329.303 349.123 331.707 349.123 334.213Z" fill="black"/>
<path d="M304.579 339.456V365.824H357.376V339.456C357.376 338.641 357.052 337.86 356.476 337.284C355.9 336.708 355.119 336.384 354.304 336.384H307.61C306.802 336.395 306.031 336.723 305.464 337.298C304.897 337.873 304.579 338.648 304.579 339.456Z" fill="#263238"/>
<path opacity="0.2" d="M304.579 339.456V365.824H357.376V339.456C357.376 338.641 357.052 337.86 356.476 337.284C355.9 336.708 355.119 336.384 354.304 336.384H307.61C306.802 336.395 306.031 336.723 305.464 337.298C304.897 337.873 304.579 338.648 304.579 339.456Z" fill="white"/>
<path opacity="0.2" d="M304.579 339.456V365.824H338.944V339.456C338.944 338.641 338.62 337.86 338.044 337.284C337.468 336.708 336.687 336.384 335.872 336.384H307.61C306.802 336.395 306.031 336.723 305.464 337.298C304.897 337.873 304.579 338.648 304.579 339.456Z" fill="white"/>
<path d="M292.372 324.301V347.791H239.77V324.301C239.768 321.816 240.256 319.356 241.206 317.06C242.156 314.764 243.549 312.678 245.305 310.92C247.062 309.163 249.147 307.769 251.443 306.818C253.738 305.867 256.198 305.377 258.683 305.377H273.459C275.944 305.377 278.404 305.867 280.699 306.818C282.995 307.769 285.08 309.163 286.836 310.92C288.593 312.678 289.986 314.764 290.936 317.06C291.886 319.356 292.374 321.816 292.372 324.301Z" fill="#DCD7C9"/>
<path opacity="0.2" d="M292.372 324.301V347.791H250.01V324.301C250.007 321.817 250.494 319.356 251.443 317.061C252.391 314.765 253.783 312.678 255.539 310.921C257.294 309.164 259.379 307.769 261.674 306.818C263.969 305.867 266.428 305.377 268.913 305.377H273.459C275.944 305.377 278.404 305.867 280.699 306.818C282.995 307.769 285.08 309.163 286.836 310.92C288.593 312.678 289.986 314.764 290.936 317.06C291.886 319.356 292.374 321.816 292.372 324.301Z" fill="black"/>
<path d="M345.651 255.754L339.763 262.021L331.96 270.315L311.071 292.536C310.794 292.828 310.461 293.061 310.091 293.219C309.721 293.378 309.323 293.459 308.92 293.458H299.971C299.21 293.469 298.475 293.182 297.923 292.659L276.163 272.179C275.596 271.641 275.266 270.901 275.242 270.121C275.219 269.34 275.506 268.582 276.04 268.011L310.62 231.24C310.891 230.951 311.218 230.719 311.58 230.559C311.942 230.399 312.333 230.313 312.73 230.308H321.72C322.48 230.3 323.214 230.586 323.768 231.106L339.753 246.139L345.518 251.566C345.802 251.832 346.031 252.151 346.192 252.506C346.352 252.861 346.441 253.243 346.454 253.632C346.466 254.021 346.401 254.409 346.264 254.773C346.126 255.137 345.918 255.471 345.651 255.754Z" fill="#263238"/>
<path opacity="0.3" d="M345.651 255.754L339.763 262.021L331.96 270.315L311.071 292.536C310.794 292.828 310.461 293.061 310.091 293.219C309.721 293.378 309.323 293.459 308.92 293.458H299.971C299.21 293.469 298.475 293.182 297.923 292.659L276.163 272.179C275.596 271.641 275.266 270.901 275.242 270.121C275.219 269.34 275.506 268.582 276.04 268.011L310.62 231.24C310.891 230.951 311.218 230.719 311.58 230.559C311.942 230.399 312.333 230.313 312.73 230.308H321.72C322.48 230.3 323.214 230.586 323.768 231.106L339.753 246.139L345.518 251.566C345.802 251.832 346.031 252.151 346.192 252.506C346.352 252.861 346.441 253.243 346.454 253.632C346.466 254.021 346.401 254.409 346.264 254.773C346.126 255.137 345.918 255.471 345.651 255.754Z" fill="white"/>
<path opacity="0.2" d="M339.763 246.159V262.021L331.96 270.316H277.135C276.872 270.317 276.614 270.244 276.391 270.104C276.168 269.964 275.99 269.764 275.877 269.526C275.764 269.289 275.722 269.024 275.754 268.763C275.786 268.502 275.893 268.255 276.06 268.052L310.641 231.281C310.912 230.992 311.238 230.76 311.601 230.6C311.963 230.44 312.354 230.354 312.75 230.349H321.741C322.501 230.341 323.235 230.627 323.789 231.148L339.763 246.159Z" fill="white"/>
<path d="M382.976 217.405C381.1 214.994 378.697 213.043 375.951 211.701C373.206 210.359 370.19 209.663 367.135 209.664C365.087 209.664 357.417 209.664 355.482 209.664C352.702 209.632 349.947 210.179 347.39 211.27C344.834 212.361 342.533 213.973 340.634 216.002L288.174 271.79H355.256L381.768 243.589C385.062 240.088 386.995 235.523 387.217 230.721C387.438 225.918 385.934 221.195 382.976 217.405Z" fill="#263238"/>
<path opacity="0.6" d="M382.976 217.405C381.1 214.994 378.697 213.043 375.951 211.701C373.206 210.359 370.19 209.663 367.135 209.664C365.087 209.664 357.417 209.664 355.482 209.664C352.702 209.632 349.947 210.179 347.39 211.27C344.834 212.361 342.533 213.973 340.634 216.002L288.174 271.79H355.256L381.768 243.589C385.062 240.088 386.995 235.523 387.217 230.721C387.438 225.918 385.934 221.195 382.976 217.405Z" fill="white"/>
<path opacity="0.2" d="M382.976 217.405C381.189 215.115 378.928 213.238 376.347 211.904C373.767 210.57 370.928 209.81 368.026 209.677C365.124 209.543 362.227 210.04 359.535 211.132C356.843 212.224 354.419 213.885 352.43 216.003L300.032 271.79H355.328L381.839 243.589C385.124 240.079 387.043 235.51 387.252 230.708C387.46 225.905 385.944 221.187 382.976 217.405Z" fill="black"/>
<path d="M373.432 253.645L343.532 225.526C342.78 224.827 341.793 224.436 340.767 224.43C339.681 224.43 329.411 224.43 328.397 224.43C327.855 224.436 327.319 224.551 326.823 224.769C326.327 224.988 325.88 225.304 325.509 225.7L277.955 276.265C277.227 277.053 276.838 278.096 276.87 279.168C276.903 280.24 277.355 281.257 278.129 281.999L308.04 310.129C308.786 310.836 309.776 311.229 310.805 311.224H323.093C323.645 311.226 324.192 311.115 324.699 310.896C325.207 310.678 325.664 310.357 326.042 309.955L373.586 259.379C374.316 258.594 374.709 257.553 374.681 256.481C374.652 255.408 374.204 254.39 373.432 253.645Z" fill="#DCD7C9"/>
<g opacity="0.2">
<path d="M373.606 259.379L326.062 309.954C325.32 310.726 324.305 311.176 323.235 311.208C322.166 311.241 321.126 310.853 320.338 310.129L290.427 281.999C289.651 281.258 289.197 280.242 289.163 279.17C289.129 278.097 289.516 277.054 290.243 276.265L337.797 225.7C338.54 224.926 339.556 224.474 340.629 224.441C341.701 224.409 342.743 224.798 343.532 225.526L373.432 253.645C374.207 254.387 374.658 255.404 374.691 256.476C374.724 257.549 374.334 258.591 373.606 259.379Z" fill="black"/>
</g>
<path d="M319.57 309.668H319.693L297.841 332.902C295.235 335.687 291.889 337.67 288.195 338.616L287.519 338.77C286.444 339.012 285.352 339.162 284.252 339.22H283.228H271.36C267.432 339.218 263.59 338.067 260.308 335.908C257.026 333.75 254.447 330.678 252.889 327.071C251.331 323.465 250.863 319.482 251.541 315.612C252.219 311.743 254.015 308.157 256.707 305.295L278.374 282.255H290.171L319.57 309.668Z" fill="#263238"/>
<path opacity="0.6" d="M319.57 309.668H319.693L297.841 332.902C295.235 335.687 291.889 337.67 288.195 338.616L287.519 338.77C286.444 339.012 285.352 339.162 284.252 339.22H283.228H271.36C267.432 339.218 263.59 338.067 260.308 335.908C257.026 333.75 254.447 330.678 252.889 327.071C251.331 323.465 250.863 319.482 251.541 315.612C252.219 311.743 254.015 308.157 256.707 305.295L278.374 282.255H290.171L319.57 309.668Z" fill="white"/>
<path opacity="0.2" d="M319.693 309.627L297.841 332.861C295.236 335.646 291.889 337.629 288.195 338.575L287.519 338.729C286.445 338.971 285.352 339.121 284.252 339.179H283.228H282.778C278.876 339.116 275.077 337.921 271.843 335.738C268.609 333.556 266.078 330.481 264.559 326.887C263.04 323.292 262.599 319.334 263.288 315.494C263.977 311.653 265.768 308.096 268.442 305.254L290.109 282.214L319.509 309.647L319.693 309.627Z" fill="black"/>
<path d="M282.225 126.505C284.101 124.097 286.503 122.15 289.246 120.812C291.99 119.474 295.003 118.78 298.056 118.784C300.052 118.784 307.773 118.784 309.709 118.784C312.488 118.752 315.244 119.299 317.8 120.39C320.356 121.482 322.657 123.093 324.557 125.123L408.525 214.395C411.821 217.898 413.753 222.465 413.973 227.27C414.193 232.075 412.685 236.8 409.723 240.589C407.842 243.005 405.432 244.958 402.679 246.298C399.926 247.638 396.902 248.33 393.841 248.32H381.952C379.217 248.315 376.513 247.75 374.005 246.66C371.497 245.57 369.239 243.977 367.37 241.981L283.402 152.709C280.103 149.205 278.169 144.634 277.953 139.825C277.737 135.017 279.253 130.291 282.225 126.505Z" fill="#263238"/>
<path opacity="0.6" d="M282.225 126.505C284.101 124.097 286.503 122.15 289.246 120.812C291.99 119.474 295.003 118.78 298.056 118.784C300.052 118.784 307.773 118.784 309.709 118.784C312.488 118.752 315.244 119.299 317.8 120.39C320.356 121.482 322.657 123.093 324.557 125.123L408.525 214.395C411.821 217.898 413.753 222.465 413.973 227.27C414.193 232.075 412.685 236.8 409.723 240.589C407.842 243.005 405.432 244.958 402.679 246.298C399.926 247.638 396.902 248.33 393.841 248.32H381.952C379.217 248.315 376.513 247.75 374.005 246.66C371.497 245.57 369.239 243.977 367.37 241.981L283.402 152.709C280.103 149.205 278.169 144.634 277.953 139.825C277.737 135.017 279.253 130.291 282.225 126.505Z" fill="white"/>
<path opacity="0.2" d="M409.692 240.568C412.655 236.779 414.162 232.054 413.943 227.25C413.723 222.445 411.79 217.877 408.494 214.374L324.526 125.102C322.536 122.986 320.112 121.326 317.42 120.235C314.728 119.144 311.832 118.648 308.931 118.782C306.029 118.915 303.191 119.674 300.61 121.007C298.03 122.34 295.768 124.216 293.98 126.505C291.022 130.295 289.518 135.018 289.739 139.82C289.961 144.623 291.894 149.187 295.189 152.689L379.157 241.961C381.145 244.077 383.568 245.738 386.258 246.83C388.949 247.921 391.844 248.418 394.745 248.286C397.645 248.153 400.483 247.395 403.063 246.063C405.643 244.731 407.905 242.857 409.692 240.568Z" fill="black"/>
<path d="M311.982 324.301V347.791H259.379V324.301C259.378 321.816 259.866 319.356 260.816 317.06C261.766 314.764 263.159 312.678 264.915 310.92C266.672 309.163 268.757 307.769 271.052 306.818C273.348 305.867 275.808 305.377 278.292 305.377H293.069C295.553 305.377 298.014 305.867 300.309 306.818C302.604 307.769 304.69 309.163 306.446 310.92C308.202 312.678 309.595 314.764 310.545 317.06C311.495 319.356 311.983 321.816 311.982 324.301Z" fill="#DCD7C9"/>
<path opacity="0.2" d="M311.982 324.301V347.791H269.619V324.301C269.616 321.817 270.103 319.356 271.052 317.061C272.001 314.765 273.393 312.678 275.148 310.921C276.904 309.164 278.989 307.769 281.284 306.818C283.578 305.867 286.038 305.377 288.522 305.377H293.069C295.553 305.377 298.014 305.867 300.309 306.818C302.604 307.769 304.69 309.163 306.446 310.92C308.202 312.678 309.595 314.764 310.545 317.06C311.495 319.356 311.983 321.816 311.982 324.301Z" fill="black"/>
<path d="M334.049 345.743V365.967H216.658V345.743C216.658 344.929 216.982 344.147 217.558 343.571C218.134 342.995 218.915 342.671 219.73 342.671H331.018C331.826 342.682 332.597 343.011 333.164 343.585C333.731 344.16 334.049 344.936 334.049 345.743Z" fill="#DCD7C9"/>
<path opacity="0.2" d="M334.049 345.743V365.967H267.889V345.743C267.889 344.929 268.212 344.147 268.788 343.571C269.365 342.995 270.146 342.671 270.961 342.671H331.059C331.86 342.693 332.62 343.026 333.179 343.6C333.737 344.173 334.05 344.943 334.049 345.743Z" fill="black"/>
<path opacity="0.2" d="M334.049 345.743V365.967H216.658V345.743C216.658 344.929 216.982 344.147 217.558 343.571C218.134 342.995 218.915 342.671 219.73 342.671H331.018C331.826 342.682 332.597 343.011 333.164 343.585C333.731 344.16 334.049 344.936 334.049 345.743Z" fill="black"/>
<path d="M365.22 367.043V370.063H208.292V367.043C208.29 366.422 208.412 365.807 208.648 365.233C208.885 364.659 209.232 364.137 209.671 363.698C210.109 363.259 210.63 362.91 211.204 362.672C211.777 362.434 212.392 362.312 213.012 362.312H360.448C361.073 362.306 361.692 362.425 362.271 362.66C362.85 362.895 363.376 363.243 363.82 363.683C364.263 364.123 364.615 364.646 364.856 365.223C365.096 365.799 365.22 366.418 365.22 367.043Z" fill="#263238"/>
<path opacity="0.2" d="M365.22 367.043V370.063H208.292V367.043C208.29 366.422 208.412 365.807 208.648 365.233C208.885 364.659 209.232 364.137 209.671 363.698C210.109 363.259 210.63 362.91 211.204 362.672C211.777 362.434 212.392 362.312 213.012 362.312H360.448C361.073 362.306 361.692 362.425 362.271 362.66C362.85 362.895 363.376 363.243 363.82 363.683C364.263 364.123 364.615 364.646 364.856 365.223C365.096 365.799 365.22 366.418 365.22 367.043Z" fill="white"/>
<path opacity="0.2" d="M365.22 367.043V370.063H259.522V367.043C259.521 366.422 259.642 365.807 259.879 365.233C260.115 364.659 260.463 364.137 260.901 363.698C261.34 363.259 261.861 362.91 262.434 362.672C263.008 362.434 263.622 362.312 264.243 362.312H360.499C361.752 362.314 362.953 362.814 363.838 363.701C364.723 364.588 365.22 365.79 365.22 367.043Z" fill="black"/>
<path d="M294.523 312.197H291.553C284.764 312.197 279.265 318.699 279.265 326.728C279.265 334.756 284.764 341.258 291.553 341.258H294.523C301.312 341.258 306.811 334.746 306.811 326.728C306.811 318.71 301.312 312.197 294.523 312.197Z" fill="#263238"/>
<path opacity="0.2" d="M294.523 312.197H291.553C284.764 312.197 279.265 318.699 279.265 326.728C279.265 334.756 284.764 341.258 291.553 341.258H294.523C301.312 341.258 306.811 334.746 306.811 326.728C306.811 318.71 301.312 312.197 294.523 312.197Z" fill="white"/>
<path opacity="0.2" d="M294.523 341.258C301.309 341.258 306.811 334.753 306.811 326.728C306.811 318.703 301.309 312.197 294.523 312.197C287.736 312.197 282.235 318.703 282.235 326.728C282.235 334.753 287.736 341.258 294.523 341.258Z" fill="black"/>
<path d="M298.24 318.095H296.469C292.434 318.095 289.167 321.956 289.167 326.728C289.167 331.5 292.434 335.36 296.469 335.36H298.24C302.264 335.36 305.541 331.5 305.541 326.728C305.541 321.956 302.264 318.095 298.24 318.095Z" fill="#263238"/>
<path opacity="0.6" d="M298.24 318.095H296.469C292.434 318.095 289.167 321.956 289.167 326.728C289.167 331.5 292.434 335.36 296.469 335.36H298.24C302.264 335.36 305.541 331.5 305.541 326.728C305.541 321.956 302.264 318.095 298.24 318.095Z" fill="white"/>
<path opacity="0.2" d="M298.24 335.36C302.272 335.36 305.541 331.495 305.541 326.728C305.541 321.96 302.272 318.095 298.24 318.095C294.208 318.095 290.939 321.96 290.939 326.728C290.939 331.495 294.208 335.36 298.24 335.36Z" fill="black"/>
<path d="M399.974 212.756H397.005C390.216 212.756 384.717 219.259 384.717 227.287C384.717 235.315 390.216 241.817 397.005 241.817H399.974C406.753 241.817 412.262 235.315 412.262 227.287C412.262 219.259 406.753 212.756 399.974 212.756Z" fill="#263238"/>
<path opacity="0.2" d="M399.974 212.756H397.005C390.216 212.756 384.717 219.259 384.717 227.287C384.717 235.315 390.216 241.817 397.005 241.817H399.974C406.753 241.817 412.262 235.315 412.262 227.287C412.262 219.259 406.753 212.756 399.974 212.756Z" fill="white"/>
<path opacity="0.2" d="M399.975 241.817C406.761 241.817 412.263 235.312 412.263 227.287C412.263 219.262 406.761 212.756 399.975 212.756C393.188 212.756 387.687 219.262 387.687 227.287C387.687 235.312 393.188 241.817 399.975 241.817Z" fill="black"/>
<path d="M403.681 218.655H401.92C397.885 218.655 394.619 222.515 394.619 227.287C394.619 232.059 397.885 235.919 401.92 235.919H403.681C407.716 235.919 410.982 232.059 410.982 227.287C410.982 222.515 407.716 218.655 403.681 218.655Z" fill="#263238"/>
<path opacity="0.6" d="M403.681 218.655H401.92C397.885 218.655 394.619 222.515 394.619 227.287C394.619 232.059 397.885 235.919 401.92 235.919H403.681C407.716 235.919 410.982 232.059 410.982 227.287C410.982 222.515 407.716 218.655 403.681 218.655Z" fill="white"/>
<path opacity="0.2" d="M403.681 235.919C407.714 235.919 410.982 232.055 410.982 227.287C410.982 222.52 407.714 218.655 403.681 218.655C399.649 218.655 396.38 222.52 396.38 227.287C396.38 232.055 399.649 235.919 403.681 235.919Z" fill="black"/>
<path d="M280.494 113.92C277.794 113.964 275.115 114.413 272.548 115.251L252.59 123.146V161.331L272.548 169.226C275.395 170.16 278.379 170.61 281.375 170.557C281.375 170.557 314.286 170.609 317.215 170.557C330.824 170.332 343.593 159.744 343.593 142.244C343.593 124.395 330.281 113.736 316.396 113.92C316.416 113.92 286.321 113.838 280.494 113.92Z" fill="#DCD7C9"/>
<path opacity="0.2" d="M308.408 115.251L284.354 123.146V161.331L308.408 169.226C324.731 174.582 343.613 163.522 343.613 142.244C343.613 120.965 324.731 109.906 308.408 115.251Z" fill="black"/>
<path d="M327.363 127.703H324.393C317.604 127.703 312.105 134.206 312.105 142.234C312.105 150.262 317.604 156.764 324.393 156.764H327.363C334.152 156.764 339.651 150.262 339.651 142.234C339.651 134.206 334.152 127.703 327.363 127.703Z" fill="#263238"/>
<path opacity="0.2" d="M327.363 127.703H324.393C317.604 127.703 312.105 134.206 312.105 142.234C312.105 150.262 317.604 156.764 324.393 156.764H327.363C334.152 156.764 339.651 150.262 339.651 142.234C339.651 134.206 334.152 127.703 327.363 127.703Z" fill="white"/>
<path opacity="0.2" d="M327.363 156.764C334.149 156.764 339.651 150.259 339.651 142.234C339.651 134.209 334.149 127.703 327.363 127.703C320.576 127.703 315.075 134.209 315.075 142.234C315.075 150.259 320.576 156.764 327.363 156.764Z" fill="black"/>
<path d="M331.08 133.601H329.308C325.274 133.601 322.007 137.462 322.007 142.234C322.007 147.005 325.274 150.866 329.308 150.866H331.08C335.114 150.866 338.381 147.005 338.381 142.234C338.381 137.462 335.114 133.601 331.08 133.601Z" fill="#263238"/>
<path opacity="0.6" d="M331.08 133.601H329.308C325.274 133.601 322.007 137.462 322.007 142.234C322.007 147.005 325.274 150.866 329.308 150.866H331.08C335.114 150.866 338.381 147.005 338.381 142.234C338.381 137.462 335.114 133.601 331.08 133.601Z" fill="white"/>
<path opacity="0.2" d="M331.08 150.866C335.112 150.866 338.381 147.001 338.381 142.234C338.381 137.466 335.112 133.601 331.08 133.601C327.047 133.601 323.779 137.466 323.779 142.234C323.779 147.001 327.047 150.866 331.08 150.866Z" fill="black"/>
<path d="M264.888 116.173H270.213C282.378 116.173 292.25 127.846 292.25 142.234C292.25 156.621 282.378 168.284 270.213 168.284H264.888C252.713 168.284 242.852 156.621 242.852 142.234C242.852 127.846 252.713 116.173 264.888 116.173Z" fill="#263238"/>
<path opacity="0.2" d="M264.888 116.173H270.213C282.378 116.173 292.25 127.846 292.25 142.234C292.25 156.621 282.378 168.284 270.213 168.284H264.888C252.713 168.284 242.852 156.621 242.852 142.234C242.852 127.846 252.713 116.173 264.888 116.173Z" fill="white"/>
<path opacity="0.2" d="M264.888 168.294C277.059 168.294 286.925 156.627 286.925 142.234C286.925 127.841 277.059 116.173 264.888 116.173C252.718 116.173 242.852 127.841 242.852 142.234C242.852 156.627 252.718 168.294 264.888 168.294Z" fill="white"/>
<path d="M257.894 121.334H229.939C220.088 121.334 212.111 130.693 212.111 142.234C212.111 153.774 220.088 163.133 229.939 163.133H257.894C267.735 163.133 275.722 153.774 275.722 142.234C275.722 130.693 267.735 121.334 257.894 121.334Z" fill="#263238"/>
<path opacity="0.6" d="M257.894 121.334H229.939C220.088 121.334 212.111 130.693 212.111 142.234C212.111 153.774 220.088 163.133 229.939 163.133H257.894C267.735 163.133 275.722 153.774 275.722 142.234C275.722 130.693 267.735 121.334 257.894 121.334Z" fill="white"/>
<path d="M223.898 116.173H229.222C241.398 116.173 251.259 127.846 251.259 142.234C251.259 156.621 241.398 168.284 229.222 168.284H223.898C211.732 168.284 201.861 156.621 201.861 142.234C201.861 127.846 211.732 116.173 223.898 116.173Z" fill="#263238"/>
<path opacity="0.2" d="M223.898 116.173H229.222C241.398 116.173 251.259 127.846 251.259 142.234C251.259 156.621 241.398 168.284 229.222 168.284H223.898C211.732 168.284 201.861 156.621 201.861 142.234C201.861 127.846 211.732 116.173 223.898 116.173Z" fill="white"/>
<path opacity="0.2" d="M223.898 168.294C236.068 168.294 245.934 156.627 245.934 142.234C245.934 127.841 236.068 116.173 223.898 116.173C211.727 116.173 201.861 127.841 201.861 142.234C201.861 156.627 211.727 168.294 223.898 168.294Z" fill="white"/>
<path d="M175.954 122.634L182.313 118.323L200.1 118.651L221.01 116.531C221.01 116.531 229.417 120.525 235.141 125.952C235.141 125.952 241.572 137.452 238.356 157.112L230.492 169.185L218.337 169.749L204.155 168.376L194.836 153.016L175.104 136.55L175.954 122.634Z" fill="#263238"/>
<path opacity="0.2" d="M238.356 157.123L230.492 169.185L218.337 169.749L204.155 168.376L194.847 153.016L175.104 136.55L176.005 122.634L182.354 118.333L200.141 118.651L221.051 116.531C221.051 116.531 229.458 120.525 235.182 125.952C235.141 125.952 241.572 137.452 238.356 157.123Z" fill="white"/>
<path opacity="0.2" d="M238.356 157.123L230.492 169.185L224.604 159.293L225.147 146.811L207.165 148.419L198.564 152.463L202.312 162.478L210.012 161.229L230.492 169.185L204.155 168.376L194.836 153.016L176.497 137.994L192.348 134.103L209.51 144.486H225.894L217.702 134.083L221.102 116.531C221.102 116.531 229.509 120.525 235.233 125.952C235.141 125.952 241.572 137.452 238.356 157.123Z" fill="black"/>
<path d="M154.829 131.492C154.235 130.324 154.102 123.801 154.747 122.993C155.392 122.184 168.868 116.408 180.449 118.405L184.597 130.12L177.121 135.741L165.263 137.124L154.829 131.492Z" fill="#263238"/>
<path opacity="0.4" d="M154.829 131.492C154.235 130.324 154.102 123.801 154.747 122.993C155.392 122.184 168.868 116.408 180.449 118.405L184.597 130.12L177.121 135.741L165.263 137.124L154.829 131.492Z" fill="white"/>
<path opacity="0.2" d="M184.597 130.12L177.121 135.741L165.263 137.124L154.829 131.492C154.235 130.324 154.102 123.802 154.747 122.993C154.747 122.993 163.512 122.245 165.202 122.993C166.892 123.74 175.053 133.13 175.053 133.13L184.597 130.12Z" fill="black"/>
<path d="M161.792 123.996L148.838 130.99L150.17 163.994C150.17 163.994 157.921 163.656 160.614 161.628C163.307 159.601 170.445 133.181 170.445 133.181L161.792 123.996Z" fill="#263238"/>
<path opacity="0.6" d="M170.465 133.181C170.465 133.181 163.297 159.611 160.635 161.638C157.972 163.666 150.661 163.973 150.2 163.994L148.869 130.98L161.792 123.996L170.465 133.181Z" fill="white"/>
<path opacity="0.2" d="M170.465 133.181C170.465 133.181 163.297 159.611 160.635 161.638C157.973 163.666 150.661 163.973 150.2 163.993C156.252 162.079 157.594 158.792 157.594 158.792L161.813 123.976L170.465 133.181Z" fill="black"/>
<path d="M196.925 179.988L196.618 176.056L207.872 162.632L220.375 160.686L229.11 170.465L213.75 184.586L204.452 187.658L196.925 179.988Z" fill="#263238"/>
<path opacity="0.4" d="M229.11 170.475L213.75 184.586L204.452 187.658L196.925 179.988L196.618 176.046L207.882 162.621L220.395 160.696L229.11 170.475Z" fill="white"/>
<path opacity="0.2" d="M229.11 170.475L213.75 184.586L204.452 187.658L196.925 179.988L196.618 176.046L208.445 174.49L220.385 160.696L229.11 170.475Z" fill="black"/>
<path d="M178.043 194.908C177.859 188.242 194.796 178.606 194.796 178.606L207.872 177.582L211.722 187.085L188.775 196.301L178.043 194.908Z" fill="#263238"/>
<path opacity="0.6" d="M211.722 187.085L188.764 196.301L178.043 194.908C177.848 188.242 194.796 178.616 194.796 178.616L207.872 177.592L211.722 187.085Z" fill="white"/>
<path opacity="0.2" d="M211.722 187.085L188.764 196.301L178.043 194.908L188.519 194.816C188.519 194.816 191.59 183.951 207.872 177.582L211.722 187.085Z" fill="black"/>
<path d="M170.67 131.574C170.67 131.574 161.792 134.728 160.584 142.838C157.594 138.547 151.675 133.693 140.042 132.864C140.042 132.864 143.954 153.18 163.594 149.801C163.551 149.456 163.486 149.114 163.4 148.777C166.369 147.128 171.53 142.51 170.67 131.574Z" fill="#DCD7C9"/>
<path opacity="0.2" d="M170.67 131.574C170.67 131.574 161.792 134.728 160.584 142.838C157.594 138.547 151.675 133.693 140.042 132.864C140.042 132.864 143.954 153.18 163.594 149.801C163.551 149.456 163.486 149.114 163.4 148.777C166.369 147.128 171.53 142.51 170.67 131.574Z" fill="black"/>
<path d="M191.918 190.331C182.979 199.926 178.688 196.71 178.688 196.71C178.688 196.71 175.032 202.578 164.035 201.011C157.338 200.059 149.35 194.048 143.698 186.409C137.124 177.551 133.693 166.482 139.059 158.648C148.009 145.582 161.536 148.879 161.536 148.879C161.536 148.879 170.127 139.735 182.508 141.885C183.071 141.979 183.626 142.12 184.166 142.305C198.492 147.2 200.561 181.074 191.918 190.331Z" fill="#DCD7C9"/>
<path opacity="0.2" d="M183.009 181.176C174.06 190.761 169.779 187.545 169.779 187.545C169.779 187.545 166.124 193.413 155.116 191.857C151.491 191.345 147.497 189.348 143.698 186.409C137.124 177.551 133.693 166.482 139.059 158.648C148.009 145.582 161.536 148.879 161.536 148.879C161.536 148.879 170.127 139.735 182.508 141.885C183.071 141.979 183.626 142.12 184.166 142.305C189.921 154.45 189.317 174.408 183.009 181.176Z" fill="white"/>
<path d="M188.119 118.651L191.365 115.098C191.365 115.098 203.848 111.698 209.214 112.415C212.425 112.839 215.523 113.883 218.337 115.487L216.504 131.871C216.504 131.871 200.12 135.168 197.233 133.663C194.345 132.157 188.119 118.651 188.119 118.651Z" fill="#263238"/>
<path opacity="0.4" d="M218.337 115.487L216.504 131.871C216.504 131.871 200.12 135.158 197.243 133.652C194.366 132.147 188.119 118.61 188.119 118.61L191.365 115.057C191.365 115.057 203.848 111.667 209.214 112.374C212.428 112.811 215.526 113.868 218.337 115.487Z" fill="white"/>
<path opacity="0.2" d="M216.504 131.912C216.504 131.912 200.12 135.199 197.243 133.693C194.366 132.188 188.119 118.651 188.119 118.651C188.119 118.651 199.199 116.961 202.066 118.354C204.933 119.746 208.497 130.529 208.497 130.529L216.504 131.912Z" fill="black"/>
<path d="M174.08 158.177L184.597 118.641H200.1L204.196 130.007C204.196 130.007 190.997 155.648 186.225 158.177C181.453 160.707 174.08 158.177 174.08 158.177Z" fill="#263238"/>
<path opacity="0.6" d="M204.165 130.048C204.165 130.048 190.997 155.648 186.225 158.177C181.453 160.707 174.09 158.177 174.09 158.177L184.607 118.651H200.1L204.165 130.048Z" fill="white"/>
<path opacity="0.2" d="M204.165 130.048C204.165 130.048 190.997 155.648 186.225 158.177C181.453 160.707 174.09 158.177 174.09 158.177C183.163 158.474 184.719 154.972 184.719 154.972L200.079 118.651L204.165 130.048Z" fill="black"/>
<path d="M119.214 70.656H148.634C149.823 70.6547 151.001 70.8878 152.101 71.3421C153.2 71.7964 154.199 72.463 155.041 73.3037C155.883 74.1444 156.55 75.1428 157.006 76.2417C157.461 77.3406 157.696 78.5186 157.696 79.7082V105.308C157.696 107.712 156.741 110.017 155.042 111.716C153.342 113.416 151.037 114.371 148.634 114.371H146.217V122.45L140.073 114.371H119.214C118.024 114.371 116.846 114.136 115.748 113.681C114.649 113.225 113.65 112.557 112.81 111.716C111.969 110.874 111.302 109.875 110.848 108.775C110.394 107.676 110.161 106.498 110.162 105.308V79.7082C110.162 77.3074 111.116 75.0049 112.813 73.3073C114.511 71.6097 116.813 70.656 119.214 70.656Z" fill="#DCD7C9"/>
<path opacity="0.7" d="M119.214 70.656H148.634C149.823 70.6547 151.001 70.8878 152.101 71.3421C153.2 71.7964 154.199 72.463 155.041 73.3037C155.883 74.1444 156.55 75.1428 157.006 76.2417C157.461 77.3406 157.696 78.5186 157.696 79.7082V105.308C157.696 107.712 156.741 110.017 155.042 111.716C153.342 113.416 151.037 114.371 148.634 114.371H146.217V122.45L140.073 114.371H119.214C118.024 114.371 116.846 114.136 115.748 113.681C114.649 113.225 113.65 112.557 112.81 111.716C111.969 110.874 111.302 109.875 110.848 108.775C110.394 107.676 110.161 106.498 110.162 105.308V79.7082C110.162 77.3074 111.116 75.0049 112.813 73.3073C114.511 71.6097 116.813 70.656 119.214 70.656Z" fill="white"/>
<path d="M133.929 87.2961C128.021 81.1521 121.395 83.6813 121.395 89.6615C121.395 95.6417 133.929 103.926 133.929 103.926C133.929 103.926 146.432 95.6519 146.432 89.6615C146.432 83.6711 139.837 81.1521 133.929 87.2961Z" fill="#DCD7C9"/>
</svg>
