<svg width="1400" height="400" viewBox="0 0 1400 400" fill="none" xmlns="http://www.w3.org/2000/svg">
<g style="mix-blend-mode:overlay">
<path fill-rule="evenodd" clip-rule="evenodd" d="M0 95.8269L350 192.272L700 32.1484L1050 223.802L1400 0V288.099H1050H700H350H0V95.8269Z" fill="url(#paint0_linear_571_43)"/>
</g>
<g style="mix-blend-mode:overlay">
<path fill-rule="evenodd" clip-rule="evenodd" d="M0 47.6045L350 111.901L700 47.6045H1050L1400 239.877V239.877H1050H700H350H0V47.6045Z" fill="url(#paint1_linear_571_43)"/>
</g>
<g style="mix-blend-mode:overlay">
<path fill-rule="evenodd" clip-rule="evenodd" d="M0 191.654L350 31.5303L700 255.951L1050 191.654L1400 223.802V255.951H1050H700H350H0V191.654Z" fill="url(#paint2_linear_571_43)"/>
</g>
<g style="mix-blend-mode:overlay">
<path fill-rule="evenodd" clip-rule="evenodd" d="M1400 304.173L1050 207.728L700 367.852L350 176.198L-1.52588e-05 400V111.901H350H700H1050H1400V304.173Z" fill="url(#paint3_linear_571_43)"/>
</g>
<g style="mix-blend-mode:overlay">
<path fill-rule="evenodd" clip-rule="evenodd" d="M1400 352.396L1050 288.099L700 352.396H350L-1.52588e-05 160.124V160.124H350H700H1050H1400V352.396Z" fill="url(#paint4_linear_571_43)"/>
</g>
<g style="mix-blend-mode:overlay">
<path fill-rule="evenodd" clip-rule="evenodd" d="M1400 208.346L1050 368.47L700 144.05L350 208.346L-1.52588e-05 176.198V144.05H350H700H1050H1400V208.346Z" fill="url(#paint5_linear_571_43)"/>
</g>
<defs>
<linearGradient id="paint0_linear_571_43" x1="700" y1="0" x2="700" y2="288.099" gradientUnits="userSpaceOnUse">
<stop stop-color="#B6B6B6"/>
<stop offset="1" stop-color="#0099FF" stop-opacity="0"/>
</linearGradient>
<linearGradient id="paint1_linear_571_43" x1="700" y1="47.6045" x2="700" y2="239.877" gradientUnits="userSpaceOnUse">
<stop stop-color="#C8C8C8"/>
<stop offset="1" stop-color="#0099FF" stop-opacity="0"/>
</linearGradient>
<linearGradient id="paint2_linear_571_43" x1="700" y1="31.5303" x2="700" y2="255.951" gradientUnits="userSpaceOnUse">
<stop stop-color="#BBBBBB"/>
<stop offset="1" stop-color="#0099FF" stop-opacity="0"/>
</linearGradient>
<linearGradient id="paint3_linear_571_43" x1="700" y1="400" x2="700" y2="111.901" gradientUnits="userSpaceOnUse">
<stop stop-color="#B6B6B6"/>
<stop offset="1" stop-color="#0099FF" stop-opacity="0"/>
</linearGradient>
<linearGradient id="paint4_linear_571_43" x1="700" y1="352.396" x2="700" y2="160.124" gradientUnits="userSpaceOnUse">
<stop stop-color="#C8C8C8"/>
<stop offset="1" stop-color="#0099FF" stop-opacity="0"/>
</linearGradient>
<linearGradient id="paint5_linear_571_43" x1="700" y1="368.47" x2="700" y2="144.05" gradientUnits="userSpaceOnUse">
<stop stop-color="#BBBBBB"/>
<stop offset="1" stop-color="#0099FF" stop-opacity="0"/>
</linearGradient>
</defs>
</svg>
