<svg width="1021" height="276" viewBox="0 0 1021 276" fill="none" xmlns="http://www.w3.org/2000/svg">
<g clip-path="url(#clip0)">
<path d="M362.86 173.58C376.65 173.58 388.75 169.7 399.01 162.12C409.27 154.53 416.49 143.91 420.36 130.08H393.63C390.94 136.32 386.91 141.04 381.36 144.24C375.81 147.44 369.59 149.13 362.87 149.13C352.78 149.13 344.37 145.59 337.82 138.68C331.26 131.77 327.9 122.83 327.9 112.21C327.9 101.59 331.26 92.82 337.82 85.74C344.38 78.83 352.78 75.29 362.87 75.29C369.76 75.29 375.98 76.98 381.53 80.35C387.08 83.72 391.11 88.44 393.63 94.51H420.36C416.49 80.68 409.26 69.89 399.01 62.31C388.76 54.73 376.65 51 362.86 51C345.04 51 330.41 56.9 319.15 68.54C307.72 80.17 302 94.84 302 112.21C302 129.74 307.72 144.41 319.15 156.05C330.41 167.68 345.04 173.58 362.86 173.58Z" fill="white"/>
<path d="M472.7 173.41C486.32 173.41 497.58 169.03 506.49 160.09C515.4 151.15 519.77 140.19 519.77 126.87C519.77 113.55 515.4 102.42 506.49 93.4802C497.58 84.5402 486.31 80.1602 472.7 80.1602C459.08 80.1602 447.82 84.5402 438.91 93.4802C430 102.42 425.46 113.55 425.46 126.87C425.46 140.19 429.83 151.15 438.74 160.09C447.65 169.03 458.92 173.41 472.7 173.41ZM456.73 143.4C452.53 139.02 450.34 133.45 450.34 126.88C450.34 120.13 452.53 114.57 456.73 110.19C460.93 105.81 466.15 103.62 472.7 103.62C479.26 103.62 484.47 105.81 488.67 110.19C492.87 114.57 494.89 120.14 494.89 126.88C494.89 133.46 492.87 139.02 488.67 143.4C484.47 147.78 479.25 149.98 472.7 149.98C466.15 149.98 460.93 147.78 456.73 143.4Z" fill="white"/>
<path d="M586.84 210C596.09 210 603.48 207.81 608.7 203.26C613.91 198.71 616.43 191.79 616.43 182.52V82.3602H592.05V91.4602H590.2C588.18 89.2702 586.33 87.5802 584.65 86.0602C582.8 84.7102 580.28 83.3602 576.75 82.0102C573.22 80.8302 569.35 80.1602 564.98 80.1602C553.55 80.1602 543.96 84.7102 536.4 93.6502C528.67 102.59 524.8 113.71 524.8 126.7C524.8 140.02 528.83 150.98 536.91 159.92C544.81 168.86 554.56 173.41 566.17 173.41C576.43 173.41 584.33 169.87 590.05 162.96H591.9V181.34C591.9 185.39 590.05 187.41 586.35 187.41H546.84V210H586.84ZM571.04 150.14C565.15 150.14 560.11 147.95 556.08 143.56C551.88 139.18 549.86 133.61 549.86 126.7C549.86 119.96 551.88 114.39 556.08 110.01C560.11 105.8 565.16 103.6 571.04 103.6C577.09 103.6 582.14 105.62 586.17 109.84C590.2 114.05 592.22 119.79 592.22 126.7C592.22 133.28 590.2 138.84 586.34 143.39C582.3 147.95 577.26 150.14 571.04 150.14Z" fill="white"/>
<path d="M652.73 171.22V119.62C652.73 115.07 654.24 111.36 657.1 108.32C659.96 105.45 663.49 103.94 667.86 103.94C672.06 103.94 675.6 105.46 678.45 108.32C681.14 111.19 682.49 114.89 682.49 119.45V171.21H707.04V111.52C707.04 102.58 704.18 95.1702 698.47 89.1002C692.58 83.2002 685.19 80.1602 675.94 80.1602C666.36 80.1602 659.29 83.5301 654.42 90.4501H652.74V82.3602H628.19V171.22H652.73V171.22Z" fill="white"/>
<path d="M761.87 173.41C775.49 173.41 786.75 169.03 795.66 160.09C804.57 151.15 808.94 140.19 808.94 126.87C808.94 113.55 804.57 102.42 795.66 93.4802C786.75 84.5402 775.48 80.1602 761.87 80.1602C748.25 80.1602 736.99 84.5402 728.08 93.4802C719.17 102.42 714.63 113.55 714.63 126.87C714.63 140.19 719 151.15 727.91 160.09C736.82 169.03 748.08 173.41 761.87 173.41ZM745.89 143.4C741.69 139.02 739.5 133.45 739.5 126.88C739.5 120.13 741.69 114.57 745.89 110.19C750.09 105.81 755.31 103.62 761.86 103.62C768.41 103.62 773.63 105.81 777.83 110.19C782.03 114.57 784.05 120.14 784.05 126.88C784.05 133.46 782.03 139.02 777.83 143.4C773.63 147.78 768.42 149.98 761.86 149.98C755.3 149.98 750.1 147.78 745.89 143.4Z" fill="white"/>
<path d="M958.9 171.22L919.38 53.1899H884.07L844.22 171.22H871.12L878.69 147.61H924.93L932.5 171.22H958.9V171.22ZM900.72 78.4799H902.57L917.53 124.68H885.92L900.72 78.4799Z" fill="white"/>
<path d="M1021 171.22V148.29H1004.86V76.1199H1021V53.1899H964V76.1199H979.8V148.28H964V171.21H1021V171.22Z" fill="white"/>
<path d="M130 260C201.797 260 260 201.797 260 130C260 58.203 201.797 0 130 0C58.203 0 0 58.203 0 130C0 201.797 58.203 260 130 260Z" fill="white"/>
<path d="M169.27 204.05C179.7 194.15 184.91 180.76 184.91 164.45C184.91 148.73 179.7 135.33 169.27 124.27C158.26 113.79 144.94 108.55 129.3 108.55C113.08 108.55 99.7599 113.79 89.3299 124.27C78.8999 135.33 73.6899 148.73 73.6899 164.45C73.6899 180.76 78.8999 194.15 89.3299 204.05C99.7599 214.53 113.08 219.77 129.3 219.77C145.52 219.77 158.84 214.53 169.27 204.05Z" fill="url(#paint0_linear)" fill-opacity="0.6"/>
<path d="M169.27 55.51C179.7 65.41 184.91 78.8 184.91 95.11C184.91 110.83 179.7 124.23 169.27 135.29C158.26 145.77 144.94 151.01 129.3 151.01C113.08 151.01 99.7599 145.77 89.3299 135.29C78.8999 124.23 73.6899 110.83 73.6899 95.11C73.6899 78.8 78.8999 65.41 89.3299 55.51C99.7599 45.03 113.08 39.79 129.3 39.79C145.52 39.79 158.84 45.03 169.27 55.51Z" fill="url(#paint1_linear)"/>
<path d="M61.8201 89.5799C71.7201 79.1499 85.1101 73.9399 101.42 73.9399C117.14 73.9399 130.54 79.1499 141.6 89.5799C152.08 100.59 157.32 113.91 157.32 129.55C157.32 145.77 152.08 159.09 141.6 169.52C130.54 179.95 117.14 185.16 101.42 185.16C85.1201 185.16 71.7201 179.95 61.8201 169.52C51.3401 159.1 46.1001 145.77 46.1001 129.55C46.1001 113.33 51.3401 100.01 61.8201 89.5799Z" fill="url(#paint2_linear)" fill-opacity="0.6"/>
<path d="M197.21 89.5799C187.31 79.1499 173.92 73.9399 157.61 73.9399C141.89 73.9399 128.49 79.1499 117.43 89.5799C106.95 100.59 101.71 113.91 101.71 129.55C101.71 145.77 106.95 159.09 117.43 169.52C128.49 179.95 141.89 185.16 157.61 185.16C173.92 185.16 187.31 179.95 197.21 169.52C207.69 159.09 212.93 145.77 212.93 129.55C212.93 113.33 207.7 100.01 197.21 89.5799Z" fill="url(#paint3_linear)" fill-opacity="0.6"/>
<path d="M665.29 259.91C675.65 259.91 683.07 252 683.07 240.87C683.07 229.67 676 221.69 665.71 221.69C658.08 221.69 654.37 226.59 653.25 228.48H652.83V206.5H647.3V259H652.62V253.26H653.04C653.95 254.59 657.38 259.91 665.29 259.91ZM664.94 254.94C657.38 254.94 652.62 248.57 652.62 240.94C652.62 231.91 658.22 226.73 665.08 226.73C672.22 226.73 677.4 232.61 677.4 240.94C677.4 249.41 671.94 254.94 664.94 254.94ZM685.91 275.1H689.76C695.64 275.1 699 273 700.82 268.24L718.53 222.6H712.3L701.03 253.68H700.61L689.97 222.6H683.81L697.18 259H698.65L696.06 265.79C694.94 268.66 693.33 270.06 689.97 270.06H685.91V275.1V275.1ZM771.66 259H777.61L759.55 210H751.5L733.23 259H739.18L743.45 247.38H767.39L771.66 259ZM745.34 242.2L755.21 215.18H755.63L765.5 242.2H745.34ZM779.35 259H799.58V254.24H792.23V206.5H779.35V211.26H786.7V254.24H779.35V259ZM802.35 259H822.58V254.24H815.23V206.5H802.35V211.26H809.7V254.24H802.35V259ZM833.23 216.02C835.61 216.02 837.29 214.27 837.29 211.96C837.29 209.72 835.61 207.97 833.23 207.97C830.92 207.97 829.24 209.72 829.24 211.96C829.24 214.27 830.92 216.02 833.23 216.02ZM830.5 259H836.03V222.6H823.64V227.29H830.5V259ZM845.67 259H851.2V237.3C851.2 231.28 855.68 226.87 861.42 226.87C866.53 226.87 870.8 230.65 870.8 236.46V259H876.33V236.11C876.33 228.06 871.22 221.69 862.75 221.69C857.08 221.69 853.16 224.63 851.62 227.92H851.2V222.6H845.67V259ZM906.04 259.91C916.96 259.91 925.71 253.47 928.79 244.02H922.49C920.04 250.46 913.67 254.59 906.11 254.59C895.26 254.59 887.14 246.12 887.14 234.5C887.14 223.02 895.26 214.41 906.11 214.41C913.67 214.41 919.9 218.61 922.49 224.98H928.79C925.57 215.74 917.03 209.09 906.11 209.09C891.9 209.09 881.26 220.08 881.26 234.5C881.26 249.06 891.83 259.91 906.04 259.91ZM949.05 259.91C956.96 259.91 960.32 254.73 961.23 253.26H961.65V253.61C961.72 256.76 963.96 259 966.97 259H970.54V254.1H968.86C967.74 254.1 967.04 253.54 967.04 252.42V222.6H961.44V228.48H961.02C959.97 226.59 956.19 221.69 948.63 221.69C938.27 221.69 931.27 229.67 931.27 240.87C931.27 252 938.62 259.91 949.05 259.91ZM949.33 254.94C942.33 254.94 936.94 249.41 936.94 240.94C936.94 232.61 942.12 226.73 949.26 226.73C956.05 226.73 961.65 231.91 961.65 240.94C961.65 248.57 956.96 254.94 949.33 254.94ZM975.08 259H995.31V254.24H987.96V206.5H975.08V211.26H982.43V254.24H975.08V259ZM998.09 259H1018.32V254.24H1010.97V206.5H998.09V211.26H1005.44V254.24H998.09V259Z" fill="white"/>
</g>
<defs>
<linearGradient id="paint0_linear" x1="129.3" y1="108.549" x2="129.3" y2="219.773" gradientUnits="userSpaceOnUse">
<stop stop-color="#373DCB"/>
<stop offset="1" stop-color="#2146C8" stop-opacity="0.47"/>
</linearGradient>
<linearGradient id="paint1_linear" x1="129.3" y1="151.01" x2="129.3" y2="39.7862" gradientUnits="userSpaceOnUse">
<stop stop-color="#005DCA"/>
<stop offset="1" stop-color="#37D4F7"/>
</linearGradient>
<linearGradient id="paint2_linear" x1="157.325" y1="129.553" x2="46.1016" y2="129.553" gradientUnits="userSpaceOnUse">
<stop stop-color="#373DCB"/>
<stop offset="1" stop-color="#2163E2" stop-opacity="0.63"/>
</linearGradient>
<linearGradient id="paint3_linear" x1="101.713" y1="129.553" x2="212.937" y2="129.553" gradientUnits="userSpaceOnUse">
<stop stop-color="#373DCB"/>
<stop offset="1" stop-color="#2163E2" stop-opacity="0.63"/>
</linearGradient>
<clipPath id="clip0">
<rect width="1021" height="275.1" fill="white"/>
</clipPath>
</defs>
</svg>
