<svg width="143" height="104" viewBox="0 0 143 104" fill="none" xmlns="http://www.w3.org/2000/svg">
<path opacity="0.5" d="M46.648 100.56L46.432 102H0.280001L0.496001 100.56H22.96L34.408 7.24799C34.552 6 34.816 4.632 35.2 3.144L8.416 26.688C7.888 27.168 7.432 27.168 7.048 26.688L6.688 26.112L35.92 0.623992H37L24.688 100.56H46.648ZM142.923 40.584C142.923 51.192 141.795 60.408 139.539 68.232C137.331 76.056 134.379 82.56 130.683 87.744C126.987 92.88 122.715 96.72 117.867 99.264C113.067 101.76 108.075 103.008 102.891 103.008C99.0033 103.008 95.3793 102.168 92.0193 100.488C88.7073 98.808 85.8033 96.288 83.3073 92.928C80.8593 89.568 78.9393 85.368 77.5473 80.328C76.1553 75.24 75.4593 69.312 75.4593 62.544C75.4593 51.984 76.5633 42.792 78.7713 34.968C81.0273 27.144 84.0033 20.64 87.6992 15.456C91.3953 10.272 95.6433 6.408 100.443 3.864C105.291 1.32 110.307 0.0479994 115.491 0.0479994C119.379 0.0479994 122.979 0.887999 126.291 2.568C129.651 4.248 132.555 6.79199 135.003 10.2C137.499 13.56 139.443 17.784 140.835 22.872C142.227 27.912 142.923 33.816 142.923 40.584ZM141.051 40.512C141.051 33.984 140.403 28.272 139.107 23.376C137.811 18.48 136.011 14.424 133.707 11.208C131.403 7.94399 128.667 5.51999 125.499 3.93599C122.379 2.304 118.995 1.488 115.347 1.488C110.451 1.488 105.699 2.712 101.091 5.16C96.4833 7.608 92.4033 11.352 88.8513 16.392C85.3473 21.432 82.5153 27.792 80.3553 35.472C78.2433 43.104 77.1873 52.128 77.1873 62.544C77.1873 69.12 77.8353 74.856 79.1313 79.752C80.4753 84.648 82.2993 88.728 84.6033 91.992C86.9553 95.208 89.6913 97.608 92.8113 99.192C95.9793 100.776 99.3873 101.568 103.035 101.568C107.979 101.568 112.731 100.344 117.291 97.896C121.851 95.448 125.883 91.728 129.387 86.736C132.939 81.696 135.771 75.36 137.883 67.728C139.995 60.048 141.051 50.976 141.051 40.512Z" fill="black"/>
</svg>
