<svg width="139" height="102" viewBox="0 0 139 102" fill="none" xmlns="http://www.w3.org/2000/svg">
<path opacity="0.5" d="M46.648 100.56L46.432 102H0.280001L0.496001 100.56H22.96L34.408 7.24799C34.552 6 34.816 4.632 35.2 3.144L8.416 26.688C7.888 27.168 7.432 27.168 7.048 26.688L6.688 26.112L35.92 0.623992H37L24.688 100.56H46.648ZM131.403 100.416C131.931 100.416 132.147 100.656 132.051 101.136L131.907 102H73.8033L73.9473 101.28C73.9473 101.04 74.0193 100.848 74.1633 100.704C74.3553 100.512 74.4993 100.368 74.5953 100.272L112.467 63.408C115.827 60.096 119.019 56.904 122.043 53.832C125.067 50.712 127.683 47.544 129.891 44.328C132.147 41.112 133.923 37.752 135.219 34.248C136.563 30.744 137.235 26.928 137.235 22.8C137.235 19.152 136.635 15.984 135.435 13.296C134.283 10.608 132.723 8.39999 130.755 6.67199C128.835 4.89599 126.603 3.6 124.059 2.784C121.515 1.92 118.875 1.488 116.139 1.488C112.731 1.488 109.515 2.064 106.491 3.21599C103.467 4.368 100.731 6 98.2833 8.112C95.8353 10.176 93.6993 12.648 91.8753 15.528C90.0993 18.408 88.7313 21.6 87.7713 25.104C87.5793 25.872 87.1713 26.256 86.5473 26.256H85.7553C86.7633 22.224 88.2273 18.6 90.1473 15.384C92.0673 12.12 94.3473 9.36 96.9873 7.10399C99.6753 4.848 102.651 3.12 105.915 1.91999C109.179 0.671997 112.659 0.0479994 116.355 0.0479994C119.283 0.0479994 122.091 0.503998 124.779 1.41599C127.515 2.27999 129.915 3.648 131.979 5.52C134.091 7.344 135.771 9.672 137.019 12.504C138.315 15.336 138.963 18.72 138.963 22.656C138.963 27.072 138.267 31.128 136.875 34.824C135.483 38.472 133.611 41.928 131.259 45.192C128.955 48.456 126.243 51.648 123.123 54.768C120.051 57.888 116.811 61.104 113.403 64.416L76.1793 100.704C77.1393 100.608 78.2433 100.536 79.4913 100.488C80.7393 100.44 82.1313 100.416 83.6673 100.416H131.403Z" fill="black"/>
</svg>
