<svg width="117" height="27" viewBox="0 0 117 27" fill="none" xmlns="http://www.w3.org/2000/svg">
<path opacity="0.5" d="M26.5888 1.2375L23.5438 26H22.0213L24.6288 4.8425C24.6638 4.55083 24.7163 4.24167 24.7863 3.915L13.7613 21.24C13.5746 21.5317 13.3354 21.6775 13.0438 21.6775H12.7638C12.4488 21.6775 12.2446 21.5317 12.1513 21.24L5.11625 3.8625C5.11625 4.2125 5.09875 4.53333 5.06375 4.825L2.47375 26H0.95125L3.99625 1.2375H5.18625C5.34958 1.2375 5.47208 1.26083 5.55375 1.3075C5.63542 1.3425 5.72292 1.43 5.81625 1.57L12.8863 19C12.9329 19.1283 12.9738 19.2625 13.0088 19.4025C13.0438 19.5308 13.0788 19.665 13.1138 19.805C13.2304 19.5483 13.3704 19.28 13.5338 19L24.6988 1.57C24.8154 1.43 24.9146 1.3425 24.9963 1.3075C25.0896 1.26083 25.2179 1.2375 25.3813 1.2375H26.5888ZM41.5573 9.9525C41.2073 9.82417 40.8456 9.73667 40.4723 9.69C40.0989 9.63167 39.7198 9.6025 39.3348 9.6025C38.1681 9.6025 37.0539 9.88833 35.9923 10.46C34.9306 11.0317 33.9973 11.7958 33.1923 12.7525C32.3873 13.7092 31.7456 14.8058 31.2673 16.0425C30.7889 17.2792 30.5498 18.5625 30.5498 19.8925C30.5498 21.4558 30.8123 22.675 31.3373 23.55C31.8739 24.4133 32.7023 24.845 33.8223 24.845C34.4873 24.845 35.1406 24.6583 35.7823 24.285C36.4239 23.9117 37.0364 23.3867 37.6198 22.71C38.2148 22.0333 38.7689 21.2225 39.2823 20.2775C39.7956 19.3208 40.2564 18.265 40.6648 17.11L41.5573 9.9525ZM40.4198 19.945C39.9764 20.8783 39.4864 21.7358 38.9498 22.5175C38.4248 23.2875 37.8589 23.9467 37.2523 24.495C36.6456 25.0433 36.0098 25.4692 35.3448 25.7725C34.6798 26.0758 33.9914 26.2275 33.2798 26.2275C32.5564 26.2275 31.9148 26.0875 31.3548 25.8075C30.8064 25.5158 30.3456 25.1075 29.9723 24.5825C29.6106 24.0575 29.3364 23.4217 29.1498 22.675C28.9631 21.9283 28.8698 21.0883 28.8698 20.155C28.8698 19.14 28.9981 18.1483 29.2548 17.18C29.5231 16.2 29.8906 15.2725 30.3573 14.3975C30.8239 13.5225 31.3839 12.7175 32.0373 11.9825C32.6906 11.2475 33.4139 10.6117 34.2073 10.075C35.0006 9.53833 35.8464 9.11833 36.7448 8.815C37.6431 8.51167 38.5706 8.36 39.5273 8.36C40.2156 8.36 40.8631 8.42417 41.4698 8.5525C42.0881 8.66917 42.6889 8.87917 43.2723 9.1825L41.2248 26H40.4198C40.1864 26 40.0289 25.9358 39.9473 25.8075C39.8656 25.6792 39.8248 25.5333 39.8248 25.37L40.4198 19.945ZM57.3264 10.7225C57.2331 10.8858 57.1047 10.9675 56.9414 10.9675C56.8247 10.9675 56.6789 10.8975 56.5039 10.7575C56.3406 10.6058 56.1131 10.4425 55.8214 10.2675C55.5414 10.0808 55.1856 9.9175 54.7539 9.7775C54.3222 9.62583 53.7856 9.55 53.1439 9.55C52.5489 9.55 51.9831 9.64917 51.4464 9.8475C50.9214 10.0458 50.4606 10.3142 50.0639 10.6525C49.6789 10.9792 49.3697 11.3642 49.1364 11.8075C48.9147 12.2392 48.8039 12.7 48.8039 13.19C48.8039 13.6683 48.9147 14.0708 49.1364 14.3975C49.3581 14.7242 49.6497 15.01 50.0114 15.255C50.3847 15.4883 50.7989 15.6925 51.2539 15.8675C51.7206 16.0425 52.1989 16.2175 52.6889 16.3925C53.1789 16.5675 53.6514 16.7658 54.1064 16.9875C54.5731 17.1975 54.9872 17.4542 55.3489 17.7575C55.7222 18.0608 56.0197 18.4342 56.2414 18.8775C56.4631 19.3092 56.5739 19.8342 56.5739 20.4525C56.5739 21.1992 56.4222 21.9225 56.1189 22.6225C55.8272 23.3225 55.4014 23.9467 54.8414 24.495C54.2931 25.0317 53.6281 25.4633 52.8464 25.79C52.0764 26.1167 51.2131 26.28 50.2564 26.28C49.1364 26.28 48.1914 26.0875 47.4214 25.7025C46.6631 25.3058 46.0097 24.7925 45.4614 24.1625L45.8814 23.5675C46.0097 23.3808 46.1672 23.2875 46.3539 23.2875C46.4706 23.2875 46.6164 23.3808 46.7914 23.5675C46.9664 23.7542 47.2056 23.9642 47.5089 24.1975C47.8122 24.4192 48.2031 24.6233 48.6814 24.81C49.1597 24.9967 49.7606 25.09 50.4839 25.09C51.1839 25.09 51.8139 24.9792 52.3739 24.7575C52.9456 24.5242 53.4297 24.2092 53.8264 23.8125C54.2347 23.4158 54.5497 22.9608 54.7714 22.4475C54.9931 21.9225 55.1039 21.3683 55.1039 20.785C55.1039 20.2717 54.9931 19.84 54.7714 19.49C54.5497 19.14 54.2522 18.8425 53.8789 18.5975C53.5172 18.3408 53.1031 18.125 52.6364 17.95C52.1814 17.775 51.7089 17.6058 51.2189 17.4425C50.7289 17.2675 50.2506 17.0808 49.7839 16.8825C49.3289 16.6725 48.9147 16.4217 48.5414 16.13C48.1797 15.8383 47.8881 15.4825 47.6664 15.0625C47.4447 14.6425 47.3339 14.1292 47.3339 13.5225C47.3339 12.8458 47.4797 12.1983 47.7714 11.58C48.0631 10.95 48.4714 10.3958 48.9964 9.9175C49.5214 9.4275 50.1456 9.0425 50.8689 8.7625C51.6039 8.47083 52.4031 8.325 53.2664 8.325C54.2464 8.325 55.0922 8.47667 55.8039 8.78C56.5272 9.08333 57.1689 9.53833 57.7289 10.145L57.3264 10.7225ZM61.5466 23.0775C61.5466 23.0075 61.5466 22.92 61.5466 22.815C61.5583 22.71 61.57 22.5525 61.5816 22.3425C61.605 22.1325 61.6341 21.8642 61.6691 21.5375C61.7041 21.1992 61.7566 20.7733 61.8266 20.26L63.0166 10.3725H60.7241C60.6075 10.3725 60.5141 10.3375 60.4441 10.2675C60.3741 10.1975 60.3508 10.0983 60.3741 9.97L60.4616 9.3225L63.2091 9.1125L64.3641 2.8825C64.3875 2.7775 64.44 2.68417 64.5216 2.6025C64.6033 2.52083 64.7025 2.48 64.8191 2.48H65.6241L64.8016 9.13H69.8416L69.7016 10.3725H64.6616L63.4541 20.2075C63.3958 20.6858 63.3433 21.0767 63.2966 21.38C63.2616 21.6833 63.2325 21.9342 63.2091 22.1325C63.1975 22.3192 63.1858 22.4592 63.1741 22.5525C63.1741 22.6458 63.1741 22.7158 63.1741 22.7625C63.1741 23.5208 63.3491 24.0692 63.6991 24.4075C64.0608 24.7458 64.5216 24.915 65.0816 24.915C65.4666 24.915 65.805 24.8567 66.0966 24.74C66.4 24.6117 66.6625 24.4775 66.8841 24.3375C67.1058 24.1858 67.2866 24.0517 67.4266 23.935C67.5666 23.8067 67.6716 23.7425 67.7416 23.7425C67.8583 23.7425 67.9458 23.8008 68.0041 23.9175L68.3191 24.6525C67.8525 25.1425 67.2866 25.5392 66.6216 25.8425C65.9566 26.1342 65.2916 26.28 64.6266 26.28C63.67 26.28 62.9175 26.0175 62.3691 25.4925C61.8325 24.9675 61.5583 24.1625 61.5466 23.0775ZM80.4152 9.5675C79.4819 9.5675 78.636 9.76583 77.8777 10.1625C77.131 10.5475 76.466 11.0725 75.8827 11.7375C75.311 12.4025 74.8269 13.1725 74.4302 14.0475C74.0452 14.9108 73.7594 15.815 73.5727 16.76C75.0544 16.5967 76.3319 16.41 77.4052 16.2C78.4785 15.9783 79.3885 15.7508 80.1352 15.5175C80.8819 15.2725 81.4885 15.01 81.9552 14.73C82.4219 14.45 82.7777 14.1642 83.0227 13.8725C83.2794 13.5692 83.4485 13.26 83.5302 12.945C83.6235 12.63 83.6702 12.3033 83.6702 11.965C83.6702 11.72 83.6119 11.4575 83.4952 11.1775C83.3902 10.8858 83.2094 10.6233 82.9527 10.39C82.696 10.1567 82.3577 9.96417 81.9377 9.8125C81.5294 9.64917 81.0219 9.5675 80.4152 9.5675ZM84.7027 22.7625C84.131 23.3692 83.571 23.8942 83.0227 24.3375C82.486 24.7692 81.9377 25.125 81.3777 25.405C80.8294 25.685 80.2577 25.8892 79.6627 26.0175C79.0677 26.1575 78.4319 26.2275 77.7552 26.2275C76.7869 26.2275 75.9235 26.07 75.1652 25.755C74.4185 25.4283 73.7885 24.9733 73.2752 24.39C72.7619 23.795 72.371 23.0775 72.1027 22.2375C71.8344 21.3858 71.7002 20.435 71.7002 19.385C71.7002 18.51 71.7877 17.6292 71.9627 16.7425C72.1377 15.8558 72.3944 15.0042 72.7327 14.1875C73.0827 13.3708 73.5085 12.6067 74.0102 11.895C74.5235 11.1833 75.1069 10.565 75.7602 10.04C76.4135 9.515 77.1369 9.10083 77.9302 8.7975C78.7235 8.49417 79.581 8.3425 80.5027 8.3425C81.3544 8.3425 82.0719 8.465 82.6552 8.71C83.2502 8.94333 83.7285 9.24083 84.0902 9.6025C84.4635 9.9525 84.7319 10.3375 84.8952 10.7575C85.0585 11.1658 85.1402 11.5508 85.1402 11.9125C85.1402 12.3908 85.076 12.8458 84.9477 13.2775C84.8194 13.7092 84.5919 14.1175 84.2652 14.5025C83.9385 14.8875 83.4952 15.2492 82.9352 15.5875C82.3752 15.9258 81.6577 16.2408 80.7827 16.5325C79.9194 16.8125 78.881 17.0692 77.6677 17.3025C76.4544 17.5358 75.031 17.74 73.3977 17.915C73.3744 18.1483 73.351 18.3875 73.3277 18.6325C73.316 18.8775 73.3102 19.1167 73.3102 19.35C73.3102 21.0883 73.701 22.4475 74.4827 23.4275C75.276 24.4075 76.466 24.8975 78.0527 24.8975C78.671 24.8975 79.2252 24.8333 79.7152 24.705C80.2169 24.565 80.6602 24.39 81.0452 24.18C81.4419 23.97 81.786 23.7483 82.0777 23.515C82.381 23.2817 82.6494 23.06 82.8827 22.85C83.116 22.64 83.3144 22.4708 83.4777 22.3425C83.6527 22.2025 83.8102 22.1325 83.9502 22.1325C84.0902 22.1325 84.2127 22.1908 84.3177 22.3075L84.7027 22.7625ZM91.1689 14.3275C91.6473 13.1842 92.1664 12.1925 92.7264 11.3525C93.2981 10.5125 93.8989 9.8475 94.5289 9.3575C95.1706 8.8675 95.8356 8.56417 96.5239 8.4475C97.2123 8.33083 97.9123 8.4125 98.6239 8.6925L98.3264 10.25C97.5331 9.94667 96.7806 9.87667 96.0689 10.04C95.3573 10.1917 94.6864 10.565 94.0564 11.16C93.4381 11.7433 92.8606 12.5367 92.3239 13.54C91.7989 14.5433 91.3264 15.7333 90.9064 17.11L89.8389 26H88.2114L90.3114 8.535H91.0639C91.4723 8.535 91.6764 8.745 91.6764 9.165L91.1689 14.3275ZM104.386 0.1875C104.666 0.864166 104.8 1.54083 104.788 2.2175C104.777 2.89416 104.648 3.55333 104.403 4.195C104.17 4.83667 103.837 5.455 103.406 6.05C102.974 6.63333 102.478 7.17583 101.918 7.6775L101.516 7.3975C101.434 7.33917 101.393 7.26917 101.393 7.1875C101.393 7.12917 101.411 7.07667 101.446 7.03C101.481 6.97166 101.545 6.89 101.638 6.785C101.965 6.4 102.257 5.98583 102.513 5.5425C102.782 5.0875 102.986 4.62083 103.126 4.1425C103.277 3.66417 103.353 3.18 103.353 2.69C103.353 2.18833 103.248 1.6925 103.038 1.2025C102.922 0.945833 103.009 0.753333 103.301 0.624999L104.386 0.1875ZM116.457 10.7225C116.364 10.8858 116.236 10.9675 116.072 10.9675C115.956 10.9675 115.81 10.8975 115.635 10.7575C115.471 10.6058 115.244 10.4425 114.952 10.2675C114.672 10.0808 114.316 9.9175 113.885 9.7775C113.453 9.62583 112.916 9.55 112.275 9.55C111.68 9.55 111.114 9.64917 110.577 9.8475C110.052 10.0458 109.591 10.3142 109.195 10.6525C108.81 10.9792 108.501 11.3642 108.267 11.8075C108.046 12.2392 107.935 12.7 107.935 13.19C107.935 13.6683 108.046 14.0708 108.267 14.3975C108.489 14.7242 108.781 15.01 109.142 15.255C109.516 15.4883 109.93 15.6925 110.385 15.8675C110.851 16.0425 111.33 16.2175 111.82 16.3925C112.31 16.5675 112.782 16.7658 113.237 16.9875C113.704 17.1975 114.118 17.4542 114.48 17.7575C114.853 18.0608 115.151 18.4342 115.372 18.8775C115.594 19.3092 115.705 19.8342 115.705 20.4525C115.705 21.1992 115.553 21.9225 115.25 22.6225C114.958 23.3225 114.532 23.9467 113.972 24.495C113.424 25.0317 112.759 25.4633 111.977 25.79C111.207 26.1167 110.344 26.28 109.387 26.28C108.267 26.28 107.322 26.0875 106.552 25.7025C105.794 25.3058 105.141 24.7925 104.592 24.1625L105.012 23.5675C105.141 23.3808 105.298 23.2875 105.485 23.2875C105.601 23.2875 105.747 23.3808 105.922 23.5675C106.097 23.7542 106.336 23.9642 106.64 24.1975C106.943 24.4192 107.334 24.6233 107.812 24.81C108.291 24.9967 108.891 25.09 109.615 25.09C110.315 25.09 110.945 24.9792 111.505 24.7575C112.076 24.5242 112.561 24.2092 112.957 23.8125C113.366 23.4158 113.681 22.9608 113.902 22.4475C114.124 21.9225 114.235 21.3683 114.235 20.785C114.235 20.2717 114.124 19.84 113.902 19.49C113.681 19.14 113.383 18.8425 113.01 18.5975C112.648 18.3408 112.234 18.125 111.767 17.95C111.312 17.775 110.84 17.6058 110.35 17.4425C109.86 17.2675 109.381 17.0808 108.915 16.8825C108.46 16.6725 108.046 16.4217 107.672 16.13C107.311 15.8383 107.019 15.4825 106.797 15.0625C106.576 14.6425 106.465 14.1292 106.465 13.5225C106.465 12.8458 106.611 12.1983 106.902 11.58C107.194 10.95 107.602 10.3958 108.127 9.9175C108.652 9.4275 109.276 9.0425 110 8.7625C110.735 8.47083 111.534 8.325 112.397 8.325C113.377 8.325 114.223 8.47667 114.935 8.78C115.658 9.08333 116.3 9.53833 116.86 10.145L116.457 10.7225Z" fill="black"/>
</svg>
