<svg width="235" height="176" viewBox="0 0 235 176" fill="none" xmlns="http://www.w3.org/2000/svg">
<g opacity="0.5">
<path d="M23.8861 100.775C24.9711 100.775 25.9627 100.565 26.8611 100.145C27.7711 99.725 28.5644 99.1475 29.2411 98.4125C29.9294 97.6775 30.4952 96.8083 30.9386 95.805C31.3819 94.8017 31.6736 93.7225 31.8136 92.5675L33.7036 77.2375H35.4361L33.5636 92.5675C33.3886 93.9325 33.0269 95.21 32.4786 96.4C31.9302 97.5783 31.2244 98.605 30.3611 99.48C29.5094 100.355 28.5177 101.043 27.3861 101.545C26.2544 102.047 25.0177 102.298 23.6761 102.298C22.3461 102.298 21.1794 102.047 20.1761 101.545C19.1727 101.043 18.3502 100.355 17.7086 99.48C17.0669 98.605 16.6177 97.5783 16.3611 96.4C16.1044 95.21 16.0577 93.9325 16.2211 92.5675L18.0936 77.2375H19.8261L17.9536 92.55C17.8136 93.705 17.8369 94.7842 18.0236 95.7875C18.2219 96.7908 18.5719 97.6658 19.0736 98.4125C19.5752 99.1475 20.2286 99.725 21.0336 100.145C21.8502 100.565 22.8011 100.775 23.8861 100.775ZM40.8107 90.1875C41.2774 89.2658 41.7966 88.4433 42.3682 87.72C42.9516 86.985 43.5641 86.3667 44.2057 85.865C44.8474 85.3633 45.5066 84.9842 46.1832 84.7275C46.8599 84.4592 47.5424 84.325 48.2307 84.325C48.9774 84.325 49.6132 84.4708 50.1382 84.7625C50.6749 85.0542 51.1007 85.48 51.4157 86.04C51.7424 86.6 51.9524 87.2883 52.0457 88.105C52.1507 88.91 52.1391 89.8317 52.0107 90.87L50.6982 102H49.0532L50.3657 90.87C50.5641 89.2133 50.4532 87.9417 50.0332 87.055C49.6132 86.1683 48.8257 85.725 47.6707 85.725C47.0174 85.725 46.3582 85.8942 45.6932 86.2325C45.0399 86.5592 44.3982 87.0317 43.7682 87.65C43.1499 88.2567 42.5666 88.9975 42.0182 89.8725C41.4699 90.7358 40.9857 91.71 40.5657 92.795L39.4982 102H37.8532L39.9357 84.535H40.6882C41.0966 84.535 41.3007 84.745 41.3007 85.165L40.8107 90.1875ZM68.6226 88.1225C68.366 87.6675 68.0743 87.2825 67.7476 86.9675C67.4326 86.6408 67.0943 86.3842 66.7326 86.1975C66.371 85.9992 65.9918 85.8592 65.5951 85.7775C65.1985 85.6842 64.8018 85.6375 64.4051 85.6375C63.6701 85.6375 62.9818 85.7892 62.3401 86.0925C61.7101 86.3842 61.1326 86.7867 60.6076 87.3C60.0943 87.8133 59.6335 88.4083 59.2251 89.085C58.8285 89.7617 58.4901 90.4792 58.2101 91.2375C57.9418 91.9958 57.7318 92.7775 57.5801 93.5825C57.4401 94.3875 57.3701 95.1633 57.3701 95.91C57.3701 97.4733 57.6676 98.6925 58.2626 99.5675C58.8576 100.442 59.7268 100.88 60.8701 100.88C61.5351 100.88 62.2001 100.693 62.8651 100.32C63.5301 99.9467 64.1718 99.4217 64.7901 98.745C65.4201 98.0683 66.0035 97.2575 66.5401 96.3125C67.0885 95.3558 67.5726 94.3 67.9926 93.145L68.6226 88.1225ZM71.6676 76.5375L68.5526 102H67.7476C67.5143 102 67.3568 101.936 67.2751 101.807C67.1935 101.679 67.1526 101.533 67.1526 101.37L67.7301 95.8925C67.2751 96.8375 66.7618 97.7008 66.1901 98.4825C65.6301 99.2525 65.0351 99.9175 64.4051 100.477C63.7751 101.037 63.116 101.469 62.4276 101.772C61.7393 102.076 61.0393 102.228 60.3276 102.228C59.5693 102.228 58.9043 102.082 58.3326 101.79C57.761 101.498 57.2826 101.084 56.8976 100.547C56.5126 100.011 56.221 99.3633 56.0226 98.605C55.8243 97.8467 55.7251 96.995 55.7251 96.05C55.7251 95.1633 55.8185 94.2592 56.0051 93.3375C56.1918 92.4042 56.4543 91.5058 56.7926 90.6425C57.1426 89.7675 57.5626 88.9508 58.0526 88.1925C58.5543 87.4225 59.1201 86.7517 59.7501 86.18C60.3801 85.6083 61.0685 85.1592 61.8151 84.8325C62.5618 84.4942 63.361 84.325 64.2126 84.325C65.1576 84.325 66.0268 84.535 66.8201 84.955C67.6251 85.3633 68.2785 85.9758 68.7801 86.7925L70.0576 76.5375H71.6676ZM82.5395 85.5675C81.6062 85.5675 80.7603 85.7658 80.002 86.1625C79.2553 86.5475 78.5903 87.0725 78.007 87.7375C77.4353 88.4025 76.9512 89.1725 76.5545 90.0475C76.1695 90.9108 75.8837 91.815 75.697 92.76C77.1787 92.5967 78.4562 92.41 79.5295 92.2C80.6028 91.9783 81.5128 91.7508 82.2595 91.5175C83.0062 91.2725 83.6128 91.01 84.0795 90.73C84.5462 90.45 84.902 90.1642 85.147 89.8725C85.4037 89.5692 85.5728 89.26 85.6545 88.945C85.7478 88.63 85.7945 88.3033 85.7945 87.965C85.7945 87.72 85.7362 87.4575 85.6195 87.1775C85.5145 86.8858 85.3337 86.6233 85.077 86.39C84.8203 86.1567 84.482 85.9642 84.062 85.8125C83.6537 85.6492 83.1462 85.5675 82.5395 85.5675ZM86.827 98.7625C86.2553 99.3692 85.6953 99.8942 85.147 100.337C84.6103 100.769 84.062 101.125 83.502 101.405C82.9537 101.685 82.382 101.889 81.787 102.018C81.192 102.158 80.5562 102.228 79.8795 102.228C78.9112 102.228 78.0478 102.07 77.2895 101.755C76.5428 101.428 75.9128 100.973 75.3995 100.39C74.8862 99.795 74.4953 99.0775 74.227 98.2375C73.9587 97.3858 73.8245 96.435 73.8245 95.385C73.8245 94.51 73.912 93.6292 74.087 92.7425C74.262 91.8558 74.5187 91.0042 74.857 90.1875C75.207 89.3708 75.6328 88.6067 76.1345 87.895C76.6478 87.1833 77.2312 86.565 77.8845 86.04C78.5378 85.515 79.2612 85.1008 80.0545 84.7975C80.8478 84.4942 81.7053 84.3425 82.627 84.3425C83.4787 84.3425 84.1962 84.465 84.7795 84.71C85.3745 84.9433 85.8528 85.2408 86.2145 85.6025C86.5878 85.9525 86.8562 86.3375 87.0195 86.7575C87.1828 87.1658 87.2645 87.5508 87.2645 87.9125C87.2645 88.3908 87.2003 88.8458 87.072 89.2775C86.9437 89.7092 86.7162 90.1175 86.3895 90.5025C86.0628 90.8875 85.6195 91.2492 85.0595 91.5875C84.4995 91.9258 83.782 92.2408 82.907 92.5325C82.0437 92.8125 81.0053 93.0692 79.792 93.3025C78.5787 93.5358 77.1553 93.74 75.522 93.915C75.4987 94.1483 75.4753 94.3875 75.452 94.6325C75.4403 94.8775 75.4345 95.1167 75.4345 95.35C75.4345 97.0883 75.8253 98.4475 76.607 99.4275C77.4003 100.407 78.5903 100.897 80.177 100.897C80.7953 100.897 81.3495 100.833 81.8395 100.705C82.3412 100.565 82.7845 100.39 83.1695 100.18C83.5662 99.97 83.9103 99.7483 84.202 99.515C84.5053 99.2817 84.7737 99.06 85.007 98.85C85.2403 98.64 85.4387 98.4708 85.602 98.3425C85.777 98.2025 85.9345 98.1325 86.0745 98.1325C86.2145 98.1325 86.337 98.1908 86.442 98.3075L86.827 98.7625ZM93.2932 90.3275C93.7716 89.1842 94.2907 88.1925 94.8507 87.3525C95.4224 86.5125 96.0232 85.8475 96.6532 85.3575C97.2949 84.8675 97.9599 84.5642 98.6482 84.4475C99.3366 84.3308 100.037 84.4125 100.748 84.6925L100.451 86.25C99.6574 85.9467 98.9049 85.8767 98.1932 86.04C97.4816 86.1917 96.8107 86.565 96.1807 87.16C95.5624 87.7433 94.9849 88.5367 94.4482 89.54C93.9232 90.5433 93.4507 91.7333 93.0307 93.11L91.9632 102H90.3357L92.4357 84.535H93.1882C93.5966 84.535 93.8007 84.745 93.8007 85.165L93.2932 90.3275ZM107.342 94.5625C108.088 94.5625 108.753 94.405 109.337 94.09C109.932 93.775 110.427 93.3667 110.824 92.865C111.232 92.3517 111.542 91.7742 111.752 91.1325C111.973 90.4792 112.084 89.8258 112.084 89.1725C112.084 87.9592 111.757 87.0492 111.104 86.4425C110.462 85.8242 109.605 85.515 108.532 85.515C107.773 85.515 107.102 85.6667 106.519 85.97C105.936 86.2617 105.446 86.6525 105.049 87.1425C104.652 87.6325 104.349 88.1983 104.139 88.84C103.929 89.47 103.824 90.1175 103.824 90.7825C103.824 92.0192 104.139 92.9583 104.769 93.6C105.399 94.2417 106.257 94.5625 107.342 94.5625ZM110.754 100.372C109.074 100.127 107.61 100.063 106.362 100.18C105.113 100.297 104.075 100.542 103.247 100.915C102.43 101.288 101.817 101.761 101.409 102.333C101.001 102.904 100.791 103.511 100.779 104.153C100.779 104.654 100.89 105.098 101.112 105.483C101.345 105.879 101.672 106.206 102.092 106.463C102.512 106.731 103.019 106.935 103.614 107.075C104.209 107.215 104.868 107.285 105.592 107.285C106.513 107.285 107.347 107.163 108.094 106.918C108.841 106.673 109.477 106.346 110.002 105.938C110.538 105.529 110.952 105.063 111.244 104.538C111.536 104.013 111.682 103.47 111.682 102.91C111.693 102.338 111.606 101.848 111.419 101.44C111.232 101.032 111.005 100.658 110.737 100.32L110.754 100.372ZM116.302 85.2L116.249 85.76C116.226 85.8767 116.179 85.9817 116.109 86.075C116.039 86.1567 115.922 86.2092 115.759 86.2325L112.924 86.46C113.134 86.8217 113.297 87.2242 113.414 87.6675C113.531 88.0992 113.589 88.5833 113.589 89.12C113.577 89.7617 113.49 90.345 113.327 90.87C113.175 91.395 112.982 91.8792 112.749 92.3225C112.516 92.7542 112.259 93.1625 111.979 93.5475C111.711 93.9208 111.46 94.2883 111.227 94.65C110.993 95.0117 110.801 95.3792 110.649 95.7525C110.497 96.1258 110.422 96.5225 110.422 96.9425C110.41 97.2692 110.474 97.5725 110.614 97.8525C110.754 98.1325 110.929 98.4125 111.139 98.6925C111.349 98.9725 111.571 99.2525 111.804 99.5325C112.049 99.8125 112.277 100.116 112.487 100.442C112.697 100.769 112.866 101.125 112.994 101.51C113.134 101.895 113.204 102.327 113.204 102.805C113.192 103.54 113 104.246 112.627 104.923C112.265 105.611 111.746 106.218 111.069 106.743C110.392 107.268 109.576 107.688 108.619 108.003C107.674 108.318 106.618 108.475 105.452 108.475C104.53 108.475 103.684 108.382 102.914 108.195C102.156 108.008 101.497 107.734 100.937 107.373C100.388 107.023 99.9625 106.591 99.6591 106.078C99.3558 105.564 99.2041 104.981 99.2041 104.328C99.2158 103.348 99.5133 102.496 100.097 101.772C100.692 101.049 101.479 100.472 102.459 100.04C103.451 99.5967 104.588 99.3108 105.872 99.1825C107.155 99.0542 108.497 99.0833 109.897 99.27C109.698 99.0017 109.529 98.7158 109.389 98.4125C109.249 98.1092 109.179 97.7708 109.179 97.3975C109.179 96.9892 109.249 96.575 109.389 96.155C109.529 95.735 109.797 95.2275 110.194 94.6325C109.727 94.9592 109.226 95.21 108.689 95.385C108.152 95.56 107.569 95.6475 106.939 95.6475C106.274 95.6475 105.656 95.5425 105.084 95.3325C104.512 95.1225 104.022 94.8133 103.614 94.405C103.206 93.985 102.885 93.4775 102.652 92.8825C102.418 92.2758 102.302 91.5758 102.302 90.7825C102.302 89.9775 102.442 89.19 102.722 88.42C103.013 87.6383 103.427 86.9442 103.964 86.3375C104.512 85.7308 105.183 85.2467 105.977 84.885C106.77 84.5117 107.674 84.325 108.689 84.325C109.891 84.325 110.917 84.6167 111.769 85.2H116.302ZM120.569 90.3275C121.047 89.1842 121.566 88.1925 122.126 87.3525C122.698 86.5125 123.299 85.8475 123.929 85.3575C124.57 84.8675 125.235 84.5642 125.924 84.4475C126.612 84.3308 127.312 84.4125 128.024 84.6925L127.726 86.25C126.933 85.9467 126.18 85.8767 125.469 86.04C124.757 86.1917 124.086 86.565 123.456 87.16C122.838 87.7433 122.26 88.5367 121.724 89.54C121.199 90.5433 120.726 91.7333 120.306 93.11L119.239 102H117.611L119.711 84.535H120.464C120.872 84.535 121.076 84.745 121.076 85.165L120.569 90.3275ZM140.273 85.9525C139.923 85.8242 139.562 85.7367 139.188 85.69C138.815 85.6317 138.436 85.6025 138.051 85.6025C136.884 85.6025 135.77 85.8883 134.708 86.46C133.647 87.0317 132.713 87.7958 131.908 88.7525C131.103 89.7092 130.462 90.8058 129.983 92.0425C129.505 93.2792 129.266 94.5625 129.266 95.8925C129.266 97.4558 129.528 98.675 130.053 99.55C130.59 100.413 131.418 100.845 132.538 100.845C133.203 100.845 133.857 100.658 134.498 100.285C135.14 99.9117 135.753 99.3867 136.336 98.71C136.931 98.0333 137.485 97.2225 137.998 96.2775C138.512 95.3208 138.973 94.265 139.381 93.11L140.273 85.9525ZM139.136 95.945C138.693 96.8783 138.203 97.7358 137.666 98.5175C137.141 99.2875 136.575 99.9467 135.968 100.495C135.362 101.043 134.726 101.469 134.061 101.772C133.396 102.076 132.708 102.228 131.996 102.228C131.273 102.228 130.631 102.087 130.071 101.807C129.523 101.516 129.062 101.107 128.688 100.582C128.327 100.057 128.053 99.4217 127.866 98.675C127.679 97.9283 127.586 97.0883 127.586 96.155C127.586 95.14 127.714 94.1483 127.971 93.18C128.239 92.2 128.607 91.2725 129.073 90.3975C129.54 89.5225 130.1 88.7175 130.753 87.9825C131.407 87.2475 132.13 86.6117 132.923 86.075C133.717 85.5383 134.563 85.1183 135.461 84.815C136.359 84.5117 137.287 84.36 138.243 84.36C138.932 84.36 139.579 84.4242 140.186 84.5525C140.804 84.6692 141.405 84.8792 141.988 85.1825L139.941 102H139.136C138.903 102 138.745 101.936 138.663 101.807C138.582 101.679 138.541 101.533 138.541 101.37L139.136 95.945ZM158.003 88.1225C157.746 87.6675 157.454 87.2825 157.128 86.9675C156.813 86.6408 156.474 86.3842 156.113 86.1975C155.751 85.9992 155.372 85.8592 154.975 85.7775C154.578 85.6842 154.182 85.6375 153.785 85.6375C153.05 85.6375 152.362 85.7892 151.72 86.0925C151.09 86.3842 150.513 86.7867 149.988 87.3C149.474 87.8133 149.013 88.4083 148.605 89.085C148.208 89.7617 147.87 90.4792 147.59 91.2375C147.322 91.9958 147.112 92.7775 146.96 93.5825C146.82 94.3875 146.75 95.1633 146.75 95.91C146.75 97.4733 147.048 98.6925 147.643 99.5675C148.238 100.442 149.107 100.88 150.25 100.88C150.915 100.88 151.58 100.693 152.245 100.32C152.91 99.9467 153.552 99.4217 154.17 98.745C154.8 98.0683 155.383 97.2575 155.92 96.3125C156.468 95.3558 156.953 94.3 157.373 93.145L158.003 88.1225ZM161.048 76.5375L157.933 102H157.128C156.894 102 156.737 101.936 156.655 101.807C156.573 101.679 156.533 101.533 156.533 101.37L157.11 95.8925C156.655 96.8375 156.142 97.7008 155.57 98.4825C155.01 99.2525 154.415 99.9175 153.785 100.477C153.155 101.037 152.496 101.469 151.808 101.772C151.119 102.076 150.419 102.228 149.708 102.228C148.949 102.228 148.284 102.082 147.713 101.79C147.141 101.498 146.663 101.084 146.278 100.547C145.893 100.011 145.601 99.3633 145.403 98.605C145.204 97.8467 145.105 96.995 145.105 96.05C145.105 95.1633 145.198 94.2592 145.385 93.3375C145.572 92.4042 145.834 91.5058 146.173 90.6425C146.523 89.7675 146.943 88.9508 147.433 88.1925C147.934 87.4225 148.5 86.7517 149.13 86.18C149.76 85.6083 150.448 85.1592 151.195 84.8325C151.942 84.4942 152.741 84.325 153.593 84.325C154.538 84.325 155.407 84.535 156.2 84.955C157.005 85.3633 157.658 85.9758 158.16 86.7925L159.438 76.5375H161.048ZM178.079 84.5875L175.979 102H175.209C174.988 102 174.824 101.942 174.719 101.825C174.626 101.708 174.579 101.551 174.579 101.352L175.104 96.4C174.626 97.3217 174.101 98.1442 173.529 98.8675C172.958 99.5908 172.351 100.203 171.709 100.705C171.079 101.195 170.42 101.574 169.732 101.842C169.055 102.099 168.379 102.228 167.702 102.228C166.209 102.228 165.141 101.656 164.499 100.512C163.858 99.3575 163.665 97.7417 163.922 95.665L165.234 84.5875H166.879L165.567 95.665C165.369 97.3333 165.479 98.6167 165.899 99.515C166.319 100.402 167.107 100.845 168.262 100.845C168.904 100.845 169.551 100.682 170.204 100.355C170.869 100.028 171.511 99.5617 172.129 98.955C172.748 98.3367 173.331 97.6017 173.879 96.75C174.428 95.8867 174.912 94.9183 175.332 93.845L176.434 84.5875H178.079ZM193.799 85.9525C193.449 85.8242 193.087 85.7367 192.714 85.69C192.34 85.6317 191.961 85.6025 191.576 85.6025C190.41 85.6025 189.295 85.8883 188.234 86.46C187.172 87.0317 186.239 87.7958 185.434 88.7525C184.629 89.7092 183.987 90.8058 183.509 92.0425C183.03 93.2792 182.791 94.5625 182.791 95.8925C182.791 97.4558 183.054 98.675 183.579 99.55C184.115 100.413 184.944 100.845 186.064 100.845C186.729 100.845 187.382 100.658 188.024 100.285C188.665 99.9117 189.278 99.3867 189.861 98.71C190.456 98.0333 191.01 97.2225 191.524 96.2775C192.037 95.3208 192.498 94.265 192.906 93.11L193.799 85.9525ZM192.661 95.945C192.218 96.8783 191.728 97.7358 191.191 98.5175C190.666 99.2875 190.1 99.9467 189.494 100.495C188.887 101.043 188.251 101.469 187.586 101.772C186.921 102.076 186.233 102.228 185.521 102.228C184.798 102.228 184.156 102.087 183.596 101.807C183.048 101.516 182.587 101.107 182.214 100.582C181.852 100.057 181.578 99.4217 181.391 98.675C181.205 97.9283 181.111 97.0883 181.111 96.155C181.111 95.14 181.24 94.1483 181.496 93.18C181.765 92.2 182.132 91.2725 182.599 90.3975C183.065 89.5225 183.625 88.7175 184.279 87.9825C184.932 87.2475 185.655 86.6117 186.449 86.075C187.242 85.5383 188.088 85.1183 188.986 84.815C189.885 84.5117 190.812 84.36 191.769 84.36C192.457 84.36 193.105 84.4242 193.711 84.5525C194.33 84.6692 194.93 84.8792 195.514 85.1825L193.466 102H192.661C192.428 102 192.27 101.936 192.189 101.807C192.107 101.679 192.066 101.533 192.066 101.37L192.661 95.945ZM200.048 99.0775C200.048 99.0075 200.048 98.92 200.048 98.815C200.06 98.71 200.071 98.5525 200.083 98.3425C200.106 98.1325 200.135 97.8642 200.17 97.5375C200.205 97.1992 200.258 96.7733 200.328 96.26L201.518 86.3725H199.225C199.109 86.3725 199.015 86.3375 198.945 86.2675C198.875 86.1975 198.852 86.0983 198.875 85.97L198.963 85.3225L201.71 85.1125L202.865 78.8825C202.889 78.7775 202.941 78.6842 203.023 78.6025C203.105 78.5208 203.204 78.48 203.32 78.48H204.125L203.303 85.13H208.343L208.203 86.3725H203.163L201.955 96.2075C201.897 96.6858 201.845 97.0767 201.798 97.38C201.763 97.6833 201.734 97.9342 201.71 98.1325C201.699 98.3192 201.687 98.4592 201.675 98.5525C201.675 98.6458 201.675 98.7158 201.675 98.7625C201.675 99.5208 201.85 100.069 202.2 100.407C202.562 100.746 203.023 100.915 203.583 100.915C203.968 100.915 204.306 100.857 204.598 100.74C204.901 100.612 205.164 100.477 205.385 100.337C205.607 100.186 205.788 100.052 205.928 99.935C206.068 99.8067 206.173 99.7425 206.243 99.7425C206.36 99.7425 206.447 99.8008 206.505 99.9175L206.82 100.652C206.354 101.142 205.788 101.539 205.123 101.842C204.458 102.134 203.793 102.28 203.128 102.28C202.171 102.28 201.419 102.018 200.87 101.492C200.334 100.967 200.06 100.162 200.048 99.0775ZM218.916 85.5675C217.983 85.5675 217.137 85.7658 216.379 86.1625C215.632 86.5475 214.967 87.0725 214.384 87.7375C213.812 88.4025 213.328 89.1725 212.931 90.0475C212.546 90.9108 212.261 91.815 212.074 92.76C213.556 92.5967 214.833 92.41 215.906 92.2C216.98 91.9783 217.89 91.7508 218.636 91.5175C219.383 91.2725 219.99 91.01 220.456 90.73C220.923 90.45 221.279 90.1642 221.524 89.8725C221.781 89.5692 221.95 89.26 222.031 88.945C222.125 88.63 222.171 88.3033 222.171 87.965C222.171 87.72 222.113 87.4575 221.996 87.1775C221.891 86.8858 221.711 86.6233 221.454 86.39C221.197 86.1567 220.859 85.9642 220.439 85.8125C220.031 85.6492 219.523 85.5675 218.916 85.5675ZM223.204 98.7625C222.632 99.3692 222.072 99.8942 221.524 100.337C220.987 100.769 220.439 101.125 219.879 101.405C219.331 101.685 218.759 101.889 218.164 102.018C217.569 102.158 216.933 102.228 216.256 102.228C215.288 102.228 214.425 102.07 213.666 101.755C212.92 101.428 212.29 100.973 211.776 100.39C211.263 99.795 210.872 99.0775 210.604 98.2375C210.336 97.3858 210.201 96.435 210.201 95.385C210.201 94.51 210.289 93.6292 210.464 92.7425C210.639 91.8558 210.896 91.0042 211.234 90.1875C211.584 89.3708 212.01 88.6067 212.511 87.895C213.025 87.1833 213.608 86.565 214.261 86.04C214.915 85.515 215.638 85.1008 216.431 84.7975C217.225 84.4942 218.082 84.3425 219.004 84.3425C219.856 84.3425 220.573 84.465 221.156 84.71C221.751 84.9433 222.23 85.2408 222.591 85.6025C222.965 85.9525 223.233 86.3375 223.396 86.7575C223.56 87.1658 223.641 87.5508 223.641 87.9125C223.641 88.3908 223.577 88.8458 223.449 89.2775C223.321 89.7092 223.093 90.1175 222.766 90.5025C222.44 90.8875 221.996 91.2492 221.436 91.5875C220.876 91.9258 220.159 92.2408 219.284 92.5325C218.421 92.8125 217.382 93.0692 216.169 93.3025C214.956 93.5358 213.532 93.74 211.899 93.915C211.876 94.1483 211.852 94.3875 211.829 94.6325C211.817 94.8775 211.811 95.1167 211.811 95.35C211.811 97.0883 212.202 98.4475 212.984 99.4275C213.777 100.407 214.967 100.897 216.554 100.897C217.172 100.897 217.726 100.833 218.216 100.705C218.718 100.565 219.161 100.39 219.546 100.18C219.943 99.97 220.287 99.7483 220.579 99.515C220.882 99.2817 221.151 99.06 221.384 98.85C221.617 98.64 221.816 98.4708 221.979 98.3425C222.154 98.2025 222.311 98.1325 222.451 98.1325C222.591 98.1325 222.714 98.1908 222.819 98.3075L223.204 98.7625Z" fill="black"/>
</g>
</svg>
