<svg width="176" height="104" viewBox="0 0 176 104" fill="none" xmlns="http://www.w3.org/2000/svg">
<path opacity="0.5" d="M29.6246 101.712C34.5686 101.712 39.1286 100.752 43.3046 98.832C47.4806 96.864 51.1526 94.2 54.3206 90.84C57.4886 87.48 60.0566 83.544 62.0246 79.032C64.0406 74.52 65.3846 69.696 66.0566 64.56L73.8326 1.19999H75.5606L67.7846 64.56C67.1126 69.888 65.6966 74.904 63.5366 79.608C61.3766 84.312 58.6166 88.416 55.2566 91.92C51.9446 95.424 48.0806 98.208 43.6646 100.272C39.2966 102.288 34.5206 103.296 29.3366 103.296C24.2006 103.296 19.6886 102.288 15.8006 100.272C11.9126 98.208 8.72063 95.424 6.22463 91.92C3.77663 88.416 2.04864 84.312 1.04063 79.608C0.0326345 74.904 -0.135365 69.888 0.536634 64.56L8.31264 1.19999H10.0406L2.26463 64.416C1.64063 69.552 1.78463 74.4 2.69663 78.96C3.60863 83.472 5.21663 87.432 7.52063 90.84C9.82464 94.2 12.8246 96.864 16.5206 98.832C20.2646 100.752 24.6326 101.712 29.6246 101.712ZM167.781 92.064C165.285 93.744 162.717 95.28 160.077 96.672C157.485 98.016 154.725 99.168 151.797 100.128C148.869 101.088 145.725 101.832 142.365 102.36C139.053 102.888 135.429 103.152 131.493 103.152C125.493 103.152 120.117 102.144 115.365 100.128C110.613 98.064 106.557 95.136 103.197 91.344C99.8854 87.552 97.3414 82.992 95.5654 77.664C93.7894 72.288 92.9014 66.288 92.9014 59.664C92.9014 50.592 94.1734 42.384 96.7174 35.04C99.2614 27.696 102.837 21.432 107.445 16.248C112.101 11.064 117.645 7.08 124.077 4.29599C130.557 1.464 137.733 0.0479994 145.605 0.0479994C149.061 0.0479994 152.181 0.287999 154.965 0.767999C157.797 1.2 160.389 1.89599 162.741 2.85599C165.141 3.768 167.349 4.968 169.365 6.456C171.381 7.896 173.301 9.6 175.125 11.568L174.693 12C174.549 12.288 174.309 12.432 173.973 12.432C173.733 12.432 173.349 12.168 172.821 11.64C172.341 11.064 171.645 10.392 170.733 9.62399C169.821 8.80799 168.645 7.92 167.205 6.96C165.813 6 164.085 5.136 162.021 4.368C160.005 3.552 157.629 2.88 154.893 2.352C152.157 1.776 149.013 1.488 145.461 1.488C137.925 1.488 131.037 2.832 124.797 5.52C118.557 8.208 113.205 12.072 108.741 17.112C104.277 22.104 100.797 28.2 98.3014 35.4C95.8534 42.6 94.6294 50.688 94.6294 59.664C94.6294 66.096 95.4934 71.904 97.2214 77.088C98.9494 82.272 101.421 86.688 104.637 90.336C107.853 93.984 111.741 96.792 116.301 98.76C120.861 100.728 125.973 101.712 131.637 101.712C135.429 101.712 138.885 101.496 142.005 101.064C145.173 100.584 148.125 99.912 150.861 99.048C153.597 98.136 156.213 97.056 158.709 95.808C161.205 94.512 163.749 93.048 166.341 91.416L170.229 60.096H149.493C149.253 60.096 149.037 60.024 148.845 59.88C148.701 59.688 148.677 59.52 148.773 59.376V58.656H171.957L167.781 92.064Z" fill="black"/>
</svg>
