<svg width="388" height="350" viewBox="0 0 388 350" fill="none" xmlns="http://www.w3.org/2000/svg">
<path d="M387.969 349.783C387.969 349.908 304.937 350 202.546 350C100.155 350 17.1055 349.908 17.1055 349.783C17.1055 349.658 100.111 349.567 202.546 349.567C304.981 349.567 387.969 349.667 387.969 349.783Z" fill="#263238"/>
<path d="M347.587 349.175L223.254 349.108C216.072 349.104 209.186 346.386 204.109 341.551C199.032 336.717 196.181 330.162 196.181 323.327L196.242 26.6808C196.258 19.84 199.125 13.2846 204.214 8.45284C209.302 3.6211 216.197 0.907575 223.385 0.907593L347.719 0.982588C354.901 0.987006 361.787 3.70522 366.863 8.53972C371.94 13.3742 374.792 19.9293 374.792 26.7641L374.731 323.41C374.731 326.799 374.028 330.155 372.663 333.285C371.298 336.416 369.298 339.259 366.776 341.652C364.255 344.046 361.262 345.942 357.969 347.233C354.677 348.524 351.149 349.184 347.587 349.175Z" fill="#455A64"/>
<path d="M347.543 11.4402H323.438C321.849 11.4752 320.34 12.1092 319.241 13.2029C318.143 14.2966 317.546 15.7606 317.581 17.2731V21.4395C317.616 22.952 317.019 24.416 315.921 25.5097C314.822 26.6035 313.312 27.2375 311.723 27.2724H264.73C263.143 27.2353 261.635 26.6003 260.539 25.5068C259.442 24.4134 258.846 22.9506 258.881 21.4395V17.2731C258.917 15.7606 258.319 14.2966 257.221 13.2029C256.123 12.1092 254.613 11.4752 253.024 11.4402H223.446C218.426 11.4357 213.608 13.3262 210.049 16.6971C206.491 20.0679 204.482 24.6441 204.464 29.4223L204.402 319.002C204.412 323.784 206.414 328.367 209.969 331.746C213.524 335.125 218.343 337.024 223.368 337.026L347.465 337.093C349.956 337.094 352.424 336.628 354.726 335.721C357.029 334.815 359.121 333.486 360.884 331.81C362.647 330.134 364.045 328.144 365 325.953C365.954 323.763 366.446 321.415 366.447 319.044L366.5 29.4639C366.493 24.6829 364.493 20.0998 360.939 16.7206C357.385 13.3415 352.567 11.4424 347.543 11.4402Z" fill="white"/>
<path d="M366.491 72.3026V29.164C366.402 24.4366 364.367 19.9313 360.824 16.617C357.28 13.3026 352.512 11.4438 347.544 11.4402H323.439C322.651 11.4564 321.875 11.6202 321.155 11.9223C320.434 12.2244 319.783 12.6587 319.239 13.2005C318.695 13.7423 318.268 14.3809 317.984 15.0797C317.699 15.7785 317.562 16.5239 317.581 17.2731V21.4395C317.616 22.952 317.019 24.416 315.921 25.5097C314.822 26.6035 313.313 27.2375 311.723 27.2724H264.731C263.143 27.2353 261.635 26.6003 260.539 25.5068C259.442 24.4134 258.846 22.9506 258.882 21.4395V17.2731C258.917 15.7606 258.32 14.2966 257.221 13.2029C256.123 12.1092 254.613 11.4752 253.024 11.4402H223.447C218.426 11.4357 213.608 13.3262 210.05 16.6971C206.491 20.0679 204.482 24.6441 204.464 29.4223V72.436H366.491V72.3026Z" fill="#EBEBEB"/>
<path d="M237.509 130.815C248.355 130.815 257.148 122.466 257.148 112.167C257.148 101.867 248.355 93.5178 237.509 93.5178C226.662 93.5178 217.869 101.867 217.869 112.167C217.869 122.466 226.662 130.815 237.509 130.815Z" fill="#E0E0E0"/>
<path d="M228.333 116.833L233.481 116.416L246.037 118.433L247.517 127.424L247.307 128.474C244.478 129.993 241.3 130.825 238.053 130.896C234.806 130.967 231.59 130.276 228.692 128.882L228.333 116.833Z" fill="#455A64"/>
<path d="M243.349 118.291C244.594 118.118 245.865 118.282 247.017 118.764C248.169 119.245 249.155 120.026 249.863 121.016C250.714 122.146 251.494 123.323 252.201 124.541C250.152 126.657 248.488 128.265 245.651 129.207L243.349 118.291Z" fill="#455A64"/>
<path d="M228.332 116.833C228.332 116.833 224.935 117.233 223.622 119.991C222.308 122.749 222.002 123.607 222.002 123.607C223.753 125.624 225.995 128.007 228.735 128.899C228.735 128.899 229.357 121.949 229.436 119.991C229.532 117.874 229.62 116.775 228.332 116.833Z" fill="#455A64"/>
<path d="M231.432 99.1674C232.288 98.1242 233.379 97.2771 234.624 96.6887C235.87 96.1003 237.239 95.7855 238.629 95.7677C239.825 95.7675 241.011 95.9707 242.132 96.3676C243.312 96.6335 244.354 97.289 245.074 98.2175C245.966 99.3092 246.551 100.6 246.772 101.967C246.978 103.366 247.048 104.781 246.982 106.192C246.911 107.613 246.429 108.989 245.59 110.167L241.816 110.783C239.736 110.941 237.642 110.835 235.591 110.467C233.517 110.088 231.685 108.943 230.495 107.284C228.98 104.942 229.611 101.301 231.432 99.1674Z" fill="#263238"/>
<path d="M227.789 109.542C227.828 109.135 227.963 108.743 228.184 108.393C228.406 108.044 228.708 107.747 229.068 107.525C229.436 107.315 229.865 107.22 230.293 107.256C230.72 107.292 231.125 107.456 231.449 107.725L232.045 108.392C232.504 108.594 232.886 108.927 233.137 109.345C233.388 109.763 233.496 110.246 233.445 110.725C233.38 111.205 233.17 111.656 232.841 112.024C232.511 112.393 232.076 112.662 231.589 112.8C231.102 112.931 230.588 112.941 230.096 112.829C229.604 112.717 229.15 112.486 228.779 112.158C228.414 111.823 228.136 111.413 227.964 110.959C227.793 110.506 227.733 110.021 227.789 109.542Z" fill="#263238"/>
<path d="M228.534 111.992C228.392 111.781 228.322 111.533 228.332 111.283C228.458 110.677 228.762 110.116 229.208 109.667C229.631 109.194 230.145 108.804 230.723 108.517C231.16 108.292 231.467 108.208 231.458 108.183C231.179 108.203 230.907 108.28 230.661 108.408C230.044 108.67 229.499 109.063 229.068 109.558C228.826 109.809 228.62 110.09 228.455 110.392C228.311 110.65 228.228 110.934 228.21 111.225C228.206 111.425 228.264 111.622 228.376 111.792C228.455 111.958 228.534 112.042 228.534 111.992Z" fill="#455A64"/>
<path d="M241.782 117.649V114.316C241.782 114.316 244.855 113.991 245.713 110.242C246.116 107.761 246.275 105.251 246.186 102.742C246.186 100.467 244.128 97.3676 241.169 97.3592L239.855 97.2092L234.821 99.1091C234.471 99.1274 234.141 99.269 233.895 99.5062C233.649 99.7434 233.504 100.059 233.49 100.392L233.341 116.4L235.644 119.474C236.065 120.017 236.655 120.421 237.33 120.629C238.005 120.837 238.731 120.839 239.407 120.634C240.083 120.429 240.675 120.028 241.099 119.486C241.523 118.945 241.759 118.291 241.773 117.616L241.782 117.649Z" fill="#FFBE9D"/>
<path d="M239.776 109.375C239.803 109.182 239.907 109.006 240.065 108.883C240.209 108.769 240.388 108.701 240.576 108.69C240.764 108.68 240.95 108.727 241.107 108.825C241.268 108.944 241.393 109.102 241.47 109.282C241.547 109.462 241.573 109.658 241.545 109.85C241.457 109.966 241.345 110.063 241.215 110.135C241.085 110.207 240.941 110.251 240.792 110.267H240.652C240.536 110.27 240.42 110.25 240.312 110.21C240.204 110.17 240.105 110.11 240.021 110.033C239.933 109.947 239.865 109.843 239.823 109.73C239.78 109.616 239.765 109.495 239.776 109.375Z" fill="#EB996E"/>
<path d="M244.356 105.375C244.351 105.502 244.294 105.622 244.198 105.709C244.101 105.797 243.972 105.844 243.839 105.842C243.773 105.843 243.708 105.832 243.647 105.809C243.586 105.786 243.531 105.752 243.483 105.709C243.436 105.665 243.399 105.614 243.372 105.556C243.346 105.499 243.332 105.438 243.331 105.375C243.338 105.248 243.396 105.128 243.495 105.041C243.593 104.954 243.722 104.906 243.856 104.909C243.922 104.908 243.986 104.919 244.047 104.942C244.107 104.965 244.162 104.999 244.209 105.042C244.255 105.086 244.292 105.138 244.317 105.195C244.343 105.252 244.356 105.313 244.356 105.375Z" fill="#263238"/>
<path d="M245.196 104.175C245.126 104.234 244.75 103.942 244.207 103.917C243.664 103.892 243.235 104.134 243.182 104.067C243.13 104 243.226 103.925 243.41 103.809C243.658 103.668 243.945 103.601 244.233 103.617C244.518 103.628 244.792 103.727 245.012 103.9C245.17 104.034 245.222 104.15 245.196 104.175Z" fill="#263238"/>
<path d="M241.738 108.125C242.025 108.061 242.318 108.027 242.613 108.025C242.753 108.025 242.893 108.025 242.92 107.908C242.939 107.771 242.915 107.632 242.85 107.509L242.491 106.475C242.156 105.594 241.896 104.688 241.711 103.767C242.121 104.621 242.457 105.504 242.718 106.409C242.841 106.767 242.946 107.117 243.06 107.45C243.134 107.616 243.149 107.8 243.104 107.975C243.05 108.064 242.962 108.13 242.858 108.158C242.78 108.166 242.701 108.166 242.622 108.158C242.327 108.185 242.03 108.174 241.738 108.125Z" fill="#263238"/>
<path d="M241.764 114.325C239.884 114.244 238.065 113.667 236.51 112.658C236.51 112.658 237.78 115.35 241.764 115.208V114.325Z" fill="#EB996E"/>
<path d="M240.1 108.408C240.197 108.408 240.162 108.975 240.652 109.4C241.142 109.825 241.773 109.8 241.773 109.875C241.773 109.95 241.624 109.983 241.361 109.975C241.011 109.96 240.677 109.83 240.416 109.608C240.169 109.392 240.018 109.094 239.995 108.775C239.987 108.533 240.065 108.4 240.1 108.408Z" fill="#263238"/>
<path d="M245.082 102.209C244.986 102.334 244.566 102.209 244.076 102.209C243.585 102.209 243.2 102.326 243.069 102.209C242.937 102.092 243.069 102.026 243.261 101.909C243.503 101.764 243.782 101.687 244.067 101.684C244.354 101.677 244.637 101.749 244.881 101.892C245.065 102.042 245.126 102.151 245.082 102.209Z" fill="#263238"/>
<path d="M238.332 105.375C238.329 105.503 238.379 105.626 238.47 105.72C238.562 105.813 238.688 105.869 238.822 105.875C238.887 105.881 238.953 105.874 239.015 105.855C239.077 105.837 239.135 105.806 239.185 105.766C239.235 105.725 239.275 105.676 239.305 105.62C239.334 105.565 239.352 105.504 239.356 105.442C239.356 105.316 239.305 105.194 239.214 105.103C239.123 105.011 238.998 104.957 238.866 104.95C238.801 104.943 238.736 104.949 238.673 104.967C238.611 104.985 238.553 105.014 238.503 105.054C238.453 105.094 238.412 105.143 238.383 105.198C238.353 105.253 238.336 105.314 238.332 105.375Z" fill="#263238"/>
<path d="M237.666 103.992C237.727 104.059 238.121 103.792 238.673 103.8C239.225 103.809 239.619 104.075 239.68 104.017C239.741 103.959 239.68 103.875 239.47 103.75C239.236 103.587 238.954 103.5 238.664 103.5C238.38 103.492 238.101 103.571 237.868 103.725C237.692 103.85 237.631 103.959 237.666 103.992Z" fill="#263238"/>
<path d="M237.351 102.876C237.456 103.001 237.885 102.876 238.393 102.876C238.9 102.876 239.329 102.976 239.435 102.876C239.54 102.776 239.434 102.692 239.224 102.576C238.969 102.433 238.679 102.359 238.384 102.359C238.088 102.359 237.798 102.433 237.543 102.576C237.359 102.692 237.298 102.809 237.351 102.876Z" fill="#263238"/>
<path d="M234.155 106.784C234.155 106.5 233.875 105.817 233.577 105.759C232.807 105.6 231.397 105.592 231.274 107.475C231.108 110.05 233.901 109.675 233.901 109.6C233.901 109.525 234.102 107.75 234.155 106.784Z" fill="#FFBE9D"/>
<path d="M233.183 108.617C233.183 108.617 233.139 108.617 233.052 108.675C232.996 108.698 232.937 108.709 232.877 108.709C232.816 108.709 232.757 108.698 232.701 108.675C232.532 108.559 232.398 108.402 232.313 108.221C232.228 108.039 232.196 107.839 232.22 107.642C232.23 107.421 232.29 107.205 232.395 107.009C232.426 106.93 232.477 106.86 232.542 106.803C232.608 106.747 232.686 106.706 232.771 106.684C232.827 106.672 232.885 106.68 232.935 106.706C232.985 106.732 233.023 106.775 233.043 106.825C233.049 106.867 233.049 106.909 233.043 106.95C233.043 106.95 233.104 106.95 233.087 106.809C233.076 106.744 233.042 106.685 232.99 106.642C232.957 106.611 232.917 106.588 232.873 106.573C232.829 106.559 232.783 106.554 232.736 106.559C232.624 106.572 232.518 106.613 232.428 106.677C232.337 106.742 232.266 106.827 232.22 106.925C232.09 107.141 232.018 107.385 232.01 107.634C231.98 107.863 232.022 108.095 232.131 108.301C232.241 108.507 232.412 108.678 232.623 108.792C232.695 108.815 232.771 108.823 232.846 108.816C232.922 108.809 232.995 108.786 233.06 108.75C233.183 108.708 233.183 108.625 233.183 108.617Z" fill="#EB996E"/>
<path d="M233.472 105.767L234.155 106.442C237.132 103.742 242.954 96.9676 242.63 97.3676C241.271 96.8904 239.809 96.7415 238.375 96.9343C236.16 97.2926 231.966 98.3425 232.027 100.817C232.157 102.542 232.649 104.225 233.472 105.767Z" fill="#263238"/>
<path d="M229.532 105.2C229.532 105.2 229.532 105.142 229.532 105.05C229.583 104.91 229.645 104.774 229.716 104.642C229.997 104.164 230.386 103.752 230.854 103.434C231.548 102.963 232.32 102.608 233.139 102.384C234.015 102.109 235.065 101.892 236.072 101.484C237.795 100.792 239.351 99.7706 240.643 98.4842C241.032 98.0931 241.397 97.6814 241.737 97.2509L242.009 96.8926C242.038 96.8495 242.074 96.8103 242.114 96.7759L242.035 96.9093C241.974 96.9926 241.895 97.1259 241.781 97.2842C241.455 97.7283 241.098 98.1514 240.713 98.5508C240.137 99.1401 239.504 99.6758 238.822 100.151C237.987 100.735 237.081 101.221 236.125 101.601C235.16 101.953 234.175 102.253 233.174 102.501C232.368 102.715 231.604 103.056 230.915 103.509C230.451 103.813 230.06 104.208 229.768 104.667C229.676 104.839 229.597 105.017 229.532 105.2Z" fill="#455A64"/>
<path d="M230.32 105.6C230.313 105.409 230.349 105.219 230.425 105.042C230.627 104.549 230.981 104.125 231.44 103.825C232.13 103.406 232.901 103.123 233.708 102.992C234.675 102.817 235.618 102.537 236.519 102.159C237.415 101.771 238.256 101.279 239.023 100.692C239.659 100.211 240.246 99.6722 240.774 99.0841C241.122 98.6887 241.441 98.2711 241.729 97.8342C241.825 97.6925 241.904 97.5676 241.956 97.4759C241.983 97.431 242.016 97.389 242.053 97.3509C242.034 97.3974 242.01 97.4421 241.982 97.4842L241.772 97.8592C241.503 98.3122 241.193 98.7417 240.844 99.1424C240.327 99.7577 239.739 100.317 239.093 100.809C238.319 101.408 237.469 101.911 236.563 102.309C235.651 102.69 234.696 102.97 233.717 103.142C232.924 103.284 232.167 103.566 231.484 103.975C231.03 104.257 230.674 104.66 230.46 105.134C230.399 105.285 230.352 105.441 230.32 105.6Z" fill="#455A64"/>
<path d="M228.735 128.882C228.607 127.24 228.607 125.591 228.735 123.949C228.852 125.591 228.852 127.24 228.735 128.882Z" fill="#263238"/>
<path d="M247.315 128.532C247.292 128.255 247.292 127.976 247.315 127.699C247.368 127.004 247.341 126.305 247.236 125.616C247.1 124.927 246.889 124.254 246.606 123.607C246.473 123.34 246.368 123.061 246.291 122.774C246.462 123.017 246.606 123.277 246.72 123.549C247.044 124.192 247.276 124.873 247.411 125.574C247.516 126.279 247.516 126.994 247.411 127.699C247.416 127.979 247.384 128.259 247.315 128.532Z" fill="#263238"/>
<path d="M341.826 135.848H274.887C273.293 135.846 271.764 135.242 270.636 134.169C269.509 133.096 268.874 131.641 268.872 130.124V103.375L261.491 97.1426H341.826C342.62 97.1371 343.408 97.2814 344.143 97.5671C344.879 97.8528 345.547 98.2744 346.111 98.8074C346.674 99.3404 347.121 99.9743 347.425 100.673C347.73 101.371 347.886 102.12 347.885 102.876V130.124C347.884 130.879 347.726 131.626 347.421 132.323C347.115 133.019 346.668 133.652 346.105 134.184C345.542 134.716 344.874 135.137 344.14 135.422C343.406 135.708 342.619 135.853 341.826 135.848Z" fill="#EBEBEB"/>
<path d="M337.238 140.181C334.863 140.396 332.477 140.468 330.093 140.398C327.712 140.468 325.329 140.396 322.957 140.181C325.329 139.967 327.712 139.894 330.093 139.965C332.477 139.894 334.863 139.967 337.238 140.181Z" fill="#E0E0E0"/>
<path d="M340.189 140.715C340.159 140.714 340.13 140.708 340.103 140.697C340.075 140.685 340.051 140.669 340.031 140.648L338.648 139.273C338.607 139.234 338.585 139.182 338.585 139.127C338.585 139.073 338.607 139.02 338.648 138.981C338.667 138.961 338.691 138.946 338.717 138.935C338.744 138.924 338.772 138.918 338.801 138.918C338.829 138.918 338.858 138.924 338.884 138.935C338.911 138.946 338.934 138.961 338.954 138.981L340.18 140.198L342.868 137.598C342.888 137.578 342.911 137.562 342.938 137.551C342.964 137.541 342.992 137.535 343.021 137.535C343.05 137.535 343.078 137.541 343.105 137.551C343.131 137.562 343.155 137.578 343.174 137.598C343.214 137.637 343.237 137.689 343.237 137.744C343.237 137.798 343.214 137.851 343.174 137.89L340.329 140.648C340.291 140.684 340.241 140.707 340.189 140.715Z" fill="#B0BEC5"/>
<path d="M342.159 140.673H341.905C341.847 140.673 341.791 140.651 341.75 140.612C341.709 140.573 341.686 140.52 341.686 140.465C341.692 140.41 341.718 140.359 341.76 140.321C341.802 140.283 341.856 140.26 341.914 140.256H342.071L344.847 137.565C344.867 137.545 344.892 137.529 344.919 137.518C344.946 137.507 344.975 137.501 345.004 137.501C345.034 137.501 345.063 137.507 345.09 137.518C345.117 137.529 345.142 137.545 345.162 137.565C345.202 137.604 345.225 137.656 345.225 137.711C345.225 137.765 345.202 137.817 345.162 137.856L342.316 140.606C342.297 140.628 342.273 140.645 342.246 140.656C342.218 140.668 342.189 140.674 342.159 140.673Z" fill="#B0BEC5"/>
<path d="M337.238 244.899C334.863 245.114 332.477 245.186 330.093 245.116C327.712 245.186 325.329 245.113 322.957 244.899C325.329 244.685 327.712 244.612 330.093 244.682C332.477 244.612 334.863 244.684 337.238 244.899Z" fill="#E0E0E0"/>
<path d="M340.188 245.432C340.154 245.436 340.12 245.431 340.088 245.42C340.056 245.408 340.028 245.39 340.005 245.366L338.621 243.991C338.597 243.972 338.577 243.949 338.563 243.922C338.549 243.896 338.541 243.866 338.539 243.837C338.538 243.807 338.543 243.777 338.555 243.75C338.567 243.722 338.585 243.697 338.608 243.677C338.63 243.656 338.658 243.641 338.687 243.631C338.717 243.621 338.748 243.618 338.779 243.621C338.811 243.624 338.841 243.633 338.868 243.648C338.895 243.663 338.918 243.683 338.936 243.707L340.162 244.924L342.85 242.324C342.87 242.304 342.894 242.288 342.92 242.278C342.946 242.267 342.975 242.261 343.003 242.261C343.032 242.261 343.061 242.267 343.087 242.278C343.113 242.288 343.137 242.304 343.157 242.324C343.197 242.363 343.219 242.415 343.219 242.47C343.219 242.525 343.197 242.577 343.157 242.616L340.346 245.366C340.303 245.405 340.248 245.428 340.188 245.432Z" fill="#B0BEC5"/>
<path d="M342.159 245.366H341.905C341.846 245.363 341.79 245.34 341.75 245.299C341.709 245.259 341.686 245.205 341.686 245.149C341.686 245.121 341.692 245.094 341.704 245.068C341.715 245.043 341.732 245.02 341.754 245.001C341.775 244.982 341.8 244.968 341.828 244.959C341.855 244.95 341.885 244.947 341.914 244.949H342.071L344.847 242.257C344.867 242.237 344.892 242.221 344.919 242.21C344.946 242.199 344.975 242.194 345.004 242.194C345.034 242.194 345.063 242.199 345.09 242.21C345.117 242.221 345.142 242.237 345.162 242.257C345.202 242.296 345.225 242.349 345.225 242.403C345.225 242.458 345.202 242.51 345.162 242.549L342.316 245.299C342.297 245.32 342.273 245.338 342.246 245.349C342.218 245.361 342.189 245.366 342.159 245.366Z" fill="#B0BEC5"/>
<path d="M340.968 104.8C340.968 104.917 326.354 105.017 308.326 105.017C290.298 105.017 275.693 104.917 275.693 104.8C275.693 104.684 290.298 104.584 308.326 104.584C326.354 104.584 340.968 104.675 340.968 104.8Z" fill="white"/>
<path d="M340.968 109.358C340.968 109.483 326.354 109.575 308.326 109.575C290.298 109.575 275.693 109.483 275.693 109.358C275.693 109.233 290.298 109.142 308.326 109.142C326.354 109.142 340.968 109.242 340.968 109.358Z" fill="white"/>
<path d="M340.968 113.925C340.968 114.041 326.354 114.141 308.326 114.141C290.298 114.141 275.693 114.041 275.693 113.925C275.693 113.808 290.298 113.708 308.326 113.708C326.354 113.708 340.968 113.808 340.968 113.925Z" fill="white"/>
<path d="M237.509 247.115C248.355 247.115 257.148 238.766 257.148 228.467C257.148 218.167 248.355 209.818 237.509 209.818C226.662 209.818 217.869 218.167 217.869 228.467C217.869 238.766 226.662 247.115 237.509 247.115Z" fill="#E0E0E0"/>
<path d="M228.333 233.133L233.481 232.717L246.037 234.733L247.517 243.699L247.307 244.741C244.479 246.262 241.3 247.095 238.053 247.166C234.805 247.238 231.59 246.545 228.692 245.149L228.333 233.108" fill="#455A64"/>
<path d="M243.349 234.583C244.594 234.412 245.864 234.577 247.016 235.058C248.167 235.54 249.154 236.319 249.863 237.308C250.715 238.44 251.496 239.62 252.201 240.841C250.152 242.957 248.488 244.566 245.651 245.499L243.349 234.583Z" fill="#455A64"/>
<path d="M228.332 233.133C228.332 233.133 224.935 233.525 223.622 236.283C222.308 239.041 222.002 239.908 222.002 239.908C223.753 241.916 225.995 244.299 228.735 245.191C228.735 245.191 229.357 238.249 229.436 236.283C229.532 234.133 229.62 233.066 228.332 233.133Z" fill="#455A64"/>
<path d="M231.432 215.468C232.287 214.423 233.377 213.575 234.623 212.987C235.869 212.398 237.238 212.084 238.629 212.068C239.825 212.061 241.012 212.262 242.132 212.66C243.309 212.931 244.349 213.586 245.074 214.509C245.965 215.602 246.549 216.892 246.772 218.259C246.978 219.661 247.048 221.078 246.982 222.492C246.912 223.911 246.43 225.284 245.59 226.459L241.816 227.084C239.736 227.237 237.643 227.131 235.591 226.767C233.517 226.388 231.685 225.244 230.495 223.584C228.98 221.201 229.611 217.593 231.432 215.468Z" fill="#263238"/>
<path d="M227.79 225.875C227.827 225.469 227.962 225.075 228.183 224.726C228.405 224.376 228.707 224.08 229.068 223.859C229.435 223.646 229.864 223.55 230.292 223.584C230.72 223.618 231.126 223.782 231.45 224.05L232.045 224.725C232.505 224.926 232.888 225.26 233.139 225.678C233.39 226.096 233.498 226.579 233.446 227.059C233.374 227.536 233.162 227.985 232.833 228.352C232.505 228.719 232.074 228.99 231.59 229.133C231.102 229.263 230.587 229.271 230.095 229.157C229.603 229.044 229.15 228.812 228.779 228.483C228.415 228.15 228.136 227.742 227.965 227.289C227.793 226.837 227.733 226.353 227.79 225.875Z" fill="#263238"/>
<path d="M228.534 228.292C228.393 228.077 228.323 227.828 228.332 227.575C228.458 226.971 228.762 226.414 229.208 225.967C229.628 225.492 230.143 225.101 230.723 224.817C231.16 224.592 231.467 224.509 231.458 224.475C231.179 224.5 230.909 224.576 230.661 224.7C230.047 224.967 229.503 225.36 229.068 225.85C228.825 226.119 228.619 226.416 228.455 226.734C228.31 226.991 228.227 227.275 228.21 227.567C228.207 227.767 228.264 227.964 228.376 228.133C228.455 228.258 228.534 228.3 228.534 228.292Z" fill="#455A64"/>
<path d="M241.799 234.25V230.917C241.799 230.917 244.872 230.592 245.73 226.85C246.133 224.37 246.291 221.859 246.203 219.351C246.203 217.076 244.145 213.976 241.186 213.968L239.872 213.826L234.838 215.726C234.487 215.742 234.156 215.883 233.91 216.121C233.663 216.359 233.519 216.676 233.507 217.009L233.358 233.008L235.661 236.083C236.082 236.626 236.672 237.03 237.347 237.238C238.022 237.446 238.748 237.447 239.424 237.242C240.1 237.037 240.692 236.636 241.116 236.095C241.54 235.554 241.776 234.9 241.79 234.225L241.799 234.25Z" fill="#FFBE9D"/>
<path d="M239.776 225.675C239.803 225.482 239.907 225.307 240.065 225.184C240.209 225.069 240.388 225.001 240.576 224.991C240.764 224.98 240.95 225.027 241.107 225.125C241.268 225.245 241.393 225.402 241.47 225.582C241.547 225.762 241.573 225.958 241.545 226.15C241.457 226.265 241.344 226.361 241.214 226.431C241.084 226.501 240.941 226.545 240.792 226.559H240.652C240.418 226.554 240.194 226.468 240.021 226.317C239.932 226.235 239.863 226.134 239.821 226.023C239.778 225.912 239.763 225.793 239.776 225.675Z" fill="#EB996E"/>
<path d="M244.356 222.034C244.339 222.152 244.278 222.261 244.184 222.34C244.09 222.418 243.969 222.462 243.843 222.462C243.718 222.462 243.597 222.418 243.503 222.34C243.408 222.261 243.347 222.152 243.331 222.034C243.338 221.906 243.396 221.787 243.495 221.699C243.593 221.612 243.722 221.565 243.856 221.567C243.922 221.566 243.986 221.577 244.047 221.6C244.107 221.623 244.162 221.658 244.209 221.701C244.255 221.744 244.292 221.796 244.317 221.853C244.343 221.911 244.356 221.972 244.356 222.034Z" fill="#263238"/>
<path d="M245.196 220.792C245.126 220.851 244.75 220.559 244.207 220.534C243.664 220.509 243.235 220.742 243.182 220.676C243.13 220.609 243.226 220.534 243.41 220.426C243.655 220.278 243.944 220.21 244.233 220.234C244.518 220.245 244.792 220.344 245.012 220.517C245.17 220.651 245.222 220.767 245.196 220.792Z" fill="#263238"/>
<path d="M241.738 224.742C242.025 224.677 242.318 224.641 242.613 224.634C242.753 224.634 242.893 224.634 242.92 224.517C242.939 224.38 242.915 224.241 242.85 224.117C242.736 223.792 242.613 223.45 242.491 223.084C242.158 222.204 241.897 221.302 241.711 220.384C242.122 221.234 242.458 222.115 242.718 223.017C242.841 223.384 242.946 223.725 243.06 224.059C243.134 224.225 243.149 224.409 243.104 224.584C243.08 224.63 243.045 224.67 243.003 224.702C242.961 224.734 242.911 224.756 242.858 224.767C242.78 224.778 242.7 224.778 242.622 224.767C242.327 224.797 242.03 224.788 241.738 224.742Z" fill="#263238"/>
<path d="M241.764 230.933C239.889 230.864 238.07 230.301 236.51 229.308C236.51 229.308 237.78 232 241.764 231.858V230.933Z" fill="#EB996E"/>
<path d="M240.1 225.017C240.197 225.017 240.162 225.584 240.652 226.017C241.142 226.45 241.773 226.417 241.773 226.492C241.773 226.567 241.624 226.592 241.361 226.592C241.009 226.577 240.674 226.444 240.416 226.217C240.166 226.003 240.015 225.703 239.995 225.384C239.987 225.15 240.065 225.017 240.1 225.017Z" fill="#263238"/>
<path d="M245.082 218.826C244.986 218.951 244.566 218.826 244.076 218.826C243.585 218.826 243.2 218.942 243.069 218.826C242.937 218.709 243.069 218.642 243.261 218.526C243.501 218.378 243.781 218.299 244.067 218.301C244.354 218.29 244.638 218.362 244.881 218.509C245.065 218.642 245.126 218.767 245.082 218.826Z" fill="#263238"/>
<path d="M238.332 221.967C238.329 222.094 238.379 222.217 238.471 222.309C238.563 222.401 238.689 222.455 238.822 222.459C238.887 222.466 238.952 222.46 239.014 222.442C239.077 222.424 239.135 222.395 239.184 222.355C239.234 222.315 239.275 222.266 239.305 222.211C239.334 222.156 239.352 222.096 239.356 222.034C239.358 221.906 239.309 221.783 239.217 221.689C239.126 221.596 239 221.54 238.866 221.534C238.801 221.528 238.735 221.535 238.673 221.554C238.61 221.573 238.553 221.603 238.503 221.644C238.453 221.684 238.412 221.733 238.383 221.789C238.353 221.845 238.336 221.905 238.332 221.967Z" fill="#263238"/>
<path d="M237.666 220.601C237.727 220.667 238.121 220.401 238.673 220.417C239.225 220.434 239.619 220.692 239.68 220.626C239.741 220.559 239.68 220.484 239.47 220.359C239.234 220.2 238.953 220.112 238.664 220.109C238.38 220.107 238.102 220.188 237.868 220.342C237.692 220.459 237.631 220.576 237.666 220.601Z" fill="#263238"/>
<path d="M237.351 219.484C237.456 219.601 237.885 219.484 238.393 219.484C238.9 219.484 239.329 219.576 239.435 219.484C239.54 219.392 239.434 219.309 239.224 219.192C238.969 219.05 238.679 218.975 238.384 218.975C238.088 218.975 237.798 219.05 237.543 219.192C237.359 219.301 237.298 219.426 237.351 219.484Z" fill="#263238"/>
<path d="M234.155 223.075C234.155 222.792 233.875 222.117 233.577 222.059C232.807 221.901 231.397 221.884 231.274 223.767C231.108 226.342 233.901 225.975 233.901 225.9C233.901 225.825 234.102 224.05 234.155 223.075Z" fill="#FFBE9D"/>
<path d="M233.183 224.917C233.183 224.917 233.139 224.917 233.052 224.975C232.939 225.016 232.814 225.016 232.702 224.975C232.533 224.861 232.399 224.705 232.314 224.525C232.23 224.345 232.197 224.147 232.22 223.95C232.229 223.73 232.289 223.514 232.395 223.317C232.427 223.239 232.477 223.168 232.542 223.112C232.608 223.055 232.686 223.014 232.772 222.992C232.826 222.982 232.883 222.989 232.932 223.014C232.981 223.038 233.02 223.077 233.043 223.125C233.05 223.17 233.05 223.215 233.043 223.259C233.043 223.259 233.104 223.217 233.087 223.109C233.074 223.045 233.04 222.987 232.991 222.942C232.956 222.914 232.915 222.893 232.872 222.88C232.828 222.867 232.782 222.863 232.737 222.867C232.624 222.879 232.517 222.92 232.426 222.984C232.335 223.048 232.264 223.135 232.22 223.234C232.089 223.45 232.017 223.693 232.01 223.942C231.981 224.17 232.024 224.401 232.133 224.606C232.242 224.81 232.412 224.98 232.623 225.092C232.691 225.124 232.766 225.14 232.842 225.14C232.918 225.14 232.992 225.124 233.061 225.092C233.183 224.975 233.183 224.917 233.183 224.917Z" fill="#EB996E"/>
<path d="M233.472 222.034L234.155 222.717C237.132 220.009 242.954 213.235 242.63 213.643C241.273 213.159 239.81 213.008 238.375 213.201C236.16 213.56 231.966 214.609 232.027 217.093C232.158 218.815 232.649 220.495 233.472 222.034Z" fill="#263238"/>
<path d="M229.532 221.492C229.532 221.492 229.532 221.442 229.532 221.342C229.585 221.206 229.647 221.072 229.716 220.942C229.998 220.463 230.387 220.048 230.854 219.726C231.563 219.259 232.351 218.913 233.183 218.701C234.059 218.417 235.109 218.201 236.116 217.793C237.064 217.418 237.963 216.94 238.795 216.368C239.475 215.901 240.108 215.377 240.687 214.801C241.177 214.301 241.562 213.868 241.781 213.568C241.886 213.418 241.983 213.301 242.053 213.21C242.123 213.118 242.149 213.085 242.158 213.093L242.079 213.226L241.825 213.593C241.503 214.04 241.146 214.463 240.757 214.859C240.182 215.452 239.548 215.99 238.866 216.468C238.025 217.035 237.117 217.505 236.16 217.868C235.144 218.276 234.111 218.492 233.209 218.767C232.403 218.979 231.64 219.317 230.95 219.767C230.485 220.074 230.094 220.472 229.803 220.934C229.701 221.115 229.61 221.301 229.532 221.492Z" fill="#455A64"/>
<path d="M230.32 221.901C230.313 221.707 230.349 221.514 230.425 221.334C230.625 220.842 230.98 220.42 231.44 220.126C232.13 219.707 232.901 219.423 233.708 219.292C234.674 219.113 235.617 218.834 236.519 218.459C237.415 218.072 238.256 217.579 239.023 216.993C240.078 216.189 240.983 215.223 241.702 214.134C241.799 213.984 241.877 213.868 241.93 213.768C241.958 213.726 241.991 213.687 242.026 213.651C242.008 213.698 241.984 213.742 241.956 213.784L241.746 214.159C241.477 214.612 241.167 215.042 240.818 215.443C240.301 216.058 239.713 216.617 239.067 217.109C238.294 217.708 237.444 218.209 236.536 218.601C235.623 218.978 234.669 219.258 233.691 219.434C232.896 219.568 232.136 219.851 231.458 220.267C230.999 220.543 230.641 220.948 230.433 221.426C230.38 221.58 230.342 221.739 230.32 221.901Z" fill="#455A64"/>
<path d="M228.735 245.174C228.607 243.535 228.607 241.889 228.735 240.249C228.852 241.889 228.852 243.534 228.735 245.174Z" fill="#263238"/>
<path d="M247.315 244.832C247.29 244.541 247.29 244.249 247.315 243.957C247.368 243.26 247.341 242.558 247.236 241.866C247.099 241.18 246.887 240.51 246.606 239.866C246.475 239.598 246.369 239.319 246.291 239.033C246.462 239.276 246.606 239.536 246.72 239.808C247.045 240.45 247.278 241.131 247.411 241.833C247.516 242.537 247.516 243.253 247.411 243.957C247.419 244.252 247.386 244.546 247.315 244.832Z" fill="#263238"/>
<path d="M341.826 239.433H274.887C273.291 239.43 271.761 238.826 270.633 237.751C269.505 236.676 268.872 235.219 268.872 233.7V219.667L261.491 213.434H341.826C343.421 213.437 344.949 214.041 346.077 215.114C347.204 216.187 347.839 217.642 347.841 219.159V233.7C347.841 235.219 347.208 236.676 346.08 237.751C344.952 238.826 343.422 239.43 341.826 239.433Z" fill="#EBEBEB"/>
<path d="M340.968 221.092C340.968 221.217 326.354 221.309 308.326 221.309C290.298 221.309 275.693 221.217 275.693 221.092C275.693 220.967 290.298 220.876 308.326 220.876C326.354 220.876 340.968 220.976 340.968 221.092Z" fill="white"/>
<path d="M340.968 225.659C340.968 225.775 326.354 225.875 308.326 225.875C290.298 225.875 275.693 225.775 275.693 225.659C275.693 225.542 290.298 225.442 308.326 225.442C326.354 225.442 340.968 225.542 340.968 225.659Z" fill="white"/>
<path d="M340.968 230.225C340.968 230.342 326.354 230.442 308.326 230.442C290.298 230.442 275.693 230.342 275.693 230.225C275.693 230.108 290.298 230.008 308.326 230.008C326.354 230.008 340.968 230.1 340.968 230.225Z" fill="white"/>
<path d="M340.968 118.491C340.968 118.608 326.354 118.708 308.326 118.708C290.298 118.708 275.693 118.608 275.693 118.491C275.693 118.374 290.298 118.274 308.326 118.274C326.354 118.274 340.968 118.366 340.968 118.491Z" fill="white"/>
<path d="M340.968 123.049C340.968 123.174 326.354 123.266 308.326 123.266C290.298 123.266 275.693 123.174 275.693 123.049C275.693 122.924 290.298 122.832 308.326 122.832C326.354 122.832 340.968 122.932 340.968 123.049Z" fill="white"/>
<path d="M340.968 128.532C340.968 128.657 326.354 128.749 308.326 128.749C290.298 128.749 275.693 128.657 275.693 128.532C275.693 128.407 290.298 128.315 308.326 128.315C326.354 128.315 340.968 128.415 340.968 128.532Z" fill="white"/>
<path d="M276.087 49.2376C276.134 48.5901 276.378 47.9697 276.79 47.4525C277.202 46.9353 277.764 46.5438 278.406 46.3262C279.049 46.1085 279.744 46.0741 280.407 46.2271C281.07 46.3802 281.671 46.714 282.137 47.1877L281.2 48.021C281.007 47.7977 280.763 47.6183 280.487 47.4958C280.212 47.3733 279.911 47.3108 279.607 47.3127C279.068 47.3127 278.551 47.5164 278.17 47.8789C277.789 48.2415 277.575 48.7332 277.575 49.2459C277.575 49.7586 277.789 50.2503 278.17 50.6129C278.551 50.9754 279.068 51.1791 279.607 51.1791C279.912 51.1812 280.214 51.1179 280.489 50.9938C280.765 50.8698 281.008 50.6882 281.2 50.4625L282.137 51.2958C281.672 51.7691 281.071 52.1029 280.409 52.2563C279.747 52.4097 279.052 52.376 278.41 52.1593C277.768 51.9426 277.206 51.5524 276.793 51.0364C276.381 50.5204 276.135 49.901 276.087 49.2542V49.2376Z" fill="#263238"/>
<path d="M287.96 49.5959V52.254H286.594V49.8042C286.594 49.0542 286.226 48.7126 285.604 48.7126C284.983 48.7126 284.44 49.1126 284.44 49.9625V52.254H283.021V45.8628H284.44V48.1043C284.645 47.9165 284.888 47.7703 285.155 47.6743C285.421 47.5784 285.705 47.5347 285.99 47.546C286.268 47.5353 286.544 47.5825 286.801 47.6842C287.058 47.7859 287.288 47.9398 287.476 48.1351C287.663 48.3303 287.804 48.5622 287.887 48.8145C287.971 49.0668 287.996 49.3335 287.96 49.5959Z" fill="#263238"/>
<path d="M293.546 49.6125V52.254H292.224V51.6791C292.06 51.9039 291.835 52.0823 291.573 52.1953C291.311 52.3082 291.021 52.3516 290.735 52.3207C289.597 52.3207 288.923 51.7207 288.923 50.9208C288.923 50.1208 289.527 49.5292 291.015 49.5292H292.136C292.136 48.9543 291.768 48.6209 291.015 48.6209C290.51 48.6161 290.016 48.765 289.606 49.0459L289.098 48.1126C289.723 47.7275 290.455 47.5301 291.199 47.546C292.723 47.546 293.546 48.2043 293.546 49.6125ZM292.136 50.7875V50.3125H291.164C290.508 50.3125 290.289 50.5458 290.289 50.8625C290.289 51.1791 290.586 51.4207 291.086 51.4207C291.309 51.4367 291.532 51.3837 291.721 51.2697C291.91 51.1556 292.056 50.9865 292.136 50.7875Z" fill="#263238"/>
<path d="M297.977 52.0457C297.631 52.252 297.228 52.3537 296.821 52.3374C296.58 52.3689 296.336 52.348 296.105 52.2762C295.874 52.2045 295.663 52.0839 295.489 51.9234C295.314 51.7628 295.18 51.5667 295.097 51.3497C295.014 51.1327 294.984 50.9006 295.008 50.6708V48.7626H294.255V47.7293H295.008V46.5961H296.418V47.7293H297.635V48.7626H296.418V50.6541C296.408 50.7335 296.416 50.8142 296.442 50.8903C296.468 50.9664 296.511 51.036 296.569 51.0942C296.627 51.1523 296.697 51.1976 296.776 51.2267C296.854 51.2558 296.938 51.268 297.022 51.2624C297.228 51.2695 297.429 51.2075 297.591 51.0874L297.977 52.0457Z" fill="#263238"/>
<path d="M322.957 58.5369C322.957 58.6536 308.072 58.7536 289.623 58.7536C271.175 58.7536 256.298 58.6536 256.298 58.5369C256.298 58.4203 271.183 58.312 289.623 58.312C308.063 58.312 322.957 58.4119 322.957 58.5369Z" fill="#263238"/>
<path d="M352.491 49.2376C353.347 49.2376 354.041 48.5772 354.041 47.7627C354.041 46.9481 353.347 46.2878 352.491 46.2878C351.635 46.2878 350.941 46.9481 350.941 47.7627C350.941 48.5772 351.635 49.2376 352.491 49.2376Z" fill="#263238"/>
<path d="M354.014 52.0457C354.016 52.3398 353.926 52.6277 353.755 52.8729C353.584 53.1181 353.341 53.3095 353.056 53.4228C352.771 53.5361 352.457 53.5661 352.154 53.5092C351.85 53.4522 351.572 53.3108 351.353 53.1028C351.135 52.8949 350.986 52.6298 350.927 52.3414C350.867 52.0529 350.898 51.7539 351.017 51.4826C351.136 51.2112 351.337 50.9797 351.595 50.8173C351.853 50.655 352.155 50.5692 352.464 50.5708C352.875 50.573 353.267 50.7291 353.558 51.0052C353.848 51.2813 354.012 51.6552 354.014 52.0457Z" fill="#263238"/>
<path d="M354.014 56.3704C354.016 56.6645 353.926 56.9524 353.755 57.1976C353.584 57.4427 353.341 57.6341 353.056 57.7474C352.771 57.8607 352.457 57.8908 352.154 57.8338C351.85 57.7769 351.572 57.6354 351.353 57.4275C351.135 57.2196 350.986 56.9545 350.927 56.666C350.867 56.3775 350.898 56.0786 351.017 55.8073C351.136 55.5359 351.337 55.3043 351.595 55.142C351.853 54.9797 352.155 54.8939 352.464 54.8955C352.875 54.8955 353.269 55.0509 353.56 55.3275C353.851 55.6041 354.014 55.9792 354.014 56.3704Z" fill="#263238"/>
<path d="M226.458 52.7623C226.363 52.7643 226.27 52.7348 226.196 52.679L222.089 49.8125C222.033 49.7729 221.987 49.7214 221.955 49.6621C221.923 49.6029 221.906 49.5375 221.905 49.4709C221.906 49.4054 221.922 49.3409 221.954 49.2829C221.986 49.2249 222.033 49.175 222.089 49.1376L226.196 46.3211C226.243 46.2891 226.296 46.2664 226.352 46.2541C226.409 46.2418 226.467 46.2403 226.524 46.2495C226.581 46.2588 226.635 46.2788 226.684 46.3082C226.733 46.3377 226.775 46.376 226.809 46.4211C226.875 46.5099 226.901 46.6198 226.883 46.7273C226.865 46.8347 226.804 46.9312 226.712 46.9961L223.087 49.4959L226.712 51.9957C226.805 52.0621 226.866 52.16 226.884 52.2688C226.902 52.3777 226.875 52.4889 226.809 52.579C226.77 52.6343 226.718 52.6799 226.657 52.7119C226.596 52.7438 226.528 52.7611 226.458 52.7623Z" fill="#263238"/>
<path d="M333.622 192.869C344.468 192.869 353.261 184.52 353.261 174.221C353.261 163.921 344.468 155.572 333.622 155.572C322.775 155.572 313.982 163.921 313.982 174.221C313.982 184.52 322.775 192.869 333.622 192.869Z" fill="#E0E0E0"/>
<path d="M338.998 185.245H328.666C328.313 185.245 327.974 185.111 327.725 184.874C327.475 184.636 327.335 184.314 327.335 183.978C327.335 183.642 327.475 183.319 327.724 183.08C327.974 182.841 328.312 182.705 328.666 182.703H338.998C339.352 182.705 339.69 182.841 339.939 183.08C340.189 183.319 340.329 183.642 340.329 183.978C340.329 184.314 340.188 184.636 339.939 184.874C339.689 185.111 339.351 185.245 338.998 185.245Z" fill="#263238"/>
<path d="M334.418 162.096H333.508V166.463H334.418V162.096Z" fill="#263238"/>
<path d="M320.575 179.554C322.045 179.554 323.237 178.419 323.237 177.02C323.237 175.621 322.045 174.487 320.575 174.487C319.105 174.487 317.914 175.621 317.914 177.02C317.914 178.419 319.105 179.554 320.575 179.554Z" fill="#B0BEC5"/>
<path d="M347.491 179.387C348.961 179.387 350.153 178.253 350.153 176.854C350.153 175.455 348.961 174.321 347.491 174.321C346.021 174.321 344.829 175.455 344.829 176.854C344.829 178.253 346.021 179.387 347.491 179.387Z" fill="#B0BEC5"/>
<path d="M334.357 165.546C334.357 165.546 345.197 165.421 346.913 174.362C348.629 183.303 339.462 183.462 336.826 183.628C335.635 183.703 333.079 183.712 330.82 183.678C325.82 183.595 322.291 182.678 321.092 178.262C320.948 177.744 320.857 177.214 320.82 176.679C320.505 171.846 323.938 165.313 334.357 165.546Z" fill="#B0BEC5"/>
<path d="M326.495 179.154L342.255 179.387C343.048 179.398 343.813 179.11 344.382 178.585C344.952 178.06 345.28 177.341 345.293 176.587C345.303 175.833 344.997 175.106 344.444 174.565C343.891 174.025 343.135 173.715 342.343 173.704L326.582 173.471C326.189 173.464 325.799 173.531 325.433 173.668C325.068 173.806 324.734 174.01 324.452 174.27C324.17 174.53 323.944 174.841 323.789 175.184C323.633 175.527 323.549 175.897 323.544 176.27C323.538 176.644 323.61 177.016 323.755 177.363C323.9 177.71 324.116 178.027 324.39 178.295C324.664 178.563 324.991 178.776 325.352 178.924C325.714 179.071 326.102 179.149 326.495 179.154Z" fill="#263238"/>
<path d="M338.98 176.279C339.003 176.397 339.051 176.509 339.12 176.609C339.189 176.71 339.278 176.796 339.382 176.863C339.486 176.931 339.603 176.978 339.727 177.002C339.85 177.026 339.977 177.027 340.101 177.004C340.234 176.991 340.363 176.952 340.48 176.889C340.596 176.826 340.698 176.74 340.778 176.638C340.858 176.536 340.914 176.419 340.944 176.294C340.973 176.17 340.975 176.041 340.95 175.916C340.924 175.791 340.871 175.672 340.794 175.568C340.718 175.463 340.619 175.375 340.505 175.309C340.39 175.242 340.263 175.2 340.13 175.183C339.997 175.166 339.862 175.176 339.733 175.212C339.61 175.235 339.493 175.281 339.389 175.347C339.284 175.413 339.195 175.498 339.125 175.597C339.055 175.696 339.006 175.807 338.981 175.924C338.956 176.041 338.956 176.162 338.98 176.279Z" fill="white"/>
<path d="M327.974 176.112C327.988 176.239 328.029 176.362 328.095 176.473C328.161 176.583 328.251 176.68 328.358 176.756C328.466 176.832 328.589 176.886 328.72 176.914C328.85 176.942 328.986 176.944 329.117 176.92C329.249 176.895 329.373 176.845 329.483 176.772C329.593 176.699 329.686 176.605 329.755 176.496C329.825 176.387 329.87 176.266 329.887 176.139C329.905 176.013 329.894 175.884 329.857 175.762C329.789 175.543 329.638 175.356 329.433 175.237C329.228 175.118 328.983 175.077 328.748 175.12C328.512 175.164 328.302 175.29 328.159 175.474C328.016 175.657 327.95 175.885 327.974 176.112Z" fill="white"/>
<path d="M335.46 162.038C335.462 162.32 335.376 162.597 335.212 162.832C335.049 163.067 334.816 163.251 334.542 163.36C334.269 163.47 333.967 163.499 333.676 163.445C333.385 163.391 333.118 163.256 332.907 163.057C332.697 162.858 332.554 162.604 332.495 162.327C332.437 162.051 332.466 161.764 332.579 161.503C332.692 161.242 332.884 161.019 333.13 160.862C333.377 160.705 333.667 160.621 333.963 160.621C334.359 160.621 334.738 160.77 335.019 161.036C335.299 161.301 335.458 161.662 335.46 162.038Z" fill="#B0BEC5"/>
<path d="M336.222 175.862C336.222 175.862 336.284 175.929 336.319 176.079C336.346 176.292 336.325 176.508 336.257 176.712C336.161 177.028 335.98 177.316 335.732 177.545C335.429 177.834 335.029 178.013 334.603 178.054C334.176 178.087 333.749 177.982 333.394 177.754C333.113 177.572 332.882 177.329 332.72 177.045C332.616 176.854 332.557 176.644 332.545 176.429C332.545 176.279 332.545 176.195 332.597 176.195C332.65 176.195 332.685 176.512 332.974 176.904C333.143 177.121 333.354 177.305 333.596 177.445C333.888 177.611 334.228 177.687 334.568 177.662C334.894 177.622 335.199 177.488 335.443 177.279C335.664 177.104 335.84 176.885 335.96 176.637C336.187 176.204 336.152 175.862 336.222 175.862Z" fill="white"/>
<path d="M346.895 174.071C346.928 174.141 346.955 174.213 346.974 174.287C347.008 174.375 347.038 174.464 347.062 174.554C347.062 174.654 347.123 174.771 347.149 174.912C347.216 175.223 347.263 175.537 347.29 175.854C347.32 176.242 347.32 176.632 347.29 177.02C347.253 177.408 347.186 177.792 347.088 178.17C347.006 178.477 346.9 178.778 346.773 179.07C346.73 179.186 346.68 179.301 346.624 179.412C346.586 179.495 346.542 179.576 346.493 179.654L346.37 179.862C346.389 179.785 346.422 179.712 346.466 179.645L346.58 179.387C346.624 179.287 346.677 179.179 346.72 179.054C346.838 178.76 346.935 178.46 347.009 178.154C347.103 177.778 347.17 177.396 347.211 177.012C347.237 176.626 347.237 176.239 347.211 175.854C347.189 175.541 347.148 175.229 347.088 174.921C347.07 174.791 347.043 174.663 347.009 174.537C347.009 174.429 346.966 174.346 346.948 174.271C346.921 174.206 346.903 174.139 346.895 174.071Z" fill="#263238"/>
<path d="M321.215 174.121C321.177 174.192 321.148 174.268 321.127 174.346C321.127 174.412 321.075 174.504 321.04 174.604C321.005 174.704 320.978 174.829 320.952 174.962C320.885 175.273 320.841 175.587 320.821 175.904C320.79 176.292 320.79 176.682 320.821 177.07C320.856 177.458 320.923 177.843 321.022 178.22C321.103 178.53 321.209 178.834 321.337 179.129C321.381 179.254 321.442 179.362 321.486 179.462C321.53 179.562 321.582 179.645 321.618 179.712L321.74 179.912C321.717 179.836 321.685 179.763 321.644 179.695C321.644 179.629 321.574 179.545 321.53 179.445C321.486 179.345 321.434 179.237 321.39 179.112C321.272 178.816 321.176 178.512 321.101 178.204C321.007 177.828 320.94 177.446 320.9 177.062C320.874 176.679 320.874 176.295 320.9 175.912C320.921 175.596 320.962 175.282 321.022 174.971C321.041 174.852 321.067 174.735 321.101 174.621C321.101 174.512 321.145 174.421 321.162 174.354C321.18 174.287 321.215 174.121 321.215 174.121Z" fill="#263238"/>
<path d="M323.552 190.236C323.552 190.236 326.774 187.245 333.508 187.245C340.241 187.245 343.691 190.236 343.691 190.236C340.652 191.981 337.17 192.903 333.622 192.903C330.073 192.903 326.591 191.981 323.552 190.236Z" fill="#B0BEC5"/>
<path d="M226.178 193.236H293.108C293.899 193.237 294.681 193.09 295.412 192.802C296.142 192.515 296.806 192.093 297.364 191.562C297.923 191.03 298.366 190.398 298.668 189.703C298.97 189.008 299.125 188.263 299.124 187.511V169.029L306.505 162.796H226.178C225.388 162.796 224.606 162.944 223.876 163.232C223.147 163.52 222.484 163.941 221.925 164.473C221.366 165.005 220.923 165.636 220.621 166.33C220.319 167.025 220.163 167.769 220.163 168.521V187.511C220.162 188.263 220.317 189.008 220.619 189.703C220.921 190.398 221.364 191.03 221.922 191.562C222.481 192.093 223.145 192.515 223.875 192.802C224.605 193.09 225.388 193.237 226.178 193.236Z" fill="#EBEBEB"/>
<path d="M290.096 171.829C290.096 171.954 276.314 172.046 259.311 172.046C242.307 172.046 228.525 171.954 228.525 171.829C228.525 171.704 242.307 171.612 259.311 171.612C276.314 171.612 290.096 171.712 290.096 171.829Z" fill="white"/>
<path d="M290.096 176.779C290.096 176.904 276.314 176.995 259.311 176.995C242.307 176.995 228.525 176.904 228.525 176.779C228.525 176.654 242.307 176.562 259.311 176.562C276.314 176.562 290.096 176.662 290.096 176.779Z" fill="white"/>
<path d="M290.096 181.728C290.096 181.845 276.314 181.945 259.311 181.945C242.307 181.945 228.525 181.845 228.525 181.728C228.525 181.612 242.307 181.512 259.311 181.512C276.314 181.512 290.096 181.612 290.096 181.728Z" fill="white"/>
<path d="M290.096 186.678C290.096 186.795 276.314 186.895 259.311 186.895C242.307 186.895 228.525 186.795 228.525 186.678C228.525 186.561 242.307 186.461 259.311 186.461C276.314 186.461 290.096 186.553 290.096 186.678Z" fill="white"/>
<path d="M333.622 296.429C344.468 296.429 353.261 288.079 353.261 277.78C353.261 267.481 344.468 259.131 333.622 259.131C322.775 259.131 313.982 267.481 313.982 277.78C313.982 288.079 322.775 296.429 333.622 296.429Z" fill="#E0E0E0"/>
<path d="M338.998 288.804H328.666C328.49 288.804 328.317 288.771 328.155 288.707C327.992 288.643 327.845 288.549 327.722 288.43C327.598 288.312 327.5 288.171 327.434 288.017C327.367 287.862 327.334 287.696 327.335 287.529C327.335 287.193 327.475 286.871 327.725 286.634C327.974 286.396 328.313 286.263 328.666 286.263H338.998C339.351 286.263 339.689 286.396 339.939 286.634C340.188 286.871 340.329 287.193 340.329 287.529C340.33 287.696 340.296 287.862 340.23 288.017C340.164 288.171 340.066 288.312 339.942 288.43C339.818 288.549 339.671 288.643 339.509 288.707C339.347 288.771 339.173 288.804 338.998 288.804Z" fill="#263238"/>
<path d="M334.418 265.656H333.508V270.022H334.418V265.656Z" fill="#263238"/>
<path d="M320.575 283.113C322.045 283.113 323.237 281.979 323.237 280.58C323.237 279.181 322.045 278.047 320.575 278.047C319.105 278.047 317.914 279.181 317.914 280.58C317.914 281.979 319.105 283.113 320.575 283.113Z" fill="#B0BEC5"/>
<path d="M347.491 282.938C348.961 282.938 350.153 281.804 350.153 280.405C350.153 279.006 348.961 277.872 347.491 277.872C346.021 277.872 344.829 279.006 344.829 280.405C344.829 281.804 346.021 282.938 347.491 282.938Z" fill="#B0BEC5"/>
<path d="M334.357 269.106C334.357 269.106 345.197 268.981 346.913 277.913C348.629 286.846 339.462 287.021 336.826 287.188C335.635 287.263 333.079 287.271 330.82 287.238C325.82 287.154 322.291 286.229 321.092 281.821C320.948 281.303 320.857 280.773 320.82 280.238C320.505 275.405 323.938 268.864 334.357 269.106Z" fill="#B0BEC5"/>
<path d="M326.495 282.713L342.255 282.946C343.048 282.957 343.813 282.669 344.382 282.144C344.952 281.619 345.28 280.901 345.293 280.147C345.303 279.392 344.997 278.665 344.444 278.125C343.891 277.584 343.135 277.274 342.343 277.263L326.582 277.022C325.789 277.011 325.024 277.299 324.455 277.824C323.885 278.349 323.558 279.067 323.544 279.822C323.538 280.196 323.61 280.567 323.755 280.915C323.9 281.263 324.116 281.58 324.39 281.849C324.664 282.117 324.991 282.332 325.352 282.48C325.713 282.628 326.101 282.708 326.495 282.713Z" fill="#263238"/>
<path d="M338.98 279.838C339.002 279.957 339.047 280.07 339.115 280.172C339.182 280.274 339.27 280.363 339.373 280.432C339.476 280.502 339.593 280.552 339.716 280.578C339.84 280.605 339.968 280.608 340.092 280.588C340.217 280.568 340.336 280.524 340.444 280.46C340.551 280.396 340.644 280.313 340.717 280.214C340.79 280.116 340.842 280.005 340.87 279.888C340.898 279.77 340.902 279.649 340.88 279.53C340.867 279.403 340.826 279.28 340.76 279.169C340.694 279.059 340.604 278.962 340.496 278.886C340.389 278.81 340.266 278.756 340.135 278.728C340.004 278.7 339.869 278.698 339.737 278.722C339.606 278.747 339.481 278.797 339.371 278.87C339.261 278.943 339.169 279.037 339.099 279.146C339.03 279.255 338.985 279.376 338.967 279.503C338.95 279.629 338.96 279.758 338.998 279.88L338.98 279.838Z" fill="white"/>
<path d="M327.974 279.672C328.011 279.85 328.102 280.013 328.236 280.142C328.37 280.271 328.541 280.359 328.728 280.395C328.914 280.431 329.108 280.413 329.284 280.345C329.461 280.276 329.612 280.159 329.718 280.009C329.825 279.859 329.882 279.682 329.883 279.5C329.884 279.319 329.828 279.142 329.723 278.991C329.618 278.839 329.468 278.721 329.292 278.651C329.117 278.581 328.923 278.562 328.736 278.597C328.612 278.62 328.494 278.666 328.388 278.732C328.283 278.799 328.192 278.884 328.121 278.984C328.05 279.084 328.001 279.196 327.976 279.314C327.951 279.432 327.95 279.553 327.974 279.672Z" fill="white"/>
<path d="M335.46 265.564C335.46 265.846 335.373 266.122 335.208 266.356C335.043 266.59 334.81 266.773 334.536 266.881C334.262 266.988 333.961 267.017 333.671 266.962C333.381 266.907 333.114 266.771 332.904 266.572C332.695 266.373 332.552 266.119 332.495 265.842C332.437 265.566 332.466 265.279 332.58 265.019C332.693 264.759 332.885 264.536 333.131 264.379C333.377 264.223 333.667 264.139 333.963 264.139C334.36 264.139 334.741 264.289 335.022 264.557C335.303 264.824 335.46 265.186 335.46 265.564Z" fill="#B0BEC5"/>
<path d="M336.222 279.413C336.222 279.413 336.284 279.488 336.319 279.638C336.346 279.851 336.325 280.067 336.257 280.272C336.159 280.587 335.978 280.874 335.732 281.105C335.429 281.393 335.029 281.573 334.603 281.613C334.176 281.647 333.749 281.541 333.394 281.313C333.113 281.132 332.882 280.889 332.72 280.605C332.617 280.413 332.558 280.203 332.545 279.988C332.545 279.838 332.545 279.755 332.597 279.755C332.65 279.755 332.685 280.071 332.974 280.455C333.14 280.676 333.351 280.864 333.596 281.005C333.891 281.165 334.228 281.24 334.568 281.221C334.894 281.182 335.199 281.048 335.443 280.838C335.66 280.66 335.836 280.442 335.96 280.196C336.187 279.747 336.152 279.422 336.222 279.413Z" fill="white"/>
<path d="M346.895 277.622C346.895 277.622 346.895 277.705 346.974 277.847C347.01 277.934 347.039 278.023 347.062 278.113C347.062 278.213 347.123 278.33 347.149 278.463C347.215 278.774 347.262 279.089 347.29 279.405C347.32 279.793 347.32 280.183 347.29 280.571C347.254 280.959 347.187 281.344 347.088 281.721C347.007 282.031 346.901 282.335 346.773 282.63C346.73 282.743 346.68 282.855 346.624 282.963C346.587 283.05 346.543 283.133 346.493 283.213L346.37 283.413C346.393 283.337 346.425 283.265 346.466 283.196C346.466 283.13 346.536 283.046 346.58 282.946C346.624 282.846 346.677 282.738 346.72 282.613C346.839 282.317 346.936 282.014 347.009 281.705C347.103 281.332 347.171 280.953 347.211 280.571C347.237 280.186 347.237 279.799 347.211 279.413C347.189 279.1 347.148 278.788 347.088 278.48C347.07 278.359 347.043 278.239 347.009 278.122C347.009 278.013 346.966 277.93 346.948 277.855C346.918 277.78 346.9 277.702 346.895 277.622Z" fill="#263238"/>
<path d="M321.215 277.68C321.177 277.752 321.148 277.827 321.127 277.905C321.127 277.972 321.075 278.063 321.04 278.163C321.005 278.263 320.978 278.388 320.952 278.522C320.885 278.832 320.841 279.147 320.821 279.463C320.79 279.852 320.79 280.242 320.821 280.63C320.856 281.018 320.924 281.402 321.022 281.78C321.103 282.09 321.209 282.393 321.337 282.688C321.381 282.813 321.442 282.921 321.486 283.021C321.53 283.121 321.582 283.205 321.618 283.271L321.74 283.471C321.719 283.395 321.686 283.322 321.644 283.255C321.644 283.188 321.574 283.105 321.53 283.005C321.486 282.905 321.434 282.796 321.39 282.663C321.272 282.37 321.176 282.069 321.101 281.763C321.007 281.387 320.94 281.006 320.9 280.622C320.874 280.239 320.874 279.855 320.9 279.472C320.921 279.156 320.962 278.841 321.022 278.53C321.041 278.412 321.067 278.295 321.101 278.18C321.101 278.072 321.145 277.98 321.162 277.913C321.18 277.847 321.215 277.68 321.215 277.68Z" fill="#263238"/>
<path d="M323.552 293.796C323.552 293.796 326.774 290.804 333.508 290.804C340.241 290.804 343.691 293.796 343.691 293.796C340.652 295.54 337.17 296.463 333.622 296.463C330.073 296.463 326.591 295.54 323.552 293.796Z" fill="#B0BEC5"/>
<path d="M226.178 296.795H293.108C293.899 296.796 294.681 296.649 295.412 296.362C296.142 296.075 296.806 295.653 297.364 295.121C297.923 294.589 298.366 293.958 298.668 293.263C298.97 292.568 299.125 291.823 299.124 291.071V272.589L306.505 266.356H226.178C225.388 266.356 224.606 266.504 223.876 266.792C223.147 267.079 222.484 267.501 221.925 268.033C221.366 268.564 220.923 269.195 220.621 269.89C220.319 270.584 220.163 271.329 220.163 272.08V291.071C220.162 291.823 220.317 292.568 220.619 293.263C220.921 293.958 221.364 294.589 221.922 295.121C222.481 295.653 223.145 296.075 223.875 296.362C224.605 296.649 225.388 296.796 226.178 296.795Z" fill="#EBEBEB"/>
<path d="M226.178 325.702H293.108C293.899 325.702 294.682 325.553 295.412 325.265C296.143 324.977 296.806 324.555 297.365 324.022C297.924 323.49 298.366 322.858 298.668 322.162C298.97 321.467 299.125 320.721 299.124 319.969V313.844L306.505 307.611H226.178C225.388 307.611 224.606 307.759 223.876 308.047C223.147 308.335 222.483 308.756 221.925 309.288C221.366 309.82 220.923 310.451 220.621 311.145C220.319 311.84 220.163 312.584 220.163 313.336V320.002C220.17 321.516 220.807 322.966 221.934 324.034C223.062 325.102 224.588 325.702 226.178 325.702Z" fill="#EBEBEB"/>
<path d="M290.096 275.364C290.096 275.489 276.314 275.58 259.311 275.58C242.307 275.58 228.525 275.489 228.525 275.364C228.525 275.239 242.307 275.147 259.311 275.147C276.314 275.147 290.096 275.272 290.096 275.364Z" fill="white"/>
<path d="M290.096 280.363C290.096 280.48 276.314 280.58 259.311 280.58C242.307 280.58 228.525 280.48 228.525 280.363C228.525 280.247 242.307 280.147 259.311 280.147C276.314 280.147 290.096 280.222 290.096 280.363Z" fill="white"/>
<path d="M290.096 285.288C290.096 285.404 276.314 285.504 259.311 285.504C242.307 285.504 228.525 285.404 228.525 285.288C228.525 285.171 242.307 285.071 259.311 285.071C276.314 285.071 290.096 285.163 290.096 285.288Z" fill="white"/>
<path d="M290.096 290.238C290.096 290.354 276.314 290.454 259.311 290.454C242.307 290.454 228.525 290.354 228.525 290.238C228.525 290.121 242.307 290.021 259.311 290.021C276.314 290.021 290.096 290.113 290.096 290.238Z" fill="white"/>
<path d="M290.306 316.919C290.306 317.036 276.665 317.136 259.844 317.136C243.024 317.136 229.374 317.036 229.374 316.919C229.374 316.802 243.016 316.702 259.844 316.702C276.673 316.702 290.306 316.794 290.306 316.919Z" fill="white"/>
<path d="M66.331 304.853C67.5104 305.123 68.6201 305.618 69.5936 306.307C70.5671 306.995 71.3843 307.864 71.9961 308.861C73.2063 310.868 73.9219 313.111 74.0887 315.419C74.5353 319.852 72.9154 324.743 70.9016 328.752C66.3573 326.335 64.2471 320.96 63.354 318.169C61.9443 313.761 62.207 304.97 66.331 304.836" fill="#455A64"/>
<path d="M76.9431 335.018C76.4005 333.837 76.1957 332.54 76.3495 331.26C76.5032 329.98 77.0101 328.76 77.8187 327.727C78.6509 326.709 79.6883 325.859 80.8701 325.228C82.052 324.597 83.3543 324.197 84.7008 324.052C85.3051 323.927 85.9304 323.928 86.5346 324.053C87.1388 324.178 87.7077 324.425 88.2032 324.777C88.6059 325.184 88.8865 325.686 89.0159 326.231C89.1453 326.776 89.1186 327.345 88.9387 327.877C88.5667 328.937 87.9084 329.885 87.0299 330.626C84.1492 333.276 80.8482 335.334 76.8555 335.018" fill="#455A64"/>
<path d="M74.982 349.292C74.9303 348.989 74.9098 348.682 74.9208 348.375C74.9208 347.725 74.9208 346.884 74.8507 345.875C74.6723 343.112 74.9681 340.34 75.7263 337.668C76.5404 334.988 78.0909 332.563 80.2181 330.643C80.8694 330.073 81.5895 329.577 82.3633 329.168C82.5698 329.056 82.7832 328.956 83.0024 328.868C83.0748 328.826 83.1551 328.798 83.2388 328.785C82.219 329.368 81.2628 330.046 80.3844 330.81C78.3292 332.735 76.8226 335.127 76.0065 337.759C75.2531 340.402 74.9196 343.138 75.0171 345.875C75.0171 346.934 75.0171 347.784 75.0171 348.375C75.029 348.681 75.0173 348.987 74.982 349.292Z" fill="#263238"/>
<path d="M66.7511 311.569C66.8071 311.69 66.8511 311.816 66.8825 311.944C66.97 312.228 67.0751 312.594 67.1977 313.044C67.4691 314.003 67.8456 315.394 68.2834 317.119C69.159 320.569 70.3323 325.352 71.4881 330.651C72.6438 335.951 73.572 340.784 74.1936 344.284C74.5001 346.034 74.7365 347.45 74.8941 348.45C74.9641 348.917 75.0167 349.283 75.0605 349.583C75.0744 349.716 75.0744 349.85 75.0605 349.983C75.0152 349.855 74.98 349.725 74.9554 349.592C74.8941 349.3 74.824 348.933 74.7277 348.467C74.5263 347.459 74.2549 346.05 73.9222 344.342C73.2392 340.851 72.2761 336.009 71.1203 330.735C69.9645 325.46 68.8438 320.652 68.0207 317.194C67.6092 315.527 67.2765 314.103 67.0401 313.094C66.935 312.636 66.8474 312.261 66.7861 311.978C66.7579 311.843 66.7461 311.706 66.7511 311.569Z" fill="#263238"/>
<path d="M70.9015 338.992C69.8485 336.467 68.18 334.217 66.0334 332.426C63.8869 330.636 61.3239 329.356 58.5557 328.693C57.146 328.368 55.3948 328.327 54.5368 329.443C53.6787 330.56 54.2828 332.143 55.0796 333.301C56.7831 335.683 59.1873 337.533 61.9911 338.619C64.7948 339.706 67.8731 339.981 70.8402 339.409" fill="#455A64"/>
<path d="M60.0971 332.635C60.3935 332.67 60.6864 332.728 60.9727 332.81C61.3192 332.886 61.6612 332.981 61.9971 333.093C62.3824 333.226 62.8727 333.343 63.3192 333.551C63.7658 333.759 64.3349 333.959 64.869 334.243C65.4554 334.526 66.0227 334.843 66.5677 335.193C67.823 335.985 68.9778 336.914 70.0087 337.959C71.0197 339.019 71.9009 340.185 72.6355 341.434C72.9591 341.974 73.2514 342.53 73.5111 343.101C73.7353 343.601 73.9312 344.113 74.0977 344.634C74.2728 345.1 74.3429 345.55 74.448 345.934C74.5318 346.263 74.5961 346.597 74.6406 346.934C74.6942 347.209 74.7235 347.487 74.7282 347.767C74.6494 347.767 74.5093 346.55 73.8526 344.675C73.6792 344.168 73.4775 343.67 73.2484 343.184C72.9888 342.614 72.6965 342.057 72.3728 341.517C71.6301 340.296 70.7493 339.156 69.7461 338.118C68.7286 337.095 67.6017 336.176 66.3838 335.376C65.8059 335.026 65.263 334.684 64.7202 334.426C64.2297 334.161 63.724 333.921 63.2054 333.709C61.3404 332.976 60.0708 332.701 60.0971 332.635Z" fill="#263238"/>
<path d="M87.9229 88.4598L84.6833 78.8355C89.2911 71.7195 90.9354 63.2205 89.2928 55.0093C87.6503 46.798 82.8398 39.4684 75.8069 34.4613C68.774 29.4543 60.0274 27.1318 51.2865 27.9505C42.5455 28.7692 34.4426 32.6699 28.5703 38.8858C22.6981 45.1016 19.4813 53.1831 19.5524 61.5415C19.6235 69.8999 22.9773 77.9308 28.9545 84.0554C34.9317 90.18 43.0999 93.9553 51.8536 94.6393C60.6073 95.3232 69.3133 92.8663 76.2601 87.7516L87.9229 88.4598Z" fill="#FAFAFA"/>
<path d="M87.9231 88.4598H87.1876L84.9636 88.3515L76.2078 87.8932C76.1943 87.8933 76.1811 87.8907 76.1688 87.8855C76.1565 87.8804 76.1454 87.8729 76.1364 87.8635C76.1273 87.8541 76.1204 87.843 76.1161 87.8309C76.1118 87.8188 76.1102 87.8059 76.1114 87.7932C76.1076 87.7768 76.1076 87.7597 76.1114 87.7432L76.2515 87.8766C70.1675 92.3992 62.6858 94.8858 54.966 94.9511C53.0163 94.9412 51.0701 94.7935 49.1433 94.5094C40.1908 93.1759 32.1273 88.5985 26.6407 81.7353C23.585 77.8718 21.4326 73.4312 20.3277 68.7112C19.1271 63.6927 19.1751 58.4767 20.4678 53.4789C20.6342 52.8457 20.8093 52.204 20.9844 51.5707C21.1595 50.9375 21.4485 50.3208 21.6761 49.6959C21.898 49.0639 22.1552 48.4436 22.4467 47.8377C22.7444 47.2377 23.0508 46.6378 23.3222 46.0295C23.6235 45.4214 23.9688 44.8339 24.3554 44.2713L25.4674 42.538L26.7458 40.8715L27.3937 40.0382C27.6126 39.7716 27.8665 39.5299 28.103 39.2716C31.8894 35.1285 36.6928 31.9398 42.0861 29.9889C47.2205 28.1271 52.7339 27.406 58.2057 27.8807C63.3472 28.3672 68.3129 29.9263 72.7492 32.4471C80.6331 36.9032 86.3835 44.1062 88.7812 52.529C89.2877 54.3337 89.6507 56.1721 89.8669 58.0286C90.0072 59.7641 90.0393 61.5059 89.9632 63.2449C89.6277 68.7871 87.8397 74.1612 84.7622 78.8772V78.8022C85.7954 81.9353 86.5835 84.3518 87.1263 86.0017C87.389 86.835 87.5816 87.4099 87.7217 87.8349L87.9144 88.4515C87.9144 88.4515 87.8268 88.2265 87.678 87.8099L87.0388 85.9684C86.4784 84.3018 85.6466 81.952 84.5784 78.8605C84.569 78.8363 84.569 78.8097 84.5784 78.7855C87.5979 74.0802 89.3401 68.7339 89.648 63.2283C89.7152 61.5054 89.6743 59.7802 89.5254 58.062C89.3068 56.2216 88.9409 54.3997 88.431 52.6123C86.5529 46.1283 82.6576 40.3367 77.2568 35.9985C71.8561 31.6603 65.2026 28.9786 58.1706 28.3057C52.7678 27.8351 47.3234 28.5448 42.2525 30.3806C36.9411 32.3147 32.2111 35.4626 28.4795 39.5466C28.2518 39.8049 27.9979 40.0382 27.779 40.3049L27.1398 41.1381L25.879 42.7464L24.7932 44.4629C24.408 45.0235 24.0628 45.6081 23.76 46.2128C23.4623 46.8044 23.1646 47.4044 22.8845 47.996C22.5988 48.5937 22.3474 49.2056 22.1314 49.8292C21.9038 50.4458 21.6324 51.0541 21.4397 51.6791C21.2471 52.304 21.0983 52.9373 20.9319 53.5623C19.6623 58.4832 19.6083 63.6172 20.7743 68.5612C22.2915 75.0538 25.8229 80.9629 30.9109 85.5227C35.9989 90.0825 42.4087 93.0827 49.3097 94.1345C51.2189 94.4198 53.1473 94.573 55.0798 94.5928C56.8837 94.5855 58.6842 94.4434 60.4647 94.1678C66.2016 93.2783 71.617 91.0479 76.2253 87.6766C76.2343 87.6675 76.2451 87.6603 76.2572 87.6553C76.2692 87.6504 76.2822 87.6478 76.2953 87.6478C76.3084 87.6478 76.3214 87.6504 76.3335 87.6553C76.3455 87.6603 76.3564 87.6675 76.3654 87.6766C76.3782 87.6936 76.3851 87.714 76.3851 87.7349C76.3851 87.7558 76.3782 87.7762 76.3654 87.7932L76.2953 87.6432L84.9461 88.2099L87.1876 88.3599L87.9231 88.4598Z" fill="#263238"/>
<path d="M44.8792 61.3284C44.8792 61.9992 44.6702 62.6549 44.2787 63.2126C43.8871 63.7703 43.3305 64.205 42.6793 64.4617C42.0282 64.7184 41.3116 64.7855 40.6204 64.6547C39.9291 64.5238 39.2941 64.2008 38.7957 63.7265C38.2973 63.2522 37.9579 62.6479 37.8204 61.99C37.6829 61.3322 37.7535 60.6503 38.0232 60.0306C38.2929 59.4109 38.7497 58.8812 39.3357 58.5085C39.9218 58.1359 40.6108 57.937 41.3156 57.937C42.26 57.9392 43.1651 58.2972 43.8329 58.9327C44.5007 59.5683 44.8769 60.4296 44.8792 61.3284Z" fill="#263238"/>
<path d="M59.1512 61.3284C59.1512 61.9992 58.9422 62.6549 58.5506 63.2126C58.1591 63.7703 57.6025 64.205 56.9513 64.4617C56.3001 64.7184 55.5836 64.7855 54.8923 64.6547C54.2011 64.5238 53.5661 64.2008 53.0677 63.7265C52.5693 63.2522 52.2299 62.6479 52.0924 61.99C51.9549 61.3322 52.0255 60.6503 52.2952 60.0306C52.5649 59.4109 53.0217 58.8812 53.6077 58.5085C54.1938 58.1359 54.8827 57.937 55.5876 57.937C56.532 57.9392 57.4371 58.2972 58.1049 58.9327C58.7727 59.5683 59.1489 60.4296 59.1512 61.3284Z" fill="#263238"/>
<path d="M73.388 59.6368C73.7394 60.2178 73.902 60.8847 73.8553 61.5535C73.8086 62.2223 73.5547 62.8629 73.1257 63.3945C72.6967 63.926 72.1118 64.3247 71.4449 64.5401C70.778 64.7556 70.0589 64.7781 69.3786 64.6049C68.6982 64.4317 68.087 64.0705 67.6222 63.567C67.1574 63.0634 66.8598 62.4401 66.7669 61.7757C66.6741 61.1113 66.7902 60.4356 67.1006 59.8339C67.4111 59.2323 67.9018 58.7316 68.511 58.3953C68.9167 58.1713 69.3649 58.0257 69.8298 57.9668C70.2947 57.908 70.7673 57.9371 71.2204 58.0524C71.6735 58.1678 72.0982 58.3671 72.4702 58.639C72.8422 58.9109 73.1541 59.25 73.388 59.6368Z" fill="#263238"/>
<path d="M74.8068 211.201L37.927 207.568L22.3065 173.829L10.1709 176.837C10.1709 176.837 19.1369 212.493 29.1712 218.018C39.2054 223.542 73.4847 224.534 73.4847 224.534L74.8068 211.201Z" fill="#B0BEC5"/>
<path d="M94.4128 228.362C100.414 221.936 99.8049 212.098 93.0531 206.387C86.3013 200.676 75.9631 201.255 69.9622 207.681C63.9614 214.106 64.5701 223.945 71.322 229.656C78.0738 235.367 88.4119 234.787 94.4128 228.362Z" fill="#263238"/>
<path d="M82.1879 233.6C78.3978 233.6 74.7249 232.349 71.7951 230.061C68.8653 227.773 66.8599 224.588 66.1205 221.051C65.3811 217.513 65.9534 213.841 67.7401 210.66C69.5268 207.479 72.4171 204.986 75.9188 203.605C79.4204 202.225 83.3166 202.043 86.9435 203.09C90.5704 204.137 93.7036 206.348 95.8093 209.348C97.915 212.347 98.8628 215.948 98.4913 219.537C98.1198 223.127 96.4519 226.483 93.7719 229.033C92.2541 230.486 90.4488 231.637 88.4604 232.421C86.4721 233.204 84.3401 233.605 82.1879 233.6ZM82.1879 202.469C78.408 202.465 74.7436 203.709 71.8192 205.988C68.8948 208.267 66.8912 211.441 66.1499 214.968C65.4086 218.495 65.9753 222.158 67.7537 225.333C69.532 228.507 72.4118 230.996 75.9025 232.376C79.3931 233.757 83.2786 233.942 86.897 232.902C90.5154 231.861 93.6427 229.659 95.7461 226.67C97.8495 223.681 98.799 220.091 98.4326 216.51C98.0662 212.93 96.4067 209.581 93.7369 207.035C92.2247 205.585 90.4254 204.435 88.443 203.651C86.4606 202.867 84.3346 202.465 82.1879 202.469Z" fill="#263238"/>
<path d="M34.6207 220.683C41.2084 219.178 45.2667 212.875 43.6851 206.606C42.1035 200.337 35.4811 196.474 28.8934 197.98C22.3057 199.485 18.2474 205.787 19.829 212.057C21.4106 218.326 28.033 222.188 34.6207 220.683Z" fill="#263238"/>
<path d="M22.4421 176.557C26.3573 172.831 26.3573 166.79 22.4421 163.064C18.5269 159.338 12.1791 159.338 8.26389 163.064C4.3487 166.79 4.34869 172.831 8.26389 176.557C12.1791 180.283 18.5269 180.283 22.4421 176.557Z" fill="#263238"/>
<path d="M30.9792 164.647L22.7241 171.281L19.747 167.926L28.002 161.292C28.4367 160.942 28.9994 160.772 29.5663 160.817C30.1333 160.863 30.658 161.121 31.0251 161.534L31.2284 161.764C31.4116 161.968 31.5504 162.205 31.637 162.461C31.7236 162.717 31.7563 162.987 31.7331 163.254C31.7099 163.522 31.6314 163.783 31.502 164.022C31.3727 164.261 31.195 164.473 30.9792 164.647Z" fill="#263238"/>
<path d="M20.4941 152.497V162.496C20.4941 162.574 20.4619 162.648 20.4044 162.703C20.3469 162.757 20.269 162.788 20.1877 162.788H16.195C16.1137 162.788 16.0358 162.757 15.9783 162.703C15.9208 162.648 15.8886 162.574 15.8886 162.496V152.497C15.8886 151.956 16.1146 151.436 16.5169 151.054C16.9192 150.671 17.4648 150.456 18.0337 150.456H18.349C18.9179 150.456 19.4635 150.671 19.8658 151.054C20.2681 151.436 20.4941 151.956 20.4941 152.497Z" fill="#263238"/>
<path d="M13.0591 152.535L15.353 162.293C15.3707 162.368 15.3562 162.448 15.3127 162.513C15.2692 162.578 15.2001 162.624 15.1208 162.641L11.2244 163.471C11.1451 163.488 11.062 163.474 10.9934 163.432C10.9247 163.391 10.8762 163.325 10.8585 163.25L8.56465 153.492C8.44044 152.963 8.54188 152.41 8.84665 151.952C9.15142 151.495 9.63455 151.172 10.1898 151.054L10.4974 150.988C11.0526 150.87 11.6344 150.967 12.1148 151.257C12.5953 151.547 12.9349 152.007 13.0591 152.535Z" fill="#263238"/>
<path d="M5.06136 154.98L10.3149 163.64C10.3555 163.707 10.3665 163.787 10.3455 163.861C10.3245 163.936 10.2731 164 10.2027 164.038L6.74496 165.938C6.67457 165.977 6.59092 165.987 6.51241 165.967C6.43391 165.947 6.36696 165.898 6.32633 165.831L1.0728 157.172C0.788327 156.703 0.711241 156.146 0.858493 155.623C1.00575 155.1 1.36528 154.654 1.858 154.383L2.13098 154.233C2.6237 153.962 3.20924 153.889 3.75879 154.029C4.30834 154.169 4.77689 154.511 5.06136 154.98Z" fill="#263238"/>
<path d="M235.091 298.604L246.129 294.136L214.277 222.861L203.238 227.329L235.091 298.604Z" fill="#B0BEC5"/>
<path d="M215.859 229.672C221.698 223.113 220.844 213.291 213.952 207.734C207.059 202.177 196.738 202.99 190.9 209.549C185.061 216.109 185.915 225.931 192.807 231.487C199.699 237.044 210.02 236.231 215.859 229.672Z" fill="#263238"/>
<path d="M203.413 235.233C200.847 235.234 198.317 234.662 196.026 233.563C193.734 232.463 191.746 230.867 190.222 228.903C188.697 226.939 187.678 224.661 187.247 222.254C186.816 219.847 186.985 217.377 187.74 215.043C188.636 212.29 190.316 209.827 192.594 207.929C194.871 206.03 197.658 204.77 200.643 204.288C203.629 203.806 206.696 204.121 209.504 205.199C212.312 206.277 214.752 208.074 216.551 210.392C218.35 212.71 219.439 215.457 219.696 218.328C219.953 221.199 219.368 224.082 218.007 226.656C216.646 229.23 214.561 231.395 211.985 232.909C209.408 234.423 206.441 235.227 203.413 235.233ZM203.413 204.085C200.39 204.088 197.428 204.889 194.855 206.399C192.282 207.909 190.199 210.068 188.839 212.637C187.479 215.207 186.894 218.084 187.15 220.951C187.406 223.817 188.493 226.56 190.289 228.874C192.085 231.187 194.521 232.982 197.325 234.057C200.129 235.132 203.191 235.445 206.171 234.963C209.151 234.48 211.932 233.22 214.204 231.323C216.477 229.426 218.152 226.966 219.043 224.217C220.314 220.278 219.892 216.019 217.868 212.376C215.844 208.733 212.383 206.003 208.247 204.785C206.664 204.319 205.017 204.083 203.361 204.085H203.413Z" fill="#263238"/>
<path d="M236.496 266.15C238.31 259.938 234.489 253.503 227.961 251.777C221.434 250.051 214.672 253.687 212.858 259.899C211.044 266.111 214.865 272.547 221.392 274.273C227.92 275.999 234.682 272.363 236.496 266.15Z" fill="#263238"/>
<path d="M243.173 308.903C248.71 308.903 253.199 304.631 253.199 299.362C253.199 294.093 248.71 289.821 243.173 289.821C237.637 289.821 233.148 294.093 233.148 299.362C233.148 304.631 237.637 308.903 243.173 308.903Z" fill="#263238"/>
<path d="M230.061 308.97L235.675 300.204L239.615 302.489L234.001 311.256C233.705 311.718 233.228 312.049 232.675 312.177C232.122 312.305 231.539 312.218 231.053 311.936L230.784 311.78C230.542 311.641 230.331 311.458 230.164 311.242C229.997 311.025 229.876 310.779 229.809 310.518C229.742 310.257 229.729 309.986 229.773 309.72C229.816 309.455 229.914 309.2 230.061 308.97Z" fill="#263238"/>
<path d="M244.038 317.331L240.711 307.846C240.686 307.773 240.692 307.693 240.728 307.624C240.764 307.554 240.828 307.502 240.905 307.477L244.692 306.274C244.769 306.25 244.854 306.255 244.926 306.29C244.999 306.324 245.054 306.385 245.08 306.458L248.407 315.943C248.493 316.199 248.525 316.468 248.502 316.735C248.479 317.002 248.4 317.262 248.271 317.501C248.142 317.739 247.965 317.951 247.75 318.124C247.535 318.297 247.287 318.429 247.018 318.51L246.719 318.605C246.186 318.768 245.607 318.726 245.106 318.488C244.605 318.249 244.222 317.834 244.038 317.331Z" fill="#263238"/>
<path d="M251.086 315.058L245.663 306.493C245.642 306.46 245.629 306.424 245.623 306.386C245.617 306.348 245.619 306.31 245.628 306.273C245.638 306.235 245.655 306.2 245.679 306.17C245.703 306.139 245.733 306.113 245.768 306.093L249.187 304.132C249.222 304.112 249.26 304.099 249.3 304.093C249.34 304.088 249.38 304.089 249.419 304.099C249.458 304.108 249.495 304.124 249.528 304.147C249.56 304.17 249.587 304.198 249.608 304.231L255.031 312.796C255.324 313.26 255.412 313.816 255.275 314.341C255.138 314.867 254.788 315.319 254.3 315.598L254.03 315.753C253.543 316.032 252.959 316.116 252.407 315.986C251.855 315.856 251.379 315.522 251.086 315.058Z" fill="#263238"/>
<path d="M257.854 310.336L249.99 303.705C249.929 303.653 249.892 303.581 249.887 303.504C249.882 303.427 249.91 303.351 249.964 303.293L252.606 300.455C252.659 300.397 252.735 300.362 252.816 300.357C252.898 300.353 252.977 300.379 253.038 300.43L260.903 307.061C261.328 307.42 261.587 307.926 261.621 308.466C261.656 309.007 261.463 309.538 261.086 309.943L260.877 310.168C260.499 310.57 259.968 310.814 259.402 310.846C258.835 310.877 258.279 310.694 257.854 310.336Z" fill="#263238"/>
<path d="M77.3286 201.819C77.3286 201.819 78.5107 311.094 142.945 313.228C207.38 315.361 210.085 202.602 210.085 201.819C210.085 201.819 202.476 185.528 143.707 186.161C84.9375 186.795 77.3286 201.819 77.3286 201.819Z" fill="#B0BEC5"/>
<path d="M113.508 182.587H167.969C171.523 182.587 174.405 179.845 174.405 176.462V175.57C174.405 172.188 171.523 169.446 167.969 169.446H113.508C109.953 169.446 107.072 172.188 107.072 175.57V176.462C107.072 179.845 109.953 182.587 113.508 182.587Z" fill="#263238"/>
<path d="M138.392 85.4184H143.094V62.795H138.392V85.4184Z" fill="#263238"/>
<path d="M212.636 152.77C220.06 151.09 224.648 144.001 222.884 136.936C221.119 129.871 213.67 125.505 206.247 127.184C198.823 128.863 194.235 135.952 195.999 143.017C197.764 150.083 205.212 154.449 212.636 152.77Z" fill="#B0BEC5"/>
<path d="M73.0262 151.916C80.468 150.309 85.1323 143.266 83.4443 136.184C81.7563 129.101 74.3552 124.662 66.9135 126.269C59.4717 127.875 54.8074 134.919 56.4954 142.001C58.1833 149.083 65.5845 153.522 73.0262 151.916Z" fill="#B0BEC5"/>
<path d="M138.006 80.5104C138.006 80.5104 81.8286 79.8688 72.9502 126.207C64.0717 172.546 111.564 173.379 125.232 174.254C131.422 174.654 144.678 174.696 156.376 174.496C182.276 174.071 200.576 169.304 206.801 146.439C207.543 143.758 208.009 141.015 208.193 138.248C209.831 113.15 192.03 79.2771 138.006 80.5104Z" fill="#B0BEC5"/>
<path d="M178.756 151.039L97.1427 152.247C95.1064 152.281 93.083 151.933 91.1883 151.222C89.2936 150.511 87.5648 149.452 86.1009 148.104C84.637 146.757 83.4667 145.148 82.657 143.369C81.8473 141.591 81.4141 139.678 81.3821 137.74C81.3474 135.801 81.7145 133.876 82.4624 132.072C83.2104 130.269 84.3245 128.624 85.7412 127.231C87.1578 125.838 88.8491 124.724 90.7183 123.954C92.5876 123.183 94.5981 122.771 96.6349 122.741L178.248 121.533C180.285 121.497 182.309 121.845 184.204 122.555C186.099 123.266 187.829 124.325 189.293 125.673C190.757 127.021 191.927 128.63 192.737 130.409C193.546 132.188 193.978 134.102 194.009 136.04C194.045 137.978 193.679 139.905 192.931 141.708C192.184 143.512 191.069 145.158 189.653 146.551C188.236 147.944 186.544 149.058 184.674 149.828C182.804 150.598 180.793 151.01 178.756 151.039Z" fill="#263238"/>
<path d="M114.103 136.132C113.913 137.05 113.442 137.894 112.748 138.557C112.054 139.221 111.169 139.673 110.205 139.858C109.24 140.043 108.24 139.951 107.331 139.595C106.421 139.239 105.643 138.634 105.095 137.857C104.546 137.08 104.252 136.166 104.25 135.23C104.248 134.294 104.537 133.378 105.081 132.599C105.625 131.819 106.4 131.211 107.308 130.85C108.216 130.49 109.215 130.393 110.181 130.574C110.822 130.693 111.432 130.932 111.976 131.276C112.52 131.62 112.988 132.063 113.352 132.579C113.716 133.095 113.97 133.675 114.099 134.284C114.228 134.894 114.229 135.521 114.103 136.132Z" fill="white"/>
<path d="M171.095 135.265C170.907 136.184 170.436 137.029 169.743 137.694C169.05 138.359 168.165 138.812 167.201 138.998C166.236 139.184 165.236 139.094 164.325 138.738C163.415 138.383 162.636 137.778 162.087 137.001C161.538 136.224 161.243 135.31 161.24 134.373C161.237 133.437 161.526 132.521 162.071 131.741C162.615 130.961 163.391 130.352 164.299 129.991C165.207 129.631 166.207 129.535 167.172 129.715C168.465 129.957 169.605 130.677 170.34 131.718C171.076 132.758 171.347 134.034 171.095 135.265Z" fill="white"/>
<path d="M162.891 245.216C162.571 249.386 160.959 253.372 158.259 256.67C155.559 259.968 151.892 262.43 147.721 263.744C143.551 265.059 139.064 265.167 134.829 264.056C130.594 262.944 126.8 260.662 123.928 257.498C121.056 254.335 119.233 250.432 118.692 246.283C118.15 242.134 118.914 237.925 120.885 234.189C122.857 230.452 125.949 227.356 129.769 225.292C133.59 223.228 137.968 222.289 142.35 222.592C148.225 223.002 153.69 225.615 157.541 229.857C161.393 234.099 163.317 239.624 162.891 245.216Z" fill="#263238"/>
<path d="M156.876 244.799C156.642 247.838 155.467 250.743 153.498 253.147C151.529 255.55 148.856 257.344 145.816 258.301C142.776 259.259 139.506 259.337 136.42 258.526C133.333 257.715 130.569 256.051 128.476 253.745C126.383 251.438 125.056 248.593 124.662 245.569C124.269 242.545 124.826 239.477 126.264 236.755C127.702 234.032 129.957 231.776 132.742 230.273C135.527 228.769 138.718 228.086 141.912 228.308C144.033 228.455 146.102 228.998 148.002 229.907C149.902 230.815 151.595 232.071 152.985 233.602C154.375 235.134 155.434 236.911 156.101 238.832C156.769 240.753 157.032 242.781 156.876 244.799Z" fill="white"/>
<path d="M149.074 247.599C148.95 246.757 148.901 245.907 148.925 245.057C148.881 243.466 148.846 241.191 148.846 238.391L149.022 238.699L140.695 234.075H141.159L132.753 238.566C132.525 238.933 133.06 238.074 133.007 238.166V239.349V240.541C133.007 241.324 133.007 242.108 132.963 242.874C132.963 244.407 132.902 245.891 132.876 247.324L132.648 246.941L140.879 251.724H140.511C143.076 250.407 145.195 249.357 146.64 248.64C147.417 248.219 148.228 247.857 149.065 247.557C148.412 248.063 147.708 248.507 146.964 248.882C145.545 249.715 143.462 250.89 140.835 252.332L140.651 252.432L140.467 252.332L132.131 247.707L131.904 247.582V247.315C131.904 245.882 131.921 244.399 131.956 242.866C131.956 242.099 131.956 241.324 131.956 240.533V239.349V238.199C131.904 238.291 132.438 237.441 132.21 237.799L140.642 233.35L140.887 233.225L141.115 233.358L149.337 238.141L149.521 238.249V238.449C149.424 241.333 149.328 243.649 149.24 245.224C149.263 246.019 149.207 246.814 149.074 247.599Z" fill="#B0BEC5"/>
<path d="M146.227 67.5511C149.253 64.6712 149.253 60.0019 146.227 57.122C143.201 54.2421 138.295 54.2421 135.268 57.122C132.242 60.002 132.242 64.6712 135.268 67.5511C138.295 70.431 143.201 70.431 146.227 67.5511Z" fill="#B0BEC5"/>
<path d="M128.366 133.948C128.734 133.99 128.55 135.615 129.636 137.84C130.251 139.117 131.147 140.253 132.263 141.173C133.571 142.268 135.199 142.957 136.929 143.148C138.669 143.255 140.402 142.86 141.903 142.014C143.173 141.312 144.271 140.36 145.125 139.223C146.613 137.248 146.745 135.59 147.113 135.615C147.261 135.615 147.41 136.032 147.41 136.815C147.377 137.931 147.078 139.025 146.535 140.015C145.719 141.51 144.513 142.782 143.032 143.706C141.202 144.933 138.972 145.501 136.742 145.307C134.513 145.113 132.428 144.171 130.862 142.648C129.583 141.484 128.642 140.026 128.13 138.415C127.765 137.34 127.669 136.198 127.85 135.082C127.998 134.307 128.226 133.923 128.366 133.948Z" fill="white"/>
<path d="M203.168 155.539C203.08 155.539 204.087 154.039 205.059 151.414C206.268 147.976 207.032 144.411 207.336 140.798C207.686 137.197 207.774 133.578 207.598 129.965C207.537 128.574 207.467 127.465 207.397 126.632C207.338 126.229 207.323 125.821 207.353 125.416C207.465 125.808 207.539 126.21 207.572 126.616C207.695 127.39 207.817 128.515 207.922 129.949C208.197 133.59 208.153 137.247 207.791 140.881C207.483 144.529 206.667 148.121 205.366 151.564C204.954 152.602 204.456 153.608 203.877 154.572C203.67 154.913 203.433 155.236 203.168 155.539Z" fill="#263238"/>
<path d="M73.0554 124.657C73.0058 125.062 72.9149 125.461 72.784 125.849C72.6701 126.224 72.5476 126.682 72.4337 127.232C72.3199 127.782 72.1448 128.382 72.0397 129.074C71.7327 130.68 71.5281 132.302 71.4268 133.932C71.309 135.926 71.3383 137.925 71.5144 139.915C71.71 141.901 72.0494 143.872 72.53 145.814C72.932 147.403 73.435 148.967 74.0361 150.497C74.2725 151.156 74.5439 151.73 74.7628 152.247C74.9817 152.764 75.1918 153.197 75.3669 153.547C75.5666 153.907 75.7307 154.283 75.8573 154.672C75.6081 154.342 75.3912 153.99 75.2093 153.622C74.9618 153.205 74.7368 152.777 74.5351 152.339C74.29 151.839 73.9923 151.264 73.7384 150.606C73.0883 149.079 72.55 147.511 72.1273 145.914C71.6149 143.954 71.2578 141.959 71.0591 139.948C70.8806 137.938 70.8631 135.919 71.0065 133.907C71.1286 132.263 71.3685 130.628 71.7245 129.015C71.8558 128.324 72.0397 127.715 72.1886 127.174C72.3374 126.632 72.4775 126.174 72.6088 125.799C72.7249 125.408 72.8743 125.026 73.0554 124.657Z" fill="#263238"/>
<path d="M77.0308 201.727L77.3635 201.819L78.3441 202.135L82.0741 203.385L84.771 204.302C85.7604 204.618 86.8549 204.918 88.0194 205.26C90.3572 205.918 92.9927 206.777 95.9872 207.443L100.654 208.585C102.283 208.976 103.999 209.268 105.768 209.635C109.27 210.401 113.114 210.926 117.15 211.543C125.879 212.683 134.677 213.281 143.488 213.335C152.299 213.285 161.097 212.687 169.826 211.543C173.836 210.926 177.653 210.41 181.208 209.635C182.959 209.276 184.711 208.985 186.322 208.593L190.997 207.452C193.983 206.785 196.619 205.927 198.956 205.268C200.121 204.927 201.215 204.627 202.205 204.31L204.902 203.394L208.632 202.144L209.612 201.827C209.723 201.786 209.837 201.755 209.954 201.735L209.63 201.869L208.667 202.227L204.963 203.552L202.205 204.535C201.224 204.86 200.13 205.168 198.965 205.527C196.627 206.21 194.001 207.085 191.006 207.777L186.33 208.943C184.711 209.343 182.986 209.643 181.217 210.018C177.715 210.801 173.862 211.335 169.834 211.968C161.087 213.136 152.268 213.746 143.435 213.793C134.606 213.739 125.789 213.127 117.045 211.96C113.026 211.335 109.165 210.793 105.662 210.01C103.911 209.635 102.16 209.335 100.549 208.935L95.8734 207.768C92.8789 207.077 90.2521 206.202 87.9143 205.518C86.7498 205.16 85.6641 204.852 84.6746 204.527L81.9866 203.569L78.2828 202.244L77.3197 201.885C77.2183 201.841 77.1216 201.788 77.0308 201.727Z" fill="#263238"/>
<g opacity="0.3">
<path d="M77.3286 201.819C77.3286 201.819 84.9375 186.82 143.707 186.161C202.476 185.503 210.085 201.819 210.085 201.819C210.085 201.819 150.773 229.642 77.3286 201.819Z" fill="black"/>
</g>
<path d="M130.888 83.9768C130.821 83.9829 130.754 83.9829 130.687 83.9768L130.1 84.0351C129.575 84.0851 128.804 84.1018 127.815 84.2101C125.023 84.468 122.253 84.905 119.523 85.5184C105.404 88.5957 92.9503 96.4713 84.4996 107.667C80.4169 113.047 77.3257 119.049 75.3585 125.416C75.052 126.316 74.8857 127.032 74.7368 127.507L74.5705 128.057C74.5547 128.121 74.5312 128.182 74.5004 128.24C74.4888 128.177 74.4888 128.112 74.5004 128.049C74.5004 127.899 74.5705 127.715 74.623 127.49C74.7456 127.007 74.8769 126.282 75.1571 125.366C75.8879 122.777 76.8246 120.245 77.959 117.791C81.7016 109.637 87.3992 102.432 94.5952 96.7509C101.822 91.1131 110.335 87.1635 119.453 85.2184C122.199 84.6246 124.989 84.2319 127.797 84.0435C128.796 83.9601 129.549 83.9685 130.091 83.9435H130.687C130.827 83.9601 130.888 83.9685 130.888 83.9768Z" fill="white"/>
<path d="M75.9272 148.122C75.5763 147.606 75.305 147.045 75.1216 146.456C74.083 143.671 73.599 140.727 73.6944 137.773C73.6694 137.16 73.7463 136.547 73.9221 135.957C74.0622 135.957 73.8695 138.74 74.4299 142.106C74.9903 145.473 76.0585 148.072 75.9272 148.122Z" fill="white"/>
<path d="M61.1914 143.814C61.1914 143.814 60.99 143.681 60.7186 143.364C60.3317 142.916 59.9997 142.426 59.7292 141.906C58.7941 140.184 58.4364 138.23 58.7041 136.308C58.9718 134.386 59.8521 132.588 61.2264 131.157C61.629 130.719 62.0845 130.327 62.5836 129.99C62.755 129.853 62.9507 129.746 63.1615 129.674C63.214 129.74 62.426 130.249 61.4716 131.34C60.219 132.768 59.4176 134.504 59.1603 136.348C58.903 138.192 59.2005 140.067 60.0181 141.756C60.631 143.081 61.2527 143.764 61.1914 143.814Z" fill="white"/>
<path d="M141.246 57.1953C140.563 57.1238 139.874 57.1098 139.189 57.1537C138.372 57.2219 137.583 57.4672 136.881 57.8708C136.179 58.2744 135.584 58.8256 135.141 59.4821C134.698 60.1385 134.419 60.8828 134.326 61.6579C134.232 62.4329 134.326 63.2181 134.601 63.9532C134.837 64.5629 135.13 65.1513 135.476 65.7114C135.476 65.7114 135.301 65.6114 135.056 65.3448C134.719 64.959 134.453 64.5225 134.268 64.0532C133.934 63.2751 133.802 62.4318 133.882 61.5948C133.963 60.7578 134.255 59.9516 134.733 59.2446C135.21 58.5375 135.86 57.9503 136.626 57.5327C137.393 57.1151 138.254 56.8793 139.136 56.8454C139.66 56.8108 140.187 56.8586 140.695 56.987C141.089 57.0454 141.246 57.1703 141.246 57.1953Z" fill="white"/>
<path d="M217.562 133.707C217.466 133.807 216.109 132.565 214.06 131.632C212.011 130.699 210.146 130.424 210.164 130.29C211.591 130.256 213.002 130.584 214.253 131.24C215.569 131.764 216.712 132.616 217.562 133.707Z" fill="white"/>
<path d="M97.4671 279.588C97.4272 279.539 97.392 279.486 97.362 279.43L97.0731 278.938C96.8104 278.463 96.4602 277.83 96.0049 277.022C95.7772 276.605 95.5321 276.138 95.2519 275.638L94.4288 273.972C93.8334 272.764 93.168 271.389 92.5113 269.806C92.1785 269.031 91.8283 268.214 91.4606 267.372C91.0928 266.531 90.7776 265.614 90.4186 264.689C89.6656 262.848 89.0264 260.823 88.2822 258.723C86.9075 254.473 85.5591 249.765 84.3771 244.766C83.195 239.766 82.3369 234.941 81.6365 230.55C80.936 226.159 80.4807 222.217 80.2005 218.834C80.0341 217.168 79.9291 215.651 79.8415 214.318C79.754 212.985 79.6752 211.818 79.6489 210.901C79.6226 209.985 79.5964 209.276 79.5701 208.743V208.185C79.5606 208.121 79.5606 208.057 79.5701 207.993C79.5802 208.057 79.5802 208.121 79.5701 208.185L79.6226 208.743C79.6226 209.268 79.7189 209.993 79.7802 210.893C79.8415 211.793 79.9291 212.976 80.0517 214.301C80.1742 215.626 80.2881 217.143 80.4807 218.809C80.7959 222.142 81.3563 226.109 82.013 230.475C82.6697 234.841 83.6241 239.641 84.7798 244.641C85.9356 249.64 87.2928 254.34 88.6324 258.581C89.3767 260.681 89.9983 262.698 90.7338 264.539C91.0841 265.473 91.4168 266.364 91.7495 267.222L92.7652 269.672C93.3956 271.23 94.0436 272.614 94.6214 273.839L95.4095 275.505C95.6634 276.013 95.9086 276.48 96.1275 276.905L97.1081 278.855L97.3533 279.363C97.4063 279.43 97.445 279.507 97.4671 279.588Z" fill="white"/>
<path d="M63.205 211.651C61.0688 211.728 58.9296 211.656 56.8045 211.435C54.6694 211.363 52.5423 211.149 50.439 210.793C52.5752 210.716 54.7144 210.788 56.8395 211.01C58.9746 211.08 61.1018 211.295 63.205 211.651Z" fill="white"/>
<path d="M30.2653 193.861C29.0235 192.139 27.9088 190.338 26.9293 188.47C25.8193 186.67 24.8421 184.799 24.0049 182.87C25.2429 184.595 26.3546 186.399 27.3321 188.27C28.4479 190.065 29.4281 191.933 30.2653 193.861Z" fill="white"/>
<path d="M128.55 305.861C128.205 305.855 127.862 305.816 127.526 305.745C126.599 305.588 125.684 305.376 124.785 305.111C123.45 304.725 122.145 304.248 120.88 303.687C119.339 302.98 117.858 302.16 116.45 301.237C115.057 300.29 113.745 299.239 112.527 298.095C111.54 297.155 110.627 296.146 109.795 295.079C109.225 294.366 108.707 293.617 108.245 292.837C108.056 292.563 107.901 292.27 107.781 291.962C107.851 291.921 108.587 293.129 110.049 294.895C110.909 295.922 111.836 296.897 112.825 297.812C115.248 300.053 118.029 301.914 121.064 303.328C122.304 303.898 123.579 304.396 124.881 304.82C127.123 305.536 128.568 305.778 128.55 305.861Z" fill="white"/>
<path d="M141.982 267.314C141.779 267.348 141.575 267.367 141.369 267.372C140.787 267.419 140.202 267.436 139.618 267.422C137.441 267.377 135.281 267.043 133.2 266.431C131.762 266.005 130.363 265.47 129.015 264.831C127.469 264.074 126.003 263.179 124.637 262.156C121.472 259.842 118.977 256.8 117.387 253.317C115.797 249.833 115.164 246.021 115.548 242.241C115.691 240.6 115.999 238.976 116.467 237.391C116.887 236.017 117.429 234.678 118.087 233.391C119.037 231.525 120.257 229.794 121.712 228.25C122.102 227.828 122.517 227.427 122.955 227.05C123.1 226.912 123.255 226.784 123.42 226.667C123.42 226.667 122.842 227.259 121.843 228.333C120.442 229.901 119.265 231.639 118.341 233.5C116.964 236.243 116.144 239.208 115.924 242.241C115.57 245.954 116.201 249.693 117.762 253.114C119.323 256.534 121.762 259.526 124.855 261.814C126.182 262.83 127.606 263.723 129.111 264.481C130.429 265.143 131.803 265.7 133.217 266.148C135.267 266.78 137.396 267.153 139.548 267.256C141.133 267.314 141.982 267.264 141.982 267.314Z" fill="white"/>
<path d="M35.9744 201.694C35.9744 201.76 35.3002 201.452 34.2232 201.21C32.7821 200.91 31.2883 200.924 29.8537 201.252C28.4192 201.58 27.0812 202.212 25.9402 203.102C25.0646 203.794 24.6443 204.343 24.583 204.302C24.8233 203.75 25.195 203.26 25.6687 202.869C26.8051 201.876 28.1889 201.176 29.6889 200.835C31.1889 200.494 32.7557 200.523 34.2407 200.919C34.8736 201.047 35.4669 201.312 35.9744 201.694Z" fill="white"/>
<path d="M165.273 118.841C165.273 118.958 154.52 119.058 141.264 119.058C128.008 119.058 117.247 118.958 117.247 118.841C117.247 118.724 127.999 118.624 141.264 118.624C154.529 118.624 165.273 118.708 165.273 118.841Z" fill="white"/>
<path d="M124.295 170.946C124.164 170.981 124.029 171.001 123.892 171.004L122.719 171.104C122.211 171.146 121.589 171.179 120.863 171.196C120.136 171.212 119.313 171.246 118.402 171.196C116.572 171.196 114.401 171.071 111.993 170.829C109.387 170.541 106.8 170.115 104.244 169.554C101.694 168.972 99.1798 168.254 96.714 167.404C94.705 166.704 92.7352 165.906 90.8125 165.013C89.9369 164.646 89.2627 164.263 88.6236 163.938C87.9844 163.613 87.4415 163.321 87.0037 163.105L85.9968 162.521C85.8774 162.458 85.7658 162.383 85.6641 162.296C85.6641 162.296 85.8042 162.296 86.0406 162.446L87.0913 162.955C87.5378 163.188 88.0894 163.463 88.7374 163.788C89.3853 164.113 90.1208 164.446 90.9526 164.796C92.5987 165.529 94.6038 166.313 96.8628 167.088C101.773 168.763 106.866 169.903 112.046 170.487C114.427 170.754 116.59 170.904 118.402 170.946C119.278 170.996 120.153 170.946 120.863 170.946C121.572 170.946 122.202 170.946 122.71 170.946H123.883C124.02 170.924 124.159 170.924 124.295 170.946Z" fill="white"/>
<path d="M194.193 208.493C194.129 208.534 194.058 208.565 193.983 208.585L193.353 208.81L190.919 209.643C189.859 210.01 188.563 210.435 187.031 210.86C185.499 211.285 183.774 211.835 181.821 212.301L178.774 213.068C177.715 213.326 176.594 213.543 175.447 213.801C173.153 214.326 170.666 214.743 168.057 215.218C156.692 217.101 145.142 217.775 133.62 217.226C130.993 217.068 128.445 216.943 126.099 216.684C124.925 216.568 123.787 216.484 122.701 216.343L119.576 215.934C117.579 215.709 115.793 215.368 114.226 215.101C112.658 214.834 111.301 214.584 110.207 214.343L107.685 213.809L107.028 213.659C106.952 213.648 106.879 213.625 106.81 213.593C106.888 213.587 106.967 213.587 107.046 213.593L107.703 213.701L110.242 214.159C111.345 214.368 112.694 214.609 114.27 214.834C115.846 215.059 117.623 215.384 119.619 215.593L122.737 215.968C123.822 216.101 124.961 216.176 126.134 216.284C128.472 216.526 130.993 216.634 133.638 216.784C138.935 216.993 144.758 217.001 150.869 216.659C156.981 216.318 162.751 215.593 167.978 214.776C170.605 214.318 173.074 213.943 175.368 213.409C176.515 213.16 177.636 212.951 178.695 212.701L181.742 211.96C183.695 211.518 185.42 211.001 186.952 210.585C188.484 210.168 189.798 209.751 190.857 209.443L193.318 208.693L193.966 208.51L194.193 208.493Z" fill="white"/>
</svg>
