<svg width="391" height="386" viewBox="0 0 391 386" fill="none" xmlns="http://www.w3.org/2000/svg">
<path d="M391 90.296C391 90.4183 376.456 90.508 358.522 90.508C340.588 90.508 326.043 90.4183 326.043 90.296C326.043 90.1737 340.579 90.084 358.522 90.084C376.464 90.084 391 90.1819 391 90.296Z" fill="#E0E0E0"/>
<path d="M264.905 363.728C264.905 363.728 264.761 363.63 264.508 363.418L263.362 362.48L259.002 358.82L242.982 345.32L190.243 300.653L145.344 262.491L145.285 262.442V262.369C145.285 250.76 145.344 241.246 145.361 234.651C145.361 231.349 145.361 228.773 145.361 227.004C145.361 226.14 145.361 225.471 145.361 225.006C145.361 224.542 145.361 224.322 145.361 224.322C145.361 224.322 145.361 224.558 145.361 225.006C145.361 225.455 145.361 226.14 145.361 227.004C145.361 228.773 145.361 231.349 145.361 234.651C145.361 241.279 145.403 250.792 145.437 262.369L145.378 262.238L190.344 300.335L242.991 345.091L258.918 358.698L263.235 362.415L264.348 363.385L264.905 363.728Z" fill="#E0E0E0"/>
<path d="M193.514 182.271C194.441 182.271 195.192 181.545 195.192 180.649C195.192 179.753 194.441 179.027 193.514 179.027C192.587 179.027 191.836 179.753 191.836 180.649C191.836 181.545 192.587 182.271 193.514 182.271Z" fill="#E0E0E0"/>
<path d="M193.514 209.419C194.441 209.419 195.192 208.693 195.192 207.797C195.192 206.901 194.441 206.174 193.514 206.174C192.587 206.174 191.836 206.901 191.836 207.797C191.836 208.693 192.587 209.419 193.514 209.419Z" fill="#E0E0E0"/>
<path d="M50.9014 221.321C50.9014 221.321 51.1627 221.321 51.6686 221.321H53.9199H62.6466L95.1843 221.264L206.617 221.109L206.406 221.313C206.406 206.256 206.406 190.244 206.406 173.768C206.406 117.28 206.456 66.3198 206.473 30.5307L206.625 30.6775L165.007 30.6123L153.767 30.5715H150.85H149.863C149.863 30.5715 150.201 30.5715 150.85 30.5715H153.767H165.007L206.625 30.5063H206.777V30.653C206.777 66.4421 206.819 117.403 206.844 173.891V221.639H206.625L95.1927 221.566L62.655 221.509L53.9283 221.468H51.6771L50.9014 221.321Z" fill="#E0E0E0"/>
<path d="M89.2656 382.234C89.2656 382.234 89.2656 381.916 89.2656 381.296C89.2656 380.677 89.2656 379.747 89.2656 378.541C89.2656 376.095 89.2656 372.532 89.215 367.942C89.215 358.738 89.215 345.442 89.1476 329.031L89.1982 329.145L50.7415 292.076V292.035V291.954C50.7415 274.883 50.7415 256.173 50.7415 236.648C50.7415 195.666 50.7415 158.254 50.8005 130.251L50.8933 130.39L13.6424 113.115L3.52442 108.394L0.893752 107.147C0.295106 106.87 0 106.715 0 106.715C0 106.715 0.31197 106.837 0.910615 107.106L3.52442 108.305L13.693 112.96L50.9692 130.08L51.0619 130.129V130.227C51.0619 158.23 51.0619 195.641 51.1125 236.624C51.1125 256.149 51.1125 274.858 51.1125 291.929L51.0451 291.791L89.3836 328.909V328.958V329.023C89.3836 345.434 89.3331 358.73 89.3162 367.934C89.3162 372.524 89.3162 376.087 89.3162 378.532C89.3162 379.739 89.3162 380.66 89.3162 381.288C89.3162 381.916 89.2656 382.234 89.2656 382.234Z" fill="#E0E0E0"/>
<path d="M78.153 345.026C79.0797 345.026 79.8309 344.3 79.8309 343.404C79.8309 342.508 79.0797 341.781 78.153 341.781C77.2263 341.781 76.4751 342.508 76.4751 343.404C76.4751 344.3 77.2263 345.026 78.153 345.026Z" fill="#E0E0E0"/>
<path d="M78.153 372.174C79.0797 372.174 79.8309 371.447 79.8309 370.551C79.8309 369.655 79.0797 368.929 78.153 368.929C77.2263 368.929 76.4751 369.655 76.4751 370.551C76.4751 371.447 77.2263 372.174 78.153 372.174Z" fill="#E0E0E0"/>
<path d="M37.3351 250.686C38.2618 250.686 39.013 249.96 39.013 249.064C39.013 248.168 38.2618 247.442 37.3351 247.442C36.4084 247.442 35.6572 248.168 35.6572 249.064C35.6572 249.96 36.4084 250.686 37.3351 250.686Z" fill="#E0E0E0"/>
<path d="M37.3351 277.842C38.2618 277.842 39.013 277.116 39.013 276.22C39.013 275.324 38.2618 274.597 37.3351 274.597C36.4084 274.597 35.6572 275.324 35.6572 276.22C35.6572 277.116 36.4084 277.842 37.3351 277.842Z" fill="#E0E0E0"/>
<path d="M39.0133 194.207C39.0133 194.529 38.9144 194.844 38.7291 195.112C38.5438 195.381 38.2804 195.589 37.9723 195.713C37.6641 195.836 37.3251 195.869 36.998 195.806C36.6709 195.743 36.3704 195.587 36.1345 195.359C35.8987 195.131 35.7381 194.841 35.673 194.525C35.608 194.208 35.6414 193.881 35.769 193.583C35.8966 193.285 36.1128 193.03 36.3901 192.851C36.6674 192.672 36.9934 192.576 37.3269 192.576C37.7742 192.576 38.2031 192.748 38.5194 193.054C38.8356 193.359 39.0133 193.774 39.0133 194.207Z" fill="#E0E0E0"/>
<path d="M37.3351 223.001C38.2618 223.001 39.013 222.275 39.013 221.379C39.013 220.483 38.2618 219.756 37.3351 219.756C36.4084 219.756 35.6572 220.483 35.6572 221.379C35.6572 222.275 36.4084 223.001 37.3351 223.001Z" fill="#E0E0E0"/>
<path d="M37.3351 141.004C38.2618 141.004 39.013 140.278 39.013 139.382C39.013 138.486 38.2618 137.759 37.3351 137.759C36.4084 137.759 35.6572 138.486 35.6572 139.382C35.6572 140.278 36.4084 141.004 37.3351 141.004Z" fill="#E0E0E0"/>
<path d="M37.3351 168.16C38.2618 168.16 39.013 167.433 39.013 166.537C39.013 165.641 38.2618 164.915 37.3351 164.915C36.4084 164.915 35.6572 165.641 35.6572 166.537C35.6572 167.433 36.4084 168.16 37.3351 168.16Z" fill="#E0E0E0"/>
<path d="M287.67 0C287.67 0 287.67 0.317943 287.67 0.937526C287.67 1.55711 287.67 2.49464 287.67 3.69304C287.67 6.13876 287.67 9.70136 287.712 14.2912C287.712 23.4952 287.754 36.7999 287.788 53.2026L287.737 53.0966C298.656 63.6295 311.734 76.2494 326.135 90.1574L326.194 90.2145V90.296C326.194 107.416 326.194 126.077 326.194 145.602C326.194 186.592 326.194 223.995 326.135 251.999L326.042 251.86L363.251 269.119L373.369 273.847L376 275.087C376.598 275.364 376.893 275.519 376.893 275.519C376.893 275.519 376.581 275.396 375.983 275.127L373.327 273.929L363.158 269.282L325.882 252.162L325.789 252.121V252.015C325.789 224.012 325.789 186.609 325.739 145.618C325.739 126.093 325.739 107.392 325.739 90.3123L325.798 90.4591L287.56 53.3167L287.51 53.2678V53.17C287.51 36.7673 287.569 23.4626 287.586 14.2586C287.586 9.66875 287.586 6.10615 287.628 3.66043C287.628 2.46203 287.628 1.5408 287.628 0.904916C287.628 0.269029 287.67 0 287.67 0Z" fill="#E0E0E0"/>
<path d="M298.791 40.4604C299.718 40.4604 300.469 39.734 300.469 38.838C300.469 37.942 299.718 37.2157 298.791 37.2157C297.864 37.2157 297.113 37.942 297.113 38.838C297.113 39.734 297.864 40.4604 298.791 40.4604Z" fill="#E0E0E0"/>
<path d="M297.105 11.6824C297.105 11.3599 297.204 11.0447 297.39 10.7765C297.575 10.5084 297.838 10.2994 298.146 10.176C298.455 10.0526 298.794 10.0203 299.121 10.0832C299.448 10.1462 299.748 10.3014 299.984 10.5295C300.22 10.7575 300.381 11.048 300.446 11.3643C300.511 11.6806 300.477 12.0084 300.35 12.3063C300.222 12.6043 300.006 12.8589 299.729 13.0381C299.451 13.2172 299.125 13.3129 298.792 13.3129C298.345 13.3129 297.916 13.1411 297.599 12.8353C297.283 12.5295 297.105 12.1148 297.105 11.6824Z" fill="#E0E0E0"/>
<path d="M218.227 72.7276C219.154 72.7276 219.905 72.0013 219.905 71.1053C219.905 70.2093 219.154 69.4829 218.227 69.4829C217.301 69.4829 216.549 70.2093 216.549 71.1053C216.549 72.0013 217.301 72.7276 218.227 72.7276Z" fill="#E0E0E0"/>
<path d="M216.549 43.9496C216.549 43.6271 216.648 43.3119 216.834 43.0438C217.019 42.7756 217.282 42.5666 217.59 42.4432C217.898 42.3198 218.238 42.2875 218.565 42.3505C218.892 42.4134 219.192 42.5687 219.428 42.7967C219.664 43.0247 219.825 43.3152 219.89 43.6315C219.955 43.9478 219.921 44.2756 219.794 44.5736C219.666 44.8715 219.45 45.1261 219.173 45.3053C218.895 45.4845 218.569 45.5801 218.236 45.5801C217.788 45.5801 217.359 45.4083 217.043 45.1025C216.727 44.7968 216.549 44.382 216.549 43.9496Z" fill="#E0E0E0"/>
<path d="M218.227 121.218C219.154 121.218 219.905 120.492 219.905 119.596C219.905 118.7 219.154 117.973 218.227 117.973C217.301 117.973 216.549 118.7 216.549 119.596C216.549 120.492 217.301 121.218 218.227 121.218Z" fill="#E0E0E0"/>
<path d="M216.549 92.4483C216.549 92.1258 216.648 91.8105 216.834 91.5424C217.019 91.2743 217.282 91.0653 217.59 90.9419C217.898 90.8185 218.238 90.7862 218.565 90.8491C218.892 90.912 219.192 91.0673 219.428 91.2953C219.664 91.5234 219.825 91.8139 219.89 92.1302C219.955 92.4465 219.921 92.7743 219.794 93.0722C219.666 93.3702 219.45 93.6248 219.173 93.804C218.895 93.9831 218.569 94.0787 218.236 94.0787C217.788 94.0787 217.359 93.907 217.043 93.6012C216.727 93.2954 216.549 92.8807 216.549 92.4483Z" fill="#E0E0E0"/>
<path d="M337.932 133.169C337.932 132.847 338.031 132.532 338.216 132.264C338.401 131.996 338.665 131.787 338.973 131.663C339.281 131.54 339.62 131.507 339.947 131.57C340.274 131.633 340.575 131.789 340.81 132.017C341.046 132.245 341.207 132.535 341.272 132.851C341.337 133.168 341.304 133.496 341.176 133.793C341.048 134.091 340.832 134.346 340.555 134.525C340.278 134.704 339.951 134.8 339.618 134.8C339.171 134.8 338.742 134.628 338.426 134.322C338.109 134.017 337.932 133.602 337.932 133.169Z" fill="#E0E0E0"/>
<path d="M337.932 106.022C337.932 105.7 338.031 105.384 338.216 105.116C338.401 104.848 338.665 104.639 338.973 104.516C339.281 104.392 339.62 104.36 339.947 104.423C340.274 104.486 340.575 104.641 340.81 104.869C341.046 105.097 341.207 105.388 341.272 105.704C341.337 106.02 341.304 106.348 341.176 106.646C341.048 106.944 340.832 107.199 340.555 107.378C340.278 107.557 339.951 107.652 339.618 107.652C339.171 107.652 338.742 107.481 338.426 107.175C338.109 106.869 337.932 106.454 337.932 106.022Z" fill="#E0E0E0"/>
<path d="M337.932 188.011C337.932 187.688 338.031 187.373 338.216 187.105C338.401 186.837 338.665 186.628 338.973 186.504C339.281 186.381 339.62 186.349 339.947 186.412C340.274 186.474 340.575 186.63 340.81 186.858C341.046 187.086 341.207 187.376 341.272 187.693C341.337 188.009 341.304 188.337 341.176 188.635C341.048 188.933 340.832 189.187 340.555 189.366C340.278 189.546 339.951 189.641 339.618 189.641C339.171 189.641 338.742 189.469 338.426 189.164C338.109 188.858 337.932 188.443 337.932 188.011Z" fill="#E0E0E0"/>
<path d="M337.932 160.863C337.932 160.541 338.031 160.226 338.216 159.957C338.401 159.689 338.665 159.48 338.973 159.357C339.281 159.233 339.62 159.201 339.947 159.264C340.274 159.327 340.575 159.482 340.81 159.71C341.046 159.938 341.207 160.229 341.272 160.545C341.337 160.861 341.304 161.189 341.176 161.487C341.048 161.785 340.832 162.04 340.555 162.219C340.278 162.398 339.951 162.494 339.618 162.494C339.171 162.494 338.742 162.322 338.426 162.016C338.109 161.71 337.932 161.296 337.932 160.863Z" fill="#E0E0E0"/>
<path d="M337.932 242.852C337.932 242.53 338.031 242.214 338.216 241.946C338.401 241.678 338.665 241.469 338.973 241.346C339.281 241.222 339.62 241.19 339.947 241.253C340.274 241.316 340.575 241.471 340.81 241.699C341.046 241.927 341.207 242.218 341.272 242.534C341.337 242.85 341.304 243.178 341.176 243.476C341.048 243.774 340.832 244.029 340.555 244.208C340.278 244.387 339.951 244.482 339.618 244.482C339.171 244.482 338.742 244.311 338.426 244.005C338.109 243.699 337.932 243.284 337.932 242.852Z" fill="#E0E0E0"/>
<path d="M337.932 215.704C337.932 215.382 338.031 215.067 338.216 214.799C338.401 214.53 338.665 214.322 338.973 214.198C339.281 214.075 339.62 214.042 339.947 214.105C340.274 214.168 340.575 214.324 340.81 214.552C341.046 214.78 341.207 215.07 341.272 215.386C341.337 215.703 341.304 216.03 341.176 216.328C341.048 216.626 340.832 216.881 340.555 217.06C340.278 217.239 339.951 217.335 339.618 217.335C339.171 217.335 338.742 217.163 338.426 216.857C338.109 216.552 337.932 216.137 337.932 215.704Z" fill="#E0E0E0"/>
<path d="M136.584 17.0467C137.51 17.0467 138.262 16.3203 138.262 15.4243C138.262 14.5284 137.51 13.802 136.584 13.802C135.657 13.802 134.906 14.5284 134.906 15.4243C134.906 16.3203 135.657 17.0467 136.584 17.0467Z" fill="#E0E0E0"/>
<path d="M138.262 42.5719C138.262 42.8943 138.163 43.2096 137.978 43.4777C137.792 43.7458 137.529 43.9548 137.221 44.0782C136.913 44.2016 136.574 44.2339 136.247 44.171C135.919 44.1081 135.619 43.9528 135.383 43.7248C135.147 43.4968 134.987 43.2062 134.922 42.8899C134.856 42.5737 134.89 42.2458 135.018 41.9479C135.145 41.65 135.361 41.3953 135.639 41.2162C135.916 41.037 136.242 40.9414 136.575 40.9414C137.023 40.9414 137.452 41.1132 137.768 41.4189C138.084 41.7247 138.262 42.1394 138.262 42.5719Z" fill="#E0E0E0"/>
<path d="M28.1865 67.4448C28.0536 67.7424 27.832 67.9948 27.55 68.17C27.2679 68.3452 26.9383 68.4351 26.6032 68.4284C26.268 68.4216 25.9426 68.3184 25.6684 68.1319C25.3942 67.9455 25.1837 67.6842 25.0638 67.3816C24.9438 67.0789 24.9199 66.7486 24.9951 66.4327C25.0702 66.1169 25.241 65.8298 25.4857 65.6083C25.7303 65.3867 26.0377 65.2406 26.3686 65.1888C26.6995 65.1369 27.0389 65.1816 27.3434 65.317C27.7434 65.495 28.0556 65.8173 28.2132 66.2149C28.3707 66.6125 28.3612 67.0539 28.1865 67.4448Z" fill="#E0E0E0"/>
<path d="M17.015 92.3667C16.8809 92.6633 16.6585 92.9145 16.3762 93.0884C16.0939 93.2623 15.7645 93.3511 15.4298 93.3434C15.0952 93.3357 14.7705 93.2318 14.4971 93.0451C14.2237 92.8583 14.0139 92.5971 13.8945 92.2948C13.7752 91.9924 13.7516 91.6625 13.8268 91.3471C13.902 91.0317 14.0725 90.7451 14.3168 90.5238C14.561 90.3024 14.8678 90.1564 15.1982 90.1042C15.5285 90.052 15.8675 90.0961 16.1719 90.2308C16.574 90.4088 16.8878 90.7324 17.0455 91.1319C17.2032 91.5315 17.1923 91.9749 17.015 92.3667Z" fill="#E0E0E0"/>
<path d="M148.826 0.399467C148.826 0.399467 148.826 0.717411 148.826 1.32884C148.826 1.94027 148.826 2.86965 148.826 4.0599C148.826 6.4567 148.826 9.96224 148.877 14.4216C148.877 23.3892 148.877 36.1396 148.953 51.5232V51.7025H148.767H88.6077H47.6469L47.8324 51.5884C38.8611 70.0699 31.1968 85.8285 25.7837 96.9973C23.0602 102.557 20.9102 106.968 19.4262 110.041L17.7399 113.49C17.5544 113.873 17.4026 114.166 17.293 114.378C17.1834 114.59 17.1328 114.672 17.1328 114.672C17.1328 114.672 17.1328 114.566 17.2677 114.362C17.4026 114.158 17.5038 113.848 17.6809 113.465C18.0603 112.65 18.6168 111.492 19.3672 109.984L25.6235 96.9402C31.0028 85.7551 38.6166 69.9721 47.5457 51.4661L47.5963 51.352H47.7312H88.692H148.852L148.666 51.5313C148.666 36.1478 148.725 23.3729 148.742 14.4298C148.742 9.97039 148.784 6.46486 148.793 4.06805C148.793 2.8778 148.793 1.97288 148.793 1.33699C148.793 0.701107 148.826 0.399467 148.826 0.399467Z" fill="#E0E0E0"/>
<path d="M147.587 48.89C147.495 48.9796 147.258 48.89 147.048 48.678C146.837 48.466 146.736 48.2378 146.828 48.1562C146.921 48.0747 147.149 48.1562 147.36 48.3764C147.57 48.5965 147.705 48.8084 147.587 48.89Z" fill="#E0E0E0"/>
<path d="M152.992 253.475C152.992 253.152 153.091 252.837 153.276 252.569C153.461 252.301 153.725 252.092 154.033 251.968C154.341 251.845 154.68 251.813 155.007 251.875C155.334 251.938 155.635 252.094 155.87 252.322C156.106 252.55 156.267 252.84 156.332 253.156C156.397 253.473 156.364 253.801 156.236 254.099C156.108 254.396 155.892 254.651 155.615 254.83C155.338 255.009 155.012 255.105 154.678 255.105C154.231 255.105 153.802 254.933 153.486 254.628C153.169 254.322 152.992 253.907 152.992 253.475Z" fill="#E0E0E0"/>
<path d="M152.992 231.536C152.992 231.214 153.091 230.899 153.276 230.631C153.461 230.362 153.725 230.153 154.033 230.03C154.341 229.907 154.68 229.874 155.007 229.937C155.334 230 155.635 230.155 155.87 230.384C156.106 230.612 156.267 230.902 156.332 231.218C156.397 231.535 156.364 231.862 156.236 232.16C156.108 232.458 155.892 232.713 155.615 232.892C155.338 233.071 155.012 233.167 154.678 233.167C154.231 233.167 153.802 232.995 153.486 232.689C153.169 232.384 152.992 231.969 152.992 231.536Z" fill="#E0E0E0"/>
<path d="M351.042 306.653C351.042 306.33 351.141 306.015 351.326 305.747C351.511 305.479 351.775 305.27 352.083 305.146C352.391 305.023 352.73 304.991 353.057 305.054C353.384 305.116 353.685 305.272 353.921 305.5C354.157 305.728 354.317 306.018 354.382 306.335C354.447 306.651 354.414 306.979 354.286 307.277C354.159 307.575 353.943 307.829 353.665 308.008C353.388 308.188 353.062 308.283 352.728 308.283C352.281 308.283 351.852 308.111 351.536 307.806C351.22 307.5 351.042 307.085 351.042 306.653Z" fill="#E0E0E0"/>
<path d="M351.042 284.698C351.042 284.376 351.141 284.061 351.326 283.792C351.511 283.524 351.775 283.315 352.083 283.192C352.391 283.068 352.73 283.036 353.057 283.099C353.384 283.162 353.685 283.317 353.921 283.545C354.157 283.773 354.317 284.064 354.382 284.38C354.447 284.696 354.414 285.024 354.286 285.322C354.159 285.62 353.943 285.875 353.665 286.054C353.388 286.233 353.062 286.329 352.728 286.329C352.281 286.329 351.852 286.157 351.536 285.851C351.22 285.545 351.042 285.131 351.042 284.698Z" fill="#E0E0E0"/>
<path d="M281.853 363.662C282.165 363.548 282.506 363.526 282.831 363.599C283.157 363.673 283.453 363.838 283.681 364.074C283.909 364.31 284.06 364.606 284.113 364.925C284.167 365.244 284.122 365.571 283.983 365.865C283.844 366.159 283.618 366.406 283.333 366.576C283.048 366.745 282.718 366.829 282.384 366.817C282.05 366.804 281.728 366.696 281.457 366.506C281.187 366.316 280.981 366.053 280.866 365.749C280.713 365.346 280.731 364.901 280.915 364.51C281.1 364.119 281.437 363.814 281.853 363.662Z" fill="#E0E0E0"/>
<path d="M303.108 355.991C303.421 355.877 303.762 355.855 304.087 355.928C304.413 356.001 304.708 356.166 304.937 356.402C305.165 356.639 305.315 356.935 305.369 357.254C305.423 357.573 305.378 357.9 305.239 358.194C305.1 358.488 304.874 358.735 304.589 358.905C304.304 359.074 303.974 359.158 303.64 359.145C303.306 359.133 302.984 359.025 302.713 358.835C302.443 358.645 302.237 358.381 302.122 358.078C301.969 357.675 301.986 357.229 302.171 356.838C302.356 356.448 302.693 356.143 303.108 355.991Z" fill="#E0E0E0"/>
<path d="M322.898 347.692C323.21 347.578 323.55 347.557 323.875 347.63C324.2 347.704 324.496 347.869 324.723 348.105C324.951 348.34 325.102 348.636 325.156 348.955C325.21 349.273 325.165 349.6 325.026 349.894C324.888 350.187 324.663 350.435 324.379 350.604C324.095 350.774 323.765 350.859 323.432 350.847C323.098 350.836 322.776 350.729 322.505 350.54C322.234 350.352 322.028 350.089 321.911 349.787C321.755 349.383 321.772 348.935 321.957 348.542C322.142 348.15 322.48 347.844 322.898 347.692Z" fill="#E0E0E0"/>
<path d="M344.162 340.02C344.474 339.906 344.815 339.884 345.14 339.957C345.466 340.031 345.762 340.196 345.99 340.432C346.218 340.668 346.369 340.964 346.422 341.283C346.476 341.602 346.431 341.929 346.292 342.223C346.153 342.517 345.927 342.765 345.642 342.934C345.358 343.103 345.027 343.187 344.693 343.175C344.359 343.162 344.037 343.054 343.766 342.864C343.496 342.674 343.29 342.411 343.175 342.107C343.022 341.704 343.04 341.259 343.224 340.868C343.409 340.477 343.746 340.172 344.162 340.02Z" fill="#E0E0E0"/>
<path d="M263.64 378.532C263.64 378.532 263.64 378.459 263.64 378.304C263.64 378.149 263.64 377.921 263.64 377.627C263.64 377.016 263.64 376.127 263.64 374.986C263.64 372.646 263.64 369.279 263.581 364.926V364.853H263.657L332.139 335.895L360.123 324.115L359.997 324.294C360.115 307.827 360.224 293.739 360.292 283.753C360.342 278.78 360.385 274.826 360.418 272.095C360.418 270.758 360.418 269.714 360.469 268.997C360.469 268.654 360.469 268.385 360.469 268.181C360.458 268.092 360.458 268.002 360.469 267.912C360.469 267.912 360.469 268.002 360.469 268.181C360.469 268.361 360.469 268.646 360.469 268.997C360.469 269.714 360.469 270.758 360.469 272.095C360.469 274.826 360.469 278.78 360.469 283.753C360.469 293.739 360.393 307.827 360.334 324.303V324.433L360.207 324.482L332.231 336.278L263.674 365.065L263.741 364.959C263.741 369.279 263.699 372.679 263.691 375.019C263.691 376.16 263.691 377.049 263.691 377.66C263.691 377.954 263.691 378.174 263.691 378.337C263.684 378.404 263.667 378.47 263.64 378.532Z" fill="#E0E0E0"/>
<path d="M289.019 30.5389C289.019 30.6531 270.394 30.7509 247.417 30.7509C224.441 30.7509 205.824 30.6531 205.824 30.5389C205.824 30.4248 224.433 30.3433 247.417 30.3433C270.402 30.3433 289.019 30.4248 289.019 30.5389Z" fill="#E0E0E0"/>
<path d="M325.165 131.547C325.165 131.661 298.623 131.759 265.891 131.759C233.159 131.759 206.617 131.661 206.617 131.547C206.617 131.433 233.151 131.335 265.891 131.335C298.631 131.335 325.165 131.433 325.165 131.547Z" fill="#E0E0E0"/>
<path d="M206.617 164.907C206.496 164.918 206.375 164.918 206.254 164.907H205.184H201.052L185.875 164.98L135.808 165.037H128.751L128.953 164.915C121.736 180.771 115.328 194.867 110.707 205.025L105.227 217.033C104.586 218.419 104.08 219.479 103.726 220.294L103.329 221.11C103.286 221.205 103.235 221.298 103.178 221.387C103.178 221.387 103.178 221.281 103.287 221.093L103.65 220.278L105.083 217.017C106.348 214.18 108.178 210.096 110.437 205.025C115.033 194.851 121.398 180.739 128.557 164.858L128.616 164.727H135.817L185.884 164.793L201.06 164.858H205.192H206.263L206.617 164.907Z" fill="#E0E0E0"/>
<path d="M237.435 82.0702C237.342 82.0702 237.35 80.4398 236.887 77.7495C236.615 76.2003 236.229 74.6718 235.732 73.176C235.107 71.3404 234.329 69.5572 233.404 67.8443C232.458 66.1533 231.375 64.5368 230.167 63.0099C229.16 61.7731 228.067 60.6045 226.895 59.5125C224.88 57.6619 223.438 56.7244 223.523 56.6592C223.884 56.8341 224.226 57.0445 224.543 57.2869C224.939 57.5398 225.322 57.8119 225.689 58.1022C226.119 58.4446 226.625 58.8114 227.131 59.2843C228.349 60.3535 229.477 61.5149 230.504 62.7572C231.753 64.2916 232.862 65.9283 233.818 67.6486C234.749 69.3774 235.524 71.1803 236.136 73.0374C236.626 74.556 236.989 76.1099 237.224 77.6842C237.342 78.3527 237.376 78.9642 237.426 79.5022C237.474 79.96 237.497 80.4199 237.494 80.88C237.517 81.2776 237.497 81.6766 237.435 82.0702Z" fill="#263238"/>
<path d="M249.727 87.6872C249.705 87.5195 249.705 87.3496 249.727 87.1818C249.727 86.8068 249.786 86.3666 249.829 85.7307C249.829 85.4127 249.879 85.0703 249.905 84.6872C249.93 84.304 249.905 83.8719 249.905 83.448C249.905 82.5512 249.947 81.5322 249.82 80.4153C249.778 79.8528 249.736 79.2658 249.685 78.6625C249.635 78.0593 249.508 77.4234 249.424 76.763C249.272 75.4505 248.918 74.0809 248.581 72.6298C247.766 69.5137 246.637 66.4827 245.208 63.5806C243.71 60.7006 241.922 57.97 239.871 55.4282C238.876 54.295 237.965 53.1944 236.987 52.2732C236.498 51.8085 236.068 51.3275 235.596 50.9118L234.23 49.746C233.456 49.0671 232.645 48.4276 231.802 47.8301C231.431 47.5611 231.102 47.3002 230.773 47.0801L229.871 46.5013L228.632 45.6861C228.482 45.5954 228.34 45.4917 228.21 45.3763C228.375 45.4333 228.532 45.513 228.674 45.6127L229.964 46.3546L230.891 46.9008C231.228 47.1127 231.566 47.3736 231.945 47.6345C232.811 48.213 233.641 48.839 234.432 49.5095L235.79 50.7242C236.271 51.1319 236.717 51.6129 237.206 52.0775C238.243 53.0791 239.226 54.1322 240.149 55.2325C242.24 57.7782 244.056 60.5235 245.571 63.4257C247.015 66.3552 248.145 69.4202 248.943 72.5727C249.282 73.9502 249.55 75.3433 249.744 76.7467C249.82 77.4071 249.938 78.0429 249.98 78.6625C250.023 79.2821 250.056 79.8691 250.09 80.4316C250.144 81.4473 250.144 82.465 250.09 83.4806C250.09 83.929 250.09 84.3529 250.048 84.7361C250.006 85.1192 249.964 85.4616 249.93 85.7796C249.854 86.3747 249.795 86.8475 249.753 87.2226C249.766 87.3778 249.757 87.5341 249.727 87.6872Z" fill="#263238"/>
<path d="M132.048 129.061C132.132 129.061 132.773 130.585 134.206 132.884C135.055 134.228 136.002 135.511 137.039 136.724C139.577 139.697 142.64 142.212 146.087 144.151C147.49 144.948 148.953 145.643 150.463 146.23C152.992 147.232 154.737 147.583 154.678 147.673C154.273 147.635 153.872 147.561 153.481 147.453C153.016 147.358 152.558 147.238 152.107 147.094C151.576 146.931 150.96 146.768 150.311 146.507C148.771 145.952 147.279 145.278 145.85 144.493C144.105 143.514 142.45 142.393 140.901 141.143C139.373 139.872 137.962 138.476 136.685 136.969C135.651 135.732 134.721 134.418 133.903 133.039C133.532 132.46 133.27 131.906 133.017 131.409C132.797 131.001 132.6 130.582 132.427 130.153C132.268 129.8 132.141 129.435 132.048 129.061Z" fill="#263238"/>
<path d="M118.498 128.229C118.571 128.382 118.633 128.54 118.684 128.702C118.81 129.061 118.962 129.517 119.156 130.08C119.248 130.39 119.358 130.724 119.476 131.082C119.594 131.441 119.78 131.824 119.948 132.24C120.302 133.055 120.64 134.026 121.179 135.028L122.022 136.61C122.301 137.164 122.655 137.702 122.992 138.24C123.633 139.406 124.485 140.556 125.336 141.787C129.223 147.042 134.239 151.422 140.041 154.627C141.303 155.323 142.6 155.957 143.928 156.526C144.56 156.795 145.15 157.081 145.741 157.292L147.427 157.896C148.407 158.249 149.407 158.551 150.42 158.801C150.867 158.923 151.263 159.045 151.66 159.135L152.722 159.347L154.181 159.657C154.355 159.68 154.526 159.726 154.687 159.795C154.514 159.795 154.342 159.779 154.172 159.746L152.688 159.51L151.609 159.331C151.221 159.257 150.766 159.143 150.353 159.029C149.329 158.81 148.319 158.538 147.326 158.214L145.589 157.635C144.99 157.423 144.392 157.138 143.759 156.885C142.414 156.323 141.1 155.695 139.822 155.002C133.92 151.809 128.834 147.377 124.94 142.031C124.097 140.784 123.253 139.585 122.604 138.436C122.275 137.849 121.921 137.303 121.651 136.748L120.876 135.118C120.426 134.198 120.032 133.253 119.695 132.289C119.535 131.865 119.375 131.474 119.257 131.115C119.139 130.756 119.055 130.406 118.962 130.096C118.802 129.525 118.675 129.061 118.574 128.694C118.528 128.543 118.503 128.387 118.498 128.229Z" fill="#263238"/>
<path d="M111.989 372.043H98.4312V378.695H111.989V372.043Z" fill="#E0E0E0"/>
<path d="M225.529 372.043H211.971V378.695H225.529V372.043Z" fill="#E0E0E0"/>
<path d="M122.41 322.33C120.511 322.392 118.648 322.848 116.947 323.665C115.245 324.482 113.744 325.642 112.545 327.066C109.834 330.29 108.365 334.324 108.388 338.48C108.304 343.151 109.569 347.773 111.247 352.11C114.63 360.845 120.122 368.671 127.267 374.937C127.773 375.377 128.515 374.66 128.017 374.22C121.757 368.72 116.772 362.002 113.388 354.507C110.016 347.007 107.124 337.094 111.938 329.569C114.198 326.039 118.017 323.349 122.418 323.316C122.547 323.3 122.665 323.24 122.75 323.146C122.836 323.052 122.883 322.932 122.883 322.807C122.883 322.682 122.836 322.561 122.75 322.467C122.665 322.373 122.547 322.313 122.418 322.297L122.41 322.33Z" fill="#263238"/>
<path d="M192.654 360.475L196.524 345.091L129.004 340.387L132.377 361.902L158.97 374.089L192.654 360.475Z" fill="#263238"/>
<path d="M188.633 276.146L176.407 280.443L203.472 324.27L216.634 312.824L213.025 291.065L188.633 276.146Z" fill="#263238"/>
<path d="M207.838 324.145C211.468 300.35 194.46 278.216 169.85 274.706C145.241 271.197 122.348 287.641 118.719 311.436C115.089 335.231 132.097 357.365 156.706 360.874C181.316 364.384 204.208 347.94 207.838 324.145Z" fill="#E0E0E0"/>
<path d="M146.55 291.717L146.137 292.019L144.906 292.834L143.995 293.454C143.666 293.698 143.338 293.992 142.967 294.269L141.803 295.296C141.361 295.681 140.942 296.09 140.547 296.519C138.402 298.644 136.602 301.071 135.209 303.718C133.353 307.208 132.208 311.011 131.837 314.919L131.685 316.55C131.685 317.112 131.685 317.675 131.685 318.245C131.685 318.816 131.685 319.387 131.736 319.966C131.786 320.544 131.862 321.131 131.93 321.718L132.031 322.615C132.098 322.909 132.157 323.202 132.225 323.495C132.351 324.091 132.478 324.686 132.604 325.297C132.731 325.909 132.984 326.479 133.161 327.083C133.338 327.695 133.551 328.296 133.801 328.884C134.279 330.094 134.842 331.271 135.488 332.406C135.825 332.985 136.129 333.58 136.508 334.151L137.697 335.781C137.908 336.058 138.093 336.352 138.312 336.596L139.004 337.412C139.476 337.933 139.923 338.48 140.42 338.993C142.507 341.046 144.856 342.832 147.41 344.309C148.068 344.667 148.759 344.985 149.442 345.328C149.788 345.491 150.125 345.686 150.488 345.817L151.567 346.233C153.03 346.791 154.528 347.26 156.052 347.635C157.617 347.967 159.203 348.195 160.799 348.32L162.014 348.426H164.459C164.867 348.436 165.276 348.415 165.681 348.36L168.152 348.116L170.597 347.627C177.249 346.125 183.212 342.564 187.578 337.485L189.121 335.586L190.462 333.564C190.69 333.236 190.893 332.893 191.069 332.536L191.625 331.477L192.174 330.425L192.62 329.333C193.223 327.895 193.721 326.418 194.113 324.914C194.456 323.432 194.692 321.928 194.821 320.414L194.931 319.289C194.931 318.922 194.931 318.547 194.931 318.172C194.931 317.43 194.931 316.688 194.931 315.955C194.827 314.502 194.618 313.058 194.307 311.634C194.011 310.252 193.623 308.89 193.143 307.558C192.899 306.897 192.587 306.269 192.3 305.625L191.887 304.68C191.735 304.362 191.55 304.076 191.389 303.775L190.378 301.989C190.023 301.419 189.602 300.881 189.222 300.359C188.454 299.284 187.609 298.263 186.693 297.302C186.265 296.82 185.806 296.366 185.319 295.94C184.838 295.516 184.4 295.06 183.911 294.66L182.418 293.527L181.685 292.965L180.909 292.476L179.374 291.522C178.877 291.204 178.32 290.984 177.798 290.707C177.275 290.429 176.761 290.185 176.238 289.948L174.653 289.337C170.864 287.917 166.827 287.217 162.764 287.274C159.693 287.287 156.642 287.754 153.717 288.66C153.146 288.812 152.583 288.991 152.031 289.198L150.58 289.785C150.133 289.973 149.737 290.12 149.349 290.291L148.363 290.804L147.022 291.489L146.558 291.717C146.558 291.717 146.71 291.62 147.005 291.457L148.321 290.731L149.299 290.201C149.661 290.022 150.083 289.859 150.53 289.671L151.98 289.06C152.532 288.847 153.095 288.662 153.666 288.505C156.601 287.569 159.666 287.071 162.756 287.03C166.856 286.952 170.933 287.641 174.762 289.06L176.373 289.663C176.895 289.899 177.418 290.168 177.949 290.429C178.481 290.69 179.037 290.918 179.543 291.245L181.094 292.207L181.887 292.696L182.629 293.258L184.138 294.4C184.636 294.799 185.083 295.264 185.563 295.696C186.059 296.124 186.526 296.581 186.963 297.065C187.878 298.035 188.723 299.065 189.492 300.147C189.872 300.71 190.335 301.248 190.664 301.826L191.685 303.62C191.853 303.93 192.047 304.223 192.19 304.541L192.62 305.503C192.89 306.147 193.202 306.783 193.464 307.452C193.953 308.808 194.35 310.194 194.652 311.601C194.966 313.045 195.18 314.508 195.293 315.979C195.335 316.721 195.293 317.471 195.335 318.229C195.335 318.604 195.335 318.979 195.335 319.362L195.234 320.495C195.102 322.031 194.863 323.556 194.518 325.061C194.118 326.583 193.617 328.078 193.017 329.536L192.561 330.645L192.005 331.713L191.44 332.781C191.265 333.147 191.059 333.499 190.824 333.833L189.475 335.879L187.907 337.803C183.48 342.958 177.43 346.571 170.681 348.091L168.202 348.58L165.673 348.833C165.262 348.881 164.848 348.9 164.434 348.89H161.904L160.681 348.784C157.485 348.572 154.345 347.853 151.39 346.656L150.294 346.241C149.923 346.102 149.585 345.898 149.24 345.735C148.548 345.385 147.84 345.067 147.174 344.7C145.864 343.945 144.608 343.106 143.413 342.189C142.253 341.301 141.152 340.342 140.117 339.319C139.619 338.806 139.164 338.251 138.692 337.689L137.992 336.874C137.764 336.605 137.579 336.311 137.368 336.058L136.162 334.428C135.783 333.849 135.471 333.246 135.134 332.667C134.488 331.512 133.925 330.317 133.447 329.088C133.194 328.496 132.98 327.889 132.806 327.27C132.621 326.659 132.402 326.063 132.25 325.46C132.098 324.857 131.997 324.237 131.871 323.642C131.803 323.341 131.744 323.039 131.677 322.745L131.575 321.841C131.516 321.245 131.449 320.658 131.39 320.071C131.331 319.485 131.39 318.906 131.339 318.327C131.289 317.748 131.339 317.186 131.339 316.623L131.491 314.993C131.892 311.045 133.084 307.21 134.999 303.701C136.414 301.048 138.242 298.62 140.42 296.503C140.824 296.075 141.252 295.67 141.702 295.288L142.908 294.302C143.287 294.008 143.624 293.715 143.953 293.486L144.881 292.875L146.137 292.06C146.398 291.799 146.55 291.717 146.55 291.717Z" fill="#263238"/>
<path d="M164.706 329.74C171.527 328.967 176.41 322.994 175.611 316.398C174.812 309.802 168.634 305.081 161.812 305.853C154.99 306.626 150.108 312.599 150.907 319.195C151.706 325.791 157.884 330.512 164.706 329.74Z" fill="#263238"/>
<path d="M163.396 326.432C168.327 326.357 172.261 322.43 172.182 317.663C172.104 312.895 168.043 309.092 163.113 309.168C158.182 309.243 154.248 313.17 154.326 317.937C154.405 322.705 158.465 326.508 163.396 326.432Z" fill="#37474F"/>
<path d="M131.541 315.392C131.372 315.447 131.197 315.483 131.019 315.498L129.501 315.71L123.902 316.411L124.037 316.272C123.716 321.902 124.803 327.523 127.208 332.659C129.91 338.455 133.714 343.709 138.422 348.148L138.514 348.238L138.43 348.328L135.825 351.271L135.117 352.045C134.948 352.216 134.864 352.298 134.847 352.29C134.907 352.185 134.977 352.087 135.057 351.996L135.707 351.181L138.236 348.165V348.344C136.135 346.456 134.218 344.385 132.511 342.156C130.238 339.262 128.322 336.121 126.803 332.797C124.369 327.606 123.311 321.91 123.725 316.224V316.093H123.852L129.459 315.522L130.993 315.392C131.175 315.371 131.359 315.371 131.541 315.392Z" fill="#263238"/>
<path d="M137.14 282.57C137.239 282.67 137.324 282.783 137.393 282.905L138.076 283.899L140.606 287.698H140.412C143.131 285.81 146.057 284.219 149.138 282.954C151.078 282.189 153.074 281.562 155.108 281.079C157.343 280.582 159.621 280.282 161.912 280.182C166.413 280.006 170.911 280.597 175.2 281.926C178.443 282.901 181.529 284.312 184.366 286.117L184.467 286.19L184.399 286.288L182.03 289.793L181.389 290.715C181.32 290.824 181.238 290.925 181.145 291.016C181.192 290.895 181.254 290.78 181.33 290.674L181.912 289.72C182.469 288.856 183.227 287.658 184.18 286.157V286.329C181.34 284.579 178.268 283.208 175.049 282.252C168.617 280.28 161.757 279.998 155.175 281.437C153.166 281.91 151.193 282.52 149.273 283.263C146.206 284.5 143.281 286.044 140.547 287.869L140.428 287.951L140.361 287.829L137.958 283.964L137.343 282.929C137.264 282.816 137.196 282.696 137.14 282.57Z" fill="#263238"/>
<path d="M207.013 309.221C206.898 309.277 206.776 309.321 206.651 309.351L205.597 309.685L201.592 310.859L201.676 310.704C202.519 313.817 202.864 317.037 202.696 320.251C202.446 324.518 201.38 328.703 199.551 332.594C196.508 338.976 192.049 344.631 186.491 349.159L186.381 349.241L186.297 349.151L182.705 345.491L181.761 344.496C181.647 344.387 181.545 344.267 181.457 344.137C181.589 344.228 181.71 344.332 181.82 344.447L182.823 345.385L186.499 348.955H186.305C188.698 346.96 190.889 344.749 192.848 342.352C195.379 339.315 197.503 335.981 199.172 332.431C200.99 328.576 202.058 324.431 202.325 320.202C202.528 317.027 202.244 313.84 201.482 310.745V310.623H201.6L205.639 309.563L206.718 309.294C206.813 309.257 206.912 309.232 207.013 309.221Z" fill="#263238"/>
<path d="M125.926 309.783L125.083 309.661C125.083 309.563 126.668 300.286 133.161 293.495L133.784 294.041C127.469 300.661 125.943 309.694 125.926 309.783Z" fill="#37474F"/>
<path d="M176.423 349.803C176.636 349.501 176.938 349.267 177.289 349.131C177.639 348.994 178.024 348.961 178.395 349.036C178.765 349.111 179.104 349.29 179.369 349.551C179.634 349.812 179.813 350.143 179.883 350.503C179.954 350.862 179.913 351.233 179.765 351.57C179.618 351.907 179.37 352.194 179.054 352.394C178.738 352.595 178.367 352.701 177.989 352.698C177.611 352.696 177.242 352.585 176.929 352.379C176.509 352.102 176.221 351.675 176.126 351.192C176.031 350.71 176.138 350.21 176.423 349.803Z" fill="#37474F"/>
<path d="M169.982 351.841C170.195 351.54 170.496 351.306 170.847 351.169C171.198 351.033 171.583 351 171.953 351.074C172.323 351.149 172.662 351.328 172.927 351.589C173.192 351.85 173.371 352.181 173.442 352.541C173.513 352.9 173.471 353.271 173.324 353.608C173.176 353.945 172.929 354.232 172.613 354.433C172.296 354.633 171.926 354.739 171.548 354.736C171.169 354.734 170.801 354.623 170.487 354.418C170.068 354.14 169.779 353.713 169.685 353.23C169.59 352.748 169.697 352.248 169.982 351.841Z" fill="#37474F"/>
<path d="M163.076 352.795C163.289 352.492 163.59 352.257 163.941 352.119C164.291 351.982 164.677 351.948 165.048 352.022C165.419 352.096 165.758 352.275 166.024 352.536C166.29 352.797 166.469 353.128 166.54 353.488C166.611 353.848 166.57 354.22 166.422 354.557C166.274 354.894 166.026 355.181 165.71 355.382C165.393 355.583 165.022 355.688 164.643 355.685C164.264 355.681 163.895 355.57 163.582 355.363C163.163 355.087 162.875 354.662 162.78 354.18C162.685 353.699 162.792 353.201 163.076 352.795Z" fill="#37474F"/>
<path d="M227.73 378.704H93.6836V385.78H227.73V378.704Z" fill="#263238"/>
<path d="M116.146 382.234L124.839 352.013C124.839 352.013 137.056 367.625 161.272 367.127C185.488 366.63 201.432 352.013 201.432 352.013L209.189 382.234H116.146Z" fill="#263238"/>
<path d="M227.721 378.704C227.721 378.818 197.789 378.916 160.875 378.916C123.962 378.916 94.0293 378.818 94.0293 378.704C94.0293 378.59 123.953 378.492 160.875 378.492C197.797 378.492 227.721 378.581 227.721 378.704Z" fill="#455A64"/>
<path d="M201.431 352.013C201.393 352.074 201.348 352.132 201.297 352.184L200.867 352.649C200.47 353.048 199.947 353.692 199.18 354.393C196.993 356.457 194.572 358.276 191.963 359.815C188.092 362.094 183.924 363.863 179.568 365.073C176.998 365.786 174.385 366.347 171.744 366.752C168.906 367.166 166.045 367.421 163.177 367.519C157.61 367.66 152.055 366.947 146.719 365.407C142.368 364.172 138.202 362.397 134.324 360.124C131.707 358.608 129.24 356.861 126.955 354.907C126.112 354.238 125.555 353.635 125.142 353.276L124.687 352.828C124.632 352.782 124.584 352.73 124.543 352.673C124.543 352.673 124.602 352.673 124.712 352.803L125.201 353.211C125.64 353.562 126.221 354.14 127.065 354.793C129.383 356.687 131.866 358.386 134.484 359.872C136.29 360.901 138.153 361.832 140.066 362.66C142.26 363.59 144.513 364.385 146.811 365.04C152.101 366.538 157.6 367.229 163.11 367.086C165.961 366.992 168.804 366.739 171.626 366.328C174.248 365.935 176.844 365.39 179.4 364.698C183.733 363.515 187.886 361.785 191.752 359.554C194.36 358.048 196.793 356.277 199.012 354.271C199.855 353.594 200.361 352.966 200.774 352.591L201.238 352.159C201.296 352.103 201.361 352.054 201.431 352.013Z" fill="#455A64"/>
<path d="M242.755 233.933C239.863 236.689 235.571 236.697 231.794 236.884C228.312 237.056 224.011 237.455 221.676 240.349C219.34 243.243 221.617 246.455 224.829 247.328C228.632 248.363 232.418 246.569 235.715 244.882C239.509 242.893 244.509 240.374 248.539 243.3C249.079 243.692 249.601 242.811 249.07 242.42C246.49 240.545 243 240.692 240.091 241.711C236.49 242.966 233.421 245.412 229.678 246.3C227.693 246.888 225.551 246.71 223.7 245.803C221.811 244.727 221.17 242.673 222.553 240.912C224.998 237.92 229.796 237.985 233.354 237.822C236.912 237.659 240.807 237.202 243.472 234.642C243.552 234.543 243.592 234.419 243.584 234.293C243.575 234.168 243.52 234.049 243.427 233.961C243.334 233.872 243.211 233.82 243.081 233.813C242.951 233.806 242.823 233.846 242.721 233.925L242.755 233.933Z" fill="#263238"/>
<path d="M229.677 305.079C236.777 310.582 246.49 311.52 255.048 309.066C264.028 306.481 271.169 300.098 276.127 292.565C278.973 288.136 281.226 283.375 282.83 278.396C283.041 277.777 281.987 277.508 281.81 278.127C279.044 286.484 274.66 294.563 267.974 300.612C261.515 306.441 252.932 309.848 244.028 309.278C239.087 309.028 234.343 307.321 230.436 304.386C229.913 303.979 229.163 304.696 229.694 305.104L229.677 305.079Z" fill="#263238"/>
<path d="M238.084 297.742C242.244 300.458 246.919 302.349 251.84 303.308C256.76 304.266 261.828 304.273 266.751 303.326C273.99 301.812 280.602 298.257 285.751 293.11C290.9 287.963 294.356 281.455 295.68 274.41C295.798 273.774 294.787 273.497 294.669 274.141C293.023 282.867 288.072 290.686 280.782 296.071C276.963 298.845 272.608 300.851 267.974 301.971C263.34 303.091 258.52 303.303 253.8 302.593C248.334 301.819 243.123 299.848 238.565 296.829C238 296.454 237.477 297.334 238.033 297.709L238.084 297.742Z" fill="#263238"/>
<path d="M241.068 230.607L245.672 242.51L292.67 216.177L280.402 203.37L257.063 206.884L241.068 230.607Z" fill="#263238"/>
<path d="M266.844 285.122L278.606 279.448L246.633 236.99L234.736 250.124L240.773 272.201L266.844 285.122Z" fill="#263238"/>
<path d="M285.643 280.681C305.397 277.929 319.104 260.214 316.257 241.113C313.411 222.013 295.089 208.761 275.334 211.513C255.58 214.265 241.874 231.98 244.72 251.081C247.567 270.181 265.889 283.433 285.643 280.681Z" fill="#E0E0E0"/>
<path d="M303.733 256.165C303.733 256.165 303.775 256.034 303.868 255.782L304.281 254.681L304.601 253.866C304.702 253.564 304.778 253.222 304.879 252.863C305.138 252.033 305.336 251.185 305.47 250.328C305.895 247.983 305.955 245.589 305.647 243.227C305.252 240.101 304.244 237.077 302.679 234.316C300.784 230.965 298.105 228.089 294.854 225.919C293.967 225.326 293.037 224.795 292.072 224.33C291.583 224.093 291.102 223.832 290.588 223.62L289.019 223.033C288.758 222.936 288.497 222.821 288.227 222.748L287.384 222.528C286.827 222.389 286.279 222.218 285.697 222.096C284.545 221.873 283.379 221.72 282.207 221.639C281.005 221.562 279.8 221.562 278.598 221.639C277.991 221.68 277.384 221.778 276.768 221.851C276.154 221.915 275.545 222.024 274.947 222.177C273.716 222.438 272.505 222.779 271.321 223.196C270.13 223.665 268.973 224.21 267.856 224.827C265.552 226.076 263.471 227.675 261.693 229.563C257.986 233.458 255.695 238.416 255.167 243.683C254.894 246.221 255.048 248.784 255.622 251.273C255.895 252.488 256.253 253.684 256.693 254.852C257.159 255.973 257.703 257.062 258.32 258.113C258.601 258.646 258.922 259.159 259.281 259.646C259.635 260.135 259.973 260.632 260.344 261.105C261.088 262.019 261.896 262.883 262.763 263.689C263.607 264.481 264.503 265.219 265.445 265.899C265.917 266.233 266.414 266.518 266.895 266.82L267.612 267.268C267.856 267.415 268.109 267.521 268.362 267.652L269.863 268.393C270.36 268.622 270.892 268.793 271.397 268.989C272.399 269.372 273.428 269.688 274.475 269.934C277.98 270.742 281.622 270.823 285.162 270.172C288.702 269.522 292.06 268.154 295.014 266.16C297.044 264.799 298.849 263.15 300.368 261.268C300.943 260.601 301.465 259.892 301.928 259.149C302.139 258.831 302.35 258.545 302.519 258.276L302.932 257.51C303.176 257.062 303.362 256.695 303.505 256.475C303.648 256.254 303.707 256.124 303.707 256.124C303.707 256.124 303.657 256.246 303.539 256.491L303.008 257.551L302.611 258.366C302.451 258.643 302.249 258.937 302.038 259.263C301.582 260.013 301.069 260.73 300.503 261.407C298.993 263.311 297.191 264.98 295.158 266.355C292.181 268.395 288.791 269.799 285.21 270.475C281.63 271.151 277.942 271.084 274.391 270.277C273.327 270.031 272.282 269.715 271.262 269.331C270.748 269.127 270.217 268.956 269.703 268.728L268.177 267.986C267.924 267.855 267.662 267.741 267.418 267.594L266.684 267.138C266.195 266.836 265.689 266.543 265.217 266.209C264.257 265.523 263.344 264.777 262.485 263.975C261.599 263.157 260.774 262.28 260.015 261.35C259.635 260.869 259.298 260.363 258.935 259.866C258.569 259.37 258.24 258.85 257.949 258.309C256.647 256.142 255.719 253.785 255.2 251.33C254.615 248.795 254.456 246.186 254.728 243.602C255.265 238.244 257.598 233.203 261.372 229.246C263.18 227.324 265.298 225.699 267.645 224.436C268.78 223.814 269.957 223.269 271.17 222.805C272.373 222.383 273.604 222.037 274.854 221.77C275.464 221.617 276.084 221.508 276.709 221.444C277.333 221.37 277.949 221.272 278.564 221.232C279.788 221.146 281.017 221.146 282.24 221.232C283.431 221.31 284.614 221.468 285.782 221.705C286.355 221.827 286.92 221.998 287.468 222.137L288.311 222.365C288.589 222.446 288.851 222.561 289.154 222.658L290.74 223.254C291.262 223.474 291.743 223.743 292.24 223.979C293.217 224.459 294.158 225.004 295.057 225.61C298.049 227.627 300.562 230.239 302.429 233.269C304.296 236.3 305.473 239.681 305.883 243.186C306.181 245.567 306.099 247.979 305.638 250.336C305.494 251.198 305.282 252.048 305.006 252.879C304.896 253.246 304.812 253.58 304.702 253.882L304.365 254.697L303.91 255.79C303.8 256.01 303.733 256.165 303.733 256.165Z" fill="#263238"/>
<path d="M288.649 251.683C291.816 247.319 290.725 241.3 286.212 238.237C281.699 235.175 275.473 236.23 272.306 240.594C269.139 244.957 270.23 250.977 274.743 254.039C279.256 257.102 285.482 256.047 288.649 251.683Z" fill="#263238"/>
<path d="M287.012 248.95C286.434 250.201 285.484 251.258 284.284 251.987C283.084 252.717 281.688 253.086 280.271 253.048C278.854 253.01 277.48 252.566 276.324 251.773C275.168 250.98 274.281 249.874 273.775 248.594C273.269 247.313 273.167 245.917 273.482 244.581C273.798 243.244 274.515 242.029 275.545 241.087C276.575 240.145 277.87 239.52 279.268 239.29C280.665 239.06 282.101 239.235 283.395 239.795C285.129 240.547 286.484 241.933 287.162 243.649C287.84 245.366 287.786 247.272 287.012 248.95Z" fill="#37474F"/>
<path d="M302.645 233.868C302.731 233.757 302.83 233.655 302.94 233.566L303.842 232.751L307.215 229.833V230.02C304.801 226.153 301.461 222.904 297.476 220.547C292.981 217.873 288.008 216.037 282.814 215.134H282.679V215.011C282.83 213.732 282.957 212.696 283.05 211.914C283.077 211.545 283.139 211.179 283.235 210.821C283.253 211.191 283.239 211.562 283.193 211.93C283.134 212.745 283.05 213.756 282.949 215.036L282.83 214.889C285.112 215.234 287.355 215.78 289.534 216.52C292.394 217.45 295.132 218.697 297.695 220.237C301.74 222.627 305.102 225.956 307.476 229.922L307.535 230.036L307.442 230.11L303.969 232.922L303.007 233.672C302.78 233.803 302.653 233.884 302.645 233.868Z" fill="#263238"/>
<path d="M314.247 258.097C314.132 258.076 314.022 258.04 313.918 257.991L312.965 257.632L309.592 256.214L309.778 256.14L308.353 259.401C308.054 260.023 307.719 260.627 307.349 261.211C306.978 261.823 306.624 262.483 306.203 263.135C304.244 265.974 301.811 268.479 299.002 270.546C296.094 272.62 292.828 274.18 289.356 275.152C286.749 275.927 284.04 276.339 281.313 276.375H281.186V276.252C281.186 274.85 281.186 273.725 281.136 272.894C281.136 272.535 281.136 272.241 281.136 272.005C281.125 271.902 281.125 271.798 281.136 271.695C281.168 271.793 281.185 271.894 281.186 271.997C281.186 272.241 281.186 272.535 281.245 272.885C281.287 273.701 281.346 274.842 281.414 276.244L281.287 276.122C283.979 276.026 286.645 275.579 289.213 274.793C292.63 273.793 295.842 272.229 298.707 270.171C301.476 268.133 303.885 265.674 305.84 262.891C306.262 262.255 306.624 261.602 306.995 260.999C307.368 260.426 307.705 259.833 308.007 259.222C308.555 258.056 309.053 256.988 309.491 256.043L309.55 255.92L309.668 255.969L313.041 257.502L313.935 257.926C314.154 258.024 314.255 258.081 314.247 258.097Z" fill="#263238"/>
<path d="M255.444 270.88C255.664 270.557 255.903 270.246 256.161 269.951L258.261 267.415V267.586C256.243 265.892 254.508 263.907 253.117 261.7C251.283 258.76 250.033 255.514 249.433 252.129C248.877 249.012 248.744 245.839 249.036 242.689C249.238 240.224 249.695 237.785 250.402 235.409L250.445 235.286H250.571L254.652 236.167L255.74 236.42C255.868 236.439 255.992 236.474 256.111 236.526C255.985 236.544 255.857 236.544 255.731 236.526L254.627 236.346L250.512 235.588L250.681 235.498C250.027 237.865 249.609 240.286 249.433 242.73C249.172 245.844 249.319 248.977 249.871 252.056C250.462 255.392 251.676 258.597 253.455 261.513C254.809 263.7 256.485 265.686 258.429 267.407L258.53 267.497L258.446 267.586L256.254 270.032C256.012 270.339 255.741 270.623 255.444 270.88Z" fill="#263238"/>
<path d="M311.869 249.129L311.026 249.007C312.131 241.89 308.943 235.246 308.91 235.148L309.669 234.806C311.712 239.304 312.472 244.25 311.869 249.129Z" fill="#37474F"/>
<path d="M256.81 230.607C256.81 230.9 256.72 231.187 256.552 231.431C256.383 231.675 256.143 231.866 255.863 231.978C255.583 232.09 255.274 232.12 254.976 232.062C254.679 232.005 254.405 231.864 254.191 231.656C253.976 231.449 253.83 231.184 253.771 230.897C253.711 230.609 253.742 230.31 253.858 230.039C253.974 229.768 254.171 229.536 254.423 229.373C254.676 229.21 254.972 229.123 255.276 229.123C255.683 229.123 256.073 229.28 256.361 229.558C256.649 229.836 256.81 230.214 256.81 230.607Z" fill="#37474F"/>
<path d="M258.598 227.933C259.445 227.933 260.132 227.269 260.132 226.449C260.132 225.63 259.445 224.966 258.598 224.966C257.75 224.966 257.063 225.63 257.063 226.449C257.063 227.269 257.75 227.933 258.598 227.933Z" fill="#37474F"/>
<path d="M264.281 222.805C264.283 223.101 264.194 223.39 264.025 223.636C263.857 223.883 263.616 224.075 263.335 224.189C263.053 224.304 262.742 224.334 262.442 224.278C262.143 224.221 261.867 224.08 261.65 223.871C261.434 223.663 261.286 223.397 261.226 223.107C261.165 222.818 261.195 222.517 261.312 222.244C261.428 221.971 261.626 221.738 261.88 221.573C262.134 221.409 262.433 221.321 262.738 221.321C262.941 221.32 263.141 221.358 263.328 221.432C263.515 221.506 263.685 221.615 263.829 221.753C263.972 221.891 264.086 222.055 264.164 222.236C264.241 222.416 264.281 222.61 264.281 222.805Z" fill="#37474F"/>
<path d="M185.065 275.282L240.782 242.51C240.782 242.51 236.709 257.062 247.131 269.82C257.417 282.416 268.21 285.179 268.21 285.179L214.188 318.604C213.927 308.826 210.572 299.36 204.576 291.481C194.484 278.119 185.065 275.282 185.065 275.282Z" fill="#E0E0E0"/>
<path d="M251.069 274.174L250.892 274.304L250.344 274.671L248.227 276.04L240.394 280.997L228.75 288.334L225.378 290.446C224.229 291.266 222.903 291.824 221.499 292.076C220.003 292.304 218.471 292.131 217.069 291.577C215.667 291.022 214.449 290.106 213.548 288.929C213.093 288.328 212.725 287.67 212.452 286.973C212.194 286.282 212.029 285.561 211.963 284.829C211.849 283.415 212.128 281.997 212.771 280.723C213.415 279.449 214.399 278.364 215.622 277.581C216.786 276.872 217.941 276.228 219.062 275.568L230.968 268.662L239.02 264.04L241.212 262.801L241.794 262.491C241.857 262.452 241.925 262.422 241.996 262.401L241.819 262.532L241.263 262.882L239.104 264.187L231.128 268.923L219.273 275.902C218.16 276.562 217.005 277.214 215.858 277.924C214.718 278.651 213.799 279.658 213.194 280.842C212.558 282.086 212.287 283.475 212.413 284.857C212.538 286.24 213.054 287.562 213.905 288.68C214.755 289.797 215.907 290.667 217.235 291.194C218.562 291.722 220.014 291.886 221.432 291.669C222.78 291.425 224.054 290.89 225.158 290.103L228.531 288.008L240.226 280.777L248.135 275.934L250.293 274.63L250.866 274.304C250.996 274.212 251.063 274.168 251.069 274.174Z" fill="white"/>
<path d="M229.492 309.155C229.513 308.903 229.567 308.653 229.652 308.414C229.804 307.884 229.998 307.199 230.234 306.351L232.401 299.014V298.949H232.46L241.735 292.997C246.794 289.736 251.406 286.85 254.745 284.755C256.381 283.744 257.73 282.921 258.716 282.31L259.812 281.666C259.933 281.579 260.067 281.51 260.209 281.462C260.106 281.565 259.989 281.656 259.863 281.731L258.809 282.448L254.914 285.016C251.617 287.168 247.038 290.12 241.971 293.356L232.696 299.258L232.772 299.161C231.828 302.128 231.035 304.623 230.453 306.441C230.175 307.256 229.947 307.957 229.779 308.479C229.699 308.71 229.604 308.936 229.492 309.155Z" fill="#263238"/>
<path d="M193.278 279.962C193.656 279.662 194.056 279.389 194.475 279.146L197.848 277.011C200.698 275.225 204.652 272.771 209.037 270.097L215.495 266.168L215.411 266.282C216.178 263.241 216.844 260.649 217.325 258.733L217.907 256.589C217.968 256.33 218.05 256.077 218.151 255.831C218.148 256.106 218.108 256.38 218.033 256.646C217.907 257.216 217.755 257.934 217.561 258.814L215.799 266.404V266.478L215.731 266.527L209.256 270.44C204.871 273.114 200.892 275.527 197.991 277.247C196.591 278.062 195.462 278.755 194.551 279.269C194.146 279.532 193.721 279.764 193.278 279.962Z" fill="#263238"/>
<path d="M211.819 174.197L214.487 172.603L213.592 171.202L210.924 172.796L211.819 174.197Z" fill="#E0E0E0"/>
<path d="M215.148 167.923L229.716 159.22L221.614 146.543L207.046 155.246L215.148 167.923Z" fill="#263238"/>
<path d="M215.642 171.915L232.685 161.734L230.704 158.634L213.661 168.815L215.642 171.915Z" fill="#263238"/>
<path d="M212.153 179.404L238.813 163.331L236.7 160.053L210.039 176.126L212.153 179.404Z" fill="#263238"/>
<path d="M223.584 190.11L245.325 177.122L236.811 163.799L215.07 176.787L223.584 190.11Z" fill="#37474F"/>
<path d="M229.223 148.871C230.588 152.882 234.282 155.238 237.654 157.602C239.61 158.839 241.322 160.401 242.713 162.217C244.111 164.296 244.724 166.778 244.45 169.244C244.391 169.896 245.445 169.896 245.504 169.244C245.951 164.589 243.598 160.806 239.931 157.994C236.263 155.181 231.752 153.029 230.234 148.602C230.024 147.982 229.012 148.243 229.223 148.871Z" fill="#263238"/>
<path d="M215.419 175.456C212.331 173.902 209.739 171.562 207.925 168.689C206.111 165.815 205.143 162.518 205.124 159.151C205.108 159.027 205.046 158.913 204.948 158.83C204.851 158.748 204.727 158.702 204.597 158.702C204.468 158.702 204.343 158.748 204.246 158.83C204.149 158.913 204.087 159.027 204.07 159.151C204.09 162.695 205.107 166.168 207.013 169.195C208.918 172.223 211.641 174.692 214.888 176.336C215.487 176.638 216.026 175.758 215.419 175.456Z" fill="#263238"/>
<path d="M239.905 234.969L215.04 182.255C223.328 183.633 229.155 181.782 229.66 173.002L242.982 164.442L283.117 204.56C273.034 205.341 263.441 209.091 255.63 215.305C242.333 225.756 239.905 234.969 239.905 234.969Z" fill="#E0E0E0"/>
<path d="M234.872 169.668C234.932 169.718 234.986 169.775 235.032 169.839L235.462 170.353L237.064 172.358L242.915 179.769L251.532 190.799C252.376 191.842 253.177 192.902 254.02 193.995C254.962 195.065 255.785 196.229 256.473 197.467C257.093 198.853 257.295 200.379 257.057 201.87C256.818 203.362 256.148 204.758 255.124 205.897C254.605 206.475 254 206.975 253.328 207.381C252.671 207.795 251.952 208.109 251.195 208.31C249.715 208.718 248.147 208.718 246.667 208.31C245.238 207.919 243.947 207.158 242.932 206.109C242.461 205.601 242.035 205.056 241.659 204.479L240.512 202.848L232.502 191.394L227.131 183.649L225.689 181.53L225.327 180.975C225.28 180.916 225.243 180.85 225.217 180.78C225.272 180.831 225.32 180.888 225.361 180.951C225.47 181.089 225.597 181.269 225.765 181.481L227.275 183.559L232.755 191.223L240.841 202.636L241.996 204.267C242.36 204.833 242.777 205.366 243.244 205.856C244.226 206.865 245.478 207.591 246.86 207.955C248.242 208.319 249.702 208.306 251.077 207.919C252.515 207.509 253.802 206.712 254.787 205.62C255.756 204.541 256.39 203.22 256.618 201.809C256.847 200.397 256.659 198.952 256.077 197.639C255.403 196.428 254.603 195.286 253.691 194.231L251.22 191.035L242.671 179.948L236.937 172.456L235.394 170.402L235.006 169.863L234.872 169.668Z" fill="white"/>
<path d="M272.772 194.207C272.465 194.2 272.16 194.162 271.861 194.092L269.332 193.644L260.428 191.957H260.352L260.31 191.899C258.48 189.527 256.389 186.804 254.163 183.926L244.61 171.38L241.752 167.54L240.993 166.488C240.898 166.366 240.816 166.235 240.749 166.097C240.749 166.097 240.867 166.203 241.061 166.431L241.904 167.442L244.88 171.201C247.41 174.461 250.782 178.847 254.543 183.706L260.647 191.704L260.529 191.639L269.408 193.473L271.937 194.019C272.219 194.064 272.498 194.126 272.772 194.207Z" fill="#263238"/>
<path d="M247.705 222.887C247.705 222.887 247.511 222.716 247.207 222.349C246.904 221.982 246.482 221.444 245.959 220.767C244.922 219.414 243.489 217.506 241.887 215.346L242.03 215.435L240.563 215.183C237.519 214.653 234.762 214.156 232.772 213.772C231.777 213.585 230.968 213.422 230.412 213.3C230.122 213.257 229.839 213.18 229.568 213.071C229.865 213.056 230.163 213.078 230.454 213.136C231.019 213.21 231.828 213.324 232.831 213.479C234.838 213.789 237.604 214.237 240.648 214.767L242.115 215.02H242.199L242.25 215.085C243.843 217.253 245.226 219.161 246.212 220.588C246.701 221.281 247.056 221.851 247.342 222.218C247.496 222.423 247.618 222.648 247.705 222.887Z" fill="#263238"/>
<path d="M231.819 166.342C231.718 166.399 231.271 165.885 230.824 165.184C230.378 164.483 230.099 163.871 230.2 163.806C230.302 163.741 230.749 164.263 231.195 164.964C231.642 165.665 231.921 166.276 231.819 166.342Z" fill="#455A64"/>
<path d="M226.069 169.839C225.968 169.896 225.47 169.301 224.964 168.502C224.458 167.703 224.121 167.018 224.231 166.953C224.34 166.888 224.829 167.483 225.335 168.282C225.841 169.081 226.17 169.749 226.069 169.839Z" fill="#455A64"/>
<path d="M220.066 173.239C219.964 173.296 219.475 172.717 218.978 171.934C218.48 171.152 218.135 170.459 218.253 170.402C218.371 170.345 218.851 170.923 219.349 171.706C219.846 172.489 220.217 173.173 220.066 173.239Z" fill="#455A64"/>
<path d="M233.63 161.174L236.298 159.58L235.403 158.179L232.734 159.773L233.63 161.174Z" fill="#E0E0E0"/>
<path d="M237.165 159.216C236.851 159.464 236.515 159.685 236.161 159.877L233.362 161.548L224.087 167.018L214.863 172.554L212.064 174.225C211.736 174.451 211.382 174.639 211.01 174.788C211.308 174.527 211.63 174.292 211.971 174.086C212.612 173.654 213.539 173.043 214.703 172.301C217.013 170.817 220.251 168.812 223.86 166.66C227.468 164.507 230.782 162.583 233.193 161.287C234.399 160.619 235.386 160.089 236.069 159.73C236.417 159.527 236.784 159.355 237.165 159.216Z" fill="#455A64"/>
<path d="M230.495 158.882C229.74 159.442 228.942 159.946 228.109 160.39L222.249 163.88L216.406 167.385C215.622 167.906 214.799 168.369 213.944 168.771C214.661 168.168 215.428 167.623 216.237 167.141C217.696 166.179 219.736 164.891 222.021 163.529C224.306 162.168 226.414 160.969 227.923 160.146C228.742 159.655 229.603 159.233 230.495 158.882Z" fill="#455A64"/>
<path d="M240.586 188.621L240.838 188.457C241.095 188.29 241.384 188.173 241.688 188.114C241.992 188.054 242.305 188.053 242.609 188.11C242.914 188.168 243.203 188.283 243.462 188.448C243.72 188.614 243.942 188.827 244.115 189.076L249.384 196.643C249.735 197.147 249.865 197.766 249.744 198.362C249.624 198.958 249.263 199.484 248.742 199.823L248.49 199.987C247.971 200.325 247.334 200.45 246.719 200.334C246.105 200.218 245.563 199.87 245.213 199.368L239.944 191.801C239.769 191.552 239.647 191.271 239.585 190.976C239.523 190.681 239.521 190.377 239.581 190.082C239.641 189.786 239.76 189.505 239.933 189.254C240.105 189.004 240.328 188.789 240.586 188.621Z" fill="#37474F"/>
<path d="M166.752 130.235L151.913 119.327L155.859 112.552L171.137 122.408L166.752 130.235Z" fill="#263238"/>
<path d="M176.938 71.3009L183.202 79.9343L190.951 93.7119L195.791 106.038L205.226 103.968L202.578 96.231L192.958 79.2576L183.843 66.3361L176.938 71.3009Z" fill="#263238"/>
<path d="M171.137 93.6711C171.137 93.6711 183.784 112.683 184.121 112.495C184.459 112.308 194.29 106.927 194.29 106.927L178.759 88.3476L171.137 93.6711Z" fill="#263238"/>
<path d="M158.127 104.701L174.122 120.484L182.595 113.188L164.147 97.8696L151.871 88.3476L145.673 95.4809L158.127 104.701Z" fill="#263238"/>
<path d="M219.981 122.253C217.233 122.074 214.602 116.033 213.32 113.677C211.853 110.979 210.285 107.367 208.607 105.288L196.39 109.536C186.739 114.535 178.131 121.221 171.002 129.256C170.218 129.976 169.707 130.929 169.552 131.963C169.606 132.882 169.954 133.762 170.547 134.482C173.434 138.702 177.238 142.263 181.693 144.917C182.666 145.574 183.794 145.983 184.973 146.107C186.66 146.181 188.127 145.243 189.493 144.346L210.496 130.618C211.921 129.68 228.514 132.697 229.307 131.213C230.377 129.199 230.108 122.906 219.981 122.253Z" fill="#263238"/>
<path d="M224.947 102.305C224.947 102.305 227.831 108.329 228.556 110.514C229.281 112.699 226.136 117.378 226.136 117.378L219.391 116.946L217.797 112.055L215.698 108.598L224.947 102.305Z" fill="#263238"/>
<path d="M230.959 152.629C231.052 152.018 230.959 147.616 230.715 144.289C230.47 140.963 231.802 133.006 231.726 130.61C231.726 130.61 217.62 129.199 216.819 128.408C216.018 127.618 211.575 124.014 209.585 124.503C207.595 124.993 177.258 144.371 176.946 144.558C176.634 144.746 194.088 164.638 198.624 167.907C203.16 171.176 203.986 169.994 203.986 169.994C203.986 169.994 201.617 164.035 203.641 161.572C205.664 159.11 208.388 157.072 215.006 157.985C221.625 158.898 222.755 159.754 226.465 157.676C228.568 156.602 230.173 154.799 230.959 152.629Z" fill="#E0E0E0"/>
<path d="M206.575 102.94C206.575 102.94 211.735 110.106 210.791 112.919C209.846 115.732 199.501 120.354 188.607 128.074C180.175 134.042 175.319 139.871 173.869 139.806C172.418 139.74 166.794 131.596 166.483 131.025C165.251 128.808 171.339 119.555 179.923 113.351C188.506 107.147 204.939 101.538 206.575 102.94Z" fill="#E0E0E0"/>
<path d="M179.383 57.8087C176.601 55.2652 172.958 57.0424 172.958 57.0424C170.901 58.2652 170.125 60.9392 171.339 63.4828C172.553 66.0263 176.322 72.9559 176.837 72.9151C180.994 71.6841 184.324 70.0047 186.449 67.6568C186.491 67.6568 181.66 59.8794 179.383 57.8087Z" fill="#E0E0E0"/>
<path d="M187.671 70.7384L179.687 75.8173C179.561 75.8928 179.452 75.9919 179.366 76.1089C179.281 76.2259 179.221 76.3583 179.189 76.4982C179.158 76.6382 179.156 76.7828 179.183 76.9236C179.211 77.0643 179.267 77.1982 179.349 77.3174C180.876 79.543 184.796 85.2497 186.297 87.4508C186.472 87.697 186.733 87.8737 187.032 87.9486C187.331 88.0235 187.648 87.9915 187.924 87.8584C189.147 87.2796 191.145 86.3176 192.216 85.7388C194.147 84.6953 196.516 83.179 196.516 81.9561C196.516 80.7332 191.457 73.8037 189.417 71.0319C189.218 70.7784 188.928 70.6071 188.604 70.5527C188.28 70.4982 187.947 70.5646 187.671 70.7384Z" fill="#E0E0E0"/>
<path d="M198.657 85.4861C198.47 85.2899 198.22 85.1606 197.948 85.1192C197.676 85.0777 197.397 85.1266 197.156 85.2578C194.627 86.4888 187.688 89.9781 187.646 90.671C187.587 91.4863 192.224 100.266 193.818 101.546C195.411 102.826 205.327 98.3913 205.048 96.8424C204.804 95.4483 200.824 88.0541 198.657 85.4861Z" fill="#E0E0E0"/>
<path d="M151.5 66.76C151.854 66.5073 155.125 64.5915 158.295 66.7111C161.466 68.8307 166.221 73.07 166.55 74.2602C166.879 75.4505 167.241 77.7005 165.53 78.8093C163.818 79.918 159.628 83.2279 158.785 82.7876C157.941 82.3474 156.508 81.3854 153.877 78.0755C151.247 74.7657 146.769 70.1759 151.5 66.76Z" fill="#E0E0E0"/>
<path d="M166.811 75.7521C166.811 75.7521 168.885 77.0076 168.953 77.5212C169.02 78.0348 169.745 79.437 168.557 80.505C167.042 81.6535 165.441 82.6917 163.767 83.611C163.476 83.8542 163.118 84.0112 162.737 84.0632C162.356 84.1153 161.967 84.0602 161.617 83.9045L159.847 82.5594L166.811 75.7521Z" fill="#263238"/>
<path d="M182.57 91.2743C182.904 91.219 183.248 91.2683 183.551 91.4149C183.854 91.5615 184.101 91.7979 184.256 92.0895C185.015 93.1494 191.541 100.674 191.297 101.693C191.052 102.712 181.179 108.614 180.572 108.125C179.964 107.636 173.32 98.5462 173.624 97.5761C173.927 96.606 182.14 91.2825 182.57 91.2743Z" fill="#E0E0E0"/>
<path d="M168.362 100.862C168.615 100.804 168.969 100.177 170.049 101.147C171.128 102.117 178.017 107.669 178.185 109.144C178.354 110.62 172.207 117.378 170.487 116.759C168.767 116.139 163.691 111.248 161.938 109.014C161.938 109.014 161.17 108.036 161.592 107.383C161.921 106.878 168.362 100.862 168.362 100.862Z" fill="#E0E0E0"/>
<path d="M165.951 98.2038C165.842 97.8125 157.41 91.2743 155.909 91.0379C155.252 90.94 150.589 95.4728 150.319 96.9728C150.145 97.7297 150.168 98.5168 150.388 99.2627C150.607 100.009 151.015 100.69 151.575 101.245C152.924 102.785 157.916 106.731 159.383 105.932C160.85 105.133 164.923 101.22 164.923 101.22C164.923 101.22 166.407 99.7854 165.951 98.2038Z" fill="#E0E0E0"/>
<path d="M145.176 83.9045C142.343 82.967 139.569 83.717 138.43 86.0486C137.292 88.3802 139.088 91.3395 140.42 92.8314C141.752 94.3233 145.066 96.9076 146.997 96.8098C149.029 95.7581 151.963 92.3504 153.186 89.6275C153.288 89.3819 153.302 89.1102 153.226 88.8559C153.149 88.6017 152.987 88.3796 152.764 88.2253C150.395 86.5364 147.852 85.0885 145.176 83.9045Z" fill="#E0E0E0"/>
<path d="M147.57 108.655L147.908 108.46C147.908 108.46 154.763 110.604 156.112 111.965C157.461 113.327 156.01 115.405 155.741 116.041C155.471 116.677 153.338 120.501 152.056 120.501C150.038 120.335 148.115 119.601 146.525 118.389C145.816 117.858 145.143 117.283 144.51 116.669L147.57 108.655Z" fill="#E0E0E0"/>
<path d="M159.096 113.93C159.444 113.756 159.836 113.679 160.226 113.71C160.698 113.816 168.455 118.805 168.995 119.775C169.535 120.745 168.902 122.147 168.203 123.484C167.503 124.821 164.569 128.669 163.388 128.523C162.208 128.376 155.58 123.468 154.897 122.571C154.698 122.314 154.554 122.02 154.476 121.708C154.398 121.395 154.386 121.07 154.442 120.753L159.096 113.93Z" fill="#E0E0E0"/>
<path d="M214.821 89.1791C215.965 89.4456 216.999 90.0394 217.789 90.883C219.062 92.2689 226.423 103.544 226.423 103.544C226.423 103.544 226.423 105.476 222.78 107.75C221.271 108.696 216.33 110.375 216.33 110.375C216.33 110.375 213.64 106.927 211.861 104C210.082 101.074 208.657 95.8886 209.905 93.0189C211.153 90.1493 213.522 88.9346 214.821 89.1791Z" fill="#E0E0E0"/>
<path d="M227.89 106.715C227.89 106.715 225.63 109.283 224.189 109.837C222.747 110.392 217.443 111.941 217.443 111.941L217.941 118.992C217.941 118.992 216.507 123.77 216.659 124.12C216.811 124.471 229.475 128.645 230.15 127.936C230.824 127.226 231.735 120.02 231.625 117.623C231.516 115.226 227.89 106.715 227.89 106.715Z" fill="#E0E0E0"/>
<path d="M168.978 78.0511C169.256 77.8382 169.605 77.7321 169.958 77.7531C170.312 77.7742 170.644 77.921 170.892 78.1652C173.076 80.3175 178.481 85.7144 179.004 86.4725C179.619 87.4345 180.184 88.5677 178.557 90.1167C176.93 91.6656 173.043 95.057 171.381 94.9103C169.72 94.7635 161.635 87.0432 161.618 85.3149C161.618 83.3339 165.783 80.5783 165.783 80.5783C166.788 79.6675 167.856 78.8232 168.978 78.0511Z" fill="#E0E0E0"/>
<g opacity="0.3">
<path d="M145.943 118.291C146.931 118.239 147.896 117.979 148.769 117.53C149.643 117.081 150.405 116.453 151.002 115.691C151.62 114.961 151.963 114.05 151.972 113.106C151.893 112.117 151.443 111.189 150.707 110.498C149.977 109.811 149.161 109.214 148.279 108.72" fill="black"/>
</g>
<path d="M147.52 108.288C149.012 108.753 151.381 111.843 150.8 113.424C150.218 115.006 146.525 118.218 144.897 118.658C143.27 119.098 140.58 117.525 139.172 116.441C137.764 115.357 137.924 113.498 139.08 112.177C140.235 110.856 145.715 107.718 147.52 108.288Z" fill="#E0E0E0"/>
<g opacity="0.3">
<path d="M142.435 109.805C142.703 109.849 142.959 109.943 143.189 110.083C143.42 110.223 143.619 110.406 143.776 110.62C144.157 111.051 144.416 111.571 144.526 112.128C144.672 112.81 144.608 113.519 144.341 114.166C144.1 114.746 143.736 115.269 143.27 115.702C142.805 116.135 142.25 116.467 141.643 116.677C141.161 116.893 140.62 116.953 140.1 116.848C140.1 116.775 140.69 116.767 141.525 116.4C142.613 115.931 143.473 115.076 143.928 114.011C144.146 113.488 144.224 112.92 144.155 112.36C144.085 111.8 143.871 111.266 143.531 110.807C142.983 110.074 142.401 109.878 142.435 109.805Z" fill="black"/>
</g>
<g opacity="0.3">
<path d="M148.624 115.943C147.743 116.131 146.828 116.121 145.951 115.913C145.074 115.705 144.258 115.306 143.565 114.745C143.633 114.639 144.662 115.177 146.044 115.495C147.427 115.813 148.616 115.846 148.624 115.943Z" fill="black"/>
</g>
<g opacity="0.3">
<path d="M154.315 117.802C152.431 117.596 150.662 116.823 149.256 115.593C150.129 115.897 150.974 116.268 151.786 116.702C152.656 117.007 153.501 117.375 154.315 117.802Z" fill="black"/>
</g>
<g opacity="0.3">
<path d="M166.128 125.588C165.533 125.427 164.964 125.182 164.442 124.862C163.139 124.179 161.888 123.408 160.698 122.555C159.506 121.7 158.378 120.763 157.326 119.751C156.864 119.355 156.463 118.896 156.137 118.389C156.238 118.3 158.211 120.215 160.976 122.196C163.742 124.177 166.187 125.474 166.128 125.588Z" fill="black"/>
</g>
<g opacity="0.3">
<path d="M146.255 84.6138C146.261 85.1128 146.158 85.6073 145.952 86.0649C145.537 87.1977 144.899 88.2416 144.071 89.1384C143.251 90.0437 142.254 90.7834 141.137 91.315C140.692 91.5645 140.198 91.7226 139.687 91.7797C141.195 91.0278 142.565 90.0419 143.743 88.8612C144.813 87.5864 145.661 86.1519 146.255 84.6138Z" fill="black"/>
</g>
<g opacity="0.3">
<path d="M149.569 94.3967C148.389 93.8394 147.31 93.1016 146.373 92.2118C145.339 91.429 144.444 90.4871 143.726 89.4237C144.755 90.1791 145.735 90.9959 146.66 91.8694C147.68 92.6558 148.651 93.4996 149.569 94.3967Z" fill="black"/>
</g>
<g opacity="0.3">
<path d="M161.634 103.275C161.035 103.057 160.468 102.764 159.948 102.402C158.647 101.601 157.407 100.71 156.238 99.7365C155.065 98.7714 153.968 97.7222 152.958 96.5978C152.509 96.1553 152.123 95.6563 151.812 95.1141C151.913 95.0244 153.801 97.1685 156.525 99.4185C159.248 101.669 161.71 103.161 161.634 103.275Z" fill="black"/>
</g>
<g opacity="0.3">
<path d="M172.915 114.313C172.341 114.045 171.808 113.702 171.33 113.294C168.911 111.448 166.806 109.248 165.091 106.772C164.698 106.275 164.38 105.726 164.146 105.142C164.265 105.076 165.833 107.424 168.27 109.935C170.706 112.446 173 114.223 172.915 114.313Z" fill="black"/>
</g>
<g opacity="0.3">
<path d="M158.515 67.2899C158.462 67.7984 158.298 68.2903 158.034 68.7329C157.46 69.8404 156.642 70.8124 155.636 71.5801C154.631 72.3479 153.463 72.8927 152.216 73.176C151.708 73.3245 151.172 73.3607 150.648 73.2819C150.648 73.2167 151.238 73.1515 152.14 72.8825C154.499 72.1742 156.502 70.6466 157.764 68.5943C157.979 68.1414 158.23 67.7053 158.515 67.2899Z" fill="black"/>
</g>
<g opacity="0.3">
<path d="M163.111 79.8039C161.577 78.7234 160.164 77.4912 158.895 76.1271C157.548 74.8485 156.342 73.4388 155.294 71.9205C156.691 73.1451 158.019 74.4404 159.274 75.801C160.624 77.0698 161.905 78.4059 163.111 79.8039Z" fill="black"/>
</g>
<g opacity="0.3">
<path d="M175.411 92.3586C174.761 91.9847 174.159 91.5388 173.615 91.0297C170.874 88.7122 168.467 86.0498 166.457 83.1137C166.01 82.5223 165.631 81.8853 165.327 81.2142C165.836 81.7499 166.299 82.3252 166.71 82.9344C167.553 84.0186 168.708 85.4779 170.083 87.0106C171.457 88.5432 172.814 89.8721 173.809 90.8014C174.384 91.2798 174.92 91.8004 175.411 92.3586Z" fill="black"/>
</g>
<g opacity="0.3">
<path d="M186.246 105.818C184.617 104.137 183.093 102.362 181.685 100.503C180.164 98.7252 178.756 96.8604 177.469 94.9184C179.099 96.6019 180.623 98.3797 182.03 100.242C183.552 102.016 184.96 103.878 186.246 105.818Z" fill="black"/>
</g>
<g opacity="0.3">
<path d="M199.222 100.495C198.76 100.025 198.355 99.5052 198.016 98.9457C197.325 97.9511 196.406 96.5652 195.436 95C194.467 93.4347 193.632 91.9999 193.058 90.9238C192.708 90.3702 192.425 89.7793 192.215 89.1628C192.648 89.6665 193.024 90.213 193.337 90.7933L195.816 94.7798L198.295 98.8234C198.662 99.3484 198.973 99.9084 199.222 100.495Z" fill="black"/>
</g>
<g opacity="0.3">
<path d="M190.749 85.7796C190.22 85.3094 189.753 84.7783 189.358 84.198C188.33 82.8578 187.378 81.4644 186.508 80.024C185.635 78.5844 184.847 77.0983 184.147 75.5728C183.823 74.9551 183.571 74.3043 183.396 73.6325C183.796 74.2039 184.141 74.8097 184.425 75.4423C185.024 76.5755 185.875 78.1326 186.887 79.812C187.899 81.4914 188.885 82.9588 189.611 84.0268C190.043 84.5776 190.423 85.1641 190.749 85.7796Z" fill="black"/>
</g>
<g opacity="0.3">
<path d="M179.046 58.7951C179.021 59.2836 178.861 59.7567 178.582 60.1647C178.001 61.2126 177.114 62.0721 176.032 62.636C174.949 63.2 173.719 63.4434 172.495 63.336C171.988 63.3344 171.491 63.2051 171.053 62.961C171.053 62.8958 171.618 63.0344 172.511 63.0425C173.668 63.0372 174.806 62.7572 175.825 62.2273C176.853 61.6951 177.724 60.9178 178.355 59.969C178.801 59.2924 178.978 58.7706 179.046 58.7951Z" fill="black"/>
</g>
<g opacity="0.3">
<path d="M181.103 71.3743C180.077 69.9998 179.175 68.5434 178.405 67.0209C177.505 65.5655 176.729 64.0413 176.086 62.4637C177.111 63.8382 178.014 65.2946 178.784 66.8171C179.68 68.2746 180.455 69.7984 181.103 71.3743Z" fill="black"/>
</g>
<g opacity="0.3">
<path d="M218.86 92.3015C218.631 92.8137 218.327 93.2914 217.958 93.72C217.158 94.8292 216.211 95.8323 215.142 96.7038C214.053 97.5834 212.755 98.1859 211.364 98.4566C210.795 98.5999 210.197 98.5999 209.627 98.4566C209.627 98.3832 210.294 98.4566 211.314 98.1712C212.622 97.8283 213.839 97.2165 214.88 96.3777C215.921 95.5242 216.873 94.574 217.722 93.5407C218.051 93.0869 218.433 92.6712 218.86 92.3015Z" fill="black"/>
</g>
<g opacity="0.3">
<path d="M219.535 108.802C218.261 107.073 217.106 105.264 216.078 103.389C214.922 101.583 213.894 99.7034 213 97.7636C214.276 99.4915 215.431 101.3 216.457 103.177C217.612 104.983 218.64 106.862 219.535 108.802Z" fill="black"/>
</g>
<g opacity="0.3">
<path d="M221.448 125.164C221.423 124.486 221.452 123.808 221.532 123.134C221.628 121.505 221.628 119.872 221.532 118.242C221.424 116.621 221.219 115.007 220.917 113.408C220.749 112.749 220.636 112.079 220.58 111.403C220.882 112.019 221.098 112.671 221.22 113.343C222.013 116.544 222.221 119.855 221.836 123.126C221.805 123.819 221.675 124.505 221.448 125.164Z" fill="black"/>
</g>
<g opacity="0.3">
<path d="M181.845 127.112C181.768 126.525 181.768 125.931 181.845 125.343C181.912 124.251 182.056 122.751 182.283 121.104C182.511 119.457 182.772 117.965 183 116.897C183.078 116.311 183.231 115.736 183.455 115.185C183.582 115.185 183.169 117.867 182.722 121.161C182.275 124.455 181.963 127.12 181.845 127.112Z" fill="black"/>
</g>
<g opacity="0.3">
<path d="M185.352 123.281C185.317 121.825 185.427 120.37 185.681 118.935C185.794 117.48 186.054 116.038 186.457 114.631C186.487 116.089 186.374 117.547 186.119 118.984C186.007 120.437 185.75 121.876 185.352 123.281Z" fill="black"/>
</g>
<g opacity="0.3">
<path d="M204.695 158.988C204.635 158.895 204.589 158.793 204.56 158.687C204.484 158.483 204.366 158.189 204.248 157.798C203.903 156.688 203.644 155.554 203.472 154.407C202.89 150.608 203.168 146.732 204.286 143.047C205.404 139.362 207.335 135.956 209.948 133.064C210.729 132.191 211.575 131.373 212.477 130.618C212.789 130.349 213.059 130.161 213.236 130.031C213.413 129.9 213.506 129.835 213.523 129.851C213.229 130.165 212.917 130.462 212.587 130.74C211.734 131.537 210.926 132.378 210.167 133.259C207.654 136.163 205.788 139.537 204.687 143.17C203.586 146.804 203.273 150.618 203.767 154.374C203.909 155.513 204.121 156.642 204.4 157.757C204.53 158.16 204.628 158.571 204.695 158.988Z" fill="black"/>
</g>
<path d="M160.488 116.188L160.453 116.234C160.323 116.405 160.361 116.644 160.537 116.77L162.396 118.096C162.572 118.221 162.82 118.185 162.95 118.015L162.985 117.969C163.115 117.799 163.078 117.559 162.901 117.433L161.042 116.107C160.866 115.982 160.618 116.018 160.488 116.188Z" fill="#37474F"/>
<path d="M169.684 103.403L169.645 103.446C169.498 103.602 169.51 103.845 169.672 103.987L171.382 105.488C171.544 105.631 171.795 105.619 171.942 105.462L171.982 105.42C172.129 105.263 172.117 105.021 171.955 104.879L170.244 103.377C170.082 103.235 169.832 103.247 169.684 103.403Z" fill="#37474F"/>
<path d="M183.455 93.9262L183.41 93.9625C183.241 94.097 183.217 94.3385 183.356 94.5019L184.824 96.2262C184.964 96.3896 185.213 96.413 185.382 96.2785L185.428 96.2422C185.597 96.1077 185.621 95.8662 185.482 95.7028L184.013 93.9785C183.874 93.8151 183.624 93.7917 183.455 93.9262Z" fill="#37474F"/>
<path d="M161.87 71.5674L161.829 71.6084C161.676 71.7603 161.68 72.0028 161.837 72.1502L163.496 73.7052C163.653 73.8525 163.904 73.8488 164.056 73.6969L164.097 73.6559C164.25 73.504 164.246 73.2614 164.089 73.1141L162.43 71.5591C162.273 71.4117 162.022 71.4155 161.87 71.5674Z" fill="#37474F"/>
<path d="M198.68 88.1618L198.629 88.1903C198.439 88.2961 198.373 88.5312 198.482 88.7153L199.637 90.6586C199.747 90.8427 199.99 90.9062 200.18 90.8004L200.232 90.7719C200.422 90.6661 200.488 90.431 200.378 90.2469L199.223 88.3036C199.114 88.1195 198.871 88.056 198.68 88.1618Z" fill="#37474F"/>
<path d="M190.749 75.2548C190.749 75.3867 190.695 75.5132 190.598 75.6065C190.502 75.6997 190.371 75.7521 190.235 75.7521C190.133 75.7521 190.033 75.723 189.949 75.6683C189.864 75.6137 189.798 75.536 189.759 75.4451C189.72 75.3543 189.71 75.2543 189.73 75.1578C189.75 75.0613 189.799 74.9727 189.871 74.9032C189.943 74.8336 190.034 74.7863 190.134 74.7671C190.234 74.7479 190.337 74.7577 190.431 74.7954C190.525 74.833 190.606 74.8968 190.662 74.9785C190.719 75.0603 190.749 75.1565 190.749 75.2548Z" fill="#37474F"/>
<path d="M191.769 76.5347C191.769 76.6666 191.715 76.7931 191.618 76.8864C191.522 76.9796 191.391 77.032 191.255 77.032C191.118 77.032 190.987 76.9796 190.891 76.8864C190.794 76.7931 190.74 76.6666 190.74 76.5347C190.74 76.4029 190.794 76.2764 190.891 76.1831C190.987 76.0898 191.118 76.0374 191.255 76.0374C191.391 76.0374 191.522 76.0898 191.618 76.1831C191.715 76.2764 191.769 76.4029 191.769 76.5347Z" fill="#37474F"/>
<path d="M161.474 70.6569C161.487 70.7548 161.469 70.8543 161.424 70.9426C161.378 71.0308 161.306 71.1039 161.217 71.1524C161.128 71.2009 161.026 71.2227 160.924 71.2151C160.822 71.2074 160.725 71.1706 160.645 71.1093C160.565 71.048 160.505 70.9651 160.474 70.871C160.443 70.777 160.442 70.6761 160.47 70.5812C160.498 70.4863 160.555 70.4017 160.634 70.3383C160.712 70.2748 160.808 70.2353 160.909 70.2248C161.043 70.2109 161.178 70.2485 161.283 70.3292C161.389 70.41 161.457 70.5277 161.474 70.6569Z" fill="#37474F"/>
<path d="M148.953 87.9889C148.951 88.1201 148.896 88.2454 148.8 88.3382C148.704 88.431 148.574 88.4841 148.439 88.4862C148.302 88.4862 148.171 88.4338 148.075 88.3405C147.979 88.2473 147.924 88.1208 147.924 87.9889C147.924 87.857 147.979 87.7305 148.075 87.6372C148.171 87.544 148.302 87.4916 148.439 87.4916C148.575 87.4916 148.706 87.544 148.802 87.6372C148.899 87.7305 148.953 87.857 148.953 87.9889Z" fill="#37474F"/>
<path d="M214.138 116.392C214.02 116.49 213.893 116.577 213.759 116.653L212.621 117.346L208.405 119.857C204.889 121.993 200.074 125.025 194.914 128.572C189.754 132.118 185.21 135.534 181.972 138.045L178.144 141.045L177.098 141.86C176.978 141.959 176.848 142.047 176.71 142.121C176.807 142 176.917 141.891 177.039 141.795L178.034 140.922C178.877 140.172 180.176 139.113 181.769 137.825C184.965 135.248 189.484 131.8 194.661 128.237C199.838 124.675 204.687 121.715 208.253 119.612C210.032 118.569 211.491 117.753 212.511 117.166L213.683 116.547C213.826 116.473 213.979 116.421 214.138 116.392Z" fill="#455A64"/>
<path d="M219.777 284.462L219.607 284.218C219.255 283.714 219.124 283.095 219.244 282.498C219.364 281.901 219.725 281.374 220.246 281.034L228.077 275.925C228.599 275.585 229.239 275.459 229.856 275.575C230.474 275.691 231.019 276.04 231.371 276.544L231.541 276.787C231.714 277.036 231.835 277.316 231.897 277.61C231.959 277.904 231.961 278.207 231.902 278.502C231.842 278.796 231.724 279.077 231.552 279.327C231.381 279.577 231.16 279.793 230.903 279.96L223.079 285.064C222.822 285.232 222.533 285.35 222.229 285.409C221.924 285.469 221.611 285.471 221.306 285.413C221.002 285.356 220.712 285.241 220.453 285.076C220.194 284.91 219.971 284.697 219.798 284.448L219.777 284.462Z" fill="#37474F"/>
</svg>
