<svg width="235" height="201" viewBox="0 0 235 201" fill="none" xmlns="http://www.w3.org/2000/svg">
<path d="M220.58 164.8C220.096 160.954 213.368 166.726 213.368 166.726C214.277 164.427 214.766 161.984 214.809 159.513C214.809 155.667 210.022 160.47 210.022 160.47C210.022 160.47 213.389 154.221 212.91 147.492C212.431 140.764 205.214 148.455 205.214 148.455C205.214 148.455 208.102 138.349 208.58 135.471C209.059 132.594 195.118 138.838 195.118 138.838C195.118 138.838 196.081 134.508 196.56 130.184C196.81 127.971 194.432 128.892 192.028 130.322C191.496 128.397 190.076 128.264 188.496 128.865C188.597 128.386 188.709 127.865 188.831 127.307C189.363 124.716 185.672 127.636 182.602 130.397C182.231 127.033 180.709 123.901 178.294 121.53C175.97 119.206 173.464 121.796 171.379 125.434L167.927 126.498C167.885 125.828 167.816 125.136 167.715 124.424C167.092 120.073 163.459 124.764 160.965 128.626L158.305 129.445C157.88 126.721 156.837 122.748 154.274 119.615C149.949 114.328 139.848 129.232 139.848 129.232C139.848 129.232 133.599 119.126 131.194 124.445C128.79 129.764 132.157 140.795 132.157 140.795C132.157 140.795 130.716 136.945 128.796 136.008C126.875 135.072 121.583 139.37 121.583 139.37C121.583 139.37 124.466 132.641 121.583 130.237C118.971 128.062 115.583 135.711 114.956 137.2C115.397 136.072 117.083 131.189 115.812 124.466C114.37 116.775 108.599 126.87 108.599 126.87C108.599 126.87 109.562 117.254 104.275 115.812C98.9879 114.371 106.679 115.812 101.387 125.429C96.0944 135.046 98.0252 118.7 90.3286 119.658C82.632 120.615 84.5628 149.471 84.5628 149.471L54.2286 132.12C54.2286 132.12 52.7871 129.232 47.9043 128.36C43.0215 127.487 46.0586 135.014 46.0586 135.014C46.0586 135.014 39.3248 128.764 36.4419 128.764C35.6919 128.764 33.3888 132.099 30.3889 137.035C30.1708 136.53 29.9474 136.014 29.7133 135.492C27.8889 131.487 26.3464 140.444 25.7028 145.024L25.1709 145.944C24.7826 143.684 23.6497 139.801 20.5753 139.801C16.852 139.801 18.8254 152.63 19.4477 156.194V156.237C18.969 154.21 17.5914 149.322 15.3095 148.934C12.4266 148.455 14.8255 159.513 14.8255 159.513C14.8255 159.513 12.9053 158.072 11.4639 158.072C10.4001 158.072 11.8734 164.779 12.767 168.55C9.73521 174.188 7.67676 178.098 7.67676 178.098L26.8251 167.688H127.455L122.588 174.422H218.639C218.639 174.422 221.059 168.656 220.58 164.8Z" fill="black"/>
<path d="M104.36 174.31H107.855L109.983 97.1851L114.461 83.6961L109.743 92.5842L110.44 83.9036L117.993 68.5317L110.717 78.1059L110.131 55.0906L109.142 69.255L105.573 67.1275L108.701 71.8614L107.85 88.6162L105.025 84.1536L107.456 92.0948L104.36 174.31Z" fill="#263238"/>
<path d="M117.695 179.422C116.45 174.486 114.413 168.358 111.573 166.071C106.53 162.008 98.3284 168.396 93.9136 165.492C89.4988 162.587 98.956 134.147 83.8075 132.407C68.659 130.668 62.989 159.688 56.0477 162.587C49.1064 165.486 46.5852 155.045 37.1227 154.465C28.8517 153.933 12.8628 174.294 8.97461 179.422H117.695Z" fill="#92E3A9"/>
<path opacity="0.46" d="M117.695 179.422C116.45 174.486 114.413 168.358 111.573 166.071C106.53 162.008 98.3284 168.396 93.9136 165.492C89.4988 162.587 98.956 134.147 83.8075 132.407C68.659 130.668 62.989 159.688 56.0477 162.587C49.1064 165.486 46.5852 155.045 37.1227 154.465C28.8517 153.933 12.8628 174.294 8.97461 179.422H117.695Z" fill="black"/>
<path d="M84.0684 174.31H87.5629L89.6905 97.1851L94.1744 83.6695L89.4565 92.5576L90.1533 83.877L97.7063 68.5051L90.4512 78.1005L89.8235 55.0906L88.8555 69.255L85.2864 67.1275L88.414 71.8614L87.5629 88.6162L84.7385 84.1536L87.1693 92.0948L84.0684 174.31Z" fill="#C7CACB"/>
<path d="M37.043 174.31H40.5376L42.6651 97.1851L47.1437 83.6961L42.4205 92.5842L43.1226 83.9036L50.6862 68.5263L43.4098 78.1005L42.7875 55.0906L41.7981 69.255L38.2291 67.1275L41.3567 71.8614L40.5056 88.6162L37.6759 84.1536L40.112 92.0948L37.043 174.31Z" fill="#A8ADAF"/>
<path d="M137.301 174.31H140.795L142.923 115.03L147.423 104.696L142.7 111.525L143.396 104.855L150.949 92.9937L143.673 100.387L143.045 82.7068L142.045 93.5948L138.482 91.9672L141.609 95.6L140.753 108.477L137.928 105.047L140.359 111.147L137.301 174.31Z" fill="#C7CACB"/>
<path d="M96.4829 174.31H99.9775L102.105 115.03L106.6 104.696L101.882 111.525L102.578 104.855L110.131 92.9937L102.855 100.387L102.227 82.7068L101.238 93.5948L97.6691 91.9672L100.802 95.6L99.9456 108.477L97.1212 105.047L99.552 111.147L96.4829 174.31Z" fill="#C7CACB"/>
<path d="M123.211 174.31H126.7L128.828 115.03L133.328 104.696L128.604 111.525L129.306 104.855L136.854 92.9937L129.578 100.387L128.95 82.7068L127.966 93.5948L124.397 91.9672L127.525 95.6L126.674 108.477L123.844 105.047L126.28 111.147L123.211 174.31Z" fill="#C7CACB"/>
<path d="M200.591 174.311H204.086L206.213 97.1851L210.692 83.6962L205.974 92.5842L206.671 83.9036L214.224 68.5317L206.947 78.1059L206.32 55.0959L205.341 69.2551L201.772 67.1275L204.9 71.8614L204.049 88.6162L201.224 84.1536L203.655 92.0949L200.591 174.311Z" fill="#263238"/>
<path d="M179.448 174.31H182.938L185.065 97.1851L189.549 83.6961L184.826 92.5842L185.528 83.9036L193.107 68.5263L185.831 78.1005L185.203 55.0906L184.219 69.255L180.65 67.1275L183.778 71.8614L182.927 88.6162L180.097 84.1536L182.533 92.0948L179.448 174.31Z" fill="#8A9094"/>
<path d="M143.2 174.31H146.689L148.817 97.1851L153.295 83.6961L148.572 92.5842L149.274 83.9036L156.843 68.5263L149.567 78.1005L148.96 55.0906L147.976 69.255L144.407 67.1275L147.535 71.8614L146.684 88.6162L143.854 84.1536L146.29 92.0948L143.2 174.31Z" fill="#263238"/>
<path d="M195.836 179.422C194.773 174.486 192.996 168.358 190.544 166.071C186.177 162.008 179.076 168.396 175.257 165.492C171.438 162.587 179.624 134.147 166.523 132.407C153.423 130.668 148.508 159.688 142.503 162.587C136.498 165.486 134.312 155.045 126.126 154.465C118.966 153.933 105.132 174.294 101.765 179.422H195.836Z" fill="#92E3A9"/>
<path opacity="0.25" d="M195.836 179.422C194.773 174.486 192.996 168.358 190.544 166.071C186.177 162.008 179.076 168.396 175.257 165.492C171.438 162.587 179.624 134.147 166.523 132.407C153.423 130.668 148.508 159.688 142.503 162.587C136.498 165.486 134.312 155.045 126.126 154.465C118.966 153.933 105.132 174.294 101.765 179.422H195.836Z" fill="black"/>
<path d="M135.918 57.5906C135.918 57.5906 128.36 57.5906 126.158 69.8721C123.956 82.1537 129.62 85.2972 122.69 91.6055C115.759 97.9139 114.818 102.318 118.28 105.153C121.743 107.988 123.636 111.137 119.227 115.86C114.818 120.583 114.185 127.514 129.934 131.923C145.684 136.333 157.651 125.626 158.284 118.381C158.917 111.137 153.556 106.408 153.242 100.424C152.928 94.4406 163.954 88.7705 162.694 80.5846C161.433 72.3986 150.093 75.5422 146.944 69.2445C143.795 62.9468 143.476 57.5906 135.918 57.5906Z" fill="#92E3A9"/>
<path opacity="0.46" d="M135.918 57.5906C135.918 57.5906 128.36 57.5906 126.158 69.8721C123.956 82.1537 129.62 85.2972 122.69 91.6055C115.759 97.9139 114.818 102.318 118.28 105.153C121.743 107.988 123.636 111.137 119.227 115.86C114.818 120.583 114.185 127.514 129.934 131.923C145.684 136.333 157.651 125.626 158.284 118.381C158.917 111.137 153.556 106.408 153.242 100.424C152.928 94.4406 163.954 88.7705 162.694 80.5846C161.433 72.3986 150.093 75.5422 146.944 69.2445C143.795 62.9468 143.476 57.5906 135.918 57.5906Z" fill="black"/>
<path d="M130.344 176.965H133.104L137.008 100.116L140.551 89.4779L136.828 96.5043L137.36 89.6428L143.327 77.4836L137.578 85.0738L137.078 66.8828L136.301 78.0527L133.477 76.3825L135.95 80.1058L135.274 93.3501L133.04 89.8236L134.966 96.1L130.344 176.965Z" fill="#92989B"/>
<path d="M88.6216 179.422C89.4301 174.869 90.7492 169.21 92.6055 167.103C95.8926 163.353 101.228 169.231 104.105 166.571C106.983 163.912 100.818 137.647 110.674 136.04C120.53 134.434 124.227 161.215 128.759 163.896C133.29 166.577 134.918 156.928 141.077 156.396C146.466 155.928 156.87 174.699 159.401 179.427L88.6216 179.422Z" fill="#92E3A9"/>
<path opacity="0.46" d="M88.6216 179.422C89.4301 174.869 90.7492 169.21 92.6055 167.103C95.8926 163.353 101.228 169.231 104.105 166.571C106.983 163.912 100.818 137.647 110.674 136.04C120.53 134.434 124.227 161.215 128.759 163.896C133.29 166.577 134.918 156.928 141.077 156.396C146.466 155.928 156.87 174.699 159.401 179.427L88.6216 179.422Z" fill="black"/>
<path d="M126.174 179.422C125.445 176.284 124.248 172.38 122.589 170.912C119.631 168.327 114.828 172.39 112.243 170.545C109.658 168.699 115.195 150.588 106.328 149.481C97.4617 148.375 94.132 166.848 90.0683 168.694C86.0046 170.539 84.5259 163.906 78.9835 163.523C74.1379 163.199 64.7712 176.151 62.4946 179.411L126.174 179.422Z" fill="#92E3A9"/>
<path d="M24.7615 134.556C24.7615 134.556 17.5064 135.322 7.20887 125.397C-3.08871 115.472 17.1394 80.3399 25.1551 72.7018C33.1709 65.0638 49.6225 113.94 43.4844 123.105C37.3463 132.269 30.8784 134.179 24.7615 134.556Z" fill="#92E3A9"/>
<path opacity="0.46" d="M24.7615 134.556C24.7615 134.556 17.5064 135.322 7.20887 125.397C-3.08871 115.472 17.1394 80.3399 25.1551 72.7018C33.1709 65.0638 49.6225 113.94 43.4844 123.105C37.3463 132.269 30.8784 134.179 24.7615 134.556Z" fill="black"/>
<path d="M21.703 174.651L22.8519 123.487L17.884 118.142L23.2296 121.195V112.03L16.3574 104.015L22.8519 108.977L22.086 102.488L23.9955 105.541L25.1391 87.2119L25.905 115.083L38.5057 108.211L25.905 118.902V123.865V176.177" fill="#263238"/>
<path d="M201.256 91.8396C201.256 91.8396 194.001 92.6002 183.704 82.6749C173.406 72.7497 193.64 37.6178 201.618 29.9797C209.597 22.3416 226.085 71.2178 219.947 80.3825C213.809 89.5471 207.363 91.4566 201.256 91.8396Z" fill="#92E3A9"/>
<path d="M195.406 172.465L199.347 80.7653L194.384 75.4197L199.73 78.4728V69.3082L192.853 61.2924L199.347 66.2551L198.581 59.7659L200.491 62.819L201.64 44.4897L202.4 72.3666L215.001 65.4891L202.4 76.1803V81.1482L199.608 173.991" fill="#A8ADAF"/>
<path d="M41.0483 178.098C40.9604 177.673 40.7874 177.27 40.5397 176.913C40.2919 176.557 39.9746 176.254 39.6069 176.023C38.1814 175.247 38.1814 176.023 36.4953 175.491C35.3783 175.146 35.6017 172.63 35.5113 171.768C35.2293 169.135 33.7719 166.859 31.0859 166.178C29.7497 165.826 28.346 165.821 27.007 166.161C25.668 166.502 24.4377 167.177 23.4318 168.125C20.1926 171.236 20.5808 173.975 18.5064 174.087C16.432 174.199 15.2672 171.624 11.6396 173.178C9.41096 174.135 8.25674 176.454 7.69824 178.103L41.0483 178.098Z" fill="#92E3A9"/>
<path opacity="0.5" d="M41.0483 178.098C40.9604 177.673 40.7874 177.27 40.5397 176.913C40.2919 176.557 39.9746 176.254 39.6069 176.023C38.1814 175.247 38.1814 176.023 36.4953 175.491C35.3783 175.146 35.6017 172.63 35.5113 171.768C35.2293 169.135 33.7719 166.859 31.0859 166.178C29.7497 165.826 28.346 165.821 27.007 166.161C25.668 166.502 24.4377 167.177 23.4318 168.125C20.1926 171.236 20.5808 173.975 18.5064 174.087C16.432 174.199 15.2672 171.624 11.6396 173.178C9.41096 174.135 8.25674 176.454 7.69824 178.103L41.0483 178.098Z" fill="white"/>
<path d="M11.0493 177.911C11.0493 177.911 11.6238 175.544 13.5599 175.332C15.496 175.119 16.8577 178.273 19.7299 175.619C22.6022 172.965 24.3202 166.22 28.7722 166.438C33.2242 166.656 33.1497 172.034 32.6444 174.257C32.1391 176.481 35.0858 176.385 36.3677 176.119C37.6496 175.853 39.1655 177.268 39.1655 178.129" stroke="#263238" stroke-width="0.903884" stroke-linecap="round" stroke-linejoin="round"/>
<path d="M15.0651 178.055L13.4907 176.624" stroke="#263238" stroke-width="0.903884" stroke-linecap="round" stroke-linejoin="round"/>
<path d="M24.6763 178.13L28.9102 169.523" stroke="#263238" stroke-width="0.903884" stroke-linecap="round" stroke-linejoin="round"/>
<path d="M26.7563 170.167L27.2617 172.965L30.6339 171.098" stroke="#263238" stroke-width="0.903884" stroke-linecap="round" stroke-linejoin="round"/>
<path d="M24.0327 173.034L25.7561 176.193L29.123 175.114" stroke="#263238" stroke-width="0.903884" stroke-linecap="round" stroke-linejoin="round"/>
<path d="M112.307 177.215C112.209 176.745 112.017 176.3 111.743 175.906C111.469 175.512 111.118 175.177 110.711 174.922C109.115 174.061 109.115 174.922 107.27 174.348C106.036 173.97 106.28 171.188 106.179 170.236C105.871 167.321 104.259 164.806 101.286 164.05C99.8032 163.654 98.2441 163.641 96.7552 164.013C95.2664 164.385 93.8967 165.13 92.7753 166.178C89.1903 169.619 89.6212 172.63 87.3287 172.773C85.0362 172.917 83.7437 170.05 79.7278 171.768C77.2651 172.832 76.0045 175.39 75.3716 177.215H112.307Z" fill="#92E3A9"/>
<path opacity="0.5" d="M112.307 177.215C112.209 176.745 112.017 176.3 111.743 175.906C111.469 175.512 111.118 175.177 110.711 174.922C109.115 174.061 109.115 174.922 107.27 174.348C106.036 173.97 106.28 171.188 106.179 170.236C105.871 167.321 104.259 164.806 101.286 164.05C99.8032 163.654 98.2441 163.641 96.7552 164.013C95.2664 164.385 93.8967 165.13 92.7753 166.178C89.1903 169.619 89.6212 172.63 87.3287 172.773C85.0362 172.917 83.7437 170.05 79.7278 171.768C77.2651 172.832 76.0045 175.39 75.3716 177.215H112.307Z" fill="white"/>
<path d="M83.563 177.161L81.8184 175.576" stroke="#263238" stroke-linecap="round" stroke-linejoin="round"/>
<path d="M94.1958 177.241L98.8765 167.72" stroke="#263238" stroke-linecap="round" stroke-linejoin="round"/>
<path d="M96.4985 168.433L97.0517 171.529L100.78 169.465" stroke="#263238" stroke-linecap="round" stroke-linejoin="round"/>
<path d="M93.4829 171.608L95.3871 175.103L99.1157 173.912" stroke="#263238" stroke-linecap="round" stroke-linejoin="round"/>
<path d="M53.0531 21.5383C53.0531 21.5383 42.1651 21.5383 38.9897 39.2293C35.8142 56.9203 43.9789 61.4574 34.0005 70.5262C24.022 79.5951 22.6604 85.9513 27.6549 90.031C32.6494 94.1107 35.3621 98.6478 29.0113 105.456C22.6604 112.264 21.7561 122.243 44.4363 128.594C67.1165 134.945 84.3288 119.519 85.2596 109.089C86.1904 98.6584 78.4513 91.8501 77.9992 83.2333C77.5471 74.6166 93.4243 66.4519 91.6052 54.6597C89.7861 42.8675 73.4621 47.3993 68.9303 38.3304C64.3985 29.2615 63.9411 21.5383 53.0531 21.5383Z" fill="#92E3A9"/>
<path opacity="0.18" d="M53.0531 21.5383C53.0531 21.5383 42.1651 21.5383 38.9897 39.2293C35.8142 56.9203 43.9789 61.4574 34.0005 70.5262C24.022 79.5951 22.6604 85.9513 27.6549 90.031C32.6494 94.1107 35.3621 98.6478 29.0113 105.456C22.6604 112.264 21.7561 122.243 44.4363 128.594C67.1165 134.945 84.3288 119.519 85.2596 109.089C86.1904 98.6584 78.4513 91.8501 77.9992 83.2333C77.5471 74.6166 93.4243 66.4519 91.6052 54.6597C89.7861 42.8675 73.4621 47.3993 68.9303 38.3304C64.3985 29.2615 63.9411 21.5383 53.0531 21.5383Z" fill="black"/>
<path d="M44.9951 193.448H48.9631L54.5853 82.7813L59.6915 67.4253L54.314 77.5314L55.1118 67.6487L63.7073 50.1439L55.4203 61.0798L54.7076 34.8784L53.5853 51.0109L49.5216 48.5961L53.0853 53.9842L52.1119 73.0581L48.9205 67.9785L51.6917 77.0208L44.9951 193.448Z" fill="#263238"/>
<path d="M156.215 31.9584C156.215 31.9584 145.338 32.336 142.779 50.1281C140.221 67.9201 148.535 72.1646 138.881 81.5793C129.227 90.9939 128.083 97.3873 133.211 101.291C138.338 105.196 141.216 109.637 135.104 116.658C128.993 123.679 128.439 133.679 151.322 139.237C174.204 144.795 190.9 128.785 191.443 118.328C191.985 107.871 184.044 101.339 183.289 92.7438C182.534 84.1483 198.118 75.4411 195.895 63.7394C193.672 52.0376 177.512 57.1172 172.662 48.2079C167.811 39.2986 167.093 31.5807 156.215 31.9584Z" fill="#92E3A9"/>
<g opacity="0.5">
<path opacity="0.5" d="M156.215 31.9584C156.215 31.9584 145.338 32.336 142.779 50.1281C140.221 67.9201 148.535 72.1646 138.881 81.5793C129.227 90.9939 128.083 97.3873 133.211 101.291C138.338 105.196 141.216 109.637 135.104 116.658C128.993 123.679 128.439 133.679 151.322 139.237C174.204 144.795 190.9 128.785 191.443 118.328C191.985 107.871 184.044 101.339 183.289 92.7438C182.534 84.1483 198.118 75.4411 195.895 63.7394C193.672 52.0376 177.512 57.1172 172.662 48.2079C167.811 39.2986 167.093 31.5807 156.215 31.9584Z" fill="white"/>
</g>
<path d="M153.024 182.959L156.997 182.821L159.88 93.1107L164.444 77.5686L159.423 87.8662L159.875 77.9622L167.853 60.1702L159.955 71.3826L158.327 45.2185L157.763 61.3776L153.62 59.1117L157.37 64.3722L157.061 83.4727L153.668 78.5048L156.747 87.4407L153.024 182.959Z" fill="#263238"/>
<path d="M223.213 179.422C222.266 175.326 220.708 170.236 218.538 168.337C214.687 164.965 208.431 170.268 205.049 167.858C201.666 165.449 208.9 141.833 197.336 140.386C185.773 138.939 181.432 163.039 176.129 165.449C170.826 167.858 168.901 159.183 161.672 158.699C155.353 158.279 143.141 175.188 140.167 179.443L223.213 179.422Z" fill="#92E3A9"/>
<path d="M92.6479 180.475C93.0095 177.667 93.2063 172.497 90.3766 169.678C86.3608 165.662 80.3397 172.183 78.8344 172.183C77.3292 172.183 76.8238 168.172 72.308 164.656C67.7922 161.141 62.2711 165.662 59.2605 164.656C56.25 163.651 61.7711 148.098 53.2394 147.598C44.7078 147.098 41.6972 168.672 35.6868 168.672C29.6763 168.672 28.6604 164.656 22.6393 168.172C17.9213 170.922 15.3629 177.672 14.4746 180.475H92.6479Z" fill="#92E3A9"/>
<path opacity="0.25" d="M92.6479 180.475C93.0095 177.667 93.2063 172.497 90.3766 169.678C86.3608 165.662 80.3397 172.183 78.8344 172.183C77.3292 172.183 76.8238 168.172 72.308 164.656C67.7922 161.141 62.2711 165.662 59.2605 164.656C56.25 163.651 61.7711 148.098 53.2394 147.598C44.7078 147.098 41.6972 168.672 35.6868 168.672C29.6763 168.672 28.6604 164.656 22.6393 168.172C17.9213 170.922 15.3629 177.672 14.4746 180.475H92.6479Z" fill="black"/>
<path d="M30.6709 179.8L25.2827 171.05" stroke="#263238" stroke-linecap="round" stroke-linejoin="round"/>
<path d="M49.9683 179.124L52.6597 153.769" stroke="#263238" stroke-linecap="round" stroke-linejoin="round"/>
<path d="M65.4517 179.576L68.1431 169.704" stroke="#263238" stroke-linecap="round" stroke-linejoin="round"/>
<path d="M84.5205 180.023L87.2172 173.066" stroke="#263238" stroke-linecap="round" stroke-linejoin="round"/>
<path d="M31.1177 171.273L28.4263 175.986L22.1445 173.518" stroke="#263238" stroke-linecap="round" stroke-linejoin="round"/>
<path d="M48.6226 155.79L51.7608 161.401L56.0266 156.237" stroke="#263238" stroke-linecap="round" stroke-linejoin="round"/>
<path d="M46.8247 164.768L50.8671 169.704L54.9043 166.561" stroke="#263238" stroke-linecap="round" stroke-linejoin="round"/>
<path d="M67.021 173.965L72.4038 170.827" stroke="#263238" stroke-linecap="round" stroke-linejoin="round"/>
<path d="M66.5742 175.763L63.8774 168.805" stroke="#263238" stroke-linecap="round" stroke-linejoin="round"/>
<path d="M85.8715 176.433L84.5205 171.944" stroke="#263238" stroke-linecap="round" stroke-linejoin="round"/>
<path d="M85.4194 177.332L89.2332 175.762" stroke="#263238" stroke-linecap="round" stroke-linejoin="round"/>
<path d="M112.222 55.0267C110.498 51.6761 108.274 48.6074 105.626 45.9259C103.735 44.0115 101.436 42.5496 98.9001 41.6496C96.3643 40.7497 93.6577 40.4351 90.9831 40.7293C80.1961 41.9526 77.2441 55.7022 74.191 64.0637C66.8933 84.0365 57.8404 113.658 85.1268 122.381C96.8871 126.142 113.041 122.381 117.77 109.775C121.86 98.8712 121.796 86.8662 119.317 75.6006C117.849 69.0104 115.674 61.5052 112.222 55.0267Z" fill="#92E3A9"/>
<path d="M89.9189 193.299H93.8975L96.3017 105.461L101.403 90.1054L96.0251 100.211L96.8336 90.3341L105.429 72.8293L97.1528 83.7705L96.44 57.5691L95.3124 73.6963L91.2487 71.2868L94.8124 76.6749L93.839 95.7488L90.6476 90.6692L93.4135 99.7115L89.9189 193.299Z" fill="#263238"/>
<path d="M95.4032 138.359L95.4777 135.764C94.8447 135.764 93.9458 135.982 93.9458 136.939C93.9458 137.732 94.7064 138.147 95.4032 138.359Z" fill="#808080"/>
<path d="M94.6001 108.61C94.6001 109.456 95.4565 109.866 96.1958 110.068L96.2703 107.408C95.6373 107.435 94.6001 107.584 94.6001 108.61Z" fill="#808080"/>
<path d="M94.1104 120.567C94.1104 121.472 95.0944 121.881 95.855 122.062L95.9294 119.403C95.339 119.365 94.1104 119.445 94.1104 120.567Z" fill="#808080"/>
<path d="M95.5838 92.4033C95.7912 91.5629 94.7966 91.5309 94.0519 91.616L93.9189 94.2755C94.4721 93.9458 95.3604 93.2862 95.5838 92.4033Z" fill="#808080"/>
<path d="M92.3076 178.039C92.3076 179.029 93.4831 179.427 94.2597 179.582L94.3342 176.885C93.9086 176.837 92.3076 176.763 92.3076 178.039Z" fill="#808080"/>
<path d="M94.488 83.0898L94.355 85.6961C95.0742 85.2993 95.6272 84.6576 95.9134 83.8876C96.1103 83.0898 95.2379 83.0206 94.488 83.0898Z" fill="#808080"/>
<path d="M95.2383 75.5368C95.2383 76.4251 96.1957 76.8347 96.951 77.0208L96.8765 74.3613C96.2648 74.3773 95.2383 74.5209 95.2383 75.5368Z" fill="#808080"/>
<path d="M94.1744 160.667C94.5733 159.071 92.5042 159.114 91.1691 159.3L90.9883 164.135C91.9457 163.587 93.7488 162.359 94.1744 160.667Z" fill="#808080"/>
<path d="M94.5998 165.757C94.5998 165.757 92.4722 165.433 92.4722 166.906C92.4722 167.97 93.8019 168.342 94.5679 168.502L94.637 165.981L94.5998 165.757Z" fill="#808080"/>
<path d="M92.9614 145.497C92.9614 146.769 94.0252 147.524 95.1369 147.96L95.2646 143.338C94.1742 143.476 92.9614 143.971 92.9614 145.497Z" fill="#808080"/>
<path d="M91.8555 140.891L91.7598 143.482C92.4685 143.087 93.0121 142.451 93.2916 141.689C93.4938 140.865 92.5789 140.822 91.8555 140.891Z" fill="#808080"/>
<path d="M92.8659 113.855L92.7808 116.078C93.2545 115.726 93.6045 115.232 93.7807 114.669C93.935 114.052 93.435 113.876 92.8659 113.855Z" fill="#808080"/>
<path d="M93.2913 155.609C93.5466 154.593 92.0254 154.758 91.3339 154.886L91.2275 157.705C91.5467 157.545 92.9988 156.774 93.2913 155.609Z" fill="#808080"/>
<path d="M196.799 14.8949C195.077 11.5432 192.853 8.4742 190.203 5.79413C188.312 3.87894 186.012 2.4166 183.475 1.51664C180.938 0.616684 178.23 0.302447 175.555 0.597473C164.773 1.81552 161.816 15.5704 158.763 23.9266C151.449 43.9047 142.396 73.5262 169.704 82.2493C181.47 86.0099 197.623 82.2493 202.347 69.6433C206.437 58.7341 206.373 46.7344 203.9 35.4688C202.427 28.8786 200.251 21.3735 196.799 14.8949Z" fill="#92E3A9"/>
<path opacity="0.18" d="M196.799 14.8949C195.077 11.5432 192.853 8.4742 190.203 5.79413C188.312 3.87894 186.012 2.4166 183.475 1.51664C180.938 0.616684 178.23 0.302447 175.555 0.597473C164.773 1.81552 161.816 15.5704 158.763 23.9266C151.449 43.9047 142.396 73.5262 169.704 82.2493C181.47 86.0099 197.623 82.2493 202.347 69.6433C206.437 58.7341 206.373 46.7344 203.9 35.4688C202.427 28.8786 200.251 21.3735 196.799 14.8949Z" fill="black"/>
<path d="M172.965 178.098H176.943L180.874 65.335L185.975 49.9791L180.603 60.0852L181.406 50.2132L190.007 32.7083L181.72 43.6389L181.018 17.4641L179.89 33.5913L175.832 31.1818L179.39 36.5699L178.422 55.6438L175.204 50.5642L177.97 59.6065L172.965 178.098Z" fill="#263238"/>
<path d="M178.475 75.4038C178.677 74.6113 178.071 74.34 177.347 74.3081L177.225 77.2176C177.815 76.7529 178.251 76.1206 178.475 75.4038Z" fill="#5C5C5C"/>
<path d="M175.481 120.732L175.348 124.227C176.098 123.748 177.14 122.902 177.417 121.807C177.693 120.711 176.465 120.652 175.481 120.732Z" fill="#5C5C5C"/>
<path d="M179.071 42.825L178.896 46.3143C179.645 45.8302 180.672 44.9952 180.943 43.9048C181.215 42.8144 180.05 42.7399 179.071 42.825Z" fill="#5C5C5C"/>
<path d="M178.076 85.393C178.13 85.2198 178.13 85.0342 178.076 84.8611C178.836 84.1328 179.387 83.2145 179.672 82.2016C180.076 80.6059 178.608 80.2176 177.108 80.2389L176.815 87.2067C177.408 86.7424 177.847 86.1104 178.076 85.393V85.393Z" fill="#5C5C5C"/>
<path d="M181.48 34.3625L181.39 31.1711C181.022 31.2096 180.681 31.3842 180.435 31.6607C180.189 31.9372 180.056 32.2957 180.06 32.6658C180.06 33.5115 180.725 34.0381 181.48 34.3625Z" fill="#5C5C5C"/>
<path d="M177.539 58.1649C177.851 57.8564 178.109 57.4966 178.3 57.1011L178.257 57.8883C179.007 57.4309 180.209 56.5426 180.502 55.3565C180.794 54.1703 179.486 54.181 178.486 54.2927L178.422 55.5958L178.379 55.5267V55.8937C178.082 55.5426 177.401 55.4948 176.784 55.5373L177.539 58.1649Z" fill="#5C5C5C"/>
<path d="M179.358 50.245C179.358 51.3088 180.337 51.8407 181.262 52.1386L181.353 51.011L181.422 48.6653C180.571 48.6919 179.358 48.9525 179.358 50.245Z" fill="#5C5C5C"/>
<path d="M174.635 143.391C175.066 143.178 177.023 142.136 177.417 140.567C177.757 139.194 175.709 139.418 174.757 139.588L174.635 143.391Z" fill="#5C5C5C"/>
<path d="M178.3 115.408C178.307 115.684 178.383 115.954 178.521 116.192C178.66 116.431 178.856 116.632 179.092 116.775L179.188 114.052C178.915 114.155 178.683 114.341 178.523 114.585C178.363 114.829 178.285 115.117 178.3 115.408Z" fill="#5C5C5C"/>
<path d="M180.065 89.0683C179.443 89.0097 177.374 88.9406 177.374 90.632C177.374 91.5203 178.076 92.0522 178.858 92.3713C178.626 92.639 178.504 92.9852 178.518 93.3394C178.518 94.1692 179.135 94.6904 179.858 95.0149L180.065 89.0683Z" fill="#5C5C5C"/>
<path d="M179.183 77.2282C179.206 77.5913 179.337 77.9393 179.557 78.2288C179.778 78.5183 180.078 78.7364 180.422 78.8558L180.534 75.7283C180.161 75.763 179.816 75.9365 179.565 76.2144C179.315 76.4923 179.178 76.8542 179.183 77.2282V77.2282Z" fill="#5C5C5C"/>
<path d="M180.624 60.0958L180.714 58.9363C179.374 59.1969 178.055 59.9203 178.055 61.7766C178.055 63.4947 179.464 64.5053 180.985 65.101L181.15 59.1437L180.624 60.0958Z" fill="#5C5C5C"/>
<path d="M176.975 126.94C176.995 127.494 177.158 128.034 177.45 128.506C177.742 128.978 178.152 129.366 178.64 129.631L178.826 124.312C178.268 124.48 177.783 124.83 177.447 125.306C177.112 125.783 176.946 126.358 176.975 126.94Z" fill="#5C5C5C"/>
<path d="M177.97 148.843L178.076 145.843C177.241 145.311 175.699 145.407 174.555 145.567L174.311 152.034C175.759 151.265 177.011 150.173 177.97 148.843V148.843Z" fill="#5C5C5C"/>
<path d="M177.246 169.348C176.913 169.413 176.614 169.596 176.402 169.862C176.191 170.128 176.081 170.46 176.092 170.8C176.108 171.129 176.216 171.448 176.405 171.718C176.593 171.989 176.853 172.202 177.156 172.332L177.246 169.348Z" fill="#5C5C5C"/>
<path d="M176.31 155.795C176.31 156.63 176.938 157.151 177.666 157.476L177.778 154.284C177.049 154.401 176.31 154.784 176.31 155.795Z" fill="#5C5C5C"/>
<path d="M53.5424 70.3027C53.5424 70.3027 45.0054 72.6697 40.4523 82.8343C35.8993 92.9989 43.2448 100.988 39.697 111.11C36.1493 121.232 26.0911 126.328 35.0801 134.237C44.0692 142.146 55.4785 129.695 61.5102 130.758C67.542 131.822 68.0154 142.763 84.4191 138.056C100.823 133.349 95.589 119.296 89.302 112.924C83.0149 106.552 87.8977 96.0414 83.6266 81.9407C80.3448 71.1219 65.308 65.7976 53.5424 70.3027Z" fill="#92E3A9"/>
<path opacity="0.5" d="M53.5424 70.3027C53.5424 70.3027 45.0054 72.6697 40.4523 82.8343C35.8993 92.9989 43.2448 100.988 39.697 111.11C36.1493 121.232 26.0911 126.328 35.0801 134.237C44.0692 142.146 55.4785 129.695 61.5102 130.758C67.542 131.822 68.0154 142.763 84.4191 138.056C100.823 133.349 95.589 119.296 89.302 112.924C83.0149 106.552 87.8977 96.0414 83.6266 81.9407C80.3448 71.1219 65.308 65.7976 53.5424 70.3027Z" fill="white"/>
<path d="M60.2177 199.921L63.0048 119.392L43.8086 105.946L63.2176 116.727L63.3718 105.089L59.0901 98.3021L63.9357 102.738L65.2548 87.3982L66.2707 110.61L79.898 103.036L66.4462 114.589L66.0792 128.897L77.1906 124.753L65.8931 132.227L64.1963 199.746L60.2177 199.921Z" fill="#263238"/>
<path d="M64.388 127.466C64.918 127.752 65.5306 127.846 66.122 127.732L66.1858 125.301C65.4518 125.69 63.3242 126.934 64.388 127.466Z" fill="#808080"/>
<path d="M61.2923 168.864L61.2231 170.864V171.295C61.9074 170.9 62.5444 170.429 63.122 169.89C63.7071 169.289 62.4306 169.002 61.2923 168.864Z" fill="#808080"/>
<path d="M62.0422 147.115L61.9678 149.359C62.5585 149.002 63.1094 148.583 63.6113 148.109C64.1698 147.551 63.106 147.247 62.0422 147.115Z" fill="#808080"/>
<path d="M61.6699 158.024C62.371 157.625 63.0226 157.144 63.6114 156.593C64.223 155.981 62.8986 155.694 61.755 155.561L61.7178 156.588L61.6699 158.024Z" fill="#808080"/>
<path d="M63.2925 111.078V112.142C63.82 111.815 64.3119 111.433 64.7605 111.004C65.2924 110.472 64.3403 110.179 63.3191 110.025L63.2925 111.078Z" fill="#808080"/>
<path d="M62.8667 123.418C63.9668 122.788 64.9897 122.031 65.9145 121.163C66.8825 120.2 64.8135 119.743 62.9997 119.53L62.8667 123.418Z" fill="#808080"/>
<path d="M64.2444 152.667C64.5944 152.849 64.9786 152.954 65.372 152.976L65.4252 150.848C64.5476 151.402 63.4093 152.253 64.2444 152.667Z" fill="#808080"/>
<path d="M63.8085 144.556C64.3647 144.839 64.957 145.045 65.5691 145.168L65.6754 140.913C63.8563 142.141 62.1436 143.726 63.8085 144.556Z" fill="#808080"/>
<path d="M63.4677 161.827C63.9835 162.098 64.5553 162.245 65.1379 162.258L65.2123 159.279C63.9996 160.013 62.2922 161.236 63.4677 161.827Z" fill="#808080"/>
<path d="M64.9729 168.789L65.0314 166.406C64.2229 166.853 62.3719 168.002 63.3559 168.497C63.8505 168.763 64.4166 168.865 64.9729 168.789V168.789Z" fill="#808080"/>
<path d="M62.4094 136.609L62.3296 138.96C62.9748 138.584 63.5744 138.134 64.1168 137.62C64.7019 137.014 63.5157 136.721 62.4094 136.609Z" fill="#808080"/>
<path d="M111.828 193.448C111.732 192.978 111.541 192.532 111.266 192.138C110.992 191.744 110.64 191.409 110.232 191.156C108.637 190.294 108.637 191.156 106.791 190.581C105.557 190.204 105.802 187.39 105.701 186.464C105.392 183.555 103.781 181.039 100.807 180.284C99.3249 179.883 97.7649 179.869 96.2754 180.241C94.7859 180.613 93.4163 181.36 92.2968 182.411C88.7118 185.853 89.1426 188.863 86.8502 189.001C84.5577 189.14 83.2652 186.278 79.2493 188.001C76.7866 189.065 75.526 191.624 74.8931 193.448H111.828Z" fill="#92E3A9"/>
<path opacity="0.5" d="M111.828 193.448C111.732 192.978 111.541 192.532 111.266 192.138C110.992 191.744 110.64 191.409 110.232 191.156C108.637 190.294 108.637 191.156 106.791 190.581C105.557 190.204 105.802 187.39 105.701 186.464C105.392 183.555 103.781 181.039 100.807 180.284C99.3249 179.883 97.7649 179.869 96.2754 180.241C94.7859 180.613 93.4163 181.36 92.2968 182.411C88.7118 185.853 89.1426 188.863 86.8502 189.001C84.5577 189.14 83.2652 186.278 79.2493 188.001C76.7866 189.065 75.526 191.624 74.8931 193.448H111.828Z" fill="white"/>
<path d="M83.0845 193.395L81.3398 191.81" stroke="#263238" stroke-linecap="round" stroke-linejoin="round"/>
<path d="M93.7168 193.475L98.4028 183.954" stroke="#263238" stroke-linecap="round" stroke-linejoin="round"/>
<path d="M96.02 184.667L96.5732 187.762L100.307 185.698" stroke="#263238" stroke-linecap="round" stroke-linejoin="round"/>
<path d="M93.0044 187.842L94.9086 191.331L98.6372 190.14" stroke="#263238" stroke-linecap="round" stroke-linejoin="round"/>
<path d="M81.9407 200.23C81.5418 198.666 80.6003 196.342 78.4036 195.145C74.9037 193.236 74.9037 195.145 70.7708 193.874C68.0315 193.028 68.5741 186.858 68.3507 184.746C67.6645 178.284 64.0955 172.699 57.4893 171.034C50.8086 169.343 43.6599 170.928 38.6494 175.747C30.7028 183.379 31.6549 190.055 26.5647 190.374C21.4744 190.693 18.6447 184.332 9.72472 188.145C4.28339 190.491 1.43773 196.182 0.0654297 200.23H81.9407Z" fill="#92E3A9"/>
<path d="M18.1979 200.113L14.3257 196.597" stroke="#263238" stroke-linecap="round" stroke-linejoin="round"/>
<path d="M41.7822 200.294L52.1702 179.167" stroke="#263238" stroke-linecap="round" stroke-linejoin="round"/>
<path d="M68.8931 199.762L72.2334 197.65" stroke="#263238" stroke-linecap="round" stroke-linejoin="round"/>
<path d="M46.8887 180.752L48.1227 187.619L56.3937 183.039" stroke="#263238" stroke-linecap="round" stroke-linejoin="round"/>
<path d="M40.1973 187.794L44.4259 195.539L52.6969 192.9" stroke="#263238" stroke-linecap="round" stroke-linejoin="round"/>
<path d="M18.0225 195.714L17.3151 199.586L13.4429 198.884" stroke="#263238" stroke-linecap="round" stroke-linejoin="round"/>
<path d="M69.9465 198.884L69.4199 196.948" stroke="#263238" stroke-linecap="round" stroke-linejoin="round"/>
<path d="M46.8621 181.076C47.1764 181.076 47.4312 180.821 47.4312 180.507C47.4312 180.193 47.1764 179.938 46.8621 179.938C46.5478 179.938 46.293 180.193 46.293 180.507C46.293 180.821 46.5478 181.076 46.8621 181.076Z" fill="#263238"/>
<path d="M52.7342 179.161C52.7416 179.275 52.7149 179.388 52.6575 179.486C52.6002 179.584 52.5147 179.663 52.4122 179.712C52.3098 179.761 52.1949 179.778 52.0825 179.761C51.9701 179.745 51.8653 179.695 51.7815 179.618C51.6978 179.541 51.639 179.441 51.6127 179.33C51.5863 179.22 51.5937 179.104 51.6338 178.998C51.6739 178.891 51.7449 178.799 51.8377 178.734C51.9305 178.668 52.0408 178.632 52.1544 178.629C52.3013 178.625 52.4442 178.678 52.5524 178.778C52.6607 178.877 52.726 179.015 52.7342 179.161V179.161Z" fill="#263238"/>
<path d="M56.9041 183.363C57.2184 183.363 57.4732 183.109 57.4732 182.794C57.4732 182.48 57.2184 182.225 56.9041 182.225C56.5898 182.225 56.335 182.48 56.335 182.794C56.335 183.109 56.5898 183.363 56.9041 183.363Z" fill="#263238"/>
<path d="M53.5743 192.799C53.5753 192.912 53.5427 193.023 53.4806 193.117C53.4185 193.212 53.3296 193.286 53.2254 193.329C53.1212 193.373 53.0063 193.385 52.8954 193.363C52.7845 193.341 52.6826 193.287 52.6027 193.207C52.5228 193.127 52.4685 193.025 52.4467 192.914C52.4249 192.803 52.4366 192.688 52.4804 192.584C52.5241 192.48 52.5979 192.391 52.6923 192.329C52.7867 192.267 52.8975 192.234 53.0105 192.235C53.1596 192.237 53.3022 192.297 53.4076 192.402C53.513 192.507 53.5729 192.65 53.5743 192.799Z" fill="#263238"/>
<path d="M40.1438 188.262C40.4582 188.262 40.713 188.007 40.713 187.693C40.713 187.379 40.4582 187.124 40.1438 187.124C39.8295 187.124 39.5747 187.379 39.5747 187.693C39.5747 188.007 39.8295 188.262 40.1438 188.262Z" fill="#263238"/>
<path d="M69.4197 197.517C69.734 197.517 69.9889 197.262 69.9889 196.948C69.9889 196.634 69.734 196.379 69.4197 196.379C69.1054 196.379 68.8506 196.634 68.8506 196.948C68.8506 197.262 69.1054 197.517 69.4197 197.517Z" fill="#263238"/>
<path d="M72.7759 197.528C72.777 197.641 72.7445 197.751 72.6826 197.846C72.6207 197.94 72.5322 198.014 72.4283 198.058C72.3244 198.101 72.2098 198.113 72.0991 198.092C71.9883 198.071 71.8864 198.017 71.8063 197.938C71.7262 197.858 71.6714 197.757 71.649 197.646C71.6266 197.536 71.6376 197.421 71.6805 197.317C71.7234 197.212 71.7964 197.123 71.8901 197.06C71.9838 196.998 72.094 196.964 72.2068 196.964C72.3568 196.964 72.5008 197.023 72.6074 197.129C72.714 197.235 72.7745 197.378 72.7759 197.528V197.528Z" fill="#263238"/>
<path d="M18.0223 196.283C18.3366 196.283 18.5914 196.028 18.5914 195.714C18.5914 195.4 18.3366 195.145 18.0223 195.145C17.7079 195.145 17.4531 195.4 17.4531 195.714C17.4531 196.028 17.7079 196.283 18.0223 196.283Z" fill="#263238"/>
<path d="M14.7086 196.299C14.7086 196.412 14.6752 196.522 14.6127 196.615C14.5501 196.709 14.4612 196.782 14.3572 196.825C14.2532 196.868 14.1388 196.879 14.0284 196.857C13.918 196.835 13.8166 196.781 13.737 196.702C13.6574 196.622 13.6032 196.521 13.5812 196.41C13.5593 196.3 13.5706 196.185 13.6136 196.081C13.6567 195.977 13.7297 195.888 13.8233 195.826C13.9168 195.763 14.0269 195.73 14.1394 195.73C14.2904 195.73 14.4351 195.79 14.5419 195.897C14.6486 196.003 14.7086 196.148 14.7086 196.299Z" fill="#263238"/>
<path d="M13.1927 199.421C13.507 199.421 13.7618 199.167 13.7618 198.852C13.7618 198.538 13.507 198.283 13.1927 198.283C12.8783 198.283 12.6235 198.538 12.6235 198.852C12.6235 199.167 12.8783 199.421 13.1927 199.421Z" fill="#263238"/>
<path d="M189.129 134.934C189.129 134.934 180.507 135.844 168.263 124.051C156.018 112.259 180.055 70.5263 189.581 61.4574C199.107 52.3886 218.639 110.44 211.352 121.328C204.065 132.216 196.384 134.482 189.129 134.934Z" fill="#92E3A9"/>
<path d="M185.496 182.56L186.858 121.78L180.964 115.435L187.315 119.062V108.174L179.15 98.6478L186.858 104.547L185.953 96.834L188.219 100.462L189.581 78.6909L190.485 111.802L205.458 103.637L190.485 116.339V122.238V184.374" fill="#263238"/>
<path d="M188.821 156.29C189.203 155.332 186.762 155.226 186.113 155.189L186.049 158.093C186.9 157.752 188.501 157.072 188.821 156.29Z" fill="#808080"/>
<path d="M190.485 131.732C189.246 132.04 186.709 132.796 187.448 133.519C188.033 134.099 189.448 134.333 190.485 134.423V131.732Z" fill="#808080"/>
<path d="M189.002 139.918C189.39 138.95 186.48 138.95 186.48 138.95V138.998L186.422 141.551C187.108 141.306 188.698 140.673 189.002 139.918Z" fill="#808080"/>
<path d="M188.81 127.317C189.097 126.594 187.56 126.407 186.757 126.36L186.704 128.769C187.475 128.455 188.565 127.923 188.81 127.317Z" fill="#808080"/>
<path d="M185.954 169.513L185.762 170.858L185.725 172.529C186.39 172.305 188.454 171.539 188.821 170.614C189.262 169.513 185.954 169.513 185.954 169.513Z" fill="#808080"/>
<path d="M187.054 148.987C187.714 149.646 189.304 149.907 190.485 150.019V146.96C189.065 147.317 186.219 148.152 187.054 148.987Z" fill="#808080"/>
<path d="M187.257 120.919C187.874 121.536 189.438 121.759 190.485 121.839V119.083C189.342 119.355 186.475 120.121 187.257 120.919Z" fill="#808080"/>
<path d="M190.262 103.632C188.991 104.004 187.432 104.6 188.033 105.227C188.485 105.679 189.438 105.919 190.331 106.052L190.262 103.632Z" fill="#808080"/>
<path d="M190.486 161.305C189.065 161.662 186.23 162.497 187.055 163.332C187.714 163.992 189.305 164.257 190.486 164.364V161.305Z" fill="#808080"/>
<path d="M187.315 110.647V113.131C188.087 112.834 189.321 112.264 189.581 111.61C189.916 110.818 188.007 110.674 187.315 110.647Z" fill="#808080"/>
<path d="M218.639 183.225C219.032 179.635 216.112 175.779 212.416 175.592C209.097 175.433 205.448 177.662 202.682 175.821C200.421 174.316 200.373 171.103 200.118 168.375C199.863 165.646 199.118 162.944 197.352 160.928C195.586 158.912 192.618 157.737 190.086 158.662C184.986 160.54 184.672 168.906 179.448 170.449C175.842 171.513 172.082 168.518 168.38 169.183C163.848 169.992 161.8 175.007 158.321 177.459C157.96 177.715 156.449 178.81 154.715 180.076C153.263 181.14 151.657 182.316 150.46 183.225H218.639Z" fill="#92E3A9"/>
<path opacity="0.5" d="M218.639 183.225C219.032 179.635 216.112 175.779 212.416 175.592C209.097 175.433 205.448 177.662 202.682 175.821C200.421 174.316 200.373 171.103 200.118 168.375C199.863 165.646 199.118 162.944 197.352 160.928C195.586 158.912 192.618 157.737 190.086 158.662C184.986 160.54 184.672 168.906 179.448 170.449C175.842 171.513 172.082 168.518 168.38 169.183C163.848 169.992 161.8 175.007 158.321 177.459C157.96 177.715 156.449 178.81 154.715 180.076C153.263 181.14 151.657 182.316 150.46 183.225H218.639Z" fill="white"/>
<path d="M176.337 182.927L173.475 174.566" stroke="#263238" stroke-linecap="round" stroke-linejoin="round"/>
<path d="M186.459 183.151L192.4 167.087" stroke="#263238" stroke-linecap="round" stroke-linejoin="round"/>
<path d="M208.022 183.151L211.543 179.848" stroke="#263238" stroke-linecap="round" stroke-linejoin="round"/>
<path d="M175.55 180.948L177.438 175.89" stroke="#263238" stroke-linecap="round" stroke-linejoin="round"/>
<path d="M175.182 179.715L168.635 178.087" stroke="#263238" stroke-linecap="round" stroke-linejoin="round"/>
<path d="M190.639 171.928L188.879 169.066" stroke="#263238" stroke-linecap="round" stroke-linejoin="round"/>
<path d="M188.879 176.326L195.256 172.811" stroke="#263238" stroke-linecap="round" stroke-linejoin="round"/>
<path d="M186.975 181.911L192.836 179.848" stroke="#263238" stroke-linecap="round" stroke-linejoin="round"/>
<path d="M187.778 179.629L184.039 173.029" stroke="#263238" stroke-linecap="round" stroke-linejoin="round"/>
<path d="M192.964 167.087C192.964 167.2 192.93 167.31 192.868 167.404C192.805 167.498 192.716 167.571 192.611 167.614C192.507 167.656 192.392 167.667 192.282 167.645C192.171 167.623 192.07 167.568 191.99 167.488C191.911 167.408 191.857 167.306 191.836 167.195C191.815 167.084 191.827 166.97 191.871 166.866C191.914 166.762 191.988 166.673 192.083 166.611C192.177 166.55 192.287 166.517 192.4 166.518C192.475 166.518 192.548 166.533 192.617 166.562C192.686 166.59 192.748 166.632 192.801 166.685C192.853 166.738 192.895 166.801 192.923 166.87C192.951 166.939 192.965 167.013 192.964 167.087V167.087Z" fill="#263238"/>
<path d="M189.384 169.018C189.384 169.131 189.351 169.241 189.288 169.334C189.226 169.428 189.137 169.501 189.033 169.544C188.929 169.587 188.815 169.598 188.704 169.576C188.594 169.554 188.492 169.5 188.413 169.421C188.333 169.341 188.279 169.24 188.257 169.129C188.235 169.019 188.246 168.904 188.289 168.8C188.332 168.696 188.405 168.607 188.499 168.545C188.593 168.482 188.703 168.449 188.815 168.449C188.89 168.448 188.964 168.463 189.034 168.491C189.103 168.519 189.166 168.561 189.219 168.614C189.272 168.667 189.314 168.73 189.342 168.8C189.371 168.869 189.385 168.943 189.384 169.018V169.018Z" fill="#263238"/>
<path d="M195.257 173.38C195.571 173.38 195.826 173.125 195.826 172.811C195.826 172.496 195.571 172.241 195.257 172.241C194.942 172.241 194.688 172.496 194.688 172.811C194.688 173.125 194.942 173.38 195.257 173.38Z" fill="#263238"/>
<path d="M184.039 173.598C184.353 173.598 184.608 173.343 184.608 173.029C184.608 172.714 184.353 172.459 184.039 172.459C183.725 172.459 183.47 172.714 183.47 173.029C183.47 173.343 183.725 173.598 184.039 173.598Z" fill="#263238"/>
<path d="M193.134 180.332C193.448 180.332 193.703 180.077 193.703 179.762C193.703 179.448 193.448 179.193 193.134 179.193C192.82 179.193 192.565 179.448 192.565 179.762C192.565 180.077 192.82 180.332 193.134 180.332Z" fill="#263238"/>
<path d="M211.32 180.555C211.634 180.555 211.889 180.3 211.889 179.986C211.889 179.672 211.634 179.417 211.32 179.417C211.006 179.417 210.751 179.672 210.751 179.986C210.751 180.3 211.006 180.555 211.32 180.555Z" fill="#263238"/>
<path d="M174.044 174.566C174.046 174.679 174.013 174.789 173.951 174.883C173.889 174.978 173.801 175.051 173.697 175.095C173.593 175.139 173.478 175.151 173.368 175.13C173.257 175.109 173.155 175.055 173.075 174.975C172.995 174.896 172.94 174.795 172.918 174.684C172.895 174.574 172.906 174.459 172.949 174.355C172.992 174.25 173.065 174.161 173.159 174.098C173.252 174.035 173.363 174.002 173.475 174.002C173.625 174.002 173.769 174.061 173.876 174.167C173.983 174.272 174.043 174.416 174.044 174.566Z" fill="#263238"/>
<path d="M177.337 176.475C177.651 176.475 177.906 176.22 177.906 175.906C177.906 175.592 177.651 175.337 177.337 175.337C177.022 175.337 176.768 175.592 176.768 175.906C176.768 176.22 177.022 176.475 177.337 176.475Z" fill="#263238"/>
<path d="M168.635 178.656C168.949 178.656 169.204 178.401 169.204 178.087C169.204 177.773 168.949 177.518 168.635 177.518C168.321 177.518 168.066 177.773 168.066 178.087C168.066 178.401 168.321 178.656 168.635 178.656Z" fill="#263238"/>
<path d="M235 191.15C234.883 190.577 234.651 190.033 234.317 189.552C233.983 189.07 233.555 188.663 233.058 188.353C231.133 187.289 231.133 188.353 228.862 187.656C227.356 187.193 227.654 183.8 227.532 182.635C227.154 179.087 225.186 176.018 221.559 175.098C219.753 174.611 217.853 174.593 216.039 175.046C214.225 175.5 212.556 176.409 211.192 177.688C206.82 181.885 207.346 185.555 204.549 185.73C201.751 185.906 200.176 182.411 195.283 184.507C192.278 185.794 190.724 188.922 189.964 191.15H235Z" fill="#92E3A9"/>
<path d="M199.948 191.087L197.82 189.15" stroke="#263238" stroke-linecap="round" stroke-linejoin="round"/>
<path d="M212.916 191.182L218.628 179.571" stroke="#263238" stroke-linecap="round" stroke-linejoin="round"/>
<path d="M215.724 180.443L216.4 184.215L220.947 181.699" stroke="#263238" stroke-linecap="round" stroke-linejoin="round"/>
<path d="M212.048 184.315L214.367 188.571L218.915 187.119" stroke="#263238" stroke-linecap="round" stroke-linejoin="round"/>
</svg>
