<svg width="226" height="216" viewBox="0 0 226 216" fill="none" xmlns="http://www.w3.org/2000/svg">
<path d="M23.5704 188.51L18.1023 184.744C18.1023 184.744 14.9438 189.338 10.1187 186.138C9.17768 185.538 8.44677 184.66 8.02736 183.626C7.60796 182.592 7.52085 181.453 7.77812 180.367C7.98209 179.451 8.39974 178.597 8.99695 177.874C9.59415 177.15 10.354 176.579 11.2144 176.205C13.1897 175.315 16.1784 175.326 19.4192 178.51L27.8966 166.164L22.4902 162.445L17.5261 169.647C17.5261 169.647 8.59603 166.39 2.84494 174.744C-2.65408 182.738 3.23589 189.528 6.30691 191.637C8.65261 193.289 17.0117 198.222 23.5704 188.51Z" fill="#EBEBEB"/>
<path d="M24.1476 159.88L29.6313 163.653L33.1566 158.53L27.6729 154.756L24.1476 159.88Z" fill="#EBEBEB"/>
<path d="M46.8523 203.628L49.7536 202.862C49.6674 202.532 49.6477 202.188 49.6958 201.85C49.7438 201.512 49.8585 201.188 50.0332 200.895C50.2079 200.602 50.4392 200.346 50.7135 200.144C50.9879 199.941 51.2998 199.795 51.6312 199.714C52.1145 199.567 52.6317 199.574 53.1104 199.736C53.5891 199.897 54.0053 200.204 54.301 200.614C54.555 200.953 54.7252 201.347 54.7977 201.765C54.8701 202.183 54.8427 202.611 54.7176 203.016C54.4398 203.958 53.5551 204.981 51.5077 205.151L53.231 211.699L56.1014 210.943L55.0726 207.106C56.1579 206.448 56.9972 205.452 57.4618 204.271C57.9265 203.09 57.9907 201.789 57.6446 200.568C56.5232 196.324 52.4542 196.339 50.8287 196.771C49.6096 197.1 45.448 198.52 46.8523 203.628Z" fill="#EBEBEB"/>
<path d="M56.5065 212.272L53.5918 213.042L54.3096 215.762L57.2243 214.993L56.5065 212.272Z" fill="#EBEBEB"/>
<path d="M95.073 20.3345C96.5405 19.4403 98.122 18.7482 99.7747 18.2769L100.742 13.6472L108.607 13.5083L109.739 18.138C111.407 18.5466 113.013 19.1782 114.512 20.0156L118.489 17.4075L124.147 22.8705L121.683 26.9343C122.574 28.4054 123.266 29.9881 123.741 31.6412L128.396 32.6083L128.53 40.4736L123.9 41.6053C123.489 43.2729 122.858 44.8782 122.023 46.379L124.626 50.3553L119.163 56.0138L115.099 53.5498C113.63 54.4441 112.046 55.1362 110.392 55.6074L109.425 60.268L101.56 60.4017L100.428 55.7721C98.7589 55.3657 97.1529 54.734 95.6543 53.8945L91.6779 56.5025L86.0194 51.0395L88.4834 46.9757C87.5892 45.5063 86.8971 43.9231 86.4258 42.2688L81.7961 41.3018L81.6572 33.4365L86.2869 32.3048C86.688 30.6266 87.3144 29.0104 88.1491 27.5002L85.541 23.5238L91.004 17.8653L95.073 20.3345ZM99.2654 30.813C98.1082 32.015 97.3335 33.5332 97.0392 35.1755C96.7448 36.8179 96.9441 38.5106 97.6117 40.0397C98.2794 41.5688 99.3855 42.8656 100.79 43.766C102.195 44.6665 103.835 45.1302 105.503 45.0986C107.171 45.0669 108.793 44.5413 110.162 43.5882C111.532 42.6351 112.588 41.2973 113.197 39.744C113.806 38.1907 113.941 36.4916 113.585 34.8616C113.228 33.2316 112.396 31.7439 111.195 30.5866C109.582 29.0359 107.42 28.1887 105.183 28.2312C102.946 28.2736 100.818 29.2022 99.2654 30.813V30.813Z" fill="#F5F5F5"/>
<path d="M62.1511 3.93522C62.9988 3.42607 63.9104 3.03168 64.862 2.76237L65.4176 0.07716L69.9495 0L70.6028 2.65949C71.5629 2.89427 72.4869 3.25764 73.3497 3.73975L75.6388 2.23767L78.8796 5.38071L77.4598 7.72126C77.9718 8.56824 78.368 9.48 78.6378 10.4322L81.3179 10.9878L81.3951 15.5197L78.7356 16.1833C78.5017 17.1437 78.1383 18.0678 77.6553 18.9302L79.1574 21.2193L76.0092 24.4807L73.6687 23.0609C72.8217 23.5729 71.9099 23.9691 70.9577 24.2389L70.3816 26.9138L65.8497 26.9961L65.2375 24.3366C64.2779 24.0978 63.3543 23.7328 62.4906 23.2512L60.2015 24.7533L56.9401 21.6051L58.3393 19.2697C57.8265 18.425 57.4302 17.5148 57.1613 16.5639L54.4812 16.0032L54.3989 11.4713L57.0636 10.8231C57.2974 9.86111 57.6608 8.93529 58.1438 8.07106L56.6417 5.78194L59.7899 2.52574L62.1511 3.93522ZM64.5636 9.97437C63.8923 10.6649 63.4413 11.5393 63.2677 12.4866C63.0941 13.4339 63.2058 14.4114 63.5886 15.2951C63.9714 16.1788 64.6081 16.9289 65.4178 17.4502C66.2276 17.9715 67.174 18.2405 68.1369 18.2232C69.0998 18.2058 70.0358 17.9028 70.8263 17.3526C71.6167 16.8025 72.2259 16.0299 72.5766 15.133C72.9273 14.2361 73.0037 13.2552 72.7961 12.3148C72.5884 11.3744 72.1062 10.5168 71.4104 9.85091C70.4828 8.95771 69.2387 8.46905 67.9512 8.4922C66.6637 8.51534 65.4379 9.0484 64.5431 9.97437H64.5636Z" fill="#EBEBEB"/>
<path d="M206.735 88.0512C207.581 87.5405 208.491 87.1443 209.441 86.8732L210.002 84.1931L214.529 84.116L215.182 86.7755C216.144 87.0093 217.07 87.3727 217.934 87.8557L220.223 86.3536L223.479 89.5018L222.06 91.8424C222.572 92.6894 222.968 93.6011 223.238 94.5533L225.923 95.1089L226 99.6408L223.341 100.294C223.101 101.253 222.738 102.176 222.26 103.041L223.757 105.33L220.614 108.591L218.274 107.172C217.427 107.684 216.515 108.08 215.563 108.35L215.002 111.03L210.475 111.112L209.822 108.447C208.862 108.214 207.937 107.85 207.075 107.367L204.781 108.869L201.525 105.721L202.944 103.381C202.431 102.534 202.035 101.622 201.766 100.67L199.086 100.114L199.004 95.5821L201.663 94.9288C201.903 93.9702 202.266 93.0468 202.744 92.1819L201.247 89.8928L204.39 86.6314L206.735 88.0512V88.0512ZM209.148 94.0852C208.48 94.7766 208.032 95.6506 207.86 96.5967C207.689 97.5428 207.802 98.5185 208.185 99.4004C208.568 100.282 209.204 101.031 210.013 101.551C210.821 102.072 211.766 102.34 212.727 102.324C213.689 102.307 214.623 102.006 215.414 101.458C216.204 100.91 216.814 100.14 217.166 99.2458C217.519 98.3512 217.598 97.3722 217.394 96.4326C217.19 95.4929 216.712 94.6349 216.021 93.9669C215.093 93.0727 213.848 92.583 212.56 92.6052C211.271 92.6274 210.044 93.1596 209.148 94.0852Z" fill="#EBEBEB"/>
<path d="M81.2211 76.4851L79.3178 70.5436C82.0249 66.1507 82.9909 60.904 82.0259 55.8349C81.0609 50.7659 78.2347 46.2411 74.1029 43.15C69.9711 40.059 64.8324 38.6253 59.6972 39.1307C54.5619 39.6361 49.8014 42.0441 46.3514 45.8814C42.9015 49.7186 41.0116 54.7076 41.0534 59.8675C41.0952 65.0274 43.0655 69.9851 46.5771 73.766C50.0887 77.5469 54.8876 79.8776 60.0304 80.2998C65.1732 80.722 70.2879 79.2053 74.3692 76.0478V76.0478L81.2211 76.4851Z" fill="#FAFAFA"/>
<path d="M81.2212 76.485H80.7891L79.4826 76.4181L74.3385 76.1352C74.3306 76.1352 74.3228 76.1336 74.3156 76.1304C74.3083 76.1273 74.3019 76.1226 74.2965 76.1168C74.2912 76.111 74.2871 76.1042 74.2846 76.0967C74.2821 76.0892 74.2812 76.0813 74.2819 76.0734C74.2797 76.0633 74.2797 76.0528 74.2819 76.0426L74.3642 76.1249C70.7898 78.9169 66.3943 80.4519 61.8589 80.4922C60.7135 80.4861 59.5701 80.395 58.4381 80.2196C53.1785 79.3963 48.4412 76.5706 45.2178 72.3337C43.4226 69.9486 42.1581 67.2073 41.509 64.2935C40.8036 61.1954 40.8318 57.9754 41.5913 54.8901C41.689 54.4992 41.7919 54.1031 41.8948 53.7121C41.9976 53.3212 42.1674 52.9405 42.3011 52.5547C42.4315 52.1646 42.5826 51.7816 42.7538 51.4076C42.9287 51.0372 43.1088 50.6668 43.2682 50.2913C43.4452 49.9159 43.6481 49.5533 43.8752 49.2059L44.5285 48.136L45.2796 47.1071L45.6602 46.5927C45.7888 46.4281 45.938 46.2789 46.0769 46.1195C48.3014 43.5618 51.1234 41.5933 54.292 40.389C57.3084 39.2396 60.5476 38.7945 63.7622 39.0875C66.7829 39.3879 69.7002 40.3503 72.3066 41.9065C76.9384 44.6574 80.3167 49.104 81.7254 54.3037C82.023 55.4178 82.2362 56.5527 82.3632 57.6988C82.4456 58.7701 82.4645 59.8454 82.4198 60.919C82.2227 64.3404 81.1723 67.658 79.3642 70.5693V70.523C79.9712 72.4572 80.4342 73.9489 80.7531 74.9675C80.9075 75.4819 81.0206 75.8368 81.1029 76.0992L81.2161 76.4798C81.2161 76.4798 81.1647 76.3409 81.0772 76.0837L80.7017 74.9469C80.3725 73.9181 79.8838 72.4674 79.2562 70.559C79.2507 70.5441 79.2507 70.5276 79.2562 70.5127C81.0302 67.6079 82.0537 64.3075 82.2346 60.9087C82.2741 59.8451 82.25 58.7801 82.1626 57.7194C82.0341 56.5832 81.8192 55.4586 81.5196 54.3551C80.4163 50.3523 78.1278 46.777 74.9548 44.0989C71.7819 41.4208 67.8729 39.7653 63.7417 39.3499C60.5675 39.0594 57.3689 39.4975 54.3897 40.6307C51.2693 41.8248 48.4905 43.768 46.2981 46.2892C46.1643 46.4487 46.0152 46.5927 45.8866 46.7573L45.511 47.2718L44.7703 48.2646L44.1324 49.3242C43.9061 49.6703 43.7033 50.0312 43.5254 50.4045C43.3505 50.7697 43.1756 51.1401 43.011 51.5053C42.8432 51.8743 42.6955 52.2521 42.5686 52.637C42.4349 53.0177 42.2754 53.3932 42.1623 53.779C42.0491 54.1648 41.9616 54.5558 41.8639 54.9416C41.118 57.9794 41.0863 61.1488 41.7713 64.2009C42.6627 68.209 44.7374 71.8569 47.7266 74.6718C50.7157 77.4867 54.4816 79.3388 58.5359 79.9881C59.6575 80.1642 60.7905 80.2588 61.9258 80.271C62.9856 80.2665 64.0434 80.1788 65.0894 80.0087C68.4599 79.4595 71.6414 78.0827 74.3488 76.0014C74.354 75.9958 74.3604 75.9914 74.3675 75.9883C74.3746 75.9853 74.3822 75.9837 74.3899 75.9837C74.3976 75.9837 74.4052 75.9853 74.4123 75.9883C74.4194 75.9914 74.4258 75.9958 74.4311 76.0014C74.4386 76.0119 74.4427 76.0245 74.4427 76.0374C74.4427 76.0504 74.4386 76.063 74.4311 76.0734V76.0734L74.3899 75.9809L79.4723 76.3307L80.7891 76.4232L81.2212 76.485Z" fill="#263238"/>
<path d="M55.9329 59.736C55.9329 60.1501 55.8101 60.5548 55.58 60.8991C55.35 61.2434 55.023 61.5118 54.6404 61.6702C54.2579 61.8287 53.8369 61.8702 53.4308 61.7894C53.0247 61.7086 52.6516 61.5092 52.3588 61.2164C52.066 60.9236 51.8666 60.5506 51.7858 60.1444C51.7051 59.7383 51.7465 59.3173 51.905 58.9348C52.0634 58.5522 52.3318 58.2252 52.6761 57.9952C53.0204 57.7651 53.4252 57.6423 53.8392 57.6423C54.3941 57.6437 54.9258 57.8647 55.3182 58.257C55.7105 58.6494 55.9315 59.1811 55.9329 59.736Z" fill="#263238"/>
<path d="M64.3176 59.736C64.3176 60.1501 64.1949 60.5548 63.9648 60.8991C63.7348 61.2434 63.4078 61.5118 63.0252 61.6702C62.6427 61.8287 62.2217 61.8702 61.8156 61.7894C61.4094 61.7086 61.0364 61.5092 60.7436 61.2164C60.4508 60.9236 60.2514 60.5506 60.1706 60.1444C60.0898 59.7383 60.1313 59.3173 60.2897 58.9348C60.4482 58.5522 60.7165 58.2252 61.0608 57.9952C61.4051 57.7651 61.8099 57.6423 62.224 57.6423C62.7789 57.6437 63.3106 57.8647 63.7029 58.257C64.0953 58.6494 64.3163 59.1811 64.3176 59.736V59.736Z" fill="#263238"/>
<path d="M72.6821 58.6916C72.8885 59.0502 72.984 59.4619 72.9566 59.8748C72.9292 60.2876 72.78 60.6831 72.528 61.0113C72.2759 61.3394 71.9323 61.5855 71.5405 61.7185C71.1487 61.8515 70.7263 61.8654 70.3265 61.7585C69.9268 61.6516 69.5677 61.4286 69.2947 61.1177C69.0216 60.8069 68.8467 60.4221 68.7922 60.0119C68.7377 59.6018 68.8059 59.1846 68.9882 58.8132C69.1706 58.4418 69.459 58.1327 69.8168 57.9251C70.0552 57.7868 70.3185 57.6969 70.5916 57.6606C70.8648 57.6243 71.1424 57.6422 71.4086 57.7135C71.6748 57.7847 71.9243 57.9077 72.1429 58.0756C72.3614 58.2434 72.5446 58.4527 72.6821 58.6916V58.6916Z" fill="#263238"/>
<path d="M86.9487 134.337L65.2818 132.095L56.1048 111.266L48.9751 113.123C48.9751 113.123 54.2426 135.135 60.1377 138.545C66.0329 141.956 86.1719 142.568 86.1719 142.568L86.9487 134.337Z" fill="#92E3A9"/>
<path d="M98.4675 144.931C101.993 140.964 101.635 134.891 97.6686 131.365C93.7019 127.84 87.6283 128.197 84.1028 132.164C80.5772 136.131 80.9349 142.204 84.9016 145.73C88.8683 149.255 94.9419 148.898 98.4675 144.931Z" fill="#263238"/>
<path d="M91.2852 148.164C89.0585 148.164 86.9007 147.392 85.1794 145.98C83.4582 144.567 82.28 142.601 81.8456 140.417C81.4112 138.234 81.7475 135.967 82.7971 134.003C83.8468 132.039 85.5449 130.5 87.6021 129.648C89.6593 128.796 91.9483 128.683 94.0791 129.33C96.2099 129.976 98.0507 131.341 99.2878 133.193C100.525 135.044 101.082 137.267 100.863 139.483C100.645 141.699 99.6653 143.771 98.0908 145.345C97.1991 146.242 96.1385 146.953 94.9703 147.437C93.8022 147.92 92.5496 148.168 91.2852 148.164V148.164ZM91.2852 128.946C89.0645 128.944 86.9117 129.712 85.1936 131.119C83.4755 132.526 82.2984 134.485 81.8629 136.662C81.4273 138.84 81.7603 141.101 82.8051 143.061C83.8499 145.021 85.5418 146.557 87.5925 147.409C89.6433 148.261 91.926 148.376 94.0518 147.734C96.1776 147.091 98.0149 145.732 99.2507 143.887C100.486 142.041 101.044 139.825 100.829 137.615C100.614 135.404 99.6388 133.337 98.0702 131.765C97.1818 130.87 96.1247 130.16 94.9601 129.676C93.7954 129.192 92.5464 128.944 91.2852 128.946V128.946Z" fill="#263238"/>
<path d="M63.3398 140.19C67.2101 139.261 69.5943 135.371 68.6651 131.5C67.736 127.63 63.8453 125.246 59.975 126.175C56.1048 127.104 53.7205 130.995 54.6497 134.865C55.5789 138.735 59.4696 141.12 63.3398 140.19Z" fill="#263238"/>
<path d="M56.1849 112.95C58.4851 110.65 58.4851 106.92 56.1849 104.62C53.8848 102.32 50.1554 102.32 47.8553 104.62C45.5551 106.92 45.5551 110.65 47.8553 112.95C50.1554 115.25 53.8848 115.25 56.1849 112.95Z" fill="#263238"/>
<path d="M61.2002 105.598L56.3503 109.693L54.6013 107.622L59.4511 103.526C59.7065 103.311 60.0371 103.205 60.3701 103.233C60.7032 103.261 61.0115 103.421 61.2271 103.676L61.3466 103.818C61.4542 103.944 61.5358 104.09 61.5866 104.248C61.6375 104.406 61.6567 104.573 61.6431 104.738C61.6295 104.903 61.5834 105.064 61.5074 105.212C61.4314 105.359 61.327 105.491 61.2002 105.598V105.598Z" fill="#263238"/>
<path d="M55.04 98.0972V104.27C55.04 104.318 55.0211 104.364 54.9873 104.397C54.9535 104.431 54.9078 104.45 54.86 104.45H52.5143C52.4666 104.45 52.4208 104.431 52.387 104.397C52.3532 104.364 52.3343 104.318 52.3343 104.27V98.0972C52.3343 97.763 52.467 97.4424 52.7034 97.206C52.9397 96.9697 53.2603 96.8369 53.5946 96.8369H53.7797C54.114 96.8369 54.4346 96.9697 54.6709 97.206C54.9073 97.4424 55.04 97.763 55.04 98.0972V98.0972Z" fill="#263238"/>
<path d="M50.6721 98.1205L52.0197 104.145C52.0302 104.191 52.0217 104.24 51.9961 104.28C51.9705 104.321 51.9299 104.349 51.8833 104.36L49.5942 104.872C49.5476 104.882 49.4988 104.874 49.4585 104.848C49.4182 104.822 49.3896 104.782 49.3792 104.735L48.0316 98.7112C47.9586 98.385 48.0182 98.0432 48.1973 97.761C48.3763 97.4787 48.6602 97.2792 48.9864 97.2062L49.1671 97.1658C49.4933 97.0928 49.8351 97.1524 50.1173 97.3314C50.3996 97.5105 50.5991 97.7943 50.6721 98.1205V98.1205Z" fill="#263238"/>
<path d="M45.9734 99.6303L49.0599 104.976C49.0837 105.018 49.0902 105.067 49.0778 105.113C49.0655 105.159 49.0353 105.198 48.994 105.222L46.9625 106.395C46.9212 106.419 46.872 106.425 46.8259 106.413C46.7798 106.401 46.7405 106.37 46.7166 106.329L43.6301 100.983C43.463 100.694 43.4177 100.35 43.5042 100.027C43.5907 99.704 43.802 99.4287 44.0914 99.2616L44.2518 99.169C44.5413 99.0018 44.8853 98.9566 45.2081 99.0431C45.531 99.1296 45.8063 99.3408 45.9734 99.6303V99.6303Z" fill="#263238"/>
<path d="M181.116 188.294L187.601 185.535L168.888 141.535L162.403 144.293L181.116 188.294Z" fill="#92E3A9"/>
<path d="M169.817 145.74C173.248 141.691 172.746 135.627 168.697 132.197C164.647 128.766 158.584 129.268 155.154 133.317C151.723 137.367 152.225 143.43 156.274 146.86C160.323 150.291 166.387 149.789 169.817 145.74Z" fill="#263238"/>
<path d="M162.505 149.173C160.998 149.173 159.511 148.82 158.165 148.141C156.819 147.463 155.651 146.477 154.755 145.265C153.859 144.052 153.261 142.646 153.007 141.16C152.754 139.674 152.853 138.149 153.297 136.709C153.823 135.009 154.81 133.489 156.149 132.317C157.487 131.145 159.124 130.367 160.878 130.069C162.632 129.772 164.434 129.966 166.083 130.632C167.733 131.297 169.166 132.407 170.223 133.837C171.281 135.268 171.92 136.964 172.071 138.737C172.222 140.509 171.879 142.289 171.079 143.878C170.279 145.467 169.054 146.803 167.541 147.738C166.027 148.673 164.284 149.169 162.505 149.173V149.173ZM162.505 129.944C160.729 129.946 158.989 130.44 157.477 131.372C155.965 132.305 154.742 133.638 153.943 135.224C153.144 136.81 152.8 138.586 152.95 140.356C153.101 142.125 153.739 143.819 154.795 145.247C155.85 146.675 157.281 147.783 158.928 148.446C160.575 149.11 162.374 149.304 164.125 149.006C165.876 148.708 167.51 147.93 168.845 146.759C170.18 145.588 171.164 144.069 171.687 142.372V142.372C172.435 139.94 172.186 137.311 170.997 135.062C169.808 132.813 167.775 131.128 165.345 130.376C164.415 130.088 163.447 129.943 162.474 129.944H162.505Z" fill="#263238"/>
<path d="M181.942 168.259C183.007 164.424 180.762 160.452 176.927 159.386C173.093 158.32 169.12 160.565 168.054 164.4C166.988 168.235 169.233 172.208 173.068 173.273C176.903 174.339 180.876 172.094 181.942 168.259Z" fill="#263238"/>
<path d="M185.865 194.652C189.118 194.652 191.755 192.014 191.755 188.762C191.755 185.509 189.118 182.872 185.865 182.872C182.612 182.872 179.975 185.509 179.975 188.762C179.975 192.014 182.612 194.652 185.865 194.652Z" fill="#263238"/>
<path d="M178.161 194.693L181.459 189.282L183.774 190.692L180.476 196.104C180.302 196.39 180.022 196.594 179.697 196.673C179.372 196.752 179.029 196.698 178.744 196.524L178.585 196.428C178.443 196.342 178.32 196.229 178.221 196.096C178.123 195.962 178.052 195.81 178.013 195.649C177.973 195.488 177.966 195.32 177.991 195.156C178.017 194.992 178.074 194.835 178.161 194.693V194.693Z" fill="#263238"/>
<path d="M186.372 199.854L184.418 193.999C184.403 193.954 184.406 193.904 184.427 193.862C184.449 193.819 184.486 193.787 184.532 193.771L186.757 193.029C186.802 193.014 186.851 193.017 186.894 193.038C186.937 193.06 186.969 193.097 186.984 193.142L188.939 198.998C188.989 199.155 189.008 199.321 188.995 199.486C188.981 199.651 188.935 199.812 188.859 199.959C188.783 200.106 188.679 200.237 188.553 200.344C188.427 200.451 188.281 200.532 188.123 200.582L187.947 200.641C187.634 200.741 187.294 200.715 187 200.568C186.705 200.421 186.48 200.165 186.372 199.854V199.854Z" fill="#263238"/>
<path d="M190.513 198.451L187.327 193.164C187.315 193.144 187.307 193.121 187.303 193.098C187.3 193.074 187.301 193.051 187.306 193.028C187.312 193.005 187.322 192.983 187.336 192.964C187.35 192.945 187.368 192.929 187.388 192.917L189.397 191.706C189.418 191.694 189.44 191.686 189.463 191.682C189.487 191.679 189.511 191.68 189.534 191.686C189.557 191.691 189.578 191.702 189.597 191.716C189.616 191.73 189.632 191.747 189.645 191.768L192.83 197.055C193.003 197.341 193.054 197.684 192.974 198.009C192.894 198.333 192.687 198.612 192.401 198.785L192.243 198.88C191.956 199.053 191.613 199.105 191.289 199.024C190.964 198.944 190.685 198.738 190.513 198.451V198.451Z" fill="#263238"/>
<path d="M194.489 195.536L189.869 191.443C189.833 191.411 189.811 191.366 189.809 191.319C189.806 191.271 189.822 191.224 189.854 191.188L191.406 189.437C191.437 189.401 191.482 189.379 191.53 189.376C191.577 189.373 191.624 189.389 191.66 189.421L196.28 193.515C196.53 193.736 196.682 194.048 196.702 194.382C196.723 194.716 196.609 195.044 196.388 195.294L196.265 195.432C196.043 195.681 195.731 195.831 195.399 195.851C195.066 195.87 194.739 195.757 194.489 195.536V195.536Z" fill="#263238"/>
<path d="M88.4302 128.545C88.4302 128.545 89.1246 196.004 126.98 197.321C164.835 198.638 166.425 129.029 166.425 128.545C166.425 128.545 161.954 118.488 127.427 118.879C92.9004 119.27 88.4302 128.545 88.4302 128.545Z" fill="#92E3A9"/>
<path d="M109.686 116.672H141.682C143.77 116.672 145.463 114.98 145.463 112.891V112.341C145.463 110.253 143.77 108.56 141.682 108.56H109.686C107.598 108.56 105.905 110.253 105.905 112.341V112.891C105.905 114.98 107.598 116.672 109.686 116.672Z" fill="#263238"/>
<path d="M124.305 56.6873H127.067V42.7211H124.305V56.6873Z" fill="#263238"/>
<path d="M167.924 98.2653C172.285 97.2287 174.981 92.8525 173.944 88.4909C172.908 84.1293 168.531 81.4339 164.17 82.4706C159.808 83.5073 157.113 87.8834 158.15 92.245C159.186 96.6066 163.562 99.302 167.924 98.2653Z" fill="#92E3A9"/>
<path d="M85.903 97.7383C90.2751 96.7466 93.0154 92.3985 92.0237 88.0264C91.032 83.6544 86.6838 80.9141 82.3118 81.9058C77.9397 82.8975 75.1994 87.2457 76.1911 91.6177C77.1828 95.9897 81.531 98.73 85.903 97.7383Z" fill="#92E3A9"/>
<path d="M124.079 53.6574C124.079 53.6574 91.0743 53.2613 85.8582 81.8675C80.6421 110.474 108.544 110.988 116.574 111.528C120.21 111.775 127.999 111.801 134.871 111.677C150.087 111.415 160.838 108.473 164.496 94.3574C164.931 92.7023 165.205 91.0088 165.314 89.3007C166.276 73.8068 155.818 52.8961 124.079 53.6574Z" fill="#92E3A9"/>
<path d="M148.02 97.1969L100.072 97.9428C98.8754 97.9639 97.6866 97.7489 96.5735 97.31C95.4603 96.8712 94.4447 96.2171 93.5846 95.3852C92.7246 94.5534 92.037 93.5601 91.5613 92.4622C91.0856 91.3643 90.8311 90.1833 90.8124 88.987V88.987C90.7919 87.7904 91.0076 86.6015 91.447 85.4883C91.8865 84.3752 92.541 83.3596 93.3733 82.4996C94.2056 81.6396 95.1992 80.9521 96.2974 80.4765C97.3956 80.0009 98.5767 79.7464 99.7734 79.7276L147.721 78.9817C148.918 78.9599 150.107 79.1745 151.22 79.6131C152.334 80.0517 153.35 80.7058 154.21 81.5378C155.07 82.3698 155.758 83.3633 156.233 84.4615C156.709 85.5597 156.963 86.741 156.981 87.9376C157.002 89.1343 156.787 90.3235 156.347 91.437C155.908 92.5504 155.254 93.5663 154.421 94.4265C153.589 95.2866 152.595 95.974 151.496 96.4494C150.398 96.9248 149.216 97.1788 148.02 97.1969V97.1969Z" fill="#263238"/>
<path d="M110.035 87.9943C109.924 88.5612 109.647 89.0824 109.239 89.4919C108.831 89.9014 108.311 90.1808 107.745 90.2948C107.178 90.4088 106.591 90.3523 106.057 90.1324C105.522 89.9125 105.065 89.5392 104.743 89.0595C104.421 88.5798 104.248 88.0154 104.247 87.4376C104.245 86.8598 104.415 86.2945 104.735 85.8133C105.055 85.332 105.51 84.9564 106.043 84.7339C106.577 84.5114 107.164 84.452 107.731 84.5632C108.107 84.6371 108.466 84.7844 108.786 84.9968C109.105 85.2093 109.38 85.4826 109.594 85.8013C109.808 86.1199 109.957 86.4776 110.033 86.8539C110.109 87.2301 110.109 87.6177 110.035 87.9943V87.9943Z" fill="white"/>
<path d="M143.518 87.4593C143.408 88.0267 143.131 88.5485 142.724 88.9588C142.317 89.3691 141.797 89.6493 141.23 89.764C140.664 89.8788 140.076 89.8229 139.541 89.6034C139.006 89.384 138.549 89.0108 138.226 88.5312C137.903 88.0515 137.73 87.4869 137.729 86.9089C137.727 86.3308 137.897 85.7652 138.217 85.2837C138.536 84.8022 138.992 84.4263 139.525 84.2038C140.059 83.9812 140.646 83.9219 141.214 84.0333C141.973 84.1826 142.643 84.6272 143.075 85.2695C143.507 85.9119 143.666 86.6994 143.518 87.4593V87.4593Z" fill="white"/>
<path d="M138.698 155.335C138.51 157.91 137.563 160.37 135.977 162.406C134.391 164.442 132.236 165.962 129.786 166.774C127.336 167.585 124.7 167.652 122.212 166.966C119.724 166.28 117.495 164.871 115.808 162.918C114.12 160.965 113.05 158.555 112.731 155.994C112.413 153.433 112.862 150.834 114.02 148.528C115.179 146.221 116.995 144.31 119.239 143.036C121.484 141.762 124.056 141.182 126.63 141.369C130.082 141.622 133.293 143.235 135.556 145.854C137.818 148.473 138.949 151.883 138.698 155.335V155.335Z" fill="#263238"/>
<path d="M135.164 155.078C135.027 156.954 134.337 158.748 133.18 160.231C132.024 161.715 130.453 162.822 128.667 163.414C126.881 164.005 124.96 164.053 123.147 163.552C121.333 163.052 119.709 162.024 118.48 160.601C117.25 159.177 116.47 157.42 116.239 155.553C116.008 153.686 116.335 151.793 117.18 150.112C118.025 148.431 119.35 147.039 120.986 146.111C122.622 145.183 124.497 144.761 126.373 144.898C127.619 144.989 128.835 145.324 129.951 145.885C131.067 146.445 132.062 147.221 132.879 148.166C133.695 149.111 134.317 150.209 134.709 151.395C135.102 152.581 135.256 153.832 135.164 155.078V155.078Z" fill="white"/>
<path d="M130.581 156.807C130.509 156.287 130.479 155.762 130.494 155.238C130.468 154.255 130.447 152.851 130.447 151.122L130.55 151.313L125.658 148.458H125.931L120.993 151.23C120.859 151.457 121.173 150.927 121.142 150.984V151.714V152.45C121.142 152.933 121.142 153.417 121.116 153.89C121.116 154.836 121.08 155.752 121.065 156.637L120.931 156.4L125.766 159.353H125.55C127.057 158.54 128.302 157.892 129.151 157.45C129.608 157.19 130.084 156.966 130.576 156.781C130.192 157.094 129.779 157.367 129.341 157.599C128.508 158.113 127.284 158.839 125.741 159.728L125.633 159.79L125.525 159.728L120.627 156.874L120.494 156.796V156.632C120.494 155.747 120.504 154.831 120.525 153.885C120.525 153.412 120.525 152.933 120.525 152.444V151.714V151.004C120.494 151.061 120.807 150.536 120.674 150.757L125.627 148.01L125.771 147.933L125.905 148.015L130.736 150.968L130.844 151.035V151.158C130.787 152.938 130.73 154.368 130.679 155.341C130.692 155.831 130.659 156.322 130.581 156.807Z" fill="#92E3A9"/>
<path d="M128.908 45.6573C130.686 43.8795 130.686 40.997 128.908 39.2191C127.13 37.4413 124.248 37.4413 122.47 39.2191C120.692 40.997 120.692 43.8795 122.47 45.6573C124.248 47.4352 127.13 47.4352 128.908 45.6573Z" fill="#92E3A9"/>
<path d="M118.415 86.6465C118.631 86.6722 118.523 87.6753 119.161 89.0488C119.523 89.8371 120.049 90.5387 120.704 91.1064C121.473 91.7825 122.429 92.2078 123.446 92.3255C124.468 92.3915 125.487 92.1477 126.368 91.6259C127.114 91.1921 127.759 90.6047 128.261 89.9027C129.136 88.6835 129.213 87.6598 129.429 87.6753C129.516 87.6753 129.604 87.9325 129.604 88.416C129.584 89.1049 129.408 89.7804 129.089 90.3914C128.61 91.3147 127.901 92.0995 127.032 92.6702C125.956 93.4279 124.646 93.7783 123.336 93.6586C122.026 93.5389 120.802 92.957 119.881 92.0169C119.13 91.2986 118.577 90.3984 118.276 89.4037C118.062 88.74 118.006 88.0354 118.112 87.3461C118.199 86.8677 118.333 86.631 118.415 86.6465Z" fill="white"/>
<path d="M162.361 99.9747C162.31 99.9747 162.901 99.0488 163.472 97.4284C164.182 95.3063 164.631 93.1056 164.81 90.8749C165.016 88.652 165.067 86.4176 164.964 84.1876C164.928 83.3285 164.887 82.6443 164.846 82.1299C164.811 81.8812 164.802 81.6295 164.82 81.3789C164.886 81.6213 164.929 81.8693 164.949 82.1197C165.021 82.5981 165.093 83.2925 165.154 84.1773C165.316 86.4252 165.29 88.6827 165.077 90.9263C164.896 93.1779 164.417 95.3955 163.652 97.521C163.41 98.1621 163.118 98.783 162.778 99.378C162.656 99.5885 162.517 99.7881 162.361 99.9747V99.9747Z" fill="#263238"/>
<path d="M85.9202 80.9109C85.8911 81.1607 85.8377 81.4071 85.7607 81.6465C85.6939 81.878 85.6218 82.1609 85.555 82.5004C85.4881 82.8399 85.3852 83.2103 85.3235 83.6373C85.1431 84.6287 85.0229 85.6302 84.9634 86.6363C84.8942 87.8671 84.9114 89.1013 85.0148 90.3297C85.1298 91.556 85.3291 92.7729 85.6115 93.9717C85.8477 94.9524 86.1432 95.9178 86.4963 96.8627C86.6352 97.2691 86.7947 97.624 86.9233 97.9429C87.0519 98.2619 87.1754 98.5294 87.2782 98.7454C87.3955 98.9675 87.4919 99.2 87.5663 99.4399C87.4199 99.2359 87.2925 99.0189 87.1856 98.7917C87.0402 98.5346 86.908 98.2702 86.7895 97.9995C86.6455 97.6909 86.4706 97.3359 86.3214 96.9295C85.9395 95.9872 85.6232 95.0195 85.3749 94.0334C85.0739 92.8231 84.8641 91.592 84.7473 90.3503C84.6425 89.1097 84.6322 87.863 84.7165 86.6208C84.7882 85.6059 84.9292 84.597 85.1383 83.6012C85.2155 83.1743 85.3235 82.7988 85.4109 82.4644C85.4984 82.13 85.5807 81.8471 85.6578 81.6156C85.726 81.374 85.8138 81.1383 85.9202 80.9109V80.9109Z" fill="#263238"/>
<path d="M88.2554 128.489L88.4508 128.545L89.027 128.741L91.2184 129.512L92.8027 130.078C93.384 130.274 94.027 130.459 94.7112 130.67C96.0847 131.076 97.633 131.606 99.3923 132.017L102.134 132.722C103.091 132.964 104.099 133.144 105.138 133.37C107.196 133.844 109.454 134.168 111.826 134.548C116.954 135.252 122.123 135.621 127.299 135.654C132.475 135.624 137.644 135.254 142.772 134.548C145.128 134.168 147.371 133.849 149.46 133.37C150.488 133.149 151.517 132.969 152.464 132.727L155.211 132.023C156.965 131.611 158.513 131.081 159.887 130.675C160.571 130.464 161.214 130.279 161.795 130.083L163.379 129.517L165.571 128.746L166.147 128.55C166.212 128.525 166.279 128.506 166.348 128.494L166.157 128.576L165.591 128.797L163.416 129.615L161.795 130.222C161.219 130.423 160.576 130.613 159.892 130.834C158.518 131.256 156.975 131.796 155.216 132.223L152.469 132.943C151.517 133.19 150.504 133.375 149.465 133.607C147.407 134.09 145.144 134.42 142.777 134.811C137.639 135.532 132.457 135.908 127.268 135.937C122.081 135.904 116.901 135.526 111.764 134.805C109.403 134.42 107.134 134.085 105.077 133.602C104.048 133.37 103.019 133.185 102.072 132.938L99.3254 132.218C97.5661 131.791 96.0229 131.251 94.6495 130.829C93.9653 130.608 93.3274 130.418 92.7461 130.217L91.1669 129.625L88.991 128.807L88.4251 128.586C88.3656 128.559 88.3087 128.526 88.2554 128.489Z" fill="#263238"/>
<g opacity="0.3">
<path opacity="0.3" d="M88.4302 128.545C88.4302 128.545 92.9004 119.286 127.427 118.879C161.954 118.473 166.425 128.545 166.425 128.545C166.425 128.545 131.579 145.721 88.4302 128.545Z" fill="black"/>
</g>
<path d="M119.897 55.7974C119.857 55.8012 119.818 55.8012 119.778 55.7974L119.434 55.8334C119.125 55.8643 118.672 55.8746 118.091 55.9415C116.451 56.1006 114.823 56.3705 113.22 56.7491C104.925 58.6488 97.6081 63.5107 92.6433 70.422C90.2447 73.7433 88.4286 77.4485 87.2729 81.3789C87.0929 81.9345 86.9951 82.3769 86.9077 82.6701L86.8099 83.0096C86.8007 83.0488 86.7869 83.0868 86.7688 83.1228C86.762 83.0836 86.762 83.0436 86.7688 83.0045C86.7688 82.9119 86.8099 82.7987 86.8408 82.6598C86.9128 82.3615 86.99 81.9139 87.1546 81.3481C87.5839 79.7499 88.1342 78.1868 88.8007 76.6721C90.9995 71.6386 94.3468 67.1901 98.5744 63.6833C102.82 60.2029 107.822 57.7647 113.178 56.5639C114.792 56.1974 116.431 55.9549 118.081 55.8386C118.667 55.7871 119.11 55.7923 119.429 55.7769H119.778C119.861 55.7871 119.897 55.7923 119.897 55.7974Z" fill="white"/>
<path d="M87.6072 95.3966C87.4011 95.0781 87.2417 94.7316 87.134 94.3678C86.5238 92.6487 86.2395 90.8309 86.2955 89.0076C86.2808 88.6291 86.326 88.2507 86.4293 87.8862C86.5116 87.8862 86.3984 89.6044 86.7276 91.6826C87.0568 93.7608 87.6844 95.3657 87.6072 95.3966Z" fill="white"/>
<path d="M78.9501 92.7371C78.9501 92.7371 78.8317 92.6548 78.6723 92.4593C78.445 92.1823 78.2499 91.8802 78.091 91.5591C77.5417 90.4957 77.3315 89.2895 77.4888 88.103C77.646 86.9165 78.1632 85.8067 78.9706 84.9232C79.2071 84.6526 79.4748 84.4109 79.768 84.203C79.8687 84.1183 79.9836 84.0521 80.1075 84.0076C80.1383 84.0487 79.6754 84.3625 79.1147 85.0364C78.3788 85.9177 77.9079 86.9896 77.7568 88.1278C77.6056 89.266 77.7804 90.4237 78.2608 91.4665C78.6208 92.2844 78.9861 92.7062 78.9501 92.7371Z" fill="white"/>
<path d="M125.982 39.2643C125.581 39.2201 125.176 39.2115 124.773 39.2386C124.294 39.2807 123.83 39.4321 123.418 39.6813C123.006 39.9304 122.656 40.2707 122.396 40.676C122.136 41.0812 121.972 41.5407 121.917 42.0192C121.861 42.4976 121.917 42.9823 122.078 43.4361C122.217 43.8125 122.389 44.1757 122.592 44.5215C122.592 44.5215 122.49 44.4598 122.345 44.2952C122.148 44.0571 121.991 43.7876 121.883 43.4979C121.686 43.0175 121.609 42.4969 121.656 41.9802C121.704 41.4635 121.875 40.9658 122.156 40.5293C122.436 40.0928 122.818 39.7303 123.268 39.4725C123.718 39.2147 124.224 39.0692 124.743 39.0482C125.051 39.0269 125.36 39.0564 125.658 39.1357C125.89 39.1717 125.982 39.2489 125.982 39.2643Z" fill="white"/>
<path d="M170.818 86.4973C170.761 86.559 169.964 85.7925 168.76 85.2164C167.557 84.6402 166.461 84.4705 166.471 84.3882C167.31 84.3673 168.139 84.5697 168.874 84.9746C169.647 85.2981 170.319 85.8241 170.818 86.4973V86.4973Z" fill="white"/>
<path d="M100.262 176.555C100.238 176.524 100.218 176.491 100.2 176.457L100.03 176.153C99.876 175.86 99.6703 175.469 99.4028 174.97C99.269 174.713 99.125 174.425 98.9604 174.116L98.4768 173.088C98.127 172.342 97.7361 171.493 97.3503 170.515C97.1548 170.037 96.949 169.533 96.733 169.013C96.5169 168.494 96.3318 167.928 96.1208 167.357C95.6785 166.22 95.3029 164.97 94.8657 163.674C94.0581 161.05 93.2659 158.144 92.5714 155.058C91.877 151.971 91.3729 148.993 90.9613 146.282C90.5498 143.571 90.2823 141.138 90.1177 139.049C90.02 138.02 89.9582 137.084 89.9068 136.261C89.8554 135.438 89.8091 134.718 89.7936 134.152C89.7782 133.586 89.7628 133.149 89.7473 132.82V132.475C89.7418 132.436 89.7418 132.396 89.7473 132.357C89.7533 132.396 89.7533 132.436 89.7473 132.475L89.7782 132.82C89.7782 133.144 89.8348 133.591 89.8708 134.147C89.9068 134.702 89.9582 135.433 90.0303 136.251C90.1023 137.069 90.1691 138.005 90.2823 139.034C90.4675 141.091 90.7967 143.54 91.1825 146.235C91.5683 148.931 92.129 151.894 92.8081 154.98C93.4871 158.067 94.2844 160.968 95.0715 163.586C95.5087 164.883 95.8739 166.128 96.306 167.264C96.5118 167.841 96.7073 168.391 96.9027 168.921L97.4995 170.433C97.8698 171.395 98.2505 172.249 98.59 173.005L99.053 174.034C99.2021 174.348 99.3462 174.636 99.4748 174.898L100.051 176.102L100.195 176.416C100.226 176.457 100.249 176.504 100.262 176.555Z" fill="white"/>
<path d="M80.1329 134.615C78.8779 134.663 77.621 134.618 76.3726 134.481C75.1182 134.437 73.8685 134.305 72.6328 134.085C73.8878 134.038 75.1447 134.082 76.3931 134.219C77.6475 134.263 78.8972 134.395 80.1329 134.615Z" fill="white"/>
<path d="M60.781 123.632C60.0515 122.57 59.3966 121.458 58.8211 120.304C58.169 119.193 57.5949 118.038 57.103 116.847C57.8304 117.912 58.4835 119.026 59.0578 120.181C59.7133 121.289 60.2892 122.443 60.781 123.632V123.632Z" fill="white"/>
<path d="M118.524 192.774C118.321 192.77 118.119 192.746 117.922 192.702C117.377 192.605 116.84 192.475 116.312 192.311C115.527 192.072 114.76 191.778 114.017 191.431C113.112 190.995 112.242 190.489 111.414 189.919C110.596 189.335 109.826 188.686 109.11 187.98C108.53 187.399 107.994 186.777 107.505 186.118C107.17 185.678 106.866 185.216 106.594 184.734C106.483 184.565 106.392 184.384 106.322 184.194C106.363 184.168 106.795 184.914 107.654 186.004C108.159 186.638 108.704 187.24 109.285 187.805C110.709 189.188 112.342 190.338 114.125 191.21C114.854 191.562 115.603 191.87 116.368 192.131C117.685 192.573 118.534 192.723 118.524 192.774Z" fill="white"/>
<path d="M126.414 168.978C126.295 168.998 126.175 169.01 126.054 169.014C125.712 169.043 125.369 169.053 125.025 169.044C123.746 169.016 122.477 168.81 121.255 168.432C120.41 168.169 119.588 167.839 118.796 167.445C117.888 166.978 117.027 166.425 116.224 165.793C114.364 164.365 112.899 162.487 111.965 160.336C111.031 158.186 110.659 155.833 110.884 153.499C110.968 152.486 111.149 151.484 111.424 150.505C111.671 149.657 111.989 148.831 112.376 148.036C112.934 146.884 113.651 145.815 114.506 144.862C114.735 144.602 114.979 144.354 115.236 144.121C115.321 144.036 115.412 143.957 115.509 143.885C115.509 143.885 115.169 144.25 114.583 144.914C113.76 145.882 113.068 146.954 112.525 148.103C111.716 149.796 111.235 151.627 111.106 153.499C110.897 155.792 111.268 158.1 112.185 160.211C113.102 162.323 114.535 164.17 116.353 165.582C117.132 166.21 117.969 166.761 118.853 167.229C119.627 167.637 120.434 167.981 121.265 168.257C122.469 168.648 123.72 168.878 124.984 168.942C125.915 168.978 126.414 168.947 126.414 168.978Z" fill="white"/>
<path d="M64.1348 128.468C64.1348 128.509 63.7387 128.319 63.106 128.169C62.2594 127.984 61.3817 127.993 60.5389 128.195C59.6961 128.397 58.9101 128.788 58.2397 129.337C57.7253 129.764 57.4784 130.104 57.4424 130.078C57.5835 129.738 57.8019 129.435 58.0802 129.193C58.7479 128.581 59.5608 128.148 60.4421 127.938C61.3234 127.727 62.2438 127.745 63.1163 127.989C63.4881 128.068 63.8367 128.232 64.1348 128.468V128.468Z" fill="white"/>
<path d="M140.098 77.3203C140.098 77.3923 133.781 77.454 125.993 77.454C118.204 77.454 111.882 77.3923 111.882 77.3203C111.882 77.2483 118.199 77.1865 125.993 77.1865C133.786 77.1865 140.098 77.238 140.098 77.3203Z" fill="white"/>
<path d="M116.023 109.486C115.946 109.508 115.867 109.52 115.787 109.522L115.097 109.584C114.799 109.61 114.434 109.63 114.007 109.641C113.58 109.651 113.096 109.671 112.561 109.641C111.486 109.641 110.211 109.563 108.796 109.414C107.265 109.236 105.745 108.973 104.243 108.627C102.745 108.268 101.268 107.825 99.8195 107.3C98.6392 106.868 97.4819 106.375 96.3524 105.824C95.8379 105.597 95.4419 105.361 95.0663 105.16C94.6908 104.959 94.3719 104.779 94.1147 104.646L93.5231 104.286C93.453 104.247 93.3874 104.2 93.3276 104.147C93.3276 104.147 93.4099 104.147 93.5488 104.239L94.1661 104.553C94.4285 104.697 94.7525 104.867 95.1332 105.068C95.5139 105.268 95.946 105.474 96.4347 105.69C97.4017 106.143 98.5797 106.626 99.9069 107.105C102.791 108.139 105.784 108.843 108.827 109.203C110.226 109.368 111.497 109.461 112.561 109.486C113.076 109.517 113.59 109.486 114.007 109.486C114.424 109.486 114.794 109.486 115.092 109.486H115.782C115.862 109.473 115.943 109.473 116.023 109.486V109.486Z" fill="white"/>
<path d="M157.088 132.666C157.05 132.691 157.009 132.71 156.965 132.722L156.595 132.861L155.165 133.375C154.542 133.602 153.781 133.864 152.881 134.126C151.98 134.389 150.967 134.728 149.82 135.016L148.03 135.49C147.407 135.649 146.749 135.783 146.075 135.942C144.727 136.266 143.266 136.524 141.733 136.817C135.056 137.98 128.271 138.396 121.502 138.057C119.958 137.959 118.462 137.882 117.083 137.722C116.394 137.65 115.725 137.599 115.087 137.511L113.251 137.259C112.078 137.12 111.028 136.909 110.108 136.745C109.187 136.58 108.389 136.426 107.746 136.277L106.265 135.947L105.879 135.855C105.834 135.848 105.791 135.834 105.75 135.814C105.797 135.81 105.843 135.81 105.889 135.814L106.275 135.881L107.767 136.163C108.415 136.292 109.207 136.441 110.133 136.58C111.059 136.719 112.103 136.92 113.276 137.048L115.108 137.28C115.745 137.362 116.414 137.408 117.103 137.475C118.477 137.624 119.958 137.691 121.512 137.784C124.624 137.912 128.045 137.918 131.635 137.707C135.226 137.496 138.616 137.048 141.687 136.544C143.23 136.261 144.681 136.03 146.029 135.701C146.703 135.546 147.361 135.418 147.983 135.263L149.774 134.805C150.921 134.533 151.934 134.214 152.834 133.957C153.734 133.699 154.506 133.442 155.129 133.252L156.574 132.789L156.955 132.676L157.088 132.666Z" fill="white"/>
</svg>
