<svg width="206" height="252" viewBox="0 0 206 252" fill="none" xmlns="http://www.w3.org/2000/svg">
<path d="M179.73 141.221V194.577L178.662 196.481C178.662 196.481 178.662 199.331 176.642 200.167C174.622 201.003 170.106 200.997 168.678 199.807C167.25 198.617 165.23 196.719 165.23 196.719C165.23 196.719 162.972 195.291 162.496 193.985C161.834 192.359 161.08 190.772 160.238 189.231C160 188.877 157.864 184.953 156.436 182.695C155.008 180.437 154.538 173.408 154.538 173.408C154.538 173.408 153.957 169.49 154.538 167.946C154.84 167.266 155.036 166.543 155.118 165.804C155.118 165.804 154.764 163.546 155.356 162.118C155.683 161.406 155.879 160.641 155.937 159.86C155.937 159.86 157.365 156.296 157.719 155.796C158.073 155.297 158.909 153.184 159.507 151.994C160.104 150.804 162.473 145.934 162.473 145.934C162.473 145.934 165.567 142.846 167.116 141.871C168.252 141.265 169.515 140.939 170.802 140.919C170.802 140.919 172.7 139.497 173.531 139.375C173.933 139.33 174.331 139.25 174.72 139.137C174.72 139.137 179.254 138.133 179.73 141.221Z" fill="#199358" stroke="#263238" stroke-linecap="round" stroke-linejoin="round"/>
<path d="M170.797 140.983C170.797 140.983 167.964 141.389 167.61 144.152" stroke="#263238" stroke-linecap="round" stroke-linejoin="round"/>
<path d="M166.495 144.437C166.495 144.437 168.411 143.305 169.473 144.297" stroke="#263238" stroke-linecap="round" stroke-linejoin="round"/>
<path d="M170.396 143.729C170.396 143.729 167.349 144.93 167.204 147.623" stroke="#263238" stroke-linecap="round" stroke-linejoin="round"/>
<path d="M165.932 147.908C165.932 147.908 168.48 147.484 168.974 149.324C169.467 151.164 167.703 152.018 166.994 154.496C166.286 156.975 167.134 160.591 167.134 160.591" stroke="#263238" stroke-linecap="round" stroke-linejoin="round"/>
<path d="M162.386 157.259C162.386 157.259 162.601 158.391 164.708 159.314C166.815 160.237 166.548 160.661 166.548 160.661" stroke="#263238" stroke-linecap="round" stroke-linejoin="round"/>
<path d="M162.531 163.848C162.531 163.848 164.156 161.938 165.363 161.299C166.571 160.661 168.55 159.738 169.328 159.384C170.133 159.14 170.971 159.021 171.812 159.03C171.812 159.03 171.029 156.412 172.021 154.995C172.021 154.995 172.602 153.835 174.645 153.788" stroke="#263238" stroke-linecap="round" stroke-linejoin="round"/>
<path d="M173.229 154.142L173.084 151.663C173.392 151.464 173.657 151.205 173.863 150.9C174.068 150.596 174.21 150.254 174.28 149.893C174.473 148.994 174.399 148.057 174.065 147.2C174.065 147.2 172.323 145.783 171.093 146.561" stroke="#263238" stroke-linecap="round" stroke-linejoin="round"/>
<path d="M170.396 145.215C171.739 145.145 173.058 144.835 174.291 144.297C176.061 143.444 179.109 143.659 179.747 144.791" stroke="#263238" stroke-linecap="round" stroke-linejoin="round"/>
<path d="M174.575 144.222C174.875 143.394 174.85 142.484 174.506 141.674C173.925 140.188 175.847 139.834 176.485 140.043" stroke="#263238" stroke-linecap="round" stroke-linejoin="round"/>
<path d="M171.313 142.382C171.313 142.382 174.146 141.743 174.796 143.229" stroke="#263238" stroke-linecap="round" stroke-linejoin="round"/>
<path d="M177.124 156.336C177.124 156.336 179.248 159.668 176.201 161.23" stroke="#263238" stroke-linecap="round" stroke-linejoin="round"/>
<path d="M177.977 158.745C178.352 158.811 178.737 158.73 179.054 158.52C179.371 158.309 179.594 157.984 179.678 157.613" stroke="#263238" stroke-linecap="round" stroke-linejoin="round"/>
<path d="M156.082 161.584C156.082 161.584 155.942 163.285 157.074 163.639C158.206 163.993 160.406 163.209 160.406 163.209C160.406 163.209 160.191 166.048 160.987 167.179C161.782 168.311 164.469 168.735 165.45 167.533C165.809 167.047 166.213 166.596 166.658 166.187C167.223 166.16 167.777 166.016 168.283 165.763C168.56 165.57 168.822 165.357 169.067 165.125C169.067 165.125 171.046 167.319 172.468 167.748C173.89 168.178 176.572 169.588 176.363 172.137" stroke="#263238" stroke-linecap="round" stroke-linejoin="round"/>
<path d="M169.967 169.165C169.967 169.165 167.488 171.289 167.558 174.389" stroke="#263238" stroke-linecap="round" stroke-linejoin="round"/>
<path d="M155.942 166.187H157.074C157.074 166.187 156.012 168.735 157.498 170.511C158.984 172.287 160.545 171.997 160.545 171.997C160.545 171.997 162.867 173.837 165.079 172.99C166.075 172.633 167.045 172.206 167.981 171.713" stroke="#263238" stroke-linecap="round" stroke-linejoin="round"/>
<path d="M163.947 173.576C163.947 173.576 164.231 176.478 163.308 178.324C162.86 179.277 162.313 180.179 161.677 181.018" stroke="#263238" stroke-linecap="round" stroke-linejoin="round"/>
<path d="M159.269 179.793C159.269 179.793 162.461 180.994 162.954 183.276C162.954 183.276 165.149 182.068 166.64 182.068C167.808 182.102 168.972 182.22 170.123 182.422" stroke="#263238" stroke-linecap="round" stroke-linejoin="round"/>
<path d="M170.605 180.426L170.251 182.202L170.959 183.119" stroke="#263238" stroke-linecap="round" stroke-linejoin="round"/>
<path d="M162.955 183.264C163.139 184.817 163.838 186.264 164.94 187.374C164.94 187.374 164.94 188.221 166.141 189.428" stroke="#263238" stroke-linecap="round" stroke-linejoin="round"/>
<path d="M168.196 188.575C168.196 188.575 168.776 190.897 168.48 191.907C168.184 192.917 166.994 193.323 165.787 193.178C164.58 193.033 163.239 192.824 163.239 192.824" stroke="#263238" stroke-linecap="round" stroke-linejoin="round"/>
<path d="M168.475 191.907C169.368 192.287 170.338 192.456 171.307 192.401C172.724 192.261 175.133 189.852 175.133 189.852" stroke="#263238" stroke-linecap="round" stroke-linejoin="round"/>
<path d="M174.146 188.152C174.146 188.152 174.291 189.498 176.062 189.783C177.832 190.067 178.383 188.361 178.825 187.937" stroke="#263238" stroke-linecap="round" stroke-linejoin="round"/>
<path d="M168.695 184.889C169.225 185.515 169.907 185.994 170.676 186.279C171.445 186.565 172.274 186.648 173.084 186.52C175.922 186.097 176.061 185.104 176.061 185.104C176.061 185.104 178.047 186.027 179.178 184.68" stroke="#263238" stroke-linecap="round" stroke-linejoin="round"/>
<path d="M167.772 192.969C167.772 192.969 168.695 196.295 173.159 195.094" stroke="#263238" stroke-linecap="round" stroke-linejoin="round"/>
<path d="M166.153 195.518C166.153 195.518 165.944 197.004 167.714 197.718C168.832 198.154 170.003 198.439 171.197 198.565C170.94 198.117 170.787 197.616 170.75 197.101C170.713 196.585 170.792 196.068 170.982 195.587" stroke="#263238" stroke-linecap="round" stroke-linejoin="round"/>
<path d="M178.964 191.478C179.179 193.463 177.832 195.309 177.832 195.309C177.832 195.309 178.186 196.441 176.416 198.635C174.645 200.829 171.191 198.565 171.191 198.565C171.191 198.565 170.164 199.285 172.933 200.672" stroke="#263238" stroke-linecap="round" stroke-linejoin="round"/>
<path d="M161.254 189.992L162.67 189.428" stroke="#263238" stroke-linecap="round" stroke-linejoin="round"/>
<path d="M163.169 190.137C163.169 190.137 161.393 187.728 161.608 185.458C161.077 185.632 160.505 185.637 159.972 185.471C159.438 185.306 158.969 184.979 158.63 184.535" stroke="#263238" stroke-linecap="round" stroke-linejoin="round"/>
<path d="M158.352 182.765C158.352 182.765 159.199 185.087 160.406 185.458C160.406 185.458 159.06 185.882 159.245 186.944" stroke="#263238" stroke-linecap="round" stroke-linejoin="round"/>
<path d="M154.666 172.705C154.666 172.705 155.513 175.683 160.261 175.962C160.465 176.667 160.777 177.336 161.184 177.947" stroke="#263238" stroke-linecap="round" stroke-linejoin="round"/>
<path d="M158.984 158.821C158.984 158.821 160.331 154.003 164.371 154.641" stroke="#263238" stroke-linecap="round" stroke-linejoin="round"/>
<path d="M162.74 151.948C162.74 151.948 162.159 148.97 163.524 147.623C164.121 146.949 164.842 146.395 165.648 145.992C166.03 145.496 166.512 145.086 167.064 144.791" stroke="#263238" stroke-linecap="round" stroke-linejoin="round"/>
<path d="M170.535 161.967C170.962 162.708 171.636 163.277 172.438 163.574C173.241 163.871 174.122 163.877 174.929 163.592" stroke="#263238" stroke-linecap="round" stroke-linejoin="round"/>
<path d="M165.648 175.114C165.648 175.114 166.002 177.738 168.55 178.231C171.099 178.725 171.528 178.371 171.528 178.371C171.528 178.371 172.59 179.532 173.85 179.363C175.11 179.195 175.591 178.585 176.752 179.009" stroke="#263238" stroke-linecap="round" stroke-linejoin="round"/>
<path d="M173.867 179.381C174.245 179.437 174.599 179.6 174.887 179.851C175.175 180.102 175.385 180.43 175.492 180.797" stroke="#263238" stroke-linecap="round" stroke-linejoin="round"/>
<path d="M172.538 172.49C172.538 172.49 173.386 175.753 175.725 175.822C178.064 175.892 178.627 174.545 178.912 173.837" stroke="#263238" stroke-linecap="round" stroke-linejoin="round"/>
<path d="M173.438 196.795C173.705 197.316 174.086 197.771 174.552 198.126C175.018 198.482 175.557 198.729 176.131 198.85" stroke="#263238" stroke-linecap="round" stroke-linejoin="round"/>
<path d="M164.301 145.36C164.301 145.36 165.718 142.806 168.127 142.875" stroke="#263238" stroke-linecap="round" stroke-linejoin="round"/>
<path d="M157.504 181.499C157.504 181.499 157.922 178.858 160.406 178.998" stroke="#263238" stroke-linecap="round" stroke-linejoin="round"/>
<path d="M159.309 154.961C159.309 154.961 161.05 154.183 162.386 154.781C162.386 154.781 160.969 151.298 165.224 150.955" stroke="#263238" stroke-linecap="round" stroke-linejoin="round"/>
<path d="M179.991 141.221V194.577L181.065 196.481C181.065 196.481 181.065 199.331 183.085 200.167C185.105 201.003 189.621 200.997 191.043 199.807C192.465 198.617 194.491 196.719 194.491 196.719C194.491 196.719 196.749 195.291 197.225 193.985C197.889 192.36 198.643 190.773 199.483 189.231C199.721 188.877 201.857 184.953 203.285 182.695C204.713 180.437 205.189 173.408 205.189 173.408C205.189 173.408 205.77 169.49 205.189 167.946C204.886 167.266 204.69 166.543 204.609 165.804C204.609 165.804 204.969 163.546 204.371 162.118C204.044 161.406 203.848 160.641 203.79 159.86C203.79 159.86 202.362 156.296 202.008 155.796C201.654 155.297 200.818 153.184 200.226 151.994C199.634 150.804 197.254 145.934 197.254 145.934C197.254 145.934 194.166 142.846 192.61 141.871C191.477 141.266 190.215 140.939 188.93 140.919C188.93 140.919 187.026 139.497 186.196 139.375C185.794 139.329 185.396 139.249 185.006 139.137C185.006 139.137 180.467 138.133 179.991 141.221Z" fill="#92E3A9" stroke="#263238" stroke-linecap="round" stroke-linejoin="round"/>
<path d="M188.907 140.983C188.907 140.983 191.74 141.389 192.094 144.152" stroke="#263238" stroke-linecap="round" stroke-linejoin="round"/>
<path d="M193.226 144.437C193.226 144.437 191.31 143.305 190.248 144.297" stroke="#263238" stroke-linecap="round" stroke-linejoin="round"/>
<path d="M189.331 143.729C189.331 143.729 192.378 144.93 192.517 147.623" stroke="#263238" stroke-linecap="round" stroke-linejoin="round"/>
<path d="M193.795 147.908C193.795 147.908 191.241 147.484 190.747 149.324C190.254 151.164 192.024 152.018 192.732 154.496C193.441 156.975 192.587 160.591 192.587 160.591" stroke="#263238" stroke-linecap="round" stroke-linejoin="round"/>
<path d="M197.335 157.259C197.335 157.259 197.121 158.391 195.014 159.314C192.907 160.237 193.174 160.661 193.174 160.661" stroke="#263238" stroke-linecap="round" stroke-linejoin="round"/>
<path d="M197.196 163.848C197.196 163.848 195.565 161.938 194.357 161.299C193.15 160.661 191.171 159.738 190.393 159.384C189.589 159.14 188.754 159.02 187.914 159.03C187.914 159.03 188.692 156.412 187.699 154.995C187.699 154.995 187.119 153.835 185.076 153.788" stroke="#263238" stroke-linecap="round" stroke-linejoin="round"/>
<path d="M186.469 154.142L186.614 151.663C186.303 151.465 186.036 151.206 185.829 150.902C185.621 150.598 185.478 150.254 185.407 149.893C185.213 148.994 185.288 148.057 185.621 147.2C185.621 147.2 187.392 145.783 188.599 146.561" stroke="#263238" stroke-linecap="round" stroke-linejoin="round"/>
<path d="M189.331 145.215C187.986 145.145 186.665 144.834 185.43 144.297C183.689 143.444 180.612 143.659 179.979 144.791" stroke="#263238" stroke-linecap="round" stroke-linejoin="round"/>
<path d="M185.151 144.222C184.848 143.395 184.873 142.483 185.221 141.674C185.801 140.188 183.874 139.834 183.236 140.043" stroke="#263238" stroke-linecap="round" stroke-linejoin="round"/>
<path d="M188.408 142.382C188.408 142.382 185.575 141.743 184.925 143.229" stroke="#263238" stroke-linecap="round" stroke-linejoin="round"/>
<path d="M182.597 156.336C182.597 156.336 180.473 159.668 183.52 161.23" stroke="#263238" stroke-linecap="round" stroke-linejoin="round"/>
<path d="M181.75 158.745C181.375 158.811 180.99 158.73 180.673 158.52C180.356 158.309 180.133 157.984 180.049 157.613" stroke="#263238" stroke-linecap="round" stroke-linejoin="round"/>
<path d="M203.639 161.584C203.639 161.584 203.784 163.285 202.647 163.639C201.509 163.993 199.32 163.209 199.32 163.209C199.32 163.209 199.529 166.048 198.74 167.179C197.951 168.311 195.257 168.735 194.276 167.533C193.917 167.049 193.515 166.598 193.075 166.187C192.508 166.16 191.952 166.016 191.444 165.763C191.168 165.572 190.907 165.358 190.666 165.125C190.666 165.125 188.681 167.319 187.264 167.748C185.848 168.178 183.155 169.588 183.364 172.137" stroke="#263238" stroke-linecap="round" stroke-linejoin="round"/>
<path d="M189.754 169.165C189.754 169.165 192.233 171.289 192.163 174.389" stroke="#263238" stroke-linecap="round" stroke-linejoin="round"/>
<path d="M203.784 166.187H202.623C202.623 166.187 203.685 168.735 202.199 170.511C200.713 172.287 199.152 171.997 199.152 171.997C199.152 171.997 196.83 173.837 194.619 172.99C193.622 172.633 192.653 172.206 191.716 171.713" stroke="#263238" stroke-linecap="round" stroke-linejoin="round"/>
<path d="M195.757 173.576C195.757 173.576 195.478 176.478 196.395 178.324C196.843 179.277 197.39 180.179 198.026 181.018" stroke="#263238" stroke-linecap="round" stroke-linejoin="round"/>
<path d="M200.452 179.793C200.452 179.793 197.266 180.994 196.766 183.276C196.766 183.276 194.572 182.068 193.086 182.068C191.918 182.102 190.754 182.22 189.604 182.422" stroke="#263238" stroke-linecap="round" stroke-linejoin="round"/>
<path d="M189.116 180.426L189.47 182.202L188.762 183.119" stroke="#263238" stroke-linecap="round" stroke-linejoin="round"/>
<path d="M196.766 183.264C196.586 184.817 195.889 186.265 194.787 187.374C194.787 187.374 194.787 188.221 193.58 189.428" stroke="#263238" stroke-linecap="round" stroke-linejoin="round"/>
<path d="M191.525 188.575C191.525 188.575 190.944 190.897 191.24 191.907C191.536 192.917 192.732 193.323 193.934 193.178C195.135 193.033 196.482 192.824 196.482 192.824" stroke="#263238" stroke-linecap="round" stroke-linejoin="round"/>
<path d="M191.24 191.907C190.347 192.287 189.377 192.456 188.408 192.401C186.991 192.261 184.583 189.852 184.583 189.852" stroke="#263238" stroke-linecap="round" stroke-linejoin="round"/>
<path d="M185.575 188.152C185.575 188.152 185.43 189.498 183.659 189.783C181.889 190.067 181.338 188.361 180.896 187.937" stroke="#263238" stroke-linecap="round" stroke-linejoin="round"/>
<path d="M191.031 184.889C190.5 185.515 189.817 185.993 189.047 186.278C188.278 186.564 187.448 186.647 186.637 186.52C183.805 186.097 183.66 185.104 183.66 185.104C183.66 185.104 181.674 186.027 180.542 184.68" stroke="#263238" stroke-linecap="round" stroke-linejoin="round"/>
<path d="M191.949 192.969C191.949 192.969 191.032 196.295 186.568 195.094" stroke="#263238" stroke-linecap="round" stroke-linejoin="round"/>
<path d="M193.58 195.518C193.58 195.518 193.795 197.004 192.024 197.718C190.906 198.153 189.735 198.438 188.542 198.565C188.799 198.117 188.951 197.616 188.989 197.101C189.026 196.585 188.946 196.068 188.756 195.587" stroke="#263238" stroke-linecap="round" stroke-linejoin="round"/>
<path d="M180.757 191.478C180.542 193.463 181.889 195.309 181.889 195.309C181.889 195.309 181.535 196.441 183.305 198.635C185.076 200.829 188.529 198.565 188.529 198.565C188.529 198.565 189.557 199.285 186.788 200.672" stroke="#263238" stroke-linecap="round" stroke-linejoin="round"/>
<path d="M198.467 189.992L197.051 189.428" stroke="#263238" stroke-linecap="round" stroke-linejoin="round"/>
<path d="M196.558 190.137C196.558 190.137 198.328 187.728 198.113 185.458C198.644 185.632 199.216 185.637 199.749 185.471C200.283 185.306 200.752 184.979 201.091 184.535" stroke="#263238" stroke-linecap="round" stroke-linejoin="round"/>
<path d="M201.375 182.765C201.375 182.765 200.522 185.087 199.32 185.458C199.32 185.458 200.667 185.882 200.452 186.944" stroke="#263238" stroke-linecap="round" stroke-linejoin="round"/>
<path d="M205.044 172.705C205.044 172.705 204.197 175.683 199.448 175.962C199.244 176.667 198.933 177.336 198.525 177.947" stroke="#263238" stroke-linecap="round" stroke-linejoin="round"/>
<path d="M200.737 158.821C200.737 158.821 199.39 154.003 195.35 154.641" stroke="#263238" stroke-linecap="round" stroke-linejoin="round"/>
<path d="M196.981 151.948C196.981 151.948 197.562 148.97 196.203 147.623C195.606 146.947 194.882 146.393 194.073 145.992C193.692 145.496 193.209 145.086 192.657 144.791" stroke="#263238" stroke-linecap="round" stroke-linejoin="round"/>
<path d="M189.186 161.967C188.76 162.708 188.087 163.276 187.286 163.573C186.484 163.87 185.603 163.877 184.797 163.592" stroke="#263238" stroke-linecap="round" stroke-linejoin="round"/>
<path d="M194.073 175.114C194.073 175.114 193.719 177.738 191.171 178.231C188.622 178.725 188.193 178.371 188.193 178.371C188.193 178.371 187.131 179.532 185.871 179.363C184.611 179.195 184.095 178.585 182.969 179.009" stroke="#263238" stroke-linecap="round" stroke-linejoin="round"/>
<path d="M185.888 179.381C185.51 179.436 185.155 179.599 184.866 179.85C184.576 180.101 184.365 180.43 184.257 180.797" stroke="#263238" stroke-linecap="round" stroke-linejoin="round"/>
<path d="M187.206 172.49C187.206 172.49 186.353 175.753 184.014 175.822C181.675 175.892 181.112 174.545 180.827 173.837" stroke="#263238" stroke-linecap="round" stroke-linejoin="round"/>
<path d="M186.283 196.795C186.016 197.317 185.636 197.772 185.17 198.128C184.704 198.483 184.164 198.73 183.59 198.85" stroke="#263238" stroke-linecap="round" stroke-linejoin="round"/>
<path d="M195.42 145.36C195.42 145.36 194.004 142.806 191.595 142.875" stroke="#263238" stroke-linecap="round" stroke-linejoin="round"/>
<path d="M202.217 181.499C202.217 181.499 201.805 178.858 199.315 178.998" stroke="#263238" stroke-linecap="round" stroke-linejoin="round"/>
<path d="M200.4 154.961C200.4 154.961 198.694 154.183 197.324 154.781C197.324 154.781 198.74 151.298 194.491 150.955" stroke="#263238" stroke-linecap="round" stroke-linejoin="round"/>
<path d="M74.0799 250.296C74.2946 246.471 74.9331 201.444 73.6561 198.054C72.3791 194.664 72.3791 196.353 67.0679 189.347C61.7566 182.341 48.3653 168.729 40.5 159.372C32.6347 150.015 33.4822 145.133 26.2613 132.787C19.0403 120.44 10.7455 110.468 5.00468 103.241C-0.736105 96.0145 -0.306562 93.89 6.49647 91.9745C13.2995 90.059 17.3337 92.404 22.6508 95.376C27.9678 98.348 34.765 106.004 40.5058 114.084C46.2466 122.164 51.9816 125.984 54.5298 127.046C57.0781 128.108 58.7846 127.261 58.7846 127.261C58.7846 127.261 65.5877 113.446 66.8589 109.191C68.1301 104.936 68.9892 93.6753 68.7744 91.7771C68.5596 89.879 67.2884 81.9963 65.7966 71.5828C64.3048 61.1693 63.0336 42.252 62.8247 35.8727C62.6157 29.4934 60.9091 15.2546 64.3106 10.3671C67.7122 5.47962 74.9389 6.75083 76.6397 10.5761C78.3404 14.4013 80.2502 29.4934 80.7029 39.6979C81.1557 49.9025 87.5002 83.4881 88.3534 84.9741C89.2067 86.4601 92.8172 84.7593 93.8795 83.6971C94.9417 82.6348 93.8795 79.6338 93.6647 72.4303C93.4499 65.2267 93.6647 49.0492 94.0942 39.6979C94.5238 30.3467 96.6134 15.4578 97.6583 10.5645C98.7031 5.67117 100.636 2.06649 104.043 1.42798C107.451 0.78947 112.541 3.12874 112.541 7.5925C112.541 12.0563 113.18 40.9634 113.18 50.9531C113.18 60.9429 112.541 80.7135 112.756 82.4085C112.971 84.1034 115.304 84.324 116.372 83.6855C117.44 83.047 118.282 77.9447 118.694 69.2319C119.106 60.5192 123.199 44.3649 123.611 29.2728C124.023 14.1808 125.312 13.3275 130.408 12.9037C135.505 12.48 138.273 15.0282 139.115 21.1928C139.957 27.3573 138.476 46.9131 138.476 58.8184C138.476 70.7237 134.227 90.7033 134.227 90.7033L138.685 93.2515C138.685 93.2515 144.217 72.8482 145.488 66.0452C146.76 59.2422 148.681 42.6641 151.444 39.4716C154.207 36.279 160.151 38.4093 161.434 43.3026C162.717 48.1959 162.072 53.7161 161.643 66.4689C161.213 79.2217 155.705 102.179 155.705 102.179C155.705 102.179 158.026 114.723 155.49 135.974C152.953 157.224 146.353 183.374 142.528 191.031C138.703 198.687 135.934 198.681 135.301 203.36C134.669 208.038 134.872 251.358 134.872 251.358" fill="white"/>
<path d="M136.619 192.603C132.132 194.397 120.917 182.736 111.491 181.83C102.064 180.925 97.1357 192.603 82.3281 188.563C67.5205 184.523 47.332 158.484 40.5986 146.387C35.1364 136.519 26.7139 130.558 23.7651 128.654C24.6126 130 25.4543 131.376 26.2785 132.787C28.6804 136.934 30.7682 141.255 32.5243 145.714C34.7417 149.371 37.168 153.178 39.7047 156.702C48.6786 169.263 62.1396 179.137 67.5205 187.211C72.9014 195.285 81.4516 204.259 87.2562 204.712C93.0609 205.165 98.0296 201.119 107.451 197.979C116.871 194.838 129.885 201.572 134.372 198.426C138.859 195.279 141.106 190.804 136.619 192.603Z" fill="#92E3A9"/>
<path d="M156.61 112.453C156.099 114.636 154.445 119.599 149.644 121.741C143.381 124.48 135.284 123.534 139.776 125.328C144.269 127.121 149.197 148.657 148.303 158.995C147.671 166.285 147.485 172.67 148.06 174.377C151.374 161.767 153.861 148.954 155.507 136.02C156.479 128.204 156.847 120.325 156.61 112.453Z" fill="#92E3A9"/>
<path d="M114.387 83.9525C115.641 87.6675 122.264 87.801 122.264 85.363C122.264 82.6755 118.717 69.232 122.711 62.4812C126.705 55.7304 124.058 56.6475 124.058 51.7136C124.058 46.7796 128.545 33.3187 128.545 33.3187C127.391 29.8446 126.785 26.2117 126.751 22.5511C126.765 19.3828 127.254 16.2346 128.202 13.2114C124.917 13.9892 123.965 16.6478 123.611 29.2729C123.181 44.3649 119.147 60.5192 118.717 69.232C118.288 77.9447 117.446 83.047 116.396 83.6855C115.779 84.0084 115.067 84.103 114.387 83.9525Z" fill="#92E3A9"/>
<path d="M152.61 38.5312C152.172 38.7751 151.779 39.0933 151.449 39.4716C148.686 42.6642 146.771 59.2422 145.494 66.0452C144.6 70.834 141.57 82.4433 139.875 88.8284C140.455 97.2916 142.94 98.1913 146.492 97.0072C150.527 95.6605 146.492 94.7666 146.492 86.6865C146.492 78.6065 149.853 75.0772 150.979 65.5983C152.105 56.1193 149.54 58.3715 149.633 54.8307C149.708 51.8064 151.978 41.3755 152.61 38.5312Z" fill="#92E3A9"/>
<path d="M100.723 12.6773C100.723 5.94972 105.21 2.80941 105.21 2.80941C104.765 2.26501 104.199 1.83341 103.556 1.5498C100.462 2.43791 98.6854 5.92069 97.6754 10.5644C96.6132 15.4577 94.4887 30.335 94.0649 39.6863C93.6412 49.0375 93.4264 65.1918 93.6354 72.4186C93.8444 79.6454 94.9124 82.6232 93.8502 83.6854C93.2685 84.2055 92.6058 84.627 91.8882 84.9334C93.0897 89.9718 101.176 88.5033 101.176 88.5033C101.176 88.5033 98.2385 84.7651 99.3994 81.3287C100.56 77.8924 100.746 73.7014 98.0585 62.4811C95.371 51.2607 99.3994 45.4329 99.3994 45.4329C99.3994 45.4329 98.5055 43.6392 97.6058 36.9058C96.706 30.1725 100.746 19.4107 100.746 19.4107L100.723 12.6773Z" fill="#92E3A9"/>
<path d="M18.4887 93.1586C20.3694 94.7201 22.4939 96.5833 24.8738 98.8239C38.3347 111.391 41.0281 123.952 53.1423 128.886C65.2566 133.82 73.7778 121.259 82.3048 121.712C90.8318 122.164 104.293 145.511 104.293 145.511C104.293 145.511 101.599 132.05 98.9061 125.322C96.2127 118.595 81.8579 112.761 81.8579 112.761C81.8579 112.761 98.9061 117.695 106.086 122.182C110.507 124.847 115.317 126.806 120.343 127.986C118.601 127.087 96.027 111.797 89.9321 109.185C83.6515 106.492 74.2596 104.698 72.8839 99.3173C71.5082 93.9364 74.6775 87.65 74.6775 87.65C74.6775 87.65 70.6143 74.636 69.2908 67.9142C67.9674 61.1925 69.7436 58.0464 69.7436 58.0464C69.7436 58.0464 67.4972 54.0121 67.4972 47.7257C67.607 43.3363 68.2087 38.9729 69.2908 34.7175C69.2908 34.7175 63.9099 31.1245 64.8039 23.0502C65.6978 14.976 72.437 14.976 72.437 14.976C78.2416 17.2165 79.6115 32.4711 79.6115 32.4711L79.7682 28.2976L79.6637 26.8116C79.6173 26.3763 79.5651 25.9467 79.5128 25.5114C79.5128 25.4417 79.5128 25.3721 79.5128 25.3024C79.4606 24.8845 79.4083 24.4665 79.3561 24.0602V23.979C79.2922 23.5262 79.2342 23.0734 79.1761 22.6265V22.5858C79.1181 22.1795 79.0658 21.7848 79.0078 21.3901L78.973 21.1347L78.8162 20.0898C78.8162 20.0318 78.8162 19.9738 78.8162 19.9157C78.7524 19.5094 78.6886 19.1089 78.6247 18.72C78.6247 18.72 78.6247 18.6677 78.6247 18.6387C78.5667 18.2904 78.5086 17.9479 78.4506 17.6171C78.4506 17.5242 78.4506 17.4371 78.4041 17.3501C78.3577 17.0656 78.3054 16.7696 78.2532 16.5084C78.2532 16.4329 78.2532 16.3575 78.2126 16.282C78.1487 15.9395 78.0849 15.6087 78.0152 15.2836V15.1965C77.9572 14.914 77.8991 14.6412 77.8411 14.3781L77.7888 14.1227C77.7424 13.9079 77.6902 13.6989 77.6437 13.4958L77.5915 13.2694C77.5218 13.0082 77.458 12.7528 77.3941 12.5148C77.3941 12.5148 77.3941 12.5148 77.3941 12.4684C77.3361 12.2478 77.2722 12.0446 77.2142 11.8473C77.2142 11.7834 77.1735 11.7196 77.1561 11.6615C77.1097 11.5106 77.0633 11.3713 77.0168 11.2378C76.9704 11.1043 76.9762 11.1275 76.9588 11.0752C76.8949 10.9011 76.8311 10.7386 76.7672 10.5935C75.0665 6.76821 67.8397 5.49119 64.4382 10.3845C61.0366 15.2778 62.7374 29.5398 62.9522 35.8901C63.167 42.2403 64.4382 61.1867 65.9242 71.6002C67.4101 82.0137 68.6872 89.879 68.9019 91.7945C69.1167 93.7101 68.2634 104.971 66.9864 109.208C65.7094 113.446 58.767 127.261 58.767 127.261C58.767 127.261 57.0663 128.108 54.5122 127.046C51.9582 125.984 46.2232 122.159 40.4882 114.084C34.7533 106.01 27.9444 98.3538 22.6332 95.376C21.1762 94.5633 19.8179 93.8029 18.4771 93.1586H18.4887Z" fill="#92E3A9"/>
<g opacity="0.5">
<path opacity="0.5" d="M136.619 192.603C132.132 194.397 120.917 182.736 111.491 181.83C102.064 180.925 97.1357 192.603 82.3281 188.563C67.5205 184.523 47.332 158.484 40.5986 146.387C35.1364 136.519 26.7139 130.558 23.7651 128.654C24.6126 130 25.4543 131.376 26.2785 132.787C28.6804 136.934 30.7682 141.255 32.5243 145.714C34.7417 149.371 37.168 153.178 39.7047 156.702C48.6786 169.263 62.1396 179.137 67.5205 187.211C72.9014 195.285 81.4516 204.259 87.2562 204.712C93.0609 205.165 98.0296 201.119 107.451 197.979C116.871 194.838 129.885 201.572 134.372 198.426C138.859 195.279 141.106 190.804 136.619 192.603Z" fill="white"/>
<path opacity="0.5" d="M156.61 112.453C156.099 114.636 154.445 119.599 149.644 121.741C143.381 124.48 135.284 123.534 139.776 125.328C144.269 127.121 149.197 148.657 148.303 158.995C147.671 166.285 147.485 172.67 148.06 174.377C151.374 161.767 153.861 148.954 155.507 136.02C156.479 128.204 156.847 120.325 156.61 112.453Z" fill="white"/>
<path opacity="0.5" d="M114.387 83.9525C115.641 87.6675 122.264 87.801 122.264 85.363C122.264 82.6755 118.717 69.232 122.711 62.4812C126.705 55.7304 124.058 56.6475 124.058 51.7136C124.058 46.7796 128.545 33.3187 128.545 33.3187C127.391 29.8446 126.785 26.2117 126.751 22.5511C126.765 19.3828 127.254 16.2346 128.202 13.2114C124.917 13.9892 123.965 16.6478 123.611 29.2729C123.181 44.3649 119.147 60.5192 118.717 69.232C118.288 77.9447 117.446 83.047 116.396 83.6855C115.779 84.0084 115.067 84.103 114.387 83.9525Z" fill="white"/>
<path opacity="0.5" d="M152.61 38.5312C152.172 38.7751 151.779 39.0933 151.449 39.4716C148.686 42.6642 146.771 59.2422 145.494 66.0452C144.6 70.834 141.57 82.4433 139.875 88.8284C140.455 97.2916 142.94 98.1913 146.492 97.0072C150.527 95.6605 146.492 94.7666 146.492 86.6865C146.492 78.6065 149.853 75.0772 150.979 65.5983C152.105 56.1193 149.54 58.3715 149.633 54.8307C149.708 51.8064 151.978 41.3755 152.61 38.5312Z" fill="white"/>
<path opacity="0.5" d="M100.723 12.6773C100.723 5.94972 105.21 2.80941 105.21 2.80941C104.765 2.26501 104.199 1.83341 103.556 1.5498C100.462 2.43791 98.6854 5.92069 97.6754 10.5644C96.6132 15.4577 94.4887 30.335 94.0649 39.6863C93.6412 49.0375 93.4264 65.1918 93.6354 72.4186C93.8444 79.6454 94.9124 82.6232 93.8502 83.6854C93.2685 84.2055 92.6058 84.627 91.8882 84.9334C93.0897 89.9718 101.176 88.5033 101.176 88.5033C101.176 88.5033 98.2385 84.7651 99.3994 81.3287C100.56 77.8924 100.746 73.7014 98.0585 62.4811C95.371 51.2607 99.3994 45.4329 99.3994 45.4329C99.3994 45.4329 98.5055 43.6392 97.6058 36.9058C96.706 30.1725 100.746 19.4107 100.746 19.4107L100.723 12.6773Z" fill="white"/>
<path opacity="0.5" d="M18.4887 93.1586C20.3694 94.7201 22.4939 96.5833 24.8738 98.8239C38.3347 111.391 41.0281 123.952 53.1423 128.886C65.2566 133.82 73.7778 121.259 82.3048 121.712C90.8318 122.164 104.293 145.511 104.293 145.511C104.293 145.511 101.599 132.05 98.9061 125.322C96.2127 118.595 81.8579 112.761 81.8579 112.761C81.8579 112.761 98.9061 117.695 106.086 122.182C110.507 124.847 115.317 126.806 120.343 127.986C118.601 127.087 96.027 111.797 89.9321 109.185C83.6515 106.492 74.2596 104.698 72.8839 99.3173C71.5082 93.9364 74.6775 87.65 74.6775 87.65C74.6775 87.65 70.6143 74.636 69.2908 67.9142C67.9674 61.1925 69.7436 58.0464 69.7436 58.0464C69.7436 58.0464 67.4972 54.0121 67.4972 47.7257C67.607 43.3363 68.2087 38.9729 69.2908 34.7175C69.2908 34.7175 63.9099 31.1245 64.8039 23.0502C65.6978 14.976 72.437 14.976 72.437 14.976C78.2416 17.2165 79.6115 32.4711 79.6115 32.4711L79.7682 28.2976L79.6637 26.8116C79.6173 26.3763 79.5651 25.9467 79.5128 25.5114C79.5128 25.4417 79.5128 25.3721 79.5128 25.3024C79.4606 24.8845 79.4083 24.4665 79.3561 24.0602V23.979C79.2922 23.5262 79.2342 23.0734 79.1761 22.6265V22.5858C79.1181 22.1795 79.0658 21.7848 79.0078 21.3901L78.973 21.1347L78.8162 20.0898C78.8162 20.0318 78.8162 19.9738 78.8162 19.9157C78.7524 19.5094 78.6886 19.1089 78.6247 18.72C78.6247 18.72 78.6247 18.6677 78.6247 18.6387C78.5667 18.2904 78.5086 17.9479 78.4506 17.6171C78.4506 17.5242 78.4506 17.4371 78.4041 17.3501C78.3577 17.0656 78.3054 16.7696 78.2532 16.5084C78.2532 16.4329 78.2532 16.3575 78.2126 16.282C78.1487 15.9395 78.0849 15.6087 78.0152 15.2836V15.1965C77.9572 14.914 77.8991 14.6412 77.8411 14.3781L77.7888 14.1227C77.7424 13.9079 77.6902 13.6989 77.6437 13.4958L77.5915 13.2694C77.5218 13.0082 77.458 12.7528 77.3941 12.5148C77.3941 12.5148 77.3941 12.5148 77.3941 12.4684C77.3361 12.2478 77.2722 12.0446 77.2142 11.8473C77.2142 11.7834 77.1735 11.7196 77.1561 11.6615C77.1097 11.5106 77.0633 11.3713 77.0168 11.2378C76.9704 11.1043 76.9762 11.1275 76.9588 11.0752C76.8949 10.9011 76.8311 10.7386 76.7672 10.5935C75.0665 6.76821 67.8397 5.49119 64.4382 10.3845C61.0366 15.2778 62.7374 29.5398 62.9522 35.8901C63.167 42.2403 64.4382 61.1867 65.9242 71.6002C67.4101 82.0137 68.6872 89.879 68.9019 91.7945C69.1167 93.7101 68.2634 104.971 66.9864 109.208C65.7094 113.446 58.767 127.261 58.767 127.261C58.767 127.261 57.0663 128.108 54.5122 127.046C51.9582 125.984 46.2232 122.159 40.4882 114.084C34.7533 106.01 27.9444 98.3538 22.6332 95.376C21.1762 94.5633 19.8179 93.8029 18.4771 93.1586H18.4887Z" fill="white"/>
</g>
<path d="M74.0799 250.296C74.2946 246.471 74.9331 201.444 73.6561 198.054C72.3791 194.664 72.3791 196.353 67.0679 189.347C61.7566 182.341 48.3653 168.729 40.5 159.372C32.6347 150.015 33.4822 145.133 26.2613 132.787C19.0403 120.44 10.7455 110.468 5.00468 103.241C-0.736105 96.0145 -0.306562 93.89 6.49647 91.9745C13.2995 90.059 17.3337 92.404 22.6508 95.376C27.9678 98.348 34.765 106.004 40.5058 114.084C46.2466 122.164 51.9816 125.984 54.5298 127.046C57.0781 128.108 58.7846 127.261 58.7846 127.261C58.7846 127.261 65.5877 113.446 66.8589 109.191C68.1301 104.936 68.9892 93.6753 68.7744 91.7771C68.5596 89.879 67.2884 81.9963 65.7966 71.5828C64.3048 61.1693 63.0336 42.252 62.8247 35.8727C62.6157 29.4934 60.9091 15.2546 64.3106 10.3671C67.7122 5.47962 74.9389 6.75083 76.6397 10.5761C78.3404 14.4013 80.2502 29.4934 80.7029 39.6979C81.1557 49.9025 87.5002 83.4881 88.3534 84.9741C89.2067 86.4601 92.8172 84.7593 93.8795 83.6971C94.9417 82.6348 93.8795 79.6338 93.6647 72.4303C93.4499 65.2267 93.6647 49.0492 94.0942 39.6979C94.5238 30.3467 96.6134 15.4578 97.6583 10.5645C98.7031 5.67117 100.636 2.06649 104.043 1.42798C107.451 0.78947 112.541 3.12874 112.541 7.5925C112.541 12.0563 113.18 40.9634 113.18 50.9531C113.18 60.9429 112.541 80.7135 112.756 82.4085C112.971 84.1034 115.304 84.324 116.372 83.6855C117.44 83.047 118.282 77.9447 118.694 69.2319C119.106 60.5192 123.199 44.3649 123.611 29.2728C124.023 14.1808 125.312 13.3275 130.408 12.9037C135.505 12.48 138.273 15.0282 139.115 21.1928C139.957 27.3573 138.476 46.9131 138.476 58.8184C138.476 70.7237 134.227 90.7033 134.227 90.7033L138.685 93.2515C138.685 93.2515 144.217 72.8482 145.488 66.0452C146.76 59.2422 148.681 42.6641 151.444 39.4716C154.207 36.279 160.151 38.4093 161.434 43.3026C162.717 48.1959 162.072 53.7161 161.643 66.4689C161.213 79.2217 155.705 102.179 155.705 102.179C155.705 102.179 158.026 114.723 155.49 135.974C152.953 157.224 146.353 183.374 142.528 191.031C138.703 198.687 135.934 198.681 135.301 203.36C134.669 208.038 134.872 251.358 134.872 251.358" stroke="#263238" stroke-linecap="round" stroke-linejoin="round"/>
<path d="M120.366 127.946L120.465 127.992C120.511 127.992 120.471 127.975 120.366 127.946Z" fill="#263238" stroke="#92E3A9" stroke-miterlimit="10"/>
<path d="M143.37 124.452C135.627 123.447 124.058 121.497 115.746 118.119C102.14 112.593 96.5903 105.795 96.5903 105.795" stroke="#263238" stroke-linecap="round" stroke-linejoin="round"/>
<path d="M151.642 125.345C151.642 125.345 150.423 125.252 148.374 125.043" stroke="#263238" stroke-linecap="round" stroke-linejoin="round"/>
<path d="M86.6294 199.546C89.8752 200.258 93.2312 200.309 96.4973 199.697C104.624 197.956 112.75 194.473 116.814 196.795C120.877 199.117 125.52 202.019 127.842 202.019" stroke="#263238" stroke-linecap="round" stroke-linejoin="round"/>
<path d="M79.6641 197.375C80.7753 197.865 81.9151 198.288 83.0772 198.64" stroke="#263238" stroke-linecap="round" stroke-linejoin="round"/>
<path d="M107.764 85.0786C115.589 85.5372 126.037 86.6575 130.164 89.4089" stroke="#263238" stroke-linecap="round" stroke-linejoin="round"/>
<path d="M98.2388 84.7651C98.2388 84.7651 99.8002 84.7651 102.25 84.8406" stroke="#263238" stroke-linecap="round" stroke-linejoin="round"/>
<path d="M121.544 143.589C122.45 144.634 123.222 145.516 123.82 146.178" stroke="#263238" stroke-linecap="round" stroke-linejoin="round"/>
<path d="M68.5537 110.683C68.5537 110.683 88.5333 111.321 97.6756 118.548C104.403 123.865 113.093 133.791 118.903 140.53" stroke="#263238" stroke-linecap="round" stroke-linejoin="round"/>
<path d="M85.3467 115.355C85.3467 115.355 97.252 127.685 102.563 142.777C103.907 146.519 104.983 150.352 105.785 154.247" stroke="#263238" stroke-linecap="round" stroke-linejoin="round"/>
<path d="M124.83 57.8433C123.965 57.9743 123.125 58.2305 122.334 58.6037" stroke="#263238" stroke-linecap="round" stroke-linejoin="round"/>
<path d="M136.787 60.3044C136.787 60.3044 132.341 58.0289 127.709 57.7329" stroke="#263238" stroke-linecap="round" stroke-linejoin="round"/>
<path d="M138.291 36.2847C138.291 36.2847 131.702 32.0358 126.176 34.584" stroke="#263238" stroke-linecap="round" stroke-linejoin="round"/>
<path d="M110.005 22.255C110.005 22.255 103.619 19.492 98.5288 22.046" stroke="#263238" stroke-linecap="round" stroke-linejoin="round"/>
<path d="M110.643 48.6139C110.643 48.6139 99.3765 46.9132 95.5513 49.2525" stroke="#263238" stroke-linecap="round" stroke-linejoin="round"/>
<path d="M77.4814 33.9456C77.4814 33.9456 68.9834 33.104 65.1523 36.7086" stroke="#263238" stroke-linecap="round" stroke-linejoin="round"/>
<path d="M76.4483 57.3035C73.2673 57.5705 69.4188 58.1974 67.4917 59.6659" stroke="#263238" stroke-linecap="round" stroke-linejoin="round"/>
<path d="M81.5213 57.1177C81.5213 57.1177 80.4184 57.1177 78.8105 57.1583" stroke="#263238" stroke-linecap="round" stroke-linejoin="round"/>
<path d="M159.768 59.8807C159.768 59.8807 153.604 56.0555 149.563 58.3947" stroke="#263238" stroke-linecap="round" stroke-linejoin="round"/>
<path d="M149.853 75.1236C148.891 74.9908 147.911 75.0842 146.992 75.3964" stroke="#263238" stroke-linecap="round" stroke-linejoin="round"/>
<path d="M159.768 79.2217C157.733 77.9069 155.563 76.8133 153.296 75.9595" stroke="#263238" stroke-linecap="round" stroke-linejoin="round"/>
<path d="M35.3979 110.683C35.3979 110.683 28.1711 116.418 23.0688 117.271" stroke="#263238" stroke-linecap="round" stroke-linejoin="round"/>
<path d="M149.964 100.055C149.964 100.055 144.229 98.5629 142.313 96.8679C140.398 95.173 139.335 94.0991 139.335 94.0991" stroke="#263238" stroke-linecap="round" stroke-linejoin="round"/>
<path d="M82.7985 86.2395C82.7985 86.2395 73.4472 88.364 71.3169 90.7033" stroke="#263238" stroke-linecap="round" stroke-linejoin="round"/>
<path d="M58.7671 127.261C58.7671 127.261 61.7449 125.775 66.2086 121.52C70.6724 117.265 71.9436 116.209 71.9436 116.209" stroke="#263238" stroke-linecap="round" stroke-linejoin="round"/>
<path d="M59.8413 127.476C59.8413 127.476 64.7288 125.56 72.1703 122.373C79.6119 119.187 80.8773 118.548 80.8773 118.548" stroke="#263238" stroke-linecap="round" stroke-linejoin="round"/>
<path d="M25.4136 69.0115H40.3547L78.2009 103.868" stroke="white" stroke-linecap="round" stroke-linejoin="round"/>
<path d="M24.9204 51.5801H41.8467" stroke="white" stroke-linecap="round" stroke-linejoin="round"/>
<path d="M24.9204 55.3066H41.8467" stroke="white" stroke-linecap="round" stroke-linejoin="round"/>
<path d="M24.9204 59.0332H41.8467" stroke="white" stroke-linecap="round" stroke-linejoin="round"/>
<path d="M24.9204 62.7598H41.8467" stroke="white" stroke-linecap="round" stroke-linejoin="round"/>
</svg>
