<svg width="223" height="147" viewBox="0 0 223 147" fill="none" xmlns="http://www.w3.org/2000/svg">
<path d="M113.312 78.623L112.95 78.8039C110.136 73.2161 104.343 68.8906 97.063 66.9369C90.2812 65.1158 83.2502 65.4254 76.6574 66.0284C75.1339 66.1651 73.5821 66.3259 72.0787 66.4826C66.8527 67.0253 61.4337 67.5841 56.0871 67.351C46.5316 66.949 37.3097 63.8616 30.134 58.7039C27.5183 56.8247 25.1351 54.6413 23.0347 52.1996L23.2558 51.8418C25.3567 54.2968 27.7442 56.4912 30.3671 58.3783C37.4825 63.4918 46.624 66.5349 56.0951 66.949C61.4096 67.1821 66.8044 66.6233 72.0264 66.0806C73.5299 65.9279 75.0816 65.7671 76.6092 65.6264C83.2382 65.0194 90.3134 64.7138 97.1514 66.547C104.556 68.5328 110.442 72.9347 113.312 78.623Z" fill="#92E3A9"/>
<path d="M114.072 74.7719L113.71 74.9528C110.896 69.365 105.103 65.0395 97.8229 63.0858C91.0411 61.2647 84.0101 61.5702 77.4173 62.1732C75.8938 62.3139 74.342 62.4747 72.8386 62.6275C67.6126 63.1702 62.1936 63.733 56.847 63.4998C47.5045 63.0978 37.748 59.0778 30.0778 52.5011C28.4724 51.1348 26.9652 49.6572 25.5674 48.0791L25.7483 47.7856C33.736 56.899 45.7679 62.6315 56.8671 63.1179C62.1815 63.3511 67.5804 62.7923 72.7984 62.2496C74.3018 62.0928 75.8536 61.932 77.3812 61.7913C84.0101 61.1883 91.0853 60.8788 97.9234 62.7159C105.324 64.6978 111.201 69.0957 114.072 74.7719Z" fill="#92E3A9"/>
<path d="M114.072 71.0093L113.71 71.1902C110.896 65.6024 105.103 61.2769 97.823 59.3191C91.0412 57.486 84.0183 57.8076 77.4174 58.4106C75.8094 58.5593 74.1452 58.7362 72.5492 58.9051C67.4076 59.4598 62.0972 60.0266 56.8471 59.7372C45.2494 59.09 35.2356 52.5012 28.3252 43.5929L28.5423 43.2351C35.3763 52.1072 45.3378 58.692 56.8672 59.3151C62.0932 59.6045 67.3835 59.0377 72.505 58.487C74.113 58.3141 75.7572 58.1372 77.3813 57.9885C84.0102 57.3855 91.0854 57.076 97.9235 58.9131C105.324 60.9151 111.202 65.317 114.072 71.0093Z" fill="#92E3A9"/>
<path d="M114.972 67.0655L114.61 67.2464C111.796 61.6586 106.003 57.329 98.7231 55.3753C91.9414 53.5543 84.9064 53.8638 78.3176 54.4668C76.7096 54.6156 75.0453 54.7924 73.4494 54.9613C68.3078 55.512 62.9973 56.0828 57.7472 55.7894C47.2952 55.2065 37.5025 48.871 30.7529 39.6209L30.974 39.2551C37.6593 48.5011 47.3676 54.8085 57.7673 55.3914C62.9933 55.6808 68.2796 55.114 73.4051 54.5633C75.0131 54.3904 76.6573 54.2136 78.2814 54.0648C84.5928 53.49 91.9494 53.1482 98.8236 54.9894C106.228 56.9713 112.114 61.3732 114.972 67.0655Z" fill="#92E3A9"/>
<path d="M115.941 62.4426L115.583 62.6235C112.769 57.0357 106.972 52.7101 99.692 50.7564C92.9102 48.9354 85.8793 49.2409 79.2905 49.8439C77.6825 49.9926 76.0142 50.1695 74.4182 50.3424C69.2767 50.8931 63.9662 51.4639 58.7161 51.1705C47.9827 50.5715 39.3719 44.0712 33.563 35.0623L33.7961 34.6885C39.5367 43.6772 48.0792 50.1735 58.7402 50.7685C63.9662 51.0579 69.2526 50.4911 74.3781 49.9404C75.9861 49.7715 77.6262 49.5946 79.2543 49.4459C85.5617 48.867 92.9223 48.5253 99.7965 50.3665C107.189 52.3524 113.071 56.7543 115.941 62.4426Z" fill="#92E3A9"/>
<path d="M91.8571 54.1895C91.8571 54.9332 90.9767 55.5362 89.8873 55.5362C88.7979 55.5362 87.9175 54.9332 87.9175 54.1895C87.9175 53.4458 88.7979 52.8428 89.8873 52.8428C90.9767 52.8428 91.8571 53.4659 91.8571 54.1895Z" fill="#263238"/>
<path d="M91.7845 54.523L91.3945 54.4306L93.2075 46.9614L93.5372 47.1504L91.7845 54.523Z" fill="#263238"/>
<path d="M96.5524 57.6708C96.5524 58.4145 95.668 59.0175 94.5826 59.0175C93.4972 59.0175 92.6128 58.4145 92.6128 57.6708C92.6128 56.9271 93.4932 56.3281 94.5826 56.3281C95.672 56.3281 96.5524 56.9271 96.5524 57.6708Z" fill="#263238"/>
<path d="M96.4803 58.0084L96.0903 57.9119L98.1446 49.5583L98.4863 49.7312L96.4803 58.0084Z" fill="#263238"/>
<path d="M97.5011 52.8429L92.6128 50.1776L92.8379 49.2249L97.7303 51.8781L97.5011 52.8429Z" fill="#263238"/>
<path d="M98.3294 49.6548L93.2079 46.9614L93.0552 48.3081L97.9877 50.8005L98.3294 49.6548Z" fill="#263238"/>
<path d="M53.1927 60.2998C52.9716 61.1038 51.8661 61.4776 50.7285 61.1601C49.5908 60.8425 48.8471 59.9541 49.0682 59.1501C49.2893 58.3461 50.3908 57.9762 51.5284 58.2938C52.6661 58.6114 53.4098 59.5159 53.1927 60.2998Z" fill="#263238"/>
<path d="M50.1454 50.3745L49.4459 59.4959L49.0439 59.4637L49.5665 52.8267L49.7273 50.7805C49.8925 50.6746 50.0347 50.5365 50.1454 50.3745V50.3745Z" fill="#263238"/>
<path d="M50.1455 50.3745L49.7435 52.674C49.6842 52.7305 49.6211 52.7829 49.5546 52.8307C49.0583 53.1861 48.4803 53.4101 47.8742 53.482C47.4722 53.5463 47.0702 53.5744 46.6682 53.6709C45.8688 53.8573 45.1586 54.3147 44.6582 54.9654C44.819 53.9523 45.0321 52.8508 45.8079 52.1755C46.4149 51.6448 47.2471 51.4881 48.031 51.2991C48.6191 51.2138 49.191 51.0403 49.7274 50.7846C49.893 50.6774 50.0352 50.538 50.1455 50.3745V50.3745Z" fill="#263238"/>
<path d="M122.345 33.1892H165.283C166.056 33.1908 166.82 33.3509 167.529 33.6598C168.238 33.9686 168.876 34.4196 169.403 34.9848C169.931 35.55 170.337 36.2174 170.596 36.9457C170.855 37.674 170.962 38.4478 170.911 39.2192L164.077 140.78C163.98 142.208 163.345 143.546 162.301 144.524C161.256 145.502 159.88 146.048 158.449 146.051H115.873C115.101 146.049 114.339 145.889 113.631 145.582C112.924 145.274 112.287 144.825 111.76 144.262C111.233 143.699 110.826 143.034 110.566 142.308C110.305 141.582 110.196 140.811 110.245 140.041L116.701 38.4795C116.793 37.0455 117.428 35.7003 118.476 34.7175C119.525 33.7348 120.908 33.1883 122.345 33.1892V33.1892Z" fill="#92E3A9"/>
<path opacity="0.2" d="M122.345 33.1892H165.283C166.056 33.1908 166.82 33.3509 167.529 33.6598C168.238 33.9686 168.876 34.4196 169.403 34.9848C169.931 35.55 170.337 36.2174 170.596 36.9457C170.855 37.674 170.962 38.4478 170.911 39.2192L164.077 140.78C163.98 142.208 163.345 143.546 162.301 144.524C161.256 145.502 159.88 146.048 158.449 146.051H115.873C115.101 146.049 114.339 145.889 113.631 145.582C112.924 145.274 112.287 144.825 111.76 144.262C111.233 143.699 110.826 143.034 110.566 142.308C110.305 141.582 110.196 140.811 110.245 140.041L116.701 38.4795C116.793 37.0455 117.428 35.7003 118.476 34.7175C119.525 33.7348 120.908 33.1883 122.345 33.1892V33.1892Z" fill="black"/>
<path d="M121.284 33.1892H163.011C163.868 33.1893 164.716 33.3658 165.501 33.7075C166.287 34.0492 166.994 34.5489 167.579 35.1756C168.163 35.8022 168.612 36.5424 168.899 37.3501C169.185 38.1577 169.302 39.0156 169.242 39.8704L162.509 140.23C162.403 141.812 161.699 143.295 160.541 144.378C159.382 145.461 157.855 146.063 156.27 146.063H114.9C114.046 146.062 113.201 145.887 112.418 145.547C111.635 145.208 110.929 144.712 110.345 144.089C109.761 143.466 109.31 142.731 109.021 141.927C108.732 141.124 108.611 140.27 108.665 139.418L115.045 39.0544C115.142 37.466 115.842 35.9746 117.001 34.8847C118.16 33.7947 119.692 33.1883 121.284 33.1892V33.1892Z" fill="#92E3A9"/>
<path opacity="0.2" d="M150.726 39.5528H138.61C138.312 39.5518 138.026 39.4328 137.815 39.222C137.604 39.0111 137.485 38.7254 137.484 38.4272V38.4272C137.485 38.128 137.605 37.8413 137.816 37.6296C138.028 37.418 138.315 37.2987 138.614 37.2976H150.75C151.049 37.2997 151.335 37.4195 151.545 37.631C151.756 37.8425 151.875 38.1287 151.876 38.4272C151.875 38.5769 151.845 38.7251 151.787 38.863C151.729 39.0009 151.644 39.1258 151.537 39.2306C151.43 39.3353 151.303 39.4177 151.164 39.4731C151.025 39.5284 150.876 39.5555 150.726 39.5528V39.5528Z" fill="black"/>
<path opacity="0.2" d="M132.443 38.4192C132.443 38.7317 132.35 39.0371 132.177 39.2969C132.003 39.5567 131.756 39.7592 131.468 39.8788C131.179 39.9984 130.861 40.0297 130.555 39.9687C130.248 39.9078 129.967 39.7573 129.746 39.5363C129.525 39.3154 129.375 39.0339 129.314 38.7274C129.253 38.421 129.284 38.1033 129.403 37.8146C129.523 37.5259 129.726 37.2792 129.985 37.1056C130.245 36.932 130.551 36.8394 130.863 36.8394C131.282 36.8394 131.684 37.0058 131.98 37.3021C132.276 37.5984 132.443 38.0002 132.443 38.4192Z" fill="black"/>
<path opacity="0.2" d="M136.317 141.565C137.739 140.143 137.739 137.837 136.317 136.414C134.895 134.992 132.589 134.992 131.166 136.414C129.744 137.837 129.744 140.143 131.166 141.565C132.589 142.987 134.895 142.987 136.317 141.565Z" fill="black"/>
<path d="M114.385 133.05L157.592 133.062L164.442 43.2312L119.917 43.2151L114.385 133.05Z" fill="white"/>
<path opacity="0.2" d="M114.385 133.05H113.195L118.626 43.2151H119.917L114.385 133.05Z" fill="black"/>
<path d="M152.672 93.449H125.247C124.468 93.4469 123.722 93.1366 123.172 92.586C122.621 92.0353 122.311 91.2891 122.309 90.5104V90.5104C122.311 89.7317 122.621 88.9855 123.172 88.4348C123.722 87.8842 124.468 87.5739 125.247 87.5718H152.672C153.45 87.5739 154.197 87.8842 154.747 88.4348C155.298 88.9855 155.608 89.7317 155.61 90.5104V90.5104C155.608 91.2891 155.298 92.0353 154.747 92.586C154.197 93.1366 153.45 93.4469 152.672 93.449V93.449Z" fill="#92E3A9"/>
<path d="M155.674 53.4299H128.238C127.46 53.4288 126.713 53.1194 126.163 52.5694C125.612 52.0194 125.301 51.2736 125.299 50.4953V50.4953C125.301 49.7165 125.612 48.9703 126.162 48.4197C126.713 47.869 127.459 47.5588 128.238 47.5566H155.662C156.441 47.5588 157.187 47.869 157.738 48.4197C158.289 48.9703 158.599 49.7165 158.601 50.4953V50.4953C158.599 51.2715 158.29 52.0155 157.742 52.5652C157.194 53.1148 156.451 53.4256 155.674 53.4299V53.4299Z" fill="#92E3A9"/>
<path d="M153.082 126.558H120.081C119.961 126.558 119.864 126.655 119.864 126.775V127.394C119.864 127.514 119.961 127.611 120.081 127.611H153.082C153.201 127.611 153.299 127.514 153.299 127.394V126.775C153.299 126.655 153.201 126.558 153.082 126.558Z" fill="#263238"/>
<path d="M121.396 128.62C122.244 128.62 122.932 127.933 122.932 127.084C122.932 126.236 122.244 125.549 121.396 125.549C120.548 125.549 119.86 126.236 119.86 127.084C119.86 127.933 120.548 128.62 121.396 128.62Z" fill="#92E3A9"/>
<path d="M122.256 127.084C122.257 127.255 122.207 127.422 122.113 127.564C122.018 127.706 121.884 127.817 121.726 127.883C121.568 127.948 121.395 127.965 121.228 127.932C121.06 127.899 120.907 127.816 120.786 127.695C120.666 127.574 120.584 127.42 120.551 127.253C120.519 127.085 120.537 126.912 120.603 126.754C120.669 126.597 120.781 126.463 120.923 126.369C121.066 126.276 121.233 126.226 121.404 126.228C121.63 126.23 121.846 126.321 122.006 126.481C122.165 126.642 122.255 126.858 122.256 127.084V127.084Z" fill="white"/>
<path d="M126.791 57.9685L154.63 58.0489C154.988 58.0493 155.342 58.123 155.671 58.2657C155.999 58.4083 156.295 58.6168 156.54 58.8782C156.785 59.1397 156.974 59.4485 157.094 59.7857C157.215 60.1229 157.266 60.4813 157.243 60.8388L156.037 80.0423C155.995 80.7089 155.7 81.3344 155.213 81.7915C154.726 82.2486 154.083 82.5029 153.416 82.5026H125.597C125.239 82.5027 124.884 82.4294 124.555 82.2873C124.226 82.1452 123.93 81.9373 123.684 81.6763C123.439 81.4153 123.249 81.1068 123.127 80.7698C123.006 80.4328 122.954 80.0744 122.976 79.7167L124.182 60.4207C124.225 59.7573 124.518 59.135 125.003 58.6797C125.487 58.2244 126.126 57.9702 126.791 57.9685Z" fill="#92E3A9"/>
<path opacity="0.2" d="M126.791 57.9685L154.63 58.0489C154.988 58.0493 155.342 58.123 155.671 58.2657C155.999 58.4083 156.295 58.6168 156.54 58.8782C156.785 59.1397 156.974 59.4485 157.094 59.7857C157.215 60.1229 157.266 60.4813 157.243 60.8388L156.037 80.0423C155.995 80.7089 155.7 81.3344 155.213 81.7915C154.726 82.2486 154.083 82.5029 153.416 82.5026H125.597C125.239 82.5027 124.884 82.4294 124.555 82.2873C124.226 82.1452 123.93 81.9373 123.684 81.6763C123.439 81.4153 123.249 81.1068 123.127 80.7698C123.006 80.4328 122.954 80.0744 122.976 79.7167L124.182 60.4207C124.225 59.7573 124.518 59.135 125.003 58.6797C125.487 58.2244 126.126 57.9702 126.791 57.9685Z" fill="black"/>
<path d="M140.563 60.9996C135.932 60.7343 131.949 64.5413 131.663 69.506C131.378 74.4707 134.899 78.7077 139.53 78.9771C144.161 79.2464 148.145 75.4355 148.431 70.4708C148.716 65.5061 145.194 61.265 140.563 60.9996ZM139.928 72.0386C139.515 72.0435 139.11 71.9241 138.766 71.6958C138.422 71.4675 138.154 71.1409 137.998 70.7584C137.842 70.376 137.804 69.9554 137.89 69.5513C137.977 69.1473 138.182 68.7786 138.481 68.493C138.779 68.2075 139.157 68.0184 139.564 67.9504C139.972 67.8823 140.39 67.9384 140.765 68.1114C141.141 68.2844 141.455 68.5663 141.668 68.9204C141.88 69.2745 141.982 69.6845 141.958 70.0969C141.941 70.6215 141.718 71.1184 141.339 71.4812C140.959 71.8441 140.453 72.0441 139.928 72.0386V72.0386Z" fill="white"/>
<path d="M154.658 105.943H131.856C131.721 105.932 131.595 105.869 131.503 105.769C131.411 105.669 131.36 105.538 131.36 105.403C131.36 105.267 131.411 105.136 131.503 105.036C131.595 104.936 131.721 104.873 131.856 104.862H154.67C154.805 104.873 154.931 104.936 155.023 105.036C155.115 105.136 155.166 105.267 155.166 105.403C155.166 105.538 155.115 105.669 155.023 105.769C154.931 105.869 154.805 105.932 154.67 105.943H154.658Z" fill="#92E3A9"/>
<path opacity="0.5" d="M154.658 105.943H131.856C131.721 105.932 131.595 105.869 131.503 105.769C131.411 105.669 131.36 105.538 131.36 105.403C131.36 105.267 131.411 105.136 131.503 105.036C131.595 104.936 131.721 104.873 131.856 104.862H154.67C154.805 104.873 154.931 104.936 155.023 105.036C155.115 105.136 155.166 105.267 155.166 105.403C155.166 105.538 155.115 105.669 155.023 105.769C154.931 105.869 154.805 105.932 154.67 105.943H154.658Z" fill="white"/>
<path d="M153.942 117.046H131.028C130.953 117.053 130.877 117.044 130.806 117.019C130.735 116.995 130.67 116.956 130.614 116.905C130.559 116.855 130.515 116.793 130.484 116.724C130.454 116.655 130.438 116.581 130.438 116.506C130.438 116.43 130.454 116.356 130.484 116.287C130.515 116.218 130.559 116.157 130.614 116.106C130.67 116.055 130.735 116.016 130.806 115.992C130.877 115.968 130.953 115.958 131.028 115.965H153.942C154.017 115.958 154.092 115.968 154.163 115.992C154.235 116.016 154.3 116.055 154.355 116.106C154.411 116.157 154.455 116.218 154.485 116.287C154.516 116.356 154.531 116.43 154.531 116.506C154.531 116.581 154.516 116.655 154.485 116.724C154.455 116.793 154.411 116.855 154.355 116.905C154.3 116.956 154.235 116.995 154.163 117.019C154.092 117.044 154.017 117.053 153.942 117.046Z" fill="#92E3A9"/>
<path opacity="0.5" d="M153.942 117.046H131.028C130.953 117.053 130.877 117.044 130.806 117.019C130.735 116.995 130.67 116.956 130.614 116.905C130.559 116.855 130.515 116.793 130.484 116.724C130.454 116.655 130.438 116.581 130.438 116.506C130.438 116.43 130.454 116.356 130.484 116.287C130.515 116.218 130.559 116.157 130.614 116.106C130.67 116.055 130.735 116.016 130.806 115.992C130.877 115.968 130.953 115.958 131.028 115.965H153.942C154.017 115.958 154.092 115.968 154.163 115.992C154.235 116.016 154.3 116.055 154.355 116.106C154.411 116.157 154.455 116.218 154.485 116.287C154.516 116.356 154.531 116.43 154.531 116.506C154.531 116.581 154.516 116.655 154.485 116.724C154.455 116.793 154.411 116.855 154.355 116.905C154.3 116.956 154.235 116.995 154.163 117.019C154.092 117.044 154.017 117.053 153.942 117.046Z" fill="white"/>
<path d="M125.882 108.582C127.636 107.962 128.556 106.038 127.936 104.283C127.315 102.529 125.391 101.61 123.637 102.23C121.882 102.85 120.963 104.775 121.583 106.529C122.203 108.283 124.128 109.203 125.882 108.582Z" fill="#92E3A9"/>
<path d="M127.159 117.36C127.634 115.561 126.56 113.718 124.761 113.243C122.962 112.769 121.119 113.843 120.644 115.642C120.17 117.441 121.244 119.284 123.043 119.758C124.842 120.233 126.685 119.159 127.159 117.36Z" fill="#92E3A9"/>
<path d="M123.358 114.711V118.035L125.38 116.375L123.358 114.711Z" fill="white"/>
<path d="M124.154 103.74V107.065L126.176 105.4L124.154 103.74Z" fill="white"/>
<g opacity="0.4">
<path opacity="0.4" d="M39.1982 85.127C25.8112 85.2093 12.6531 81.6539 1.12932 74.8404C1.06948 74.8041 1.02617 74.7459 1.0086 74.6781C0.991034 74.6104 1.0006 74.5384 1.03526 74.4776C1.05261 74.4473 1.07585 74.4208 1.1036 74.3996C1.13136 74.3784 1.16307 74.363 1.19687 74.3542C1.23067 74.3455 1.26587 74.3435 1.30043 74.3486C1.33498 74.3536 1.36818 74.3655 1.39807 74.3836C38.0426 95.7629 75.3456 79.3622 111.432 63.5058C146.303 48.1801 182.37 32.3438 217.892 50.4847C217.923 50.5001 217.951 50.5215 217.973 50.5476C217.996 50.5736 218.013 50.6039 218.024 50.6367C218.035 50.6694 218.04 50.704 218.037 50.7385C218.035 50.7729 218.025 50.8065 218.01 50.8374C217.995 50.8683 217.973 50.8958 217.947 50.9184C217.921 50.9411 217.891 50.9583 217.858 50.9692C217.792 50.9913 217.72 50.9862 217.657 50.955C182.35 32.9485 146.438 48.7512 111.641 64.0231C87.856 74.444 63.5406 85.127 39.1982 85.127Z" fill="#263238"/>
<path opacity="0.4" d="M39.1983 95.6352C26.2111 95.7161 13.433 92.3646 2.15735 85.9198C2.09683 85.8859 2.05223 85.8293 2.03334 85.7626C2.01445 85.6958 2.0228 85.6243 2.05656 85.5637C2.09178 85.5027 2.14952 85.458 2.21737 85.4391C2.28522 85.4203 2.35776 85.4288 2.41938 85.4629C38.7011 105.969 75.6547 89.7227 111.446 74.0073C146.653 58.554 183.062 42.5363 218.947 61.4767C219 61.5147 219.036 61.5703 219.051 61.6333C219.065 61.6962 219.057 61.7623 219.027 61.8194C218.996 61.8766 218.947 61.9209 218.886 61.9443C218.826 61.9678 218.76 61.9687 218.699 61.947C183.089 43.1342 146.807 59.0713 111.681 74.491C87.8561 84.9456 63.5339 95.6352 39.1983 95.6352Z" fill="#263238"/>
<path opacity="0.4" d="M39.1913 106.137C26.5934 106.217 14.1852 103.066 3.15145 96.9857C3.09047 96.9505 3.04574 96.8927 3.02689 96.8249C3.00805 96.757 3.01659 96.6845 3.05067 96.6229C3.06679 96.5923 3.08896 96.5652 3.11585 96.5434C3.14274 96.5216 3.17379 96.5055 3.2071 96.4961C3.2404 96.4867 3.27528 96.4841 3.3096 96.4886C3.34393 96.4931 3.37699 96.5045 3.40677 96.5221C39.3794 116.175 76.0038 100.076 111.425 84.5088C146.968 68.8943 183.72 52.7422 219.915 72.5224C219.975 72.5565 220.02 72.6125 220.04 72.6789C220.06 72.7452 220.054 72.8168 220.022 72.8785C220.006 72.9091 219.984 72.9361 219.957 72.958C219.93 72.98 219.899 72.9964 219.866 73.0064C219.833 73.0164 219.799 73.0197 219.764 73.0162C219.73 73.0127 219.696 73.0025 219.666 72.986C183.693 53.3334 147.062 69.425 111.64 84.9926C87.8558 95.4471 63.5269 106.137 39.1913 106.137Z" fill="#263238"/>
<path opacity="0.4" d="M39.1846 116.638C26.9809 116.717 14.9492 113.759 4.17277 108.032C4.11073 107.997 4.06426 107.941 4.04299 107.873C4.02172 107.805 4.02729 107.732 4.05855 107.669C4.09263 107.607 4.14988 107.56 4.21783 107.54C4.28578 107.52 4.35893 107.528 4.42137 107.561C40.0312 126.374 76.3465 110.437 111.439 95.0105C147.304 79.2481 184.399 62.9482 220.956 83.5885C221.017 83.6224 221.061 83.6789 221.08 83.7457C221.099 83.8124 221.091 83.884 221.057 83.9446C221.022 84.0055 220.964 84.0503 220.896 84.0691C220.828 84.088 220.756 84.0794 220.694 84.0453C184.412 63.5395 147.418 79.7856 111.667 95.4674C87.8626 105.949 63.527 116.638 39.1846 116.638Z" fill="#263238"/>
<path opacity="0.4" d="M39.185 127.147C27.365 127.23 15.6988 124.465 5.17427 119.084C5.11272 119.051 5.06639 118.995 5.04507 118.929C5.02375 118.863 5.02913 118.79 5.06005 118.728C5.07569 118.697 5.09737 118.669 5.12383 118.646C5.15028 118.624 5.18098 118.607 5.21414 118.596C5.24729 118.585 5.28223 118.581 5.31691 118.584C5.3516 118.588 5.38534 118.597 5.41615 118.614C40.7169 136.613 76.6358 120.817 111.433 105.539C147.634 89.6353 185.064 73.1809 221.937 94.6946C221.968 94.7119 221.994 94.7352 222.015 94.7629C222.037 94.7907 222.052 94.8224 222.061 94.8562C222.07 94.89 222.071 94.9252 222.066 94.9597C222.061 94.9943 222.049 95.0275 222.031 95.0574C222.015 95.0875 221.992 95.1139 221.965 95.135C221.938 95.1561 221.907 95.1715 221.873 95.1803C221.84 95.1891 221.805 95.191 221.771 95.1861C221.737 95.1811 221.705 95.1694 221.675 95.1514C185.031 73.7452 147.721 90.1258 111.675 105.996C87.863 116.45 63.5207 127.147 39.185 127.147Z" fill="#263238"/>
</g>
<path d="M28.8716 103.563C28.6258 102.588 28.0396 101.733 27.2188 101.151C26.7467 100.819 26.3526 100.387 26.0637 99.8875C25.7749 99.3874 25.5981 98.8306 25.5458 98.2555L25.6869 97.8658C25.7109 97.7999 25.7078 97.7271 25.6782 97.6635C25.6486 97.5998 25.5949 97.5506 25.529 97.5265C25.4631 97.5025 25.3903 97.5056 25.3266 97.5352C25.263 97.5648 25.2137 97.6185 25.1897 97.6844L19.7743 112.97C19.6047 112.595 19.36 112.259 19.0554 111.982C18.2965 111.311 17.366 110.865 16.3679 110.692C14.1305 110.255 12.0812 111.088 11.799 112.546C11.5504 113.803 12.6927 115.12 14.4395 115.745C14.731 115.847 15.0297 115.928 15.3332 115.987C16.3191 116.2 17.3451 116.135 18.2962 115.798C18.6778 115.685 19.0242 115.476 19.3028 115.192C19.5814 114.907 19.783 114.556 19.8885 114.172V114.172L23.6914 103.483C23.9259 104.485 24.5185 105.366 25.3577 105.962C25.855 106.313 26.2663 106.773 26.5607 107.306C26.8551 107.839 27.025 108.431 27.0575 109.039C27.0624 109.075 27.0768 109.109 27.0992 109.137C27.1217 109.166 27.1514 109.188 27.1852 109.201H27.2322C27.2764 109.207 27.3217 109.198 27.3599 109.175C27.3981 109.152 27.4267 109.115 27.4405 109.073L28.7843 105.297C28.9925 104.742 29.0231 104.136 28.8716 103.563V103.563Z" fill="#263238"/>
<path d="M179.064 74.0475C178.288 73.3964 177.302 73.048 176.289 73.0665C175.711 73.0759 175.138 72.9607 174.608 72.7289C174.078 72.497 173.604 72.1539 173.219 71.7228L173.098 71.3196C173.078 71.2523 173.032 71.1957 172.97 71.1618C172.909 71.1279 172.836 71.1194 172.769 71.1382C172.701 71.1585 172.645 71.2043 172.611 71.2658C172.577 71.3274 172.568 71.3997 172.587 71.4674L177.217 87.0887C176.857 86.8826 176.459 86.7523 176.047 86.7058C175.038 86.6078 174.021 86.794 173.111 87.2433C171.035 88.2108 169.859 90.0988 170.491 91.456C171.035 92.625 172.749 93.0215 174.522 92.4907C174.819 92.4016 175.108 92.2916 175.389 92.1614C176.318 91.7521 177.114 91.0912 177.687 90.2533C177.931 89.9342 178.089 89.5584 178.148 89.1612C178.207 88.764 178.164 88.3584 178.023 87.9823V87.9823L174.778 77.0374C175.564 77.7133 176.57 78.0789 177.606 78.0653C178.218 78.0589 178.823 78.1903 179.376 78.4497C179.93 78.7091 180.418 79.0898 180.804 79.5636C180.83 79.5895 180.863 79.6081 180.898 79.6176C180.933 79.627 180.971 79.6269 181.006 79.6174H181.053C181.092 79.5951 181.122 79.5606 181.139 79.5193C181.156 79.4779 181.159 79.4321 181.147 79.3889L179.998 75.5256C179.852 74.9461 179.525 74.4283 179.064 74.0475Z" fill="#263238"/>
<path d="M75.0232 100.641C75.7409 100.932 76.384 101.381 76.905 101.955C77.426 102.528 77.8115 103.211 78.0333 103.953C78.0479 103.998 78.0756 104.037 78.1127 104.066C78.1498 104.094 78.1947 104.111 78.2415 104.114C78.2612 104.121 78.2824 104.121 78.302 104.114C78.3584 104.107 78.4108 104.082 78.4509 104.042C78.4911 104.001 78.5167 103.949 78.5237 103.893L78.8798 100.634C78.9637 99.8968 78.8207 99.1514 78.47 98.4975C77.8781 97.3594 76.8986 96.4704 75.7085 95.9914C75.026 95.7159 74.4113 95.2958 73.9067 94.7599C73.4022 94.224 73.0198 93.5851 72.7858 92.8873L72.8396 92.3565C72.849 92.2683 72.8233 92.18 72.7679 92.1108C72.7125 92.0416 72.632 91.9971 72.544 91.9869C72.4998 91.9823 72.4552 91.9865 72.4126 91.9992C72.3701 92.0119 72.3305 92.0329 72.2961 92.061C72.2618 92.0892 72.2333 92.1238 72.2124 92.163C72.1916 92.2022 72.1786 92.2451 72.1744 92.2893L69.9371 112.802C69.6181 112.389 69.218 112.046 68.7613 111.794C67.6274 111.182 66.3454 110.898 65.0592 110.974C63.7732 111.005 62.5203 111.388 61.4377 112.083C60.9584 112.308 60.5561 112.669 60.2813 113.121C60.0065 113.574 59.8713 114.097 59.8928 114.626C59.9144 115.155 60.0916 115.666 60.4023 116.094C60.713 116.523 61.1433 116.85 61.6393 117.035C62.4098 117.463 63.261 117.726 64.1387 117.807C64.5355 117.855 64.9356 117.868 65.3347 117.848C68.2103 117.734 70.488 116.128 70.4544 114.253L71.4085 105.478C71.9999 106.65 72.9949 107.569 74.2102 108.065C75.3121 108.603 76.3468 109.12 77.2203 111.378C77.2399 111.42 77.2698 111.457 77.3074 111.485C77.3449 111.514 77.3889 111.532 77.4353 111.539H77.4958C77.5529 111.532 77.6059 111.506 77.6453 111.464C77.6847 111.422 77.7079 111.368 77.7108 111.31L78.0669 108.058C78.1579 107.319 78.0145 106.569 77.657 105.915C77.0651 104.777 76.0856 103.888 74.8956 103.409C74.2123 103.135 73.597 102.715 73.0923 102.179C72.5876 101.643 72.2056 101.003 71.9729 100.305L72.2215 98.0541C72.8079 99.2297 73.8046 100.15 75.0232 100.641V100.641Z" fill="#263238"/>
<path d="M56.2508 91.1067L56.8085 79.4629L57.0168 75.1225V74.874L45.158 74.3096V74.5514L44.9498 78.8985L44.4458 89.5479C43.9695 89.0944 43.3948 88.7571 42.7666 88.5625C42.1384 88.3679 41.4737 88.3211 40.8244 88.4258C38.7281 88.6408 37.1357 89.9309 37.2701 91.3015C37.3911 92.4773 38.755 93.3172 40.475 93.4247C40.759 93.4479 41.0444 93.4479 41.3283 93.4247C43.4111 93.2164 44.9901 91.9532 44.8826 90.596L45.3596 80.5917L56.2508 81.109L55.8276 90.1056C55.5761 89.8228 55.2698 89.5942 54.9272 89.4337C54.0773 89.0417 53.1355 88.8929 52.2061 89.0037C50.1098 89.2187 48.5175 90.502 48.6518 91.8726C48.7728 93.0551 50.1367 93.8883 51.8567 94.0025C52.1407 94.0258 52.4261 94.0258 52.71 94.0025C54.7727 93.7337 56.3583 92.4639 56.2508 91.1067ZM45.373 80.081L45.4268 78.9187L56.318 79.4428L56.2643 80.5984L45.373 80.081Z" fill="#263238"/>
<path d="M215.023 68.706L216.166 59.3669L216.589 55.8865V55.6917L207.082 54.5159V54.7174L206.652 58.1978L205.603 66.7441C205.248 66.3503 204.805 66.0445 204.31 65.8509C203.816 65.6574 203.284 65.5813 202.755 65.6288C201.055 65.6691 199.698 66.6165 199.725 67.7251C199.725 68.6792 200.8 69.4586 202.177 69.6265C202.401 69.6429 202.625 69.6429 202.849 69.6265C204.535 69.5795 205.886 68.6523 205.879 67.5571L206.86 59.5348L215.594 60.6031L214.714 67.8192C214.535 67.5727 214.306 67.3666 214.042 67.2145C213.385 66.8484 212.637 66.6739 211.886 66.7106C210.179 66.7576 208.822 67.6982 208.849 68.8068C208.849 69.7609 209.924 70.5403 211.301 70.7083C211.525 70.7245 211.749 70.7245 211.973 70.7083C213.68 70.7284 215.023 69.8012 215.023 68.706ZM206.927 59.1787L207.035 58.2515L215.769 59.3198L215.662 60.247L206.927 59.1787Z" fill="#263238"/>
<path d="M180.065 47.226L174.388 35.5621L172.272 31.2083L172.144 31L160.258 36.7849L160.373 37.0268L162.496 41.3806L167.683 52.0501C166.587 51.6268 164.995 51.909 163.557 52.89C161.616 54.2337 160.749 56.3233 161.615 57.5932C162.361 58.6816 164.155 58.7958 165.875 57.9627C166.164 57.8247 166.44 57.6629 166.702 57.4789C168.617 56.1688 169.483 54.1195 168.657 52.8161L162.979 41.1522L173.898 35.8376L179.091 46.4533C177.996 46.03 176.404 46.3122 174.959 47.2932C174.087 47.8659 173.39 48.668 172.943 49.6112C172.723 49.9731 172.611 50.3912 172.623 50.815C172.634 51.2388 172.768 51.6503 173.008 51.9998C173.248 52.3492 173.584 52.6218 173.976 52.7845C174.367 52.9472 174.797 52.9932 175.214 52.9168C175.917 52.8731 176.603 52.6856 177.23 52.3659C177.522 52.2254 177.802 52.0637 178.07 51.8821C180.025 50.5787 180.878 48.469 180.065 47.226Z" fill="#263238"/>
</svg>
