<svg width="237" height="242" viewBox="0 0 237 242" fill="none" xmlns="http://www.w3.org/2000/svg">
<path d="M11.8384 109.103V136.828C11.8384 139.237 12.7955 141.548 14.4992 143.252C16.2029 144.955 18.5136 145.912 20.923 145.912H120.33C122.738 145.911 125.047 144.953 126.75 143.249C128.452 141.546 129.409 139.236 129.409 136.828V113.403L141.787 100.402L20.9579 100.024C19.7624 100.019 18.5778 100.251 17.472 100.705C16.3661 101.159 15.3608 101.827 14.5136 102.67C13.6664 103.514 12.994 104.516 12.5349 105.62C12.0758 106.724 11.8391 107.907 11.8384 109.103V109.103Z" fill="#F5F5F5"/>
<path d="M114.755 116.82L24.5547 116.401L24.5605 113.63L114.766 114.044L114.755 116.82Z" fill="#E0E0E0"/>
<path d="M114.755 125.939L24.5547 125.526L24.5605 122.75L114.766 123.169L114.755 125.939Z" fill="#E0E0E0"/>
<path d="M79.0702 131.881L79.0566 134.651L114.749 134.826L114.762 132.056L79.0702 131.881Z" fill="#E0E0E0"/>
<path d="M103.947 204.895V232.621C103.947 235.03 104.904 237.341 106.608 239.044C108.312 240.748 110.622 241.705 113.032 241.705H212.427C214.835 241.704 217.145 240.746 218.847 239.042C220.55 237.339 221.506 235.029 221.506 232.621V209.196L233.884 196.195L113.049 195.817C111.855 195.814 110.673 196.047 109.569 196.503C108.465 196.958 107.462 197.626 106.616 198.469C105.771 199.312 105.1 200.314 104.642 201.417C104.184 202.519 103.948 203.701 103.947 204.895V204.895Z" fill="#F5F5F5"/>
<path d="M207.3 211.891L117.094 211.477L117.1 208.701L207.306 209.12L207.3 211.891Z" fill="#E0E0E0"/>
<path d="M207.3 221.01L117.094 220.597L117.1 217.821L207.306 218.24L207.3 221.01Z" fill="#E0E0E0"/>
<path d="M171.607 226.946L171.593 229.717L207.285 229.891L207.299 227.121L171.607 226.946Z" fill="#E0E0E0"/>
<path d="M64.9727 4.67334H123.601C124.99 4.67334 126.322 5.22517 127.304 6.20744C128.287 7.18971 128.838 8.52196 128.838 9.9111V38.5849C128.838 39.9741 128.287 41.3063 127.304 42.2886C126.322 43.2708 124.99 43.8227 123.601 43.8227H73.8536C72.4644 43.8227 71.1322 43.2708 70.1499 42.2886C69.1676 41.3063 68.6158 39.9741 68.6158 38.5849V8.29903L64.9727 4.67334Z" fill="#F5F5F5"/>
<path d="M98.9423 32.5498V50.9401C98.9423 52.5377 98.3077 54.0697 97.1781 55.1993C96.0485 56.329 94.5164 56.9636 92.9189 56.9636H27.0046C26.2119 56.9659 25.4265 56.8118 24.6933 56.5102C23.9602 56.2086 23.2937 55.7654 22.7321 55.2059C22.1704 54.6464 21.7247 53.9817 21.4202 53.2497C21.1158 52.5177 20.9587 51.7329 20.9579 50.9401V35.4015L12.7754 26.7766L92.9189 26.5264C94.5164 26.5264 96.0485 27.161 97.1781 28.2906C98.3077 29.4202 98.9423 30.9523 98.9423 32.5498V32.5498Z" fill="#E0E0E0"/>
<path d="M30.7002 37.6653L90.527 37.3918L90.5212 35.5527L30.6943 35.8321L30.7002 37.6653Z" fill="#F5F5F5"/>
<path d="M30.7002 43.718L90.527 43.4387L90.5212 41.6055L30.6943 41.879L30.7002 43.718Z" fill="#F5F5F5"/>
<path d="M54.0316 48.0188H30.3569V49.8578H54.0316V48.0188Z" fill="#F5F5F5"/>
<path d="M223.857 117.815V136.205C223.857 137.803 223.223 139.335 222.093 140.464C220.963 141.594 219.431 142.228 217.834 142.228H151.902C150.304 142.228 148.771 141.594 147.641 140.465C146.51 139.335 145.874 137.803 145.873 136.205V120.666L137.667 112.042L217.811 111.791C218.603 111.789 219.389 111.943 220.122 112.245C220.855 112.546 221.521 112.989 222.083 113.549C222.645 114.108 223.091 114.773 223.395 115.505C223.699 116.237 223.856 117.022 223.857 117.815Z" fill="#E0E0E0"/>
<path d="M155.597 122.936L215.43 122.657L215.418 120.818L155.591 121.097L155.597 122.936Z" fill="#F5F5F5"/>
<path d="M155.597 128.983L215.43 128.709L215.418 126.87L155.591 127.144L155.597 128.983Z" fill="#F5F5F5"/>
<path d="M178.51 133.9H154.835V135.739H178.51V133.9Z" fill="#F5F5F5"/>
<path d="M153.496 231.265L86.2785 230.95C82.4006 230.927 78.6904 229.366 75.9626 226.61C73.2347 223.854 71.7121 220.128 71.7291 216.25L72.4392 47.7277C72.4561 43.8473 74.0127 40.1323 76.7669 37.3988C79.5211 34.6653 83.2477 33.1369 87.1281 33.1492L154.346 33.4577C158.224 33.4839 161.933 35.0467 164.661 37.8035C167.388 40.5604 168.911 44.2862 168.895 48.1642L168.197 216.68C168.18 220.563 166.622 224.281 163.866 227.015C161.109 229.75 157.379 231.278 153.496 231.265V231.265Z" fill="#263238"/>
<path d="M154.23 39.2774L141.194 39.2134C140.769 39.221 140.349 39.3122 139.96 39.4818C139.57 39.6515 139.218 39.8962 138.923 40.2021C138.627 40.508 138.396 40.869 138.24 41.2646C138.084 41.6601 138.008 42.0824 138.016 42.5073V44.8702C138.024 45.2951 137.948 45.7174 137.792 46.1129C137.637 46.5085 137.405 46.8695 137.11 47.1754C136.815 47.4813 136.462 47.726 136.072 47.8957C135.683 48.0653 135.263 48.1566 134.839 48.1641L109.435 48.0477C108.578 48.0234 107.765 47.6599 107.174 47.037C106.584 46.414 106.265 45.5825 106.287 44.7247V42.3619C106.309 41.503 105.989 40.6707 105.397 40.0476C104.806 39.4245 103.991 39.0616 103.133 39.0388H98.5525L87.1459 38.9864C84.4251 38.9756 81.8114 40.0452 79.8788 41.9603C77.9463 43.8754 76.853 46.4793 76.8391 49.2L76.1466 213.683C76.1357 216.402 77.2048 219.015 79.1188 220.946C81.0328 222.878 83.6352 223.97 86.3544 223.984L153.438 224.293C154.785 224.299 156.12 224.039 157.366 223.53C158.613 223.02 159.746 222.27 160.703 221.322C161.66 220.374 162.42 219.247 162.941 218.005C163.462 216.764 163.733 215.431 163.739 214.085L164.432 49.5958C164.442 48.2478 164.186 46.911 163.678 45.6622C163.17 44.4134 162.421 43.2772 161.473 42.3185C160.525 41.3599 159.398 40.5978 158.155 40.076C156.912 39.5541 155.578 39.2827 154.23 39.2774Z" fill="#FAFAFA"/>
<path d="M116.285 208.521C116.328 208.804 116.283 209.094 116.156 209.351C116.029 209.608 115.826 209.82 115.575 209.959C115.324 210.097 115.037 210.155 114.752 210.125C114.467 210.095 114.197 209.979 113.981 209.791C113.764 209.604 113.61 209.354 113.539 209.076C113.468 208.799 113.484 208.506 113.585 208.237C113.686 207.969 113.867 207.738 114.103 207.575C114.339 207.413 114.619 207.326 114.906 207.328C115.246 207.307 115.581 207.42 115.839 207.643C116.097 207.866 116.257 208.181 116.285 208.521V208.521Z" fill="#455A64"/>
<path d="M120.574 208.544C120.616 208.828 120.569 209.117 120.442 209.374C120.314 209.63 120.111 209.841 119.859 209.979C119.608 210.116 119.321 210.173 119.036 210.142C118.751 210.112 118.482 209.994 118.266 209.807C118.05 209.619 117.896 209.369 117.826 209.091C117.756 208.813 117.773 208.521 117.874 208.253C117.975 207.985 118.156 207.754 118.392 207.592C118.628 207.43 118.908 207.344 119.195 207.345C119.536 207.325 119.872 207.438 120.13 207.663C120.388 207.887 120.547 208.204 120.574 208.544V208.544Z" fill="#455A64"/>
<path d="M124.863 208.562C124.906 208.845 124.861 209.135 124.734 209.392C124.607 209.649 124.404 209.861 124.153 209.999C123.902 210.138 123.615 210.196 123.33 210.166C123.045 210.136 122.776 210.019 122.559 209.832C122.342 209.644 122.188 209.395 122.117 209.117C122.046 208.839 122.062 208.546 122.163 208.278C122.264 208.01 122.445 207.779 122.681 207.616C122.917 207.453 123.197 207.367 123.484 207.369C123.824 207.346 124.16 207.459 124.418 207.682C124.677 207.905 124.836 208.221 124.863 208.562Z" fill="#455A64"/>
<path d="M96.917 118.571C98.0111 118.728 163.949 131.66 163.949 131.66V118.571H96.917Z" fill="#EBEBEB"/>
<path d="M76.1694 201.677C76.1694 201.677 147.903 191.527 147.275 191.842C146.646 192.156 76.1694 191.842 76.1694 191.842V201.677Z" fill="#EBEBEB"/>
<path d="M159.467 9.63159C159.549 9.63159 159.619 13.2573 159.619 17.7268C159.619 22.1964 159.549 25.8279 159.467 25.8279C159.386 25.8279 159.316 22.2022 159.316 17.7268C159.316 13.2515 159.386 9.63159 159.467 9.63159Z" fill="#263238"/>
<path d="M188.176 28.2722C188.211 28.3478 184.917 29.8726 180.826 31.6767C176.735 33.4808 173.388 34.8892 173.353 34.8077C173.318 34.7262 176.612 33.2073 180.704 31.4032C184.795 29.5991 188.141 28.1907 188.176 28.2722Z" fill="#263238"/>
<path d="M187.449 0C187.414 0.111761 187.363 0.217706 187.298 0.314266C187.164 0.535416 187.001 0.820581 186.797 1.16977C186.361 1.91469 185.715 2.9797 184.9 4.28332C183.27 6.9022 180.925 10.4522 178.265 14.3282C175.606 18.2041 173.243 21.7367 171.567 24.3207C170.746 25.5835 170.077 26.6486 169.588 27.3818L169.041 28.2082C168.983 28.3096 168.913 28.4034 168.832 28.4876C168.875 28.3784 168.927 28.2733 168.989 28.1733C169.123 27.9522 169.285 27.667 169.489 27.3178C169.92 26.5729 170.572 25.5137 171.386 24.2043C173.016 21.5854 175.361 18.0353 178.015 14.1594C180.669 10.2835 183.043 6.77417 184.719 4.17275L186.698 1.10575L187.245 0.279347C187.305 0.180793 187.373 0.0873616 187.449 0V0Z" fill="#263238"/>
<path d="M227.692 68.5156H96.4861C95.8123 68.5156 95.1451 68.6484 94.5226 68.9065C93.9002 69.1645 93.3347 69.5427 92.8585 70.0194C92.3824 70.4961 92.0048 71.062 91.7475 71.6848C91.4902 72.3075 91.3581 72.9748 91.3589 73.6486V114.346C91.3581 115.02 91.4902 115.687 91.7475 116.31C92.0048 116.933 92.3824 117.499 92.8585 117.975C93.3347 118.452 93.9002 118.83 94.5226 119.088C95.1451 119.346 95.8123 119.479 96.4861 119.479H106.263C107.049 123.727 107.968 129.087 107.968 129.087L116.814 119.479H227.692C228.366 119.479 229.033 119.346 229.655 119.088C230.278 118.83 230.843 118.452 231.319 117.975C231.796 117.499 232.173 116.933 232.43 116.31C232.688 115.687 232.82 115.02 232.819 114.346V73.6486C232.82 72.9748 232.688 72.3075 232.43 71.6848C232.173 71.062 231.796 70.4961 231.319 70.0194C230.843 69.5427 230.278 69.1645 229.655 68.9065C229.033 68.6484 228.366 68.5156 227.692 68.5156V68.5156Z" fill="#92E3A9"/>
<path d="M173.557 90.5783C173.557 90.6598 157.943 90.7296 138.685 90.7296C119.428 90.7296 103.808 90.6598 103.808 90.5783C103.808 90.4968 119.422 90.4211 138.685 90.4211C157.949 90.4211 173.557 90.5084 173.557 90.5783Z" fill="#F5F5F5"/>
<path d="M173.557 84.3395C173.557 84.421 157.943 84.4909 138.685 84.4909C119.428 84.4909 103.808 84.421 103.808 84.3395C103.808 84.2581 119.422 84.1882 138.685 84.1882C157.949 84.1882 173.557 84.2522 173.557 84.3395Z" fill="#F5F5F5"/>
<path d="M173.557 96.7822C173.557 96.8637 157.943 96.9335 138.685 96.9335C119.428 96.9335 103.808 96.8637 103.808 96.7822C103.808 96.7007 119.422 96.6309 138.685 96.6309C157.949 96.6309 173.557 96.6949 173.557 96.7822Z" fill="#F5F5F5"/>
<path d="M149.492 103.19C149.492 103.271 139.267 103.341 126.65 103.341C114.033 103.341 103.808 103.271 103.808 103.19C103.808 103.108 114.033 103.038 126.65 103.038C139.267 103.038 149.492 103.102 149.492 103.19Z" fill="#F5F5F5"/>
<path d="M168.407 141.687H36.1299C35.6576 141.686 35.1899 141.779 34.7535 141.959C34.3171 142.14 33.9207 142.405 33.587 142.739C33.2534 143.073 32.989 143.47 32.8092 143.907C32.6293 144.343 32.5375 144.811 32.5391 145.284V188.35C32.5391 189.302 32.9174 190.215 33.5908 190.889C34.2642 191.562 35.1775 191.94 36.1299 191.94H132.202L140.932 201.444C140.932 201.444 141.845 196.102 142.619 191.94H168.389C169.341 191.94 170.255 191.562 170.928 190.889C171.602 190.215 171.98 189.302 171.98 188.35V145.284C171.981 144.813 171.89 144.346 171.711 143.911C171.533 143.475 171.27 143.079 170.938 142.745C170.606 142.411 170.212 142.146 169.778 141.964C169.343 141.783 168.877 141.689 168.407 141.687V141.687Z" fill="#455A64"/>
<path d="M163.221 163.907C163.221 163.988 147.607 164.058 128.343 164.058C109.08 164.058 93.4658 163.988 93.4658 163.907C93.4658 163.825 109.08 163.756 128.343 163.756C147.607 163.756 163.221 163.802 163.221 163.907Z" fill="#F5F5F5"/>
<path d="M163.221 157.633C163.221 157.715 147.607 157.785 128.343 157.785C109.08 157.785 93.4658 157.715 93.4658 157.633C93.4658 157.552 109.08 157.482 128.343 157.482C147.607 157.482 163.221 157.546 163.221 157.633Z" fill="#F5F5F5"/>
<path d="M163.221 170.076C163.221 170.157 147.607 170.227 128.343 170.227C109.08 170.227 93.4658 170.157 93.4658 170.076C93.4658 169.994 109.08 169.925 128.343 169.925C147.607 169.925 163.221 169.994 163.221 170.076Z" fill="#F5F5F5"/>
<path d="M139.157 176.483C139.157 176.571 128.931 176.635 116.314 176.635C103.697 176.635 93.4658 176.571 93.4658 176.483C93.4658 176.396 103.697 176.332 116.314 176.332C128.931 176.332 139.157 176.402 139.157 176.483Z" fill="#F5F5F5"/>
<path d="M198.686 113.98C199.782 106.872 194.909 100.221 187.801 99.124C180.693 98.0274 174.042 102.901 172.945 110.009C171.849 117.117 176.722 123.768 183.83 124.864C190.938 125.961 197.589 121.088 198.686 113.98Z" stroke="#263238" stroke-miterlimit="10" stroke-linecap="round"/>
<path d="M182.891 110.412C182.891 111.483 182.459 112.346 181.927 112.346C181.395 112.346 180.963 111.483 180.963 110.412C180.963 109.342 181.395 108.485 181.927 108.485C182.459 108.485 182.891 109.348 182.891 110.412Z" fill="#263238"/>
<path d="M189.649 110.412C189.649 111.483 189.217 112.346 188.685 112.346C188.153 112.346 187.721 111.483 187.721 110.412C187.721 109.342 188.153 108.485 188.685 108.485C189.217 108.485 189.649 109.348 189.649 110.412Z" fill="#263238"/>
<path d="M179.226 105.392L184.437 108.289" stroke="#263238" stroke-width="2" stroke-miterlimit="10" stroke-linecap="round"/>
<path d="M190.618 104.624L186.371 107.134" stroke="#263238" stroke-width="2" stroke-miterlimit="10" stroke-linecap="round"/>
<path d="M178.644 118.139C178.644 118.139 179.994 115.242 185.211 115.242C190.428 115.242 192.355 118.139 192.355 118.139" stroke="#263238" stroke-miterlimit="10" stroke-linecap="round"/>
<path d="M197.387 211.061C202.007 211.061 205.753 207.315 205.753 202.695C205.753 198.075 202.007 194.329 197.387 194.329C192.767 194.329 189.021 198.075 189.021 202.695C189.021 207.315 192.767 211.061 197.387 211.061Z" stroke="#263238" stroke-miterlimit="10" stroke-linecap="round"/>
<path d="M195.504 201.664C195.504 202.347 195.229 202.902 194.888 202.902C194.546 202.902 194.266 202.342 194.266 201.664C194.266 200.986 194.54 200.42 194.888 200.42C195.235 200.42 195.504 200.991 195.504 201.664Z" fill="#263238"/>
<path d="M199.23 202.919C199.574 202.919 199.852 202.365 199.852 201.681C199.852 200.997 199.574 200.442 199.23 200.442C198.887 200.442 198.608 200.997 198.608 201.681C198.608 202.365 198.887 202.919 199.23 202.919Z" fill="#263238"/>
<path d="M193.145 198.453L196.501 200.313" stroke="#263238" stroke-width="2" stroke-miterlimit="10" stroke-linecap="round"/>
<path d="M200.469 197.955L197.74 199.568" stroke="#263238" stroke-width="2" stroke-miterlimit="10" stroke-linecap="round"/>
<path d="M192.775 206.645C192.775 206.645 193.644 204.78 196.995 204.78C200.346 204.78 201.59 206.645 201.59 206.645" stroke="#263238" stroke-miterlimit="10" stroke-linecap="round"/>
<path d="M31.6099 112.889C36.6388 112.889 40.7155 108.812 40.7155 103.784C40.7155 98.7547 36.6388 94.678 31.6099 94.678C26.5811 94.678 22.5044 98.7547 22.5044 103.784C22.5044 108.812 26.5811 112.889 31.6099 112.889Z" stroke="#263238" stroke-miterlimit="10" stroke-linecap="round"/>
<path d="M29.5589 102.674C29.5589 103.419 29.2563 104.025 28.8809 104.025C28.5055 104.025 28.2085 103.419 28.2085 102.674C28.2085 101.929 28.5111 101.324 28.8809 101.324C29.2507 101.324 29.5589 101.923 29.5589 102.674Z" fill="#263238"/>
<path d="M34.2884 102.674C34.2884 103.419 33.9858 104.025 33.6104 104.025C33.235 104.025 32.938 103.419 32.938 102.674C32.938 101.929 33.2406 101.324 33.6104 101.324C33.9802 101.324 34.2884 101.923 34.2884 102.674Z" fill="#263238"/>
<path d="M26.9927 99.1663L30.6405 101.189" stroke="#263238" stroke-width="2" stroke-miterlimit="10" stroke-linecap="round"/>
<path d="M34.9605 98.6228L31.9907 100.382" stroke="#263238" stroke-width="2" stroke-miterlimit="10" stroke-linecap="round"/>
<path d="M26.5889 108.087C26.5889 108.087 27.5302 106.059 31.1781 106.059C34.8259 106.059 36.1763 108.087 36.1763 108.087" stroke="#263238" stroke-miterlimit="10" stroke-linecap="round"/>
<path d="M50.1908 156.882C57.3828 156.882 63.2131 151.051 63.2131 143.859C63.2131 136.667 57.3828 130.837 50.1908 130.837C42.9988 130.837 37.1685 136.667 37.1685 143.859C37.1685 151.051 42.9988 156.882 50.1908 156.882Z" stroke="#263238" stroke-miterlimit="10" stroke-linecap="round"/>
<path d="M50.0955 151.071C53.02 151.071 55.3908 150.669 55.3908 150.174C55.3908 149.679 53.02 149.278 50.0955 149.278C47.171 149.278 44.8003 149.679 44.8003 150.174C44.8003 150.669 47.171 151.071 50.0955 151.071Z" fill="#263238"/>
<path d="M40.665 141.741C40.665 141.741 42.8224 144.252 48.3865 144.789" stroke="#263238" stroke-width="2" stroke-miterlimit="10" stroke-linecap="round"/>
<path d="M59.6995 141.741C59.6995 141.741 57.5422 144.252 51.978 144.789" stroke="#263238" stroke-width="2" stroke-miterlimit="10" stroke-linecap="round"/>
<path d="M44.7386 144.509C44.7386 145.069 44.4024 145.495 43.9989 145.495C43.7845 145.434 43.5958 145.305 43.4614 145.127C43.3271 144.949 43.2544 144.732 43.2544 144.509C43.2544 144.286 43.3271 144.069 43.4614 143.891C43.5958 143.713 43.7845 143.584 43.9989 143.523C44.4024 143.523 44.7386 143.949 44.7386 144.509Z" fill="#263238"/>
<path d="M57.1727 144.509C57.1727 145.069 56.8421 145.495 56.433 145.495C56.024 145.495 55.6934 145.053 55.6934 144.509C55.6934 143.966 56.024 143.523 56.433 143.523C56.8421 143.523 57.1727 143.949 57.1727 144.509Z" fill="#263238"/>
<path d="M16.8672 212.501C21.2121 212.501 24.7344 208.979 24.7344 204.634C24.7344 200.289 21.2121 196.767 16.8672 196.767C12.5223 196.767 9 200.289 9 204.634C9 208.979 12.5223 212.501 16.8672 212.501Z" stroke="#263238" stroke-miterlimit="10" stroke-linecap="round"/>
<path d="M16.8055 208.993C18.5726 208.993 20.0051 208.75 20.0051 208.45C20.0051 208.15 18.5726 207.906 16.8055 207.906C15.0384 207.906 13.606 208.15 13.606 208.45C13.606 208.75 15.0384 208.993 16.8055 208.993Z" fill="#263238"/>
<path d="M11.1123 203.345C11.1123 203.345 12.4123 204.864 15.7743 205.188" stroke="#263238" stroke-width="2" stroke-miterlimit="10" stroke-linecap="round"/>
<path d="M22.6108 203.345C22.6108 203.345 21.3108 204.869 17.9487 205.194" stroke="#263238" stroke-width="2" stroke-miterlimit="10" stroke-linecap="round"/>
<path d="M13.1241 205.62C13.3716 205.62 13.5723 205.354 13.5723 205.026C13.5723 204.698 13.3716 204.432 13.1241 204.432C12.8765 204.432 12.6758 204.698 12.6758 205.026C12.6758 205.354 12.8765 205.62 13.1241 205.62Z" fill="#263238"/>
<path d="M20.6382 205.62C20.8858 205.62 21.0865 205.354 21.0865 205.026C21.0865 204.698 20.8858 204.432 20.6382 204.432C20.3906 204.432 20.1899 204.698 20.1899 205.026C20.1899 205.354 20.3906 205.62 20.6382 205.62Z" fill="#263238"/>
<path d="M160.427 186.198C164.772 186.198 168.294 182.676 168.294 178.331C168.294 173.986 164.772 170.464 160.427 170.464C156.082 170.464 152.56 173.986 152.56 178.331C152.56 182.676 156.082 186.198 160.427 186.198Z" stroke="#263238" stroke-miterlimit="10" stroke-linecap="round"/>
<path d="M160.365 182.696C162.132 182.696 163.565 182.453 163.565 182.153C163.565 181.853 162.132 181.609 160.365 181.609C158.598 181.609 157.166 181.853 157.166 182.153C157.166 182.453 158.598 182.696 160.365 182.696Z" fill="#263238"/>
<path d="M154.672 177.054C154.672 177.054 155.972 178.572 159.334 178.897" stroke="#263238" stroke-width="2" stroke-miterlimit="10" stroke-linecap="round"/>
<path d="M166.17 177.054C166.17 177.054 164.87 178.572 161.508 178.897" stroke="#263238" stroke-width="2" stroke-miterlimit="10" stroke-linecap="round"/>
<path d="M157.132 178.724C157.132 179.054 156.93 179.323 156.684 179.323C156.437 179.323 156.235 179.054 156.235 178.724C156.235 178.393 156.437 178.13 156.684 178.13C156.93 178.13 157.132 178.399 157.132 178.724Z" fill="#263238"/>
<path d="M164.646 178.724C164.646 179.054 164.444 179.323 164.198 179.323C163.951 179.323 163.75 179.054 163.75 178.724C163.75 178.393 163.951 178.13 164.198 178.13C164.444 178.13 164.646 178.399 164.646 178.724Z" fill="#263238"/>
<path d="M208.286 69.5635C212.631 69.5635 216.153 66.0412 216.153 61.6963C216.153 57.3514 212.631 53.8291 208.286 53.8291C203.941 53.8291 200.418 57.3514 200.418 61.6963C200.418 66.0412 203.941 69.5635 208.286 69.5635Z" stroke="#263238" stroke-miterlimit="10" stroke-linecap="round"/>
<path d="M208.229 66.0558C209.996 66.0558 211.429 65.8125 211.429 65.5123C211.429 65.2121 209.996 64.9688 208.229 64.9688C206.462 64.9688 205.03 65.2121 205.03 65.5123C205.03 65.8125 206.462 66.0558 208.229 66.0558Z" fill="#263238"/>
<path d="M202.531 60.4131C202.531 60.4131 203.831 61.9316 207.198 62.2566" stroke="#263238" stroke-width="2" stroke-miterlimit="10" stroke-linecap="round"/>
<path d="M214.035 60.4131C214.035 60.4131 212.729 61.9316 209.367 62.2566" stroke="#263238" stroke-width="2" stroke-miterlimit="10" stroke-linecap="round"/>
<path d="M204.991 62.0886C204.991 62.4136 204.789 62.6825 204.543 62.6825C204.296 62.6825 204.094 62.4136 204.094 62.0886C204.094 61.7636 204.296 61.489 204.543 61.489C204.789 61.489 204.991 61.758 204.991 62.0886Z" fill="#263238"/>
<path d="M212.505 62.0886C212.505 62.4136 212.303 62.6825 212.056 62.6825C211.81 62.6825 211.614 62.4136 211.614 62.0886C211.614 61.7636 211.81 61.489 212.056 61.489C212.303 61.489 212.505 61.758 212.505 62.0886Z" fill="#263238"/>
<path d="M27.0317 43.3172C31.3767 43.3172 34.8989 39.7949 34.8989 35.45C34.8989 31.105 31.3767 27.5828 27.0317 27.5828C22.6868 27.5828 19.1646 31.105 19.1646 35.45C19.1646 39.7949 22.6868 43.3172 27.0317 43.3172Z" stroke="#263238" stroke-miterlimit="10" stroke-linecap="round"/>
<path d="M26.9701 39.8092C28.7371 39.8092 30.1696 39.5659 30.1696 39.2657C30.1696 38.9655 28.7371 38.7222 26.9701 38.7222C25.203 38.7222 23.7705 38.9655 23.7705 39.2657C23.7705 39.5659 25.203 39.8092 26.9701 39.8092Z" fill="#263238"/>
<path d="M21.2769 34.1667C21.2769 34.1667 22.5768 35.6853 25.9445 36.0103" stroke="#263238" stroke-width="2" stroke-miterlimit="10" stroke-linecap="round"/>
<path d="M32.7753 34.1667C32.7753 34.1667 31.4753 35.6853 28.1133 36.0103" stroke="#263238" stroke-width="2" stroke-miterlimit="10" stroke-linecap="round"/>
<path d="M23.2886 36.4304C23.5362 36.4304 23.7369 36.1644 23.7369 35.8364C23.7369 35.5084 23.5362 35.2424 23.2886 35.2424C23.041 35.2424 22.8403 35.5084 22.8403 35.8364C22.8403 36.1644 23.041 36.4304 23.2886 36.4304Z" fill="#263238"/>
<path d="M30.8028 36.4304C31.0503 36.4304 31.251 36.1644 31.251 35.8364C31.251 35.5084 31.0503 35.2424 30.8028 35.2424C30.5552 35.2424 30.3545 35.5084 30.3545 35.8364C30.3545 36.1644 30.5552 36.4304 30.8028 36.4304Z" fill="#263238"/>
<path d="M180.638 30.9671C185.324 30.9671 189.122 27.1689 189.122 22.4836C189.122 17.7982 185.324 14 180.638 14C175.953 14 172.155 17.7982 172.155 22.4836C172.155 27.1689 175.953 30.9671 180.638 30.9671Z" stroke="#263238" stroke-miterlimit="10" stroke-linecap="round"/>
<path d="M184.028 26.6021C184.028 26.9271 182.482 27.1624 180.577 27.1624C178.672 27.1624 177.125 26.9047 177.125 26.6021C177.125 26.2995 178.666 26.0417 180.577 26.0417C182.487 26.0417 184.028 26.2771 184.028 26.6021Z" fill="#263238"/>
<path d="M174.43 21.1052C174.43 21.1052 175.836 22.7414 179.473 23.0944" stroke="#263238" stroke-width="2" stroke-miterlimit="10" stroke-linecap="round"/>
<path d="M186.836 21.1052C186.836 21.1052 185.429 22.7414 181.792 23.0944" stroke="#263238" stroke-width="2" stroke-miterlimit="10" stroke-linecap="round"/>
<path d="M177.086 22.9151C177.086 23.2682 176.867 23.5595 176.598 23.5595C176.329 23.5595 176.116 23.2682 176.116 22.9151C176.116 22.5621 176.335 22.2708 176.598 22.2708C176.861 22.2708 177.086 22.5509 177.086 22.9151Z" fill="#263238"/>
<path d="M185.188 22.9151C185.188 23.2682 184.97 23.5595 184.707 23.5595C184.443 23.5595 184.225 23.2682 184.225 22.9151C184.225 22.5621 184.438 22.2708 184.707 22.2708C184.975 22.2708 185.188 22.5509 185.188 22.9151Z" fill="#263238"/>
</svg>
