<svg width="183" height="169" viewBox="0 0 183 169" fill="none" xmlns="http://www.w3.org/2000/svg">
<path d="M91.2347 168.317C141.564 168.317 182.363 165.935 182.363 162.997C182.363 160.059 141.564 157.677 91.2347 157.677C40.906 157.677 0.106445 160.059 0.106445 162.997C0.106445 165.935 40.906 168.317 91.2347 168.317Z" fill="#F5F5F5"/>
<path d="M146.695 17.2076C151.237 17.2076 154.92 13.5251 154.92 8.98257C154.92 4.44003 151.237 0.757568 146.695 0.757568C142.152 0.757568 138.47 4.44003 138.47 8.98257C138.47 13.5251 142.152 17.2076 146.695 17.2076Z" fill="#92E3A9"/>
<path opacity="0.8" d="M146.695 17.2076C151.237 17.2076 154.92 13.5251 154.92 8.98257C154.92 4.44003 151.237 0.757568 146.695 0.757568C142.152 0.757568 138.47 4.44003 138.47 8.98257C138.47 13.5251 142.152 17.2076 146.695 17.2076Z" fill="white"/>
<path d="M86.2904 70.5525C86.2904 70.6324 86.2904 70.717 86.2904 70.7922C86.1864 72.9176 85.578 74.9877 84.5155 76.8314C83.4531 78.6752 81.9671 80.2396 80.1804 81.3954C79.2736 83.0737 78.0041 84.5288 76.4642 85.6548C74.9244 86.7809 73.1529 87.5495 71.2786 87.9049C69.4793 88.2362 67.6275 88.1437 65.8702 87.6346C64.1129 87.1255 62.4984 86.2139 61.1548 84.9721C59.5091 86.11 57.5565 86.7209 55.5557 86.7238C53.5549 86.7267 51.6005 86.1215 49.9516 84.9883C48.3026 83.8552 47.0369 82.2477 46.3224 80.3789C45.6078 78.5101 45.478 76.4682 45.9503 74.524C46.0611 74.0721 46.2008 73.6278 46.3686 73.1939C47.6705 69.8334 50.6879 66.816 54.1753 66.3836C53.6643 65.3193 53.4207 64.1464 53.4656 62.9667C53.496 61.9495 53.7309 60.9489 54.1565 60.0245C54.3967 59.4998 54.7014 59.0072 55.0636 58.5581C55.9485 57.4965 57.1089 56.6993 58.4173 56.254C59.7257 55.8088 61.1314 55.7327 62.4802 56.0342C64.802 55.0942 67.9557 54.6712 70.2164 55.724C72.4771 56.7768 73.9764 58.8589 74.7848 61.2277C77.4074 59.6391 81.0311 60.2877 83.2777 62.4027C85.5243 64.5177 86.4502 67.5633 86.2904 70.5525Z" fill="#92E3A9"/>
<g opacity="0.2">
<path opacity="0.2" d="M86.2906 70.5525C85.3654 73.4992 83.4231 76.0212 80.8104 77.6683C79.9041 79.3466 78.6347 80.8014 77.0947 81.9267C75.5546 83.0521 73.7829 83.8195 71.9086 84.1731C70.1093 84.5063 68.257 84.4147 66.4994 83.9055C64.7418 83.3963 63.1273 82.4837 61.7848 81.2403C60.3112 82.2657 58.5851 82.8684 56.7935 82.9834C55.0019 83.0983 53.213 82.721 51.6205 81.8923C50.0279 81.0635 48.6924 79.815 47.7584 78.2818C46.8244 76.7486 46.3276 74.9891 46.3218 73.1939C47.6237 69.8334 50.6411 66.816 54.1285 66.3836C53.6175 65.3193 53.3739 64.1464 53.4188 62.9667C53.8682 62.8185 54.331 62.7146 54.8006 62.6565C54.4031 61.8317 54.1685 60.9381 54.1097 60.0245C54.3498 59.4998 54.6546 59.0072 55.0168 58.5581C55.9057 57.4883 57.074 56.686 58.3916 56.2404C59.7092 55.7949 61.1246 55.7235 62.4804 56.0342C64.8022 55.0942 67.9559 54.6712 70.2166 55.724C72.4773 56.7768 73.9766 58.8589 74.785 61.2277C77.4076 59.6391 81.0313 60.2877 83.2779 62.4027C85.5245 64.5177 86.4504 67.5633 86.2906 70.5525Z" fill="black"/>
</g>
<path d="M152.222 65.5564C144.852 74.0164 131.613 75.1068 119.049 69.4339C118.714 69.2817 118.343 69.2269 117.978 69.2759C117.613 69.325 117.269 69.4758 116.986 69.7112C114.542 71.8967 110.951 72.3808 107.281 71.2669C106.844 71.116 106.366 71.1341 105.941 71.3176C105.517 71.5011 105.177 71.8368 104.987 72.2586C104.662 73.16 104.185 73.9992 103.577 74.7402C100.132 78.9467 93.3593 78.7117 87.7616 74.4676C87.416 74.2131 86.997 74.0778 86.5678 74.0822C86.2878 74.0766 86.0101 74.1326 85.7542 74.2463C85.4984 74.36 85.2707 74.5286 85.0873 74.7402C81.7973 78.7493 75.4946 78.7211 70.0473 75.0316C69.7075 74.8094 69.3092 74.6935 68.9032 74.6985C68.4973 74.7035 68.102 74.8293 67.7678 75.0598C60.2196 80.4084 47.7364 78.4438 38.1202 69.8898C34.5108 66.7251 31.6254 62.8202 29.6602 58.4406C26.3702 50.9676 26.6898 43.1515 31.2065 37.9674C32.8153 36.1341 34.8531 34.7277 37.1379 33.8737C37.7732 33.6586 38.3233 33.2463 38.708 32.6968C39.0926 32.1473 39.2918 31.4893 39.2764 30.8187C39.0649 26.4101 40.254 22.3023 42.9894 19.158C44.1174 17.8738 45.4655 16.801 46.9703 15.9902C49.1151 14.8241 50.8838 13.0717 52.0698 10.9377C52.7588 9.66597 53.5863 8.47433 54.5373 7.38452C63.1665 -2.52308 83.9593 -1.27288 96.7903 9.22221C98.0692 10.2223 99.5825 10.8789 101.187 11.1298C102.791 11.3807 104.432 11.2175 105.955 10.6557C116.554 6.82052 131.016 10.3408 142.545 20.6103C151.254 28.3747 156.4 38.3058 157.34 47.499C158.031 54.3234 156.414 60.7389 152.222 65.5564Z" fill="#92E3A9"/>
<path opacity="0.3" d="M152.222 65.5564C144.853 74.0164 131.613 75.1068 119.05 69.4339C118.714 69.2817 118.343 69.2269 117.978 69.276C117.613 69.325 117.27 69.4758 116.986 69.7112C114.542 71.8967 110.952 72.3808 107.281 71.2669C106.844 71.116 106.366 71.1341 105.942 71.3176C105.517 71.5011 105.177 71.8368 104.987 72.2586C104.662 73.16 104.185 73.9992 103.577 74.7402C100.132 78.9467 93.3595 78.7117 87.7618 74.4676C87.4162 74.2131 86.9972 74.0778 86.568 74.0822C86.2881 74.0766 86.0103 74.1326 85.7545 74.2463C85.4986 74.36 85.2709 74.5286 85.0875 74.7402C81.7975 78.7493 75.4948 78.7211 70.0475 75.0316C69.7077 74.8095 69.3094 74.6935 68.9035 74.6985C68.4975 74.7035 68.1022 74.8293 67.768 75.0598C60.2198 80.4084 47.7366 78.4438 38.1204 69.8898C34.511 66.7251 31.6256 62.8202 29.6604 58.4406C29.4771 54.079 30.6662 50.0135 33.3828 46.8974C34.9893 45.0647 37.0258 43.6596 39.3095 42.8084C39.9449 42.5933 40.4949 42.181 40.8796 41.6315C41.2643 41.082 41.4634 40.424 41.448 39.7534C41.2365 35.3495 42.4209 31.2417 45.161 28.0974C46.2732 26.8207 47.6017 25.7499 49.0855 24.9343C51.2273 23.7695 52.9929 22.0185 54.1756 19.8865C54.8679 18.6142 55.6968 17.4212 56.6478 16.3286C65.277 6.42571 86.0698 7.66651 98.9055 18.171C100.187 19.1651 101.7 19.8163 103.303 20.063C104.906 20.3097 106.545 20.1438 108.066 19.581C118.664 15.7505 133.126 19.2661 144.651 29.5403C150.234 34.4286 154.564 40.5836 157.28 47.4896C158.032 54.3234 156.415 60.7389 152.222 65.5564Z" fill="black"/>
<path d="M148.424 59.5873C147.646 60.1872 146.712 60.5527 145.733 60.6409C144.754 60.7292 143.771 60.5365 142.897 60.0855C143.4 62.1347 142.808 64.6398 141.276 65.6691C139.743 66.6984 137.516 66.4728 135.974 65.1286C133.408 68.2024 124.929 71.6428 117.724 68.8886H117.7C114.613 67.7042 111.769 65.3777 109.71 61.4015C108.3 58.6567 108.85 55.2633 110.411 52.9415C111.971 50.6197 114.401 49.2708 116.892 48.2838C118.044 43.4099 122.532 39.7345 127.162 39.1329L127.608 39.0859C132.388 38.6629 137.577 41.6051 140.35 46.291C144.716 45.2429 145.764 49.4259 145.745 49.7126C147.696 49.9946 149.505 51.8041 150.041 53.9426C150.577 56.0811 149.9 58.3559 148.424 59.5873Z" fill="#92E3A9"/>
<g opacity="0.1">
<path opacity="0.1" d="M145.463 58.3373C144.786 58.928 143.94 59.2911 143.046 59.3754C142.151 59.4597 141.252 59.261 140.477 58.8073C140.947 60.8565 140.655 63.5778 139.269 64.6071C137.882 65.6364 135.88 65.4108 134.484 64.0666C132.247 67.0417 124.445 70.8252 117.724 68.8653H117.7C114.613 67.6809 111.769 65.3544 109.71 61.3782C108.3 58.6334 108.85 55.24 110.411 52.9182C111.971 50.5964 114.401 49.2475 116.892 48.2605C118.044 43.3866 122.532 39.7112 127.162 39.1096C131.039 39.6924 135.015 43.8096 137.234 47.955C141.149 46.9116 142.112 51.0523 142.103 51.3719C148.114 51.4988 146.812 57.1012 145.463 58.3373Z" fill="black"/>
</g>
<path d="M76.0772 91.3734L85.0636 99.7207C84.3445 111.499 83.6536 143.078 83.6536 143.078L80.4576 162.043L108.625 162.301C108.625 162.301 107.346 146.288 107.346 145.419C107.346 144.549 101.904 113.868 101.904 113.868L98.8064 84.079L113.325 79.6516L115.98 71.9954L126.654 65.9512L131.871 57.9612L129.855 57.4912L124.097 64.8889L117.371 66.3506L120.253 59.5356H117.052L109.062 75.323L98.75 77.438L99.7417 55.174C91.4979 59.028 88.8612 52.6125 88.8612 52.6125C88.8612 52.6125 87.0799 90.6825 85.8814 94.09C82.4031 92.3359 79.4649 89.6722 77.3791 86.3821L74.7988 82.3118H72.2373L76.0772 91.3734Z" fill="#92E3A9"/>
<path opacity="0.2" d="M131.885 57.9001L126.663 65.8901L115.99 71.9296L113.339 79.6235L98.8158 84.0509L101.908 113.844C101.908 113.844 107.356 144.521 107.356 145.386C107.356 146.251 108.634 162.273 108.634 162.273L80.467 162.01L83.663 143.05C83.663 143.05 84.3445 111.471 85.073 99.6925L76.0772 91.3265L72.2373 82.2273H74.7941L77.3744 86.2975C79.4588 89.59 82.3973 92.2555 85.8767 94.0102C87.0752 90.6074 88.8565 52.5327 88.8565 52.5327C89.367 53.6122 90.1615 54.5325 91.1551 55.1948C92.1486 55.8572 93.3037 56.2367 94.4965 56.2927C96.3043 56.3251 98.0924 55.9136 99.7041 55.0942L99.7511 55.0707L98.8111 76.4134L98.7688 77.3299L109.081 75.2196L117.071 59.4323H120.276L117.395 66.2473L124.116 64.7856L129.878 57.3878L131.885 57.9001Z" fill="black"/>
<path d="M101.354 76.8694L99.1402 77.4146C98.4462 77.5874 97.7213 77.5942 97.0242 77.4344C96.3272 77.2746 95.6776 76.9527 95.1282 76.4949C94.5788 76.0371 94.1451 75.4562 93.8622 74.7994C93.5794 74.1426 93.4553 73.4283 93.5002 72.7146L94.4872 56.3069C96.2949 56.3393 98.083 55.9278 99.6948 55.1084L98.7877 76.4276L98.7454 77.3441V77.3958L101.354 76.8694Z" fill="#92E3A9"/>
<path d="M114.909 70.7733L111.045 78.2651L95.7889 82.387C95.0283 82.5908 94.358 83.0438 93.8851 83.6734C93.4122 84.303 93.1641 85.0731 93.1804 85.8603L93.5846 107.443C93.5846 107.443 96.8746 94.2451 96.8746 94.842C96.8746 95.4389 98.1201 116.283 98.1201 116.283L94.6703 148.088L100.888 126.346L98.0684 162.212L108.629 162.311C108.629 162.311 107.351 146.298 107.351 145.428C107.351 144.559 101.908 113.877 101.908 113.877L99.14 86.9789C99.0498 86.1611 99.2486 85.3375 99.7018 84.6508C100.155 83.9641 100.834 83.4575 101.622 83.2189L113.372 79.6375L116.027 71.9812L126.701 65.937L131.918 57.947L130.677 57.6462C128.501 60.9362 125.446 65.8477 125.446 65.8477L114.909 70.7733Z" fill="#92E3A9"/>
<path d="M144.66 159.768H42.3408L30.1631 165.069H156.838L144.66 159.768Z" fill="#92E3A9"/>
<path opacity="0.7" d="M144.66 159.768H42.3408L30.1631 165.069H156.838L144.66 159.768Z" fill="white"/>
</svg>
