<svg width="782" height="1179" viewBox="0 0 782 1179" fill="none" xmlns="http://www.w3.org/2000/svg">
<g opacity="0.5" clip-path="url(#clip0)">
<path d="M153.132 279.265C192.418 279.265 224.265 247.418 224.265 208.132C224.265 168.847 192.418 137 153.132 137C113.847 137 82 168.847 82 208.132C82 247.418 113.847 279.265 153.132 279.265Z" fill="#EBEBEB"/>
<path d="M609.187 393.375C624.202 393.375 636.375 381.202 636.375 366.187C636.375 351.172 624.202 339 609.187 339C594.172 339 582 351.172 582 366.187C582 381.202 594.172 393.375 609.187 393.375Z" fill="#E0E0E0"/>
<path d="M818.642 1145.77C816.111 1138.35 813.579 1130.8 807.428 1124.48C799.277 1115.95 785.987 1110.55 772.596 1106.35C759.205 1102.15 745.155 1098.76 733.081 1092.99C746.548 1108.48 777.152 1112.6 792.746 1127.08C800.492 1134.3 803.732 1143.34 806.77 1152.12C813.377 1171.26 817.452 1187.81 824.084 1206.92H832.97C829.991 1186.16 825.196 1165.69 818.642 1145.77Z" fill="#E0E0E0"/>
<path d="M107.242 689.43L157.313 1040.43L376.507 1009.15L326.512 658.142L107.242 689.43ZM288.693 842.605L199.714 855.262L189.589 783.877C188.751 778.036 189.074 772.087 190.537 766.37C192 760.654 194.575 755.281 198.116 750.561C201.656 745.84 206.092 741.863 211.171 738.858C216.249 735.853 221.87 733.878 227.712 733.046V733.046C233.553 732.209 239.502 732.531 245.218 733.994C250.935 735.457 256.307 738.033 261.028 741.573C265.748 745.114 269.725 749.55 272.73 754.628C275.735 759.706 277.71 765.327 278.542 771.169L288.693 842.605Z" fill="#95D9DA"/>
<path d="M333.474 573.821L338.764 611.007L298.059 616.804L292.743 579.643L261.05 584.149L266.341 621.335L225.636 627.132L220.32 589.971L188.601 594.502L193.917 631.663L153.212 637.486L147.897 600.299L116.178 604.831L121.494 641.992L80.789 647.814L75.4731 610.653L55.2979 613.513L70.1825 717.706L362.635 675.963L347.776 571.771L333.474 573.821Z" fill="#95D9DA"/>
<path d="M355.877 633.866C355.877 634.22 290.389 643.991 209.511 655.408C128.633 666.825 62.9935 676.014 62.9429 675.659C62.8923 675.305 128.43 665.66 209.435 654.092C290.44 642.523 355.826 633.537 355.877 633.866Z" fill="#455A64"/>
<path d="M360.458 676.267C360.458 676.646 295.604 686.19 215.535 697.632C135.467 709.073 70.4608 718.035 70.4102 717.655C70.3596 717.275 135.239 707.757 215.333 696.315C295.426 684.873 360.408 675.912 360.458 676.267Z" fill="#455A64"/>
<path d="M107.267 669.837C105.255 661.874 104.092 653.719 103.799 645.51C105.025 649.439 105.832 653.486 106.204 657.585C106.999 661.619 107.355 665.727 107.267 669.837V669.837Z" fill="#455A64"/>
<path d="M158.224 705.125C156.574 698.202 155.348 691.186 154.554 684.114C153.331 677.107 152.545 670.031 152.2 662.926C153.85 669.849 155.076 676.865 155.87 683.937C157.078 690.946 157.864 698.021 158.224 705.125V705.125Z" fill="#455A64"/>
<path d="M276.163 688.316C274.499 681.388 273.273 674.362 272.492 667.28C271.275 660.308 270.506 653.265 270.188 646.194C271.834 653.116 273.052 660.133 273.834 667.204C275.035 674.188 275.813 681.239 276.163 688.316V688.316Z" fill="#455A64"/>
<path d="M301.679 642.093C300.343 637.532 299.453 632.853 299.021 628.12C298.135 623.446 297.677 618.701 297.654 613.944C298.961 618.512 299.851 623.189 300.312 627.917C301.199 632.591 301.656 637.336 301.679 642.093V642.093Z" fill="#455A64"/>
<path d="M197.36 657.61C196.084 653.49 195.235 649.248 194.829 644.953C193.989 640.72 193.599 636.409 193.664 632.094C194.937 636.215 195.785 640.457 196.196 644.751C197.013 648.988 197.403 653.296 197.36 657.61V657.61Z" fill="#455A64"/>
<path d="M335.018 717.756C335.018 718.136 286.01 725.35 225.484 734.058C164.958 742.766 115.773 749.424 115.773 749.07C115.773 748.715 164.756 741.475 225.307 732.767C285.858 724.059 334.967 717.402 335.018 717.756Z" fill="#455A64"/>
<path d="M189.791 783.016C189.791 783.37 174.957 785.8 156.554 788.433C138.15 791.066 123.165 792.888 123.114 792.534C123.063 792.179 137.948 789.749 156.351 787.117C174.755 784.484 189.74 782.661 189.791 783.016Z" fill="#455A64"/>
<path d="M339.144 762.258C339.144 762.613 326.082 764.79 309.856 767.093C293.63 769.397 280.441 770.992 280.39 770.637C280.34 770.283 293.452 768.106 309.679 765.777C325.905 763.448 339.094 761.879 339.144 762.258Z" fill="#455A64"/>
<path d="M196.221 828.024C196.221 828.378 181.26 830.809 162.705 833.467C144.15 836.125 129.038 837.972 128.987 837.618C128.936 837.264 143.948 834.808 162.528 832.15C181.109 829.492 196.17 827.644 196.221 828.024Z" fill="#455A64"/>
<path d="M346.536 804.406C346.536 804.761 333.069 806.938 316.311 809.469C299.553 812 285.934 813.494 285.934 813.14C285.934 812.785 299.401 810.608 316.159 808.077C332.917 805.545 346.485 804.052 346.536 804.406Z" fill="#455A64"/>
<path d="M353.877 846.554C353.877 846.934 304.793 854.148 244.14 862.882C183.488 871.615 134.252 878.272 134.202 877.918C134.151 877.564 183.286 870.324 243.963 861.591C304.641 852.857 353.725 846.174 353.877 846.554Z" fill="#455A64"/>
<path d="M359.623 886.804C359.623 887.158 310.539 894.398 249.887 903.131C189.234 911.864 139.998 918.497 139.948 918.142C139.897 917.788 189.032 910.548 249.709 901.815C310.387 893.081 359.572 886.424 359.623 886.804Z" fill="#455A64"/>
<path d="M365.673 929.154C365.673 929.508 316.589 936.748 255.937 945.481C195.284 954.215 146.049 960.847 145.998 960.492C145.947 960.138 195.057 952.898 255.734 944.165C316.412 935.432 365.622 928.774 365.673 929.154Z" fill="#455A64"/>
<path d="M371.698 971.479C371.698 971.859 322.614 979.073 261.962 987.806C201.309 996.54 152.074 1003.2 152.023 1002.84C151.972 1002.49 201.107 995.249 261.785 986.515C322.462 977.782 371.647 971.124 371.698 971.479Z" fill="#455A64"/>
<path d="M228.952 733.172C227.417 727.046 226.309 720.821 225.636 714.541C224.535 708.342 223.859 702.075 223.611 695.784C225.147 701.893 226.255 708.101 226.927 714.364C228.028 720.58 228.705 726.864 228.952 733.172V733.172Z" fill="#455A64"/>
<path d="M177.438 871.742C175.867 865.369 174.717 858.9 173.996 852.376C172.864 845.907 172.154 839.37 171.869 832.809C173.458 839.177 174.608 845.648 175.312 852.174C176.458 858.641 177.168 865.179 177.438 871.742V871.742Z" fill="#455A64"/>
<path d="M188.956 952.493C187.385 946.114 186.243 939.635 185.538 933.103C184.377 926.637 183.667 920.099 183.412 913.535C184.983 919.915 186.125 926.393 186.83 932.926C187.977 939.393 188.687 945.931 188.956 952.493V952.493Z" fill="#455A64"/>
<path d="M200.752 1035.19C199.194 1028.82 198.053 1022.35 197.335 1015.83C196.189 1009.36 195.479 1002.82 195.208 996.261C196.778 1002.63 197.92 1009.1 198.626 1015.63C199.787 1022.09 200.498 1028.63 200.752 1035.19V1035.19Z" fill="#455A64"/>
<path d="M165.287 786.509C163.568 779.261 162.292 771.915 161.465 764.511C160.189 757.167 159.344 749.754 158.934 742.311C160.653 749.559 161.929 756.906 162.756 764.309C164.032 771.653 164.877 779.066 165.287 786.509V786.509Z" fill="#455A64"/>
<path d="M311.02 765.727C309.319 758.467 308.051 751.113 307.223 743.703C305.93 736.361 305.085 728.947 304.691 721.503C306.381 728.765 307.648 736.118 308.489 743.526C309.766 750.87 310.611 758.283 311.02 765.727Z" fill="#455A64"/>
<path d="M323.095 850.402C321.557 843.524 320.442 836.558 319.754 829.543C318.623 822.582 317.938 815.556 317.703 808.507C319.236 815.395 320.352 822.369 321.045 829.391C322.176 836.344 322.861 843.362 323.095 850.402V850.402Z" fill="#455A64"/>
<path d="M334.638 933.305C333.106 926.426 331.99 919.46 331.297 912.447C330.166 905.485 329.481 898.459 329.246 891.411C330.784 898.289 331.899 905.255 332.588 912.269C333.718 919.231 334.403 926.257 334.638 933.305V933.305Z" fill="#455A64"/>
<path d="M346.459 1013.45C344.006 1001.51 342.441 989.399 341.776 977.225C344.197 989.173 345.762 1001.28 346.459 1013.45Z" fill="#455A64"/>
<path d="M257.532 901.359C256.001 894.773 254.91 888.092 254.266 881.361C253.179 874.66 252.536 867.895 252.342 861.11C253.838 867.71 254.92 874.398 255.582 881.133C256.67 887.826 257.321 894.582 257.532 901.359V901.359Z" fill="#455A64"/>
<path d="M270.188 987.654C268.673 981.058 267.59 974.369 266.948 967.631C265.859 960.93 265.208 954.165 264.999 947.38C266.515 953.976 267.597 960.665 268.239 967.403C269.328 974.104 269.979 980.869 270.188 987.654Z" fill="#455A64"/>
<path d="M727.638 999.4C727.638 999.4 683.921 1046.76 658.556 1066.63C568.538 1137.07 455.029 1170.48 341.207 1160.06C227.384 1149.63 121.834 1096.15 46.1089 1010.54C46.1089 1010.54 77.2451 981.706 105.901 990.945C134.556 1000.18 278.669 1029.04 328.107 1009.83C377.545 990.616 445.767 959.202 519.456 963.328C593.145 967.454 643.748 1027.3 727.638 999.4Z" fill="#FAFF7F"/>
<path d="M330.385 1047.37C339.763 1062.71 354.545 1073.98 371.819 1078.97C389.094 1083.95 407.609 1082.29 423.718 1074.3C433.641 1069.37 442.577 1062.1 453.361 1059.55C472.473 1055.04 494.369 1066.08 511.38 1056.26C515.583 1053.72 519.38 1049.34 518.392 1044.59C517.228 1039.07 510.672 1036.79 505.077 1036.03C473.511 1031.68 441.792 1043.95 409.922 1042.13C396.531 1041.37 383.393 1038.13 370.027 1037.24C356.661 1036.36 342.435 1038.13 331.752 1046.21" fill="#95D9DA"/>
<path d="M148.276 818.076C160.933 828.201 172.249 835.998 174.552 850.655C175.413 856.123 175.312 861.844 177.413 866.957C180.501 874.374 187.969 879.741 189.437 887.639C191.184 896.929 183.944 906.346 186.323 915.484C188.171 922.699 195.512 927.432 197.715 934.545C200.778 944.367 193.234 954.265 192.652 964.517C192.196 971.934 195.411 978.997 197.082 986.237C198.753 993.476 199.259 1003.96 193.487 1008.64L170.426 1004.97C171.84 1003.13 172.753 1000.95 173.077 998.656C173.401 996.358 173.124 994.016 172.274 991.856C170.629 987.831 168.047 984.085 167.388 979.782C166.148 971.656 171.97 963.96 172.021 955.733C172.021 946.165 164.427 938.014 163.212 928.597C161.921 918.269 168.502 907.738 165.743 897.714C163.667 890.398 157.035 885.057 154.605 877.943C152.352 871.286 154.048 864.021 155.162 857.085C157.541 841.997 155.238 832.606 148.276 818.076Z" fill="#407BFF"/>
<path d="M207.334 1010.84C217.814 1006.36 225.914 992.439 223.914 981.199C222.623 974.112 218.421 966.593 221.813 960.214C224.345 955.708 229.787 953.557 232.141 949C236.673 940.267 226.775 930.192 228.268 920.471C229.635 911.586 239.812 906.599 242.773 898.119C244.596 892.904 243.457 887.209 243.659 881.715C243.862 876.222 246.191 869.894 251.658 868.603C247.456 865.717 241.381 867.286 237.635 870.78C234.153 874.556 231.559 879.062 230.04 883.968C228.543 888.876 225.945 893.378 222.446 897.132C216.953 902.194 208.042 903.789 205.005 910.599C200.701 920.243 211.89 932.116 206.777 941.33C203.638 946.975 195.79 948.443 192.221 953.81C186.475 962.416 194.98 974.441 191.512 984.186C190.12 988.085 187.006 991.072 184.728 994.54C182.45 998.008 180.931 1003.63 183.311 1006.99" fill="#407BFF"/>
<path d="M88.535 910.472C88.4085 915.535 92.484 919.94 97.1165 922.066C101.897 923.817 106.854 925.039 111.9 925.711C116.997 926.403 121.676 928.9 125.088 932.749C128.556 937.432 128.683 944.241 132.961 948.165C138.859 953.582 149.744 950.899 154.756 957.126C159.769 963.353 155.769 973.352 161.439 978.415C163.848 980.014 166.451 981.298 169.186 982.237C176.299 985.857 179.59 999.223 175.59 1006.11L151.845 1002.03C146.352 1000.36 143.745 996.008 142.353 990.414C140.96 984.819 139.821 978.618 135.417 974.972C131.012 971.327 123.443 971.352 118.684 967.378C110.837 960.923 113.621 946.95 106.027 940.267C102.179 936.9 96.6355 936.343 92.3068 933.609C90.5184 932.355 88.9991 930.756 87.838 928.905C86.677 927.055 85.8978 924.991 85.5464 922.835C85.1949 920.679 85.2783 918.475 85.7916 916.352C86.3048 914.229 87.2376 912.229 88.535 910.472V910.472Z" fill="#407BFF"/>
<path d="M181.843 1005.98C181.26 1005.23 180.837 1004.37 180.602 1003.45C180.37 1002.2 180.437 1000.91 180.798 999.695C181.159 998.476 181.803 997.36 182.678 996.438C183.903 995.18 185.232 994.029 186.652 992.996C188.349 991.744 189.888 990.29 191.234 988.667C191.967 987.752 192.532 986.715 192.905 985.604C193.272 984.426 193.426 983.191 193.36 981.959C193.059 979.459 192.358 977.023 191.285 974.744C190.23 972.55 189.382 970.262 188.753 967.91C188.358 965.716 188.435 963.464 188.981 961.303C189.427 959.321 190.206 957.429 191.285 955.708C192.309 954.266 193.517 952.964 194.879 951.835C196.83 950.114 198.866 948.492 200.98 946.975C202.473 945.886 203.359 945.38 203.334 945.304C202.434 945.635 201.582 946.087 200.803 946.646C198.576 948.044 196.452 949.601 194.449 951.304C192.994 952.44 191.7 953.769 190.601 955.253C189.436 957.037 188.58 959.005 188.07 961.075C187.467 963.364 187.372 965.757 187.791 968.087C188.41 970.508 189.258 972.864 190.323 975.124C191.348 977.301 192.031 979.624 192.348 982.01C192.416 983.12 192.287 984.234 191.968 985.3C191.634 986.315 191.129 987.266 190.475 988.11C187.943 991.452 184.222 993.426 182.146 996.16C181.223 997.169 180.565 998.39 180.229 999.715C179.893 1001.04 179.891 1002.43 180.222 1003.75C180.41 1004.47 180.766 1005.13 181.26 1005.68C181.589 1005.86 181.817 1006.01 181.843 1005.98Z" fill="#95D9DA"/>
<path d="M244.216 868.957C243.718 869.204 243.25 869.51 242.824 869.868C241.572 870.886 240.546 872.153 239.812 873.589C238.686 875.859 237.934 878.295 237.584 880.804C237.078 883.715 237.052 887.082 236.572 890.727C236.299 894.683 234.744 898.443 232.142 901.435C230.494 902.885 228.588 904.01 226.522 904.751C224.224 905.536 222.069 906.69 220.143 908.168C218.168 909.917 216.906 912.333 216.599 914.953C216.27 917.603 216.45 920.293 217.13 922.876C217.839 925.51 218.735 928.091 219.814 930.597C220.9 933.119 221.747 935.738 222.345 938.419C222.987 941.055 222.873 943.818 222.016 946.393C221.015 948.822 219.402 950.95 217.333 952.569C215.358 954.265 213.181 955.733 211.207 957.404C209.156 958.965 207.5 960.985 206.372 963.302C205.395 965.573 205.046 968.065 205.359 970.517C205.636 972.758 206.041 974.981 206.574 977.174C207.062 979.186 207.375 981.235 207.511 983.3C207.661 987.151 206.988 990.989 205.539 994.559C204.09 998.13 201.897 1001.35 199.107 1004.01C197.529 1005.44 195.835 1006.75 194.044 1007.91C194.555 1007.7 195.046 1007.44 195.512 1007.15C196.877 1006.32 198.157 1005.36 199.335 1004.29C202.237 1001.62 204.536 998.372 206.078 994.748C207.619 991.124 208.367 987.212 208.27 983.275C208.135 981.161 207.831 979.062 207.359 976.997C206.858 974.835 206.478 972.646 206.22 970.441C205.916 968.142 206.248 965.804 207.182 963.682C208.276 961.508 209.852 959.612 211.789 958.138C213.738 956.518 215.915 955.05 217.966 953.329C220.205 951.61 221.951 949.331 223.028 946.722C223.958 943.989 224.09 941.047 223.408 938.241C222.32 932.571 219.383 927.736 218.194 922.648C217.529 920.175 217.34 917.598 217.637 915.054C217.917 912.664 219.06 910.458 220.851 908.852C224.421 905.789 229.585 905.308 232.825 901.992C234.339 900.445 235.467 898.563 236.116 896.499C236.746 894.644 237.17 892.725 237.382 890.778C237.837 887.082 237.787 883.74 238.242 880.855C238.54 878.392 239.223 875.991 240.267 873.741C241.201 871.866 242.552 870.229 244.216 868.957V868.957Z" fill="#95D9DA"/>
<path d="M157.237 836.276C158.854 837.969 160.088 839.989 160.857 842.2C161.711 844.809 162.171 847.53 162.224 850.275C162.351 853.49 161.996 857.135 161.946 861.236C161.661 865.752 162.615 870.26 164.705 874.273C167.11 878.551 171.236 881.867 173.97 886.373C175.319 888.707 176.18 891.29 176.501 893.967C176.823 896.791 176.865 899.64 176.628 902.473C176.299 908.244 175.337 914.446 176.982 920.648C178.628 926.85 182.83 931.584 184.931 936.95C186.028 939.518 186.396 942.338 185.994 945.101C185.355 947.755 184.358 950.31 183.032 952.696C181.732 955.051 180.874 957.625 180.501 960.29C180.31 962.793 180.498 965.31 181.058 967.757C181.566 969.996 181.955 972.261 182.222 974.542C182.441 976.618 182.295 978.717 181.792 980.743C180.763 984.231 179.424 987.62 177.792 990.869C176.569 993.362 175.634 995.986 175.008 998.691C174.697 1000.43 174.697 1002.22 175.008 1003.96L175.362 1005.27C175.362 1005.58 175.413 1005.73 175.514 1005.73C175.527 1005.57 175.527 1005.41 175.514 1005.25L175.261 1003.93C175.093 1002.24 175.196 1000.53 175.565 998.868C176.264 996.238 177.249 993.691 178.501 991.274C180.188 988.031 181.578 984.642 182.653 981.149C183.204 979.044 183.384 976.86 183.184 974.693C183.007 972.44 182.475 970.188 182.07 967.833C181.537 965.468 181.358 963.037 181.539 960.619C181.943 958.074 182.8 955.621 184.07 953.379C185.442 950.941 186.473 948.326 187.133 945.608C187.596 942.66 187.219 939.642 186.045 936.9C183.842 931.356 179.792 926.597 178.172 920.699C176.552 914.8 177.489 908.7 177.792 902.852C178.071 899.965 178.071 897.057 177.792 894.17C177.459 891.37 176.545 888.672 175.109 886.246C172.223 881.538 168.122 878.272 165.768 874.197C163.732 870.301 162.779 865.93 163.009 861.54C163.009 857.49 163.338 853.819 163.009 850.554C162.917 847.765 162.396 845.007 161.465 842.377C160.849 840.724 159.949 839.19 158.807 837.846C158.359 837.253 157.83 836.725 157.237 836.276Z" fill="#95D9DA"/>
<path d="M96.509 924.243C96.4475 924.628 96.4475 925.021 96.509 925.407C96.6999 926.531 97.1797 927.587 97.9013 928.47C99.0317 929.877 100.458 931.018 102.078 931.812C104.211 932.817 106.466 933.541 108.786 933.963C111.54 934.42 114.2 935.327 116.659 936.647C117.965 937.513 119.085 938.63 119.955 939.934C120.824 941.238 121.425 942.702 121.722 944.241C122.658 947.481 122.76 951.101 123.772 954.797C124.243 956.692 125.04 958.49 126.126 960.113C127.27 961.849 128.964 963.151 130.936 963.808C134.986 965.049 138.961 963.809 142.454 964.695C144.121 965.13 145.649 965.985 146.894 967.176C148.139 968.368 149.059 969.857 149.567 971.504C150.593 974.549 151.272 977.699 151.592 980.895C151.912 983.756 152.771 986.531 154.124 989.072C156.271 992.663 159.642 995.359 163.616 996.666C164.685 997.021 165.788 997.258 166.907 997.375C167.301 997.442 167.703 997.442 168.097 997.375C166.624 997.159 165.174 996.803 163.768 996.312C159.964 994.909 156.768 992.224 154.731 988.717C153.453 986.238 152.646 983.543 152.352 980.769C152.046 977.506 151.375 974.288 150.352 971.175C149.727 969.462 148.772 967.888 147.542 966.542C146.194 965.095 144.421 964.111 142.479 963.733C138.657 962.923 134.708 964.011 131.063 962.847C129.301 962.262 127.785 961.103 126.759 959.556C125.74 958.004 124.987 956.293 124.532 954.493C123.544 950.974 123.418 947.329 122.456 943.962C122.106 942.316 121.43 940.756 120.47 939.374C119.509 937.992 118.282 936.815 116.861 935.912C114.315 934.616 111.568 933.76 108.736 933.381C106.449 933.013 104.219 932.35 102.103 931.407C100.531 930.682 99.1258 929.639 97.9773 928.344C97.1143 927.141 96.6057 925.72 96.509 924.243V924.243Z" fill="#95D9DA"/>
<path d="M173.691 957.202C173.268 957.762 172.903 958.364 172.603 958.999C171.708 960.698 170.914 962.448 170.223 964.239C167.942 970.199 166.651 976.493 166.401 982.87C166.253 986.363 166.422 989.862 166.907 993.325C167.194 996.191 167.983 998.984 169.236 1001.58C170.087 1003.35 171.398 1004.86 173.033 1005.96C173.469 1006.26 173.947 1006.5 174.451 1006.67C174.78 1006.79 174.957 1006.82 174.982 1006.79C175.008 1006.77 174.299 1006.44 173.261 1005.65C171.795 1004.48 170.638 1002.97 169.894 1001.25C168.759 998.699 168.057 995.978 167.818 993.198C166.654 983.544 167.71 973.752 170.907 964.568C172.451 959.936 173.995 957.278 173.691 957.202Z" fill="#95D9DA"/>
<path d="M733.866 903.156C734.274 902.603 734.562 901.97 734.71 901.298C734.858 900.627 734.864 899.932 734.726 899.258C733.79 896.726 729.942 897.461 727.891 899.258C722.094 904.042 719.462 912.978 712.222 914.877C710.494 915.09 708.796 915.498 707.159 916.092C703.995 917.686 703.185 921.737 702.096 925.129C701.008 928.521 698.274 932.318 694.806 931.483C692.857 931.027 691.566 929.28 690.022 928.04C688.477 926.8 685.82 926.268 684.731 927.913C684.456 928.535 684.314 929.208 684.314 929.888C684.314 930.568 684.456 931.24 684.731 931.862C686.869 941.295 685.53 951.183 680.959 959.708C676.391 968.148 670.815 976.002 664.353 983.098C662.455 964.872 680.352 949.177 679.263 930.875C678.985 926.47 677.618 922.167 677.187 917.762C676.099 906.675 682.681 894.372 693.566 891.967C695.54 891.512 697.844 891.284 699.033 889.639C700.856 887.107 698.274 883.361 695.211 882.854C692.098 882.689 689.02 883.581 686.478 885.386C687.204 882.487 688.789 879.875 691.025 877.892C693.26 875.909 696.043 874.647 699.008 874.273C701.982 874.393 704.958 874.138 707.868 873.513C710.653 872.476 712.728 868.653 710.653 866.527C707.362 863.135 700.881 869.438 697.236 866.527C694.831 864.502 696.35 860.629 697.869 857.869C699.388 855.11 700.4 850.908 697.616 849.44C694.831 847.972 691.819 851.49 690.427 854.503C682.883 870.771 675.348 887.065 667.821 903.384C665.644 908.118 663.417 913.181 664.049 918.345C664.813 921.852 666.003 925.252 667.593 928.47C668.388 930.093 668.851 931.858 668.955 933.662C669.059 935.465 668.803 937.272 668.201 938.976C666.707 942.266 662.05 944.038 659.316 941.811C657.963 940.43 657.078 938.659 656.784 936.748C655.012 929.154 653.215 921.129 655.215 913.56C657.215 905.991 662.48 899.916 662.632 892.372C662.632 886.601 659.771 880.399 662.632 875.361C664.239 873.046 666.318 871.096 668.733 869.64C671.157 868.15 672.915 865.784 673.643 863.034C674.099 860.274 671.694 857.009 668.96 857.667C665.138 858.578 664.758 865.261 660.86 865.54C658.328 865.666 656.734 862.679 657.24 860.274C658.032 857.932 659.504 855.879 661.467 854.376L671.213 845.339C673.517 843.213 676.048 840.276 675.061 837.34C674.409 835.977 673.246 834.927 671.825 834.415C670.403 833.903 668.838 833.972 667.467 834.606C664.762 836.019 662.488 838.135 660.885 840.732C661.654 838.575 661.982 836.285 661.847 833.998C661.761 832.859 661.34 831.771 660.638 830.87C659.935 829.969 658.982 829.296 657.898 828.936C654.607 828.151 651.671 831.467 651.063 834.808C650.456 838.15 651.215 841.542 650.861 844.934C650.506 848.326 648.329 851.921 644.912 851.946C643.428 851.791 642.051 851.098 641.044 849.997C640.036 848.896 639.467 847.464 639.444 845.972C639.484 842.97 640.428 840.05 642.153 837.593C643.852 835.138 645.15 832.43 646.001 829.568C646.405 828.125 646.363 826.593 645.879 825.174C645.396 823.755 644.494 822.516 643.292 821.62C640.761 820.076 636.609 821.822 636.736 824.809C636.128 821.113 634.356 816.405 630.61 816.709C626.863 817.013 625.926 821.519 625.901 825.012C625.837 835.947 628.398 846.737 633.369 856.477C636.407 862.401 640.305 867.869 643.14 873.893C646.336 879.802 647.45 886.614 646.304 893.233C645.063 897.093 643.584 900.872 641.874 904.548C640.033 909.632 639.379 915.069 639.963 920.444C640.546 925.819 642.352 930.989 645.241 935.558C642.71 935.786 640.862 933.761 638.963 932.267C637.065 930.774 633.9 929.736 632.457 931.635C631.972 932.381 631.765 933.274 631.871 934.158C631.978 935.041 632.391 935.86 633.04 936.47C634.355 937.658 635.872 938.601 637.52 939.254C641.339 941.205 644.693 943.955 647.354 947.319C650.014 950.683 651.918 954.58 652.937 958.746C648.456 959.303 644.811 951.936 640.963 954.265C638.432 955.784 639.571 959.91 641.925 961.657C644.279 963.404 647.368 964.036 649.519 965.986C651.116 967.515 652.049 969.609 652.12 971.819C652.191 974.029 651.394 976.178 649.899 977.807C646.735 980.946 641.798 979.63 637.976 977.326C634.31 974.996 631.139 971.965 628.646 968.407C626.153 964.85 624.386 960.835 623.446 956.594C621.092 949.633 623.876 942.013 624.711 936.343C625.724 929.508 630.483 923.559 631.015 916.674C631.546 909.789 627.977 901.865 631.192 895.461C633.115 892.486 635.518 889.851 638.305 887.664C639.696 886.563 640.816 885.157 641.58 883.555C642.343 881.954 642.73 880.199 642.71 878.424C642.229 874.906 637.647 872.197 634.964 874.627C633.698 875.842 633.166 877.994 631.47 878.348C629.774 878.703 628.281 876.779 628.255 875.007C628.47 873.272 628.904 871.57 629.546 869.944C629.853 869.107 629.893 868.196 629.662 867.335C629.431 866.474 628.94 865.706 628.255 865.135C627.375 864.76 626.383 864.746 625.492 865.097C624.602 865.447 623.885 866.133 623.496 867.008C622.803 868.813 622.611 870.772 622.939 872.678C623.37 877.969 623.825 883.285 624.256 888.601C624.256 889.993 624.256 891.74 623.041 892.372C621.826 893.005 620.509 892.069 619.497 891.132C617.271 888.821 615.526 886.092 614.361 883.103C613.197 880.114 612.637 876.923 612.713 873.716C612.925 867.281 614.923 861.032 618.484 855.667C620.276 853.255 621.803 850.659 623.041 847.921C623.643 846.538 623.875 845.022 623.716 843.523C623.556 842.023 623.009 840.59 622.129 839.365C621.654 838.805 621.063 838.355 620.396 838.046C619.729 837.737 619.004 837.578 618.269 837.578C617.534 837.578 616.809 837.737 616.142 838.046C615.475 838.355 614.884 838.805 614.409 839.365C613.092 841.593 614.206 844.428 614.409 846.959C614.915 852.756 610.763 857.743 608.283 862.983C605.982 868.081 605.175 873.726 605.955 879.265C606.735 884.803 609.069 890.006 612.687 894.271C615.041 897.005 617.902 899.334 620.13 902.068C621.348 903.399 622.267 904.976 622.826 906.691C623.385 908.407 623.57 910.223 623.37 912.016C623.226 912.896 622.909 913.738 622.436 914.493C621.963 915.249 621.345 915.902 620.616 916.416C619.888 916.93 619.065 917.294 618.195 917.486C617.324 917.678 616.425 917.694 615.548 917.535C614.206 916.934 613.039 916.005 612.154 914.832C611.268 913.659 610.694 912.281 610.485 910.826C610.068 907.93 609.215 905.113 607.954 902.473C606.435 899.941 602.891 898.347 600.562 899.941C599.828 900.596 599.267 901.421 598.927 902.343C598.587 903.266 598.479 904.258 598.613 905.232C599.043 914.37 608.004 920.42 612.029 928.698C613.538 931.86 614.321 935.32 614.321 938.824C614.321 942.327 613.538 945.787 612.029 948.949C610.787 946.511 608.825 944.514 606.409 943.228C603.878 942.241 600.283 943.633 600.157 946.367C600.239 947.839 600.893 949.219 601.979 950.215C604.814 953.364 608.483 955.646 612.561 956.797C611.725 963.961 615.953 970.821 621.167 975.807C626.382 980.794 632.66 984.591 637.773 989.68C642.887 994.768 646.583 1003.22 645.368 1010.34L677.82 1010.11C678.097 1006.7 679.392 1003.45 681.536 1000.79C683.68 998.128 686.574 996.171 689.844 995.173C693.287 994.211 697.034 994.363 700.324 992.97C703.615 991.578 706.4 987.654 704.729 984.49C704.133 983.555 703.291 982.803 702.295 982.316C701.299 981.83 700.188 981.627 699.084 981.731C696.883 981.95 694.744 982.586 692.781 983.604C693.247 983.246 693.635 982.796 693.918 982.28C694.202 981.765 694.375 981.197 694.428 980.611C694.481 980.026 694.412 979.435 694.225 978.878C694.038 978.32 693.737 977.808 693.342 977.372C692.947 976.937 692.466 976.588 691.929 976.348C691.393 976.108 690.812 975.981 690.224 975.977C689.636 975.973 689.053 976.09 688.513 976.323C687.973 976.555 687.487 976.897 687.085 977.326C685.592 978.972 685.592 981.478 684.68 983.528C683.769 985.579 680.605 986.971 679.491 985.047C679.285 984.527 679.193 983.969 679.219 983.411C679.245 982.852 679.39 982.305 679.643 981.807C681.541 976.314 683.642 970.517 688.072 966.745C697.211 958.948 712.855 962.391 720.981 953.607C721.808 952.859 722.436 951.916 722.807 950.864C723.178 949.812 723.282 948.684 723.107 947.582C722.145 943.937 716.981 943.304 713.564 944.874C710.146 946.443 707.362 949.38 703.767 950.468C700.173 951.557 695.084 949.304 695.616 945.582C695.934 944.437 696.584 943.411 697.486 942.636C698.387 941.861 699.498 941.371 700.679 941.228C703.008 940.697 705.412 940.849 707.691 940.216C708.853 939.997 709.915 939.412 710.721 938.547C711.527 937.681 712.035 936.581 712.171 935.406C712.118 934.962 711.973 934.533 711.744 934.148C711.516 933.763 711.209 933.43 710.845 933.171C710.48 932.911 710.065 932.73 709.627 932.64C709.188 932.55 708.736 932.552 708.298 932.647C718.675 924.592 727.363 914.571 733.866 903.156Z" fill="#455A64"/>
<path d="M655.797 503.827C649.443 509.7 686.629 566.961 677.314 571.846C667.998 576.732 610.282 604.147 617.142 605.109C624.003 606.071 686.123 589.92 688.022 594.831C689.92 599.742 694.856 670.191 702.198 667.736C709.539 665.28 707.083 596.3 717.386 598.755C727.689 601.21 783.936 618.804 786.873 613.437C789.809 608.071 728.372 582.529 726.752 573.314C725.284 564.986 756.091 509.7 751.205 511.169C746.32 512.637 709.108 556.734 701.793 555.215C692.933 553.24 661.67 501.397 655.797 503.827Z" fill="#407BFF"/>
<path d="M327.93 1037.37C325.533 1027.64 325.821 1017.43 328.765 1007.85C331.708 998.268 337.196 989.663 344.644 982.953C352.092 976.243 361.221 971.679 371.059 969.747C380.896 967.816 391.073 968.589 400.505 971.985C409.719 962.568 424.705 961.556 437.539 964.517C443.671 966.058 449.7 967.986 455.588 970.289C462.372 972.82 469.562 975.529 473.84 981.351C474.963 980.316 476.312 979.558 477.78 979.136C479.248 978.713 480.794 978.64 482.296 978.92C483.797 979.2 485.213 979.826 486.43 980.749C487.647 981.672 488.632 982.867 489.307 984.237C489.702 983.653 490.216 983.158 490.814 982.784C491.412 982.41 492.082 982.165 492.78 982.065C493.478 981.965 494.19 982.012 494.869 982.203C495.548 982.394 496.18 982.724 496.724 983.174C497.754 984.194 498.488 985.474 498.849 986.878C499.21 988.282 499.184 989.757 498.774 991.148C497.913 993.906 496.549 996.481 494.749 998.742C489.256 1006.69 482.649 1015.32 473.08 1016.64C470.429 1023.01 465.689 1028.29 459.639 1031.61C453.588 1034.92 446.589 1036.08 439.792 1034.89C441.843 1040.92 436.274 1046.69 430.983 1050.23C414.681 1061.24 394.936 1067.95 375.292 1066.18C355.649 1064.41 336.309 1055.17 327.93 1037.37" fill="#407BFF"/>
<path d="M439.792 1034.89C438.744 1034.77 437.715 1034.51 436.729 1034.13C435.537 1033.8 434.362 1033.42 433.211 1032.97L428.68 1030.99C420.038 1026.68 412.997 1019.73 408.58 1011.15C404.466 1002.53 401.953 993.243 401.163 983.731C400.783 980.111 400.606 977.174 400.53 975.124C400.437 974.08 400.437 973.029 400.53 971.985C400.83 972.997 401 974.043 401.037 975.098C401.239 977.124 401.568 980.035 402.075 983.604C403.09 992.942 405.657 1002.04 409.669 1010.54C413.974 1018.9 420.719 1025.75 429.009 1030.18L433.388 1032.28C434.654 1032.92 435.919 1033.24 436.805 1033.65C437.842 1033.96 438.844 1034.37 439.792 1034.89V1034.89Z" fill="#263238"/>
<path d="M473.08 1016.69C472.27 1016.57 471.478 1016.35 470.726 1016.03C468.645 1015.27 466.651 1014.28 464.777 1013.09C458.457 1009.23 453.42 1003.59 450.298 996.869C448.558 993.191 447.454 989.245 447.032 985.199C446.532 981.865 446.961 978.458 448.273 975.352C449.239 973.254 450.928 971.573 453.032 970.618C453.771 970.234 454.607 970.075 455.436 970.162C455.436 970.162 454.576 970.365 453.234 971.074C451.388 972.135 449.939 973.771 449.108 975.731C448.003 978.715 447.706 981.937 448.247 985.072C448.712 988.969 449.806 992.765 451.487 996.312C454.542 1002.81 459.312 1008.35 465.284 1012.34C469.84 1015.42 473.182 1016.41 473.08 1016.69Z" fill="#263238"/>
<path d="M491.787 1002.97C490.274 1003.9 488.473 1004.24 486.724 1003.93C482.47 1003.28 478.59 1001.12 475.789 997.856C474.372 996.24 473.315 994.341 472.686 992.286C472.058 990.23 471.873 988.065 472.144 985.933C472.222 984.158 472.85 982.451 473.941 981.047C474.169 981.047 473.232 982.921 473.055 986.11C472.816 990.11 474.152 994.044 476.776 997.071C479.405 1000.13 482.96 1002.24 486.902 1003.1C488.53 1003.23 490.168 1003.19 491.787 1002.97V1002.97Z" fill="#263238"/>
<path d="M498.014 993.426C498.014 993.426 497.432 994.793 495.331 995.578C494.074 996.005 492.72 996.057 491.433 995.73C490.63 995.525 489.878 995.156 489.224 994.647C488.571 994.137 488.03 993.497 487.636 992.768C487.059 991.442 486.804 989.999 486.892 988.556C486.98 987.113 487.409 985.711 488.142 984.465C489.332 982.491 491.053 982.389 491.003 982.566C490.952 982.744 489.762 983.123 488.952 984.921C488.436 986.054 488.158 987.282 488.137 988.527C488.115 989.773 488.349 991.01 488.825 992.161C489.461 993.318 490.524 994.181 491.787 994.565C492.846 994.894 493.972 994.938 495.053 994.692C496.926 994.236 497.837 993.249 498.014 993.426Z" fill="#263238"/>
<path d="M392.202 976.289C392.202 976.542 388.177 975.808 381.747 976.289C373.339 976.762 365.156 979.189 357.848 983.377C350.541 987.564 344.31 993.397 339.65 1000.41C336.056 1005.78 334.587 1009.6 334.436 1009.5C334.609 1008.56 334.907 1007.65 335.322 1006.79C336.313 1004.4 337.499 1002.1 338.865 999.907C343.421 992.594 349.717 986.524 357.191 982.239C364.665 977.955 373.085 975.588 381.697 975.352C384.285 975.28 386.876 975.416 389.443 975.757C390.382 975.811 391.31 975.989 392.202 976.289V976.289Z" fill="white"/>
<path d="M444.526 973.226C444.4 973.403 442.349 971.96 438.679 970.492C433.899 968.548 428.736 967.734 423.59 968.111C418.444 968.489 413.455 970.048 409.011 972.669C405.593 974.668 403.771 976.39 403.619 976.238C404.949 974.473 406.618 972.993 408.53 971.884C413.001 968.941 418.15 967.189 423.489 966.794C428.827 966.4 434.178 967.376 439.033 969.631C441.091 970.44 442.961 971.663 444.526 973.226V973.226Z" fill="white"/>
<path d="M423.895 1020.49C422.614 1020.24 421.409 1019.69 420.376 1018.89C417.766 1017.16 415.527 1014.92 413.789 1012.31C412.05 1009.71 410.848 1006.78 410.251 1003.7C409.907 1002.44 409.864 1001.11 410.124 999.831C411.104 1003.99 412.717 1007.96 414.909 1011.63C417.442 1015.02 420.471 1018 423.895 1020.49V1020.49Z" fill="white"/>
<path d="M456.955 999.78C454.788 998.3 453.183 996.133 452.399 993.628C451.205 991.287 450.823 988.616 451.31 986.034C451.69 986.034 452.044 989.35 453.614 993.122C455.183 996.894 457.259 999.527 456.955 999.78Z" fill="white"/>
<path d="M481.561 997.122C481.358 997.4 479.308 996.033 478.042 993.375C476.776 990.717 476.928 988.312 477.283 988.312C477.637 988.312 478.067 990.464 479.232 992.844C480.396 995.223 481.814 996.843 481.561 997.122Z" fill="white"/>
<path d="M492.648 993.502C492.648 993.654 492.091 993.679 491.433 993.3C490.575 992.783 489.908 992.001 489.534 991.072C489.156 990.148 489.094 989.124 489.357 988.161C489.585 987.427 489.939 987.072 490.091 987.148C490.243 987.224 490.091 988.87 490.775 990.566C491.458 992.262 492.8 993.173 492.648 993.502Z" fill="white"/>
<path d="M470.853 983.275C468.473 980.813 465.658 978.813 462.55 977.377C459.284 976.318 455.853 975.863 452.424 976.035C452.424 975.883 453.487 975.352 455.436 975.099C458.007 974.836 460.604 975.193 463.009 976.139C465.414 977.086 467.556 978.596 469.258 980.541C470.549 982.035 470.979 983.199 470.853 983.275Z" fill="white"/>
<path d="M484.471 982.237C484.218 982.516 482.674 981.478 480.548 981.68C478.421 981.883 477.029 983.047 476.751 982.82C476.472 982.592 476.751 982.187 477.409 981.604C478.26 980.88 479.32 980.445 480.435 980.363C481.55 980.281 482.663 980.557 483.611 981.149C484.32 981.63 484.573 982.111 484.471 982.237Z" fill="white"/>
<path d="M495.002 519.396C493.874 511.364 490.803 503.728 486.057 497.151C481.311 490.574 475.032 485.254 467.764 481.652C464.663 479.818 460.984 479.221 457.462 479.982C455.892 480.488 454.525 481.45 452.956 481.956C449.601 482.668 446.122 482.538 442.83 481.576C439.775 480.818 436.555 481.085 433.666 482.336C432.264 483.03 431.187 484.242 430.663 485.716C430.138 487.19 430.208 488.81 430.857 490.234C431.974 491.684 433.513 492.754 435.261 493.297L496.015 519.497" fill="#407BFF"/>
<g opacity="0.3">
<path opacity="0.3" d="M492.015 515.447C496.496 519.143 476.169 491.677 453.184 488.057C446.526 486.994 438.704 485.652 434.198 490.588C434.198 490.664 473.637 500.258 492.015 515.447Z" fill="black"/>
</g>
<path d="M416.048 488.057C410.799 479.962 404.509 472.591 397.341 466.135C389.924 459.983 380.406 455.756 370.812 456.617C368.993 456.641 367.202 457.069 365.569 457.871C363.937 458.672 362.502 459.826 361.37 461.249C360.695 462.668 359.908 464.031 359.015 465.325C356.914 467.653 353.168 467.603 350.763 469.603C347.143 472.615 348.51 478.918 352.206 481.829C355.902 484.74 360.914 485.171 365.597 485.5L416.352 489.246" fill="#407BFF"/>
<path d="M358.104 534.812C353.659 534.878 349.281 533.722 345.447 531.47C341.553 529.173 337.258 527.635 332.79 526.939C328.335 526.585 323.323 528.61 321.779 532.812C319.829 538.204 324.31 543.697 328.791 547.266C344.378 559.416 364.113 564.961 383.747 562.708" fill="#407BFF"/>
<path d="M517.431 547.291C511.912 528.584 492.825 506.789 433.439 491.221C374.052 475.653 329.651 485.576 329.651 485.576C329.651 485.576 319.526 488.867 277.707 493.676C235.888 498.486 223.408 531.926 241.634 542.76C248.748 546.988 274.543 517.75 274.543 517.75C261.278 536.938 274.543 558.252 283.858 565.188C293.174 572.124 302.388 566.201 310.969 555.797C319.551 545.393 311.121 519.648 311.121 519.648C311.121 519.648 315.703 514.206 334.815 516.965C353.927 519.724 372.584 560.708 384.253 567.239C395.923 573.77 443.817 597.793 482.776 596.603C521.734 595.413 522.949 565.998 517.431 547.291Z" fill="white"/>
<path d="M421.693 488.436C403.149 484.455 384.234 482.461 365.268 482.488C365.268 482.488 356.357 488.892 355.395 494.638C354.433 500.385 353.446 506.181 353.446 506.181C344.839 507.523 340.511 518.838 340.511 518.838C354.99 526.256 368.812 551.747 379.064 562.758C382.507 510.485 417.617 490.563 421.693 488.436Z" fill="#407BFF"/>
<path d="M489.509 513.801H489.332C483.137 509.996 476.693 506.613 470.043 503.676L467.689 502.688L466.701 502.258C461.436 500.081 455.639 497.955 449.26 495.93L448.855 495.803L447.589 495.423C441.919 501.904 442.678 509.473 442.754 518.206C442.83 526.939 443.134 535.926 438.729 543.52C435.58 548.159 431.513 552.105 426.781 555.114C420.925 559.35 414.943 563.366 408.833 567.163C405.391 569.315 401.492 572.226 401.391 576.175C416.107 582.984 431.408 588.449 447.108 592.503C447.108 592.503 446.273 559.822 455.816 548.001C455.816 547.671 467.942 522.762 489.509 513.801Z" fill="#407BFF"/>
<path d="M517.431 547.292C515.632 541.315 512.72 535.733 508.849 530.837C508.849 530.837 482.117 535.495 474.928 555.873C470.517 568.784 468.234 582.327 468.169 595.97C472.993 596.506 477.848 596.717 482.7 596.603C521.633 595.413 522.949 565.999 517.431 547.292Z" fill="#407BFF"/>
<path d="M314.058 517.851C310.829 508.758 308.406 499.398 306.818 489.879C299.452 490.968 289.908 492.259 277.606 493.676C235.762 498.486 223.307 531.926 241.533 542.76C248.646 546.988 274.441 517.75 274.441 517.75C261.177 536.938 274.441 558.253 283.757 565.189C293.072 572.125 302.287 566.201 310.868 555.797C319.45 545.393 311.02 519.649 311.02 519.649C311.895 518.843 312.93 518.231 314.058 517.851Z" fill="#407BFF"/>
<path d="M409.416 486.487C407.273 485.795 405.184 484.949 403.163 483.956C398.211 481.783 393.14 479.89 387.975 478.286C382.761 476.717 377.462 475.45 372.103 474.489C369.849 474.209 367.616 473.777 365.42 473.198C367.696 473.02 369.985 473.139 372.229 473.552C377.693 474.251 383.087 475.411 388.354 477.02C393.583 478.615 398.664 480.656 403.543 483.121C405.628 484.005 407.599 485.135 409.416 486.487V486.487Z" fill="#263238"/>
<path d="M508.976 562.151C508.713 563.701 507.997 565.139 506.917 566.282C505.838 567.425 504.443 568.222 502.911 568.572C501.378 568.923 499.776 568.811 498.307 568.251C496.838 567.69 495.568 566.707 494.658 565.425C493.747 564.143 493.238 562.62 493.193 561.048C493.149 559.477 493.572 557.927 494.408 556.596C495.244 555.264 496.457 554.211 497.892 553.569C499.327 552.926 500.92 552.724 502.47 552.987C503.5 553.159 504.486 553.533 505.372 554.087C506.257 554.641 507.024 555.365 507.629 556.216C508.233 557.068 508.664 558.031 508.895 559.049C509.126 560.068 509.153 561.122 508.976 562.151V562.151Z" fill="white"/>
<path d="M506.697 561.771C506.523 562.818 506.041 563.79 505.314 564.563C504.586 565.337 503.646 565.877 502.612 566.116C501.578 566.355 500.496 566.282 499.503 565.906C498.51 565.529 497.651 564.867 497.035 564.003C496.418 563.139 496.072 562.111 496.04 561.05C496.008 559.989 496.291 558.942 496.854 558.042C497.417 557.142 498.234 556.429 499.202 555.993C500.17 555.557 501.246 555.419 502.293 555.595C503.696 555.83 504.948 556.613 505.774 557.771C506.599 558.929 506.932 560.368 506.697 561.771V561.771Z" fill="#263238"/>
<path d="M514.368 583.82C509.429 582.244 504.635 580.245 500.04 577.846C495.264 575.863 490.658 573.492 486.269 570.758C491.207 572.305 496.001 574.278 500.597 576.656C505.377 578.659 509.983 581.055 514.368 583.82V583.82Z" fill="#263238"/>
<path d="M484.624 575.745C484.472 575.745 483.889 575.441 483.105 574.529C482.624 573.972 482.255 573.327 482.016 572.631C481.677 571.716 481.677 570.71 482.016 569.796C482.391 568.901 483.049 568.154 483.889 567.669C484.566 567.359 485.297 567.186 486.041 567.163C487.231 567.163 487.965 567.315 487.965 567.492C487.965 567.669 487.256 567.821 486.168 568.1C485.577 568.236 485.007 568.449 484.472 568.733C483.925 569.129 483.504 569.674 483.257 570.302C483.051 570.915 482.989 571.568 483.077 572.209C483.165 572.85 483.4 573.462 483.763 573.998C484.396 574.985 484.775 575.618 484.624 575.745Z" fill="#263238"/>
<path d="M501.356 522.788C500.771 522.413 500.213 521.998 499.685 521.547C498.597 520.737 497.154 519.446 494.977 517.978C489.109 513.697 482.885 509.928 476.371 506.713C466.732 501.935 456.674 498.054 446.323 495.119C433.644 491.522 420.739 488.774 407.694 486.892C394.661 484.865 381.515 483.648 368.331 483.247C357.572 482.963 346.806 483.403 336.106 484.563C328.887 485.383 321.714 486.566 314.615 488.107L308.868 489.474C308.195 489.655 307.51 489.791 306.818 489.879C307.455 489.601 308.116 489.381 308.792 489.221L314.513 487.601C321.592 485.857 328.769 484.539 336.005 483.652C346.736 482.338 357.548 481.797 368.356 482.032C381.598 482.371 394.805 483.555 407.897 485.576C421.001 487.472 433.959 490.272 446.678 493.955C457.07 496.979 467.155 500.971 476.801 505.878C483.307 509.191 489.493 513.098 495.281 517.548C497.357 519.092 498.825 520.459 499.837 521.345C500.391 521.773 500.9 522.256 501.356 522.788Z" fill="#263238"/>
<path d="M401.34 575.82C401.34 575.82 401.34 575.466 401.518 574.808C401.751 573.854 402.108 572.935 402.581 572.074C404.448 568.945 407.112 566.368 410.302 564.606C412.225 563.391 414.428 562.227 416.706 560.911C418.984 559.594 421.364 558.05 423.819 556.379C429.223 552.959 433.944 548.564 437.742 543.419C441.038 537.953 442.674 531.647 442.45 525.268C442.577 519.345 442.298 513.928 442.627 509.397C442.785 505.793 443.547 502.242 444.88 498.891C445.241 498.009 445.682 497.162 446.197 496.36C446.343 496.057 446.531 495.776 446.754 495.524C444.792 499.948 443.708 504.711 443.564 509.548C443.336 514.029 443.716 519.37 443.564 525.37C443.85 532 442.177 538.568 438.754 544.254C434.867 549.559 429.983 554.056 424.376 557.493C421.845 559.164 419.49 560.657 417.136 561.974C414.782 563.29 412.605 564.379 410.681 565.518C407.552 567.123 404.886 569.502 402.935 572.428C401.821 574.454 401.492 575.871 401.34 575.82Z" fill="#263238"/>
<path d="M489.104 513.75C488.084 514.46 487.018 515.103 485.915 515.674C483 517.354 480.193 519.214 477.51 521.243C468.686 528.056 461.434 536.69 456.247 546.557C451.202 556.46 448.279 567.306 447.665 578.403C447.336 582.655 447.285 586.123 447.26 588.528C447.322 589.771 447.271 591.016 447.108 592.249C446.873 591.022 446.746 589.777 446.729 588.528C446.602 586.123 446.526 582.655 446.729 578.403C447.077 567.108 449.93 556.032 455.082 545.975C460.35 535.982 467.83 527.324 476.953 520.661C479.713 518.672 482.625 516.903 485.661 515.371C486.747 514.708 487.901 514.164 489.104 513.75V513.75Z" fill="#263238"/>
<path d="M509.229 531.141C509.229 531.394 504.622 532.432 497.458 535.115C493.28 536.67 489.414 538.959 486.041 541.874C481.971 545.499 478.636 549.873 476.22 554.759C471.956 563.787 469.579 573.589 469.233 583.566C468.98 587.212 468.752 590.249 468.575 592.654C468.542 593.778 468.406 594.896 468.17 595.996C468.047 594.877 468.047 593.748 468.17 592.629C468.17 590.477 468.17 587.364 468.423 583.516C468.578 578.982 469.052 574.465 469.84 569.998C470.823 564.486 472.605 559.148 475.131 554.152C477.614 549.13 481.053 544.641 485.257 540.938C488.774 537.985 492.808 535.711 497.154 534.229C500.038 533.211 502.979 532.366 505.963 531.698C507.025 531.38 508.122 531.193 509.229 531.141V531.141Z" fill="#263238"/>
<path d="M414.808 581.592C414.366 581.545 413.932 581.443 413.517 581.288C412.681 581.01 411.441 580.681 409.897 580.099C405.493 578.579 401.183 576.804 396.986 574.783C390.733 571.805 384.832 568.137 379.393 563.847C372.728 558.53 366.996 552.139 362.433 544.937C357.649 537.343 353.497 529.749 347.725 524.686C342.523 520.278 336.088 517.581 329.297 516.965C324.746 516.242 320.096 516.449 315.627 517.573C314.019 518.081 312.48 518.787 311.045 519.674C311.353 519.346 311.692 519.05 312.058 518.788C313.119 518.07 314.267 517.492 315.475 517.067C319.99 515.734 324.736 515.38 329.398 516.029C332.632 516.365 335.817 517.07 338.891 518.13C342.454 519.353 345.734 521.281 348.535 523.8C354.56 529.04 358.788 536.736 363.547 544.254C368.039 551.328 373.647 557.628 380.153 562.91C385.504 567.193 391.29 570.9 397.417 573.973C402.632 576.504 407.036 578.453 410.074 579.643C411.69 580.196 413.271 580.847 414.808 581.592V581.592Z" fill="#263238"/>
<path d="M291.883 506.156C287.818 507.939 283.97 510.182 280.415 512.839C277.161 515.86 274.211 519.192 271.606 522.788C273.131 518.431 275.904 514.618 279.58 511.827C283.001 508.718 287.297 506.738 291.883 506.156V506.156Z" fill="#263238"/>
<path d="M295.072 564.606C294.639 563.882 294.315 563.097 294.11 562.278C293.381 560.104 292.781 557.889 292.313 555.645C290.755 548.214 290.421 540.579 291.326 533.04C291.799 528.863 292.856 524.773 294.465 520.889C295.767 517.673 297.569 514.682 299.806 512.029C301.281 510.268 302.984 508.71 304.869 507.397C305.536 506.873 306.29 506.47 307.096 506.207C304.679 508.126 302.457 510.28 300.464 512.637C296.008 518.603 293.276 525.678 292.566 533.091C291.704 540.507 291.909 548.008 293.174 555.367C294.186 561.113 295.3 564.531 295.072 564.606Z" fill="#263238"/>
<path d="M279.302 502.536C279.302 502.764 276.061 503.321 271.125 505.321C264.67 507.882 258.842 511.803 254.037 516.818C249.232 521.832 245.563 527.823 243.28 534.382C241.508 539.444 241.103 542.71 240.875 542.685C240.747 541.905 240.747 541.11 240.875 540.33C241.163 538.211 241.629 536.119 242.267 534.078C244.383 527.255 248.064 521.021 253.018 515.874C257.971 510.727 264.059 506.81 270.796 504.435C272.806 503.706 274.872 503.139 276.973 502.739C277.734 502.552 278.52 502.483 279.302 502.536V502.536Z" fill="#263238"/>
<path d="M363.066 546.887C355.158 547.391 347.342 544.957 341.119 540.052C341.321 539.697 345.776 542.381 351.852 544.254C357.927 546.127 363.091 546.482 363.066 546.887Z" fill="#263238"/>
<path d="M421.693 488.437C421.693 488.664 417.288 490.968 410.985 496.031C402.847 502.711 396.088 510.914 391.089 520.18C386.143 529.489 382.725 539.532 380.963 549.924C380.254 553.899 379.798 557.139 379.545 559.392C379.459 560.57 379.273 561.739 378.988 562.885C378.867 561.707 378.867 560.519 378.988 559.341C379.115 557.088 379.419 553.797 380.026 549.772C381.553 539.225 384.902 529.023 389.924 519.623C392.796 514.48 396.189 509.645 400.05 505.194C403.191 501.573 406.694 498.282 410.504 495.373C413.065 493.404 415.773 491.635 418.605 490.082C419.57 489.421 420.606 488.869 421.693 488.437V488.437Z" fill="#263238"/>
<path d="M365.42 482.032C363.691 483.421 362.05 484.917 360.509 486.512C357.027 490.573 355.153 495.77 355.244 501.119C355.276 501.979 355.126 502.837 354.803 503.635C354.48 504.434 353.992 505.155 353.37 505.751C352.181 506.608 350.947 507.403 349.675 508.131C347.685 509.457 345.917 511.089 344.435 512.966C343.211 514.785 342.087 516.67 341.068 518.611C341.079 517.995 341.226 517.39 341.498 516.839C342.07 515.263 342.853 513.773 343.827 512.409C345.272 510.353 347.062 508.563 349.118 507.118C350.257 506.283 351.649 505.675 352.636 504.789C353.121 504.299 353.495 503.712 353.735 503.066C353.975 502.42 354.075 501.73 354.029 501.043C353.99 497.971 354.602 494.925 355.826 492.107C356.821 489.803 358.218 487.694 359.952 485.88C361.106 484.661 362.427 483.613 363.876 482.766C364.762 482.158 365.395 481.956 365.42 482.032Z" fill="#263238"/>
<path d="M314.058 517.851C311.856 513.591 310.271 509.04 309.349 504.333C308.029 499.749 307.181 495.041 306.818 490.284C308.475 494.753 309.762 499.35 310.666 504.03C312.488 511.649 314.387 517.725 314.058 517.851Z" fill="#263238"/>
<g opacity="0.3">
<path opacity="0.3" d="M306.21 507.346C302.782 514.08 300.384 521.29 299.097 528.737C297.831 539.09 300.894 549.671 299.249 559.974C299.046 561.164 298.641 562.505 297.528 562.936C297.06 563.034 296.575 562.999 296.127 562.833C295.679 562.667 295.287 562.378 294.996 561.999C294.425 561.183 294.044 560.248 293.882 559.265C291.167 549.877 290.307 540.049 291.351 530.331C292.819 520.687 297.781 511.219 306.16 506.207" fill="black"/>
</g>
<g opacity="0.3">
<path opacity="0.3" d="M241.204 541.115C248.294 526.596 259.031 514.167 272.366 505.042C257.734 509.245 243.204 526.053 241.204 541.115Z" fill="black"/>
</g>
<path d="M460.246 797.723C469.992 810.152 479.814 822.708 492.091 832.631C496.091 835.871 501.002 838.959 506.014 837.846C509.721 836.632 512.929 834.241 515.152 831.036C518.414 827.597 520.992 823.568 522.746 819.164C523.581 816.948 523.864 814.562 523.573 812.212C523.282 809.862 522.425 807.617 521.076 805.672C518.342 802.788 514.821 800.772 510.95 799.875C503.571 797.491 495.986 795.796 488.294 794.812C479.623 793.356 470.728 794.025 462.373 796.761" fill="#407BFF"/>
<path d="M449.564 800.609C472.346 806.811 530.847 806.001 562.616 799.545C584.088 795.579 605.926 793.95 627.749 794.685C627.749 794.685 665.973 814.607 685.338 813.544C704.704 812.481 689.11 794.154 685.338 774.788C681.567 755.423 690.199 746.26 672.96 734.413C655.721 722.566 620.762 754.335 620.762 754.335L597.068 751.626C570.16 739.248 491.56 704.795 439.868 707.478C388.177 710.162 394.227 754.335 394.227 754.335C394.227 754.335 392.506 785.015 449.564 800.609Z" fill="#407BFF"/>
<path d="M432.046 737.779C432.046 739.347 431.581 740.88 430.709 742.184C429.837 743.487 428.599 744.503 427.149 745.102C425.7 745.701 424.106 745.856 422.568 745.548C421.03 745.241 419.619 744.484 418.511 743.373C417.404 742.262 416.652 740.848 416.349 739.31C416.046 737.771 416.207 736.177 416.81 734.73C417.414 733.282 418.433 732.047 419.739 731.179C421.046 730.311 422.58 729.851 424.148 729.856C425.188 729.856 426.217 730.061 427.177 730.46C428.137 730.858 429.008 731.442 429.742 732.178C430.476 732.914 431.057 733.788 431.452 734.749C431.848 735.71 432.05 736.74 432.046 737.779V737.779Z" fill="white"/>
<path d="M424.148 742.691C426.861 742.691 429.059 740.492 429.059 737.78C429.059 735.067 426.861 732.869 424.148 732.869C421.436 732.869 419.238 735.067 419.238 737.78C419.238 740.492 421.436 742.691 424.148 742.691Z" fill="#263238"/>
<path d="M432.806 760.106C426.174 759.406 419.595 758.273 413.112 756.714C406.543 755.584 400.057 754.019 393.696 752.031C400.328 752.731 406.906 753.864 413.39 755.423C419.958 756.558 426.443 758.122 432.806 760.106V760.106Z" fill="#263238"/>
<path d="M458.322 707.605C471.587 701.327 485.003 694.948 499.331 691.784C505.204 690.442 511.988 689.835 516.696 693.556C521.405 697.277 522.443 704.011 523.05 710.035C523.455 713.858 523.683 718.161 521.177 721.047L489.079 723.022L458.322 707.605Z" fill="#407BFF"/>
<path d="M528.392 724.363C545.752 719.131 563.829 716.671 581.956 717.073C585.269 716.832 588.572 717.667 591.373 719.452C596.005 723.173 595.043 730.691 591.753 735.628C588.462 740.564 583.399 744.133 580.159 749.095L542.922 737.906C536.062 735.856 528.24 732.843 526.113 726.059" fill="#407BFF"/>
<path d="M527.683 803.393C538.087 808.735 548.491 814.101 559.351 818.582C564.885 821.049 570.785 822.597 576.817 823.164C582.916 823.719 588.99 821.856 593.727 817.974C596.04 816.005 597.699 813.379 598.486 810.445C599.273 807.511 599.149 804.408 598.132 801.545C597.009 799.275 595.38 797.293 593.369 795.753C591.359 794.212 589.022 793.154 586.538 792.66C581.515 791.76 576.372 791.76 571.349 792.66C556.241 794.782 541.253 797.68 526.442 801.343" fill="#407BFF"/>
<path d="M432.35 794.787C432.35 794.787 448.576 769.473 444.45 745.677C440.324 721.882 430.528 708.516 430.528 708.516C440.965 706.52 451.669 706.332 462.17 707.959C462.17 707.959 469.587 720.616 464.702 752.031C459.816 783.446 449.513 800.609 449.513 800.609C443.528 799.557 437.74 797.594 432.35 794.787Z" fill="white"/>
<path d="M502.04 716.136C501.711 716.136 505.508 719.503 500.141 730.565C494.775 741.627 482.244 750.816 482.421 768.967C482.598 787.117 503.989 804.811 503.989 804.811L542.593 802.558C542.593 802.558 547.959 782.155 547.655 767.726C547.352 753.297 542.086 727.224 542.086 727.224C542.086 726.009 505.913 715.579 502.04 716.136Z" fill="white"/>
<path d="M597.069 751.626C598.099 753.54 598.638 755.68 598.638 757.854C598.638 760.027 598.099 762.167 597.069 764.081C593.626 771.27 587.475 777.497 592.942 786.307L598.41 795.091L627.749 794.686L620.763 754.335L597.069 751.626Z" fill="white"/>
<path d="M627.749 794.686C627.152 794.757 626.549 794.757 625.952 794.686H620.889C616.434 794.686 609.979 794.812 602.005 795.192C594.031 795.572 584.589 796.306 574.159 797.723C563.73 799.141 552.339 801.394 540.239 803.039C534.188 803.875 528.214 804.33 522.519 804.609C516.823 804.887 511.229 805.115 505.938 805.216C495.382 805.469 485.864 805.216 477.865 804.811C469.866 804.406 463.461 803.571 459.056 802.913C456.829 802.609 455.133 802.305 453.994 802.077C453.396 802.021 452.809 801.885 452.247 801.672C452.849 801.689 453.449 801.74 454.044 801.824L459.107 802.406C463.537 802.913 469.967 803.52 477.915 803.875C485.864 804.229 495.382 804.33 505.913 804.001C511.178 803.849 516.688 803.621 522.443 803.318C528.164 803.039 534.062 802.558 540.163 801.723C552.187 800.103 563.603 797.799 574.083 796.508C584.563 795.217 594.081 794.534 602.081 794.255C610.08 793.977 616.535 794.053 620.99 794.255L626.053 794.432C626.622 794.487 627.189 794.572 627.749 794.686V794.686Z" fill="#263238"/>
<path d="M597.069 751.626C596.545 751.526 596.035 751.365 595.55 751.145L591.297 749.5C587.627 748.057 582.336 745.855 575.881 743.019C562.895 737.476 545.327 728.818 524.848 722.262C515.198 719.189 505.397 716.612 495.483 714.541L488.801 713.124L482.497 711.959C478.422 711.174 474.599 710.542 471.106 709.985C464.145 708.82 458.449 708.036 454.601 707.453L450.095 706.744C449.566 706.702 449.046 706.582 448.551 706.39C449.074 706.356 449.598 706.356 450.121 706.39L454.652 706.871C458.576 707.301 464.271 707.934 471.258 708.997C474.751 709.478 478.574 710.086 482.675 710.82L489.028 711.908L495.737 713.275C505.681 715.268 515.509 717.803 525.177 720.87C545.808 727.451 563.325 736.261 576.21 742.032C582.614 744.943 587.829 747.298 591.398 748.867L595.55 750.74C596.08 750.993 596.588 751.29 597.069 751.626Z" fill="#263238"/>
<path d="M673.188 752.082C671.013 752.623 668.806 753.029 666.581 753.297C661.316 754.295 656.161 755.804 651.19 757.803C646.232 759.858 641.492 762.402 637.039 765.397C635.252 766.746 633.393 767.997 631.47 769.144C632.936 767.409 634.64 765.892 636.533 764.638C645.311 758.113 655.61 753.939 666.454 752.512C668.667 752.054 670.934 751.909 673.188 752.082Z" fill="#263238"/>
<path d="M677.061 791.825C674.691 791.748 672.339 791.4 670.049 790.787C658.871 788.342 648.149 784.147 638.28 778.358C636.175 777.267 634.212 775.924 632.432 774.358C634.606 775.271 636.712 776.337 638.735 777.548C643.745 780.167 648.891 782.516 654.152 784.585C659.426 786.641 664.809 788.407 670.277 789.876C672.583 790.357 674.851 791.009 677.061 791.825V791.825Z" fill="#263238"/>
<path d="M627.294 792.154C626.674 790.351 626.266 788.482 626.079 786.585L623.826 773.042C622.99 767.979 622.231 763.473 621.547 759.499C621.119 757.639 620.899 755.737 620.889 753.829C621.643 755.588 622.178 757.433 622.484 759.322C623.269 762.739 624.231 767.523 625.015 772.814C625.8 778.105 626.534 782.94 626.914 786.458C627.269 788.335 627.397 790.247 627.294 792.154Z" fill="#263238"/>
<path d="M598.562 795.546C598.562 795.546 598.03 795.116 597.246 794.179C596.142 792.852 595.111 791.466 594.157 790.027C592.715 787.829 591.622 785.421 590.917 782.889C589.98 779.757 590.095 776.405 591.246 773.346C592.555 770.497 594.069 767.747 595.777 765.118C597.026 762.966 597.883 760.609 598.309 758.157C598.608 756.527 598.495 754.847 597.98 753.271C597.575 752.208 597.068 751.702 597.17 751.626C597.271 751.55 597.828 751.955 598.461 753.069C599.18 754.653 599.443 756.406 599.22 758.132C598.964 760.732 598.189 763.254 596.942 765.549C595.34 768.179 593.879 770.891 592.563 773.675C591.534 776.493 591.401 779.561 592.183 782.459C592.822 784.86 593.793 787.16 595.069 789.293C596.347 791.312 597.513 793.399 598.562 795.546Z" fill="#263238"/>
<path d="M541.935 727.198C542.36 728.087 542.683 729.021 542.897 729.983C543.453 731.805 544.162 734.489 544.896 737.805C546.831 746.489 547.925 755.339 548.162 764.233C548.407 773.129 547.557 782.022 545.63 790.711C545.049 793.348 544.323 795.951 543.453 798.508C543.211 799.471 542.845 800.398 542.365 801.267C542.137 801.267 543.428 797.166 544.719 790.534C546.368 781.876 547.107 773.07 546.921 764.258C546.662 755.446 545.706 746.668 544.061 738.007C543.428 734.666 542.871 731.983 542.466 730.109C542.166 729.166 541.987 728.187 541.935 727.198V727.198Z" fill="#263238"/>
<path d="M501.761 715.149C501.944 715.447 502.081 715.772 502.166 716.111C502.437 717.054 502.623 718.02 502.723 718.997C502.935 722.63 502.294 726.262 500.85 729.603C498.621 734.442 495.861 739.018 492.623 743.247C490.821 745.763 489.213 748.412 487.813 751.171C486.382 754.144 485.385 757.306 484.852 760.562C483.755 766.875 484.031 773.351 485.662 779.548C487.169 784.561 489.713 789.201 493.129 793.167C495.964 796.66 498.42 799.369 499.964 801.368C500.841 802.352 501.605 803.43 502.242 804.583C501.287 803.688 500.399 802.723 499.584 801.698C497.914 799.824 495.357 797.217 492.395 793.749C488.787 789.748 486.085 785.017 484.472 779.877C482.731 773.51 482.419 766.836 483.561 760.334C484.101 756.959 485.142 753.682 486.649 750.614C488.128 747.805 489.82 745.114 491.712 742.564C494.96 738.429 497.768 733.966 500.091 729.249C501.551 726.072 502.31 722.619 502.318 719.123C502.09 716.541 501.635 715.2 501.761 715.149Z" fill="#263238"/>
<path d="M473.08 760.258L502.014 749.044C504.471 747.813 507.232 747.32 509.963 747.627C515.355 748.816 517.355 755.601 516.722 761.094C516.089 766.587 513.887 772.029 515 777.447C515.735 780.94 517.861 784.332 517.203 787.851C516.659 789.787 515.511 791.499 513.927 792.737C512.342 793.976 510.404 794.676 508.394 794.736C504.356 794.765 500.362 793.901 496.698 792.205L467.638 781.598" fill="#407BFF"/>
<path d="M467.638 781.598C468.108 781.652 468.568 781.771 469.005 781.952L472.827 783.218L486.775 788.129L496.395 791.572C499.915 793.081 503.681 793.939 507.508 794.103C509.524 794.081 511.494 793.503 513.203 792.432C514.075 791.909 514.831 791.212 515.423 790.384C516.015 789.557 516.431 788.617 516.646 787.623C517.355 783.471 513.861 779.269 514.114 774.181C514.368 769.093 515.836 764.739 516.216 760.385C516.506 758.348 516.304 756.271 515.626 754.328C514.947 752.386 513.813 750.635 512.317 749.221C511.556 748.687 510.696 748.31 509.788 748.11C508.88 747.91 507.942 747.892 507.027 748.057C505.201 748.413 503.418 748.964 501.711 749.702L492.167 753.297L478.295 758.36L474.498 759.701C474.067 759.88 473.617 760.007 473.156 760.081C473.539 759.814 473.956 759.601 474.397 759.448L478.118 757.879L491.813 752.335L501.306 748.563C503.086 747.786 504.945 747.2 506.849 746.817C509.001 746.419 511.223 746.892 513.026 748.133C514.814 749.526 516.116 751.449 516.747 753.626C517.434 755.809 517.692 758.104 517.507 760.385C517.102 764.992 515.456 769.447 515.431 774.08C515.481 776.366 515.953 778.623 516.823 780.737C517.782 782.943 518.165 785.355 517.937 787.749C517.691 788.917 517.203 790.02 516.506 790.987C515.808 791.955 514.916 792.766 513.887 793.369C511.997 794.578 509.801 795.219 507.558 795.217C503.581 795 499.677 794.056 496.04 792.432L486.472 788.838L472.675 783.522L468.929 782.028C468.487 781.923 468.055 781.779 467.638 781.598V781.598Z" fill="#263238"/>
<path d="M503.862 770.435C493.183 772.298 482.299 772.698 471.511 771.625C476.885 771.07 482.284 770.8 487.687 770.815C493.068 770.402 498.467 770.275 503.862 770.435V770.435Z" fill="#263238"/>
<path d="M462.17 707.959C462.17 707.959 462.398 708.213 462.677 708.795C463.12 709.612 463.509 710.458 463.841 711.326C465.134 714.587 466.051 717.984 466.575 721.452C468.17 730.16 467.638 742.463 465.284 755.626C463.16 766.86 459.86 777.839 455.437 788.382C453.791 792.432 452.374 795.698 451.386 797.926C450.928 799.107 450.361 800.242 449.69 801.318C449.992 800.087 450.399 798.884 450.906 797.723L454.551 788.053C458.695 777.481 461.855 766.55 463.993 755.398C466.273 744.285 466.836 732.888 465.664 721.604C464.936 716.955 463.766 712.386 462.17 707.959V707.959Z" fill="#263238"/>
<path d="M430.528 708.517C431.201 709.501 431.786 710.543 432.274 711.63L436.805 720.262C439.062 724.54 440.926 729.014 442.375 733.628C444.121 739.311 445.242 745.168 445.716 751.095C446.238 757.046 445.716 763.043 444.172 768.815C442.757 773.454 440.9 777.946 438.628 782.231C436.73 785.902 435.034 788.762 433.818 790.711C433.238 791.758 432.551 792.742 431.768 793.648C432.202 792.531 432.736 791.455 433.363 790.433C434.451 788.408 436.021 785.497 437.793 781.801C439.915 777.522 441.659 773.067 443.007 768.486C444.441 762.833 444.911 756.98 444.4 751.171C443.932 745.338 442.864 739.57 441.21 733.957C439.828 729.384 438.075 724.931 435.97 720.642C434.198 716.946 432.73 713.959 431.819 711.833C431.272 710.776 430.839 709.665 430.528 708.517V708.517Z" fill="#263238"/>
<path d="M434.35 753.702C434.35 753.702 435.717 754.335 437.286 756.234C438.266 757.385 438.804 758.848 438.805 760.36C438.724 761.304 438.414 762.215 437.902 763.013C437.391 763.811 436.693 764.473 435.869 764.942C434.254 765.822 432.391 766.134 430.578 765.828C429.163 765.582 427.795 765.112 426.528 764.435C424.427 763.271 423.313 762.36 423.389 762.208C424.624 762.508 425.816 762.967 426.933 763.575C428.142 764.101 429.421 764.45 430.73 764.612C432.263 764.822 433.824 764.538 435.185 763.802C435.831 763.442 436.384 762.936 436.801 762.326C437.218 761.715 437.488 761.016 437.59 760.284C437.631 759.026 437.257 757.79 436.527 756.765C435.261 754.892 434.198 753.854 434.35 753.702Z" fill="#263238"/>
<path d="M589.398 726.641C589.398 727.046 580.716 726.97 570.109 728.236C559.502 729.502 551.048 731.552 550.946 731.173C552.676 730.349 554.506 729.753 556.389 729.401C560.851 728.259 565.384 727.414 569.957 726.869C574.52 726.342 579.11 726.097 583.703 726.135C585.615 726.06 587.529 726.23 589.398 726.641V726.641Z" fill="#263238"/>
</g>
<defs>
<clipPath id="clip0">
<rect width="782" height="1179" fill="white"/>
</clipPath>
</defs>
</svg>
