<svg width="1280" height="720" viewBox="0 0 1280 720" fill="none" xmlns="http://www.w3.org/2000/svg">
<g clip-path="url(#clip0)">
<path fill-rule="evenodd" clip-rule="evenodd" d="M294.525 -135.811L268.537 -123.117C242.877 -110.687 190.901 -85.2989 175.692 -15.0333C160.483 55.2322 181.386 170.904 141.884 211.075C102.383 251.246 1.82055 216.446 -48.133 198.782L-98.414 181.382L-147 121.193L-125.061 103.483C-103.449 86.0374 -59.5712 50.6175 -16.0204 15.462C27.5304 -19.6936 71.4086 -55.1135 114.959 -90.269C158.51 -125.425 202.388 -160.844 224 -178.29L245.939 -196L294.525 -135.811Z" fill="#273250"/>
<path d="M-109.061 131.483L-131 149.193L-82.414 209.382L-32.133 226.782C17.8205 244.446 118.383 279.246 157.884 239.075C197.386 198.904 176.483 83.2322 191.692 12.9667C206.901 -57.2989 258.877 -82.6873 284.537 -95.1172L310.525 -107.811L261.939 -168L240 -150.29C218.388 -132.844 174.51 -97.4246 130.959 -62.269" stroke="#9055A2" stroke-width="3"/>
<path d="M-89.061 158.483L-111 176.193L-62.414 236.382L-12.133 253.782C37.8205 271.446 138.383 306.246 177.884 266.075C217.386 225.904 196.483 110.232 211.692 39.9667C226.901 -30.2989 278.877 -55.6873 304.537 -68.1172L330.525 -80.8114L281.939 -141L260 -123.29C238.388 -105.844 194.51 -70.4246 150.959 -35.269" stroke="#E8C1C5" stroke-width="3"/>
<path fill-rule="evenodd" clip-rule="evenodd" d="M1097.82 -24.6886L1101.42 4.22352C1104.79 32.9832 1111.98 90.8074 1148.07 103.605C1184.16 116.403 1249.62 84.4783 1280.85 104.755C1312.09 125.031 1309.58 197.814 1308.08 234.053L1306.83 270.444L1423.35 90.9467L1407.61 80.7321C1392.11 70.6701 1360.64 50.241 1329.4 29.9644C1298.17 9.68784 1266.7 -10.7412 1235.46 -31.0178C1204.23 -51.2944 1172.76 -71.7234 1157.25 -81.7855L1141.52 -92L1097.82 -24.6886Z" fill="#273250"/>
<path d="M1332.5 294.5L1281.08 259.053C1282.58 222.814 1285.09 150.031 1253.85 129.755C1222.62 109.478 1157.16 141.403 1121.07 128.605C1084.98 115.807 1077.79 57.9832 1074.42 29.2235L1070.82 0.311373L1114.52 -67L1130.25 -56.7855M1396.35 115.947L1380.61 105.732" stroke="#D499B9" stroke-width="4"/>
<path fill-rule="evenodd" clip-rule="evenodd" d="M-0.394043 460.589L-0.96228 492.86C-1.73841 525.004 -2.87489 589.545 24.7755 606.403C52.4258 623.261 109.279 592.69 132.097 617.475C154.915 642.259 144.113 722.652 138.505 762.722L133.104 802.919L119.175 794.426C105.454 786.06 77.5953 769.075 49.945 752.217C22.2946 735.359 -5.56363 718.374 -33.214 701.515C-60.8643 684.657 -88.7226 667.672 -102.444 659.306L-116.373 650.814L-0.394043 460.589Z" fill="#273250"/>
<circle cx="1193" cy="630" r="200" fill="#273250"/>
<circle cx="1193" cy="630" r="248" stroke="#9055A2" stroke-width="4"/>
<circle cx="199" cy="532" r="159" stroke="#E8C1C5" stroke-width="2"/>
<circle cx="1174" cy="168" r="9" fill="#9055A2" stroke="#9055A2" stroke-width="2"/>
<circle cx="1224" cy="188" r="9" fill="#E8C1C5" stroke="#E8C1C5" stroke-width="2"/>
<circle cx="1174" cy="225" r="9" fill="#D499B9" stroke="#D499B9" stroke-width="2"/>
<circle cx="24" cy="305" r="9" fill="#9055A2" stroke="#9055A2" stroke-width="2"/>
<circle cx="74" cy="325" r="9" fill="#E8C1C5" stroke="#E8C1C5" stroke-width="2"/>
<circle cx="24" cy="362" r="9" fill="#D499B9" stroke="#D499B9" stroke-width="2"/>
<line x1="432.701" y1="301.557" x2="764.13" y2="54.5991" stroke="#9055A2"/>
<line x1="414.701" y1="424.557" x2="746.13" y2="177.599" stroke="#9055A2"/>
<line x1="388.701" y1="553.557" x2="720.13" y2="306.599" stroke="#9055A2"/>
<line x1="248.703" y1="347.082" x2="581.224" y2="101.598" stroke="#9055A2"/>
<path d="M767.789 494.925L769.314 502.946L777.336 501.422L775.811 493.4L767.789 494.925ZM772 499L773.636 500.114L774.761 498.46L773.125 497.347L772 499ZM776.909 502.341L780.182 504.568L781.307 502.915L778.034 500.687L776.909 502.341ZM783.454 506.795L786.727 509.023L787.852 507.369L784.58 505.142L783.454 506.795ZM790 511.25L793.273 513.477L794.398 511.824L791.125 509.597L790 511.25ZM796.545 515.705L799.818 517.932L800.943 516.278L797.671 514.051L796.545 515.705ZM803.091 520.159L806.364 522.386L807.489 520.733L804.216 518.506L803.091 520.159ZM809.636 524.614L812.909 526.841L814.034 525.187L810.761 522.96L809.636 524.614ZM816.182 529.068L819.454 531.295L820.58 529.642L817.307 527.415L816.182 529.068ZM822.727 533.523L826 535.75L827.125 534.097L823.852 531.869L822.727 533.523ZM829.273 537.977L832.545 540.205L833.671 538.551L830.398 536.324L829.273 537.977ZM835.818 542.432L839.091 544.659L840.216 543.006L836.943 540.778L835.818 542.432ZM842.364 546.886L845.636 549.114L846.761 547.46L843.489 545.233L842.364 546.886ZM848.909 551.341L852.182 553.568L853.307 551.915L850.034 549.687L848.909 551.341ZM855.454 555.795L858.727 558.023L859.852 556.369L856.58 554.142L855.454 555.795ZM862 560.25L865.273 562.477L866.398 560.824L863.125 558.597L862 560.25ZM868.545 564.705L871.818 566.932L872.943 565.278L869.671 563.051L868.545 564.705ZM875.091 569.159L878.364 571.386L879.489 569.733L876.216 567.506L875.091 569.159ZM881.636 573.614L884.909 575.841L886.034 574.187L882.762 571.96L881.636 573.614ZM888.182 578.068L891.454 580.295L892.58 578.642L889.307 576.415L888.182 578.068ZM894.727 582.523L898 584.75L899.125 583.097L895.852 580.869L894.727 582.523ZM901.273 586.977L904.545 589.205L905.671 587.551L902.398 585.324L901.273 586.977ZM907.818 591.432L911.091 593.659L912.216 592.006L908.943 589.778L907.818 591.432ZM914.364 595.886L916 597L917.125 595.347L915.489 594.233L914.364 595.886Z" fill="#E8C1C5"/>
<path d="M768.227 392.752L769.752 400.773L777.773 399.248L776.248 391.227L768.227 392.752ZM772.437 396.827L774.074 397.94L775.199 396.287L773.563 395.173L772.437 396.827ZM777.346 400.168L780.619 402.395L781.744 400.741L778.472 398.514L777.346 400.168ZM783.892 404.622L787.165 406.849L788.29 405.196L785.017 402.969L783.892 404.622ZM790.437 409.077L793.71 411.304L794.835 409.651L791.563 407.423L790.437 409.077ZM796.983 413.531L800.256 415.759L801.381 414.105L798.108 411.878L796.983 413.531ZM803.528 417.986L806.801 420.213L807.926 418.56L804.654 416.332L803.528 417.986ZM810.074 422.44L813.346 424.668L814.472 423.014L811.199 420.787L810.074 422.44ZM816.619 426.895L819.892 429.122L821.017 427.469L817.744 425.241L816.619 426.895ZM823.165 431.349L826.437 433.577L827.563 431.923L824.29 429.696L823.165 431.349ZM829.71 435.804L832.983 438.031L834.108 436.378L830.835 434.151L829.71 435.804ZM836.256 440.259L839.528 442.486L840.654 440.832L837.381 438.605L836.256 440.259ZM842.801 444.713L846.074 446.94L847.199 445.287L843.926 443.06L842.801 444.713ZM849.346 449.168L852.619 451.395L853.744 449.741L850.472 447.514L849.346 449.168ZM855.892 453.622L859.165 455.849L860.29 454.196L857.017 451.969L855.892 453.622ZM862.437 458.077L865.71 460.304L866.835 458.651L863.563 456.423L862.437 458.077ZM868.983 462.531L872.256 464.759L873.381 463.105L870.108 460.878L868.983 462.531ZM875.528 466.986L878.801 469.213L879.926 467.56L876.654 465.332L875.528 466.986ZM882.074 471.44L885.346 473.668L886.472 472.014L883.199 469.787L882.074 471.44ZM888.619 475.895L891.892 478.122L893.017 476.469L889.744 474.241L888.619 475.895ZM895.165 480.349L898.437 482.577L899.563 480.923L896.29 478.696L895.165 480.349ZM901.71 484.804L904.983 487.031L906.108 485.378L902.835 483.151L901.71 484.804ZM908.256 489.259L911.528 491.486L912.654 489.832L909.381 487.605L908.256 489.259ZM914.801 493.713L916.437 494.827L917.563 493.173L915.926 492.06L914.801 493.713Z" fill="#E8C1C5"/>
<path d="M1009.23 254.752L1010.75 262.773L1018.77 261.248L1017.25 253.227L1009.23 254.752ZM1013.44 258.827L1015.07 259.94L1016.2 258.287L1014.56 257.173L1013.44 258.827ZM1018.35 262.168L1021.62 264.395L1022.74 262.741L1019.47 260.514L1018.35 262.168ZM1024.89 266.622L1028.16 268.849L1029.29 267.196L1026.02 264.969L1024.89 266.622ZM1031.44 271.077L1034.71 273.304L1035.84 271.651L1032.56 269.423L1031.44 271.077ZM1037.98 275.531L1041.26 277.759L1042.38 276.105L1039.11 273.878L1037.98 275.531ZM1044.53 279.986L1047.8 282.213L1048.93 280.56L1045.65 278.332L1044.53 279.986ZM1051.07 284.44L1054.35 286.668L1055.47 285.014L1052.2 282.787L1051.07 284.44ZM1057.62 288.895L1060.89 291.122L1062.02 289.469L1058.74 287.241L1057.62 288.895ZM1064.16 293.349L1067.44 295.577L1068.56 293.923L1065.29 291.696L1064.16 293.349ZM1070.71 297.804L1073.98 300.031L1075.11 298.378L1071.84 296.151L1070.71 297.804ZM1077.26 302.259L1080.53 304.486L1081.65 302.832L1078.38 300.605L1077.26 302.259ZM1083.8 306.713L1087.07 308.94L1088.2 307.287L1084.93 305.06L1083.8 306.713ZM1090.35 311.168L1093.62 313.395L1094.74 311.741L1091.47 309.514L1090.35 311.168ZM1096.89 315.622L1100.16 317.849L1101.29 316.196L1098.02 313.969L1096.89 315.622ZM1103.44 320.077L1106.71 322.304L1107.84 320.651L1104.56 318.423L1103.44 320.077ZM1109.98 324.531L1113.26 326.759L1114.38 325.105L1111.11 322.878L1109.98 324.531ZM1116.53 328.986L1119.8 331.213L1120.93 329.56L1117.65 327.332L1116.53 328.986ZM1123.07 333.44L1126.35 335.668L1127.47 334.014L1124.2 331.787L1123.07 333.44ZM1129.62 337.895L1132.89 340.122L1134.02 338.469L1130.74 336.241L1129.62 337.895ZM1136.16 342.349L1139.44 344.577L1140.56 342.923L1137.29 340.696L1136.16 342.349ZM1142.71 346.804L1145.98 349.031L1147.11 347.378L1143.84 345.151L1142.71 346.804ZM1149.26 351.259L1152.53 353.486L1153.65 351.832L1150.38 349.605L1149.26 351.259ZM1155.8 355.713L1157.44 356.827L1158.56 355.173L1156.93 354.06L1155.8 355.713Z" fill="#E8C1C5"/>
<path d="M894.227 270.752L895.752 278.773L903.773 277.248L902.248 269.227L894.227 270.752ZM898.437 274.827L900.074 275.94L901.199 274.287L899.563 273.173L898.437 274.827ZM903.346 278.168L906.619 280.395L907.744 278.741L904.472 276.514L903.346 278.168ZM909.892 282.622L913.165 284.849L914.29 283.196L911.017 280.969L909.892 282.622ZM916.437 287.077L919.71 289.304L920.835 287.651L917.563 285.423L916.437 287.077ZM922.983 291.531L926.256 293.759L927.381 292.105L924.108 289.878L922.983 291.531ZM929.528 295.986L932.801 298.213L933.926 296.56L930.654 294.332L929.528 295.986ZM936.074 300.44L939.346 302.668L940.472 301.014L937.199 298.787L936.074 300.44ZM942.619 304.895L945.892 307.122L947.017 305.469L943.744 303.241L942.619 304.895ZM949.165 309.349L952.437 311.577L953.563 309.923L950.29 307.696L949.165 309.349ZM955.71 313.804L958.983 316.031L960.108 314.378L956.835 312.151L955.71 313.804ZM962.256 318.259L965.528 320.486L966.654 318.832L963.381 316.605L962.256 318.259ZM968.801 322.713L972.074 324.94L973.199 323.287L969.926 321.06L968.801 322.713ZM975.346 327.168L978.619 329.395L979.744 327.741L976.472 325.514L975.346 327.168ZM981.892 331.622L985.165 333.849L986.29 332.196L983.017 329.969L981.892 331.622ZM988.437 336.077L991.71 338.304L992.835 336.651L989.563 334.423L988.437 336.077ZM994.983 340.531L998.256 342.759L999.381 341.105L996.108 338.878L994.983 340.531ZM1001.53 344.986L1004.8 347.213L1005.93 345.56L1002.65 343.332L1001.53 344.986ZM1008.07 349.44L1011.35 351.668L1012.47 350.014L1009.2 347.787L1008.07 349.44ZM1014.62 353.895L1017.89 356.122L1019.02 354.469L1015.74 352.241L1014.62 353.895ZM1021.16 358.349L1024.44 360.577L1025.56 358.923L1022.29 356.696L1021.16 358.349ZM1027.71 362.804L1030.98 365.031L1032.11 363.378L1028.84 361.151L1027.71 362.804ZM1034.26 367.259L1037.53 369.486L1038.65 367.832L1035.38 365.605L1034.26 367.259ZM1040.8 371.713L1042.44 372.827L1043.56 371.173L1041.93 370.06L1040.8 371.713Z" fill="#E8C1C5"/>
<path d="M777.227 294.752L778.752 302.773L786.773 301.248L785.248 293.227L777.227 294.752ZM781.437 298.827L783.074 299.94L784.199 298.287L782.563 297.173L781.437 298.827ZM786.346 302.168L789.619 304.395L790.744 302.741L787.472 300.514L786.346 302.168ZM792.892 306.622L796.165 308.849L797.29 307.196L794.017 304.969L792.892 306.622ZM799.437 311.077L802.71 313.304L803.835 311.651L800.563 309.423L799.437 311.077ZM805.983 315.531L809.256 317.759L810.381 316.105L807.108 313.878L805.983 315.531ZM812.528 319.986L815.801 322.213L816.926 320.56L813.654 318.332L812.528 319.986ZM819.074 324.44L822.346 326.668L823.472 325.014L820.199 322.787L819.074 324.44ZM825.619 328.895L828.892 331.122L830.017 329.469L826.744 327.241L825.619 328.895ZM832.165 333.349L835.437 335.577L836.563 333.923L833.29 331.696L832.165 333.349ZM838.71 337.804L841.983 340.031L843.108 338.378L839.835 336.151L838.71 337.804ZM845.256 342.259L848.528 344.486L849.654 342.832L846.381 340.605L845.256 342.259ZM851.801 346.713L855.074 348.94L856.199 347.287L852.926 345.06L851.801 346.713ZM858.346 351.168L861.619 353.395L862.744 351.741L859.472 349.514L858.346 351.168ZM864.892 355.622L868.165 357.849L869.29 356.196L866.017 353.969L864.892 355.622ZM871.437 360.077L874.71 362.304L875.835 360.651L872.563 358.423L871.437 360.077ZM877.983 364.531L881.256 366.759L882.381 365.105L879.108 362.878L877.983 364.531ZM884.528 368.986L887.801 371.213L888.926 369.56L885.654 367.332L884.528 368.986ZM891.074 373.44L894.346 375.668L895.472 374.014L892.199 371.787L891.074 373.44ZM897.619 377.895L900.892 380.122L902.017 378.469L898.744 376.241L897.619 377.895ZM904.165 382.349L907.437 384.577L908.563 382.923L905.29 380.696L904.165 382.349ZM910.71 386.804L913.983 389.031L915.108 387.378L911.835 385.151L910.71 386.804ZM917.256 391.259L920.528 393.486L921.654 391.832L918.381 389.605L917.256 391.259ZM923.801 395.713L925.437 396.827L926.563 395.173L924.926 394.06L923.801 395.713Z" fill="#E8C1C5"/>
</g>
<defs>
<clipPath id="clip0">
<rect width="1280" height="720" fill="white"/>
</clipPath>
</defs>
</svg>
