<svg width="450" height="419" viewBox="0 0 450 419" fill="none" xmlns="http://www.w3.org/2000/svg">
<path d="M284.657 19.0401C143.048 -18.9232 49.944 3.70711 14.8442 53.2236C-13.3448 92.9942 1.08185 127.489 37.3715 193.572C73.6612 259.656 41.9722 297.94 30.9564 354.025C18.9292 415.551 115.533 429.222 204.145 410.994C292.757 392.765 456.101 313.098 449.824 176.305C445.799 88.437 361.222 39.5521 284.657 19.0401Z" fill="#263238"/>
<path d="M125.537 38.425C125.537 38.7264 125.445 39.021 125.274 39.271C125.102 39.5211 124.858 39.7153 124.573 39.8288C124.288 39.9423 123.975 39.9699 123.674 39.9082C123.373 39.8465 123.097 39.6982 122.883 39.4823C122.668 39.2664 122.524 38.9927 122.469 38.6962C122.414 38.3996 122.45 38.0937 122.573 37.8175C122.696 37.5413 122.901 37.3073 123.16 37.1455C123.42 36.9837 123.723 36.9015 124.03 36.9092C124.434 36.9193 124.817 37.0835 125.098 37.3667C125.38 37.6498 125.538 38.0296 125.537 38.425Z" fill="#F0F0F0"/>
<path d="M131.893 39.1829C131.899 39.358 131.852 39.531 131.757 39.6797C131.662 39.8284 131.525 39.9462 131.362 40.0181C131.199 40.0901 131.017 40.1129 130.841 40.0837C130.665 40.0544 130.501 39.9745 130.371 39.8541C130.241 39.7336 130.151 39.578 130.111 39.4071C130.072 39.2361 130.085 39.0576 130.149 38.894C130.214 38.7304 130.326 38.5893 130.472 38.4885C130.619 38.3877 130.792 38.3317 130.971 38.3278C131.209 38.3226 131.439 38.4094 131.612 38.5695C131.784 38.7296 131.885 38.95 131.893 39.1829Z" fill="#FAFAFA"/>
<path d="M374.488 235.976C374.76 235.674 375.142 235.488 375.552 235.459C375.962 235.43 376.367 235.56 376.68 235.82C376.91 236.017 377.075 236.276 377.155 236.565C377.235 236.854 377.227 237.159 377.13 237.443C377.033 237.727 376.853 237.976 376.611 238.16C376.37 238.343 376.079 238.453 375.774 238.474C375.47 238.496 375.166 238.429 374.9 238.281C374.634 238.134 374.419 237.912 374.282 237.645C374.144 237.378 374.09 237.077 374.127 236.78C374.164 236.483 374.29 236.203 374.488 235.976Z" fill="#F0F0F0"/>
<path d="M370.195 231.322C370.354 231.145 370.577 231.037 370.816 231.02C371.056 231.004 371.292 231.081 371.474 231.234C371.564 231.31 371.638 231.402 371.691 231.505C371.745 231.609 371.776 231.722 371.785 231.838C371.793 231.953 371.778 232.07 371.74 232.18C371.702 232.289 371.642 232.391 371.563 232.478C371.405 232.654 371.182 232.763 370.942 232.779C370.703 232.795 370.466 232.719 370.284 232.565C370.194 232.49 370.121 232.398 370.067 232.294C370.014 232.191 369.982 232.078 369.974 231.962C369.966 231.846 369.981 231.73 370.019 231.62C370.057 231.51 370.117 231.409 370.195 231.322Z" fill="#FAFAFA"/>
<path d="M77.3395 372.768C77.5165 372.94 77.6372 373.16 77.6865 373.4C77.7358 373.639 77.7113 373.888 77.6163 374.114C77.5212 374.34 77.3598 374.533 77.1526 374.669C76.9453 374.805 76.7015 374.878 76.4521 374.878C76.2027 374.878 75.9589 374.805 75.7516 374.669C75.5444 374.533 75.383 374.34 75.2879 374.114C75.1929 373.888 75.1684 373.639 75.2177 373.4C75.267 373.16 75.3877 372.94 75.5647 372.768C75.8018 372.541 76.1204 372.414 76.4521 372.414C76.7838 372.414 77.1024 372.541 77.3395 372.768Z" fill="#FAFAFA"/>
<path d="M88.97 378.161C89.2615 378.437 89.4628 378.793 89.5484 379.181C89.6341 379.57 89.6002 379.975 89.4512 380.345C89.3021 380.714 89.0445 381.033 88.711 381.259C88.3775 381.486 87.9829 381.61 87.5772 381.617C87.1715 381.624 86.7729 381.512 86.4316 381.297C86.0904 381.082 85.8219 380.773 85.6601 380.408C85.4982 380.043 85.4503 379.64 85.5224 379.249C85.5944 378.857 85.7832 378.496 86.0649 378.209C86.2522 378.019 86.4761 377.867 86.7236 377.761C86.971 377.656 87.2373 377.599 87.5072 377.595C87.777 377.59 88.0451 377.638 88.2961 377.735C88.5472 377.832 88.7762 377.977 88.97 378.161Z" fill="#FAFAFA"/>
<path d="M310.634 322.513C310.636 322.913 310.517 323.305 310.292 323.639C310.066 323.972 309.745 324.233 309.368 324.387C308.992 324.542 308.577 324.583 308.176 324.506C307.775 324.429 307.407 324.238 307.117 323.955C306.828 323.673 306.631 323.313 306.55 322.921C306.47 322.528 306.51 322.122 306.666 321.752C306.822 321.382 307.086 321.066 307.425 320.843C307.765 320.621 308.164 320.502 308.572 320.502C309.117 320.502 309.64 320.713 310.027 321.09C310.413 321.467 310.632 321.979 310.634 322.513Z" fill="#FAFAFA"/>
<path d="M304.487 328.013C304.487 328.252 304.415 328.485 304.279 328.683C304.144 328.882 303.951 329.036 303.726 329.127C303.5 329.218 303.253 329.241 303.014 329.194C302.775 329.147 302.556 329.031 302.385 328.861C302.213 328.692 302.097 328.476 302.051 328.242C302.004 328.008 302.03 327.765 302.125 327.545C302.219 327.325 302.378 327.138 302.582 327.006C302.785 326.875 303.024 326.806 303.267 326.808C303.592 326.811 303.902 326.939 304.13 327.164C304.359 327.39 304.487 327.695 304.487 328.013Z" fill="#FAFAFA"/>
<path d="M301.017 320.502C301.017 320.694 300.959 320.882 300.85 321.042C300.741 321.201 300.586 321.326 300.405 321.4C300.223 321.473 300.024 321.492 299.832 321.455C299.639 321.417 299.463 321.325 299.324 321.189C299.185 321.053 299.091 320.88 299.053 320.691C299.014 320.503 299.034 320.308 299.109 320.13C299.184 319.952 299.311 319.801 299.474 319.694C299.637 319.587 299.829 319.53 300.025 319.53C300.288 319.53 300.54 319.633 300.726 319.815C300.912 319.997 301.017 320.244 301.017 320.502Z" fill="#FAFAFA"/>
<path d="M239.443 66.7881C239.445 67.0345 239.372 67.276 239.234 67.4818C239.096 67.6876 238.898 67.8485 238.667 67.9441C238.435 68.0397 238.18 68.0658 237.933 68.0189C237.686 67.972 237.459 67.8543 237.28 67.6808C237.102 67.5072 236.98 67.2856 236.93 67.0441C236.88 66.8026 236.905 66.552 237.001 66.3242C237.096 66.0963 237.259 65.9015 237.468 65.7644C237.677 65.6273 237.923 65.5541 238.174 65.5541C238.34 65.5528 238.505 65.5838 238.659 65.6452C238.813 65.7067 238.953 65.7974 239.071 65.9121C239.189 66.0268 239.283 66.1633 239.346 66.3137C239.41 66.464 239.443 66.6253 239.443 66.7881Z" fill="#FAFAFA"/>
<path d="M245.363 50.6194L248.208 53.3596L252.125 52.6211C252.208 52.6068 252.294 52.6156 252.372 52.6463C252.451 52.677 252.519 52.7284 252.57 52.795C252.62 52.8615 252.651 52.9404 252.658 53.023C252.665 53.1055 252.649 53.1884 252.611 53.2624L250.826 56.7604L252.75 60.1807C252.791 60.2537 252.812 60.3367 252.808 60.4203C252.804 60.504 252.776 60.5848 252.727 60.6537C252.679 60.7225 252.611 60.7766 252.533 60.8098C252.454 60.843 252.368 60.854 252.284 60.8414L248.318 60.2487L245.581 63.1055C245.524 63.1673 245.45 63.212 245.368 63.2341C245.286 63.2563 245.2 63.2551 245.118 63.2306C245.037 63.2061 244.965 63.1593 244.91 63.0958C244.855 63.0324 244.819 62.9548 244.808 62.8723L244.153 58.9856L240.544 57.324C240.466 57.2893 240.4 57.2333 240.353 57.1627C240.306 57.092 240.282 57.0097 240.282 56.9256C240.282 56.8415 240.306 56.7592 240.353 56.6886C240.4 56.6179 240.466 56.5619 240.544 56.5272L244.084 54.7296L244.589 50.8429C244.603 50.7612 244.639 50.6848 244.695 50.6226C244.75 50.5603 244.823 50.5149 244.904 50.4915C244.985 50.4681 245.071 50.4677 245.152 50.4903C245.234 50.513 245.307 50.5578 245.363 50.6194Z" fill="#FAFAFA"/>
<path d="M255.06 238.541L255.496 241.544L258.262 242.875C258.324 242.901 258.376 242.945 258.413 243C258.449 243.055 258.469 243.12 258.469 243.186C258.469 243.252 258.449 243.316 258.413 243.371C258.376 243.426 258.324 243.47 258.262 243.497L255.496 244.838L255.05 247.83C255.04 247.893 255.013 247.953 254.971 248.001C254.928 248.05 254.873 248.086 254.811 248.105C254.749 248.124 254.683 248.126 254.62 248.11C254.557 248.094 254.5 248.061 254.455 248.015L252.293 245.848L249.259 246.363C249.194 246.374 249.127 246.367 249.065 246.342C249.004 246.318 248.951 246.277 248.912 246.225C248.872 246.172 248.849 246.11 248.844 246.045C248.839 245.98 248.852 245.916 248.883 245.858L250.32 243.186L248.883 240.504C248.855 240.447 248.843 240.383 248.85 240.32C248.856 240.256 248.88 240.196 248.919 240.145C248.958 240.094 249.01 240.054 249.07 240.03C249.13 240.006 249.195 239.999 249.259 240.008L252.303 240.523L254.455 238.356C254.501 238.311 254.559 238.279 254.622 238.263C254.686 238.248 254.752 238.25 254.814 238.269C254.877 238.288 254.933 238.323 254.976 238.371C255.019 238.419 255.048 238.478 255.06 238.541Z" fill="#FAFAFA"/>
<path d="M361.222 139.819L324.972 119.307L353.161 103.352L357.196 105.636L353.161 112.467L361.222 139.819Z" fill="#2C3639"/>
<path d="M357.197 105.636V107.909L353.617 113.992L353.161 112.466L357.197 105.636Z" fill="#2C3639"/>
<path opacity="0.1" d="M357.197 105.636V107.909L353.617 113.992L353.161 112.466L357.197 105.636Z" fill="black"/>
<path d="M307.462 109.367C305.826 108.211 303.496 108.259 300.809 109.775C295.92 112.593 291.994 119.375 292.044 124.933C292.044 127.459 292.906 129.306 294.274 130.277L292.083 129.306C290.269 128.451 289.109 126.391 289.109 123.417C289.109 117.714 293.075 110.786 298.112 107.871C300.908 106.267 303.406 106.258 305.052 107.55L307.462 109.367Z" fill="#2C3639"/>
<path d="M316.167 116.003L305.816 135.252L296 131.016L294.304 130.277C292.936 129.306 292.093 127.459 292.073 124.933C292.024 119.375 295.95 112.593 300.839 109.775C303.476 108.259 305.856 108.211 307.492 109.367L307.829 109.629L316.167 116.003Z" fill="#455A64"/>
<path d="M308.602 130.073L307.858 125.934L293.501 118.52C292.589 120.542 292.104 122.723 292.073 124.933C292.073 127.459 292.936 129.306 294.304 130.277L296 131.016L305.816 135.252L308.602 130.073Z" fill="#37474F"/>
<path d="M421.179 182.68C418.667 176.774 415.505 171.153 411.75 165.918C405.345 157.057 397.194 148.176 393.03 145.513C385.009 140.334 320.649 111.728 320.649 111.728C318.497 110.756 315.691 111.048 312.568 112.836C305.925 116.654 300.59 125.876 300.67 133.435C300.67 136.885 301.86 139.372 303.734 140.713C303.734 140.713 353.528 176.451 370.76 184.438C378.762 188.14 389.599 189.297 398.91 189.53H399.901C406.054 189.626 412.206 189.347 418.324 188.694C419.253 188.587 420.109 188.148 420.729 187.462C421.349 186.775 421.689 185.889 421.685 184.973C421.645 184.187 421.474 183.412 421.179 182.68Z" fill="#FAFAFA"/>
<path d="M312.598 112.826C309.978 114.41 307.714 116.499 305.945 118.967L356.046 138.187L358.337 136.885L314.462 111.932C313.82 112.187 313.197 112.485 312.598 112.826Z" fill="#F0F0F0"/>
<path d="M418.343 188.665C419.146 188.572 419.898 188.231 420.49 187.691C421.082 187.151 421.483 186.441 421.635 185.663C417.243 187.995 394.041 183.389 385.385 179.502C378.564 176.442 341.084 153.491 341.084 153.491L304.834 130.705L301.285 128.664C300.883 130.221 300.68 131.82 300.68 133.426C300.68 136.875 301.87 139.362 303.743 140.703C303.743 140.703 353.538 176.442 370.77 184.429C378.772 188.131 389.609 189.287 398.92 189.52H399.911C406.064 189.617 412.216 189.338 418.334 188.685L418.343 188.665Z" fill="#F0F0F0"/>
<path d="M324.893 113.584C322.811 113.079 320.272 113.584 317.536 115.129C310.595 119.132 304.993 128.781 305.052 136.69C304.966 138.902 305.59 141.084 306.837 142.929L303.734 140.713C301.86 139.372 300.7 136.885 300.67 133.435C300.61 125.876 305.945 116.654 312.568 112.836C315.672 111.048 318.517 110.776 320.649 111.728L324.893 113.584Z" fill="#2C3639"/>
<path opacity="0.1" d="M314.462 111.932C313.82 112.187 313.197 112.485 312.598 112.826C309.978 114.41 307.714 116.499 305.945 118.967L311.061 120.91C312.827 118.587 315.023 116.609 317.535 115.08C317.992 114.828 318.438 114.604 318.874 114.4L314.462 111.932Z" fill="black"/>
<path opacity="0.1" d="M305.875 142.297L306.867 142.977C305.631 141.128 305.011 138.948 305.092 136.739C305.097 134.92 305.347 133.11 305.836 131.356L304.844 130.753L301.294 128.713C301.215 129.053 301.136 129.393 301.066 129.743L301.007 130.073C300.957 130.365 300.908 130.656 300.868 130.938C300.828 131.22 300.868 131.346 300.799 131.56C300.729 131.774 300.799 131.978 300.729 132.192C300.729 132.629 300.68 133.056 300.729 133.474C300.729 136.924 301.919 139.411 303.793 140.752L305.875 142.297Z" fill="black"/>
<path d="M304.834 130.695L341.084 151.207L292.748 146.65L280.671 148.933L276.645 146.65L304.834 130.695Z" fill="#2C3639"/>
<path d="M276.645 146.65V148.933L280.671 151.207L292.748 148.933L341.084 153.491V151.207L292.748 146.65L280.671 148.933L276.645 146.65Z" fill="#2C3639"/>
<path d="M315.771 115.401L356.046 138.187L323.822 92.6152L319.796 81.2175L315.771 78.9341V115.401Z" fill="#2C3639"/>
<path opacity="0.15" d="M315.771 115.401L356.046 138.187L323.822 92.6152L319.796 81.2175L315.771 78.9341V115.401Z" fill="black"/>
<path d="M318.061 77.6417L315.771 78.9341L319.796 81.2175L323.822 92.6152L356.046 138.187L358.337 136.885L326.122 91.3132L322.087 79.9154L318.061 77.6417Z" fill="#2C3639"/>
<path d="M421.705 184.944C421.655 184.166 421.478 183.402 421.179 182.68C419.722 179.201 418.016 175.827 416.073 172.584C409.549 170.641 403.183 184.429 406.802 189.472C413.594 189.268 418.334 188.685 418.334 188.685C419.268 188.579 420.129 188.139 420.751 187.448C421.374 186.757 421.713 185.865 421.705 184.944Z" fill="#2C3639"/>
<path opacity="0.1" d="M322.087 79.9155L319.796 81.2175L323.822 92.6152L326.122 91.3132L322.087 79.9155Z" fill="black"/>
<path opacity="0.05" d="M326.122 91.3132L358.337 136.885L356.046 138.187L323.822 92.6152L326.122 91.3132Z" fill="black"/>
<path opacity="0.15" d="M276.645 146.65L280.671 148.933V151.207L276.645 148.933V146.65Z" fill="black"/>
<path opacity="0.05" d="M292.748 148.933V146.65L341.084 151.207V153.491L292.748 148.933Z" fill="black"/>
<path opacity="0.1" d="M292.748 146.65L280.671 148.933V151.207L292.748 148.933V146.65Z" fill="black"/>
<path opacity="0.1" d="M419.196 188.461L419.593 188.296L419.821 188.17L420.138 187.966L420.356 187.8L420.624 187.548L420.813 187.353L421.031 187.062L421.179 186.838C421.245 186.73 421.302 186.616 421.348 186.498C421.388 186.422 421.425 186.345 421.457 186.265C421.536 186.074 421.596 185.875 421.635 185.672C419.504 186.8 412.95 186.304 405.771 185.041C405.606 186.587 405.954 188.144 406.763 189.481H407.814H408.151L409.142 189.433H409.311L412.385 189.258H412.444L413.366 189.19L416.341 188.947H416.529L417.759 188.821H417.897H418.086H418.175H418.344C418.563 188.8 418.779 188.754 418.988 188.685L419.196 188.461Z" fill="black"/>
<path opacity="0.1" d="M290.546 117.033C289.649 119.066 289.17 121.252 289.138 123.466C289.138 126.459 290.308 128.499 292.113 129.354L294.304 130.326C292.936 129.354 292.093 127.508 292.073 124.982C292.104 122.772 292.589 120.59 293.501 118.569L290.546 117.033Z" fill="black"/>
<path d="M400.546 153.491C400.546 153.491 396.243 152.111 389.411 155.492C385.025 157.666 381.362 161.019 378.851 165.16L388.945 169.718C388.945 169.718 396.52 162.265 406.029 160.049C404.435 157.685 402.598 155.487 400.546 153.491Z" fill="#455A64"/>
<path d="M358.337 165.617C358.322 164.212 358.448 162.81 358.714 161.429C359.16 159.136 358.803 156.716 357.197 155.803C355.59 154.89 353.449 155.861 352.953 158.116C352.67 159.479 352.514 160.864 352.487 162.255L358.337 165.617Z" fill="#E0E0E0"/>
<path d="M352.992 161.866L352.457 161.653C351.963 161.455 351.456 161.289 350.94 161.157C348.968 160.612 346.905 160.46 344.872 160.71C343.319 160.91 341.823 161.412 340.471 162.186C339.12 162.96 337.939 163.991 336.999 165.219L336.583 165.753L336.474 165.889V165.967L336.295 166.278C336.077 166.705 335.799 167.133 335.621 167.57C335.259 168.465 334.964 169.384 334.739 170.32C334.229 172.419 333.858 174.548 333.628 176.694C333.112 181.212 332.835 186.149 332.399 191.396C332.151 194.019 331.923 196.72 331.466 199.48C331.07 202.355 330.335 205.176 329.275 207.885C328.047 210.713 326.21 213.249 323.891 215.318C321.537 217.426 318.795 219.075 315.81 220.177C312.834 221.345 309.702 222.091 306.51 222.392C303.32 222.717 300.106 222.737 296.912 222.45C290.611 221.761 284.43 220.262 278.529 217.99C272.788 215.843 267.176 213.841 261.673 212.16C256.419 210.479 251.056 209.141 245.621 208.157C244.342 207.875 243.053 207.759 241.803 207.574C240.554 207.389 239.305 207.234 238.085 207.176C236.866 207.117 235.666 206.972 234.496 206.942H231.035C226.956 207.008 222.899 207.546 218.949 208.546L216.401 209.197L214.11 210.032L211.998 210.79C211.344 211.082 210.739 211.393 210.154 211.665C208.994 212.248 207.923 212.685 207.06 213.2L204.879 214.521L203.055 215.619L200.288 211.587L202.271 210.421L204.691 209.022C205.682 208.487 206.832 208.05 208.121 207.409C208.766 207.127 209.44 206.797 210.164 206.505L212.494 205.699L215.032 204.844L217.828 204.183C222.13 203.186 226.536 202.69 230.956 202.706L234.654 202.784C235.904 202.852 237.163 203.007 238.452 203.114C239.741 203.221 241.04 203.405 242.359 203.619C243.677 203.833 245.016 203.988 246.325 204.299C251.905 205.425 257.404 206.911 262.784 208.75C268.356 210.596 274.038 212.753 279.709 215.007C285.304 217.295 291.181 218.854 297.19 219.642C300.186 219.967 303.208 220.006 306.212 219.759C309.174 219.546 312.089 218.917 314.868 217.893C317.596 216.939 320.113 215.485 322.285 213.608C324.405 211.805 326.097 209.57 327.243 207.059C328.276 204.526 329.008 201.885 329.424 199.188C329.92 196.516 330.217 193.854 330.515 191.26C331.06 186.061 331.427 181.106 332.051 176.539C332.332 174.334 332.759 172.149 333.331 169.999C333.607 168.968 333.961 167.957 334.391 166.977C334.6 166.501 334.877 166.113 335.105 165.685L335.294 165.374V165.296L335.353 165.209L335.472 165.063L335.928 164.49C337.084 163.061 338.533 161.886 340.182 161.041C341.584 160.335 343.106 159.887 344.674 159.719C346.845 159.492 349.04 159.697 351.128 160.321C351.681 160.47 352.221 160.658 352.745 160.885L353.27 161.109L352.992 161.866Z" fill="#E0E0E0"/>
<path d="M130.971 289.564C124.377 290.914 117.645 292.08 116.961 295.909C116.277 299.737 122.037 306.966 135.145 303.906C148.253 300.845 149.274 296.064 148.412 292.508C147.549 288.952 136.177 288.495 130.971 289.564Z" fill="#263238"/>
<path d="M224.233 277.981C220.634 277.729 214.903 284.093 210.759 289.058C206.614 294.024 203.084 298.999 204.264 301.02C205.444 303.041 209.767 307.559 218.433 301.622C227.099 295.685 229.568 287.815 229.399 284.288C229.231 280.76 227.317 278.205 224.233 277.981Z" fill="#263238"/>
<path d="M143.355 271.267C142.696 272.742 142.348 274.332 142.332 275.942C142.317 277.551 142.635 279.148 143.266 280.634C148.6 293.382 146.409 314.497 146.24 326.021C135.512 334.154 127.005 327.401 127.005 327.401C127.005 327.401 114.651 278.04 114.254 272.015C113.669 262.901 116.782 250.638 122.583 238.269C127.022 228.558 131.962 219.075 137.386 209.857L198.325 213.744C200.854 220.105 202.543 226.756 203.352 233.537C204.572 244.361 205.335 258.052 208.31 266.895C208.833 268.422 209.667 269.829 210.761 271.031C211.855 272.234 213.187 273.206 214.675 273.891C227.367 279.818 240.227 296.89 248.04 305.499C245.64 318.617 234.674 319.258 234.674 319.258C234.674 319.258 191.662 290.856 187.24 286.649C180.547 280.274 174.201 271.325 169.997 258.324C165.793 245.323 163.235 238.959 163.235 238.959C163.235 238.959 147.212 262.784 143.355 271.267Z" fill="#F0F0F0"/>
<path d="M119.42 301.651C119.42 301.651 123.019 315.255 123.188 319.083C123.327 322.29 122.345 324.816 118.141 327.469C112.103 331.278 102.792 335.33 96.7835 339.828C92.9463 342.743 93.5016 346.98 99.6688 349.545C103.456 351.1 111.27 352.859 120.858 349.545C126.083 347.748 132.488 342.073 136.94 341.82C141.392 341.568 149.146 341.276 151.734 337.321C152.596 331.142 149.82 326.303 149.146 322.183C148.015 315.381 148.273 301.71 148.214 297.551C148.214 297.551 144.495 303.031 134.332 304.353C124.169 305.674 119.42 301.651 119.42 301.651Z" fill="#455A64"/>
<path d="M147.163 292.906C147.41 295.005 146.389 297.114 143.752 299.038C138.477 302.866 129.315 303.896 123.287 301.34C120.501 300.165 118.875 298.425 118.448 296.482C118.448 296.482 118.131 294.918 118.894 294.257L118.26 291.556C117.419 291.913 116.696 292.492 116.171 293.228C115.646 293.964 115.34 294.828 115.285 295.724C115.186 297.774 116.277 302.691 122.821 305.13C129.365 307.569 140.242 306.325 145.626 302.302C150.514 298.639 150.683 293.353 149.721 291.216C149.389 290.408 148.813 289.719 148.071 289.241C147.328 288.764 146.454 288.52 145.566 288.543L145.983 291.099C146.309 291.289 146.586 291.552 146.791 291.866C146.996 292.179 147.123 292.536 147.163 292.906Z" fill="#2C3639"/>
<path d="M210.818 304.693C210.818 304.693 221.616 312.33 224.382 315.08C226.683 317.373 227.674 319.938 226.365 324.622C224.482 331.423 221.081 337.632 219.692 344.92C218.81 349.574 222.151 352.382 228.448 350.206C232.324 348.875 238.036 346.018 244.173 338.089C248.07 333.056 248.139 326.108 251.262 322.989C254.386 319.87 258.659 313.788 257.876 309.153C254.297 303.993 250.211 303.012 246.89 300.408C241.377 296.074 232.245 285.832 229.36 282.743C229.36 282.743 230.351 289.243 223.678 296.88C217.005 304.518 210.818 304.693 210.818 304.693Z" fill="#455A64"/>
<path d="M225.433 279.993C227.049 281.382 227.733 283.617 227.089 286.794C225.8 293.11 219.702 299.893 213.485 301.953C210.6 302.924 208.201 302.681 206.545 301.535C206.545 301.535 205.226 300.612 205.345 299.591L202.985 297.978C202.615 298.802 202.482 299.709 202.601 300.602C202.72 301.494 203.086 302.338 203.659 303.041C204.998 304.615 209.162 307.559 215.696 305.072C222.231 302.584 229.439 294.519 230.678 287.999C231.799 282.072 228.309 278.04 226.127 277.078C225.319 276.685 224.41 276.541 223.517 276.662C222.624 276.783 221.789 277.165 221.12 277.758L223.371 279.468C223.732 279.38 224.11 279.382 224.47 279.473C224.83 279.565 225.161 279.744 225.433 279.993Z" fill="#2C3639"/>
<path d="M148.174 227.989C148.174 227.989 151.704 235.869 155.71 239.25C155.71 239.25 148.6 255.613 145.11 263.542C141.62 271.471 142.354 276.524 142.354 276.524C142.267 274.711 142.606 272.902 143.345 271.238C147.202 262.716 163.176 238.93 163.176 238.93C163.176 238.93 156.156 236.219 148.174 227.989Z" fill="#E0E0E0"/>
<path d="M88.0183 152.558C87.3639 151.295 86.5409 144.95 86.7987 141.442C87.0268 138.449 84.2505 137.176 82.446 139.605C80.6414 142.035 81.0678 144.094 80.1258 143.628C79.1839 143.162 77.4983 138.692 76.3779 134.601C75.3863 130.919 71.6681 124.816 65.3125 131.132C58.9568 137.448 62.3379 146.971 64.4994 151.926C66.661 156.882 73.0761 163.256 77.1017 165.034L88.0183 152.558Z" fill="#455A64"/>
<path d="M90.2394 156.231C91.33 154.355 88.8909 152.344 86.2733 152.159C84.743 152.129 83.2228 152.408 81.8071 152.978C80.3914 153.548 79.1104 154.397 78.0437 155.473C75.0691 158.3 73.9289 162.585 75.0691 165.821C76.3383 169.494 79.3525 168.901 79.3525 168.901L90.2394 156.231Z" fill="#2C3639"/>
<path d="M147.827 165.005C144.476 170.058 130.852 181.825 125.319 185.828C119.787 189.831 113.223 192.834 109.336 192.727C106.084 192.639 93.4717 186.527 79.3227 168.901C78.123 167.405 77.0422 164.801 77.3397 162.984C78.1924 158.378 81.0777 155.842 84.905 155.035C85.8228 154.883 86.7622 154.911 87.6692 155.116C88.5761 155.321 89.4328 155.7 90.1898 156.231C94.483 159.942 104.795 169.494 108.949 170.534C113.907 169.319 119.241 162.585 123.941 157.057C128.641 151.528 135.324 141.17 141.283 142.598C153.875 145.61 151.347 162.498 147.827 165.005Z" fill="#F0F0F0"/>
<path d="M137.674 202.91C135.691 204.367 135.691 208.487 138.516 211.412C141.342 214.337 149.631 220.303 163.086 222.1C178.187 224.102 190.105 219.798 195.807 215.979C201.706 212.024 198.464 208.079 198.464 208.079L137.674 202.91Z" fill="#2C3639"/>
<path d="M178.225 145.68C196.195 138.385 204.729 118.196 197.285 100.585C189.842 82.9749 169.24 74.6121 151.27 81.9066C133.3 89.2011 124.766 109.391 132.21 127.001C139.653 144.612 160.255 152.974 178.225 145.68Z" fill="#455A64"/>
<path d="M157.554 154.307C158.248 163.489 152.378 171.398 144.456 171.972C136.533 172.545 131.705 165.17 131.011 155.988C130.317 146.805 135.502 137.73 142.126 139.868C150.068 139.693 156.85 145.124 157.554 154.307Z" fill="#2C3639"/>
<path opacity="0.1" d="M157.554 154.307C158.248 163.489 152.378 171.398 144.456 171.972C136.533 172.545 131.705 165.17 131.011 155.988C130.317 146.805 135.502 137.73 142.126 139.868C150.068 139.693 156.85 145.124 157.554 154.307Z" fill="black"/>
<path d="M141.084 139.829C138.625 142.287 135.413 148.943 136.305 158.971C136.93 166.074 139.538 172.574 138.873 180.843C138.407 186.566 134.996 195.418 137.674 202.91C139.082 206.845 148.511 214.657 162.828 217.388C177.146 220.118 195.846 213.686 199.207 206.855C202.697 199.771 203.729 181.416 203.015 172.594C202.301 163.771 199.981 145.805 192.445 138.148C171.504 126.157 155.223 129.296 141.084 139.829Z" fill="#FAFAFA"/>
<path d="M156.939 122.591C164.989 122.591 171.514 116.196 171.514 108.308C171.514 100.419 164.989 94.0241 156.939 94.0241C148.889 94.0241 142.364 100.419 142.364 108.308C142.364 116.196 148.889 122.591 156.939 122.591Z" fill="#263238"/>
<path d="M182.124 118.462C182.124 118.462 179.764 129.335 178.822 131.093C178.189 132.195 177.149 133.016 175.917 133.387L176.085 125.74L182.124 118.462Z" fill="#263238"/>
<path d="M179.169 102.886C179.994 102.792 180.831 102.884 181.614 103.155C182.398 103.426 183.108 103.869 183.69 104.45C185.673 106.394 184.553 112.496 182.124 118.462L177.682 118.967L179.169 102.886Z" fill="#263238"/>
<path d="M176.343 118.977C177.235 119.501 178.514 117.82 179.615 116.693C180.716 115.566 184.305 114.021 186.09 117.723C187.874 121.425 184.513 126.468 181.687 127.343C176.809 128.839 176.085 125.778 176.085 125.778L175.659 139.839C175.659 139.839 176.779 143.191 168.143 144.337C159.507 145.484 156.969 142.802 159.804 139.382L159.874 137.302C157.704 137.64 155.504 137.75 153.31 137.633C149.721 137.089 147.47 134.319 146.369 130.52C144.624 124.418 143.96 119.482 145.447 107.482C147.063 94.3254 162.69 94.1796 171.118 99.3878C179.546 104.596 176.343 118.977 176.343 118.977Z" fill="#FFA8A7"/>
<path d="M176.343 120.434C176.799 120.434 178.505 117.675 179.615 116.684C181.142 115.323 179.199 103.08 179.169 102.886C179.06 102.244 179.318 101.555 179.169 100.826C178.956 99.921 178.598 99.0551 178.108 98.2606C177.166 96.6865 175.53 95.88 173.944 94.9472C171.203 93.3343 168.047 92.525 164.851 92.6152C161.639 92.6152 159.279 93.2079 155.224 94.0241C151.843 94.714 147.589 95.2776 144.317 94.2379C142.126 93.548 142.334 96.6088 143.127 99.174C143.72 100.965 144.772 102.577 146.181 103.857C148.164 105.801 151.823 106.87 154.48 106.996C161.53 107.355 169.224 105.83 170.444 105.665C172.099 105.441 172.555 105.956 173.418 110.251C174.191 114.021 174.836 120.405 176.343 120.434Z" fill="#263238"/>
<path d="M179.159 103.857L184.553 101.02C184.381 100.663 184.137 100.345 183.836 100.083C183.535 99.8212 183.183 99.6221 182.801 99.4976C182.419 99.3732 182.015 99.326 181.614 99.3589C181.213 99.3917 180.823 99.5041 180.468 99.689C179.744 100.086 179.205 100.74 178.961 101.516C178.717 102.293 178.788 103.131 179.159 103.857Z" fill="#263238"/>
<path d="M159.874 137.293C159.874 137.293 167.866 135.709 170.662 134.251C172.307 133.416 173.655 132.112 174.529 130.51C174.105 132.112 173.36 133.615 172.337 134.932C170.295 137.487 159.804 139.372 159.804 139.372L159.874 137.293Z" fill="#F28F8F"/>
<path d="M161.292 118.442C161.303 118.751 161.408 119.05 161.592 119.301C161.776 119.553 162.031 119.745 162.326 119.855C162.621 119.965 162.942 119.987 163.25 119.92C163.558 119.852 163.838 119.696 164.057 119.473C164.275 119.25 164.421 118.968 164.478 118.664C164.534 118.36 164.497 118.046 164.373 117.762C164.248 117.478 164.041 117.236 163.777 117.067C163.513 116.898 163.204 116.808 162.888 116.81C162.674 116.814 162.462 116.859 162.266 116.943C162.069 117.027 161.892 117.149 161.743 117.301C161.595 117.452 161.479 117.631 161.401 117.827C161.324 118.023 161.286 118.232 161.292 118.442Z" fill="#263238"/>
<path d="M162.987 112.515L166.418 114.371C166.664 113.911 166.718 113.374 166.568 112.876C166.418 112.377 166.076 111.955 165.615 111.699C165.389 111.577 165.14 111.502 164.884 111.477C164.627 111.452 164.368 111.479 164.122 111.555C163.877 111.632 163.649 111.756 163.454 111.921C163.259 112.086 163.1 112.288 162.987 112.515Z" fill="#263238"/>
<path d="M160.598 127.858L156.939 129.199C157.018 129.44 157.146 129.663 157.315 129.855C157.485 130.047 157.692 130.203 157.924 130.315C158.156 130.427 158.409 130.491 158.668 130.505C158.926 130.518 159.184 130.481 159.428 130.394C159.917 130.199 160.311 129.827 160.529 129.355C160.747 128.883 160.771 128.347 160.598 127.858Z" fill="#F28F8F"/>
<path d="M146.994 113.827L150.127 111.466C149.98 111.258 149.791 111.082 149.572 110.949C149.353 110.815 149.108 110.727 148.853 110.689C148.598 110.65 148.338 110.663 148.088 110.727C147.838 110.79 147.605 110.903 147.401 111.058C146.985 111.381 146.712 111.848 146.637 112.363C146.561 112.878 146.689 113.401 146.994 113.827Z" fill="#263238"/>
<path d="M147.956 118.005C147.968 118.314 148.072 118.612 148.255 118.863C148.438 119.114 148.693 119.307 148.988 119.417C149.282 119.527 149.603 119.55 149.91 119.483C150.218 119.416 150.499 119.262 150.717 119.039C150.936 118.817 151.083 118.537 151.14 118.233C151.198 117.929 151.163 117.616 151.04 117.332C150.916 117.047 150.711 116.805 150.448 116.634C150.185 116.464 149.877 116.373 149.562 116.373C149.347 116.376 149.135 116.422 148.938 116.506C148.741 116.59 148.563 116.711 148.414 116.863C148.265 117.014 148.148 117.193 148.069 117.389C147.99 117.585 147.952 117.794 147.956 118.005Z" fill="#263238"/>
<path d="M156.632 115.071L156.106 124.515L151.069 122.834L156.632 115.071Z" fill="#F28F8F"/>
<path d="M164.742 148.826C157.67 148.826 150.757 146.771 144.877 142.921C138.997 139.07 134.415 133.597 131.709 127.194C129.003 120.791 128.295 113.746 129.676 106.949C131.056 100.152 134.462 93.9084 139.464 89.0085C144.465 84.1087 150.837 80.7723 157.773 79.4215C164.709 78.0706 171.899 78.7659 178.432 81.4193C184.965 84.0728 190.548 88.5653 194.476 94.3286C198.403 100.092 200.498 106.867 200.497 113.798C200.483 123.086 196.712 131.989 190.009 138.556C183.307 145.123 174.22 148.816 164.742 148.826ZM164.742 79.8377C157.879 79.8377 151.169 81.8322 145.462 85.5692C139.755 89.3061 135.307 94.6175 132.681 100.832C130.054 107.046 129.367 113.884 130.706 120.481C132.045 127.078 135.35 133.138 140.203 137.894C145.057 142.65 151.24 145.889 157.972 147.201C164.704 148.514 171.681 147.84 178.023 145.266C184.364 142.692 189.784 138.333 193.597 132.74C197.41 127.148 199.446 120.573 199.446 113.846C199.451 109.377 198.557 104.95 196.815 100.82C195.074 96.6892 192.518 92.9355 189.295 89.7734C186.072 86.6113 182.245 84.1028 178.032 82.3913C173.819 80.6798 169.303 79.7988 164.742 79.7988V79.8377Z" fill="#2C3639"/>
<path d="M184.315 148.622C173.507 154.744 155.987 154.744 145.17 148.622C138.318 144.736 135.473 140.441 137.317 135.447C143.266 143.881 153.508 148.311 164.742 148.311C175.976 148.311 186.129 144.007 192.059 135.573C193.903 140.567 191.166 144.745 184.315 148.622Z" fill="#2C3639"/>
<path d="M148.372 179.463L147.995 183.35C142.651 182.855 134.937 186.323 132.448 192.095C130.287 197.099 130.465 209.945 135.195 213.831C134.659 214.91 134.084 216.125 133.47 217.436C126.44 212.481 125.954 197.177 128.79 190.589C131.963 183.107 141.491 178.822 148.372 179.463Z" fill="#E0E0E0"/>
<path d="M149.225 178.531L147.916 178.395C147.641 178.371 147.367 178.448 147.147 178.611C146.927 178.775 146.777 179.013 146.726 179.279C146.482 180.707 146.482 182.165 146.726 183.593C146.763 183.833 146.88 184.055 147.06 184.222C147.24 184.389 147.471 184.493 147.718 184.516L149.84 184.71L149.225 178.531Z" fill="#2C3639"/>
<path d="M153.955 168.338L172.526 172.846C173.873 173.225 175.064 174.011 175.928 175.093C176.792 176.175 177.284 177.498 177.335 178.871V189.666C177.374 190.255 177.266 190.844 177.021 191.382C176.775 191.921 176.399 192.393 175.925 192.757C175.451 193.12 174.894 193.365 174.302 193.47C173.709 193.575 173.1 193.537 172.526 193.358L153.955 188.85C152.607 188.471 151.416 187.685 150.552 186.603C149.688 185.52 149.196 184.198 149.146 182.825V172.03C149.106 171.441 149.214 170.852 149.46 170.314C149.705 169.775 150.081 169.303 150.555 168.939C151.029 168.576 151.586 168.331 152.179 168.226C152.771 168.121 153.381 168.159 153.955 168.338Z" fill="#37474F"/>
<path d="M155.134 173.07C155.945 173.294 156.661 173.765 157.18 174.415C157.698 175.065 157.993 175.86 158.02 176.684C158.044 177.037 157.979 177.391 157.832 177.714C157.684 178.036 157.458 178.319 157.174 178.536C156.889 178.754 156.554 178.9 156.199 178.962C155.843 179.023 155.478 178.999 155.134 178.89C154.328 178.664 153.615 178.194 153.098 177.546C152.581 176.898 152.288 176.107 152.259 175.285C152.236 174.933 152.301 174.581 152.448 174.259C152.595 173.937 152.82 173.655 153.103 173.437C153.386 173.219 153.719 173.072 154.072 173.008C154.426 172.944 154.791 172.965 155.134 173.07Z" fill="#2C3639"/>
<path d="M155.134 180.931C155.945 181.155 156.661 181.626 157.18 182.276C157.698 182.926 157.993 183.721 158.02 184.545C158.044 184.898 157.979 185.252 157.832 185.574C157.684 185.897 157.458 186.18 157.173 186.397C156.889 186.615 156.554 186.761 156.199 186.823C155.843 186.884 155.478 186.86 155.134 186.751C154.328 186.525 153.615 186.055 153.098 185.407C152.581 184.759 152.288 183.968 152.259 183.146C152.234 182.793 152.297 182.44 152.444 182.117C152.59 181.794 152.815 181.511 153.098 181.292C153.382 181.074 153.716 180.927 154.07 180.864C154.425 180.801 154.791 180.824 155.134 180.931Z" fill="#2C3639"/>
<path d="M196.6 208.691C195.341 209.469 188.727 210.897 185.009 210.955C181.836 211.004 180.755 213.929 183.482 215.532C186.209 217.135 188.331 216.504 187.934 217.475C187.537 218.447 182.976 220.585 178.782 222.1C174.985 223.47 168.867 227.765 176.145 233.615C183.423 239.464 193.1 235.131 198.127 232.497C203.154 229.864 209.252 222.781 210.759 218.544L196.6 208.691Z" fill="#455A64"/>
<path d="M200.259 206.107C198.196 205.135 196.292 207.827 196.342 210.489C196.455 212.039 196.891 213.55 197.623 214.928C198.354 216.307 199.366 217.524 200.596 218.505C203.848 221.216 208.468 222.003 211.77 220.575C215.528 218.942 214.616 215.95 214.616 215.95L200.259 206.107Z" fill="#2C3639"/>
<path d="M204.155 147.048C209.787 149.963 223.44 162.653 228.17 167.871C232.899 173.089 236.667 179.454 236.915 183.418C237.123 186.722 231.868 200.034 214.616 215.969C213.148 217.329 210.511 218.661 208.568 218.486C203.61 218.049 200.695 215.376 199.495 211.577C199.003 209.733 199.278 207.772 200.259 206.126C203.769 201.443 212.881 190.123 213.585 185.828C211.84 180.872 203.243 176.179 198.543 173.429C198.543 173.429 186.595 170.155 187.637 157.086C188.678 144.017 201.191 143.735 204.155 147.048Z" fill="#F0F0F0"/>
<path d="M204.155 147.048C203.505 146.44 202.716 145.991 201.854 145.739C200.993 145.488 200.082 145.44 199.198 145.601C192.961 146.941 189.094 153.529 190.611 162.615C191.603 168.561 193.972 171.185 198.543 173.41C192.416 174.246 186.239 169.873 184.92 161.964C183.393 152.878 188.618 143.366 196.461 142.112C198.126 141.951 199.797 142.352 201.197 143.25C202.597 144.148 203.641 145.488 204.155 147.048Z" fill="#2C3639"/>
<path d="M73.5521 92.8289L78.3312 97.4541L84.9348 96.2104C85.0756 96.1837 85.2212 96.1964 85.355 96.2471C85.4888 96.2977 85.6053 96.3843 85.6912 96.4969C85.7771 96.6095 85.8288 96.7434 85.8406 96.8835C85.8524 97.0236 85.8237 97.1641 85.7577 97.2889L82.7832 103.119L86.0254 108.891C86.0934 109.013 86.1252 109.151 86.1173 109.29C86.1095 109.429 86.0622 109.563 85.9808 109.677C85.8994 109.792 85.7871 109.881 85.6567 109.936C85.5262 109.991 85.3826 110.009 85.2421 109.989L78.5989 109.017L73.9983 113.817C73.9009 113.919 73.7765 113.991 73.6392 114.027C73.5018 114.063 73.357 114.061 73.221 114.02C73.0849 113.98 72.9631 113.903 72.8692 113.799C72.7753 113.694 72.7131 113.566 72.6895 113.428L71.5889 106.938L65.5307 104.178C65.4036 104.115 65.2969 104.018 65.2224 103.899C65.1478 103.78 65.1084 103.643 65.1084 103.503C65.1084 103.363 65.1478 103.226 65.2224 103.107C65.2969 102.988 65.4036 102.891 65.5307 102.827L71.4798 99.8056L72.3127 93.2662C72.3372 93.1379 72.3954 93.0181 72.4817 92.9187C72.568 92.8194 72.6793 92.7438 72.8046 92.6996C72.9299 92.6554 73.0648 92.6441 73.1959 92.6668C73.327 92.6895 73.4498 92.7454 73.5521 92.8289Z" fill="#FAFAFA"/>
<path d="M91.3699 104.275C92.2898 104.275 93.0356 103.544 93.0356 102.643C93.0356 101.741 92.2898 101.01 91.3699 101.01C90.4499 101.01 89.7041 101.741 89.7041 102.643C89.7041 103.544 90.4499 104.275 91.3699 104.275Z" fill="#FAFAFA"/>
</svg>
