<svg width="1280" height="720" viewBox="0 0 1280 720" fill="none" xmlns="http://www.w3.org/2000/svg">
<g clip-path="url(#clip0)">
<path d="M430.503 -2.23879L465.124 295.757L224.363 474.737L-51.0194 355.722L-85.6405 57.7267L155.121 -121.254L430.503 -2.23879Z" fill="#222136"/>
<g filter="url(#filter0_di)">
<path d="M188.446 144.745L482.999 187.854L592.942 464.498L408.332 698.034L113.779 654.925L3.8366 378.28L188.446 144.745Z" stroke="#BEA7E5" stroke-width="4" shape-rendering="crispEdges"/>
</g>
<path d="M806.44 -40.321L903.101 -26.1743L939.18 64.6098L878.598 141.247L781.937 127.101L745.858 36.3164L806.44 -40.321Z" stroke="#BEA7E5" stroke-width="4"/>
<path d="M1020.84 62.4204L1042.27 75.2827L1041.85 100.279L1020 112.413L998.559 99.551L998.98 74.5546L1020.84 62.4204Z" fill="#D80032"/>
<path d="M273.837 571.42L295.275 584.283L294.854 609.279L272.996 621.413L251.559 608.551L251.98 583.555L273.837 571.42Z" fill="#EF233C"/>
<path d="M1023.29 170.644L1098.11 129.113L1171.48 173.137L1170.04 258.691L1095.23 300.222L1021.86 256.198L1023.29 170.644Z" stroke="#D80032" stroke-width="25"/>
<path d="M65.2949 551.644L140.106 510.113L213.479 554.137L212.04 639.691L137.229 681.222L63.8559 637.198L65.2949 551.644Z" stroke="#EF233C" stroke-width="25"/>
<path d="M1020.84 62.4204L1042.27 75.2827L1041.85 100.279L1020 112.413L998.559 99.551L998.98 74.5546L1020.84 62.4204Z" fill="#D80032"/>
<path d="M1132.41 460.838L1280.57 721.702L1128.73 980.44L828.738 978.314L680.583 717.449L832.421 458.711L1132.41 460.838Z" fill="#222136"/>
<path d="M900.608 173.194L905.774 170.09L906.289 170.947L906.655 170.727L907.028 170.934L907.513 170.06L912.784 172.981L912.299 173.856L914.057 174.83L914.541 173.955L919.813 176.877L919.328 177.751L921.085 178.725L921.57 177.851L926.841 180.772L926.356 181.647L928.113 182.621L928.598 181.746L933.869 184.668L933.385 185.542L935.142 186.516L935.626 185.642L940.898 188.563L940.413 189.438L942.17 190.412L942.655 189.537L947.926 192.459L947.441 193.334L949.198 194.307L949.683 193.433L954.954 196.355L954.47 197.229L956.227 198.203L956.711 197.328L961.983 200.25L961.498 201.125L963.255 202.099L963.74 201.224L969.011 204.146L968.526 205.02L970.283 205.994L970.768 205.12L976.039 208.041L975.555 208.916L977.312 209.89L977.796 209.015L983.068 211.937L982.583 212.811L984.34 213.785L984.825 212.911L990.096 215.832L989.611 216.707L991.368 217.681L991.853 216.806L997.124 219.728L996.64 220.603L998.397 221.576L998.882 220.702L1004.15 223.623L1003.67 224.498L1005.43 225.472L1005.91 224.597L1011.18 227.519L1010.7 228.394L1012.45 229.368L1012.94 228.493L1018.21 231.415L1017.72 232.289L1019.48 233.263L1019.97 232.388L1025.24 235.31L1024.75 236.185L1026.51 237.159L1026.99 236.284L1032.27 239.206L1031.78 240.08L1033.54 241.054L1034.02 240.18L1039.29 243.101L1038.81 243.976L1040.57 244.95L1041.05 244.075L1046.32 246.997L1045.84 247.871L1047.6 248.845L1048.08 247.971L1053.35 250.892L1052.87 251.767L1054.62 252.741L1055.11 251.866L1060.38 254.788L1059.89 255.663L1061.65 256.636L1062.14 255.762L1067.41 258.683L1066.92 259.558L1068.68 260.532L1069.17 259.657L1074.44 262.579L1073.95 263.454L1075.71 264.428L1076.19 263.553L1081.46 266.475L1080.98 267.349L1082.74 268.323L1083.22 267.448L1088.49 270.37L1088.01 271.245L1089.77 272.219L1090.25 271.344L1095.52 274.266L1095.04 275.14L1096.79 276.114L1097.28 275.24L1102.55 278.161L1102.06 279.036L1103.82 280.01L1104.31 279.135L1109.58 282.057L1109.09 282.931L1110.85 283.905L1111.33 283.031L1116.61 285.952L1116.12 286.827L1117.88 287.801L1118.36 286.926L1123.63 289.848L1123.15 290.722L1124.91 291.696L1125.39 290.822L1130.66 293.743L1130.18 294.618L1131.94 295.592L1132.42 294.717L1137.69 297.639L1137.21 298.514L1138.96 299.487L1139.45 298.613L1144.72 301.534L1144.23 302.409L1145.99 303.383L1146.48 302.508L1151.75 305.43L1151.26 306.305L1153.02 307.278L1153.5 306.404L1158.78 309.326L1158.29 310.2L1160.05 311.174L1160.53 310.299L1165.8 313.221L1165.32 314.096L1167.08 315.07L1167.56 314.195L1172.83 317.117L1172.35 317.991L1174.11 318.965L1174.59 318.091L1179.86 321.012L1179.38 321.887L1181.13 322.861L1181.62 321.986L1186.89 324.908L1186.4 325.782L1188.16 326.756L1188.65 325.882L1193.92 328.803L1193.43 329.678L1195.19 330.652L1195.67 329.777L1200.95 332.699L1200.46 333.573L1202.22 334.547L1202.7 333.673L1207.97 336.594L1207.49 337.469L1209.25 338.443L1209.73 337.568L1215 340.49L1214.52 341.365L1216.28 342.338L1216.76 341.464L1222.03 344.385L1221.55 345.26L1223.3 346.234L1223.79 345.359L1229.06 348.281L1228.57 349.156L1230.33 350.129L1230.82 349.255L1236.09 352.177L1235.6 353.051L1237.36 354.025L1237.84 353.15L1243.12 356.072L1242.63 356.947L1244.39 357.921L1244.87 357.046L1250.14 359.968L1249.66 360.842L1251.42 361.816L1251.9 360.942L1257.17 363.863L1256.69 364.738L1258.45 365.712L1258.93 364.837L1264.2 367.759L1263.72 368.633L1265.47 369.607L1265.96 368.733L1271.23 371.654L1270.74 372.529L1272.5 373.503L1272.99 372.628L1278.26 375.55L1277.77 376.424L1279.53 377.398L1280.01 376.524L1285.29 379.445L1284.8 380.32L1286.56 381.294L1287.04 380.419L1292.31 383.341L1291.83 384.216L1293.59 385.189L1294.07 384.315L1299.34 387.236L1298.86 388.111L1299.23 388.318L1299.24 388.745L1300.24 388.727L1300.34 394.753L1299.34 394.771L1299.38 396.779L1300.38 396.762L1300.48 402.788L1299.48 402.805L1299.52 404.814L1300.52 404.796L1300.63 410.822L1299.63 410.84L1299.66 412.848L1300.66 412.831L1300.77 418.857L1299.77 418.874L1299.8 420.883L1300.8 420.865L1300.91 426.891L1299.91 426.909L1299.94 428.917L1300.94 428.9L1301.05 434.926L1300.05 434.943L1300.08 436.952L1301.08 436.934L1301.19 442.96L1300.19 442.978L1300.22 444.986L1301.22 444.969L1301.33 450.995L1300.33 451.012L1300.36 453.021L1301.36 453.003L1301.47 459.029L1300.47 459.047L1300.5 461.055L1301.5 461.038L1301.61 467.064L1300.61 467.081L1300.64 469.09L1301.64 469.072L1301.75 475.098L1300.75 475.116L1300.78 477.124L1301.78 477.107L1301.89 483.133L1300.89 483.15L1300.93 485.159L1301.93 485.141L1302.03 491.167L1301.03 491.185L1301.07 493.193L1302.07 493.176L1302.17 499.202L1301.17 499.219L1301.21 501.228L1302.21 501.21L1302.31 507.236L1301.31 507.254L1301.35 509.262L1302.35 509.245L1302.45 515.271L1301.45 515.288L1301.49 517.297L1302.49 517.279L1302.59 523.305L1301.59 523.323L1301.63 525.331L1302.63 525.314L1302.73 531.34L1301.73 531.357L1301.77 533.366L1302.77 533.348L1302.87 539.374L1301.87 539.392L1301.91 541.4L1302.91 541.383L1303.01 547.409L1302.01 547.426L1302.05 549.435L1303.05 549.417L1303.15 555.443L1302.15 555.461L1302.19 557.469L1303.19 557.452L1303.3 563.478L1302.3 563.495L1302.33 565.504L1303.33 565.486L1303.44 571.512L1302.44 571.53L1302.47 573.538L1303.47 573.521L1303.58 579.547L1302.58 579.564L1302.61 581.573L1303.61 581.555L1303.72 587.581L1302.72 587.599L1302.75 589.607L1303.75 589.59L1303.86 595.616L1302.86 595.633L1302.89 597.642L1303.89 597.624L1304 603.65L1303 603.668L1303.03 605.676L1304.03 605.659L1304.14 611.685L1303.14 611.702L1303.17 613.711L1304.17 613.693L1304.28 619.719L1303.28 619.737L1303.31 621.745L1304.31 621.728L1304.42 627.754L1303.42 627.771L1303.45 629.78L1304.45 629.762L1304.56 635.788L1303.56 635.806L1303.6 637.814L1304.6 637.797L1304.7 643.823L1303.7 643.84L1303.74 645.849L1304.74 645.831L1304.84 651.857L1303.84 651.875L1303.88 653.883L1304.88 653.866L1304.98 659.892L1303.98 659.909L1304.02 661.918L1305.02 661.9L1305.12 667.926L1304.12 667.944L1304.16 669.952L1305.16 669.935L1305.26 675.961L1304.26 675.978L1304.3 677.987L1305.3 677.969L1305.4 683.995L1304.4 684.013L1304.44 686.021L1305.44 686.004L1305.54 692.03L1304.54 692.047L1304.58 694.056L1305.58 694.038L1305.68 700.064L1304.68 700.081L1304.72 702.09L1305.72 702.073L1305.82 708.099L1304.82 708.116L1304.86 710.125L1305.86 710.107L1305.97 716.133L1304.97 716.15L1305 718.159L1306 718.142L1306.11 724.167L1305.11 724.185L1305.14 726.194L1306.14 726.176L1306.25 732.202L1305.25 732.219L1305.28 734.228L1306.28 734.211L1306.39 740.236L1305.39 740.254L1305.42 742.263L1306.42 742.245L1306.53 748.271L1305.53 748.288L1305.56 750.297L1306.56 750.28L1306.67 756.305L1305.67 756.323L1305.7 758.332L1306.7 758.314L1306.81 764.34L1305.81 764.357L1305.84 766.366L1306.84 766.349L1306.95 772.374L1305.95 772.392L1305.98 774.401L1306.98 774.383L1307.09 780.409L1306.09 780.426L1306.12 782.435L1307.12 782.417L1307.23 788.443L1306.23 788.461L1306.27 790.469L1307.26 790.452L1307.37 796.478L1306.37 796.495L1306.41 798.504L1307.41 798.486L1307.51 804.512L1306.51 804.53L1306.55 806.538L1307.55 806.521L1307.65 812.547L1306.65 812.564L1306.69 814.573L1307.69 814.555L1307.79 820.581L1306.79 820.599L1306.83 822.607L1307.83 822.59L1307.93 828.616L1306.93 828.633L1306.97 830.642L1307.97 830.624L1308.07 836.65L1307.07 836.668L1307.08 837.095L1306.71 837.315L1307.23 838.172L1302.06 841.276L1301.55 840.419L1299.83 841.454L1300.34 842.311L1295.18 845.415L1294.66 844.558L1292.94 845.593L1293.45 846.45L1288.29 849.554L1287.77 848.697L1286.05 849.731L1286.57 850.589L1281.4 853.693L1280.89 852.836L1279.16 853.87L1279.68 854.728L1274.51 857.832L1274 856.975L1272.28 858.009L1272.79 858.866L1267.62 861.971L1267.11 861.114L1265.39 862.148L1265.9 863.005L1260.74 866.11L1260.22 865.252L1258.5 866.287L1259.02 867.144L1253.85 870.249L1253.33 869.391L1251.61 870.426L1252.13 871.283L1246.96 874.388L1246.45 873.53L1244.72 874.565L1245.24 875.422L1240.07 878.527L1239.56 877.669L1237.84 878.704L1238.35 879.561L1233.19 882.665L1232.67 881.808L1230.95 882.843L1231.46 883.7L1226.3 886.804L1225.78 885.947L1224.06 886.982L1224.58 887.839L1219.41 890.943L1218.9 890.086L1217.17 891.121L1217.69 891.978L1212.52 895.082L1212.01 894.225L1210.29 895.26L1210.8 896.117L1205.63 899.221L1205.12 898.364L1203.4 899.399L1203.91 900.256L1198.75 903.36L1198.23 902.503L1196.51 903.538L1197.02 904.395L1191.86 907.499L1191.34 906.642L1189.62 907.677L1190.14 908.534L1184.97 911.638L1184.46 910.781L1182.73 911.816L1183.25 912.673L1178.08 915.777L1177.57 914.92L1175.85 915.955L1176.36 916.812L1171.2 919.916L1170.68 919.059L1168.96 920.094L1169.47 920.951L1164.31 924.055L1163.79 923.198L1162.07 924.233L1162.59 925.09L1157.42 928.194L1156.9 927.337L1155.18 928.372L1155.7 929.229L1150.53 932.333L1150.02 931.476L1148.29 932.51L1148.81 933.368L1143.64 936.472L1143.13 935.615L1141.41 936.649L1141.92 937.507L1136.76 940.611L1136.24 939.754L1134.52 940.788L1135.03 941.646L1129.87 944.75L1129.35 943.893L1127.63 944.927L1128.15 945.784L1122.98 948.889L1122.47 948.031L1120.74 949.066L1121.26 949.923L1116.09 953.028L1115.58 952.17L1113.86 953.205L1114.37 954.062L1109.21 957.167L1108.69 956.309L1106.97 957.344L1107.48 958.201L1102.32 961.305L1101.8 960.448L1100.08 961.483L1100.6 962.34L1095.43 965.444L1094.91 964.587L1093.19 965.622L1093.71 966.479L1088.54 969.583L1088.03 968.726L1086.3 969.761L1086.82 970.618L1081.65 973.722L1081.14 972.865L1079.42 973.9L1079.93 974.757L1074.77 977.861L1074.25 977.004L1072.53 978.039L1073.04 978.896L1067.88 982L1067.36 981.143L1065.64 982.178L1066.16 983.035L1060.99 986.139L1060.48 985.282L1058.75 986.317L1059.27 987.174L1054.1 990.278L1053.59 989.421L1051.87 990.456L1052.38 991.313L1047.21 994.417L1046.7 993.56L1044.98 994.594L1045.49 995.452L1040.33 998.556L1039.81 997.699L1038.09 998.733L1038.61 999.591L1033.44 1002.69L1032.92 1001.84L1031.2 1002.87L1031.72 1003.73L1026.55 1006.83L1026.04 1005.98L1024.31 1007.01L1024.83 1007.87L1019.66 1010.97L1019.15 1010.12L1017.43 1011.15L1017.94 1012.01L1012.78 1015.11L1012.26 1014.25L1010.54 1015.29L1011.05 1016.15L1005.89 1019.25L1005.37 1018.39L1003.65 1019.43L1004.17 1020.29L999 1023.39L998.485 1022.53L996.763 1023.57L997.278 1024.42L992.112 1027.53L991.597 1026.67L989.875 1027.71L990.39 1028.56L985.225 1031.67L984.709 1030.81L982.988 1031.84L983.503 1032.7L978.337 1035.81L977.822 1034.95L976.1 1035.98L976.615 1036.84L971.449 1039.95L970.934 1039.09L969.212 1040.12L969.727 1040.98L964.561 1044.08L964.046 1043.23L962.324 1044.26L962.839 1045.12L957.673 1048.22L957.158 1047.37L955.436 1048.4L955.951 1049.26L950.786 1052.36L950.27 1051.5L948.549 1052.54L949.064 1053.4L943.898 1056.5L943.383 1055.64L941.661 1056.68L942.176 1057.54L937.01 1060.64L936.495 1059.78L934.773 1060.82L935.288 1061.67L930.122 1064.78L929.607 1063.92L927.885 1064.96L928.4 1065.81L923.234 1068.92L922.719 1068.06L922.353 1068.28L921.98 1068.07L921.495 1068.95L916.224 1066.03L916.709 1065.15L914.952 1064.18L914.467 1065.05L909.196 1062.13L909.68 1061.26L907.923 1060.28L907.438 1061.16L902.167 1058.24L902.652 1057.36L900.895 1056.39L900.41 1057.26L895.139 1054.34L895.624 1053.47L893.867 1052.49L893.382 1053.37L888.11 1050.44L888.595 1049.57L886.838 1048.6L886.353 1049.47L881.082 1046.55L881.567 1045.67L879.81 1044.7L879.325 1045.58L874.054 1042.65L874.539 1041.78L872.781 1040.8L872.297 1041.68L867.025 1038.76L867.51 1037.88L865.753 1036.91L865.268 1037.78L859.997 1034.86L860.482 1033.99L858.725 1033.01L858.24 1033.89L852.969 1030.97L853.454 1030.09L851.696 1029.12L851.212 1029.99L845.94 1027.07L846.425 1026.2L844.668 1025.22L844.183 1026.1L838.912 1023.18L839.397 1022.3L837.64 1021.33L837.155 1022.2L831.884 1019.28L832.368 1018.41L830.611 1017.43L830.127 1018.31L824.855 1015.38L825.34 1014.51L823.583 1013.54L823.098 1014.41L817.827 1011.49L818.312 1010.61L816.555 1009.64L816.07 1010.52L810.799 1007.59L811.283 1006.72L809.526 1005.74L809.042 1006.62L803.77 1003.7L804.255 1002.82L802.498 1001.85L802.013 1002.72L796.742 999.802L797.227 998.928L795.47 997.954L794.985 998.828L789.714 995.907L790.198 995.032L788.441 994.058L787.957 994.933L782.685 992.011L783.17 991.137L781.413 990.163L780.928 991.037L775.657 988.116L776.142 987.241L774.385 986.267L773.9 987.142L768.629 984.22L769.113 983.345L767.356 982.371L766.871 983.246L761.6 980.325L762.085 979.45L760.328 978.476L759.843 979.351L754.572 976.429L755.057 975.554L753.3 974.58L752.815 975.455L747.544 972.533L748.028 971.659L746.271 970.685L745.786 971.559L740.515 968.638L741 967.763L739.243 966.789L738.758 967.664L733.487 964.742L733.972 963.868L732.215 962.894L731.73 963.768L726.459 960.847L726.943 959.972L725.186 958.998L724.701 959.873L719.43 956.951L719.915 956.077L718.158 955.103L717.673 955.977L712.402 953.056L712.887 952.181L711.13 951.207L710.645 952.082L705.374 949.16L705.858 948.285L704.101 947.312L703.616 948.186L698.345 945.265L698.83 944.39L697.073 943.416L696.588 944.291L691.317 941.369L691.802 940.494L690.045 939.521L689.56 940.395L684.289 937.474L684.773 936.599L683.016 935.625L682.532 936.5L677.26 933.578L677.745 932.703L675.988 931.729L675.503 932.604L670.232 929.682L670.717 928.808L668.96 927.834L668.475 928.709L663.204 925.787L663.688 924.912L661.931 923.938L661.447 924.813L656.175 921.891L656.66 921.017L654.903 920.043L654.418 920.917L649.147 917.996L649.632 917.121L647.875 916.147L647.39 917.022L642.119 914.1L642.603 913.226L640.846 912.252L640.362 913.126L635.09 910.205L635.575 909.33L633.818 908.356L633.333 909.231L628.062 906.309L628.547 905.435L626.79 904.461L626.305 905.335L621.034 902.414L621.518 901.539L619.761 900.565L619.277 901.44L614.005 898.518L614.49 897.643L612.733 896.67L612.248 897.544L606.977 894.623L607.462 893.748L605.705 892.774L605.22 893.649L599.949 890.727L600.433 889.852L598.676 888.878L598.192 889.753L592.92 886.831L593.405 885.957L591.648 884.983L591.163 885.858L585.892 882.936L586.377 882.061L584.62 881.087L584.135 881.962L578.864 879.04L579.348 878.166L577.591 877.192L577.107 878.066L571.835 875.145L572.32 874.27L570.563 873.296L570.078 874.171L564.807 871.249L565.292 870.375L563.535 869.401L563.05 870.275L557.779 867.354L558.263 866.479L556.506 865.505L556.022 866.38L550.75 863.458L551.235 862.583L549.478 861.61L548.993 862.484L543.722 859.563L544.207 858.688L542.45 857.714L541.965 858.589L536.694 855.667L537.179 854.792L535.421 853.819L534.937 854.693L529.665 851.772L530.15 850.897L529.777 850.69L529.769 850.263L528.769 850.281L528.664 844.255L529.664 844.237L529.629 842.229L528.629 842.246L528.523 836.22L529.523 836.203L529.488 834.194L528.488 834.212L528.383 828.186L529.383 828.168L529.348 826.16L528.348 826.177L528.242 820.151L529.242 820.134L529.207 818.125L528.207 818.143L528.102 812.117L529.102 812.099L529.067 810.091L528.067 810.108L527.961 804.082L528.961 804.065L528.926 802.056L527.926 802.074L527.821 796.048L528.821 796.03L528.785 794.022L527.786 794.039L527.68 788.013L528.68 787.996L528.645 785.987L527.645 786.005L527.54 779.979L528.54 779.961L528.504 777.953L527.505 777.97L527.399 771.944L528.399 771.927L528.364 769.918L527.364 769.936L527.259 763.91L528.259 763.892L528.223 761.884L527.224 761.901L527.118 755.875L528.118 755.858L528.083 753.849L527.083 753.867L526.978 747.841L527.977 747.823L527.942 745.815L526.942 745.832L526.837 739.806L527.837 739.789L527.802 737.78L526.802 737.798L526.697 731.772L527.696 731.754L527.661 729.746L526.661 729.763L526.556 723.737L527.556 723.72L527.521 721.711L526.521 721.729L526.416 715.703L527.415 715.685L527.38 713.677L526.38 713.694L526.275 707.668L527.275 707.651L527.24 705.642L526.24 705.66L526.134 699.634L527.134 699.616L527.099 697.608L526.099 697.625L525.994 691.599L526.994 691.582L526.959 689.573L525.959 689.591L525.853 683.565L526.853 683.547L526.818 681.538L525.818 681.556L525.713 675.53L526.713 675.513L526.678 673.504L525.678 673.521L525.572 667.496L526.572 667.478L526.537 665.469L525.537 665.487L525.432 659.461L526.432 659.444L526.397 657.435L525.397 657.452L525.291 651.427L526.291 651.409L526.256 649.4L525.256 649.418L525.151 643.392L526.151 643.375L526.116 641.366L525.116 641.383L525.01 635.358L526.01 635.34L525.975 633.332L524.975 633.349L524.87 627.323L525.87 627.306L525.835 625.297L524.835 625.315L524.729 619.289L525.729 619.271L525.694 617.263L524.694 617.28L524.589 611.254L525.589 611.237L525.553 609.228L524.554 609.246L524.448 603.22L525.448 603.202L525.413 601.194L524.413 601.211L524.308 595.185L525.308 595.168L525.272 593.159L524.273 593.177L524.167 587.151L525.167 587.133L525.132 585.125L524.132 585.142L524.027 579.116L525.027 579.099L524.991 577.09L523.992 577.108L523.886 571.082L524.886 571.064L524.851 569.056L523.851 569.073L523.746 563.047L524.745 563.03L524.71 561.021L523.71 561.039L523.605 555.013L524.605 554.995L524.57 552.987L523.57 553.004L523.465 546.978L524.464 546.961L524.429 544.952L523.429 544.97L523.324 538.944L524.324 538.926L524.289 536.918L523.289 536.935L523.184 530.909L524.183 530.892L524.148 528.883L523.148 528.901L523.043 522.875L524.043 522.857L524.008 520.849L523.008 520.866L522.902 514.84L523.902 514.823L523.867 512.814L522.867 512.832L522.762 506.806L523.762 506.788L523.727 504.78L522.727 504.797L522.621 498.771L523.621 498.754L523.586 496.745L522.586 496.763L522.481 490.737L523.481 490.72L523.446 488.711L522.446 488.728L522.34 482.703L523.34 482.685L523.305 480.676L522.305 480.694L522.2 474.668L523.2 474.651L523.165 472.642L522.165 472.659L522.059 466.634L523.059 466.616L523.024 464.607L522.024 464.625L521.919 458.599L522.919 458.582L522.884 456.573L521.884 456.59L521.778 450.565L522.778 450.547L522.743 448.538L521.743 448.556L521.638 442.53L522.638 442.513L522.602 440.504L521.603 440.521L521.497 434.496L522.497 434.478L522.462 432.469L521.462 432.487L521.357 426.461L522.357 426.444L522.321 424.435L521.322 424.452L521.216 418.427L522.216 418.409L522.181 416.401L521.181 416.418L521.076 410.392L522.076 410.375L522.04 408.366L521.041 408.384L520.935 402.358L521.935 402.34L521.928 401.913L522.293 401.693L521.778 400.836L526.944 397.732L527.459 398.589L529.181 397.554L528.666 396.697L533.832 393.593L534.347 394.45L536.069 393.415L535.554 392.558L540.72 389.454L541.235 390.311L542.957 389.276L542.442 388.419L547.608 385.315L548.123 386.172L549.845 385.138L549.33 384.28L554.495 381.176L555.01 382.033L556.732 380.999L556.217 380.141L561.383 377.037L561.898 377.894L563.62 376.86L563.105 376.002L568.271 372.898L568.786 373.755L570.508 372.721L569.993 371.864L575.159 368.759L575.674 369.616L577.396 368.582L576.881 367.725L582.047 364.62L582.562 365.478L584.284 364.443L583.769 363.586L588.935 360.481L589.45 361.339L591.172 360.304L590.656 359.447L595.822 356.342L596.337 357.2L598.059 356.165L597.544 355.308L602.71 352.204L603.225 353.061L604.947 352.026L604.432 351.169L609.598 348.065L610.113 348.922L611.835 347.887L611.32 347.03L616.486 343.926L617.001 344.783L618.723 343.748L618.208 342.891L623.374 339.787L623.889 340.644L625.611 339.609L625.096 338.752L630.261 335.648L630.777 336.505L632.499 335.47L631.983 334.613L637.149 331.509L637.664 332.366L639.386 331.331L638.871 330.474L644.037 327.37L644.552 328.227L646.274 327.192L645.759 326.335L650.925 323.231L651.44 324.088L653.162 323.053L652.647 322.196L657.813 319.092L658.328 319.949L660.05 318.914L659.535 318.057L664.701 314.953L665.216 315.81L666.938 314.775L666.423 313.918L671.588 310.814L672.104 311.671L673.825 310.636L673.31 309.779L678.476 306.675L678.991 307.532L680.713 306.497L680.198 305.64L685.364 302.536L685.879 303.393L687.601 302.359L687.086 301.501L692.252 298.397L692.767 299.254L694.489 298.22L693.974 297.362L699.14 294.258L699.655 295.115L701.377 294.081L700.862 293.224L706.028 290.119L706.543 290.976L708.265 289.942L707.749 289.085L712.915 285.98L713.43 286.838L715.152 285.803L714.637 284.946L719.803 281.841L720.318 282.699L722.04 281.664L721.525 280.807L726.691 277.703L727.206 278.56L728.928 277.525L728.413 276.668L733.579 273.564L734.094 274.421L735.816 273.386L735.301 272.529L740.467 269.425L740.982 270.282L742.704 269.247L742.188 268.39L747.354 265.286L747.869 266.143L749.591 265.108L749.076 264.251L754.242 261.147L754.757 262.004L756.479 260.969L755.964 260.112L761.13 257.008L761.645 257.865L763.367 256.83L762.852 255.973L768.018 252.869L768.533 253.726L770.255 252.691L769.74 251.834L774.906 248.73L775.421 249.587L777.143 248.552L776.627 247.695L781.793 244.591L782.308 245.448L784.03 244.413L783.515 243.556L788.681 240.452L789.196 241.309L790.918 240.274L790.403 239.417L795.569 236.313L796.084 237.17L797.806 236.136L797.291 235.278L802.457 232.174L802.972 233.031L804.694 231.997L804.179 231.139L809.345 228.035L809.86 228.892L811.582 227.858L811.066 227.001L816.232 223.896L816.747 224.753L818.469 223.719L817.954 222.862L823.12 219.757L823.635 220.615L825.357 219.58L824.842 218.723L830.008 215.618L830.523 216.476L832.245 215.441L831.73 214.584L836.896 211.48L837.411 212.337L839.133 211.302L838.618 210.445L843.784 207.341L844.299 208.198L846.021 207.163L845.505 206.306L850.671 203.202L851.186 204.059L852.908 203.024L852.393 202.167L857.559 199.063L858.074 199.92L859.796 198.885L859.281 198.028L864.447 194.924L864.962 195.781L866.684 194.746L866.169 193.889L871.335 190.785L871.85 191.642L873.572 190.607L873.057 189.75L878.223 186.646L878.738 187.503L880.46 186.468L879.945 185.611L885.11 182.507L885.625 183.364L887.347 182.329L886.832 181.472L891.998 178.368L892.513 179.225L894.235 178.19L893.72 177.333L898.886 174.229L899.401 175.086L901.123 174.051L900.608 173.194Z" stroke="#EF233C" stroke-width="2" stroke-dasharray="2 6"/>
<path d="M311.92 -194.592L317.045 -197.762L317.571 -196.912L317.935 -197.136L318.311 -196.934L318.784 -197.815L324.092 -194.961L323.619 -194.08L325.388 -193.128L325.862 -194.009L331.17 -191.155L330.696 -190.274L332.465 -189.323L332.939 -190.204L338.247 -187.349L337.773 -186.469L339.543 -185.517L340.016 -186.398L345.324 -183.544L344.851 -182.663L346.62 -181.712L347.094 -182.592L352.402 -179.738L351.928 -178.857L353.698 -177.906L354.171 -178.787L359.479 -175.932L359.006 -175.052L360.775 -174.1L361.249 -174.981L366.557 -172.127L366.083 -171.246L367.853 -170.295L368.326 -171.175L373.634 -168.321L373.161 -167.44L374.93 -166.489L375.404 -167.37L380.712 -164.515L380.238 -163.635L382.007 -162.683L382.481 -163.564L387.789 -160.71L387.316 -159.829L389.085 -158.878L389.558 -159.758L394.867 -156.904L394.393 -156.023L396.162 -155.072L396.636 -155.953L401.944 -153.099L401.47 -152.218L403.24 -151.266L403.713 -152.147L409.021 -149.293L408.548 -148.412L410.317 -147.461L410.791 -148.341L416.099 -145.487L415.625 -144.606L417.395 -143.655L417.868 -144.536L423.176 -141.682L422.703 -140.801L424.472 -139.849L424.946 -140.73L430.254 -137.876L429.78 -136.995L431.55 -136.044L432.023 -136.925L437.331 -134.07L436.858 -133.19L438.627 -132.238L439.101 -133.119L444.409 -130.265L443.935 -129.384L445.704 -128.433L446.178 -129.313L451.486 -126.459L451.012 -125.578L452.782 -124.627L453.255 -125.508L458.563 -122.653L458.09 -121.773L459.859 -120.821L460.333 -121.702L465.641 -118.848L465.167 -117.967L466.937 -117.016L467.41 -117.896L472.718 -115.042L472.245 -114.161L474.014 -113.21L474.488 -114.091L479.796 -111.236L479.322 -110.356L481.092 -109.404L481.565 -110.285L486.873 -107.431L486.4 -106.55L488.169 -105.599L488.643 -106.479L493.951 -103.625L493.477 -102.744L495.246 -101.793L495.72 -102.674L501.028 -99.8195L500.555 -98.9388L502.324 -97.9874L502.797 -98.8681L508.106 -96.0139L507.632 -95.1331L509.401 -94.1817L509.875 -95.0625L515.183 -92.2083L514.709 -91.3275L516.479 -90.3761L516.952 -91.2568L522.26 -88.4026L521.787 -87.5219L523.556 -86.5705L524.03 -87.4512L529.338 -84.597L528.864 -83.7163L530.633 -82.7648L531.107 -83.6456L536.415 -80.7914L535.942 -79.9106L537.711 -78.9592L538.185 -79.84L543.493 -76.9858L543.019 -76.105L544.788 -75.1536L545.262 -76.0343L550.57 -73.1801L550.096 -72.2994L551.866 -71.348L552.339 -72.2287L557.647 -69.3745L557.174 -68.4937L558.943 -67.5423L559.417 -68.4231L564.725 -65.5688L564.251 -64.6881L566.021 -63.7367L566.494 -64.6174L571.802 -61.7632L571.329 -60.8825L573.098 -59.9311L573.572 -60.8118L578.88 -57.9576L578.406 -57.0768L580.175 -56.1254L580.649 -57.0062L585.957 -54.152L585.483 -53.2712L587.253 -52.3198L587.726 -53.2005L593.034 -50.3463L592.561 -49.4656L594.33 -48.5142L594.804 -49.3949L600.112 -46.5407L599.638 -45.6599L601.408 -44.7085L601.881 -45.5893L607.189 -42.7351L606.716 -41.8543L608.485 -40.9029L608.959 -41.7836L614.267 -38.9294L613.793 -38.0487L615.562 -37.0973L616.036 -37.978L621.344 -35.1238L620.871 -34.243L622.64 -33.2916L623.113 -34.1724L628.421 -31.3182L627.948 -30.4374L629.717 -29.486L630.191 -30.3668L635.499 -27.5125L635.025 -26.6318L636.795 -25.6804L637.268 -26.5611L642.576 -23.7069L642.103 -22.8261L643.872 -21.8747L644.346 -22.7555L649.654 -19.9012L649.18 -19.0205L650.95 -18.0691L651.423 -18.9498L656.731 -16.0956L656.258 -15.2149L658.027 -14.2635L658.501 -15.1442L663.809 -12.29L663.335 -11.4092L665.104 -10.4578L665.578 -11.3386L670.886 -8.48434L670.412 -7.60359L672.182 -6.65219L672.655 -7.53293L677.963 -4.67872L677.49 -3.79796L679.259 -2.84655L679.733 -3.72729L685.041 -0.873064L684.567 0.0076689L686.337 0.959083L686.81 0.0783508L692.118 2.93255L691.645 3.81332L693.414 4.76471L693.888 3.88397L699.196 6.7382L698.722 7.61894L700.491 8.57036L700.965 7.6896L706.273 10.5438L705.8 11.4246L707.569 12.376L708.042 11.4952L713.351 14.3495L712.877 15.2302L713.253 15.4325L713.266 15.859L714.266 15.8288L714.448 21.8528L713.448 21.883L713.509 23.8911L714.509 23.8608L714.691 29.8849L713.691 29.9151L713.752 31.9231L714.751 31.8929L714.934 37.9169L713.934 37.9472L713.995 39.9552L714.994 39.925L715.177 45.949L714.177 45.9792L714.238 47.9873L715.237 47.957L715.42 53.9811L714.42 54.0113L714.481 56.0193L715.48 55.9891L715.662 62.0131L714.663 62.0434L714.724 64.0514L715.723 64.0212L715.905 70.0452L714.906 70.0754L714.967 72.0834L715.966 72.0532L716.148 78.0773L715.149 78.1075L715.21 80.1155L716.209 80.0853L716.391 86.1093L715.392 86.1396L715.452 88.1476L716.452 88.1173L716.634 94.1414L715.635 94.1716L715.695 96.1796L716.695 96.1494L716.877 102.173L715.878 102.204L715.938 104.212L716.938 104.181L717.12 110.206L716.121 110.236L716.181 112.244L717.181 112.214L717.363 118.238L716.363 118.268L716.424 120.276L717.424 120.246L717.606 126.27L716.606 126.3L716.667 128.308L717.667 128.278L717.849 134.302L716.849 134.332L716.91 136.34L717.91 136.31L718.092 142.334L717.092 142.364L717.153 144.372L718.153 144.342L718.335 150.366L717.335 150.396L717.396 152.404L718.395 152.374L718.578 158.398L717.578 158.428L717.639 160.436L718.638 160.406L718.821 166.43L717.821 166.46L717.882 168.468L718.881 168.438L719.064 174.462L718.064 174.492L718.125 176.5L719.124 176.47L719.306 182.494L718.307 182.524L718.368 184.532L719.367 184.502L719.549 190.526L718.55 190.556L718.611 192.564L719.61 192.534L719.792 198.558L718.793 198.588L718.854 200.596L719.853 200.566L720.035 206.59L719.036 206.621L719.096 208.629L720.096 208.598L720.278 214.622L719.279 214.653L719.339 216.661L720.339 216.63L720.521 222.654L719.522 222.685L719.582 224.693L720.582 224.662L720.764 230.686L719.765 230.717L719.825 232.725L720.825 232.694L721.007 238.718L720.007 238.749L720.068 240.757L721.068 240.726L721.25 246.75L720.25 246.781L720.311 248.789L721.311 248.758L721.493 254.782L720.493 254.813L720.554 256.821L721.554 256.791L721.736 262.815L720.736 262.845L720.797 264.853L721.797 264.823L721.979 270.847L720.979 270.877L721.04 272.885L722.039 272.855L722.222 278.879L721.222 278.909L721.283 280.917L722.282 280.887L722.465 286.911L721.465 286.941L721.526 288.949L722.525 288.919L722.708 294.943L721.708 294.973L721.769 296.981L722.768 296.951L722.95 302.975L721.951 303.005L722.012 305.013L723.011 304.983L723.193 311.007L722.194 311.037L722.255 313.045L723.254 313.015L723.436 319.039L722.437 319.069L722.497 321.077L723.497 321.047L723.679 327.071L722.68 327.101L722.74 329.109L723.74 329.079L723.922 335.103L722.923 335.133L722.983 337.141L723.983 337.111L724.165 343.135L723.166 343.165L723.226 345.173L724.226 345.143L724.408 351.167L723.408 351.197L723.469 353.205L724.469 353.175L724.651 359.199L723.651 359.229L723.712 361.237L724.712 361.207L724.894 367.231L723.894 367.261L723.955 369.269L724.955 369.239L725.137 375.263L724.137 375.293L724.198 377.301L725.198 377.271L725.38 383.295L724.38 383.325L724.441 385.333L725.44 385.303L725.623 391.327L724.623 391.357L724.684 393.365L725.683 393.335L725.866 399.359L724.866 399.389L724.927 401.397L725.926 401.367L726.109 407.391L725.109 407.421L725.17 409.429L726.169 409.399L726.351 415.423L725.352 415.453L725.413 417.461L726.412 417.431L726.594 423.455L725.595 423.486L725.656 425.494L726.655 425.463L726.837 431.487L725.838 431.518L725.899 433.526L726.898 433.495L727.08 439.519L726.081 439.55L726.141 441.558L727.141 441.527L727.323 447.551L726.324 447.582L726.384 449.59L727.384 449.559L727.566 455.583L726.567 455.614L726.627 457.622L727.627 457.591L727.809 463.616L726.81 463.646L726.822 464.073L726.46 464.297L726.985 465.148L721.86 468.317L721.334 467.467L719.625 468.523L720.151 469.374L715.025 472.544L714.499 471.693L712.791 472.75L713.316 473.6L708.191 476.77L707.665 475.92L705.956 476.976L706.482 477.827L701.356 480.997L700.83 480.146L699.121 481.203L699.647 482.053L694.522 485.223L693.996 484.373L692.287 485.429L692.813 486.28L687.687 489.449L687.161 488.599L685.453 489.656L685.978 490.506L680.853 493.676L680.327 492.825L678.618 493.882L679.144 494.733L674.018 497.902L673.492 497.052L671.783 498.108L672.309 498.959L667.184 502.129L666.658 501.278L664.949 502.335L665.475 503.185L660.349 506.355L659.823 505.505L658.114 506.561L658.64 507.412L653.515 510.582L652.989 509.731L651.28 510.788L651.806 511.638L646.68 514.808L646.154 513.957L644.446 515.014L644.971 515.865L639.846 519.034L639.32 518.184L637.611 519.241L638.137 520.091L633.011 523.261L632.485 522.41L630.776 523.467L631.302 524.317L626.177 527.487L625.651 526.637L623.942 527.693L624.468 528.544L619.342 531.714L618.816 530.863L617.107 531.92L617.633 532.77L612.508 535.94L611.982 535.09L610.273 536.146L610.799 536.997L605.673 540.166L605.147 539.316L603.438 540.373L603.964 541.223L598.839 544.393L598.313 543.542L596.604 544.599L597.13 545.45L592.004 548.619L591.478 547.769L589.769 548.825L590.295 549.676L585.17 552.846L584.644 551.995L582.935 553.052L583.461 553.902L578.335 557.072L577.809 556.222L576.1 557.278L576.626 558.129L571.501 561.299L570.975 560.448L569.266 561.505L569.792 562.355L564.666 565.525L564.14 564.675L562.431 565.731L562.957 566.582L557.832 569.751L557.306 568.901L555.597 569.958L556.123 570.808L550.997 573.978L550.471 573.127L548.762 574.184L549.288 575.034L544.163 578.204L543.637 577.354L541.928 578.41L542.454 579.261L537.328 582.431L536.802 581.58L535.093 582.637L535.619 583.487L530.494 586.657L529.968 585.807L528.259 586.863L528.785 587.714L523.659 590.883L523.133 590.033L521.425 591.09L521.951 591.94L516.825 595.11L516.299 594.259L514.59 595.316L515.116 596.166L509.99 599.336L509.464 598.486L507.756 599.542L508.282 600.393L503.156 603.563L502.63 602.712L500.921 603.769L501.447 604.619L496.321 607.789L495.795 606.939L494.087 607.995L494.613 608.846L489.487 612.015L488.961 611.165L487.252 612.222L487.778 613.072L482.652 616.242L482.126 615.391L480.418 616.448L480.944 617.298L475.818 620.468L475.292 619.618L473.583 620.674L474.109 621.525L468.983 624.695L468.457 623.844L466.749 624.901L467.275 625.751L462.149 628.921L461.623 628.071L459.914 629.127L460.44 629.978L455.314 633.147L454.788 632.297L453.08 633.354L453.606 634.204L448.48 637.374L447.954 636.523L446.245 637.58L446.771 638.43L441.645 641.6L441.119 640.75L439.411 641.806L439.937 642.657L434.811 645.827L434.285 644.976L432.576 646.033L433.102 646.883L427.976 650.053L427.45 649.203L425.742 650.259L426.268 651.11L421.142 654.279L420.616 653.429L418.907 654.486L419.433 655.336L414.307 658.506L413.782 657.655L412.073 658.712L412.599 659.563L407.473 662.732L406.947 661.882L405.238 662.938L405.764 663.789L400.638 666.959L400.113 666.108L398.404 667.165L398.93 668.015L393.804 671.185L393.278 670.335L391.569 671.391L392.095 672.242L386.969 675.412L386.444 674.561L384.735 675.618L385.261 676.468L380.135 679.638L379.609 678.787L377.9 679.844L378.426 680.695L373.301 683.864L372.775 683.014L371.066 684.07L371.592 684.921L366.466 688.091L365.94 687.24L364.231 688.297L364.757 689.147L359.632 692.317L359.106 691.467L357.397 692.523L357.923 693.374L352.797 696.544L352.271 695.693L350.562 696.75L351.088 697.6L345.963 700.77L345.437 699.919L345.073 700.144L344.698 699.942L344.224 700.823L338.916 697.969L339.389 697.088L337.62 696.136L337.146 697.017L331.838 694.163L332.312 693.282L330.543 692.331L330.069 693.211L324.761 690.357L325.235 689.477L323.465 688.525L322.992 689.406L317.684 686.552L318.157 685.671L316.388 684.719L315.914 685.6L310.606 682.746L311.08 681.865L309.31 680.914L308.837 681.795L303.529 678.94L304.002 678.06L302.233 677.108L301.759 677.989L296.451 675.135L296.925 674.254L295.155 673.302L294.682 674.183L289.374 671.329L289.847 670.448L288.078 669.497L287.604 670.378L282.296 667.523L282.77 666.643L281.001 665.691L280.527 666.572L275.219 663.718L275.693 662.837L273.923 661.886L273.45 662.766L268.141 659.912L268.615 659.031L266.846 658.08L266.372 658.961L261.064 656.106L261.538 655.226L259.768 654.274L259.295 655.155L253.987 652.301L254.46 651.42L252.691 650.469L252.217 651.349L246.909 648.495L247.383 647.614L245.613 646.663L245.14 647.544L239.832 644.69L240.305 643.809L238.536 642.857L238.062 643.738L232.754 640.884L233.228 640.003L231.459 639.052L230.985 639.932L225.677 637.078L226.15 636.197L224.381 635.246L223.908 636.127L218.599 633.273L219.073 632.392L217.304 631.44L216.83 632.321L211.522 629.467L211.996 628.586L210.226 627.635L209.753 628.516L204.445 625.661L204.918 624.781L203.149 623.829L202.675 624.71L197.367 621.856L197.841 620.975L196.071 620.023L195.598 620.904L190.29 618.05L190.763 617.169L188.994 616.218L188.52 617.099L183.212 614.244L183.686 613.364L181.916 612.412L181.443 613.293L176.135 610.439L176.608 609.558L174.839 608.607L174.365 609.487L169.057 606.633L169.531 605.752L167.762 604.801L167.288 605.682L161.98 602.827L162.454 601.947L160.684 600.995L160.211 601.876L154.903 599.022L155.376 598.141L153.607 597.19L153.133 598.07L147.825 595.216L148.299 594.335L146.529 593.384L146.056 594.265L140.748 591.411L141.221 590.53L139.452 589.578L138.978 590.459L133.67 587.605L134.144 586.724L132.375 585.773L131.901 586.654L126.593 583.799L127.067 582.919L125.297 581.967L124.824 582.848L119.516 579.994L119.989 579.113L118.22 578.162L117.746 579.042L112.438 576.188L112.912 575.307L111.142 574.356L110.669 575.237L105.361 572.382L105.834 571.502L104.065 570.55L103.591 571.431L98.2833 568.577L98.7569 567.696L96.9875 566.745L96.5139 567.625L91.2059 564.771L91.6795 563.89L89.9101 562.939L89.4365 563.82L84.1284 560.965L84.602 560.085L82.8327 559.133L82.3591 560.014L77.051 557.16L77.5246 556.279L75.7553 555.328L75.2817 556.208L69.9736 553.354L70.4472 552.473L68.6779 551.522L68.2043 552.403L62.8962 549.549L63.3698 548.668L61.6005 547.716L61.1269 548.597L55.8188 545.743L56.2924 544.862L54.523 543.911L54.0494 544.792L48.7414 541.937L49.215 541.057L47.4456 540.105L46.972 540.986L41.664 538.132L42.1376 537.251L40.3682 536.3L39.8946 537.18L34.5865 534.326L35.0601 533.445L33.2908 532.494L32.8172 533.375L27.5091 530.52L27.9827 529.64L26.2134 528.688L25.7398 529.569L20.4317 526.715L20.9053 525.834L19.136 524.883L18.6623 525.763L13.3543 522.909L13.8279 522.028L12.0585 521.077L11.5849 521.958L6.27687 519.104L6.75046 518.223L4.98112 517.271L4.50753 518.152L-0.800533 515.298L-0.32695 514.417L-2.09631 513.466L-2.56991 514.346L-7.87796 511.492L-7.40437 510.611L-9.17373 509.66L-9.64732 510.541L-14.9554 507.687L-14.4818 506.806L-16.2512 505.854L-16.7248 506.735L-22.0328 503.881L-21.5592 503L-23.3286 502.049L-23.8021 502.93L-29.1102 500.075L-28.6366 499.195L-30.406 498.243L-30.8796 499.124L-36.1876 496.27L-35.7141 495.389L-37.4834 494.438L-37.957 495.318L-43.2651 492.464L-42.7915 491.583L-44.5608 490.632L-45.0344 491.513L-50.3425 488.658L-49.8689 487.778L-50.2451 487.575L-50.258 487.149L-51.2575 487.179L-51.4397 481.155L-50.4402 481.125L-50.5009 479.117L-51.5004 479.147L-51.6826 473.123L-50.6831 473.093L-50.7438 471.085L-51.7434 471.115L-51.9256 465.091L-50.926 465.061L-50.9868 463.053L-51.9863 463.083L-52.1685 457.059L-51.169 457.029L-51.2297 455.021L-52.2292 455.051L-52.4114 449.027L-51.4119 448.997L-51.4726 446.989L-52.4722 447.019L-52.6544 440.995L-51.6548 440.965L-51.7156 438.956L-52.7151 438.987L-52.8973 432.963L-51.8978 432.932L-51.9585 430.924L-52.958 430.955L-53.1402 424.931L-52.1407 424.9L-52.2014 422.892L-53.201 422.923L-53.3832 416.899L-52.3836 416.868L-52.4444 414.86L-53.4439 414.891L-53.6261 408.867L-52.6266 408.836L-52.6873 406.828L-53.6868 406.858L-53.869 400.834L-52.8695 400.804L-52.9302 398.796L-53.9298 398.826L-54.112 392.802L-53.1124 392.772L-53.1732 390.764L-54.1727 390.794L-54.3549 384.77L-53.3554 384.74L-53.4161 382.732L-54.4156 382.762L-54.5978 376.738L-53.5983 376.708L-53.659 374.7L-54.6586 374.73L-54.8408 368.706L-53.8412 368.676L-53.902 366.668L-54.9015 366.698L-55.0837 360.674L-54.0842 360.644L-54.1449 358.636L-55.1444 358.666L-55.3266 352.642L-54.3271 352.612L-54.3878 350.604L-55.3874 350.634L-55.5696 344.61L-54.57 344.58L-54.6308 342.572L-55.6303 342.602L-55.8125 336.578L-54.813 336.548L-54.8737 334.54L-55.8732 334.57L-56.0554 328.546L-55.0559 328.516L-55.1166 326.508L-56.1162 326.538L-56.2984 320.514L-55.2988 320.484L-55.3596 318.476L-56.3591 318.506L-56.5413 312.482L-55.5418 312.452L-55.6025 310.444L-56.602 310.474L-56.7842 304.45L-55.7847 304.419L-55.8454 302.411L-56.845 302.442L-57.0272 296.418L-56.0276 296.387L-56.0884 294.379L-57.0879 294.41L-57.2701 288.386L-56.2706 288.355L-56.3313 286.347L-57.3308 286.378L-57.513 280.354L-56.5135 280.323L-56.5742 278.315L-57.5738 278.346L-57.756 272.322L-56.7564 272.291L-56.8172 270.283L-57.8167 270.313L-57.9989 264.289L-56.9994 264.259L-57.0601 262.251L-58.0596 262.281L-58.2418 256.257L-57.2423 256.227L-57.303 254.219L-58.3026 254.249L-58.4848 248.225L-57.4852 248.195L-57.546 246.187L-58.5455 246.217L-58.7277 240.193L-57.7282 240.163L-57.7889 238.155L-58.7884 238.185L-58.9706 232.161L-57.9711 232.131L-58.0318 230.123L-59.0314 230.153L-59.2136 224.129L-58.214 224.099L-58.2748 222.091L-59.2743 222.121L-59.4565 216.097L-58.457 216.067L-58.5177 214.059L-59.5172 214.089L-59.6994 208.065L-58.6999 208.035L-58.7606 206.027L-59.7602 206.057L-59.9424 200.033L-58.9428 200.003L-59.0036 197.995L-60.0031 198.025L-60.1853 192.001L-59.1858 191.971L-59.2465 189.963L-60.246 189.993L-60.4282 183.969L-59.4287 183.939L-59.4894 181.931L-60.489 181.961L-60.6712 175.937L-59.6716 175.907L-59.7324 173.899L-60.7319 173.929L-60.9141 167.905L-59.9146 167.875L-59.9753 165.867L-60.9748 165.897L-61.157 159.873L-60.1575 159.843L-60.2182 157.835L-61.2178 157.865L-61.4 151.841L-60.4004 151.811L-60.4612 149.803L-61.4607 149.833L-61.6429 143.809L-60.6434 143.779L-60.7041 141.771L-61.7036 141.801L-61.8858 135.777L-60.8863 135.747L-60.947 133.739L-61.9466 133.769L-62.1288 127.745L-61.1292 127.715L-61.19 125.707L-62.1895 125.737L-62.3717 119.713L-61.3722 119.683L-61.4329 117.675L-62.4324 117.705L-62.6146 111.681L-61.6151 111.651L-61.6758 109.643L-62.6754 109.673L-62.8576 103.649L-61.858 103.619L-61.9188 101.61L-62.9183 101.641L-63.1005 95.6167L-62.101 95.5865L-62.1617 93.5785L-63.1612 93.6087L-63.3434 87.5847L-62.3439 87.5544L-62.4046 85.5464L-63.4042 85.5767L-63.5864 79.5526L-62.5868 79.5224L-62.6476 77.5144L-63.6471 77.5446L-63.8293 71.5206L-62.8298 71.4903L-62.8905 69.4823L-63.89 69.5126L-64.0722 63.4885L-63.0727 63.4583L-63.1334 61.4503L-64.133 61.4805L-64.3152 55.4565L-63.3156 55.4263L-63.3764 53.4183L-64.3759 53.4485L-64.5581 47.4244L-63.5586 47.3942L-63.6193 45.3862L-64.6188 45.4164L-64.801 39.3924L-63.8015 39.3622L-63.8144 38.9353L-63.4515 38.7108L-63.9774 37.8603L-58.8516 34.6905L-58.3256 35.541L-56.617 34.4844L-57.1429 33.6339L-52.0171 30.4641L-51.4911 31.3146L-49.7825 30.258L-50.3084 29.4075L-45.1826 26.2377L-44.6566 27.0882L-42.948 26.0316L-43.4739 25.1811L-38.348 22.0112L-37.8221 22.8618L-36.1135 21.8052L-36.6394 20.9546L-31.5135 17.7848L-30.9876 18.6353L-29.2789 17.5787L-29.8049 16.7282L-24.679 13.5584L-24.1531 14.4089L-22.4444 13.3523L-22.9704 12.5018L-17.8445 9.33199L-17.3186 10.1825L-15.6099 9.1259L-16.1359 8.27538L-11.01 5.10558L-10.4841 5.95609L-8.77543 4.89948L-9.30139 4.04897L-4.17552 0.879157L-3.64956 1.72967L-1.94093 0.673064L-2.46688 -0.177452L2.65899 -3.34726L3.18494 -2.49675L4.89357 -3.55337L4.36762 -4.40387L9.49349 -7.57368L10.0194 -6.72316L11.7281 -7.77979L11.2021 -8.63029L16.328 -11.8001L16.8539 -10.9496L18.5626 -12.0062L18.0366 -12.8567L23.1625 -16.0265L23.6885 -15.176L25.3971 -16.2326L24.8711 -17.0831L29.997 -20.2529L30.523 -19.4024L32.2316 -20.459L31.7056 -21.3095L36.8315 -24.4794L37.3575 -23.6289L39.0661 -24.6854L38.5401 -25.536L43.666 -28.7058L44.192 -27.8553L45.9006 -28.9119L45.3746 -29.7624L50.5005 -32.9322L51.0264 -32.0817L52.7351 -33.1383L52.2091 -33.9888L57.335 -37.1586L57.8609 -36.3081L59.5696 -37.3647L59.0436 -38.2152L64.1695 -41.385L64.6955 -40.5345L66.4041 -41.5911L65.8781 -42.4416L71.004 -45.6114L71.53 -44.7609L73.2386 -45.8175L72.7127 -46.6681L77.8385 -49.8379L78.3645 -48.9873L80.0731 -50.044L79.5472 -50.8945L84.673 -54.0643L85.199 -53.2138L86.9076 -54.2704L86.3817 -55.1209L91.5075 -58.2907L92.0335 -57.4402L93.7421 -58.4968L93.2162 -59.3473L98.342 -62.5171L98.868 -61.6666L100.577 -62.7232L100.051 -63.5737L105.177 -66.7435L105.702 -65.893L107.411 -66.9496L106.885 -67.8001L112.011 -70.9699L112.537 -70.1194L114.246 -71.176L113.72 -72.0265L118.846 -75.1963L119.371 -74.3458L121.08 -75.4024L120.554 -76.2529L125.68 -79.4227L126.206 -78.5722L127.915 -79.6288L127.389 -80.4793L132.514 -83.6491L133.04 -82.7986L134.749 -83.8552L134.223 -84.7057L139.349 -87.8755L139.875 -87.025L141.584 -88.0816L141.058 -88.9322L146.183 -92.1019L146.709 -91.2514L148.418 -92.308L147.892 -93.1585L153.018 -96.3284L153.544 -95.4778L155.252 -96.5344L154.727 -97.3849L159.852 -100.555L160.378 -99.7042L162.087 -100.761L161.561 -101.611L166.687 -104.781L167.213 -103.931L168.921 -104.987L168.395 -105.838L173.521 -109.008L174.047 -108.157L175.756 -109.214L175.23 -110.064L180.356 -113.234L180.882 -112.383L182.59 -113.44L182.064 -114.291L187.19 -117.46L187.716 -116.61L189.425 -117.666L188.899 -118.517L194.025 -121.687L194.551 -120.836L196.259 -121.893L195.733 -122.743L200.859 -125.913L201.385 -125.063L203.094 -126.119L202.568 -126.97L207.694 -130.14L208.22 -129.289L209.928 -130.346L209.402 -131.196L214.528 -134.366L215.054 -133.515L216.763 -134.572L216.237 -135.423L221.363 -138.592L221.889 -137.742L223.597 -138.798L223.071 -139.649L228.197 -142.819L228.723 -141.968L230.432 -143.025L229.906 -143.875L235.032 -147.045L235.558 -146.195L237.266 -147.251L236.74 -148.102L241.866 -151.272L242.392 -150.421L244.101 -151.478L243.575 -152.328L248.701 -155.498L249.227 -154.647L250.935 -155.704L250.409 -156.555L255.535 -159.724L256.061 -158.874L257.77 -159.93L257.244 -160.781L262.37 -163.951L262.896 -163.1L264.604 -164.157L264.078 -165.007L269.204 -168.177L269.73 -167.327L271.439 -168.383L270.913 -169.234L276.039 -172.404L276.565 -171.553L278.273 -172.61L277.747 -173.46L282.873 -176.63L283.399 -175.78L285.108 -176.836L284.582 -177.687L289.708 -180.856L290.233 -180.006L291.942 -181.063L291.416 -181.913L296.542 -185.083L297.068 -184.232L298.777 -185.289L298.251 -186.139L303.377 -189.309L303.902 -188.459L305.611 -189.515L305.085 -190.366L310.211 -193.536L310.737 -192.685L312.446 -193.742L311.92 -194.592Z" stroke="#EF233C" stroke-width="2" stroke-dasharray="2 6"/>
<path d="M239 531.814L618.29 301L625.048 312.105L245.758 542.919L239 531.814Z" fill="#4B405F"/>
<rect x="613" y="496.814" width="444" height="13" transform="rotate(-31.3222 613 496.814)" fill="#4B405F"/>
</g>
<defs>
<filter id="filter0_di" x="-2.44824" y="142.599" width="601.676" height="565.582" filterUnits="userSpaceOnUse" color-interpolation-filters="sRGB">
<feFlood flood-opacity="0" result="BackgroundImageFix"/>
<feColorMatrix in="SourceAlpha" type="matrix" values="0 0 0 0 0 0 0 0 0 0 0 0 0 0 0 0 0 0 127 0" result="hardAlpha"/>
<feOffset dy="4"/>
<feGaussianBlur stdDeviation="2"/>
<feComposite in2="hardAlpha" operator="out"/>
<feColorMatrix type="matrix" values="0 0 0 0 0 0 0 0 0 0 0 0 0 0 0 0 0 0 0.25 0"/>
<feBlend mode="normal" in2="BackgroundImageFix" result="effect1_dropShadow"/>
<feBlend mode="normal" in="SourceGraphic" in2="effect1_dropShadow" result="shape"/>
<feColorMatrix in="SourceAlpha" type="matrix" values="0 0 0 0 0 0 0 0 0 0 0 0 0 0 0 0 0 0 127 0" result="hardAlpha"/>
<feOffset dy="4"/>
<feGaussianBlur stdDeviation="2"/>
<feComposite in2="hardAlpha" operator="arithmetic" k2="-1" k3="1"/>
<feColorMatrix type="matrix" values="0 0 0 0 0 0 0 0 0 0 0 0 0 0 0 0 0 0 0.25 0"/>
<feBlend mode="normal" in2="shape" result="effect2_innerShadow"/>
</filter>
<clipPath id="clip0">
<rect width="1280" height="720" fill="white"/>
</clipPath>
</defs>
</svg>
