<svg width="1728" height="558" viewBox="0 0 1728 558" fill="none" xmlns="http://www.w3.org/2000/svg">
<g filter="url(#filter0_f_708_247)">
<path fill-rule="evenodd" clip-rule="evenodd" d="M0 472.792L58 410.244C115 346.653 230 220.515 346 148.584C461 76.6542 576 58.9322 691 95.4186C806 130.862 922 220.515 1037 229.897C1152 239.279 1267 167.349 1382 157.967C1498 148.584 1613 202.793 1670 229.897L1728 257.001V527H1670C1613 527 1498 527 1382 527C1267 527 1152 527 1037 527C922 527 806 527 691 527C576 527 461 527 346 527C230 527 115 527 58 527H0V472.792Z" fill="url(#paint0_linear_708_247)"/>
<path fill-rule="evenodd" clip-rule="evenodd" d="M0 367.01L48 375.01C96 384.01 192 401.01 288 358.01C384 315.01 480 211.01 576 203.01C672 194.01 768 280.01 864 306.01C960 332.01 1056 298.01 1152 246.01C1248 194.01 1344 125.01 1440 108.01C1536 90.0105 1632 125.01 1680 142.01L1728 159.01V522.01H1680C1632 522.01 1536 522.01 1440 522.01C1344 522.01 1248 522.01 1152 522.01C1056 522.01 960 522.01 864 522.01C768 522.01 672 522.01 576 522.01C480 522.01 384 522.01 288 522.01C192 522.01 96 522.01 48 522.01H0V367.01Z" fill="url(#paint1_linear_708_247)"/>
<path fill-rule="evenodd" clip-rule="evenodd" d="M0 164.3L36 156.3C72 147.3 144 130.3 216 156.3C288 182.3 360 251.3 432 259.3C504 268.3 576 216.3 648 216.3C720 216.3 792 268.3 864 311.3C936 354.3 1008 389.3 1080 389.3C1152 389.3 1224 354.3 1296 294.3C1368 233.3 1440 147.3 1512 121.3C1584 95.3004 1656 130.3 1692 147.3L1728 164.3V527.3H1692C1656 527.3 1584 527.3 1512 527.3C1440 527.3 1368 527.3 1296 527.3C1224 527.3 1152 527.3 1080 527.3C1008 527.3 936 527.3 864 527.3C792 527.3 720 527.3 648 527.3C576 527.3 504 527.3 432 527.3C360 527.3 288 527.3 216 527.3C144 527.3 72 527.3 36 527.3H0V164.3Z" fill="url(#paint2_linear_708_247)"/>
<path fill-rule="evenodd" clip-rule="evenodd" d="M0 226.61L48 201.915C96 177.22 192 128.78 288 120.232C384 111.683 480 144.927 576 210.463C672 276 768 374.78 864 357.683C960 341.537 1056 210.463 1152 194.317C1248 177.22 1344 276 1440 267.452C1536 259.853 1632 144.927 1680 86.9884L1728 30V522H1680C1632 522 1536 522 1440 522C1344 522 1248 522 1152 522C1056 522 960 522 864 522C768 522 672 522 576 522C480 522 384 522 288 522C192 522 96 522 48 522H0V226.61Z" fill="url(#paint3_linear_708_247)"/>
</g>
<defs>
<filter id="filter0_f_708_247" x="-30" y="0" width="1788" height="557.3" filterUnits="userSpaceOnUse" color-interpolation-filters="sRGB">
<feFlood flood-opacity="0" result="BackgroundImageFix"/>
<feBlend mode="normal" in="SourceGraphic" in2="BackgroundImageFix" result="shape"/>
<feGaussianBlur stdDeviation="15" result="effect1_foregroundBlur_708_247"/>
</filter>
<linearGradient id="paint0_linear_708_247" x1="864" y1="77" x2="864" y2="527" gradientUnits="userSpaceOnUse">
<stop stop-color="#1F7A8C"/>
<stop offset="1" stop-color="#0099FF" stop-opacity="0"/>
</linearGradient>
<linearGradient id="paint1_linear_708_247" x1="864" y1="103" x2="864" y2="522.01" gradientUnits="userSpaceOnUse">
<stop stop-color="#FFE347"/>
<stop offset="1" stop-color="#FFE347" stop-opacity="0"/>
</linearGradient>
<linearGradient id="paint2_linear_708_247" x1="864" y1="112" x2="864" y2="527.3" gradientUnits="userSpaceOnUse">
<stop stop-color="#23F0C7"/>
<stop offset="1" stop-color="#0099FF" stop-opacity="0"/>
</linearGradient>
<linearGradient id="paint3_linear_708_247" x1="864" y1="30" x2="864" y2="522" gradientUnits="userSpaceOnUse">
<stop stop-color="#EF767A"/>
<stop offset="1" stop-color="#0099FF" stop-opacity="0"/>
</linearGradient>
</defs>
</svg>
