<svg width="622" height="829" viewBox="0 0 622 829" fill="none" xmlns="http://www.w3.org/2000/svg">
<g filter="url(#filter0_d_506_1341)">
<path d="M457.553 5.94629H400.25V14.003H457.553V5.94629Z" fill="#E0E0E0"/>
<path d="M425.041 20.5181H400.25V28.5748H425.041V20.5181Z" fill="#E0E0E0"/>
<path d="M163.653 95.7449C166.447 94.0195 169.452 92.6863 172.59 91.7808L174.378 82.7514L189.231 82.4761L191.376 91.4321C194.501 92.2389 197.507 93.4734 200.313 95.1026L207.82 90.0373L218.544 100.645L213.897 108.518C215.576 111.387 216.874 114.473 217.758 117.695L226.551 119.53L226.802 134.781L218.044 136.965C217.251 140.172 216.049 143.257 214.469 146.141L219.384 153.849L209.071 164.861L201.385 160.071C198.594 161.799 195.587 163.133 192.448 164.035L190.661 173.064L175.808 173.339L173.663 164.383C170.537 163.577 167.531 162.342 164.726 160.713L157.273 165.852L146.548 155.244L151.213 147.371C149.534 144.502 148.236 141.416 147.353 138.194L138.559 136.359L138.291 121.108L147.013 118.906C147.799 115.696 149.001 112.61 150.588 109.73L145.655 101.911L155.986 90.8999L163.653 95.6899V95.7449ZM171.572 116.061C169.383 118.391 167.916 121.335 167.356 124.52C166.797 127.706 167.169 130.99 168.427 133.958C169.685 136.926 171.771 139.445 174.423 141.196C177.075 142.947 180.172 143.851 183.324 143.795C186.476 143.738 189.541 142.724 192.132 140.879C194.723 139.034 196.722 136.442 197.879 133.431C199.035 130.42 199.296 127.124 198.628 123.96C197.961 120.797 196.395 117.907 194.128 115.657C192.623 114.16 190.845 112.982 188.896 112.192C186.946 111.401 184.864 111.014 182.768 111.051C180.673 111.089 178.605 111.55 176.684 112.41C174.762 113.27 173.025 114.511 171.572 116.061Z" fill="#F5F5F5"/>
<path d="M171.572 116.061C172.416 115.017 173.418 114.119 174.539 113.4C177.143 111.67 180.178 110.75 183.279 110.75C186.381 110.75 189.416 111.67 192.02 113.4C194.463 115.05 196.437 117.337 197.739 120.026C198.447 121.47 198.935 123.017 199.187 124.614C199.476 126.281 199.507 127.984 199.276 129.661C198.82 133.211 197.266 136.518 194.843 139.094C192.421 141.671 189.257 143.382 185.817 143.976C184.189 144.241 182.53 144.241 180.902 143.976C179.337 143.777 177.812 143.331 176.38 142.654C173.721 141.415 171.432 139.47 169.749 137.02C167.968 134.414 166.957 131.336 166.84 128.155C166.723 124.974 167.503 121.826 169.087 119.09C169.75 117.948 170.589 116.926 171.572 116.061C171.661 116.061 170.625 117.144 169.391 119.383C167.686 122.578 167.058 126.263 167.604 129.862C168.017 132.5 169.065 134.99 170.654 137.106C172.243 139.221 174.322 140.895 176.702 141.975C178.069 142.605 179.521 143.019 181.009 143.205C182.548 143.425 184.111 143.387 185.639 143.095C188.887 142.527 191.873 140.908 194.162 138.475C196.452 136.042 197.924 132.921 198.365 129.569C198.607 127.988 198.607 126.378 198.365 124.797C198.132 123.284 197.674 121.817 197.006 120.448C195.875 118.042 194.175 115.966 192.061 114.408C189.947 112.85 187.488 111.86 184.906 111.528C181.387 111.071 177.82 111.833 174.771 113.694C172.591 115.034 171.661 116.153 171.572 116.061Z" fill="#F5F5F5"/>
<path d="M163.654 95.7451C163.483 95.6729 163.321 95.5805 163.171 95.4698L161.688 94.6073L155.896 91.0836H156.093L145.834 102.095V101.912C147.335 104.224 148.997 106.83 150.785 109.601L150.874 109.73V109.877C149.312 112.759 148.139 115.846 147.389 119.053V119.236H147.21L138.487 121.457L138.738 121.127C138.845 125.935 138.934 131.037 139.041 136.396L138.755 136.029L147.549 137.864H147.764V138.103C148.649 141.269 149.941 144.299 151.607 147.114L151.732 147.334L151.607 147.536C150.159 149.977 148.568 152.675 146.96 155.428V154.914L157.684 165.485H157.148L164.655 160.419L164.887 160.273L165.102 160.401C167.911 162.022 170.915 163.256 174.038 164.072H174.289V164.347C174.95 167.155 175.683 170.201 176.434 173.303L175.987 172.954L190.84 172.679L190.411 173.046C190.983 170.183 191.608 167.118 192.198 164.016V163.741H192.466C195.549 162.84 198.501 161.519 201.242 159.814L201.493 159.667L201.725 159.814L209.393 164.604H208.839L219.152 153.592V154.161C217.49 151.573 215.863 149.004 214.237 146.453L214.094 146.215L214.219 145.976C215.808 143.097 217.01 140.01 217.794 136.8V136.524H218.044L226.784 134.34L226.444 134.781C226.355 129.569 226.284 124.485 226.194 119.512L226.534 119.934L217.74 118.098H217.508V117.86C216.63 114.692 215.35 111.656 213.7 108.83L213.575 108.61L213.7 108.408L218.366 100.535V101.012L207.641 90.4046H208.07L200.545 95.4331L200.384 95.5432H200.206C197.402 93.9117 194.395 92.677 191.269 91.8727H191.09V91.6892C190.321 88.4408 189.642 85.5044 188.981 82.7332L189.249 82.9351L174.396 83.1369L174.593 82.9718C173.842 86.6423 173.216 89.5236 172.698 92.0012C170.316 92.6244 167.999 93.4849 165.781 94.5706L164.19 95.4331C164.021 95.5447 163.842 95.637 163.654 95.7084C163.814 95.5826 163.981 95.4662 164.154 95.3597C164.494 95.1395 165.012 94.8275 165.727 94.4421C167.878 93.2449 170.15 92.2911 172.501 91.5975L172.394 91.7076C172.877 89.2483 173.466 86.2018 174.181 82.6781V82.513H174.36L189.213 82.1826H189.446V82.4029C190.107 85.1741 190.822 88.0921 191.608 91.3405L191.394 91.1203C194.573 91.9203 197.633 93.1548 200.492 94.7908H200.17L207.659 89.7255L207.891 89.5603L208.106 89.7622L218.83 100.352L219.045 100.553L218.884 100.829L214.255 108.72V108.298C215.954 111.163 217.271 114.249 218.169 117.475L217.865 117.181L226.659 119.016H226.981V119.365C227.07 124.32 227.177 129.404 227.267 134.616V134.964H226.927L218.205 137.167L218.526 136.836C217.747 140.106 216.545 143.254 214.952 146.196V145.958L219.867 153.666L220.081 153.978L219.831 154.253L209.5 165.264L209.25 165.54L208.946 165.338L201.26 160.566H201.725C198.932 162.305 195.927 163.656 192.788 164.585L193.11 164.218L191.322 173.248V173.615H190.947L176.094 173.89H175.736L175.647 173.541L173.359 164.53L173.681 164.879C170.499 164.072 167.434 162.838 164.565 161.209H165.012L157.487 166.145L157.219 166.347L156.969 166.109L146.245 155.483L146.012 155.262L146.191 154.969L150.856 147.095V147.518C149.168 144.649 147.858 141.563 146.96 138.341L147.246 138.617L138.47 136.781H138.184V136.488C138.094 131.147 138.023 126.045 137.951 121.237V120.98H138.201L146.924 118.814L146.709 119.034C147.494 115.778 148.696 112.643 150.284 109.711V110.005L145.387 102.279V102.113L145.512 101.985C149.73 97.5253 153.233 93.8548 155.896 90.9735H156.004L161.652 94.644L163.118 95.5983C163.3 95.6333 163.479 95.6824 163.654 95.7451Z" fill="#F5F5F5"/>
<path d="M437.981 428.329C441.059 426.423 444.371 424.948 447.83 423.943L449.849 413.941L466.293 413.647L468.653 423.558C472.142 424.446 475.501 425.803 478.644 427.595L486.955 422.09L498.788 433.817L493.64 442.553C495.489 445.71 496.926 449.104 497.912 452.647L507.635 454.72L507.921 471.605L498.27 474.046C497.41 477.624 496.087 481.068 494.337 484.286L499.789 492.82L488.367 504.97L479.877 499.684C476.8 501.591 473.487 503.066 470.029 504.07L468.009 514.054L451.565 514.366L449.206 504.437C445.715 503.564 442.354 502.212 439.214 500.418L430.903 505.924L419.071 494.197L424.236 485.479C422.374 482.326 420.931 478.931 419.946 475.385L410.223 473.293L409.937 456.409L419.589 453.986C420.451 450.408 421.773 446.965 423.521 443.746L418.159 435.212L429.491 423.081L437.981 428.366V428.329ZM446.829 450.83C444.417 453.412 442.804 456.67 442.194 460.192C441.583 463.715 442.002 467.344 443.398 470.622C444.794 473.9 447.104 476.681 450.036 478.612C452.969 480.544 456.393 481.541 459.877 481.477C463.361 481.413 466.749 480.292 469.612 478.254C472.476 476.215 474.688 473.352 475.969 470.025C477.25 466.698 477.542 463.055 476.809 459.558C476.077 456.06 474.352 452.863 471.852 450.371C470.184 448.705 468.212 447.394 466.049 446.515C463.885 445.636 461.574 445.205 459.247 445.248C456.921 445.29 454.626 445.805 452.494 446.763C450.363 447.722 448.437 449.104 446.829 450.83Z" fill="#F5F5F5"/>
<path d="M446.829 450.83C447.761 449.662 448.872 448.658 450.118 447.857C453.527 445.592 457.593 444.606 461.628 445.067C464.413 445.374 467.089 446.348 469.439 447.912C472.149 449.734 474.334 452.269 475.767 455.253C476.56 456.85 477.103 458.565 477.375 460.336C477.69 462.155 477.726 464.012 477.483 465.842C476.982 469.775 475.263 473.438 472.578 476.291C469.894 479.143 466.387 481.032 462.576 481.68C460.806 482.013 458.995 482.05 457.214 481.79C455.477 481.562 453.784 481.067 452.191 480.322C449.25 478.943 446.716 476.79 444.845 474.082C442.883 471.196 441.77 467.791 441.64 464.273C441.51 460.756 442.368 457.274 444.112 454.243C444.843 452.938 445.779 451.766 446.883 450.775C446.003 451.949 445.192 453.174 444.452 454.445C442.562 457.981 441.876 462.063 442.503 466.044C442.962 468.963 444.125 471.718 445.886 474.058C447.646 476.398 449.949 478.249 452.584 479.441C454.092 480.142 455.695 480.601 457.339 480.799C459.043 481.047 460.776 481.01 462.469 480.689C466.063 480.059 469.368 478.266 471.902 475.572C474.435 472.878 476.065 469.425 476.553 465.714C477.01 462.259 476.47 458.743 474.998 455.601C473.741 452.941 471.856 450.646 469.515 448.925C467.174 447.203 464.45 446.111 461.593 445.746C457.695 445.235 453.742 446.081 450.368 448.15C447.883 449.692 446.829 450.922 446.829 450.83Z" fill="#F5F5F5"/>
<path d="M437.981 428.329L437.445 428.036L435.818 427.063L429.402 423.172H429.598L418.231 435.377V435.046C419.893 437.616 421.805 440.552 423.7 443.562L423.807 443.709V443.874C422.091 447.074 420.793 450.493 419.946 454.041V454.243H419.75L410.116 456.702L410.384 456.335C410.491 461.658 410.598 467.286 410.706 473.22L410.384 472.834L420.125 474.89H420.375V475.128C421.357 478.632 422.781 481.988 424.612 485.112L424.755 485.351L424.612 485.589L419.482 494.307V493.738L431.332 505.465H430.742L439.054 499.868L439.286 499.702L439.536 499.849C442.638 501.62 445.956 502.96 449.403 503.832H449.689V504.125C450.439 507.227 451.244 510.622 452.066 514.036L451.583 513.65L468.027 513.338L467.544 513.76C468.17 510.604 468.867 507.19 469.564 503.758V503.446H469.868C473.273 502.441 476.535 500.985 479.574 499.115L479.842 498.95L480.092 499.115L488.6 504.401H487.974L499.396 492.251V492.894C497.608 490.031 495.821 487.186 494.033 484.36L493.873 484.103L494.016 483.827C495.75 480.654 497.055 477.251 497.894 473.715V473.422H498.198L507.85 470.999L507.475 471.495C507.391 465.732 507.302 460.104 507.206 454.61L507.582 455.069L497.841 452.977H497.573V452.702C496.612 449.19 495.199 445.827 493.372 442.699L493.229 442.479L493.372 442.241L498.538 433.523V434.055L486.741 422.31H487.224L478.894 427.815L478.716 427.944L478.519 427.834C475.413 426.044 472.089 424.686 468.635 423.796H468.438V423.594C467.598 419.924 466.83 416.731 466.115 413.666L466.401 413.904L449.957 414.125L450.171 413.941C449.349 417.923 448.652 421.19 448.098 423.925V424.017H448.008C445.412 424.747 442.892 425.737 440.484 426.971L438.696 427.926L438.106 428.238L438.66 427.852C439.036 427.614 439.608 427.265 440.448 426.825C442.839 425.517 445.354 424.465 447.955 423.686L447.848 423.815C448.384 421.08 449.027 417.795 449.814 413.813V413.629H449.992L466.436 413.262H466.49V413.501C467.241 416.565 468.027 419.814 468.903 423.411L468.653 423.154C472.171 424.039 475.561 425.397 478.733 427.192H478.358C480.986 425.356 483.72 423.521 486.652 421.576L486.902 421.392L487.134 421.631L498.985 433.321L499.235 433.56L499.056 433.853C497.394 436.698 495.678 439.598 493.908 442.589V442.13C495.79 445.319 497.251 448.751 498.252 452.334L497.912 452.004L507.635 454.078H508.011V454.463C508.118 459.969 508.207 465.585 508.315 471.348V471.733H507.939L498.287 474.174L498.645 473.807C497.78 477.43 496.445 480.917 494.677 484.176V483.662L500.128 492.196L500.343 492.526L500.057 492.82L488.636 504.988L488.367 505.282L488.01 505.061L479.52 499.776H480.038C476.927 501.705 473.579 503.199 470.083 504.217L470.44 503.832C469.743 507.264 469.046 510.659 468.42 513.815L468.331 514.219H467.938L451.494 514.494H451.083L450.993 514.091C450.189 510.677 449.367 507.282 448.634 504.18L448.991 504.547C445.462 503.653 442.065 502.277 438.893 500.455H439.393L431.082 505.961L430.76 506.181L430.492 505.906L418.677 494.16L418.409 493.903L418.606 493.591L423.771 484.874V485.351C421.898 482.156 420.449 478.718 419.464 475.128L419.786 475.44L410.044 473.33H409.74V473.018C409.651 467.09 409.562 461.437 409.49 456.133V456.115H409.776L419.446 453.711L419.196 453.95C420.073 450.351 421.413 446.889 423.182 443.654V443.966L417.819 435.395L417.712 435.23L417.855 435.083L429.33 422.989L429.437 422.897H429.545L435.801 426.898L437.409 427.944L437.981 428.329Z" fill="#F5F5F5"/>
<path d="M76.4831 163.448C81.5807 163.553 86.6418 164.355 91.5329 165.834L101.328 155.391L121.293 167.834L116.824 181.58C120.343 185.35 123.349 189.592 125.761 194.188L139.882 193.931L145.44 217.221L132.821 223.699C132.71 228.932 131.929 234.128 130.498 239.152L140.65 249.209L128.675 269.727L115.269 265.139C111.591 268.736 107.469 271.821 103.008 274.315L103.258 288.795L80.5047 294.613L74.2131 281.656C69.1154 281.553 64.0539 280.751 59.1633 279.27L49.3506 289.695L29.3855 277.27L33.9434 263.414C30.4292 259.64 27.4234 255.4 25.0065 250.806L10.8861 251.063L5.1665 227.847L17.8569 221.368C17.9514 216.135 18.7268 210.938 20.1626 205.915L10.0103 195.84L22.0751 175.322L35.4626 179.91C39.1393 176.303 43.269 173.217 47.742 170.734L47.4917 156.254L70.1736 150.546L76.4831 163.503V163.448ZM70.406 197.345C65.603 198.559 61.2584 201.208 57.9208 204.957C54.5833 208.706 52.4027 213.386 51.6545 218.406C50.9062 223.427 51.6239 228.562 53.7168 233.164C55.8098 237.766 59.1841 241.628 63.4135 244.262C67.6429 246.896 72.5377 248.183 77.4795 247.962C82.4213 247.741 87.1884 246.021 91.1786 243.019C95.1688 240.018 98.2031 235.869 99.8981 231.098C101.593 226.326 101.873 221.146 100.702 216.211C99.923 212.928 98.5208 209.834 96.5756 207.108C94.6304 204.382 92.1805 202.077 89.3662 200.324C86.552 198.572 83.4287 197.406 80.1751 196.895C76.9216 196.384 73.6019 196.537 70.406 197.345Z" fill="#E0E0E0"/>
<path d="M70.4062 197.345C72.383 196.669 74.4536 196.328 76.537 196.335C82.3035 196.265 87.9166 198.243 92.4268 201.933C95.5546 204.473 98.0533 207.737 99.7193 211.458C101.637 215.742 102.396 220.478 101.918 225.167C101.389 230.368 99.3601 235.289 96.0909 239.299C92.5825 243.617 87.8142 246.662 82.4905 247.984C77.1669 249.306 71.5702 248.835 66.5276 246.64C64.1251 245.649 61.897 244.26 59.9322 242.529C58.0126 240.918 56.3484 239.011 54.999 236.876C52.4565 232.943 50.9988 228.377 50.7808 223.662C50.5427 218.67 51.7129 213.713 54.1511 209.386C56.5892 205.06 60.1915 201.548 64.5257 199.272C66.3632 198.268 68.3505 197.586 70.4062 197.253C70.4062 197.418 68.2614 197.859 64.7939 199.786C59.9086 202.55 56.0691 206.919 53.8908 212.192C52.2924 216.043 51.6578 220.243 52.0449 224.41C52.432 228.577 53.8285 232.579 56.1072 236.05C57.3952 238.064 58.9812 239.86 60.808 241.372C62.6771 243 64.7895 244.307 67.0638 245.245C71.8456 247.289 77.1391 247.707 82.1694 246.439C87.1997 245.171 91.7024 242.283 95.0185 238.197C98.1184 234.412 100.059 229.77 100.595 224.855C101.056 220.681 100.491 216.455 98.9515 212.563C97.4122 208.671 94.9478 205.237 91.7833 202.575C87.4739 198.947 82.1082 196.899 76.537 196.757C72.5868 196.794 70.442 197.473 70.4062 197.345Z" fill="#E0E0E0"/>
<path d="M76.4831 163.448C76.3071 163.202 76.1572 162.937 76.0363 162.658L74.7851 160.236C73.6769 157.997 72.0683 154.73 69.9592 150.582L70.2273 150.711L47.5811 156.565L47.8492 156.18C47.8492 160.585 48.0458 165.448 48.1531 170.678V170.935L47.9386 171.064C43.5086 173.555 39.4212 176.641 35.7844 180.24L35.5878 180.442L35.3197 180.35L21.9143 175.799L22.5041 175.579L10.4393 196.115V195.399L20.6095 205.438L20.8776 205.695L20.7704 206.044C19.3567 211.02 18.5934 216.167 18.5004 221.35V221.735L18.1608 221.9L5.54187 228.397L5.88148 227.645C7.66886 234.986 9.45624 242.841 11.476 250.934L10.8146 250.402L24.9171 250.145H25.3282L25.5248 250.53C27.9601 255.062 30.9648 259.245 34.4617 262.973L34.7477 263.285L34.6226 263.689C33.2284 268.002 31.6913 272.7 30.1541 277.435L29.8503 276.591L49.726 289.107L48.8323 289.236L58.645 278.793L58.9489 278.481L59.36 278.61C64.1902 280.054 69.1836 280.843 74.2131 280.959H74.66L74.8566 281.362L81.1482 294.319L80.3439 293.934L103.026 288.245L102.49 288.96C102.49 284.079 102.329 279.252 102.239 274.462V274.04L102.615 273.82C107.034 271.329 111.11 268.243 114.733 264.643L115.037 264.331L115.448 264.478L128.836 269.066L128.031 269.378C132.178 262.38 136.217 255.547 140.15 248.879L140.257 249.723L130.122 239.555L129.836 239.28L129.944 238.895C131.378 233.928 132.159 228.786 132.267 223.607V223.222L132.607 223.057L145.244 216.596L144.922 217.294C142.992 209.09 141.151 201.364 139.417 193.986L139.953 194.427L125.851 194.647H125.529L125.386 194.372C122.961 189.805 119.955 185.59 116.449 181.837L116.252 181.635L116.342 181.36L120.864 167.632L121.043 168.127L101.131 155.611H101.524L91.658 165.98H91.5508H91.4256C87.7654 164.847 84.0058 164.085 80.2009 163.704L77.3768 163.466C77.0678 163.498 76.7564 163.498 76.4474 163.466C76.4474 163.466 76.7691 163.466 77.3768 163.466C77.9845 163.466 78.9497 163.466 80.2187 163.594C84.0561 163.867 87.8547 164.556 91.5508 165.65H91.3184L101.06 155.152L101.238 154.969L101.471 155.097L121.489 167.448L121.775 167.614L121.668 167.962C120.292 172.202 118.844 176.716 117.235 181.727L117.128 181.231C120.711 185.02 123.783 189.285 126.262 193.913L125.797 193.637L139.899 193.344H140.346L140.454 193.784L146.048 217.055L146.173 217.532L145.744 217.753L133.125 224.249L133.465 223.699C133.374 228.988 132.592 234.241 131.141 239.317L130.98 238.656L141.186 248.732L141.562 249.099L141.294 249.576L129.193 270.094L128.907 270.571L128.389 270.388L115.001 265.818L115.698 265.653C111.985 269.322 107.813 272.469 103.294 275.013L103.651 274.37C103.735 279.166 103.818 283.993 103.902 288.85V289.438L103.347 289.584L80.6656 295.292L80.1115 295.439L79.8613 294.907C77.77 290.63 75.6609 286.299 73.5518 281.95L74.1774 282.354C69.0252 282.239 63.9106 281.425 58.9668 279.931L59.6996 279.729L49.8868 290.153L49.4936 290.575L48.9932 290.282L29.0281 277.839L28.5812 277.545L28.76 276.995C30.315 272.26 31.8521 267.561 33.2463 263.249L33.4072 263.983C29.8235 260.138 26.7577 255.817 24.2915 251.136L24.9171 251.503L10.7968 251.741H10.2606L10.1354 251.209C8.22294 243.116 6.34618 235.224 4.61242 227.902L4.4873 227.388L4.93415 227.167L17.5709 220.707L17.2314 221.258C17.3389 215.972 18.1385 210.725 19.6086 205.658L19.7516 206.264L9.6171 196.17L9.29537 195.858L9.52773 195.454L21.6819 174.973L21.8964 174.624L22.2897 174.753L35.6593 179.378L35.1946 179.488C38.9042 175.842 43.0696 172.719 47.5811 170.201L47.3666 170.605C47.3666 165.375 47.2415 160.493 47.17 156.107V155.813H47.456L70.1736 150.307H70.3524V150.472L74.9281 160.144C75.4286 161.209 75.8039 161.979 76.0899 162.658C76.3759 163.337 76.4831 163.429 76.4831 163.448Z" fill="#E0E0E0"/>
<path d="M65.4009 40.5039C67.1278 39.9066 68.9409 39.6149 70.763 39.6413C74.9557 39.6158 79.0672 40.8289 82.6071 43.136C86.147 45.4431 88.966 48.7468 90.7281 52.6532C92.3712 56.3501 93.0251 60.4297 92.6227 64.4722C92.412 66.6521 91.8817 68.7867 91.0498 70.8039C90.2017 72.9293 89.0247 74.9 87.5644 76.64C84.5504 80.3727 80.4468 83.0107 75.8601 84.1641C71.2734 85.3175 66.447 84.9252 62.0942 83.045C58.0483 81.3163 54.595 78.3903 52.1742 74.6395C50.0162 71.2416 48.7821 67.3132 48.5995 63.261C48.4012 59.7505 49.0136 56.2416 50.3868 53.0203C52.3951 48.3511 55.9205 44.5431 60.3604 42.2474C61.9375 41.3557 63.6462 40.7357 65.4187 40.4121C63.7695 41.0563 62.1529 41.7852 60.5749 42.596C56.3708 44.9776 53.0665 48.7387 51.1912 53.2772C49.8022 56.6019 49.2493 60.2317 49.5835 63.833C49.9177 67.4343 51.1282 70.8916 53.1037 73.8871C54.2104 75.6223 55.5731 77.1701 57.1432 78.4752C58.7494 79.8697 60.5588 80.9968 62.5053 81.8154C66.6238 83.5774 71.1838 83.9383 75.5166 82.845C79.8495 81.7518 83.7272 79.262 86.5813 75.7407C89.2576 72.4851 90.9312 68.4863 91.3894 64.252C91.7823 60.6601 91.2949 57.0243 89.9714 53.675C88.6478 50.3257 86.5302 47.369 83.8109 45.0736C80.1041 41.9337 75.4777 40.1628 70.6736 40.045C68.9096 40.1065 67.1498 40.2596 65.4009 40.5039Z" fill="#E0E0E0"/>
<path d="M70.6385 11.3602C70.4859 11.1477 70.3542 10.9203 70.2453 10.6812L69.1907 8.58898L65.0261 0.275284L65.2406 0.385401L45.7402 5.41399L45.9726 5.102C45.9726 8.88262 46.1513 13.0853 46.2407 17.5817V17.8019L46.0441 17.9121C42.2314 20.0739 38.7153 22.7462 35.5879 25.8587L35.4092 26.0239H35.1768L23.6303 22.0964L24.1487 21.9129L13.7461 39.513V38.9073L22.5043 47.5514L22.7366 47.7716V48.0836C21.5165 52.3668 20.8612 56.7987 20.7884 61.2607V61.536L20.5024 61.6828L9.63511 67.1886L9.92108 66.5462C11.4404 72.8412 13.0669 79.6316 14.747 86.6055L14.1751 86.1467L26.3293 85.9081H26.6867L26.8476 86.2385C28.9387 90.143 31.523 93.7468 34.5334 96.9564L34.7836 97.2133L34.6585 97.562C33.4609 101.232 32.1383 105.325 30.8156 109.418L30.5654 108.684L47.76 119.383L47.0093 119.493L55.4457 110.501L55.7138 110.225L56.0713 110.335C60.2247 111.59 64.5226 112.268 68.8511 112.354H69.2443L69.4052 112.703L74.7673 123.861L74.0703 123.531L93.6064 118.612L93.1417 119.236C93.0702 115.027 93.0046 110.868 92.945 106.757V106.39L93.2668 106.206C97.0414 104.113 100.533 101.522 103.651 98.498L103.902 98.241L104.259 98.3695L115.788 102.315L115.091 102.591L125.547 84.9355L125.636 85.6512L116.896 76.9705L116.646 76.7319L116.753 76.4015C117.977 72.1245 118.645 67.6998 118.737 63.2428V62.9124L119.023 62.7656L129.908 57.2599L129.64 57.8655C127.96 50.7998 126.387 44.1378 124.886 37.7878L125.35 38.1549L113.196 38.3384H112.928L112.803 38.0998C110.725 34.1746 108.146 30.5516 105.135 27.3269L104.956 27.1434L105.046 26.9048L108.924 15.0674L109.085 15.5079L91.8905 4.64319H92.248L83.74 13.5625H83.6328C80.4784 12.5906 77.2402 11.933 73.963 11.5988L71.4786 11.4336C71.2109 11.4569 70.9419 11.4569 70.6742 11.4336C70.9417 11.4064 71.2111 11.4064 71.4786 11.4336C72.0148 11.4336 72.837 11.4336 73.9273 11.5437C77.2335 11.8065 80.5041 12.4215 83.6864 13.379H83.4898L91.8726 4.3312L92.0335 4.16602L92.2301 4.29449L109.46 14.9206L109.711 15.0674L109.621 15.3611C108.442 19.0316 107.19 22.9039 105.814 27.2168L105.725 26.7947C108.807 30.0892 111.446 33.7926 113.571 37.8062L113.178 37.586L125.332 37.329H125.708L125.797 37.6961C127.334 44.046 128.925 50.6897 130.623 57.7554L130.73 58.1591L130.355 58.3427L119.488 63.8484L119.792 63.3712C119.711 67.933 119.038 72.4632 117.79 76.842L117.647 76.2547L126.405 84.9171L126.727 85.2474L126.494 85.6512L116.074 103.325L115.841 103.728L115.395 103.582L103.848 99.6358L104.456 99.489C101.254 102.667 97.6463 105.384 93.7315 107.564L94.0353 107.014C94.1068 111.124 94.1843 115.284 94.2677 119.493V119.989L93.803 120.117L74.249 125.036L73.7843 125.164L73.5519 124.705L68.1898 113.529L68.7439 113.896C64.3 113.796 59.8885 113.092 55.6245 111.804L56.2501 111.638L47.7957 120.631L47.4561 120.98L47.045 120.723L29.8325 110.005L29.4214 109.748L29.5823 109.271C30.905 105.197 32.2276 101.141 33.4431 97.4335L33.5682 98.0575C30.4973 94.7574 27.8649 91.0548 25.7394 87.046L26.2578 87.358L14.1036 87.5599H13.6388L13.5316 87.1011C11.8872 80.1271 10.2607 73.3367 8.77716 67.0234L8.66992 66.5829L8.92015 66.3076L19.8053 60.8019L19.5015 61.2791C19.5919 56.7216 20.2772 52.1971 21.5391 47.8267L21.6821 48.3589L12.9418 39.6598L12.6737 39.3845L12.8703 39.0358L23.3443 21.399L23.5231 21.087L23.8627 21.2155L35.3734 25.198H34.9623C38.1757 22.0543 41.7821 19.3635 45.6866 17.1963L45.49 17.545C45.49 13.0486 45.3828 8.84591 45.3292 5.06529V4.79001H45.5615L65.1334 0H65.2942V0.128467L69.2265 8.46051L70.2274 10.6261L70.6385 11.3602Z" fill="#E0E0E0"/>
<path d="M105.045 438.423H186.675V430.367H105.045V438.423Z" fill="#E0E0E0"/>
<path d="M105.045 424.787H186.675V416.731H105.045V424.787Z" fill="#E0E0E0"/>
<path d="M151.374 452.995H186.693V444.938H151.374V452.995Z" fill="#E0E0E0"/>
<path d="M494.588 798.408C489.665 796.709 484.412 796.272 479.287 797.135C474.162 797.999 469.321 800.137 465.185 803.363C463.994 797.22 461.392 791.457 457.596 786.554C453.8 781.65 448.919 777.748 443.359 775.171C437.798 772.593 431.719 771.416 425.627 771.735C419.534 772.055 413.604 773.863 408.329 777.009C408.217 772.358 406.96 767.812 404.675 763.796C402.389 759.779 399.149 756.423 395.258 754.04C391.366 751.657 386.95 750.326 382.422 750.171C377.894 750.015 373.401 751.04 369.364 753.151C361.964 726.527 354.57 699.898 347.182 673.262L290.701 675.097C281.883 705.012 273.065 734.914 264.248 764.805C251.468 752.6 233.665 744.764 216.489 747.92C199.312 751.077 184.173 767.374 185.442 785.249C180.335 782.822 174.711 781.764 169.098 782.174C163.484 782.585 158.064 784.45 153.343 787.596C148.622 790.742 144.755 795.065 142.104 800.163C139.453 805.26 138.104 810.964 138.183 816.742L514.749 821C513.444 815.829 510.923 811.065 507.408 807.126C503.893 803.187 499.491 800.194 494.588 798.408Z" fill="#F5F5F5"/>
<path fill-rule="evenodd" clip-rule="evenodd" d="M518.324 267.084C519.293 263.048 520.791 259.165 522.775 255.541L516.644 245.906L529.531 232.215L539.112 238.197C542.581 236.053 546.314 234.392 550.211 233.261L552.499 221.992L571.052 221.68L573.697 232.857C577.629 233.868 581.415 235.405 584.958 237.427L594.342 231.132L607.658 244.382L601.849 254.238C603.943 257.8 605.566 261.632 606.675 265.634L617.631 267.984L617.935 287.034L607.05 289.75C606.076 293.785 604.579 297.667 602.599 301.293L608.73 310.928L595.843 324.619L586.245 318.6C582.779 320.752 579.045 322.413 575.145 323.537L572.839 334.805L554.304 335.117L551.659 323.977C547.731 322.971 543.951 321.434 540.416 319.407L531.033 325.702L517.717 312.452L523.526 302.615C521.444 299.055 519.828 295.229 518.718 291.236L507.761 288.869L507.457 269.837L518.324 267.084ZM542.776 277.876C542.84 281.916 544.07 285.845 546.309 289.167C548.549 292.49 551.698 295.055 555.357 296.54C559.017 298.025 563.024 298.361 566.87 297.508C570.716 296.654 574.23 294.648 576.965 291.744C579.701 288.84 581.537 285.168 582.24 281.192C582.943 277.217 582.482 273.116 580.916 269.41C579.349 265.703 576.747 262.557 573.438 260.37C570.13 258.182 566.264 257.05 562.33 257.119C557.063 257.215 552.048 259.453 548.386 263.341C544.723 267.229 542.712 272.449 542.794 277.857L542.776 277.876Z" fill="#FF6A3D"/>
<path fill-rule="evenodd" clip-rule="evenodd" d="M464.703 349.248C465.18 347.287 465.907 345.399 466.865 343.633L463.88 338.953L470.136 332.327L474.801 335.227C476.476 334.183 478.279 333.375 480.163 332.823L481.272 327.317L490.209 327.17L491.495 332.676C493.402 333.151 495.237 333.892 496.947 334.878L501.505 331.832L507.975 338.255L505.151 343.027C506.159 344.751 506.946 346.602 507.493 348.533L512.855 349.671L513.016 358.847L507.653 360.168C507.176 362.124 506.449 364.006 505.491 365.766L508.476 370.446L502.381 377.199L497.733 374.3C496.058 375.338 494.255 376.14 492.371 376.686L491.263 382.191L482.326 382.338L481.039 376.924C479.164 376.43 477.361 375.683 475.677 374.703L471.119 377.75L464.649 371.327L467.473 366.555C466.464 364.832 465.677 362.981 465.132 361.049L459.769 359.893L459.626 350.717L464.989 349.395L464.703 349.248ZM476.571 354.479C476.603 356.439 477.2 358.345 478.287 359.956C479.374 361.567 480.902 362.811 482.677 363.531C484.453 364.25 486.396 364.413 488.262 363.999C490.128 363.584 491.832 362.611 493.159 361.202C494.486 359.794 495.377 358.012 495.718 356.084C496.059 354.156 495.836 352.167 495.076 350.368C494.316 348.57 493.054 347.044 491.45 345.982C489.846 344.92 487.97 344.371 486.062 344.403C483.518 344.476 481.103 345.573 479.34 347.458C477.578 349.344 476.608 351.866 476.642 354.479H476.571Z" fill="#FF6A3D"/>
<path d="M435.247 272.81C435.247 272.81 435.247 272.535 435.14 272.003C435.107 271.214 435.173 270.425 435.336 269.654C435.91 266.763 437.445 264.167 439.68 262.313C441.359 260.922 443.353 259.987 445.478 259.596C447.602 259.205 449.788 259.369 451.834 260.074C454.365 260.952 456.569 262.612 458.144 264.828C459.719 267.043 460.588 269.705 460.631 272.448C460.674 275.19 459.889 277.879 458.385 280.146C456.88 282.412 454.729 284.145 452.227 285.106C450.206 285.877 448.028 286.112 445.895 285.791C443.761 285.471 441.741 284.604 440.019 283.271C437.715 281.487 436.095 278.927 435.444 276.04C435.261 275.271 435.165 274.483 435.158 273.691C435.158 273.159 435.158 272.865 435.158 272.865C435.158 272.865 435.283 274.003 435.837 275.894C436.633 278.557 438.26 280.878 440.466 282.5C442.243 283.818 444.342 284.603 446.529 284.765C448.715 284.928 450.903 284.463 452.846 283.423C454.79 282.382 456.414 280.806 457.535 278.872C458.657 276.938 459.232 274.722 459.197 272.472C459.162 270.221 458.517 268.025 457.336 266.129C456.154 264.233 454.483 262.711 452.507 261.735C450.532 260.759 448.331 260.367 446.151 260.601C443.971 260.836 441.897 261.689 440.162 263.065C438.005 264.755 436.453 267.129 435.747 269.819C435.336 271.691 435.372 272.81 435.247 272.81Z" fill="#255B76"/>
<path d="M420.018 266.112C419.476 266.32 418.92 266.492 418.356 266.625L413.298 268.002L413.458 267.8C413.458 270.865 413.637 274.847 413.762 279.637L413.494 279.307L420.322 280.72H420.554V280.94C421.245 283.384 422.249 285.723 423.539 287.896L423.664 288.135L423.539 288.355C422.413 290.19 421.198 292.337 419.965 294.503V293.897L428.276 302.101H427.632L433.459 298.155L433.727 297.972L434.013 298.137C436.177 299.356 438.484 300.287 440.877 300.908H441.216V301.257L442.897 308.194L442.325 307.735L453.853 307.515L453.263 308.01C453.692 305.826 454.193 303.441 454.676 301.018V300.633L455.051 300.523C457.417 299.832 459.684 298.819 461.789 297.513L462.111 297.311L462.433 297.513L468.403 301.183L467.598 301.293L475.624 292.778L475.534 293.604L471.852 287.731L471.638 287.401L471.834 287.033C473.022 284.831 473.929 282.481 474.533 280.041L475.016 279.546H475.213H475.427L475.856 279.436L476.696 279.215L478.394 278.793L481.772 277.949L481.272 278.61C481.272 274.609 481.147 270.663 481.093 266.772L481.611 267.415L474.784 265.946H474.408L474.301 265.561C473.638 263.13 472.658 260.803 471.388 258.642L471.191 258.312L471.388 257.963L474.962 251.87L475.07 252.659L466.794 244.401H467.545L461.7 248.31L461.396 248.512L461.092 248.328C458.941 247.086 456.639 246.142 454.247 245.52H453.925V245.171C453.371 242.786 452.835 240.473 452.298 238.216L452.834 238.638L441.306 238.785L441.788 238.381L440.323 245.373V245.667H440.055C437.666 246.35 435.376 247.356 433.245 248.658L433.03 248.787L432.798 248.658L426.864 244.988H427.346C424.219 248.236 421.555 251.026 419.267 253.43V253.045L423.003 259.083V259.193V259.303C421.783 261.552 420.794 263.927 420.054 266.387C420.029 266.229 420.029 266.068 420.054 265.91C420.054 265.598 420.215 265.121 420.393 264.515C420.93 262.635 421.661 260.82 422.574 259.101V259.321L418.696 253.375L418.57 253.173L418.731 253.008L426.685 244.437L426.9 244.199L427.168 244.364L433.138 248.034H432.691C434.877 246.663 437.234 245.601 439.697 244.878L439.358 245.226C439.805 243.006 440.269 240.693 440.752 238.234L440.841 237.83H441.234L452.763 237.592H453.192L453.299 238.032C453.853 240.29 454.407 242.584 454.979 244.97L454.568 244.547C457.069 245.167 459.474 246.136 461.718 247.429H461.128L466.955 243.501L467.348 243.226L467.706 243.575L475.999 251.797L476.356 252.145L476.106 252.586C474.909 254.586 473.711 256.623 472.531 258.697V258.037C473.863 260.294 474.891 262.727 475.588 265.267L475.105 264.809L481.933 266.258L482.434 266.369V266.901C482.434 270.792 482.559 274.737 482.612 278.738V279.27L482.094 279.399L478.734 280.243L477.036 280.665L476.178 280.885L475.749 280.996H475.534H475.427C475.642 280.794 474.944 281.491 475.91 280.518C475.283 283.084 474.327 285.552 473.068 287.859V287.162C474.372 289.217 475.677 291.255 476.875 293.163L477.161 293.604L476.803 293.989L468.778 302.486L468.42 302.853L467.974 302.596C465.936 301.312 463.898 300.027 462.022 298.926H462.683C460.476 300.286 458.102 301.335 455.623 302.046L456.07 301.569C455.569 303.991 455.087 306.377 454.622 308.561L454.533 309.057H453.978L442.45 309.222H441.967L441.86 308.745C441.306 306.34 440.734 303.955 440.233 301.807L440.645 302.229C438.148 301.581 435.744 300.6 433.495 299.311H434.049L428.204 303.202L427.865 303.422L427.561 303.129L419.321 294.87L419.053 294.595L419.232 294.283L422.896 288.171V288.63C421.585 286.381 420.575 283.961 419.893 281.436L420.197 281.711L413.405 279.931H413.137V279.656C413.137 274.866 413.137 270.902 413.137 267.818V267.653H413.298L418.32 266.497L419.643 266.222C419.763 266.169 419.889 266.132 420.018 266.112Z" fill="#255B76"/>
<g opacity="0.8">
<path opacity="0.8" fill-rule="evenodd" clip-rule="evenodd" d="M518.324 267.084C519.293 263.048 520.79 259.165 522.774 255.541L516.644 245.906L529.531 232.215L539.111 238.197C542.581 236.053 546.314 234.392 550.211 233.261L552.499 221.992L571.052 221.68L573.697 232.857C577.629 233.868 581.415 235.405 584.957 237.427L594.341 231.132L607.657 244.382L601.848 254.238C603.943 257.8 605.566 261.632 606.674 265.634L617.631 267.984L617.935 287.034L607.05 289.75C606.076 293.785 604.579 297.667 602.599 301.293L608.73 310.928L595.843 324.619L586.244 318.6C582.778 320.752 579.045 322.413 575.145 323.537L572.839 334.805L554.304 335.117L551.658 323.977C547.731 322.971 543.95 321.434 540.416 319.407L531.032 325.702L517.716 312.452L523.525 302.615C521.444 299.055 519.827 295.229 518.717 291.236L507.76 288.869L507.457 269.837L518.324 267.084ZM542.775 277.876C542.839 281.916 544.069 285.845 546.309 289.167C548.548 292.49 551.697 295.055 555.357 296.54C559.017 298.025 563.023 298.361 566.87 297.508C570.716 296.654 574.229 294.648 576.965 291.744C579.701 288.84 581.536 285.168 582.24 281.192C582.943 277.217 582.482 273.116 580.915 269.41C579.348 265.703 576.746 262.557 573.438 260.37C570.13 258.182 566.264 257.05 562.329 257.119C557.062 257.215 552.048 259.453 548.385 263.341C544.723 267.229 542.712 272.449 542.793 277.857L542.775 277.876Z" fill="white"/>
</g>
<path d="M296.475 675.868C291.112 704.186 286.733 758.198 281.3 786.515C285.536 777.578 277.921 765.337 268.234 765.539C258.546 765.74 251.415 778.257 255.972 787.029C254.453 780.588 245.909 777.853 240.226 781.065C234.542 784.276 231.861 791.361 232.021 797.986C232.182 804.611 237.384 814.503 243.353 818.761H386.898C395.942 816.026 404.379 808.851 405.791 799.271C406.327 794.633 405.265 789.949 402.791 786.031C400.316 782.112 396.585 779.206 392.242 777.816C387.827 776.685 383.168 777.136 379.036 779.095C374.904 781.054 371.549 784.404 369.525 788.589C372.17 783.414 374.887 778.11 375.513 772.311C376.138 766.511 374.315 760.033 369.543 756.858C364.77 753.683 357.031 755.5 355.405 761.079C352.938 739.735 343 675.226 343 675.226" fill="#FF6A3D"/>
<g opacity="0.8">
<path opacity="0.8" d="M296.475 675.868C291.112 704.186 286.733 758.198 281.3 786.515C285.536 777.578 277.921 765.337 268.234 765.539C258.546 765.74 251.415 778.257 255.972 787.029C254.453 780.588 245.909 777.853 240.226 781.065C234.542 784.276 231.861 791.361 232.021 797.986C232.182 804.611 237.384 814.503 243.353 818.761H386.898C395.942 816.026 404.379 808.851 405.791 799.271C406.327 794.633 405.265 789.949 402.791 786.031C400.316 782.112 396.585 779.206 392.242 777.816C387.827 776.685 383.168 777.136 379.036 779.095C374.904 781.054 371.549 784.404 369.525 788.589C372.17 783.414 374.887 778.11 375.513 772.311C376.138 766.511 374.315 760.033 369.543 756.858C364.77 753.683 357.031 755.5 355.405 761.079C352.938 739.735 343 675.226 343 675.226" fill="white"/>
</g>
<path d="M302.427 675.263C296.333 686.185 293.325 698.635 293.74 711.215C293.919 716.335 294.884 722.006 298.888 725.071C302.891 728.136 310.327 725.659 309.898 720.575C308.915 731.99 310.434 742.69 314.956 751.774C316.325 754.497 318.405 756.776 320.963 758.354C323.521 759.933 326.456 760.75 329.44 760.714C332.425 760.678 335.34 759.79 337.861 758.15C340.382 756.509 342.409 754.181 343.715 751.425C347.894 743.046 349.848 733.684 349.381 724.282C348.327 707.196 343.304 691.339 338.21 675.024L302.462 675.373" fill="#FF6A3D"/>
<g opacity="0.5">
<path opacity="0.5" d="M302.427 675.263C296.333 686.185 293.325 698.635 293.74 711.215C293.919 716.335 294.884 722.006 298.888 725.071C302.891 728.136 310.327 725.659 309.898 720.575C308.915 731.99 310.434 742.69 314.956 751.774C316.325 754.497 318.405 756.776 320.963 758.354C323.521 759.933 326.456 760.75 329.44 760.714C332.425 760.678 335.34 759.79 337.861 758.15C340.382 756.509 342.409 754.181 343.715 751.425C347.894 743.046 349.848 733.684 349.381 724.282C348.327 707.196 343.304 691.339 338.21 675.024L302.462 675.373" fill="white"/>
</g>
<path d="M310.273 675.501C308.039 679.484 306.055 684.677 308.146 688.752C309.933 692.074 313.883 693.468 315.957 696.57C318.03 699.671 317.744 703.654 317.637 707.361C317.53 711.068 317.744 715.234 320.372 717.785C323.625 720.942 329.308 719.896 332.401 716.556C335.493 713.216 336.422 708.352 336.476 703.709C336.583 693.156 333.437 684.824 329.487 675.079" fill="#FF6A3D"/>
<g opacity="0.3">
<path opacity="0.3" d="M310.273 675.501C308.039 679.484 306.055 684.677 308.146 688.752C309.933 692.074 313.883 693.468 315.957 696.57C318.03 699.671 317.744 703.654 317.637 707.361C317.53 711.068 317.744 715.234 320.372 717.785C323.625 720.942 329.308 719.896 332.401 716.556C335.493 713.216 336.422 708.352 336.476 703.709C336.583 693.156 333.437 684.824 329.487 675.079" fill="white"/>
</g>
<path d="M234.238 736.395C234.241 738.048 233.767 739.665 232.875 741.041C231.982 742.417 230.712 743.49 229.226 744.124C227.739 744.759 226.102 744.926 224.523 744.604C222.944 744.282 221.493 743.487 220.355 742.318C219.216 741.149 218.441 739.659 218.128 738.038C217.815 736.416 217.977 734.736 218.595 733.209C219.213 731.683 220.258 730.379 221.598 729.462C222.938 728.546 224.513 728.059 226.123 728.063C228.274 728.068 230.335 728.947 231.856 730.509C233.377 732.07 234.233 734.187 234.238 736.395Z" fill="#FF6A3D"/>
<g opacity="0.8">
<path opacity="0.8" d="M234.238 736.395C234.241 738.048 233.767 739.665 232.875 741.041C231.982 742.417 230.712 743.49 229.226 744.124C227.739 744.759 226.102 744.926 224.523 744.604C222.944 744.282 221.493 743.487 220.355 742.318C219.216 741.149 218.441 739.659 218.128 738.038C217.815 736.416 217.977 734.736 218.595 733.209C219.213 731.683 220.258 730.379 221.598 729.462C222.938 728.546 224.513 728.059 226.123 728.063C228.274 728.068 230.335 728.947 231.856 730.509C233.377 732.07 234.233 734.187 234.238 736.395Z" fill="white"/>
</g>
<path d="M400.357 754.197C398.826 752.208 398.009 749.738 398.045 747.203C398.081 744.668 398.968 742.224 400.557 740.283C402.145 738.341 404.337 737.022 406.762 736.548C409.188 736.074 411.698 736.473 413.87 737.679C413.18 736.768 412.732 735.689 412.569 734.548C412.406 733.406 412.534 732.24 412.941 731.164C413.792 729.019 415.314 727.224 417.266 726.062C420.086 724.38 423.368 723.703 426.602 724.138C429.835 724.573 432.837 726.095 435.14 728.466C437.315 731.062 438.673 734.273 439.037 737.676C439.401 741.08 438.752 744.517 437.177 747.535C435.521 750.492 433.228 753.021 430.474 754.929C427.72 756.838 424.578 758.075 421.288 758.546C414.728 759.611 403.986 759.39 400.268 754.197" fill="#FF6A3D"/>
<g opacity="0.8">
<path opacity="0.8" d="M400.357 754.197C398.826 752.208 398.009 749.738 398.045 747.203C398.081 744.668 398.968 742.224 400.557 740.283C402.145 738.341 404.337 737.022 406.762 736.548C409.188 736.074 411.698 736.473 413.87 737.679C413.18 736.768 412.732 735.689 412.569 734.548C412.406 733.406 412.534 732.24 412.941 731.164C413.792 729.019 415.314 727.224 417.266 726.062C420.086 724.38 423.368 723.703 426.602 724.138C429.835 724.573 432.837 726.095 435.14 728.466C437.315 731.062 438.673 734.273 439.037 737.676C439.401 741.08 438.752 744.517 437.177 747.535C435.521 750.492 433.228 753.021 430.474 754.929C427.72 756.838 424.578 758.075 421.288 758.546C414.728 759.611 403.986 759.39 400.268 754.197" fill="white"/>
</g>
<path d="M273.453 300.486C273.453 300.486 279.709 353.708 315.224 355.341C356.334 357.177 358.318 300.486 358.318 300.486H273.453Z" fill="#255B76"/>
<path d="M278.511 321.242C278.511 321.242 259.994 326.143 265.91 342.238L298.244 369.858C301.517 367.998 304.331 365.394 306.472 362.245C308.613 359.096 310.023 355.485 310.595 351.689L279.387 322.949" fill="#255B76"/>
<path d="M273.453 300.486C273.453 300.486 316.046 342.366 358.318 300.486H273.453Z" fill="#455A64"/>
<path d="M322.982 161.245C322.982 161.336 322.955 161.424 322.906 161.5C322.857 161.575 322.787 161.634 322.706 161.669C322.624 161.704 322.534 161.713 322.448 161.695C322.361 161.677 322.281 161.634 322.219 161.569C322.156 161.505 322.114 161.423 322.096 161.334C322.079 161.245 322.088 161.153 322.122 161.069C322.156 160.986 322.213 160.914 322.286 160.863C322.36 160.813 322.446 160.786 322.535 160.786C322.653 160.786 322.767 160.834 322.851 160.921C322.935 161.007 322.982 161.123 322.982 161.245Z" fill="white"/>
<path d="M336.995 121.145H298.941V157.263H336.995V121.145Z" fill="#255B76"/>
<path d="M325.484 140.709C325.484 140.709 344.984 140.25 347.737 120.668C349.077 111.198 350.257 91.5056 351.133 73.6486C352.098 54.4519 339.854 34.8881 318.138 34.9799C298.101 33.475 285.679 50.1207 284.767 70.7122C284.767 70.7122 286.251 112.336 289.611 121.861C292.971 131.386 303.463 142.048 320.854 140.782" fill="#FF6A3D"/>
<path d="M337.656 75.4102H298.28C293.502 75.4102 289.629 79.387 289.629 84.2928V84.6415C289.629 89.5472 293.502 93.5241 298.28 93.5241H337.656C342.434 93.5241 346.307 89.5472 346.307 84.6415V84.2928C346.307 79.387 342.434 75.4102 337.656 75.4102Z" fill="#255B76"/>
<path d="M336.977 84.3481C336.977 85.1029 336.689 85.8275 336.174 86.3663C335.659 86.9051 334.959 87.2151 334.224 87.2295C333.867 87.2493 333.51 87.195 333.173 87.0699C332.837 86.9448 332.529 86.7515 332.267 86.5014C332.005 86.2513 331.795 85.9497 331.649 85.6144C331.503 85.2792 331.425 84.9171 331.418 84.55C331.432 83.7954 331.734 83.0766 332.259 82.5481C332.783 82.0196 333.489 81.7236 334.224 81.7237C334.926 81.7037 335.608 81.9675 336.123 82.4582C336.638 82.949 336.944 83.6276 336.977 84.3481Z" fill="white"/>
<path d="M284.874 87.9638C284.874 94.4606 283.694 99.7461 282.247 99.7461C280.799 99.7461 279.619 94.4606 279.619 87.9638C279.619 81.467 280.799 76.1631 282.247 76.1631C283.694 76.1631 284.874 81.4486 284.874 87.9638Z" fill="#255B76"/>
<path d="M287.323 87.9636C287.323 94.4604 286.036 99.7459 284.445 99.7459H282.39C281.21 98.2777 281.639 93.2858 281.639 87.9636C281.639 82.6414 280.996 77.7045 282.175 76.218C282.443 75.8693 284.213 76.218 284.517 76.218C285.964 76.218 287.323 81.4484 287.323 87.9636Z" fill="#255B76"/>
<path d="M350.417 87.2296C350.417 80.7144 351.597 75.4473 353.045 75.4473C354.493 75.4473 355.672 80.7144 355.672 87.2296C355.672 93.7447 354.493 99.0303 353.045 99.0303C351.597 99.0303 350.417 93.7447 350.417 87.2296Z" fill="#255B76"/>
<path d="M347.969 87.2296C347.969 80.7144 349.256 75.4473 350.847 75.4473H352.956C354.136 76.8971 353.707 81.9073 353.707 87.2296C353.707 92.5518 354.35 97.4886 353.188 98.9752C352.92 99.3239 351.133 98.9752 350.847 98.9752C349.256 99.0303 347.969 93.7447 347.969 87.2296Z" fill="#255B76"/>
<g opacity="0.3">
<path opacity="0.3" d="M349.757 98.2407C349.757 99.2318 348.81 111.693 347.969 119.016C347.219 125.494 345.306 130.798 340.409 134.964C336.49 138.48 331.567 140.598 326.378 141.002C320.068 141.571 313.705 141.755 307.718 139.681C301.73 137.607 295.492 133.423 292.471 127.733C292.471 127.733 319.282 142.415 337.352 129.991C337.352 129.991 343.966 126.779 346.289 112.666C348.524 99.14 349.757 98.2407 349.757 98.2407Z" fill="black"/>
</g>
<path d="M337.263 96.0939C337.263 96.0939 337.763 96.0939 338.71 95.8737C340.081 95.6572 341.394 95.1577 342.571 94.4055C344.449 93.2442 345.929 91.5127 346.807 89.4503C347.343 88.1742 347.629 86.8022 347.647 85.4128C347.724 83.8549 347.48 82.2979 346.932 80.843C346.303 79.1857 345.28 77.7164 343.957 76.5688C342.633 75.4213 341.051 74.632 339.354 74.2728C337.407 74.0545 335.448 73.987 333.491 74.0709H327.182H299.031C296.682 74.0688 294.404 74.8955 292.579 76.4124C290.753 77.9293 289.491 80.0442 289.003 82.4029C288.563 84.6506 288.756 86.9804 289.557 89.12C290.378 91.094 291.757 92.7691 293.517 93.9277C295.276 95.0863 297.334 95.6748 299.424 95.6168H305.376H316.1L331.597 95.7819H335.797C336.29 95.7312 336.787 95.7312 337.281 95.7819C336.787 95.8208 336.291 95.8208 335.797 95.7819L331.597 95.8737L316.1 96.0205H305.376H299.424C297.159 96.0986 294.923 95.473 293.01 94.2254C291.096 92.9779 289.594 91.1665 288.699 89.0282C287.797 86.6964 287.58 84.1444 288.074 81.6872C288.594 79.1041 289.963 76.783 291.951 75.1125C293.939 73.442 296.426 72.5236 298.995 72.5109H327.146H333.456C335.467 72.4212 337.482 72.5072 339.479 72.7679C341.287 73.1712 342.968 74.0298 344.372 75.2665C345.776 76.5031 346.859 78.0789 347.522 79.8519C348.586 82.8336 348.484 86.1225 347.236 89.0282C346.291 91.161 344.715 92.9335 342.732 94.0935C341.495 94.8336 340.117 95.2906 338.693 95.4332C338.242 95.7077 337.762 95.9293 337.263 96.0939Z" fill="white"/>
<path d="M318.138 34.98C318.423 36.8495 318.554 38.7404 318.531 40.6326C318.656 44.1195 318.781 48.9646 318.835 54.3052C318.888 59.6458 318.924 64.4908 318.835 67.9962C318.906 69.8842 318.822 71.7751 318.585 73.6487C318.299 71.779 318.162 69.8887 318.174 67.9962C318.048 64.4908 317.941 59.6641 317.87 54.3235C317.798 48.983 317.87 44.1562 317.87 40.6509C317.809 38.7563 317.898 36.8597 318.138 34.98Z" fill="white"/>
<path d="M318.96 141.296C318.71 141.296 318.495 131.33 318.495 119.034C318.495 106.738 318.71 96.791 318.96 96.791C319.21 96.791 319.425 106.738 319.425 119.034C319.425 131.33 319.228 141.296 318.96 141.296Z" fill="white"/>
<path d="M321.516 48.6893C321.516 48.78 321.49 48.8687 321.44 48.9442C321.391 49.0196 321.322 49.0784 321.24 49.1132C321.158 49.1479 321.068 49.157 320.982 49.1393C320.895 49.1216 320.815 49.0779 320.753 49.0137C320.69 48.9495 320.648 48.8678 320.631 48.7788C320.613 48.6898 320.622 48.5975 320.656 48.5137C320.69 48.4299 320.747 48.3582 320.821 48.3078C320.894 48.2574 320.981 48.2305 321.069 48.2305C321.187 48.2305 321.301 48.2788 321.385 48.3649C321.469 48.4509 321.516 48.5676 321.516 48.6893Z" fill="white"/>
<path d="M323.5 116.979C323.5 117.07 323.474 117.158 323.425 117.234C323.376 117.309 323.306 117.368 323.224 117.403C323.143 117.437 323.053 117.447 322.966 117.429C322.879 117.411 322.8 117.367 322.737 117.303C322.675 117.239 322.632 117.157 322.615 117.068C322.598 116.979 322.607 116.887 322.64 116.803C322.674 116.719 322.732 116.648 322.805 116.597C322.879 116.547 322.965 116.52 323.053 116.52C323.172 116.52 323.285 116.568 323.369 116.654C323.453 116.74 323.5 116.857 323.5 116.979Z" fill="white"/>
<path d="M321.963 57.6453C321.963 57.7361 321.936 57.8248 321.887 57.9002C321.838 57.9757 321.768 58.0345 321.687 58.0692C321.605 58.104 321.515 58.113 321.429 58.0953C321.342 58.0776 321.262 58.0339 321.2 57.9698C321.137 57.9056 321.095 57.8239 321.077 57.7349C321.06 57.6458 321.069 57.5536 321.103 57.4698C321.137 57.3859 321.194 57.3143 321.267 57.2639C321.341 57.2134 321.427 57.1865 321.516 57.1865C321.634 57.1865 321.748 57.2349 321.832 57.3209C321.915 57.407 321.963 57.5237 321.963 57.6453Z" fill="white"/>
<path d="M323.5 102.609C323.5 102.699 323.474 102.788 323.425 102.864C323.376 102.939 323.306 102.998 323.224 103.033C323.143 103.067 323.053 103.076 322.966 103.059C322.879 103.041 322.8 102.997 322.737 102.933C322.675 102.869 322.632 102.787 322.615 102.698C322.598 102.609 322.607 102.517 322.64 102.433C322.674 102.349 322.732 102.278 322.805 102.227C322.879 102.177 322.965 102.15 323.053 102.15C323.172 102.15 323.285 102.198 323.369 102.284C323.453 102.37 323.5 102.487 323.5 102.609Z" fill="white"/>
<path d="M353.153 98.8648C352.457 97.9593 351.952 96.9158 351.669 95.7999C350.788 93.1702 350.317 90.4138 350.275 87.6331C350.227 84.846 350.62 82.0694 351.437 79.4111C351.708 78.2968 352.181 77.2447 352.831 76.3096C351.855 79.9986 351.309 83.7935 351.204 87.6147C351.408 91.4318 352.062 95.2094 353.153 98.8648Z" fill="#455A64"/>
<path d="M281.693 100.719C281.55 100.719 282.336 99.3788 283.051 97.1398C283.935 94.2035 284.381 91.1468 284.374 88.0736C284.374 86.2384 284.374 84.5316 284.374 82.9533C284.422 81.5869 284.314 80.2196 284.052 78.879C283.954 78.4532 283.772 78.0527 283.517 77.7022C283.261 77.3518 282.939 77.0589 282.569 76.8419C282.033 76.5482 281.657 76.5849 281.657 76.4932C281.657 76.4014 282.033 76.273 282.712 76.4932C283.177 76.674 283.596 76.9614 283.936 77.3335C284.277 77.7056 284.531 78.1526 284.678 78.6404C285.05 80.0273 285.236 81.4597 285.232 82.8982C285.232 84.4765 285.375 86.2384 285.232 88.0736C285.245 91.245 284.694 94.3922 283.605 97.36C283.223 98.6134 282.569 99.7616 281.693 100.719Z" fill="#455A64"/>
<path d="M305.626 86.4585C305.465 86.4585 305.626 85.7244 305.215 84.7701C304.982 84.1697 304.579 83.6549 304.058 83.2922C303.537 82.9295 302.922 82.7356 302.293 82.7356C301.663 82.7356 301.048 82.9295 300.527 83.2922C300.006 83.6549 299.603 84.1697 299.37 84.7701C298.959 85.7244 299.066 86.4402 298.923 86.4585C298.78 86.4769 298.441 85.7611 298.745 84.6233C298.936 83.9113 299.328 83.273 299.871 82.788C300.344 82.3631 300.915 82.0701 301.53 81.9374C302.145 81.8047 302.783 81.8366 303.383 82.0301C303.982 82.2236 304.523 82.5723 304.954 83.0425C305.384 83.5127 305.689 84.0886 305.84 84.715C306.18 85.7795 305.787 86.5136 305.626 86.4585Z" fill="white"/>
<path d="M336.905 150.931C330.625 151.414 324.326 151.574 318.031 151.408C311.735 151.574 305.436 151.414 299.156 150.931C299.156 150.674 307.61 150.454 318.031 150.454C328.451 150.454 336.905 150.674 336.905 150.931Z" fill="#455A64"/>
<path d="M336.905 146.233C330.625 146.716 324.326 146.875 318.031 146.71C311.735 146.875 305.436 146.716 299.156 146.233C299.156 145.976 307.61 145.755 318.031 145.755C328.451 145.755 336.905 145.957 336.905 146.233Z" fill="#455A64"/>
<path d="M315.135 155.391C315.135 155.391 260.834 157.74 252.255 179.359C243.675 200.978 247.5 280.903 277.153 287.382C295.849 291.475 327.075 290.41 347.54 289.052C353.594 288.648 359.368 286.29 364.039 282.316C368.709 278.341 372.037 272.952 373.547 266.919C379.82 241.923 387.452 200.024 376.156 176.111C363.948 162.603 343.393 155.849 315.135 155.391Z" fill="#FF6A3D"/>
<path d="M339.3 185.599H292.31C278.579 185.599 267.447 197.029 267.447 211.127V212.137C267.447 226.236 278.579 237.665 292.31 237.665H339.3C353.031 237.665 364.163 226.236 364.163 212.137V211.127C364.163 197.029 353.031 185.599 339.3 185.599Z" fill="#255B76"/>
<path d="M323.875 255.21C323.875 255.301 323.849 255.389 323.8 255.465C323.751 255.54 323.681 255.599 323.599 255.634C323.518 255.668 323.428 255.677 323.341 255.66C323.254 255.642 323.175 255.598 323.112 255.534C323.05 255.47 323.007 255.388 322.99 255.299C322.973 255.21 322.982 255.118 323.015 255.034C323.049 254.95 323.107 254.879 323.18 254.828C323.254 254.778 323.34 254.751 323.428 254.751C323.547 254.751 323.66 254.799 323.744 254.885C323.828 254.971 323.875 255.088 323.875 255.21Z" fill="white"/>
<path d="M333.045 247.832C333.045 247.923 333.018 248.012 332.969 248.087C332.92 248.163 332.85 248.222 332.769 248.256C332.687 248.291 332.597 248.3 332.511 248.282C332.424 248.265 332.344 248.221 332.282 248.157C332.219 248.093 332.177 248.011 332.159 247.922C332.142 247.833 332.151 247.741 332.185 247.657C332.219 247.573 332.276 247.501 332.349 247.451C332.423 247.4 332.509 247.374 332.598 247.374C332.716 247.374 332.83 247.422 332.914 247.508C332.997 247.594 333.045 247.711 333.045 247.832Z" fill="white"/>
<path d="M351.276 246.896C351.276 247.018 351.228 247.135 351.145 247.221C351.061 247.307 350.947 247.355 350.829 247.355C350.71 247.355 350.596 247.307 350.513 247.221C350.429 247.135 350.382 247.018 350.382 246.896C350.382 246.775 350.429 246.658 350.513 246.572C350.596 246.486 350.71 246.438 350.829 246.438C350.947 246.438 351.061 246.486 351.145 246.572C351.228 246.658 351.276 246.775 351.276 246.896Z" fill="white"/>
<path d="M364.61 239.555C364.61 239.677 364.562 239.794 364.479 239.88C364.395 239.966 364.281 240.014 364.163 240.014C364.044 240.014 363.93 239.966 363.847 239.88C363.763 239.794 363.716 239.677 363.716 239.555C363.716 239.434 363.763 239.317 363.847 239.231C363.93 239.145 364.044 239.097 364.163 239.097C364.281 239.097 364.395 239.145 364.479 239.231C364.562 239.317 364.61 239.434 364.61 239.555Z" fill="white"/>
<path d="M372.903 227.479C372.903 227.57 372.877 227.659 372.828 227.734C372.779 227.81 372.709 227.868 372.627 227.903C372.545 227.938 372.456 227.947 372.369 227.929C372.282 227.912 372.203 227.868 372.14 227.804C372.078 227.74 372.035 227.658 372.018 227.569C372.001 227.48 372.009 227.388 372.043 227.304C372.077 227.22 372.134 227.148 372.208 227.098C372.281 227.047 372.368 227.021 372.456 227.021C372.575 227.021 372.688 227.069 372.772 227.155C372.856 227.241 372.903 227.358 372.903 227.479Z" fill="white"/>
<path d="M375.923 214.651C375.923 214.742 375.897 214.831 375.848 214.906C375.799 214.982 375.729 215.04 375.648 215.075C375.566 215.11 375.476 215.119 375.389 215.101C375.303 215.084 375.223 215.04 375.161 214.976C375.098 214.911 375.056 214.83 375.038 214.741C375.021 214.652 375.03 214.559 375.064 214.476C375.098 214.392 375.155 214.32 375.228 214.27C375.302 214.219 375.388 214.192 375.477 214.192C375.595 214.192 375.709 214.241 375.793 214.327C375.876 214.413 375.923 214.53 375.923 214.651Z" fill="white"/>
<path d="M374.566 202.226C374.566 202.317 374.539 202.406 374.49 202.481C374.441 202.557 374.371 202.616 374.29 202.65C374.208 202.685 374.118 202.694 374.032 202.676C373.945 202.659 373.865 202.615 373.803 202.551C373.74 202.487 373.698 202.405 373.68 202.316C373.663 202.227 373.672 202.135 373.706 202.051C373.74 201.967 373.797 201.895 373.871 201.845C373.944 201.794 374.03 201.768 374.119 201.768C374.237 201.768 374.351 201.816 374.435 201.902C374.518 201.988 374.566 202.105 374.566 202.226Z" fill="white"/>
<path d="M368.989 190.004C368.989 190.094 368.963 190.183 368.914 190.259C368.865 190.334 368.795 190.393 368.713 190.428C368.631 190.462 368.542 190.471 368.455 190.454C368.368 190.436 368.289 190.392 368.226 190.328C368.164 190.264 368.121 190.182 368.104 190.093C368.087 190.004 368.095 189.912 368.129 189.828C368.163 189.744 368.22 189.673 368.294 189.622C368.367 189.572 368.454 189.545 368.542 189.545C368.661 189.545 368.774 189.593 368.858 189.679C368.942 189.765 368.989 189.882 368.989 190.004Z" fill="white"/>
<path d="M361.035 182.149C361.035 182.239 361.009 182.328 360.959 182.404C360.91 182.479 360.841 182.538 360.759 182.573C360.677 182.607 360.587 182.616 360.501 182.599C360.414 182.581 360.334 182.537 360.272 182.473C360.209 182.409 360.167 182.327 360.15 182.238C360.132 182.149 360.141 182.057 360.175 181.973C360.209 181.889 360.266 181.818 360.34 181.767C360.413 181.717 360.5 181.69 360.588 181.69C360.706 181.69 360.82 181.738 360.904 181.824C360.988 181.91 361.035 182.027 361.035 182.149Z" fill="white"/>
<path d="M349.56 177.157C349.56 177.278 349.513 177.395 349.429 177.481C349.345 177.567 349.231 177.615 349.113 177.615C348.994 177.615 348.881 177.567 348.797 177.481C348.713 177.395 348.666 177.278 348.666 177.157C348.666 177.035 348.713 176.918 348.797 176.832C348.881 176.746 348.994 176.698 349.113 176.698C349.231 176.698 349.345 176.746 349.429 176.832C349.513 176.918 349.56 177.035 349.56 177.157Z" fill="white"/>
<path d="M335.1 176.771C335.1 176.893 335.053 177.01 334.969 177.096C334.885 177.182 334.771 177.23 334.653 177.23C334.534 177.23 334.421 177.182 334.337 177.096C334.253 177.01 334.206 176.893 334.206 176.771C334.206 176.65 334.253 176.533 334.337 176.447C334.421 176.361 334.534 176.312 334.653 176.312C334.771 176.312 334.885 176.361 334.969 176.447C335.053 176.533 335.1 176.65 335.1 176.771Z" fill="white"/>
<path d="M321.408 177.157C321.408 177.247 321.382 177.336 321.333 177.411C321.284 177.487 321.214 177.546 321.132 177.58C321.051 177.615 320.961 177.624 320.874 177.607C320.788 177.589 320.708 177.545 320.646 177.481C320.583 177.417 320.54 177.335 320.523 177.246C320.506 177.157 320.515 177.065 320.549 176.981C320.582 176.897 320.64 176.825 320.713 176.775C320.787 176.725 320.873 176.698 320.961 176.698C321.08 176.698 321.194 176.746 321.277 176.832C321.361 176.918 321.408 177.035 321.408 177.157Z" fill="white"/>
<path d="M305.394 176.312C305.394 176.403 305.367 176.492 305.318 176.567C305.269 176.643 305.199 176.701 305.118 176.736C305.036 176.771 304.946 176.78 304.86 176.762C304.773 176.745 304.693 176.701 304.631 176.637C304.568 176.573 304.526 176.491 304.509 176.402C304.491 176.313 304.5 176.221 304.534 176.137C304.568 176.053 304.625 175.981 304.699 175.931C304.772 175.88 304.858 175.854 304.947 175.854C305.065 175.854 305.179 175.902 305.263 175.988C305.347 176.074 305.394 176.191 305.394 176.312Z" fill="white"/>
<path d="M290.272 176.312C290.272 176.434 290.225 176.551 290.141 176.637C290.057 176.723 289.944 176.771 289.825 176.771C289.707 176.771 289.593 176.723 289.509 176.637C289.426 176.551 289.378 176.434 289.378 176.312C289.378 176.191 289.426 176.074 289.509 175.988C289.593 175.902 289.707 175.854 289.825 175.854C289.944 175.854 290.057 175.902 290.141 175.988C290.225 176.074 290.272 176.191 290.272 176.312Z" fill="white"/>
<path d="M274.99 180.277C274.99 180.398 274.943 180.515 274.859 180.601C274.775 180.687 274.662 180.735 274.543 180.735C274.426 180.731 274.315 180.681 274.232 180.596C274.149 180.511 274.101 180.397 274.096 180.277C274.096 180.155 274.143 180.038 274.227 179.952C274.311 179.866 274.425 179.818 274.543 179.818C274.662 179.818 274.775 179.866 274.859 179.952C274.943 180.038 274.99 180.155 274.99 180.277Z" fill="white"/>
<path d="M261.567 190.37C261.567 190.461 261.541 190.55 261.492 190.625C261.443 190.701 261.373 190.76 261.291 190.794C261.21 190.829 261.12 190.838 261.033 190.82C260.946 190.803 260.867 190.759 260.804 190.695C260.742 190.631 260.699 190.549 260.682 190.46C260.665 190.371 260.674 190.279 260.707 190.195C260.741 190.111 260.798 190.039 260.872 189.989C260.945 189.939 261.032 189.912 261.12 189.912C261.239 189.912 261.352 189.96 261.436 190.046C261.52 190.132 261.567 190.249 261.567 190.37Z" fill="white"/>
<path d="M255.579 206.227C255.579 206.318 255.553 206.407 255.504 206.482C255.455 206.558 255.385 206.617 255.303 206.651C255.222 206.686 255.132 206.695 255.045 206.677C254.959 206.66 254.879 206.616 254.816 206.552C254.754 206.488 254.711 206.406 254.694 206.317C254.677 206.228 254.686 206.136 254.72 206.052C254.753 205.968 254.811 205.896 254.884 205.846C254.958 205.795 255.044 205.769 255.132 205.769C255.251 205.769 255.365 205.817 255.448 205.903C255.532 205.989 255.579 206.106 255.579 206.227Z" fill="white"/>
<path d="M256.884 222.322C256.884 222.444 256.837 222.56 256.753 222.647C256.669 222.733 256.556 222.781 256.437 222.781C256.319 222.781 256.205 222.733 256.121 222.647C256.037 222.56 255.99 222.444 255.99 222.322C255.99 222.2 256.037 222.084 256.121 221.998C256.205 221.912 256.319 221.863 256.437 221.863C256.556 221.863 256.669 221.912 256.753 221.998C256.837 222.084 256.884 222.2 256.884 222.322Z" fill="white"/>
<path d="M264.194 235.243C264.194 235.333 264.168 235.422 264.119 235.497C264.07 235.573 264 235.632 263.919 235.666C263.837 235.701 263.747 235.71 263.66 235.693C263.574 235.675 263.494 235.631 263.432 235.567C263.369 235.503 263.327 235.421 263.309 235.332C263.292 235.243 263.301 235.151 263.335 235.067C263.369 234.983 263.426 234.911 263.499 234.861C263.573 234.811 263.659 234.784 263.748 234.784C263.866 234.784 263.98 234.832 264.064 234.918C264.147 235.004 264.194 235.121 264.194 235.243Z" fill="white"/>
<path d="M277.117 246.456C277.117 246.547 277.091 246.635 277.042 246.711C276.993 246.786 276.923 246.845 276.841 246.88C276.76 246.915 276.67 246.924 276.583 246.906C276.497 246.888 276.417 246.845 276.355 246.78C276.292 246.716 276.249 246.634 276.232 246.545C276.215 246.456 276.224 246.364 276.258 246.28C276.291 246.196 276.349 246.125 276.422 246.074C276.496 246.024 276.582 245.997 276.67 245.997C276.789 245.997 276.903 246.045 276.986 246.131C277.07 246.218 277.117 246.334 277.117 246.456Z" fill="white"/>
<path d="M294.795 246.896C294.795 247.018 294.747 247.135 294.664 247.221C294.58 247.307 294.466 247.355 294.348 247.355C294.229 247.355 294.116 247.307 294.032 247.221C293.948 247.135 293.901 247.018 293.901 246.896C293.901 246.775 293.948 246.658 294.032 246.572C294.116 246.486 294.229 246.438 294.348 246.438C294.466 246.438 294.58 246.486 294.664 246.572C294.747 246.658 294.795 246.775 294.795 246.896Z" fill="white"/>
<path d="M311.757 247.373C311.757 247.464 311.731 247.553 311.682 247.628C311.633 247.704 311.563 247.763 311.481 247.797C311.399 247.832 311.31 247.841 311.223 247.823C311.136 247.806 311.057 247.762 310.994 247.698C310.932 247.634 310.889 247.552 310.872 247.463C310.855 247.374 310.863 247.282 310.897 247.198C310.931 247.114 310.988 247.042 311.062 246.992C311.135 246.941 311.222 246.915 311.31 246.915C311.429 246.915 311.542 246.963 311.626 247.049C311.71 247.135 311.757 247.252 311.757 247.373Z" fill="white"/>
<path d="M323.5 271.672C323.5 271.763 323.474 271.852 323.425 271.927C323.376 272.003 323.306 272.061 323.224 272.096C323.143 272.131 323.053 272.14 322.966 272.122C322.879 272.104 322.8 272.061 322.737 271.997C322.675 271.932 322.632 271.851 322.615 271.762C322.598 271.673 322.607 271.58 322.64 271.497C322.674 271.413 322.732 271.341 322.805 271.291C322.879 271.24 322.965 271.213 323.053 271.213C323.172 271.213 323.285 271.262 323.369 271.348C323.453 271.434 323.5 271.551 323.5 271.672Z" fill="white"/>
<path d="M316.207 203.952V221.075H312.346V214.046H304.768V221.075H300.907V203.952H304.768V210.705H312.346V203.952H316.207Z" fill="white"/>
<path d="M319.46 203.951C319.464 203.652 319.528 203.357 319.648 203.085C319.769 202.812 319.943 202.568 320.159 202.368C320.376 202.168 320.63 202.017 320.907 201.923C321.184 201.829 321.476 201.795 321.766 201.823C322.052 201.789 322.342 201.817 322.617 201.905C322.892 201.992 323.147 202.137 323.365 202.33C323.583 202.523 323.76 202.76 323.885 203.026C324.009 203.293 324.079 203.583 324.09 203.878C324.039 204.472 323.773 205.025 323.344 205.428C322.916 205.831 322.356 206.055 321.775 206.055C321.194 206.055 320.634 205.831 320.206 205.428C319.777 205.025 319.511 204.472 319.46 203.878V203.951ZM319.907 207.916H323.643V221.074H319.925L319.907 207.916Z" fill="white"/>
<path d="M326.539 219.056C326.539 218.433 326.78 217.835 327.209 217.395C327.638 216.954 328.22 216.707 328.826 216.707C329.433 216.707 330.015 216.954 330.444 217.395C330.873 217.835 331.114 218.433 331.114 219.056C331.114 219.679 330.873 220.276 330.444 220.717C330.015 221.157 329.433 221.405 328.826 221.405C328.22 221.405 327.638 221.157 327.209 220.717C326.78 220.276 326.539 219.679 326.539 219.056ZM326.539 203.952H330.971L330.238 215.128H327.289L326.539 203.952Z" fill="white"/>
<path d="M317.262 180.827C316.802 176.685 316.647 172.513 316.797 168.347C316.646 164.181 316.802 160.01 317.262 155.868C317.722 160.01 317.877 164.181 317.726 168.347C317.876 172.513 317.721 176.685 317.262 180.827Z" fill="white"/>
<path d="M317.798 288.226C317.548 288.226 317.333 278.004 317.333 265.378C317.333 252.751 317.548 242.51 317.798 242.51C318.048 242.51 318.281 252.751 318.281 265.378C318.281 278.004 318.138 288.226 317.798 288.226Z" fill="white"/>
<path d="M340.533 242.51C344.279 242.373 347.974 241.572 351.454 240.142C355.519 238.444 359.155 235.821 362.089 232.471C363.932 230.404 365.473 228.073 366.665 225.552C368.044 222.748 368.956 219.727 369.364 216.614C370.441 209.465 369.117 202.151 365.61 195.876C363.562 192.341 360.831 189.273 357.585 186.861C354.339 184.45 350.647 182.746 346.736 181.855C342.607 180.864 338.192 181.286 333.706 181.194H291.059C286.296 181.194 281.606 182.395 277.401 184.693C273.197 186.991 269.606 190.314 266.947 194.371C264.452 198.231 262.85 202.625 262.264 207.218C261.72 211.64 262.024 216.129 263.158 220.432C264.271 224.378 266.167 228.044 268.726 231.203C271.285 234.361 274.452 236.942 278.029 238.784C281.281 240.462 284.808 241.507 288.431 241.867L291.023 241.996H298.583L329.273 242.143L337.638 242.235H339.8C340.044 242.211 340.29 242.211 340.533 242.235H339.8H337.638L329.273 242.326L298.583 242.473H291.023L288.377 242.345C282.382 241.785 276.69 239.385 272.042 235.457C267.394 231.529 264.005 226.255 262.317 220.322C261.146 215.901 260.83 211.287 261.388 206.741C261.977 201.992 263.622 197.445 266.196 193.454C268.927 189.256 272.625 185.816 276.963 183.441C281.3 181.065 286.142 179.827 291.059 179.836H340.337L343.643 180.001C344.734 180.185 345.824 180.313 346.878 180.552C350.947 181.521 354.774 183.352 358.113 185.928C361.453 188.503 364.232 191.767 366.272 195.509C369.82 201.942 371.126 209.426 369.972 216.725C369.547 219.924 368.598 223.027 367.165 225.901C365.928 228.457 364.332 230.813 362.429 232.893C359.432 236.277 355.712 238.903 351.561 240.564C348.954 241.608 346.216 242.269 343.429 242.528H341.248L340.533 242.51Z" fill="white"/>
<g opacity="0.3">
<path opacity="0.3" d="M254.668 258.367C271.469 272.406 291.577 286.152 313.812 286.611C336.274 286.957 358.014 278.474 374.583 262.9C374.583 262.9 371.581 285.29 350.633 288.593C337.263 290.741 314.617 290.667 298.798 289.86C289.862 289.419 283.177 288.355 281.532 288.171C276.009 287.566 266.125 285.712 260.084 271.929C259.154 269.855 258.082 268.149 257.456 266.662C254.025 258.569 254.668 258.367 254.668 258.367Z" fill="black"/>
</g>
<path d="M355.941 288.043H275.652C274.388 288.043 273.364 289.094 273.364 290.392V290.465C273.364 291.763 274.388 292.814 275.652 292.814H355.941C357.204 292.814 358.229 291.763 358.229 290.465V290.392C358.229 289.094 357.204 288.043 355.941 288.043Z" fill="#255B76"/>
<path d="M313.705 354.901C313.041 354.897 312.38 354.805 311.739 354.626C309.96 354.231 308.21 353.71 306.502 353.066C300.833 350.949 295.642 347.673 291.243 343.437C286.843 339.2 283.327 334.091 280.906 328.418C280.185 326.71 279.587 324.95 279.119 323.151C278.898 322.505 278.76 321.833 278.708 321.151C278.869 321.151 279.584 323.922 281.55 328.125C286.68 339.205 295.693 347.889 306.788 352.442C310.988 354.185 313.741 354.736 313.705 354.901Z" fill="#455A64"/>
<path d="M356.262 321.297C356.262 321.297 374.78 326.197 368.863 342.293L336.53 369.968C333.257 368.108 330.442 365.504 328.301 362.355C326.161 359.205 324.75 355.595 324.179 351.799L355.386 323.059" fill="#255B76"/>
<path d="M321.069 354.956C321.069 354.791 323.821 354.222 328.04 352.478C339.138 347.941 348.154 339.26 353.278 328.18C355.244 323.977 355.959 321.151 356.119 321.206C356.066 321.888 355.928 322.56 355.708 323.206C355.243 325.006 354.645 326.766 353.921 328.473C351.501 334.146 347.984 339.255 343.585 343.492C339.185 347.728 333.994 351.004 328.326 353.121C326.62 353.769 324.87 354.285 323.089 354.662C322.432 354.856 321.752 354.955 321.069 354.956Z" fill="#455A64"/>
<path d="M318.137 355.378C317.677 349.469 317.522 343.539 317.673 337.613C317.522 331.681 317.677 325.745 318.137 319.829C318.598 325.745 318.753 331.681 318.602 337.613C318.752 343.539 318.597 349.469 318.137 355.378Z" fill="#455A64"/>
<path d="M269.378 488.507L255.347 501.537C255.347 501.537 253.739 549.034 271.434 593.135C289.129 637.236 300.675 650.156 300.675 650.156L313.955 649.275L303.839 490.416L289.29 487.167L269.378 488.507Z" fill="#FF6A3D"/>
<g opacity="0.3">
<path opacity="0.3" d="M283.552 487.663L305.411 645.219L314.027 646.265L303.856 490.416L289.307 487.167L283.552 487.663Z" fill="black"/>
</g>
<path d="M305.411 645.146C305.143 645.146 300.049 609.964 294.133 566.469C288.217 522.973 283.534 487.681 283.802 487.645C284.07 487.608 289.164 522.826 295.062 566.34C300.961 609.854 305.626 645.146 305.411 645.146Z" fill="white"/>
<path d="M294.634 528.149C294.639 528.209 294.632 528.27 294.614 528.327C294.596 528.385 294.567 528.438 294.529 528.484C294.49 528.53 294.444 528.568 294.391 528.596C294.339 528.623 294.281 528.639 294.223 528.644C294.102 528.649 293.985 528.606 293.895 528.524C293.805 528.442 293.749 528.327 293.74 528.204C293.738 528.143 293.747 528.083 293.767 528.027C293.787 527.97 293.818 527.918 293.858 527.874C293.898 527.829 293.946 527.794 293.999 527.768C294.053 527.743 294.11 527.729 294.169 527.727C294.285 527.721 294.398 527.763 294.484 527.841C294.571 527.92 294.625 528.03 294.634 528.149Z" fill="white"/>
<path d="M299.674 566.854C299.679 566.975 299.64 567.093 299.563 567.185C299.487 567.277 299.38 567.336 299.263 567.35C299.143 567.355 299.025 567.312 298.935 567.23C298.845 567.147 298.789 567.033 298.78 566.909C298.78 566.788 298.827 566.671 298.911 566.585C298.995 566.499 299.109 566.45 299.227 566.45C299.346 566.45 299.459 566.499 299.543 566.585C299.627 566.671 299.674 566.788 299.674 566.909V566.854Z" fill="white"/>
<path d="M304.893 611.34C304.898 611.401 304.891 611.461 304.873 611.519C304.855 611.577 304.826 611.63 304.788 611.676C304.75 611.722 304.703 611.76 304.651 611.787C304.598 611.815 304.541 611.831 304.482 611.836C304.364 611.841 304.249 611.801 304.16 611.723C304.07 611.644 304.013 611.534 303.999 611.414C303.994 611.29 304.036 611.17 304.116 611.077C304.196 610.985 304.308 610.928 304.428 610.918C304.544 610.913 304.657 610.954 304.744 611.033C304.83 611.112 304.884 611.222 304.893 611.34Z" fill="white"/>
<path d="M288.646 496.49C288.651 496.614 288.609 496.735 288.529 496.827C288.449 496.92 288.337 496.977 288.217 496.986C288.098 496.986 287.985 496.938 287.901 496.852C287.817 496.766 287.77 496.649 287.77 496.527C287.77 496.405 287.817 496.289 287.901 496.203C287.985 496.117 288.098 496.068 288.217 496.068C288.325 496.076 288.427 496.123 288.506 496.2C288.584 496.277 288.634 496.38 288.646 496.49Z" fill="white"/>
<path d="M265.91 342.329H252.97C252.97 342.329 236.883 425.338 265.91 462.979H288.539C288.539 462.979 298.244 444.149 298.244 434.202V369.858L265.91 342.329Z" fill="#FF6A3D"/>
<g opacity="0.3">
<path opacity="0.3" d="M257.045 447.031L281.782 437.01V355.837L298.244 369.913L298.065 433.982C298.07 436.075 297.848 438.161 297.404 440.203C295.592 448.196 292.577 455.849 288.467 462.887H265.91C262.252 458.051 259.268 452.714 257.045 447.031Z" fill="black"/>
</g>
<path d="M281.782 355.837C281.865 356.198 281.901 356.568 281.89 356.938C281.89 357.764 281.89 358.773 281.979 360.095C281.979 362.958 281.979 366.903 282.122 371.712C282.122 381.641 282.211 395.148 282.265 410.069C282.265 419.924 282.265 429.137 282.265 437.01V437.304L282.015 437.395L264.016 444.498L258.94 446.425C258.362 446.679 257.764 446.881 257.152 447.031C257.725 446.7 258.322 446.417 258.94 446.186L263.927 444.039L281.8 436.698L281.55 437.084C281.55 429.21 281.55 419.997 281.55 410.142C281.55 395.221 281.657 381.714 281.693 371.785C281.693 366.977 281.8 363.031 281.836 360.168C281.836 358.883 281.836 357.837 281.925 357.011C281.846 356.625 281.799 356.232 281.782 355.837Z" fill="white"/>
<path d="M285.964 417.887C285.964 417.978 285.938 418.066 285.889 418.142C285.84 418.217 285.77 418.276 285.689 418.311C285.607 418.345 285.517 418.354 285.43 418.337C285.344 418.319 285.264 418.275 285.202 418.211C285.139 418.147 285.097 418.065 285.079 417.976C285.062 417.887 285.071 417.795 285.105 417.711C285.139 417.627 285.196 417.556 285.269 417.505C285.343 417.455 285.429 417.428 285.518 417.428C285.636 417.428 285.75 417.476 285.834 417.562C285.917 417.648 285.964 417.765 285.964 417.887Z" fill="white"/>
<path d="M272.059 448.169C272.059 448.259 272.033 448.348 271.983 448.423C271.934 448.499 271.865 448.558 271.783 448.592C271.701 448.627 271.611 448.636 271.525 448.618C271.438 448.601 271.358 448.557 271.296 448.493C271.233 448.429 271.191 448.347 271.174 448.258C271.156 448.169 271.165 448.077 271.199 447.993C271.233 447.909 271.29 447.837 271.364 447.787C271.437 447.737 271.524 447.71 271.612 447.71C271.73 447.71 271.844 447.758 271.928 447.844C272.012 447.93 272.059 448.047 272.059 448.169Z" fill="white"/>
<path d="M285.964 392.377C285.964 392.498 285.917 392.615 285.834 392.701C285.75 392.787 285.636 392.836 285.518 392.836C285.399 392.836 285.285 392.787 285.202 392.701C285.118 392.615 285.071 392.498 285.071 392.377C285.071 392.255 285.118 392.138 285.202 392.052C285.285 391.966 285.399 391.918 285.518 391.918C285.636 391.918 285.75 391.966 285.834 392.052C285.917 392.138 285.964 392.255 285.964 392.377Z" fill="white"/>
<path d="M285.964 366.848C285.964 366.939 285.938 367.028 285.889 367.103C285.84 367.179 285.77 367.238 285.689 367.272C285.607 367.307 285.517 367.316 285.43 367.298C285.344 367.281 285.264 367.237 285.202 367.173C285.139 367.109 285.097 367.027 285.079 366.938C285.062 366.849 285.071 366.757 285.105 366.673C285.139 366.589 285.196 366.517 285.269 366.467C285.343 366.417 285.429 366.39 285.518 366.39C285.636 366.39 285.75 366.438 285.834 366.524C285.917 366.61 285.964 366.727 285.964 366.848Z" fill="white"/>
<path d="M282.694 462.245H272.595C265.843 462.245 260.369 467.865 260.369 474.798V475.312C260.369 482.245 265.843 487.865 272.595 487.865H282.694C289.446 487.865 294.919 482.245 294.919 475.312V474.798C294.919 467.865 289.446 462.245 282.694 462.245Z" fill="#255B76"/>
<path d="M274.758 487.755C274.758 487.755 274.365 487.755 273.775 487.498C272.954 487.022 272.27 486.332 271.791 485.498C270.5 482.698 269.887 479.619 270.004 476.523C269.953 473.456 270.412 470.402 271.362 467.494C271.659 466.257 272.187 465.091 272.917 464.062C271.707 468.097 271.039 472.284 270.933 476.505C270.846 479.468 271.357 482.417 272.435 485.167C272.968 486.229 273.771 487.123 274.758 487.755Z" fill="#455A64"/>
<path d="M321.712 674.51C321.712 670.656 321.712 659.828 320.622 656.157C319.742 652.351 317.437 649.054 314.205 646.981C311.55 645.766 308.653 645.211 305.749 645.361C302.845 645.511 300.017 646.362 297.493 647.844C295.706 649.305 294.279 651.178 293.329 653.311C292.378 655.444 291.931 657.778 292.024 660.122L291.255 674.4" fill="#255B76"/>
<path d="M321.14 669.775L288.664 669.463C288.664 669.463 264.659 674.528 265.124 676.51C265.589 678.493 321.945 677.281 321.945 677.281L321.14 669.775Z" fill="#FF6A3D"/>
<path d="M292.149 659.589C293.428 660.329 294.807 660.867 296.242 661.186C303.067 663.14 310.233 663.491 317.208 662.214C318.665 662.041 320.088 661.638 321.426 661.021C316.55 661.683 311.634 661.983 306.716 661.92C301.812 661.503 296.944 660.724 292.149 659.589Z" fill="#455A64"/>
<path d="M365.021 485.479L379.838 497.537C379.838 497.537 384.432 544.758 369.614 589.868C354.797 634.979 344.073 648.596 344.073 648.596H330.792V489.663L345.092 485.461L365.021 485.479Z" fill="#FF6A3D"/>
<g opacity="0.3">
<path opacity="0.3" d="M351.187 486.177L339.318 644.852L330.792 646.486L331.096 490.269L345.413 486.066L351.187 486.177Z" fill="black"/>
</g>
<path d="M339.443 644.852C339.193 644.852 341.588 609.322 344.805 565.514C348.023 521.707 350.829 486.232 351.079 486.25C351.329 486.268 348.952 521.78 345.717 565.588C342.482 609.395 339.711 644.871 339.443 644.852Z" fill="white"/>
<path d="M342.5 527.488C342.5 527.717 342.589 527.936 342.746 528.098C342.904 528.26 343.117 528.351 343.34 528.351C343.563 528.351 343.777 528.26 343.934 528.098C344.092 527.936 344.18 527.717 344.18 527.488C344.18 527.259 344.092 527.04 343.934 526.878C343.777 526.716 343.563 526.625 343.34 526.625C343.117 526.625 342.904 526.716 342.746 526.878C342.589 527.04 342.5 527.259 342.5 527.488Z" fill="white"/>
<path d="M339.157 566.983C339.154 567.154 339.2 567.323 339.29 567.467C339.38 567.611 339.51 567.724 339.663 567.792C339.817 567.861 339.986 567.88 340.15 567.849C340.314 567.818 340.466 567.737 340.585 567.617C340.704 567.498 340.786 567.344 340.82 567.176C340.854 567.008 340.838 566.834 340.775 566.675C340.712 566.517 340.604 566.381 340.466 566.285C340.327 566.19 340.164 566.138 339.997 566.138C339.778 566.138 339.567 566.227 339.41 566.385C339.253 566.542 339.162 566.757 339.157 566.983Z" fill="white"/>
<path d="M337.477 611.634C337.477 611.805 337.526 611.972 337.619 612.114C337.711 612.255 337.842 612.366 337.996 612.431C338.149 612.497 338.318 612.514 338.481 612.48C338.644 612.447 338.794 612.365 338.911 612.244C339.029 612.124 339.109 611.97 339.141 611.803C339.173 611.635 339.157 611.462 339.093 611.304C339.03 611.147 338.922 611.012 338.784 610.917C338.646 610.822 338.483 610.772 338.317 610.772C338.094 610.772 337.881 610.863 337.723 611.024C337.566 611.186 337.477 611.406 337.477 611.634Z" fill="white"/>
<path d="M345.842 494.857C345.838 495.028 345.885 495.197 345.975 495.341C346.065 495.486 346.195 495.599 346.348 495.667C346.501 495.735 346.671 495.755 346.835 495.724C346.999 495.693 347.15 495.612 347.269 495.492C347.389 495.372 347.471 495.218 347.504 495.051C347.538 494.883 347.523 494.709 347.46 494.55C347.397 494.391 347.289 494.255 347.151 494.16C347.012 494.064 346.849 494.013 346.682 494.013C346.462 494.013 346.251 494.101 346.094 494.259C345.937 494.417 345.847 494.632 345.842 494.857Z" fill="white"/>
<path d="M368.024 341.173H380.928C380.928 341.173 397.015 423.888 368.024 461.382H345.485C345.485 461.382 335.815 442.626 335.815 432.716V368.739L368.024 341.173Z" fill="#FF6A3D"/>
<g opacity="0.3">
<path opacity="0.3" d="M377.693 445.526L352.527 435.505V354.332L335.815 368.408L336.012 432.44C336.02 434.565 336.253 436.682 336.709 438.754C338.52 446.729 341.535 454.364 345.646 461.382H368.667C372.386 456.558 375.424 451.22 377.693 445.526Z" fill="black"/>
</g>
<path d="M352.527 354.919C352.609 355.28 352.645 355.65 352.634 356.02C352.634 356.846 352.634 357.856 352.723 359.177C352.723 362.058 352.723 365.986 352.866 370.812C352.866 380.741 352.866 394.267 352.991 409.188C352.991 419.061 352.991 428.293 352.991 436.184L352.741 435.799L370.615 443.14L375.602 445.287C376.22 445.508 376.818 445.784 377.389 446.113C376.775 445.98 376.177 445.783 375.602 445.526L370.526 443.58L352.527 436.496L352.276 436.386V436.111C352.276 428.219 352.276 418.988 352.276 409.114C352.276 394.194 352.384 380.668 352.419 370.739C352.419 365.912 352.527 361.985 352.562 359.104C352.562 357.819 352.562 356.773 352.652 355.947C352.586 355.608 352.544 355.264 352.527 354.919Z" fill="white"/>
<path d="M347.522 417.575C347.522 417.746 347.572 417.914 347.665 418.056C347.758 418.198 347.891 418.308 348.045 418.373C348.2 418.438 348.37 418.454 348.533 418.419C348.697 418.384 348.846 418.3 348.963 418.178C349.08 418.055 349.158 417.9 349.189 417.731C349.219 417.563 349.2 417.389 349.133 417.232C349.067 417.074 348.957 416.941 348.816 416.848C348.676 416.756 348.512 416.708 348.345 416.712C348.125 416.717 347.916 416.81 347.762 416.971C347.608 417.132 347.522 417.349 347.522 417.575Z" fill="white"/>
<path d="M360.892 446.792C360.892 446.963 360.941 447.129 361.034 447.271C361.126 447.413 361.257 447.524 361.411 447.589C361.564 447.654 361.733 447.671 361.896 447.638C362.059 447.605 362.209 447.523 362.326 447.402C362.444 447.281 362.524 447.128 362.556 446.96C362.589 446.793 362.572 446.62 362.508 446.462C362.445 446.304 362.337 446.17 362.199 446.075C362.061 445.98 361.898 445.929 361.732 445.929C361.509 445.929 361.296 446.02 361.138 446.182C360.981 446.344 360.892 446.563 360.892 446.792Z" fill="white"/>
<path d="M347.523 391.881C347.505 392.004 347.513 392.129 347.547 392.248C347.581 392.367 347.639 392.477 347.718 392.57C347.797 392.664 347.894 392.739 348.004 392.791C348.114 392.842 348.233 392.869 348.354 392.869C348.474 392.869 348.594 392.842 348.703 392.791C348.813 392.739 348.911 392.664 348.989 392.57C349.068 392.477 349.127 392.367 349.16 392.248C349.194 392.129 349.202 392.004 349.185 391.881C349.156 391.676 349.055 391.489 348.903 391.354C348.75 391.218 348.555 391.144 348.354 391.144C348.152 391.144 347.957 391.218 347.805 391.354C347.652 391.489 347.552 391.676 347.523 391.881Z" fill="white"/>
<path d="M347.522 366.078C347.522 366.249 347.572 366.416 347.665 366.559C347.758 366.701 347.891 366.811 348.045 366.876C348.2 366.941 348.37 366.957 348.533 366.922C348.697 366.887 348.846 366.803 348.963 366.681C349.08 366.558 349.158 366.403 349.189 366.234C349.219 366.066 349.2 365.892 349.133 365.735C349.067 365.577 348.957 365.444 348.816 365.351C348.676 365.259 348.512 365.211 348.345 365.215C348.125 365.22 347.916 365.313 347.762 365.474C347.608 365.635 347.522 365.852 347.522 366.078Z" fill="white"/>
<path d="M351.454 485.424H361.982C368.774 485.424 374.279 479.771 374.279 472.798V472.284C374.279 465.31 368.774 459.657 361.982 459.657H351.454C344.663 459.657 339.157 465.31 339.157 472.284V472.798C339.157 479.771 344.663 485.424 351.454 485.424Z" fill="#255B76"/>
<path d="M358.998 486.066C360.008 485.441 360.836 484.547 361.393 483.479C362.46 480.732 362.971 477.791 362.894 474.835C362.778 470.607 362.105 466.415 360.892 462.373C361.625 463.404 362.158 464.569 362.465 465.805C363.398 468.718 363.857 471.769 363.824 474.835C363.943 477.931 363.33 481.01 362.036 483.809C361.565 484.649 360.879 485.341 360.052 485.809C359.391 486.103 359.015 486.121 358.998 486.066Z" fill="#455A64"/>
<path d="M320.032 674.216C320.032 670.362 320.032 659.645 321.123 655.864C322.001 652.052 324.315 648.752 327.557 646.688C330.213 645.473 333.11 644.918 336.014 645.068C338.917 645.218 341.745 646.068 344.269 647.55C346.056 649.006 347.482 650.876 348.43 653.007C349.377 655.138 349.82 657.469 349.721 659.81L350.507 674.088" fill="#255B76"/>
<path d="M320.533 669.5L353.027 669.188C353.027 669.188 377.032 674.253 376.549 676.235C376.067 678.217 319.729 677.006 319.729 677.006L320.533 669.5Z" fill="#FF6A3D"/>
<path d="M352.902 659.021C351.622 659.756 350.242 660.294 348.809 660.617C341.984 662.571 334.818 662.922 327.843 661.645C326.388 661.462 324.966 661.06 323.625 660.452C323.625 660.122 330.185 661.773 338.335 661.333C343.239 660.927 348.108 660.154 352.902 659.021Z" fill="#455A64"/>
<path d="M258.206 171.413C258.206 171.413 238.224 169.889 235.721 190.444C233.219 210.999 251.289 210.926 251.289 210.926L258.206 171.413Z" fill="#255B76"/>
<path d="M177.756 246.841L200.438 261.927L241.727 218.285L245.141 167.375L222.459 178.35L177.756 246.841Z" fill="#FF6A3D"/>
<g opacity="0.3">
<path opacity="0.3" d="M241.727 218.285L200.439 261.927L191.019 255.669L243.193 196.537L241.727 218.285Z" fill="black"/>
</g>
<path d="M242.817 196.72C243.014 196.904 232.951 208.613 220.368 222.873C207.785 237.133 197.418 248.566 197.239 248.383C197.06 248.199 207.088 236.49 219.689 222.23C232.29 207.971 242.621 196.537 242.817 196.72Z" fill="white"/>
<path d="M207.964 244.639C207.959 244.759 207.911 244.873 207.828 244.958C207.745 245.043 207.634 245.093 207.517 245.098C207.398 245.098 207.285 245.049 207.201 244.963C207.117 244.877 207.07 244.761 207.07 244.639C207.07 244.517 207.117 244.401 207.201 244.315C207.285 244.228 207.398 244.18 207.517 244.18C207.635 244.18 207.749 244.228 207.833 244.315C207.916 244.401 207.964 244.517 207.964 244.639Z" fill="white"/>
<path d="M220.028 230.618C220.028 230.708 220.002 230.797 219.953 230.872C219.904 230.948 219.834 231.007 219.752 231.041C219.67 231.076 219.581 231.085 219.494 231.067C219.407 231.05 219.328 231.006 219.265 230.942C219.203 230.878 219.16 230.796 219.143 230.707C219.126 230.618 219.134 230.526 219.168 230.442C219.202 230.358 219.259 230.286 219.333 230.236C219.406 230.186 219.493 230.159 219.581 230.159C219.7 230.159 219.813 230.207 219.897 230.293C219.981 230.379 220.028 230.496 220.028 230.618Z" fill="white"/>
<path d="M232.093 216.597C232.093 216.687 232.067 216.776 232.018 216.851C231.969 216.927 231.899 216.986 231.817 217.02C231.735 217.055 231.646 217.064 231.559 217.047C231.472 217.029 231.393 216.985 231.33 216.921C231.268 216.857 231.225 216.775 231.208 216.686C231.191 216.597 231.199 216.505 231.233 216.421C231.267 216.337 231.324 216.265 231.398 216.215C231.471 216.165 231.558 216.138 231.646 216.138C231.765 216.138 231.878 216.186 231.962 216.272C232.046 216.358 232.093 216.475 232.093 216.597Z" fill="white"/>
<path d="M185.603 282.776C195.86 282.776 204.174 274.239 204.174 263.707C204.174 253.176 195.86 244.639 185.603 244.639C175.347 244.639 167.032 253.176 167.032 263.707C167.032 274.239 175.347 282.776 185.603 282.776Z" fill="#255B76"/>
<path d="M203.477 265.377L252.38 327.757L243.711 339.393L169.445 288.501L166.407 262.698L203.477 265.377Z" fill="#FF6A3D"/>
<g opacity="0.3">
<path opacity="0.3" d="M235.471 333.759L236.955 319.095L191.913 264.533L203.477 265.377L252.38 327.758L243.711 339.393L235.471 333.759Z" fill="black"/>
</g>
<path d="M235.471 333.759C235.424 333.418 235.424 333.072 235.471 332.731C235.471 331.942 235.596 330.896 235.686 329.795C235.9 327.097 236.222 323.463 236.597 319.059L236.687 319.334L218.723 297.751C211.216 288.575 204.424 280.408 199.616 274.388L193.914 267.249L192.395 265.267C192.205 265.045 192.042 264.798 191.913 264.533C191.913 264.533 192.163 264.735 192.538 265.139C192.914 265.543 193.539 266.258 194.183 266.974L200.117 273.911C205.103 279.821 211.931 288.006 219.42 297.091C226.248 305.423 232.45 313.021 237.294 318.82L237.384 318.948V319.095C236.883 323.5 236.454 327.115 236.15 329.795C236.007 330.969 235.864 331.924 235.775 332.713C235.721 333.074 235.619 333.426 235.471 333.759Z" fill="white"/>
<path d="M224.139 298.687C224.139 298.778 224.113 298.867 224.064 298.942C224.014 299.017 223.945 299.076 223.863 299.111C223.781 299.146 223.691 299.155 223.605 299.137C223.518 299.119 223.438 299.076 223.376 299.012C223.314 298.947 223.271 298.866 223.254 298.777C223.236 298.688 223.245 298.595 223.279 298.512C223.313 298.428 223.37 298.356 223.444 298.306C223.517 298.255 223.604 298.228 223.692 298.228C223.81 298.228 223.924 298.277 224.008 298.363C224.092 298.449 224.139 298.565 224.139 298.687Z" fill="white"/>
<path d="M235.918 312.158C235.918 312.249 235.891 312.337 235.842 312.413C235.793 312.488 235.723 312.547 235.642 312.582C235.56 312.617 235.47 312.626 235.384 312.608C235.297 312.59 235.217 312.547 235.155 312.482C235.092 312.418 235.05 312.337 235.033 312.248C235.015 312.159 235.024 312.066 235.058 311.982C235.092 311.899 235.149 311.827 235.223 311.777C235.296 311.726 235.382 311.699 235.471 311.699C235.589 311.699 235.703 311.748 235.787 311.834C235.871 311.92 235.918 312.036 235.918 312.158Z" fill="white"/>
<path d="M213.987 285.951C213.987 286.041 213.961 286.13 213.912 286.205C213.863 286.281 213.793 286.34 213.711 286.374C213.629 286.409 213.54 286.418 213.453 286.401C213.366 286.383 213.287 286.339 213.224 286.275C213.162 286.211 213.119 286.129 213.102 286.04C213.085 285.951 213.093 285.859 213.127 285.775C213.161 285.691 213.218 285.619 213.292 285.569C213.365 285.519 213.452 285.492 213.54 285.492C213.659 285.492 213.772 285.54 213.856 285.626C213.94 285.712 213.987 285.829 213.987 285.951Z" fill="white"/>
<path d="M203.745 274.425C203.745 274.516 203.719 274.605 203.67 274.68C203.621 274.755 203.551 274.814 203.469 274.849C203.388 274.884 203.298 274.893 203.211 274.875C203.125 274.857 203.045 274.814 202.982 274.75C202.92 274.685 202.877 274.604 202.86 274.515C202.843 274.426 202.852 274.333 202.886 274.25C202.919 274.166 202.977 274.094 203.05 274.044C203.124 273.993 203.21 273.966 203.298 273.966C203.417 273.966 203.531 274.015 203.614 274.101C203.698 274.187 203.745 274.303 203.745 274.425Z" fill="white"/>
<path d="M464.328 149.958L471.388 176.753L418.303 203.805L396.479 198.281L387.149 172.752L464.328 149.958Z" fill="#FF6A3D"/>
<g opacity="0.3">
<path opacity="0.3" d="M418.302 203.805L471.388 176.753L468.456 165.631L397.694 198.592L418.302 203.805Z" fill="black"/>
</g>
<path d="M397.98 198.28C397.873 198.042 411.636 191.398 428.705 183.433C445.775 175.468 459.698 169.247 459.806 169.485C459.913 169.724 446.168 176.367 429.081 184.314C411.993 192.261 398.087 198.519 397.98 198.28Z" fill="white"/>
<path d="M453.067 178.827C453.181 178.863 453.304 178.852 453.41 178.795C453.516 178.738 453.595 178.641 453.63 178.524C453.666 178.407 453.655 178.281 453.6 178.172C453.544 178.064 453.449 177.982 453.336 177.946C453.222 177.91 453.099 177.921 452.992 177.976C452.886 178.03 452.804 178.125 452.764 178.24C452.73 178.359 452.743 178.487 452.799 178.596C452.856 178.706 452.952 178.789 453.067 178.827Z" fill="white"/>
<path d="M436.373 186.333C436.457 186.362 436.548 186.364 436.633 186.34C436.719 186.316 436.796 186.266 436.854 186.196C436.911 186.127 436.948 186.041 436.958 185.951C436.968 185.86 436.952 185.768 436.911 185.687C436.871 185.606 436.807 185.539 436.729 185.496C436.651 185.452 436.562 185.433 436.474 185.441C436.385 185.449 436.301 185.484 436.232 185.542C436.163 185.599 436.113 185.677 436.087 185.764C436.053 185.878 436.064 186.002 436.117 186.108C436.171 186.214 436.262 186.295 436.373 186.333Z" fill="white"/>
<path d="M419.679 193.858C419.735 193.878 419.795 193.886 419.854 193.882C419.914 193.878 419.972 193.862 420.025 193.835C420.078 193.807 420.126 193.769 420.165 193.723C420.203 193.676 420.233 193.622 420.251 193.564C420.285 193.447 420.275 193.321 420.222 193.212C420.169 193.103 420.077 193.018 419.965 192.977C419.907 192.957 419.847 192.95 419.786 192.955C419.726 192.96 419.667 192.978 419.614 193.007C419.56 193.036 419.513 193.076 419.475 193.124C419.437 193.173 419.409 193.229 419.393 193.289C419.359 193.403 419.37 193.527 419.423 193.633C419.477 193.739 419.568 193.82 419.679 193.858Z" fill="white"/>
<path d="M373.672 173.78C373.672 173.78 393.655 172.257 396.157 192.793C398.659 213.329 380.589 213.274 380.589 213.274L373.672 173.78Z" fill="#255B76"/>
<path d="M486.268 179.67C495.334 174.745 498.795 163.207 493.999 153.898C489.203 144.589 477.965 141.035 468.899 145.96C459.833 150.884 456.372 162.423 461.168 171.731C465.964 181.04 477.202 184.594 486.268 179.67Z" fill="#255B76"/>
<path d="M497.859 142.764L496.537 62.6922L482.613 59.4438L457.286 147.371L489.619 150.601L497.859 142.764Z" fill="#FF6A3D"/>
<g opacity="0.3">
<path opacity="0.3" d="M479.806 69.2074L490.066 79.5032L489.494 151.005L497.859 142.764L496.536 62.6922L482.612 59.4438L479.806 69.2074Z" fill="black"/>
</g>
<path d="M479.807 69.207C479.807 69.207 480.093 69.4089 480.593 69.8494L482.702 71.8314L490.317 79.1725H490.424V79.3376C490.424 86.9356 490.424 96.8459 490.317 107.729C490.209 119.64 490.066 130.413 489.923 138.213L489.709 147.389C489.709 148.38 489.619 149.224 489.602 149.903C489.612 150.195 489.575 150.486 489.494 150.766C489.426 150.484 489.396 150.193 489.405 149.903C489.405 149.206 489.405 148.38 489.405 147.389C489.405 145.04 489.405 141.883 489.405 138.213C489.405 130.413 489.405 119.621 489.512 107.711C489.655 96.8459 489.78 86.9172 489.87 79.3376L489.977 79.5946L482.577 71.9599L480.593 69.831C480.003 69.5007 479.771 69.2254 479.807 69.207Z" fill="white"/>
<path d="M492.962 103.6C492.92 103.555 492.87 103.52 492.815 103.496C492.759 103.472 492.7 103.459 492.64 103.459C492.58 103.459 492.52 103.472 492.465 103.496C492.41 103.52 492.36 103.555 492.318 103.6C492.236 103.686 492.19 103.801 492.19 103.921C492.19 104.041 492.236 104.156 492.318 104.242C492.358 104.286 492.407 104.321 492.461 104.345C492.514 104.369 492.572 104.381 492.631 104.381C492.69 104.381 492.748 104.369 492.801 104.345C492.855 104.321 492.904 104.286 492.944 104.242C493.028 104.159 493.077 104.045 493.08 103.925C493.084 103.805 493.041 103.688 492.962 103.6Z" fill="white"/>
<path d="M492.729 85.3943C492.78 85.3626 492.837 85.3421 492.896 85.3342C492.955 85.3264 493.015 85.3312 493.073 85.3485C493.13 85.3657 493.183 85.395 493.228 85.4345C493.274 85.474 493.311 85.5228 493.337 85.5778C493.394 85.6849 493.407 85.8108 493.373 85.9278C493.34 86.0448 493.263 86.1434 493.158 86.2018C493.054 86.2602 492.931 86.2737 492.817 86.2393C492.703 86.2048 492.607 86.1253 492.551 86.0183C492.498 85.9103 492.487 85.7859 492.52 85.6702C492.554 85.5544 492.628 85.4558 492.729 85.3943Z" fill="white"/>
<path d="M493.104 120.062C493.063 120.018 493.013 119.983 492.957 119.958C492.902 119.934 492.843 119.922 492.782 119.922C492.722 119.922 492.663 119.934 492.608 119.958C492.552 119.983 492.502 120.018 492.461 120.062C492.379 120.148 492.333 120.263 492.333 120.383C492.333 120.504 492.379 120.619 492.461 120.705C492.547 120.79 492.663 120.837 492.782 120.837C492.902 120.837 493.018 120.79 493.104 120.705C493.186 120.619 493.232 120.504 493.232 120.383C493.232 120.263 493.186 120.148 493.104 120.062Z" fill="white"/>
<path d="M251.647 319.554L257.295 320.619L262.121 325.849L260.334 329.74L263.551 339.705C263.551 339.705 263.783 342.843 261.603 343.376L259.422 343.908C259.422 343.908 259.887 346.569 256.527 347.725L251.754 349.359C251.754 349.359 250.056 351.946 248.394 350.496C246.732 349.047 245.57 349.652 245.57 349.652C245.57 349.652 243.103 351.102 241.87 350.313C240.637 349.524 234.899 336.695 234.899 336.695L232.343 334.64L246.553 318.324L248.93 320.27L251.647 319.554Z" fill="#255B76"/>
<path d="M245.015 317.194L230.278 332.325C229.343 333.285 229.343 334.843 230.278 335.803L230.341 335.868C231.277 336.828 232.793 336.828 233.728 335.868L248.465 320.736C249.4 319.776 249.4 318.219 248.465 317.259L248.402 317.194C247.467 316.233 245.95 316.233 245.015 317.194Z" fill="#255B76"/>
<path d="M248.716 320.582C246.52 323.459 244.092 326.141 241.459 328.602C239.033 331.281 236.384 333.737 233.541 335.943C235.732 333.061 238.16 330.378 240.798 327.923C243.22 325.24 245.87 322.783 248.716 320.582Z" fill="#455A64"/>
<path d="M499.289 62.1782L501.523 47.7164L505.795 33.585C505.795 33.585 506.867 29.9145 504.615 29.9145C502.363 29.9145 497.037 40.926 497.037 40.926C497.037 40.926 501.04 28.0792 500.611 25.4181C500.182 22.757 498.931 22.7937 497.341 24.372C495.75 25.9503 491.978 35.3835 491.978 35.3835C491.978 35.3835 493.337 22.7203 491.978 21.4356C490.62 20.151 489.315 20.206 488.654 21.6008C487.992 22.9956 486.563 34.4476 486.384 34.9981C486.205 35.5487 484.596 24.2619 482.898 23.9866C481.2 23.7113 479.681 23.381 479.914 27.18C480.146 30.9789 479.395 42.1556 479.395 42.1556C479.395 42.1556 476.267 33.6584 474.033 32.9794C471.388 32.1351 471.066 33.4749 472.46 38.2098C474.122 43.8808 473.783 45.2021 473.783 45.2021C473.783 45.2021 476.106 53.9563 477.036 60.5632L499.289 62.1782Z" fill="#255B76"/>
<path d="M479.288 46.193C479.288 46.193 480.021 46.0829 481.075 46.0645C482.557 46.0279 484.02 46.4019 485.312 47.1473C486.594 47.9031 487.66 48.9917 488.404 50.304C488.976 51.3134 489.172 52.0291 489.262 52.0107C489.24 51.3643 489.062 50.7335 488.743 50.1755C488.057 48.7132 486.95 47.5019 485.573 46.7046C484.196 45.9073 482.614 45.5622 481.04 45.7158C480.427 45.7285 479.826 45.8922 479.288 46.193Z" fill="#455A64"/>
<path d="M491.514 51.8091C491.621 51.9192 492.675 50.8364 494.177 49.7903C495.147 49.2367 496.084 48.6239 496.983 47.9551C495.847 48.1265 494.775 48.6011 493.873 49.3315C492.88 49.9191 492.063 50.7764 491.514 51.8091Z" fill="#455A64"/>
<path d="M477.519 64.6924H498.36C499.683 64.6924 500.755 63.5914 500.755 62.2332V62.1414C500.755 60.7832 499.683 59.6822 498.36 59.6822H477.519C476.196 59.6822 475.124 60.7832 475.124 62.1414V62.2332C475.124 63.5914 476.196 64.6924 477.519 64.6924Z" fill="#255B76"/>
<path d="M477.215 59.7008C480.77 59.2276 484.36 59.0924 487.939 59.2971C491.523 59.15 495.112 59.3343 498.663 59.8476C495.107 60.2969 491.519 60.432 487.939 60.2514C484.356 60.3761 480.768 60.1919 477.215 59.7008Z" fill="#455A64"/>
</g>
<defs>
<filter id="filter0_d_506_1341" x="0.487305" y="0" width="621.448" height="829" filterUnits="userSpaceOnUse" color-interpolation-filters="sRGB">
<feFlood flood-opacity="0" result="BackgroundImageFix"/>
<feColorMatrix in="SourceAlpha" type="matrix" values="0 0 0 0 0 0 0 0 0 0 0 0 0 0 0 0 0 0 127 0" result="hardAlpha"/>
<feOffset dy="4"/>
<feGaussianBlur stdDeviation="2"/>
<feComposite in2="hardAlpha" operator="out"/>
<feColorMatrix type="matrix" values="0 0 0 0 0 0 0 0 0 0 0 0 0 0 0 0 0 0 0.25 0"/>
<feBlend mode="normal" in2="BackgroundImageFix" result="effect1_dropShadow_506_1341"/>
<feBlend mode="normal" in="SourceGraphic" in2="effect1_dropShadow_506_1341" result="shape"/>
</filter>
</defs>
</svg>
