<svg width="1728" height="1746" viewBox="0 0 1728 1746" fill="none" xmlns="http://www.w3.org/2000/svg">
<g filter="url(#filter0_f_710_54)">
<path d="M804.485 704.002L1114.23 131.324L1091.92 638.499L1239.47 1002.46L799.894 1360.52L576.29 1479.17L689.124 1207.01L928.281 1010.08L804.485 704.002Z" fill="url(#paint0_linear_710_54)"/>
</g>
<g filter="url(#filter1_f_710_54)">
<path d="M1291.78 561.698L1118.2 131.35L1431.59 565.647L1418.52 817.285L1126.79 1212.49L577.793 1481.26L1017.7 1061.31L1291.78 561.698Z" fill="url(#paint1_linear_710_54)"/>
</g>
<g filter="url(#filter2_f_710_54)">
<path d="M1119.97 592.897L1063.22 88.499L1106.8 148.899L1296.47 587.305L1135.68 940.726L1207.63 1285.73L700.212 1684.25L894.097 1447.05L869.727 1017.49L1119.97 592.897Z" fill="url(#paint2_linear_710_54)"/>
</g>
<g filter="url(#filter3_f_710_54)">
<path d="M1244.7 969.722L1400.64 522.761L1564.18 749.393L1539.02 928.845L1339.74 1165.97L679.066 1621.6L928.771 1259.52L1244.7 969.722Z" fill="url(#paint3_linear_710_54)"/>
</g>
<g filter="url(#filter4_f_710_54)">
<path d="M554.107 488.678L1100.81 122.61L839.715 561.415L797.135 950.698L237.633 1067.74L-16.7648 1071.08L212.627 881.478L518.04 815.922L554.107 488.678Z" fill="url(#paint4_linear_710_54)"/>
</g>
<g filter="url(#filter5_f_710_54)">
<path d="M1053.18 584.325L1104.31 124.439L1175.06 651.405L1043.75 868.212L597.443 1085.38L-16.4258 1073.61L572.814 901.932L1053.18 584.325Z" fill="url(#paint5_linear_710_54)"/>
</g>
<g filter="url(#filter6_f_710_54)">
<path d="M886.242 533.805L1076.03 61.5013L1085.87 134.789L1045.15 609.126L734.638 848.853L634.151 1186.97L-4.65754 1308.97L279.846 1187.18L462.682 795.85L886.242 533.805Z" fill="url(#paint6_linear_710_54)"/>
</g>
<g filter="url(#filter7_f_710_54)">
<path d="M817.341 924.098L1168.07 599.368L1204.99 874.359L1097.32 1021.77L808.083 1141.04L6.43657 1243.9L399.778 1036.94L817.341 924.098Z" fill="url(#paint7_linear_710_54)"/>
</g>
<defs>
<filter id="filter0_f_710_54" x="515.29" y="70.3241" width="785.181" height="1469.85" filterUnits="userSpaceOnUse" color-interpolation-filters="sRGB">
<feFlood flood-opacity="0" result="BackgroundImageFix"/>
<feBlend mode="normal" in="SourceGraphic" in2="BackgroundImageFix" result="shape"/>
<feGaussianBlur stdDeviation="30.5" result="effect1_foregroundBlur_710_54"/>
</filter>
<filter id="filter1_f_710_54" x="516.793" y="70.3502" width="975.796" height="1471.91" filterUnits="userSpaceOnUse" color-interpolation-filters="sRGB">
<feFlood flood-opacity="0" result="BackgroundImageFix"/>
<feBlend mode="normal" in="SourceGraphic" in2="BackgroundImageFix" result="shape"/>
<feGaussianBlur stdDeviation="30.5" result="effect1_foregroundBlur_710_54"/>
</filter>
<filter id="filter2_f_710_54" x="639.213" y="27.499" width="718.258" height="1717.75" filterUnits="userSpaceOnUse" color-interpolation-filters="sRGB">
<feFlood flood-opacity="0" result="BackgroundImageFix"/>
<feBlend mode="normal" in="SourceGraphic" in2="BackgroundImageFix" result="shape"/>
<feGaussianBlur stdDeviation="30.5" result="effect1_foregroundBlur_710_54"/>
</filter>
<filter id="filter3_f_710_54" x="618.065" y="461.761" width="1007.12" height="1220.84" filterUnits="userSpaceOnUse" color-interpolation-filters="sRGB">
<feFlood flood-opacity="0" result="BackgroundImageFix"/>
<feBlend mode="normal" in="SourceGraphic" in2="BackgroundImageFix" result="shape"/>
<feGaussianBlur stdDeviation="30.5" result="effect1_foregroundBlur_710_54"/>
</filter>
<filter id="filter4_f_710_54" x="-77.7646" y="61.6097" width="1239.57" height="1070.47" filterUnits="userSpaceOnUse" color-interpolation-filters="sRGB">
<feFlood flood-opacity="0" result="BackgroundImageFix"/>
<feBlend mode="normal" in="SourceGraphic" in2="BackgroundImageFix" result="shape"/>
<feGaussianBlur stdDeviation="30.5" result="effect1_foregroundBlur_710_54"/>
</filter>
<filter id="filter5_f_710_54" x="-77.4258" y="63.4388" width="1313.49" height="1082.94" filterUnits="userSpaceOnUse" color-interpolation-filters="sRGB">
<feFlood flood-opacity="0" result="BackgroundImageFix"/>
<feBlend mode="normal" in="SourceGraphic" in2="BackgroundImageFix" result="shape"/>
<feGaussianBlur stdDeviation="30.5" result="effect1_foregroundBlur_710_54"/>
</filter>
<filter id="filter6_f_710_54" x="-65.6572" y="0.501343" width="1212.53" height="1369.47" filterUnits="userSpaceOnUse" color-interpolation-filters="sRGB">
<feFlood flood-opacity="0" result="BackgroundImageFix"/>
<feBlend mode="normal" in="SourceGraphic" in2="BackgroundImageFix" result="shape"/>
<feGaussianBlur stdDeviation="30.5" result="effect1_foregroundBlur_710_54"/>
</filter>
<filter id="filter7_f_710_54" x="-54.5635" y="538.368" width="1320.56" height="766.53" filterUnits="userSpaceOnUse" color-interpolation-filters="sRGB">
<feFlood flood-opacity="0" result="BackgroundImageFix"/>
<feBlend mode="normal" in="SourceGraphic" in2="BackgroundImageFix" result="shape"/>
<feGaussianBlur stdDeviation="30.5" result="effect1_foregroundBlur_710_54"/>
</filter>
<linearGradient id="paint0_linear_710_54" x1="609.923" y1="479.116" x2="1083.09" y2="1165.21" gradientUnits="userSpaceOnUse">
<stop stop-color="#1F7A8C"/>
<stop offset="1" stop-color="#1F7A8C" stop-opacity="0"/>
</linearGradient>
<linearGradient id="paint1_linear_710_54" x1="612.574" y1="480.053" x2="1120.63" y2="1216.74" gradientUnits="userSpaceOnUse">
<stop stop-color="#23F0C7"/>
<stop offset="1" stop-color="#23F0C7" stop-opacity="0"/>
</linearGradient>
<linearGradient id="paint2_linear_710_54" x1="557.592" y1="437.201" x2="1186.38" y2="1348.96" gradientUnits="userSpaceOnUse">
<stop stop-color="#EF767A"/>
<stop offset="1" stop-color="#EF767A" stop-opacity="0"/>
</linearGradient>
<linearGradient id="paint3_linear_710_54" x1="895.017" y1="871.463" x2="1176" y2="1278.89" gradientUnits="userSpaceOnUse">
<stop stop-color="#FFE347"/>
<stop offset="1" stop-color="#FFE347" stop-opacity="0"/>
</linearGradient>
<linearGradient id="paint4_linear_710_54" x1="488.895" y1="201.124" x2="594.219" y2="1021.98" gradientUnits="userSpaceOnUse">
<stop stop-color="#1F7A8C"/>
<stop offset="1" stop-color="#1F7A8C" stop-opacity="0"/>
</linearGradient>
<linearGradient id="paint5_linear_710_54" x1="490.797" y1="203.158" x2="603.887" y2="1084.55" gradientUnits="userSpaceOnUse">
<stop stop-color="#23F0C7"/>
<stop offset="1" stop-color="#23F0C7" stop-opacity="0"/>
</linearGradient>
<linearGradient id="paint6_linear_710_54" x1="462.516" y1="140.221" x2="602.482" y2="1231.07" gradientUnits="userSpaceOnUse">
<stop stop-color="#EF767A"/>
<stop offset="1" stop-color="#EF767A" stop-opacity="0"/>
</linearGradient>
<linearGradient id="paint7_linear_710_54" x1="554.558" y1="678.088" x2="617.103" y2="1165.54" gradientUnits="userSpaceOnUse">
<stop stop-color="#FFE347"/>
<stop offset="1" stop-color="#FFE347" stop-opacity="0"/>
</linearGradient>
</defs>
</svg>
