<svg width="419" height="367" viewBox="0 0 419 367" fill="none" xmlns="http://www.w3.org/2000/svg">
<path d="M327.428 177.175C318.183 167.277 313.315 154.203 313.883 140.807C314.452 127.41 320.411 114.777 330.462 105.662" stroke="#263238" stroke-miterlimit="10"/>
<path d="M404.208 176.981C395.788 186.084 384.282 191.894 371.821 193.336C359.359 194.779 346.786 191.756 336.427 184.827" stroke="#263238" stroke-miterlimit="10"/>
<path d="M416.941 134.751C418.4 143.523 417.494 152.516 414.313 160.84" stroke="#263238" stroke-miterlimit="10"/>
<path d="M337.876 100.061C344.534 95.9197 352.069 93.3178 359.909 92.4525C367.749 91.5873 375.687 92.4815 383.121 95.0672C390.555 97.653 397.288 101.862 402.81 107.375C408.333 112.888 412.498 119.56 414.991 126.884" stroke="#263238" stroke-miterlimit="10"/>
<path d="M365.729 186.786C390.493 186.786 410.569 167.144 410.569 142.913C410.569 118.683 390.493 99.0404 365.729 99.0404C340.964 99.0404 320.889 118.683 320.889 142.913C320.889 167.144 340.964 186.786 365.729 186.786Z" stroke="#263238" stroke-miterlimit="10"/>
<path d="M396.533 128.394C394.427 124.151 391.428 120.392 387.732 117.364C384.036 114.335 379.727 112.106 375.089 110.822C370.45 109.538 365.586 109.228 360.816 109.914C356.046 110.6 351.479 112.265 347.413 114.8C343.348 117.335 339.876 120.682 337.227 124.623C334.577 128.564 332.81 133.008 332.04 137.664C331.27 142.321 331.516 147.084 332.761 151.641C334.006 156.197 336.222 160.445 339.263 164.105C343.518 157.799 363.279 131.486 396.533 128.394Z" fill="#263238" stroke="#263238" stroke-miterlimit="10"/>
<path d="M365.729 106.999C358.469 106.999 351.373 109.105 345.336 113.051C339.3 116.998 334.595 122.607 331.817 129.169C329.039 135.732 328.312 142.953 329.728 149.92C331.145 156.887 334.641 163.286 339.774 168.309C344.907 173.331 351.448 176.752 358.568 178.138C365.689 179.523 373.069 178.812 379.776 176.094C386.483 173.376 392.216 168.772 396.25 162.866C400.283 156.96 402.436 150.016 402.436 142.913C402.436 133.388 398.568 124.253 391.685 117.518C384.801 110.783 375.464 106.999 365.729 106.999ZM365.729 174.338C359.367 174.338 353.148 172.492 347.858 169.033C342.568 165.573 338.446 160.657 336.014 154.905C333.581 149.152 332.946 142.824 334.191 136.719C335.435 130.614 338.502 125.007 343.004 120.608C347.506 116.209 353.24 113.216 359.481 112.006C365.722 110.797 372.19 111.426 378.065 113.813C383.941 116.201 388.961 120.241 392.489 125.421C396.018 130.601 397.897 136.688 397.889 142.913C397.889 151.259 394.501 159.262 388.47 165.163C382.439 171.064 374.259 174.379 365.729 174.379V174.338Z" fill="#263238" stroke="white" stroke-miterlimit="10"/>
<path d="M365.729 166.656C379.131 166.656 389.995 156.026 389.995 142.913C389.995 129.801 379.131 119.171 365.729 119.171C352.328 119.171 341.463 129.801 341.463 142.913C341.463 156.026 352.328 166.656 365.729 166.656Z" stroke="#263238" stroke-miterlimit="10"/>
<path d="M365.729 160.013C375.382 160.013 383.206 152.357 383.206 142.913C383.206 133.469 375.382 125.813 365.729 125.813C356.077 125.813 348.252 133.469 348.252 142.913C348.252 152.357 356.077 160.013 365.729 160.013Z" stroke="#263238" stroke-miterlimit="10"/>
<path d="M365.729 152.096C370.912 152.096 375.114 147.985 375.114 142.913C375.114 137.842 370.912 133.731 365.729 133.731C360.546 133.731 356.344 137.842 356.344 142.913C356.344 147.985 360.546 152.096 365.729 152.096Z" fill="#263238" stroke="white" stroke-miterlimit="10"/>
<path d="M339.565 66.0746C333.251 59.312 329.926 50.3802 330.317 41.228C330.707 32.0759 334.782 23.4465 341.651 17.2227" stroke="#263238" stroke-miterlimit="10"/>
<path d="M392.018 65.942C386.267 72.1616 378.409 76.1322 369.896 77.1189C361.384 78.1056 352.794 76.0415 345.718 71.3088" stroke="#263238" stroke-miterlimit="10"/>
<path d="M400.725 37.0573C401.032 38.9128 401.186 40.7894 401.184 42.669C401.192 46.8504 400.425 50.9985 398.921 54.9126" stroke="#263238" stroke-miterlimit="10"/>
<path d="M346.698 13.3966C351.249 10.5653 356.4 8.78695 361.758 8.19689C367.117 7.60682 372.543 8.22059 377.623 9.99149C382.703 11.7624 387.303 14.6438 391.073 18.4163C394.844 22.1889 397.685 26.7532 399.38 31.762" stroke="#263238" stroke-miterlimit="10"/>
<path d="M376.306 70.795C392.187 65.0812 400.327 47.8529 394.487 32.3147C388.647 16.7765 371.039 8.81233 355.158 14.5262C339.277 20.2401 331.137 37.4683 336.977 53.0065C342.817 68.5447 360.425 76.5089 376.306 70.795Z" stroke="#263238" stroke-miterlimit="10"/>
<path d="M386.773 32.7211C385.344 29.8077 383.3 27.224 380.776 25.1403C378.251 23.0566 375.304 21.5204 372.128 20.6329C368.953 19.7455 365.621 19.5271 362.352 19.9921C359.084 20.4571 355.954 21.5949 353.168 23.3305C350.382 25.0661 348.004 27.3599 346.191 30.0608C344.377 32.7616 343.17 35.8079 342.648 38.9988C342.127 42.1896 342.302 45.4524 343.164 48.5719C344.026 51.6915 345.554 54.5967 347.647 57.096C350.557 52.8311 364.061 34.8535 386.773 32.7211Z" fill="#263238" stroke="#263238" stroke-miterlimit="10"/>
<path d="M365.729 18.1308C360.782 18.1409 355.948 19.5856 351.839 22.2824C347.73 24.9792 344.531 28.8071 342.645 33.2824C340.758 37.7577 340.27 42.6797 341.242 47.4263C342.213 52.173 344.601 56.5315 348.103 59.9509C351.605 63.3704 356.065 65.6975 360.918 66.6383C365.771 67.579 370.801 67.0911 375.371 65.2362C379.941 63.3814 383.847 60.2428 386.594 56.217C389.342 52.1912 390.808 47.4589 390.808 42.618C390.808 39.398 390.159 36.2096 388.898 33.2353C387.637 30.2611 385.789 27.5594 383.46 25.2849C381.13 23.0103 378.365 21.2077 375.323 19.9801C372.28 18.7525 369.02 18.1241 365.729 18.1308ZM365.729 64.1667C361.384 64.1667 357.136 62.9058 353.523 60.5436C349.909 58.1814 347.093 54.824 345.43 50.8958C343.767 46.9676 343.332 42.6451 344.18 38.475C345.028 34.3048 347.12 30.4743 350.193 27.4678C353.266 24.4613 357.181 22.4138 361.443 21.5844C365.705 20.7549 370.123 21.1806 374.138 22.8077C378.152 24.4348 381.584 27.1902 383.998 30.7255C386.412 34.2608 387.701 38.4171 387.701 42.669C387.701 48.3705 385.386 53.8385 381.266 57.8701C377.145 61.9017 371.557 64.1667 365.729 64.1667Z" fill="#263238" stroke="white" stroke-miterlimit="10"/>
<path d="M371.411 57.8773C380.014 54.8085 384.446 45.497 381.31 37.0793C378.173 28.6617 368.656 24.3256 360.053 27.3943C351.45 30.4631 347.018 39.7747 350.155 48.1923C353.291 56.6099 362.808 60.946 371.411 57.8773Z" stroke="#263238" stroke-miterlimit="10"/>
<path d="M365.729 54.3514C372.323 54.3514 377.669 49.121 377.669 42.669C377.669 36.217 372.323 30.9866 365.729 30.9866C359.135 30.9866 353.789 36.217 353.789 42.669C353.789 49.121 359.135 54.3514 365.729 54.3514Z" stroke="#263238" stroke-miterlimit="10"/>
<path d="M372.142 42.669C372.142 43.91 371.766 45.1232 371.061 46.1551C370.357 47.187 369.355 47.9912 368.183 48.4662C367.011 48.9411 365.722 49.0654 364.478 48.8232C363.234 48.5811 362.091 47.9835 361.194 47.106C360.297 46.2284 359.687 45.1103 359.439 43.8931C359.192 42.6759 359.319 41.4143 359.804 40.2677C360.289 39.1211 361.111 38.1411 362.166 37.4516C363.221 36.7621 364.461 36.3941 365.729 36.3941C367.43 36.3941 369.061 37.0552 370.264 38.232C371.467 39.4087 372.142 41.0048 372.142 42.669Z" fill="#263238" stroke="white" stroke-miterlimit="10"/>
<path d="M26.7275 66.0746C20.4127 59.312 17.088 50.3802 17.4787 41.228C17.8694 32.0759 21.9439 23.4465 28.8131 17.2227" stroke="#263238" stroke-miterlimit="10"/>
<path d="M79.1799 65.942C73.4294 72.1616 65.5706 76.1322 57.0583 77.1189C48.546 78.1056 39.9565 76.0415 32.8799 71.3088" stroke="#263238" stroke-miterlimit="10"/>
<path d="M87.887 37.0573C88.1937 38.9128 88.3471 40.7894 88.3459 42.669C88.3533 46.8504 87.5866 50.9985 86.083 54.9126" stroke="#263238" stroke-miterlimit="10"/>
<path d="M33.8604 13.3966C38.4109 10.5653 43.5616 8.78695 48.9205 8.19689C54.2794 7.60682 59.7053 8.22059 64.7852 9.99149C69.8651 11.7624 74.4652 14.6438 78.2354 18.4163C82.0057 22.1889 84.8467 26.7532 86.5423 31.762" stroke="#263238" stroke-miterlimit="10"/>
<path d="M64.8561 70.2718C80.4315 63.8031 87.6983 46.2051 81.0869 30.9657C74.4755 15.7263 56.4896 8.61632 40.9142 15.0851C25.3388 21.5538 18.072 39.1517 24.6833 54.3911C31.2947 69.6305 49.2806 76.7406 64.8561 70.2718Z" stroke="#263238" stroke-miterlimit="10"/>
<path d="M73.9345 32.7211C72.5056 29.8077 70.4616 27.224 67.9372 25.1403C65.4129 23.0566 62.4656 21.5204 59.2899 20.6329C56.1142 19.7455 52.7823 19.5271 49.514 19.9921C46.2457 20.4571 43.1153 21.5949 40.3294 23.3305C37.5436 25.0661 35.1655 27.3599 33.3522 30.0608C31.5389 32.7616 30.3316 35.8079 29.8099 38.9988C29.2882 42.1896 29.464 45.4524 30.3257 48.5719C31.1874 51.6915 32.7154 54.5967 34.8089 57.096C37.7183 52.8311 51.2225 34.8535 73.9345 32.7211Z" fill="#263238" stroke="#263238" stroke-miterlimit="10"/>
<path d="M52.8909 18.1308C47.9433 18.1409 43.1097 19.5856 39.0009 22.2824C34.8921 24.9792 31.6924 28.8071 29.8062 33.2824C27.9199 37.7577 27.4317 42.6797 28.4033 47.4263C29.3748 52.173 31.7625 56.5315 35.2647 59.9509C38.7669 63.3704 43.2263 65.6975 48.0797 66.6383C52.933 67.579 57.9625 67.0911 62.5325 65.2362C67.1026 63.3814 71.0082 60.2428 73.7559 56.217C76.5036 52.1912 77.9701 47.4589 77.9701 42.618C77.9701 39.398 77.3211 36.2096 76.0601 33.2353C74.7991 30.2611 72.951 27.5594 70.6215 25.2849C68.292 23.0103 65.5268 21.2077 62.4844 19.9801C59.442 18.7525 56.1819 18.1241 52.8909 18.1308ZM52.8909 64.1667C48.5454 64.1667 44.2974 62.9058 40.6841 60.5436C37.0709 58.1814 34.2548 54.824 32.5918 50.8958C30.9288 46.9676 30.4937 42.6451 31.3415 38.475C32.1892 34.3048 34.2818 30.4743 37.3546 27.4678C40.4274 24.4613 44.3424 22.4138 48.6045 21.5844C52.8666 20.7549 57.2843 21.1806 61.2991 22.8077C65.3139 24.4348 68.7454 27.1902 71.1597 30.7255C73.574 34.2608 74.8626 38.4171 74.8626 42.669C74.8626 48.3705 72.5477 53.8385 68.4273 57.8701C64.3068 61.9017 58.7182 64.1667 52.8909 64.1667Z" fill="#263238" stroke="white" stroke-miterlimit="10"/>
<path d="M59.3492 57.6085C67.7815 54.1149 71.7227 44.5945 68.1521 36.3441C64.5815 28.0937 54.8512 24.2376 46.4189 27.7312C37.9866 31.2248 34.0454 40.7451 37.616 48.9955C41.1867 57.2459 50.9169 61.1021 59.3492 57.6085Z" stroke="#263238" stroke-miterlimit="10"/>
<path d="M52.8907 54.3514C59.4849 54.3514 64.8307 49.121 64.8307 42.669C64.8307 36.217 59.4849 30.9866 52.8907 30.9866C46.2964 30.9866 40.9507 36.217 40.9507 42.669C40.9507 49.121 46.2964 54.3514 52.8907 54.3514Z" stroke="#263238" stroke-miterlimit="10"/>
<path d="M59.3039 42.669C59.3039 43.91 58.9278 45.1232 58.2231 46.1551C57.5184 47.187 56.5168 47.9912 55.3449 48.4662C54.1731 48.9411 52.8836 49.0654 51.6396 48.8232C50.3955 48.5811 49.2528 47.9835 48.3559 47.106C47.459 46.2284 46.8482 45.1103 46.6008 43.8931C46.3533 42.6759 46.4803 41.4143 46.9657 40.2677C47.4511 39.1211 48.2731 38.1411 49.3278 37.4516C50.3824 36.7621 51.6223 36.3941 52.8907 36.3941C54.5916 36.3941 56.2228 37.0552 57.4255 38.232C58.6282 39.4087 59.3039 41.0048 59.3039 42.669Z" fill="#263238" stroke="white" stroke-miterlimit="10"/>
<path d="M339.566 265.747C333.248 258.984 329.921 250.05 330.312 240.895C330.702 231.741 334.779 223.109 341.651 216.885" stroke="#263238" stroke-miterlimit="10"/>
<path d="M392.018 265.614C386.266 271.832 378.406 275.801 369.894 276.786C361.382 277.771 352.793 275.705 345.718 270.971" stroke="#263238" stroke-miterlimit="10"/>
<path d="M400.725 236.72C401.032 238.575 401.185 240.452 401.184 242.331C401.192 246.513 400.425 250.661 398.921 254.575" stroke="#263238" stroke-miterlimit="10"/>
<path d="M346.698 213.059C351.249 210.228 356.4 208.449 361.758 207.859C367.117 207.269 372.543 207.883 377.623 209.654C382.703 211.425 387.303 214.306 391.073 218.079C394.844 221.851 397.685 226.415 399.38 231.424" stroke="#263238" stroke-miterlimit="10"/>
<path d="M395.795 245.518C398.333 229.128 386.811 213.828 370.06 211.344C353.308 208.861 337.671 220.135 335.133 236.525C332.595 252.915 344.117 268.214 360.869 270.698C377.62 273.181 393.257 261.907 395.795 245.518Z" stroke="#263238" stroke-width="1.0013" stroke-miterlimit="10"/>
<path d="M386.773 232.414C385.344 229.501 383.3 226.917 380.776 224.833C378.251 222.749 375.304 221.213 372.128 220.326C368.953 219.438 365.621 219.22 362.352 219.685C359.084 220.15 355.954 221.288 353.168 223.023C350.382 224.759 348.004 227.053 346.191 229.754C344.377 232.454 343.17 235.501 342.648 238.692C342.127 241.882 342.302 245.145 343.164 248.265C344.026 251.384 345.554 254.289 347.647 256.789C350.557 252.504 364.061 234.526 386.773 232.414Z" fill="#263238" stroke="#263238" stroke-miterlimit="10"/>
<path d="M365.729 217.793C360.766 217.791 355.914 219.229 351.786 221.926C347.658 224.623 344.441 228.456 342.541 232.942C340.64 237.428 340.143 242.365 341.11 247.128C342.078 251.891 344.468 256.266 347.978 259.7C351.487 263.133 355.958 265.472 360.826 266.419C365.694 267.365 370.74 266.878 375.325 265.019C379.91 263.16 383.828 260.012 386.584 255.973C389.34 251.935 390.81 247.187 390.808 242.331C390.808 235.823 388.166 229.582 383.463 224.98C378.759 220.378 372.38 217.793 365.729 217.793ZM365.729 263.829C361.383 263.829 357.135 262.568 353.522 260.206C349.909 257.844 347.093 254.486 345.43 250.558C343.767 246.63 343.332 242.307 344.179 238.137C345.027 233.967 347.12 230.137 350.193 227.13C353.265 224.123 357.18 222.076 361.442 221.247C365.705 220.417 370.122 220.843 374.137 222.47C378.152 224.097 381.583 226.852 383.998 230.388C386.412 233.923 387.701 238.079 387.701 242.331C387.701 248.033 385.386 253.501 381.265 257.532C377.145 261.564 371.556 263.829 365.729 263.829Z" fill="#263238" stroke="white" stroke-miterlimit="10"/>
<path d="M382.09 244.759C383.476 235.902 377.261 227.624 368.209 226.269C359.157 224.914 350.696 230.995 349.311 239.851C347.926 248.708 354.141 256.986 363.193 258.341C372.245 259.696 380.705 253.615 382.09 244.759Z" stroke="#263238" stroke-miterlimit="10"/>
<path d="M365.729 254.014C372.323 254.014 377.669 248.783 377.669 242.331C377.669 235.879 372.323 230.649 365.729 230.649C359.135 230.649 353.789 235.879 353.789 242.331C353.789 248.783 359.135 254.014 365.729 254.014Z" stroke="#263238" stroke-miterlimit="10"/>
<path d="M372.142 242.331C372.142 243.572 371.766 244.785 371.061 245.817C370.357 246.849 369.355 247.653 368.183 248.128C367.011 248.603 365.722 248.728 364.478 248.485C363.234 248.243 362.091 247.646 361.194 246.768C360.297 245.891 359.687 244.773 359.439 243.555C359.192 242.338 359.319 241.076 359.804 239.93C360.289 238.783 361.111 237.803 362.166 237.114C363.221 236.424 364.461 236.056 365.729 236.056C367.43 236.056 369.061 236.717 370.264 237.894C371.467 239.071 372.142 240.667 372.142 242.331Z" fill="#263238" stroke="white" stroke-miterlimit="10"/>
<path d="M26.7273 265.747C20.4093 258.984 17.0825 250.05 17.4733 240.895C17.864 231.741 21.9406 223.109 28.8129 216.885" stroke="#263238" stroke-miterlimit="10"/>
<path d="M79.1799 265.614C73.428 271.832 65.5686 275.801 57.0563 276.786C48.544 277.771 39.9553 275.705 32.8799 270.971" stroke="#263238" stroke-miterlimit="10"/>
<path d="M87.887 236.72C88.1933 238.575 88.3467 240.452 88.3459 242.331C88.3533 246.513 87.5866 250.661 86.083 254.575" stroke="#263238" stroke-miterlimit="10"/>
<path d="M33.8604 213.059C38.4109 210.228 43.5616 208.449 48.9205 207.859C54.2794 207.269 59.7053 207.883 64.7852 209.654C69.8651 211.425 74.4652 214.306 78.2354 218.079C82.0057 221.851 84.8467 226.415 86.5423 231.424" stroke="#263238" stroke-miterlimit="10"/>
<path d="M83.1232 247.201C85.8634 230.864 74.5491 215.447 57.852 212.766C41.1548 210.084 25.3977 221.155 22.6575 237.492C19.9172 253.828 31.2315 269.246 47.9287 271.927C64.6258 274.608 80.3829 263.538 83.1232 247.201Z" stroke="#263238" stroke-miterlimit="10"/>
<path d="M73.9345 232.414C72.5056 229.501 70.4616 226.917 67.9372 224.833C65.4129 222.749 62.4656 221.213 59.2899 220.326C56.1142 219.438 52.7823 219.22 49.514 219.685C46.2457 220.15 43.1153 221.288 40.3294 223.023C37.5436 224.759 35.1655 227.053 33.3522 229.754C31.5389 232.454 30.3316 235.501 29.8099 238.692C29.2882 241.882 29.464 245.145 30.3257 248.265C31.1874 251.384 32.7154 254.289 34.8089 256.789C37.7183 252.504 51.2225 234.526 73.9345 232.414Z" fill="#263238" stroke="#263238" stroke-miterlimit="10"/>
<path d="M52.8911 217.793C47.9279 217.791 43.0757 219.229 38.9481 221.926C34.8205 224.623 31.6031 228.456 29.7029 232.942C27.8026 237.428 27.3049 242.365 28.2726 247.128C29.2404 251.891 31.6301 256.266 35.1396 259.7C38.6491 263.133 43.1206 265.472 47.9885 266.419C52.8563 267.365 57.9019 266.878 62.4868 265.019C67.0718 263.16 70.9902 260.012 73.7463 255.973C76.5023 251.935 77.9723 247.187 77.9703 242.331C77.9703 235.823 75.328 229.582 70.6247 224.98C65.9215 220.378 59.5425 217.793 52.8911 217.793ZM52.8911 263.829C48.5455 263.829 44.2975 262.568 40.6843 260.206C37.071 257.844 34.2549 254.486 32.5919 250.558C30.9289 246.63 30.4938 242.307 31.3416 238.137C32.1894 233.967 34.282 230.137 37.3548 227.13C40.4275 224.123 44.3425 222.076 48.6046 221.247C52.8667 220.417 57.2845 220.843 61.2993 222.47C65.3141 224.097 68.7456 226.852 71.1599 230.388C73.5741 233.923 74.8628 238.079 74.8628 242.331C74.8628 248.033 72.5479 253.501 68.4274 257.532C64.3069 261.564 58.7183 263.829 52.8911 263.829Z" fill="#263238" stroke="white" stroke-miterlimit="10"/>
<path d="M69.2535 244.971C70.7349 236.129 64.6103 227.787 55.5738 226.337C46.5373 224.888 38.0109 230.88 36.5295 239.722C35.0481 248.564 41.1727 256.906 50.2092 258.355C59.2457 259.805 67.7721 253.812 69.2535 244.971Z" stroke="#263238" stroke-miterlimit="10"/>
<path d="M52.8907 254.014C59.4849 254.014 64.8307 248.783 64.8307 242.331C64.8307 235.879 59.4849 230.649 52.8907 230.649C46.2964 230.649 40.9507 235.879 40.9507 242.331C40.9507 248.783 46.2964 254.014 52.8907 254.014Z" stroke="#263238" stroke-miterlimit="10"/>
<path d="M59.3039 242.331C59.3039 243.572 58.9278 244.785 58.2231 245.817C57.5184 246.849 56.5168 247.653 55.3449 248.128C54.1731 248.603 52.8836 248.728 51.6396 248.485C50.3955 248.243 49.2528 247.646 48.3559 246.768C47.459 245.891 46.8482 244.773 46.6008 243.555C46.3533 242.338 46.4803 241.076 46.9657 239.93C47.4511 238.783 48.2731 237.803 49.3278 237.114C50.3824 236.424 51.6223 236.056 52.8907 236.056C54.5916 236.056 56.2228 236.717 57.4255 237.894C58.6282 239.071 59.3039 240.667 59.3039 242.331Z" fill="#263238" stroke="white" stroke-miterlimit="10"/>
<path d="M14.5892 177.175C5.34505 167.277 0.476258 154.203 1.04473 140.807C1.6132 127.41 7.57282 114.777 17.6237 105.662" stroke="#263238" stroke-miterlimit="10"/>
<path d="M91.37 176.981C82.9493 186.084 71.4438 191.894 58.9824 193.336C46.5211 194.779 33.9475 191.756 23.5884 184.827" stroke="#263238" stroke-miterlimit="10"/>
<path d="M104.102 134.751C105.562 143.523 104.656 152.516 101.475 160.84" stroke="#263238" stroke-miterlimit="10"/>
<path d="M25.0381 100.061C31.6978 95.9098 39.2375 93.2997 47.0834 92.4291C54.9294 91.5586 62.8749 92.4504 70.3155 95.0368C77.7562 97.6232 84.4958 101.836 90.0218 107.355C95.5478 112.874 99.7145 119.553 102.205 126.884" stroke="#263238" stroke-miterlimit="10"/>
<path d="M52.8909 186.786C77.6554 186.786 97.7311 167.144 97.7311 142.913C97.7311 118.683 77.6554 99.0404 52.8909 99.0404C28.1264 99.0404 8.05078 118.683 8.05078 142.913C8.05078 167.144 28.1264 186.786 52.8909 186.786Z" stroke="#263238" stroke-miterlimit="10"/>
<path d="M83.6949 128.394C81.589 124.151 78.5897 120.392 74.8938 117.364C71.1979 114.335 66.8891 112.106 62.2502 110.822C57.6114 109.538 52.7474 109.228 47.9777 109.914C43.2081 110.6 38.6405 112.265 34.5751 114.8C30.5096 117.335 27.0381 120.682 24.3886 124.623C21.7391 128.564 19.9714 133.008 19.2017 137.664C18.432 142.321 18.6776 147.084 19.9225 151.641C21.1673 156.197 23.3832 160.445 26.4247 164.105C30.6793 157.799 50.4402 131.486 83.6949 128.394Z" fill="#263238" stroke="#263238" stroke-miterlimit="10"/>
<path d="M52.8909 106.999C45.6311 106.999 38.5343 109.105 32.498 113.051C26.4617 116.998 21.7569 122.607 18.9787 129.169C16.2005 135.732 15.4736 142.953 16.8899 149.92C18.3062 156.887 21.8022 163.286 26.9356 168.309C32.0691 173.331 38.6095 176.752 45.7299 178.138C52.8502 179.523 60.2306 178.812 66.9378 176.094C73.6451 173.376 79.3778 168.772 83.4112 162.866C87.4445 156.96 89.5973 150.016 89.5973 142.913C89.5973 133.388 85.73 124.253 78.8462 117.518C71.9625 110.783 62.6261 106.999 52.8909 106.999ZM52.8909 174.338C46.5286 174.338 40.3091 172.492 35.0196 169.033C29.7301 165.573 25.6081 160.657 23.1752 154.905C20.7423 149.152 20.1079 142.824 21.3522 136.719C22.5965 130.614 25.6635 125.007 30.1653 120.608C34.6671 116.209 40.4014 113.216 46.6425 112.006C52.8836 110.797 59.3512 111.426 65.2269 113.813C71.1026 116.201 76.1223 120.241 79.6511 125.421C83.1798 130.601 85.059 136.688 85.0507 142.913C85.0507 151.259 81.6625 159.262 75.6313 165.163C69.6002 171.064 61.4202 174.379 52.8909 174.379V174.338Z" fill="#263238" stroke="white" stroke-miterlimit="10"/>
<path d="M52.8908 166.656C66.2925 166.656 77.1566 156.026 77.1566 142.913C77.1566 129.801 66.2925 119.171 52.8908 119.171C39.4892 119.171 28.625 129.801 28.625 142.913C28.625 156.026 39.4892 166.656 52.8908 166.656Z" stroke="#263238" stroke-miterlimit="10"/>
<path d="M52.8913 160.013C62.5437 160.013 70.3685 152.357 70.3685 142.913C70.3685 133.469 62.5437 125.813 52.8913 125.813C43.2389 125.813 35.4141 133.469 35.4141 142.913C35.4141 152.357 43.2389 160.013 52.8913 160.013Z" stroke="#263238" stroke-miterlimit="10"/>
<path d="M52.891 152.096C58.0743 152.096 62.2761 147.985 62.2761 142.913C62.2761 137.842 58.0743 133.731 52.891 133.731C47.7077 133.731 43.5059 137.842 43.5059 142.913C43.5059 147.985 47.7077 152.096 52.891 152.096Z" fill="#263238" stroke="white" stroke-miterlimit="10"/>
<path d="M385.313 356.043H19.2715L68.7103 319.935H335.874L385.313 356.043Z" fill="#707070" stroke="#263238" stroke-linecap="round" stroke-linejoin="round"/>
<path d="M385.449 356.043H19.2715V365.553H385.449V356.043Z" fill="#263238" stroke="#263238" stroke-linecap="round" stroke-linejoin="round"/>
<path d="M385.313 356.043H19.2715L68.7103 319.935H335.874L385.313 356.043Z" fill="#707070" stroke="#263238" stroke-linecap="round" stroke-linejoin="round"/>
<path d="M59.7323 348.361H53.6528L81.2243 324.996H86.1776L59.7323 348.361Z" fill="#263238" stroke="#263238" stroke-linecap="round" stroke-linejoin="round"/>
<path d="M74.8421 335.015H69.4092L72.4124 332.464H77.7202L74.8421 335.015Z" fill="#B0BEC5" stroke="#263238" stroke-linecap="round" stroke-linejoin="round"/>
<path d="M71.2653 348.361H65.1963L90.63 324.996H95.5729L71.2653 348.361Z" fill="#263238" stroke="#263238" stroke-linecap="round" stroke-linejoin="round"/>
<path d="M76.8549 342.994H71.0361L74.2062 340.076H79.879L76.8549 342.994Z" fill="#B0BEC5" stroke="#263238" stroke-linecap="round" stroke-linejoin="round"/>
<path d="M82.809 348.361H76.7295L100.026 324.996H104.968L82.809 348.361Z" fill="#263238" stroke="#263238" stroke-linecap="round" stroke-linejoin="round"/>
<path d="M90.484 340.27H84.8008L87.5746 337.484H93.1327L90.484 340.27Z" fill="#B0BEC5" stroke="#263238" stroke-linecap="round" stroke-linejoin="round"/>
<path d="M94.3425 348.361H88.2734L109.421 324.996H114.375L94.3425 348.361Z" fill="#263238" stroke="#263238" stroke-linecap="round" stroke-linejoin="round"/>
<path d="M105.782 335.015H100.349L102.664 332.464H107.971L105.782 335.015Z" fill="#B0BEC5" stroke="#263238" stroke-linecap="round" stroke-linejoin="round"/>
<path d="M105.886 348.361H99.8066L118.817 324.996H123.77L105.886 348.361Z" fill="#263238" stroke="#263238" stroke-linecap="round" stroke-linejoin="round"/>
<path d="M116.106 335.015H110.673L112.748 332.464H118.056L116.106 335.015Z" fill="white" stroke="#263238" stroke-linecap="round" stroke-linejoin="round"/>
<path d="M134.563 348.361H128.494L142.186 324.996H147.128L134.563 348.361Z" fill="#263238" stroke="#263238" stroke-linecap="round" stroke-linejoin="round"/>
<path d="M137.108 343.626H131.268L132.989 340.678H138.693L137.108 343.626Z" fill="#B0BEC5" stroke="#263238" stroke-linecap="round" stroke-linejoin="round"/>
<path d="M146.107 348.361H140.027L151.582 324.996H156.524L146.107 348.361Z" fill="#263238" stroke="#263238" stroke-linecap="round" stroke-linejoin="round"/>
<path d="M153.667 331.413H148.411L149.589 329.026H154.73L153.667 331.413Z" fill="#B0BEC5" stroke="#263238" stroke-linecap="round" stroke-linejoin="round"/>
<path d="M157.64 348.361H151.571L160.977 324.996H165.93L157.64 348.361Z" fill="#263238" stroke="#263238" stroke-linecap="round" stroke-linejoin="round"/>
<path d="M161.811 336.607H156.305L157.358 333.985H162.739L161.811 336.607Z" fill="#B0BEC5" stroke="#263238" stroke-linecap="round" stroke-linejoin="round"/>
<path d="M169.184 348.361H163.104L170.373 324.996H175.326L169.184 348.361Z" fill="#263238" stroke="#263238" stroke-linecap="round" stroke-linejoin="round"/>
<path d="M171.134 340.923H165.419L166.295 338.107H171.874L171.134 340.923Z" fill="#B0BEC5" stroke="#263238" stroke-linecap="round" stroke-linejoin="round"/>
<path d="M180.727 348.361H174.648L179.778 324.996H184.721L180.727 348.361Z" fill="#263238" stroke="#263238" stroke-linecap="round" stroke-linejoin="round"/>
<path d="M181.312 344.912H175.399L176.066 341.902H181.833L181.312 344.912Z" fill="#B0BEC5" stroke="#263238" stroke-linecap="round" stroke-linejoin="round"/>
<path d="M193.064 345.585C192.981 346.606 191.479 347.463 189.685 347.463C187.892 347.463 186.557 346.616 186.693 345.585C186.828 344.555 188.33 343.759 190.061 343.759C191.792 343.759 193.137 344.565 193.064 345.585Z" fill="#B0BEC5" stroke="#263238" stroke-linecap="round" stroke-linejoin="round"/>
<path d="M364.312 345.585C365.667 346.606 365.354 347.463 363.55 347.463C361.534 347.381 359.585 346.729 357.94 345.585C356.658 344.565 357.043 343.759 358.774 343.759C360.76 343.839 362.681 344.473 364.312 345.585Z" fill="#B0BEC5" stroke="#263238" stroke-linecap="round" stroke-linejoin="round"/>
<path d="M122.758 345.585C122.202 346.195 121.516 346.679 120.749 347.003C119.982 347.327 119.151 347.484 118.316 347.463C116.523 347.463 115.678 346.616 116.397 345.585C116.958 344.993 117.642 344.523 118.402 344.208C119.163 343.894 119.983 343.74 120.808 343.759C122.498 343.759 123.374 344.565 122.758 345.585Z" fill="#B0BEC5" stroke="#263238" stroke-linecap="round" stroke-linejoin="round"/>
<path d="M127.128 338.749C126.533 339.678 124.677 340.433 122.957 340.433C121.236 340.433 120.433 339.678 121.08 338.749C121.608 338.212 122.245 337.788 122.951 337.507C123.657 337.226 124.416 337.093 125.178 337.117C126.857 337.117 127.712 337.841 127.128 338.749Z" fill="#B0BEC5" stroke="#263238" stroke-linecap="round" stroke-linejoin="round"/>
<path d="M130.496 333.536C129.954 334.382 128.202 335.066 126.596 335.066C124.99 335.066 124.166 334.382 124.75 333.536C125.257 333.04 125.864 332.651 126.531 332.395C127.199 332.139 127.913 332.02 128.629 332.046C130.194 332.046 131.028 332.689 130.496 333.536Z" fill="#B0BEC5" stroke="#263238" stroke-linecap="round" stroke-linejoin="round"/>
<path d="M193.554 339.086C193.481 340.014 192.052 340.77 190.363 340.77C188.673 340.77 187.401 340.014 187.516 339.086C187.631 338.158 189.059 337.443 190.696 337.443C192.334 337.443 193.668 338.168 193.554 339.086Z" fill="#B0BEC5" stroke="#263238" stroke-linecap="round" stroke-linejoin="round"/>
<path d="M339.931 330.587C339.812 330.397 339.632 330.25 339.42 330.169L326.187 325.547V321.465H322.662V324.312L320.973 323.72V321.465H317.459V322.486L307.198 318.894V317.568H297.698V322.486H307.198V321.139L317.459 324.741V329.679H320.973V325.975L322.662 326.567V329.679H326.187V327.802L334.091 330.577H331.547V335.515H341.036V330.577L339.931 330.587Z" fill="#263238" stroke="#263238" stroke-linecap="round" stroke-linejoin="round"/>
<path d="M309.815 331.771H293.266C281.474 328.792 269.353 327.247 257.175 327.169C244.594 327.226 232.066 328.771 219.864 331.771H204.535L200.885 338.3C200.885 344.422 226.089 349.432 257.196 349.432C288.302 349.432 313.507 344.453 313.507 338.3L309.815 331.771Z" fill="white" stroke="#263238" stroke-linecap="round" stroke-linejoin="round"/>
<path d="M257.175 342.902C286.247 342.902 309.815 337.918 309.815 331.77C309.815 325.623 286.247 320.639 257.175 320.639C228.103 320.639 204.535 325.623 204.535 331.77C204.535 337.918 228.103 342.902 257.175 342.902Z" fill="#263238"/>
<mask id="mask0_1126_1935" style="mask-type:luminance" maskUnits="userSpaceOnUse" x="204" y="320" width="106" height="23">
<path d="M257.175 342.902C286.247 342.902 309.815 337.918 309.815 331.77C309.815 325.623 286.247 320.639 257.175 320.639C228.103 320.639 204.535 325.623 204.535 331.77C204.535 337.918 228.103 342.902 257.175 342.902Z" fill="white"/>
</mask>
<g mask="url(#mask0_1126_1935)">
<path d="M232.627 341.616L259.625 331.189L308.439 329.24C304.945 326.067 295.007 323.404 281.681 321.925L258.259 328.852L204.712 332.689C206.182 336.556 217.09 339.882 232.627 341.616Z" fill="#ABABAB"/>
</g>
<path d="M257.175 342.902C286.247 342.902 309.815 337.918 309.815 331.77C309.815 325.623 286.247 320.639 257.175 320.639C228.103 320.639 204.535 325.623 204.535 331.77C204.535 337.918 228.103 342.902 257.175 342.902Z" stroke="#263238" stroke-linecap="round" stroke-linejoin="round"/>
<path d="M257.175 334.301C268.417 334.301 277.53 332.373 277.53 329.995C277.53 327.617 268.417 325.69 257.175 325.69C245.933 325.69 236.819 327.617 236.819 329.995C236.819 332.373 245.933 334.301 257.175 334.301Z" fill="white" stroke="#263238" stroke-linecap="round" stroke-linejoin="round"/>
<path d="M262.086 328.914C262.086 329.495 259.886 329.934 257.175 329.934C254.463 329.934 252.263 329.475 252.263 328.914C252.263 328.353 254.463 327.893 257.175 327.893C259.886 327.893 262.086 328.342 262.086 328.914Z" fill="#263238" stroke="#263238" stroke-linecap="round" stroke-linejoin="round"/>
<path d="M150.372 224.833L155.982 202.162C155.982 202.162 161.144 249.096 161.748 256.789C162.249 263.135 157.421 305.171 155.679 319.935H271.586L260.053 255.299L261.877 192.959L268.854 223.568C268.854 223.568 283.724 224.16 296.467 219.119C309.21 214.079 311.942 209.937 311.942 209.937C311.942 209.937 283.422 145.219 278.573 136.312C273.724 127.405 273.421 125.323 273.421 125.323C273.421 125.323 235.797 109.886 213.982 99.2037L198.507 101.244C198.507 101.244 137.211 126.752 136.002 128.854C134.792 130.955 119.161 197.54 110.672 211.783C110.672 211.783 128.567 221.884 139.495 223.364L150.372 224.833Z" fill="#B0BEC5" stroke="#263238" stroke-linecap="round" stroke-linejoin="round"/>
<path d="M248.85 196.117C252.688 173.629 237.168 152.355 214.184 148.6C191.201 144.845 169.458 160.031 165.62 182.518C161.782 205.006 177.303 226.28 200.286 230.035C223.27 233.79 245.013 218.604 248.85 196.117Z" fill="#5E5E5E"/>
<path d="M206.526 187.806L190.749 227.312C196.162 229.552 201.993 230.662 207.87 230.573C213.747 230.483 219.54 229.195 224.879 226.792L207.413 188.827L222.575 150.841C217.349 148.844 211.769 147.888 206.161 148.028C200.552 148.168 195.029 149.402 189.915 151.657L206.526 187.806Z" fill="#ABABAB"/>
<path d="M227.787 192.678C229.695 181.57 222.039 171.051 210.685 169.184C199.332 167.317 188.581 174.809 186.673 185.918C184.765 197.026 192.422 207.545 203.775 209.412C215.129 211.278 225.879 203.787 227.787 192.678Z" fill="white"/>
<path d="M211.291 189.296C211.291 190.083 211.053 190.852 210.606 191.507C210.159 192.161 209.524 192.671 208.781 192.972C208.038 193.274 207.22 193.352 206.431 193.199C205.642 193.045 204.918 192.666 204.349 192.11C203.78 191.553 203.393 190.844 203.236 190.072C203.079 189.3 203.159 188.5 203.467 187.773C203.775 187.046 204.296 186.425 204.965 185.987C205.634 185.55 206.42 185.317 207.225 185.317C208.303 185.317 209.338 185.736 210.1 186.482C210.863 187.229 211.291 188.241 211.291 189.296Z" fill="#5E5E5E"/>
<path d="M198.466 101.224C198.466 101.224 190.634 104.489 180.519 108.774V108.968C180.519 125.65 190.822 139.169 203.523 139.169C216.224 139.169 226.538 125.65 226.538 108.968C226.538 107.621 226.465 106.285 226.339 104.979C221.918 102.938 217.695 100.989 213.941 99.1527L198.466 101.224Z" stroke="#263238" stroke-linecap="round" stroke-linejoin="round"/>
<path d="M155.981 202.162L146.502 162.513" stroke="#263238" stroke-linecap="round" stroke-linejoin="round"/>
<path d="M149.308 175.155L136.94 159.758" stroke="#263238" stroke-linecap="round" stroke-linejoin="round"/>
<path d="M261.878 192.959C261.878 192.959 257.79 168.564 258.916 153.708" stroke="#263238" stroke-linecap="round" stroke-linejoin="round"/>
<path d="M261.158 188.908C261.158 188.908 260.032 165.809 263.974 154.218" stroke="#263238" stroke-linecap="round" stroke-linejoin="round"/>
<path d="M183.897 84.0115C183.897 84.0115 185.42 107.764 185.983 114.62C186.546 121.477 192.959 132.986 204.493 132.435C216.026 131.884 219.968 119.069 220.573 114.325C221.177 109.58 220.573 85.5215 220.573 85.5215C220.573 85.5215 210.562 93.8369 199.331 91.7555C193.642 90.3809 188.358 87.7296 183.897 84.0115Z" fill="#B2B2B2" stroke="#263238" stroke-linecap="round" stroke-linejoin="round"/>
<path d="M220.614 85.4909C220.614 85.4909 210.603 93.8063 199.373 91.7249C193.672 90.3652 188.373 87.7242 183.897 84.0115C183.897 84.0115 184.294 90.1333 184.753 97.1019C189.549 102.622 195.691 107.672 198.465 108.754C203.012 110.539 210.291 109.937 213.94 106.713C216.361 104.618 218.669 102.401 220.854 100.071C220.781 92.7248 220.614 85.4909 220.614 85.4909Z" fill="#263238" stroke="#263238" stroke-linecap="round" stroke-linejoin="round"/>
<path d="M181.155 13.9476C181.155 13.9476 174.179 18.7022 174.179 27.0074C174.179 35.3126 176.608 71.5434 178.423 79.2569C180.237 86.9703 193.898 99.4486 198.455 101.224C203.012 102.999 210.28 102.418 213.93 99.1833C217.58 95.949 230.615 84.8991 231.22 71.8699C231.824 58.8407 233.044 41.261 231.22 30.303C229.395 19.345 222.721 11.9376 213.93 8.92772C205.139 5.91784 187.234 8.00945 181.155 13.9476Z" fill="#B2B2B2" stroke="#263238" stroke-linecap="round" stroke-linejoin="round"/>
<path d="M213.94 8.89711C205.139 5.92804 187.234 8.00944 181.165 13.9476C181.165 13.9476 174.189 18.7022 174.189 27.0074C174.189 29.599 174.429 34.9045 174.804 41.21L175.399 41.5569C175.399 41.5569 176.619 31.4661 185.42 27.9053C194.221 24.3444 206.954 29.3847 213.325 28.7929C219.696 28.2012 224.858 16.3249 225.161 19.6102C225.463 22.8956 218.184 28.7929 218.487 29.701C218.789 30.6091 223.346 35.3432 227.288 42.169C229.175 45.434 230.781 47.3317 232.179 47.9745C232.345 42.0579 232.02 36.1378 231.209 30.2724C229.415 19.2939 222.731 11.8662 213.94 8.89711Z" fill="#263238" stroke="#263238" stroke-linecap="round" stroke-linejoin="round"/>
<path d="M182.99 59.3713C182.99 59.3713 186.932 62.9321 193.303 59.3713" stroke="#263238" stroke-width="2" stroke-linecap="round" stroke-linejoin="round"/>
<path d="M211.208 59.3713C211.208 59.3713 215.15 62.9321 221.521 59.3713" stroke="#263238" stroke-width="2" stroke-linecap="round" stroke-linejoin="round"/>
<path d="M181.77 49.5764C181.77 49.5764 186.025 44.23 194.513 47.1991" stroke="#263238" stroke-width="2" stroke-linecap="round" stroke-linejoin="round"/>
<path d="M209.988 47.7909C209.988 47.7909 215.202 41.5569 223.951 47.7909" stroke="#263238" stroke-width="2" stroke-linecap="round" stroke-linejoin="round"/>
<path d="M194.513 69.7579C194.513 69.7579 193.908 72.727 196.036 74.2166C198.163 75.7062 202.709 78.6651 205.421 77.4816C208.132 76.298 212.397 74.8084 212.72 73.0229L213.023 71.2475" stroke="#263238" stroke-linecap="round" stroke-linejoin="round"/>
<path d="M193.001 78.961C193.001 78.961 203.314 87.8682 216.662 78.961" stroke="#263238" stroke-linecap="round" stroke-linejoin="round"/>
<path d="M167.515 47.9133C167.099 47.9141 166.697 47.7594 166.393 47.4808C166.089 47.2021 165.905 46.8204 165.878 46.4135C165.878 45.6891 164.689 28.5991 170.341 19.0797C170.573 18.7372 170.93 18.4943 171.338 18.4004C171.747 18.3066 172.177 18.3689 172.54 18.5746C172.904 18.7803 173.173 19.114 173.293 19.5074C173.414 19.9009 173.376 20.3245 173.188 20.6917C168.037 29.3643 169.142 46.0258 169.153 46.1992C169.168 46.4097 169.141 46.6211 169.073 46.8213C169.005 47.0215 168.897 47.2066 168.755 47.3658C168.614 47.5251 168.442 47.6555 168.249 47.7494C168.055 47.8434 167.845 47.8991 167.63 47.9133H167.515Z" fill="#858585" stroke="#263238" stroke-linecap="round" stroke-linejoin="round"/>
<path d="M237.184 47.9133H237.069C236.854 47.8991 236.644 47.8434 236.451 47.7494C236.258 47.6555 236.086 47.5251 235.944 47.3658C235.803 47.2066 235.695 47.0215 235.627 46.8213C235.558 46.6211 235.531 46.4097 235.547 46.1992C235.547 46.036 236.652 29.3643 231.511 20.6917C231.323 20.3245 231.286 19.9009 231.406 19.5074C231.527 19.114 231.796 18.7803 232.159 18.5746C232.523 18.3689 232.952 18.3066 233.361 18.4004C233.77 18.4943 234.126 18.7372 234.358 19.0797C240.01 28.5991 238.873 45.6891 238.821 46.4135C238.795 46.8204 238.611 47.2021 238.306 47.4808C238.002 47.7594 237.601 47.9141 237.184 47.9133Z" fill="#858585" stroke="#263238" stroke-linecap="round" stroke-linejoin="round"/>
<path d="M239.749 26.3442C238.571 21.4174 236.151 16.8575 232.71 13.0803C228.216 8.06046 220.134 2.28557 206.244 1.17345C205.906 1.07018 205.556 1.01184 205.202 1C204.357 1 203.533 1 202.72 1H201.865C201.062 1 200.248 1 199.414 1C199.06 1.01184 198.709 1.07018 198.371 1.17345C169.434 3.47932 164.918 26.1095 164.866 26.3544C164.758 26.847 164.753 27.3557 164.85 27.8505C164.947 28.3452 165.144 28.8158 165.431 29.2341C165.718 29.6525 166.088 30.0101 166.519 30.2857C166.95 30.5613 167.433 30.7492 167.94 30.8382C168.447 30.9273 168.967 30.9156 169.469 30.8039C169.971 30.6923 170.445 30.4829 170.862 30.1883C171.28 29.8937 171.633 29.5199 171.9 29.0891C172.167 28.6583 172.342 28.1794 172.416 27.6808C172.416 27.4869 176.201 8.96853 202.292 8.49919C228.122 8.95833 231.949 26.8646 232.116 27.7012C232.31 28.6699 232.886 29.5248 233.72 30.0809C234.554 30.637 235.578 30.8495 236.57 30.6724C237.563 30.4954 238.444 29.943 239.023 29.1349C239.603 28.3267 239.834 27.3278 239.666 26.3544L239.749 26.3442Z" fill="#858585" stroke="#263238" stroke-linecap="round" stroke-linejoin="round"/>
<path d="M171.061 67.952C171.061 67.952 172.52 118.702 178.36 168.033C183.918 214.916 181.885 281.817 178.225 319.323" stroke="#263238" stroke-linecap="round" stroke-linejoin="round"/>
<path d="M234.619 67.5948C234.619 67.5948 226.589 148.729 215.994 177.685C205.4 206.641 191.52 215.212 180.925 198.091" stroke="#263238" stroke-linecap="round" stroke-linejoin="round"/>
<path d="M170.247 44.2505H169.944C164.074 44.2505 159.318 50.3008 159.318 57.7592C159.318 65.2176 164.074 71.268 169.944 71.268H170.247V44.2505Z" fill="white" stroke="#263238" stroke-linecap="round" stroke-linejoin="round"/>
<path d="M172.552 42.7404H170.977C169.065 42.7404 167.515 44.257 167.515 46.1278V69.3396C167.515 71.2104 169.065 72.727 170.977 72.727H172.552C174.464 72.727 176.014 71.2104 176.014 69.3396V46.1278C176.014 44.257 174.464 42.7404 172.552 42.7404Z" fill="#858585" stroke="#263238" stroke-linecap="round" stroke-linejoin="round"/>
<path d="M237.601 44.2505H237.903C243.774 44.2505 248.53 50.3008 248.53 57.7592C248.53 65.2176 243.774 71.268 237.903 71.268H237.601V44.2505Z" fill="white" stroke="#263238" stroke-linecap="round" stroke-linejoin="round"/>
<path d="M235.297 72.7372H236.871C238.783 72.7372 240.333 71.2206 240.333 69.3498V46.138C240.333 44.2672 238.783 42.7506 236.871 42.7506H235.297C233.385 42.7506 231.835 44.2672 231.835 46.138V69.3498C231.835 71.2206 233.385 72.7372 235.297 72.7372Z" fill="#858585" stroke="#263238" stroke-linecap="round" stroke-linejoin="round"/>
<path d="M144.73 224.058L139.454 223.343C133.374 222.517 125.136 219.028 119.025 216.089C114.774 225.873 112.046 236.225 110.933 246.8C109.536 258.605 96.3342 296.672 93.9358 303.202C91.5373 309.732 97.2727 312.997 97.5855 318.935C97.8984 324.873 107.899 329.332 108.806 330.811C109.713 332.291 113.363 332.597 112.748 329.628C112.132 326.659 110.026 323.986 110.328 321.312C110.631 318.639 112.414 308.253 112.414 308.253C112.414 308.253 116.053 310.028 117.273 311.813C118.494 313.599 116.053 318.956 114.844 323.394C113.634 327.832 116.366 332.005 117.576 331.403C118.786 330.801 121.215 321.017 123.947 315.67C126.679 310.324 126.033 308.253 123.645 305.284C121.257 302.315 112.716 288.357 112.716 288.357C112.716 288.357 136.085 249.177 139.725 240.27C141.714 234.966 143.385 229.552 144.73 224.058Z" fill="#B2B2B2" stroke="#263238" stroke-linecap="round" stroke-linejoin="round"/>
<path d="M119.025 216.089C118.587 217.058 118.107 218.13 117.617 219.425C125.021 225.245 134.451 228.012 143.906 227.139C144.188 226.119 144.469 225.047 144.73 224.078L139.453 223.364C133.374 222.497 125.136 219.028 119.025 216.089Z" fill="#263238" stroke="#263238" stroke-linecap="round" stroke-linejoin="round"/>
<path d="M103.341 308.549C103.341 308.549 103.957 320.425 103.341 323.69C102.726 326.955 108.806 329.628 109.713 332.301C110.62 334.974 115.177 336.75 115.48 331.403C115.782 326.057 110.328 321.312 110.328 321.312L113.373 306.763" fill="#B2B2B2"/>
<path d="M103.341 308.549C103.341 308.549 103.957 320.425 103.341 323.69C102.726 326.955 108.806 329.628 109.713 332.301C110.62 334.974 115.177 336.75 115.48 331.403C115.782 326.057 110.328 321.312 110.328 321.312L113.373 306.763" stroke="#263238" stroke-linecap="round" stroke-linejoin="round"/>
<path d="M96.9702 309.436L97.5855 316.262" stroke="#263238" stroke-linecap="round" stroke-linejoin="round"/>
<path d="M296.467 219.089C291.733 220.966 282.64 222.711 278.187 223.343C274.016 228.72 265.579 243.453 251.606 262.217C243.264 273.44 234.442 279.674 233.524 282.051C232.606 284.429 220.353 305.61 217.319 310.354C214.284 315.099 211.855 318.078 213.982 318.374C216.109 318.67 217.017 318.966 220.656 314.517C224.295 310.069 230.041 298.193 230.041 298.193C230.041 298.193 225.182 316.293 223.972 318.966C222.762 321.639 221.542 323.129 223.67 324.016C225.797 324.904 229.436 324.312 231.855 319.864C234.275 315.415 243.994 296.703 243.994 296.703C243.994 296.703 236.412 319.262 235.203 321.639C233.993 324.016 238.842 325.2 240.354 322.527C241.866 319.853 246.017 305.998 246.934 305.11C247.852 304.222 250.74 299.325 252.148 292.509C252.69 289.826 253.243 282.592 253.243 282.592C253.243 282.592 290.69 251.147 301.003 240.464C311.316 229.781 315.602 224.425 315.602 219.385C315.602 216.497 313.12 213.263 310.993 210.947C309.345 212.498 305.341 215.569 296.467 219.089Z" fill="#B2B2B2" stroke="#263238" stroke-linecap="round" stroke-linejoin="round"/>
<path d="M311.827 211.896C311.535 211.569 311.254 211.243 310.972 210.947C309.345 212.498 305.341 215.569 296.467 219.109C291.732 220.987 282.639 222.731 278.187 223.364C277.394 224.384 276.435 225.782 275.319 227.445C284.183 227.435 300.899 225.415 311.827 211.896Z" fill="#263238" stroke="#263238" stroke-linecap="round" stroke-linejoin="round"/>
<path d="M223.69 324.016C223.69 324.016 232.492 309.732 235.829 296.407" stroke="#263238" stroke-linecap="round" stroke-linejoin="round"/>
<path d="M288.218 51.7293C286.162 50.7084 284.167 49.574 282.243 48.3317C279.334 46.4237 277.749 47.3114 278.124 48.6071C278.499 49.9029 276.038 58.8101 272.337 63.5239C268.635 68.2377 268.958 62.8607 266.153 61.922C263.348 60.9834 261.836 63.7178 263.984 66.8501C266.132 69.9824 271.002 69.0335 271.638 67.1154C273.558 62.8519 275.745 58.7084 278.187 54.7085C279.532 52.6679 280.543 52.77 282.994 55.1575C284.04 56.2344 285.344 57.0398 286.787 57.5011C288.231 57.9624 289.769 58.0651 291.263 57.8C291.263 57.8 286.237 67.2072 284.714 70.2069C283.192 73.2065 281.909 77.0429 279.647 76.9612C277.384 76.8796 274.85 72.4923 273.046 75.2063C271.242 77.9203 276.612 82.4096 279.501 81.1241C282.389 79.8385 284.151 73.931 286.289 69.8396C288.427 65.7482 294.631 55.0044 294.256 53.5148C293.881 52.0251 290.992 53.4944 288.218 51.7293Z" fill="#263238"/>
<path d="M268.52 30.2928C267.064 29.5718 265.65 28.7713 264.286 27.8951C262.201 26.5483 261.106 27.1911 261.377 28.0889C261.648 28.9868 259.906 35.2922 257.279 38.6388C254.651 41.9854 254.891 38.1593 252.909 37.5063C250.928 36.8533 249.854 38.7715 251.376 40.9855C252.899 43.1996 256.34 42.5261 256.789 41.1691C258.146 38.1571 259.692 35.23 261.419 32.4048C262.378 30.9662 263.087 31.0274 264.818 32.7211C265.559 33.4811 266.482 34.0495 267.503 34.3753C268.524 34.7011 269.611 34.7743 270.668 34.5882C270.668 34.5882 267.112 41.2406 266.038 43.3628C264.964 45.485 264.057 48.199 262.451 48.1378C260.845 48.0766 259.051 44.9851 257.779 46.9032C256.507 48.8214 260.303 52.0047 262.347 51.0763C264.39 50.1478 265.642 45.9747 267.143 43.1077C268.645 40.2407 273.046 32.6088 272.785 31.5273C272.524 30.4458 270.48 31.5375 268.52 30.2928Z" fill="#263238"/>
<path d="M144.136 66.4726C142.684 65.7503 141.274 64.9498 139.912 64.0748C137.827 62.7281 136.784 63.3708 137.003 64.2687C137.222 65.1666 135.532 71.472 132.905 74.8186C130.277 78.1652 130.517 74.339 128.535 73.6861C126.554 73.0331 125.48 74.9512 127.002 77.1653C128.525 79.3793 131.966 78.7059 132.414 77.3489C133.772 74.3369 135.318 71.4098 137.045 68.5846C137.993 67.1459 138.713 67.2072 140.444 68.9009C141.185 69.6609 142.108 70.2293 143.129 70.5551C144.15 70.8809 145.237 70.9541 146.294 70.768C146.294 70.768 142.738 77.4203 141.664 79.5426C140.59 81.6648 139.683 84.3788 138.077 84.3176C136.471 84.2564 134.677 81.1546 133.405 83.0728C132.133 84.991 135.929 88.1743 137.973 87.256C140.016 86.3378 141.268 82.1545 142.769 79.2773C144.271 76.4001 148.672 68.7886 148.411 67.7071C148.15 66.6256 146.096 67.7173 144.136 66.4726Z" fill="#263238"/>
</svg>
