<svg width="400" height="340" viewBox="0 0 400 340" fill="none" xmlns="http://www.w3.org/2000/svg">
<path d="M200 340C285.666 340 355.112 335.368 355.112 329.654C355.112 323.94 285.666 319.308 200 319.308C114.334 319.308 44.8882 323.94 44.8882 329.654C44.8882 335.368 114.334 340 200 340Z" fill="#F5F5F5"/>
<path d="M182.84 275.768C180.4 274.361 178.04 275.311 175.736 279.854C173.824 283.701 169.896 283.208 170.136 286.087C170.784 294.358 194.12 282.321 182.84 275.768Z" fill="#B0BEC5"/>
<path opacity="0.3" d="M182.84 275.768C180.4 274.361 178.04 275.311 175.736 279.854C173.824 283.701 169.896 283.208 170.136 286.087C170.784 294.358 194.12 282.321 182.84 275.768Z" fill="white"/>
<path opacity="0.1" d="M182.84 275.767C182.582 275.624 182.315 275.505 182.04 275.411C182.04 275.411 185.344 278.848 183.192 281.553C181.04 284.258 172.064 289.778 170.104 286.123C170.784 294.357 194.12 282.321 182.84 275.767Z" fill="black"/>
<path d="M174.4 284.331C173.224 281.873 171.056 281.206 167.448 283.28C164.392 285.035 161.72 282.412 160.656 284.688C157.6 291.232 179.88 295.728 174.4 284.331Z" fill="#B0BEC5"/>
<path opacity="0.5" d="M174.4 284.331C173.224 281.873 171.056 281.206 167.448 283.28C164.392 285.035 161.72 282.412 160.656 284.688C157.6 291.232 179.88 295.728 174.4 284.331Z" fill="white"/>
<path opacity="0.1" d="M174.4 284.331C174.28 284.082 174.144 283.844 173.992 283.618C173.992 283.618 174.936 288.088 172.2 288.865C169.464 289.641 160.504 288.599 160.656 284.688C157.6 291.232 179.88 295.728 174.4 284.331Z" fill="black"/>
<path d="M186.448 283.728C187.624 281.27 189.792 280.593 193.4 282.668C196.456 284.432 199.12 281.8 200.192 284.085C203.256 290.638 180.984 295.125 186.448 283.728Z" fill="#B0BEC5"/>
<path opacity="0.5" d="M186.448 283.728C187.624 281.27 189.792 280.593 193.4 282.668C196.456 284.432 199.12 281.8 200.192 284.085C203.256 290.638 180.984 295.125 186.448 283.728Z" fill="white"/>
<path opacity="0.1" d="M186.448 283.728C186.566 283.475 186.703 283.233 186.856 283.006C186.856 283.052 185.912 287.484 188.648 288.252C191.384 289.02 200.344 287.987 200.192 284.085C203.256 290.638 180.984 295.125 186.448 283.728Z" fill="black"/>
<path d="M187.024 281.498C185.056 279.825 182.84 280.246 180.312 283.856C178.176 286.909 174.8 285.784 174.656 288.362C174.264 295.765 196.152 289.248 187.024 281.498Z" fill="#B0BEC5"/>
<path opacity="0.6" d="M187.024 281.498C185.056 279.825 182.84 280.246 180.312 283.856C178.176 286.909 174.8 285.784 174.656 288.362C174.264 295.765 196.152 289.248 187.024 281.498Z" fill="white"/>
<path opacity="0.1" d="M187.024 281.498C186.821 281.327 186.607 281.175 186.384 281.041C186.384 281.041 188.88 284.697 186.672 286.662C184.464 288.627 175.944 291.99 174.672 288.362C174.264 295.765 196.152 289.248 187.024 281.498Z" fill="black"/>
<path d="M182.784 276.472C182.784 276.472 186.864 273.63 192.752 276.344C198.64 279.059 199.848 278.364 199.848 278.364C199.848 278.364 190.44 285.648 182.784 276.472Z" fill="#B0BEC5"/>
<path opacity="0.2" d="M189.992 278.006C193.144 279.228 196.541 279.361 199.76 278.39C199.408 278.491 197.808 278.673 192.752 276.343C186.864 273.601 182.784 276.471 182.784 276.471C185.241 276.561 187.671 277.078 189.992 278.006Z" fill="black"/>
<path d="M159.888 290.638L163.632 322.398C163.83 324.065 164.55 325.595 165.659 326.702C166.768 327.81 168.191 328.42 169.664 328.421H189.232C190.705 328.42 192.128 327.81 193.238 326.702C194.347 325.595 195.067 324.065 195.264 322.398L199.008 290.638H159.888Z" fill="#B0BEC5"/>
<path d="M201.864 292.804H157.344C156.838 292.804 156.353 292.575 155.995 292.167C155.637 291.759 155.434 291.206 155.432 290.628C155.432 290.049 155.634 289.493 155.992 289.084C156.351 288.674 156.837 288.444 157.344 288.444H201.864C202.371 288.444 202.858 288.674 203.216 289.084C203.575 289.493 203.776 290.049 203.776 290.628C203.774 291.206 203.572 291.759 203.213 292.167C202.855 292.575 202.37 292.804 201.864 292.804Z" fill="#B0BEC5"/>
<g opacity="0.3">
<path d="M175.112 288.444H173.76L169.944 292.804H171.296L175.112 288.444Z" fill="white"/>
<path d="M179.88 288.444H178.536L174.72 292.804H176.064L179.88 288.444Z" fill="white"/>
<path d="M170.344 288.444H168.992L165.176 292.804H166.528L170.344 288.444Z" fill="white"/>
<path d="M157.016 292.767L160.8 288.444H159.448L156.104 292.273C156.363 292.529 156.679 292.7 157.016 292.767Z" fill="white"/>
<path d="M161.752 292.804L165.568 288.444H164.224L160.408 292.804H161.752Z" fill="white"/>
<path d="M203.2 289.074C202.961 288.805 202.662 288.615 202.336 288.525L198.576 292.812H199.928L203.2 289.074Z" fill="white"/>
<path d="M198.968 288.444H197.616L193.8 292.804H195.152L198.968 288.444Z" fill="white"/>
<path d="M184.656 288.444H183.304L179.488 292.804H180.84L184.656 288.444Z" fill="white"/>
<path d="M194.192 288.444H192.848L189.032 292.804H190.376L194.192 288.444Z" fill="white"/>
<path d="M189.424 288.444H188.072L184.256 292.804H185.608L189.424 288.444Z" fill="white"/>
</g>
<path d="M174.144 310.406C174.037 310.525 173.893 310.591 173.744 310.591C173.595 310.591 173.451 310.525 173.344 310.406L164.936 300.801C164.832 300.678 164.774 300.514 164.774 300.344C164.774 300.173 164.832 300.009 164.936 299.887C165.042 299.766 165.186 299.698 165.336 299.698C165.486 299.698 165.63 299.766 165.736 299.887L174.144 309.483C174.246 309.608 174.303 309.773 174.303 309.945C174.303 310.116 174.246 310.281 174.144 310.406Z" fill="#B0BEC5"/>
<path d="M176.264 308.003C176.155 308.117 176.012 308.18 175.864 308.18C175.716 308.18 175.573 308.117 175.464 308.003L167.064 298.397C166.959 298.276 166.899 298.111 166.899 297.94C166.899 297.769 166.959 297.605 167.064 297.483C167.172 297.365 167.315 297.299 167.464 297.299C167.613 297.299 167.757 297.365 167.864 297.483L176.264 307.089C176.364 307.214 176.42 307.377 176.42 307.546C176.42 307.715 176.364 307.878 176.264 308.003Z" fill="#B0BEC5"/>
<path d="M178.4 305.562C178.291 305.677 178.148 305.74 178 305.74C177.852 305.74 177.709 305.677 177.6 305.562L169.2 295.966C169.096 295.843 169.039 295.679 169.039 295.509C169.039 295.338 169.096 295.175 169.2 295.052C169.307 294.934 169.451 294.867 169.6 294.867C169.749 294.867 169.893 294.934 170 295.052L178.4 304.63C178.454 304.691 178.496 304.764 178.525 304.844C178.555 304.924 178.57 305.01 178.57 305.096C178.57 305.183 178.555 305.269 178.525 305.349C178.496 305.429 178.454 305.501 178.4 305.562Z" fill="#B0BEC5"/>
<g opacity="0.3">
<path d="M174.144 310.406C174.037 310.525 173.893 310.591 173.744 310.591C173.595 310.591 173.451 310.525 173.344 310.406L164.936 300.801C164.832 300.678 164.774 300.514 164.774 300.344C164.774 300.173 164.832 300.009 164.936 299.887C165.042 299.766 165.186 299.699 165.336 299.699C165.486 299.699 165.63 299.766 165.736 299.887L174.144 309.483C174.246 309.608 174.303 309.773 174.303 309.945C174.303 310.116 174.246 310.281 174.144 310.406Z" fill="white"/>
<path d="M176.264 308.003C176.155 308.117 176.012 308.181 175.864 308.181C175.716 308.181 175.573 308.117 175.464 308.003L167.064 298.397C166.959 298.276 166.899 298.111 166.899 297.94C166.899 297.769 166.959 297.605 167.064 297.483C167.172 297.365 167.315 297.299 167.464 297.299C167.613 297.299 167.757 297.365 167.864 297.483L176.264 307.089C176.364 307.214 176.42 307.377 176.42 307.546C176.42 307.715 176.364 307.878 176.264 308.003Z" fill="white"/>
<path d="M178.4 305.562C178.291 305.677 178.148 305.74 178 305.74C177.852 305.74 177.709 305.677 177.6 305.562L169.2 295.966C169.096 295.843 169.039 295.679 169.039 295.509C169.039 295.338 169.096 295.175 169.2 295.052C169.307 294.934 169.451 294.867 169.6 294.867C169.749 294.867 169.893 294.934 170 295.052L178.4 304.63C178.454 304.691 178.496 304.764 178.525 304.844C178.555 304.924 178.57 305.01 178.57 305.096C178.57 305.183 178.555 305.269 178.525 305.349C178.496 305.429 178.454 305.501 178.4 305.562Z" fill="white"/>
</g>
<path d="M174.144 295.966L165.736 305.562C165.629 305.681 165.485 305.747 165.336 305.747C165.187 305.747 165.043 305.681 164.936 305.562C164.832 305.44 164.774 305.276 164.774 305.105C164.774 304.935 164.832 304.771 164.936 304.648L173.344 295.043C173.451 294.924 173.595 294.858 173.744 294.858C173.893 294.858 174.037 294.924 174.144 295.043C174.246 295.168 174.303 295.333 174.303 295.504C174.303 295.676 174.246 295.84 174.144 295.966Z" fill="#B0BEC5"/>
<path d="M176.264 298.379L167.856 308.003C167.749 308.121 167.605 308.187 167.456 308.187C167.307 308.187 167.163 308.121 167.056 308.003C166.952 307.88 166.895 307.716 166.895 307.546C166.895 307.375 166.952 307.212 167.056 307.089L175.456 297.492C175.565 297.378 175.708 297.315 175.856 297.315C176.004 297.315 176.147 297.378 176.256 297.492C176.354 297.612 176.409 297.77 176.41 297.934C176.412 298.098 176.36 298.257 176.264 298.379Z" fill="#B0BEC5"/>
<path d="M178.4 300.801L169.992 310.406C169.883 310.521 169.74 310.584 169.592 310.584C169.444 310.584 169.301 310.521 169.192 310.406C169.092 310.282 169.037 310.119 169.037 309.949C169.037 309.78 169.092 309.617 169.192 309.492L177.6 299.868C177.708 299.75 177.851 299.684 178 299.684C178.149 299.684 178.293 299.75 178.4 299.868C178.454 299.93 178.497 300.002 178.526 300.082C178.555 300.162 178.57 300.248 178.57 300.335C178.57 300.421 178.555 300.507 178.526 300.587C178.497 300.667 178.454 300.74 178.4 300.801Z" fill="#B0BEC5"/>
<g opacity="0.5">
<path d="M174.144 295.966L165.736 305.562C165.629 305.681 165.485 305.747 165.336 305.747C165.187 305.747 165.043 305.681 164.936 305.562C164.832 305.44 164.774 305.276 164.774 305.105C164.774 304.935 164.832 304.771 164.936 304.648L173.344 295.043C173.451 294.924 173.595 294.858 173.744 294.858C173.893 294.858 174.037 294.924 174.144 295.043C174.246 295.168 174.303 295.333 174.303 295.504C174.303 295.676 174.246 295.84 174.144 295.966Z" fill="white"/>
<path d="M176.264 298.379L167.856 308.003C167.749 308.121 167.605 308.187 167.456 308.187C167.307 308.187 167.163 308.121 167.056 308.003C166.952 307.88 166.895 307.716 166.895 307.546C166.895 307.375 166.952 307.211 167.056 307.089L175.456 297.492C175.565 297.378 175.708 297.315 175.856 297.315C176.004 297.315 176.147 297.378 176.256 297.492C176.354 297.612 176.409 297.77 176.41 297.934C176.412 298.098 176.36 298.256 176.264 298.379Z" fill="white"/>
<path d="M178.4 300.801L169.992 310.406C169.883 310.521 169.74 310.584 169.592 310.584C169.444 310.584 169.301 310.521 169.192 310.406C169.092 310.282 169.037 310.119 169.037 309.949C169.037 309.78 169.092 309.617 169.192 309.492L177.6 299.868C177.708 299.75 177.851 299.684 178 299.684C178.149 299.684 178.293 299.75 178.4 299.868C178.454 299.93 178.497 300.002 178.526 300.082C178.555 300.162 178.57 300.248 178.57 300.335C178.57 300.421 178.555 300.507 178.526 300.587C178.497 300.667 178.454 300.74 178.4 300.801Z" fill="white"/>
</g>
<path d="M180.6 325.441C180.493 325.559 180.349 325.625 180.2 325.625C180.051 325.625 179.907 325.559 179.8 325.441L171.392 315.835C171.292 315.71 171.236 315.547 171.236 315.378C171.236 315.209 171.292 315.046 171.392 314.921C171.501 314.807 171.644 314.743 171.792 314.743C171.94 314.743 172.083 314.807 172.192 314.921L180.592 324.527C180.697 324.648 180.756 324.811 180.757 324.982C180.759 325.152 180.702 325.317 180.6 325.441Z" fill="#B0BEC5"/>
<path d="M182.72 323.019C182.613 323.137 182.469 323.204 182.32 323.204C182.171 323.204 182.027 323.137 181.92 323.019L173.512 313.413C173.408 313.291 173.351 313.127 173.351 312.956C173.351 312.786 173.408 312.622 173.512 312.499C173.619 312.381 173.763 312.315 173.912 312.315C174.061 312.315 174.205 312.381 174.312 312.499L182.712 322.096C182.819 322.218 182.88 322.383 182.882 322.556C182.883 322.728 182.825 322.895 182.72 323.019Z" fill="#B0BEC5"/>
<path d="M184.84 320.597C184.731 320.711 184.588 320.775 184.44 320.775C184.292 320.775 184.149 320.711 184.04 320.597L175.64 310.991C175.536 310.868 175.479 310.705 175.479 310.534C175.479 310.364 175.536 310.2 175.64 310.077C175.747 309.959 175.891 309.893 176.04 309.893C176.189 309.893 176.333 309.959 176.44 310.077L184.848 319.674C184.949 319.8 185.005 319.966 185.003 320.137C185.002 320.308 184.944 320.473 184.84 320.597Z" fill="#B0BEC5"/>
<g opacity="0.3">
<path d="M180.6 325.441C180.493 325.559 180.349 325.626 180.2 325.626C180.051 325.626 179.907 325.559 179.8 325.441L171.392 315.835C171.292 315.711 171.236 315.548 171.236 315.378C171.236 315.209 171.292 315.046 171.392 314.921C171.501 314.807 171.644 314.744 171.792 314.744C171.94 314.744 172.083 314.807 172.192 314.921L180.592 324.527C180.697 324.649 180.756 324.812 180.757 324.982C180.759 325.153 180.702 325.317 180.6 325.441Z" fill="white"/>
<path d="M182.72 323.019C182.613 323.137 182.469 323.204 182.32 323.204C182.171 323.204 182.027 323.137 181.92 323.019L173.512 313.413C173.408 313.291 173.351 313.127 173.351 312.956C173.351 312.786 173.408 312.622 173.512 312.499C173.619 312.381 173.763 312.315 173.912 312.315C174.061 312.315 174.205 312.381 174.312 312.499L182.712 322.096C182.819 322.218 182.88 322.383 182.882 322.556C182.883 322.728 182.825 322.895 182.72 323.019Z" fill="white"/>
<path d="M184.84 320.597C184.731 320.711 184.588 320.775 184.44 320.775C184.292 320.775 184.149 320.711 184.04 320.597L175.64 310.991C175.536 310.868 175.479 310.705 175.479 310.534C175.479 310.364 175.536 310.2 175.64 310.077C175.747 309.959 175.891 309.893 176.04 309.893C176.189 309.893 176.333 309.959 176.44 310.077L184.848 319.674C184.949 319.8 185.005 319.966 185.003 320.137C185.002 320.308 184.944 320.473 184.84 320.597Z" fill="white"/>
</g>
<path d="M180.6 310.991L172.2 320.597C172.091 320.711 171.948 320.775 171.8 320.775C171.652 320.775 171.509 320.711 171.4 320.597C171.3 320.472 171.244 320.309 171.244 320.14C171.244 319.971 171.3 319.808 171.4 319.683L179.808 310.086C179.915 309.968 180.058 309.902 180.208 309.902C180.357 309.902 180.5 309.968 180.608 310.086C180.71 310.209 180.766 310.372 180.765 310.541C180.763 310.71 180.704 310.871 180.6 310.991Z" fill="#B0BEC5"/>
<path d="M182.72 313.413L174.32 323.019C174.211 323.133 174.068 323.197 173.92 323.197C173.772 323.197 173.629 323.133 173.52 323.019C173.42 322.894 173.364 322.731 173.364 322.562C173.364 322.393 173.42 322.23 173.52 322.105L181.928 312.509C182.034 312.388 182.178 312.32 182.328 312.32C182.478 312.32 182.621 312.388 182.728 312.509C182.83 312.631 182.886 312.794 182.885 312.963C182.883 313.132 182.824 313.293 182.72 313.413Z" fill="#B0BEC5"/>
<path d="M184.84 315.835L176.432 325.441C176.325 325.559 176.181 325.625 176.032 325.625C175.883 325.625 175.74 325.559 175.632 325.441C175.532 325.316 175.477 325.153 175.477 324.984C175.477 324.815 175.532 324.652 175.632 324.527L184 314.894C184.109 314.78 184.252 314.716 184.4 314.716C184.548 314.716 184.691 314.78 184.8 314.894C184.913 315.014 184.98 315.179 184.987 315.355C184.995 315.531 184.942 315.703 184.84 315.835Z" fill="#B0BEC5"/>
<g opacity="0.5">
<path d="M180.6 310.991L172.2 320.597C172.091 320.711 171.948 320.775 171.8 320.775C171.652 320.775 171.509 320.711 171.4 320.597C171.3 320.472 171.244 320.309 171.244 320.14C171.244 319.971 171.3 319.808 171.4 319.683L179.808 310.086C179.915 309.968 180.058 309.902 180.208 309.902C180.357 309.902 180.5 309.968 180.608 310.086C180.71 310.209 180.766 310.372 180.765 310.541C180.763 310.71 180.704 310.871 180.6 310.991Z" fill="white"/>
<path d="M182.72 313.413L174.32 323.019C174.211 323.133 174.068 323.197 173.92 323.197C173.772 323.197 173.629 323.133 173.52 323.019C173.42 322.894 173.364 322.731 173.364 322.562C173.364 322.393 173.42 322.23 173.52 322.105L181.928 312.508C182.034 312.388 182.178 312.32 182.328 312.32C182.478 312.32 182.621 312.388 182.728 312.508C182.83 312.631 182.886 312.794 182.885 312.963C182.883 313.132 182.824 313.293 182.72 313.413Z" fill="white"/>
<path d="M184.84 315.835L176.432 325.441C176.324 325.559 176.181 325.625 176.032 325.625C175.882 325.625 175.739 325.559 175.632 325.441C175.532 325.316 175.476 325.153 175.476 324.984C175.476 324.815 175.532 324.652 175.632 324.527L184 314.894C184.109 314.779 184.252 314.716 184.4 314.716C184.548 314.716 184.69 314.779 184.8 314.894C184.912 315.014 184.979 315.179 184.987 315.355C184.994 315.531 184.942 315.703 184.84 315.835Z" fill="white"/>
</g>
<path d="M191.696 313.486C191.587 313.601 191.444 313.664 191.296 313.664C191.148 313.664 191.005 313.601 190.896 313.486L182.496 303.881C182.39 303.759 182.331 303.595 182.331 303.424C182.331 303.253 182.39 303.088 182.496 302.967C182.602 302.846 182.746 302.779 182.896 302.779C183.046 302.779 183.189 302.846 183.296 302.967L191.704 312.563C191.805 312.69 191.861 312.855 191.859 313.027C191.858 313.198 191.799 313.362 191.696 313.486Z" fill="#B0BEC5"/>
<path d="M193.808 311.028C193.701 311.146 193.557 311.212 193.408 311.212C193.259 311.212 193.115 311.146 193.008 311.028L184.584 301.422C184.48 301.3 184.422 301.136 184.422 300.965C184.422 300.795 184.48 300.631 184.584 300.508C184.693 300.394 184.836 300.331 184.984 300.331C185.132 300.331 185.275 300.394 185.384 300.508L193.784 310.105C193.893 310.224 193.957 310.388 193.961 310.561C193.966 310.733 193.911 310.901 193.808 311.028Z" fill="#B0BEC5"/>
<path d="M195.928 308.606C195.821 308.724 195.677 308.79 195.528 308.79C195.379 308.79 195.235 308.724 195.128 308.606L186.72 299.009C186.62 298.885 186.564 298.722 186.564 298.552C186.564 298.383 186.62 298.22 186.72 298.095C186.829 297.981 186.972 297.918 187.12 297.918C187.268 297.918 187.411 297.981 187.52 298.095L195.92 307.701C196.024 307.821 196.083 307.983 196.085 308.152C196.086 308.321 196.03 308.484 195.928 308.606Z" fill="#B0BEC5"/>
<g opacity="0.3">
<path d="M191.696 313.486C191.587 313.601 191.444 313.664 191.296 313.664C191.148 313.664 191.005 313.601 190.896 313.486L182.496 303.881C182.39 303.759 182.331 303.595 182.331 303.424C182.331 303.253 182.39 303.088 182.496 302.967C182.602 302.846 182.746 302.779 182.896 302.779C183.046 302.779 183.189 302.846 183.296 302.967L191.704 312.563C191.805 312.69 191.861 312.855 191.859 313.027C191.858 313.198 191.799 313.362 191.696 313.486Z" fill="white"/>
<path d="M193.808 311.028C193.701 311.146 193.557 311.212 193.408 311.212C193.259 311.212 193.115 311.146 193.008 311.028L184.584 301.422C184.48 301.3 184.422 301.136 184.422 300.965C184.422 300.795 184.48 300.631 184.584 300.508C184.693 300.394 184.836 300.331 184.984 300.331C185.132 300.331 185.275 300.394 185.384 300.508L193.784 310.105C193.893 310.224 193.957 310.388 193.961 310.561C193.966 310.733 193.911 310.901 193.808 311.028Z" fill="white"/>
<path d="M195.928 308.606C195.821 308.724 195.677 308.79 195.528 308.79C195.379 308.79 195.235 308.724 195.128 308.606L186.72 299.009C186.62 298.885 186.564 298.722 186.564 298.552C186.564 298.383 186.62 298.22 186.72 298.095C186.829 297.981 186.972 297.918 187.12 297.918C187.268 297.918 187.411 297.981 187.52 298.095L195.92 307.701C196.024 307.821 196.083 307.983 196.085 308.152C196.086 308.321 196.03 308.484 195.928 308.606Z" fill="white"/>
</g>
<path d="M191.696 299.009L183.288 308.606C183.181 308.724 183.037 308.79 182.888 308.79C182.739 308.79 182.595 308.724 182.488 308.606C182.382 308.484 182.323 308.32 182.323 308.149C182.323 307.978 182.382 307.813 182.488 307.692L190.888 298.086C190.997 297.972 191.14 297.908 191.288 297.908C191.436 297.908 191.579 297.972 191.688 298.086C191.791 298.21 191.85 298.375 191.851 298.546C191.853 298.717 191.797 298.883 191.696 299.009Z" fill="#B0BEC5"/>
<path d="M193.808 301.422L185.408 311.028C185.299 311.142 185.156 311.206 185.008 311.206C184.86 311.206 184.717 311.142 184.608 311.028C184.508 310.903 184.452 310.74 184.452 310.571C184.452 310.402 184.508 310.239 184.608 310.114L193.016 300.517C193.123 300.399 193.267 300.333 193.416 300.333C193.565 300.333 193.708 300.399 193.816 300.517C193.918 300.64 193.974 300.803 193.973 300.972C193.971 301.141 193.912 301.302 193.808 301.422Z" fill="#B0BEC5"/>
<path d="M195.928 303.844L187.528 313.487C187.419 313.601 187.276 313.664 187.128 313.664C186.98 313.664 186.837 313.601 186.728 313.487C186.628 313.362 186.572 313.199 186.572 313.03C186.572 312.86 186.628 312.697 186.728 312.573L195.136 302.976C195.242 302.855 195.386 302.788 195.536 302.788C195.686 302.788 195.829 302.855 195.936 302.976C196.029 303.096 196.079 303.252 196.078 303.412C196.076 303.572 196.023 303.726 195.928 303.844Z" fill="#B0BEC5"/>
<g opacity="0.5">
<path d="M191.696 299.009L183.288 308.606C183.181 308.724 183.037 308.79 182.888 308.79C182.739 308.79 182.595 308.724 182.488 308.606C182.382 308.484 182.323 308.32 182.323 308.149C182.323 307.978 182.382 307.813 182.488 307.692L190.888 298.086C190.997 297.972 191.14 297.908 191.288 297.908C191.436 297.908 191.579 297.972 191.688 298.086C191.791 298.21 191.85 298.375 191.851 298.546C191.853 298.717 191.797 298.883 191.696 299.009Z" fill="white"/>
<path d="M193.808 301.422L185.408 311.028C185.299 311.142 185.156 311.206 185.008 311.206C184.86 311.206 184.717 311.142 184.608 311.028C184.508 310.903 184.452 310.74 184.452 310.571C184.452 310.402 184.508 310.239 184.608 310.114L193.016 300.517C193.123 300.399 193.267 300.333 193.416 300.333C193.565 300.333 193.708 300.399 193.816 300.517C193.918 300.64 193.974 300.803 193.973 300.972C193.971 301.141 193.912 301.302 193.808 301.422Z" fill="white"/>
<path d="M195.928 303.844L187.528 313.487C187.419 313.601 187.276 313.664 187.128 313.664C186.98 313.664 186.837 313.601 186.728 313.487C186.628 313.362 186.572 313.199 186.572 313.03C186.572 312.86 186.628 312.697 186.728 312.573L195.136 302.976C195.242 302.855 195.386 302.788 195.536 302.788C195.686 302.788 195.829 302.855 195.936 302.976C196.029 303.096 196.079 303.252 196.078 303.412C196.076 303.572 196.023 303.726 195.928 303.844Z" fill="white"/>
</g>
<path d="M300.56 322.626C299.376 320.168 297.208 319.491 293.6 321.575C290.544 323.33 287.88 320.661 286.808 322.983C283.744 329.481 306.024 333.977 300.56 322.626Z" fill="#B0BEC5"/>
<path opacity="0.5" d="M300.56 322.626C299.376 320.168 297.208 319.491 293.6 321.575C290.544 323.33 287.88 320.661 286.808 322.983C283.744 329.481 306.024 333.977 300.56 322.626Z" fill="white"/>
<path opacity="0.1" d="M300.56 322.626C300.436 322.374 300.297 322.133 300.144 321.904C300.144 321.904 301.088 326.382 298.352 327.159C295.616 327.936 286.656 326.885 286.808 322.982C283.744 329.481 306.024 333.977 300.56 322.626Z" fill="black"/>
<path d="M141.496 321.177C139.704 318.819 137.168 318.673 133.568 321.909C130.528 324.65 127.048 322.493 126.312 325.263C124.192 333.205 149.784 332.108 141.496 321.177Z" fill="#B0BEC5"/>
<path opacity="0.3" d="M141.496 321.177C139.704 318.819 137.168 318.673 133.568 321.909C130.528 324.65 127.048 322.493 126.312 325.263C124.192 333.205 149.784 332.108 141.496 321.177Z" fill="white"/>
<path opacity="0.1" d="M141.496 321.173C141.31 320.934 141.11 320.711 140.896 320.506C140.896 320.551 142.816 325.121 139.936 326.693C137.056 328.265 126.904 329.554 126.336 325.258C124.192 333.2 149.784 332.104 141.496 321.173Z" fill="black"/>
<path d="M164.936 325.943C164.936 325.943 159.816 322.37 152.408 325.779C145 329.188 143.496 328.32 143.496 328.32C143.496 328.32 155.32 337.478 164.936 325.943Z" fill="#B0BEC5"/>
<path opacity="0.2" d="M155.88 327.872C151.92 329.409 147.651 329.578 143.608 328.356C144.048 328.484 146.056 328.704 152.408 325.779C159.816 322.37 164.936 325.943 164.936 325.943C161.849 326.057 158.795 326.707 155.88 327.872Z" fill="black"/>
<path d="M252.968 327.909C252.968 327.909 257.04 325.066 262.936 327.781C268.832 330.495 270.032 329.801 270.032 329.801C270.032 329.801 260.616 337.085 252.968 327.909Z" fill="#B0BEC5"/>
<path opacity="0.2" d="M260.176 329.444C263.328 330.665 266.725 330.799 269.944 329.828C269.592 329.928 267.992 330.102 262.936 327.781C257.04 325.039 252.968 327.909 252.968 327.909C255.425 327.999 257.855 328.517 260.176 329.444Z" fill="black"/>
<path d="M101.768 325.066C101.768 325.066 105.84 322.215 111.736 324.938C117.632 327.662 118.832 326.958 118.832 326.958C118.832 326.958 109.416 334.242 101.768 325.066Z" fill="#B0BEC5"/>
<path opacity="0.2" d="M108.976 326.602C112.129 327.818 115.525 327.951 118.744 326.986C118.392 327.086 116.792 327.26 111.736 324.938C105.84 322.196 101.768 325.066 101.768 325.066C104.225 325.157 106.656 325.675 108.976 326.602Z" fill="black"/>
<path d="M279.632 327.991C279.632 327.991 283.704 325.149 289.6 327.863C295.496 330.577 296.696 329.883 296.696 329.883C296.696 329.883 287.28 337.167 279.632 327.991Z" fill="#B0BEC5"/>
<path opacity="0.2" d="M286.84 329.526C289.992 330.747 293.389 330.88 296.608 329.91C296.256 330.011 294.656 330.184 289.6 327.863C283.704 325.121 279.632 327.991 279.632 327.991C282.089 328.081 284.519 328.599 286.84 329.526Z" fill="black"/>
<path d="M251.544 321.21C253.328 318.788 255.856 318.605 259.432 321.822C262.464 324.564 265.928 322.325 266.632 325.112C268.8 333.128 243.28 332.397 251.544 321.21Z" fill="#B0BEC5"/>
<path opacity="0.4" d="M251.544 321.21C253.328 318.788 255.856 318.605 259.432 321.822C262.464 324.564 265.928 322.325 266.632 325.112C268.8 333.128 243.28 332.397 251.544 321.21Z" fill="white"/>
<path opacity="0.1" d="M251.544 321.209C251.73 320.962 251.93 320.73 252.144 320.515C252.144 320.56 250.224 325.222 253.096 326.775C255.968 328.329 266.064 329.462 266.656 325.112C268.8 333.127 243.28 332.396 251.544 321.209Z" fill="black"/>
<path d="M167.264 328.759C167.264 328.759 171.336 325.916 177.232 328.631C183.128 331.345 184.328 330.651 184.328 330.651C184.328 330.651 174.912 337.944 167.264 328.759Z" fill="#B0BEC5"/>
<path opacity="0.2" d="M174.472 330.294C177.625 331.51 181.02 331.647 184.24 330.687C183.88 330.778 182.288 330.961 177.232 328.631C171.336 325.889 167.264 328.759 167.264 328.759C169.721 328.849 172.152 329.367 174.472 330.294Z" fill="black"/>
<path d="M200.584 211.123C200.584 211.123 193.856 225.372 190.64 225.29C187.424 225.207 190.64 213.957 190.64 213.957C190.64 213.957 181.752 226.295 178.16 225.29C174.568 224.284 178.16 217.503 178.16 217.503C178.16 217.503 161.232 236.303 164.952 221.268C164.952 221.268 138.656 242.865 140.536 228.214C140.536 228.214 120.488 246.183 127.304 230.792C127.304 230.792 98.6161 231.651 117.576 221.387C117.576 221.387 88.6481 217.859 106.96 211.123C106.96 211.123 79.1441 208.445 98.4561 202.898C98.4561 202.898 75.5041 187.05 96.9041 190.367C96.9041 190.367 80.6881 174.309 98.8321 176.338C98.8321 176.338 82.1441 158.48 104.112 164.914C104.112 164.914 92.5921 157.255 93.6641 151.753C94.7361 146.251 104.92 151.753 104.92 151.753C104.92 151.753 98.2241 141.041 100.92 137.057C103.616 133.072 110.48 143.454 110.48 143.454C110.48 143.454 108.16 129.096 111.64 127.561C115.12 126.025 119.168 137.047 119.168 137.047C119.168 137.047 117.024 126.418 120.624 123.621C124.224 120.825 128.28 130.339 128.28 130.339C128.28 130.339 122.088 99.0361 133.08 112.06C133.08 112.06 125.408 85.0344 139.152 96.9523C139.152 96.9523 135.76 84.0838 137.904 80.4098C140.048 76.7357 147.304 83.8005 147.304 83.8005C147.304 83.8005 144.656 67.5596 147.304 65.4118C149.952 63.264 155.936 70.21 155.936 70.21C155.936 70.21 152.096 59.599 154.512 55.5868C156.928 51.5745 162.992 58.9227 162.992 58.9227C162.992 58.9227 159.864 49.1617 162.008 45.4876C164.152 41.8135 171.12 50.688 171.12 50.688C171.12 50.688 182.52 42.1791 186.064 44.5919C189.608 47.0048 186.064 53.5212 186.064 53.5212C186.064 53.5212 199.552 47.6263 202.616 51.9127C205.68 56.1991 198.44 59.8732 198.44 59.8732C198.44 59.8732 212.376 55.5868 215.32 59.2609C218.264 62.935 212.288 66.5725 212.288 66.5725C212.288 66.5725 226.304 63.5199 228.176 67.4865C230.048 71.453 222.824 74.2223 222.824 74.2223C222.824 74.2223 236.216 72.6869 238.088 76.0502C239.96 79.4136 231.392 84.2758 231.392 84.2758C231.392 84.2758 243.448 81.214 246.4 84.2758C249.352 87.3375 240.288 92.4465 240.288 92.4465C240.288 92.4465 258.688 88.8638 257.376 95.9013C257.376 95.9013 265.152 85.5005 267.824 86.7617C270.496 88.023 267.824 95.9013 267.824 95.9013C267.824 95.9013 281.224 91.6148 283.096 94.375C284.968 97.1351 277.496 102.601 277.496 102.601C277.496 102.601 304.592 105.964 283.392 114.226C283.392 114.226 307.304 119.819 288.904 127.935C288.904 127.935 311.432 132.112 294.312 139.57C294.312 139.57 306.928 143.655 306.664 149.166C306.4 154.678 298.088 152.822 298.088 152.822C298.088 152.822 308.28 167.199 306.664 170.873C305.048 174.547 295.68 168.423 295.68 168.423C295.68 168.423 304.256 181.895 301.28 188.32C298.304 194.745 291.104 181.438 291.104 181.438C291.104 181.438 298.576 200.558 294.44 203.007C290.304 205.457 285.208 195.358 285.208 195.358C285.208 195.358 288.408 209.442 286.008 211.58C283.608 213.719 277.472 205.183 277.472 205.183C277.472 205.183 276.904 221.634 272.352 220.72C267.8 219.806 268.44 209.295 268.44 209.295C268.44 209.295 262.976 225.683 257.616 225.29C252.256 224.897 255.432 214.971 255.432 214.971C255.432 214.971 240.8 236.632 241.6 218.188C241.6 218.188 224.752 238.35 229.808 216.141C229.808 216.141 214.848 238.195 217.888 214.075C217.888 214.075 205.712 234.53 209.088 212.549C209.072 212.549 198.4 240.461 200.584 211.123Z" fill="#B0BEC5"/>
<path d="M142.696 123.082C141.847 121.18 140.599 119.546 139.063 118.328C137.528 117.11 135.753 116.344 133.896 116.1C127.608 115.387 126.992 113.093 126.992 113.093C126.992 113.093 130.048 129.836 142.696 123.082Z" fill="#B0BEC5"/>
<path opacity="0.2" d="M142.696 123.082C141.847 121.18 140.599 119.546 139.063 118.328C137.528 117.11 135.753 116.344 133.896 116.1C127.608 115.387 126.992 113.093 126.992 113.093C126.992 113.093 130.048 129.836 142.696 123.082Z" fill="black"/>
<path opacity="0.2" d="M142.696 123.082C140.75 121.314 138.522 119.992 136.136 119.189C132.136 117.79 130.144 118.385 127.336 113.605C127.205 113.46 127.101 113.286 127.032 113.093C127.032 113.093 130.048 129.836 142.696 123.082Z" fill="black"/>
<path d="M144.944 123.484C145.173 120.533 146.079 117.702 147.57 115.278C149.062 112.853 151.086 110.921 153.44 109.675C161.744 105.022 161.968 102.509 161.968 102.509C161.968 102.509 162.4 124.545 144.944 123.484Z" fill="#B0BEC5"/>
<path opacity="0.2" d="M144.944 123.484C145.173 120.533 146.079 117.702 147.57 115.278C149.062 112.853 151.086 110.921 153.44 109.675C161.744 105.022 161.968 102.509 161.968 102.509C161.968 102.509 162.4 124.545 144.944 123.484Z" fill="black"/>
<path opacity="0.2" d="M153 115.542C157.237 112.618 160.407 108.046 161.928 102.664C161.736 103.277 160.56 105.69 153.44 109.674C151.086 110.92 149.062 112.853 147.57 115.277C146.079 117.702 145.173 120.533 144.944 123.484C147.152 120.264 149.889 117.567 153 115.542Z" fill="black"/>
<path opacity="0.2" d="M298.064 152.932C298.064 152.932 306.368 154.76 306.64 149.276C306.912 143.792 294.288 139.68 294.288 139.68C311.408 132.222 288.88 128.045 288.88 128.045C307.28 119.975 283.368 114.336 283.368 114.336C296.968 109.044 290.696 105.754 284.456 104.081C283.488 107.152 278.336 104.657 278.336 104.657C281.24 108.313 276.328 119.911 276.328 119.911C276.328 119.911 285.024 113.01 286.64 118.375C288.256 123.74 278.56 132.999 278.56 132.999C297.96 123.576 284.712 143.719 284.712 143.719C301.104 139.214 288.072 157.493 288.072 157.493C307.312 151.259 288.072 170.288 288.072 170.288C306.408 173.213 281.216 179.683 281.216 179.683C298.768 183.924 272.664 191.4 272.664 191.4C291.2 199.05 264.8 202.112 264.8 202.112C272.8 216.58 252.384 201.326 252.384 201.326C255.776 215.73 229.184 197.67 229.184 197.67C234.312 212.22 216.656 195.705 216.656 195.705C216.656 195.705 220.72 202.002 217.544 203.501C214.368 205 204.816 193.85 204.816 193.85C204.816 193.85 209.04 204.671 206.104 205.201C203.168 205.731 195.376 192.406 195.376 192.406C200.744 221.515 187.768 195.038 187.768 195.038C193.368 216.571 179.88 197.78 179.88 197.78C185.424 221.543 169.2 201.436 169.2 201.436C176.4 222.977 158.624 205.091 158.624 205.091C161.44 223.444 145.56 203.711 145.56 203.711C145.56 203.711 149.56 213.216 144.76 214.331C139.96 215.446 133.024 199.809 133.024 199.809C133.024 199.809 134.832 210.429 130.76 211.964C126.688 213.5 124.296 197.094 124.296 197.094C124.296 197.094 119.648 206.453 117.192 204.644C114.736 202.834 116.096 188.275 116.096 188.275C116.096 188.275 112.584 199.078 108.512 197.195C104.44 195.312 109.104 175.141 109.104 175.141C109.104 175.141 104.824 189.454 101.392 183.422C97.9601 177.389 104.896 167.711 104.896 167.711C104.896 167.711 95.2401 172.463 93.0161 164.868C91.3201 168.222 98.8321 176.256 98.8321 176.256C80.6881 174.227 96.9041 190.285 96.9041 190.285C75.5041 186.968 98.4561 202.816 98.4561 202.816C79.1441 208.363 106.96 211.041 106.96 211.041C88.6481 217.814 117.6 221.341 117.6 221.341C98.6401 231.605 127.328 230.746 127.328 230.746C120.512 246.137 140.56 228.169 140.56 228.169C138.68 242.792 164.976 221.223 164.976 221.223C161.256 236.257 178.184 217.457 178.184 217.457C178.184 217.457 174.592 224.239 178.184 225.244C181.776 226.249 190.664 213.911 190.664 213.911C190.664 213.911 187.464 225.153 190.664 225.244C193.864 225.335 200.584 211.123 200.584 211.123C198.384 240.507 209.072 212.595 209.072 212.595C205.688 234.576 217.872 214.121 217.872 214.121C214.832 238.241 229.792 216.187 229.792 216.187C224.736 238.396 241.584 218.234 241.584 218.234C240.784 236.678 255.44 214.971 255.44 214.971C255.44 214.971 252.24 224.897 257.624 225.29C263.008 225.683 268.44 209.296 268.44 209.296C268.44 209.296 267.792 219.998 272.352 220.921C276.912 221.844 277.472 205.384 277.472 205.384C277.472 205.384 283.6 213.893 286.008 211.782C288.416 209.67 285.208 195.559 285.208 195.559C285.208 195.559 290.296 205.658 294.44 203.209C298.584 200.759 291.104 181.639 291.104 181.639C291.104 181.639 298.304 194.946 301.28 188.521C304.256 182.096 295.68 168.625 295.68 168.625C295.68 168.625 305.056 174.748 306.664 171.074C308.272 167.4 298.064 152.932 298.064 152.932Z" fill="black"/>
<path opacity="0.1" d="M184.616 148.061C184.648 147.863 184.626 147.658 184.552 147.476C182.568 147.229 178.952 145.264 178.952 145.264C178.952 145.264 179.128 159.567 174.64 148.984C174.64 148.984 173.752 161.779 169.496 152.64C169.496 152.64 169.088 164.612 165.152 156.113C165.152 156.113 164.232 162.913 162.016 163.077C159.8 163.242 160.072 158.818 160.072 158.818C160.072 158.818 154.896 164.932 153.344 164.302C151.792 163.671 153.704 158.434 153.704 158.434C153.704 158.434 148.808 163.662 146.08 162.483C143.352 161.304 148.256 156.798 148.256 156.798C148.256 156.798 141.056 161.761 139.832 159.741C138.608 157.721 142.4 154.458 142.4 154.458C142.4 154.458 138.088 155.418 137.096 154.285C136.104 153.151 138.04 150.976 138.04 150.976C138.04 150.976 134.04 150.976 134.696 148.618C135.352 146.26 139.208 147.33 139.208 147.33C139.208 147.33 129.848 144.761 129.032 142.056C125.032 143.528 132.8 148.764 132.8 148.764C132.8 148.764 128.664 147.668 128.8 150.483C128.936 153.298 135.784 155.226 135.784 155.226C135.784 155.226 131.48 155.482 131.368 157.913C131.256 160.344 137.864 159.741 137.864 159.741C137.864 159.741 134.808 163.397 135.792 164.548C136.776 165.7 142.192 163.223 142.192 163.223C142.192 163.223 138.448 166.44 139.656 168.46C140.864 170.48 148.08 165.517 148.08 165.517C148.08 165.517 143.176 170.023 145.904 171.202C148.632 172.381 153.528 167.153 153.528 167.153C153.528 167.153 151.608 172.381 153.168 173.021C154.728 173.661 159.896 167.537 159.896 167.537C159.896 167.537 159.624 171.97 161.84 171.796C164.056 171.623 164.976 164.832 164.976 164.832C168.912 173.332 169.32 161.359 169.32 161.359C173.576 170.498 174.464 157.703 174.464 157.703C178.952 168.287 178.776 153.983 178.776 153.983C178.776 153.983 181.392 157.566 182.384 156.433C183.376 155.299 180.92 148.563 180.92 148.563C180.92 148.563 184.28 149.505 184.616 148.061Z" fill="black"/>
<path opacity="0.1" d="M201.696 144.176C201.555 143.983 201.473 143.742 201.464 143.491C203.512 141.827 206.408 137.139 206.408 137.139C206.408 137.139 213.896 153.014 213.16 138.217C213.16 138.217 220.992 151.662 220.776 138.619C220.776 138.619 227.648 151.515 227.416 139.396C227.416 139.396 232.088 146.242 234.616 144.88C237.144 143.518 234.472 138.821 234.472 138.821C234.472 138.821 243.448 141.928 244.824 140.137C246.2 138.345 241.272 133.94 241.272 133.94C241.272 133.94 249.464 136.261 251.84 133.026C254.216 129.791 246.392 128.283 246.392 128.283C246.392 128.283 257 128.694 257.248 125.623C257.496 122.552 251.648 121.638 251.648 121.638C251.648 121.638 256.92 119.673 257.4 117.726C257.88 115.78 254.592 114.747 254.592 114.747C254.592 114.747 258.984 112.005 256.992 109.812C255 107.618 251.328 111.548 251.328 111.548C251.328 111.548 260.264 102.162 259.712 98.6157C264.872 97.4458 259.16 108.669 259.16 108.669C259.16 108.669 263.16 104.566 264.48 107.755C265.8 110.945 259.328 117.9 259.328 117.9C259.328 117.9 264.216 115.158 265.64 117.763C267.064 120.368 259.448 124.298 259.448 124.298C259.448 124.298 264.792 126.199 264.304 128.136C263.816 130.074 256.512 131.18 256.512 131.18C256.512 131.18 262.368 132.094 262.112 135.174C261.856 138.254 251.256 137.833 251.256 137.833C251.256 137.833 259.08 139.36 256.704 142.568C254.328 145.776 246.136 143.482 246.136 143.482C246.136 143.482 251.056 147.887 249.688 149.678C248.32 151.47 239.336 148.362 239.336 148.362C239.336 148.362 242.008 153.051 239.48 154.413C236.952 155.774 232.28 148.929 232.28 148.929C232.512 161.048 225.64 148.152 225.64 148.152C225.856 161.185 218.024 147.75 218.024 147.75C218.76 162.547 211.272 146.671 211.272 146.671C211.272 146.671 210.312 152.448 208.616 151.899C206.92 151.351 206 142.211 206 142.211C206 142.211 202.856 145.547 201.696 144.176Z" fill="black"/>
<path d="M274.208 166.477C273.072 163.095 277.544 154.129 279.16 151.076C279.31 150.791 279.359 150.451 279.298 150.125C279.237 149.8 279.071 149.513 278.832 149.322C278.699 149.214 278.548 149.139 278.389 149.102C278.229 149.066 278.064 149.068 277.905 149.11C277.747 149.151 277.597 149.231 277.468 149.343C277.338 149.455 277.23 149.597 277.152 149.76L272.072 162.227C271.289 164.164 269.959 165.744 268.296 166.714L235.008 186.264C234.634 186.485 234.218 186.597 233.797 186.588C233.376 186.579 232.964 186.451 232.597 186.214C232.231 185.977 231.922 185.639 231.699 185.231C231.476 184.823 231.346 184.358 231.32 183.878L229.424 148.974C229.403 148.574 229.249 148.197 228.994 147.921C228.738 147.646 228.399 147.493 228.048 147.494C227.86 147.492 227.674 147.535 227.502 147.618C227.329 147.702 227.173 147.825 227.043 147.98C226.914 148.135 226.813 148.318 226.748 148.519C226.683 148.72 226.654 148.934 226.664 149.148C227.016 156.231 229.864 181.136 227.408 190.806C224.904 200.604 207.144 228.516 207.144 228.516C207.144 228.516 187.216 210.045 182.848 201.554C180.128 196.262 177.92 182.9 179.288 177.206C181.224 169.145 195.76 150.967 195.76 150.967C195.935 150.712 196.017 150.39 195.988 150.068C195.96 149.746 195.824 149.449 195.608 149.239C195.388 149.028 195.104 148.925 194.817 148.953C194.531 148.98 194.266 149.136 194.08 149.386L180.568 167.427C180.243 167.862 179.815 168.179 179.336 168.341C178.857 168.504 178.346 168.503 177.867 168.341C177.388 168.178 176.96 167.86 176.636 167.426C176.311 166.991 176.104 166.458 176.04 165.892L173.136 140.749C172.976 139.421 173.231 138.072 173.856 136.938L188.312 110.552C188.851 109.536 189.709 108.793 190.712 108.477L206.656 103.441C206.798 103.394 206.923 103.296 207.013 103.161C207.102 103.026 207.151 102.861 207.152 102.692C207.152 102.574 207.129 102.458 207.084 102.351C207.04 102.245 206.974 102.152 206.893 102.079C206.813 102.006 206.718 101.955 206.617 101.929C206.517 101.904 206.412 101.906 206.312 101.933L191.568 106.019C190.883 106.214 190.161 106.14 189.518 105.808C188.875 105.476 188.348 104.906 188.024 104.191L178.52 82.8317C178.477 82.7345 178.416 82.6487 178.342 82.5799C178.268 82.5112 178.183 82.4609 178.091 82.4325C177.999 82.404 177.902 82.398 177.808 82.4148C177.714 82.4316 177.624 82.4709 177.544 82.53L177.368 82.658C177.23 82.7596 177.13 82.9144 177.084 83.0941C177.038 83.2737 177.051 83.4661 177.12 83.6359L185.856 105.69C186.142 106.395 186.266 107.173 186.215 107.949C186.165 108.724 185.942 109.472 185.568 110.122L171.448 135.11C171.096 135.734 170.552 136.183 169.924 136.37C169.295 136.556 168.628 136.465 168.056 136.115L143.952 121.355C143.766 121.24 143.553 121.197 143.344 121.232C143.135 121.266 142.942 121.377 142.792 121.547C142.686 121.668 142.605 121.816 142.557 121.979C142.509 122.141 142.494 122.314 142.513 122.485C142.532 122.655 142.585 122.818 142.668 122.961C142.751 123.104 142.862 123.224 142.992 123.311L167.64 139.625C168.322 140.077 168.903 140.707 169.333 141.462C169.764 142.218 170.033 143.079 170.12 143.975L175.72 194.818C175.751 195.117 175.713 195.42 175.61 195.696C175.506 195.973 175.34 196.213 175.129 196.393C174.918 196.573 174.669 196.686 174.408 196.721C174.146 196.756 173.881 196.711 173.64 196.591L143.328 181.42C142.381 180.952 141.536 180.249 140.856 179.363L129.544 164.667C129.365 164.434 129.115 164.287 128.845 164.255C128.576 164.223 128.305 164.308 128.088 164.493C127.858 164.684 127.703 164.971 127.658 165.291C127.613 165.612 127.681 165.939 127.848 166.202L136.36 179.756L109.336 183.275C109.08 183.309 108.845 183.448 108.674 183.667C108.503 183.886 108.408 184.17 108.408 184.463C108.406 184.629 108.435 184.793 108.492 184.945C108.549 185.097 108.634 185.234 108.74 185.347C108.846 185.46 108.972 185.546 109.109 185.6C109.246 185.654 109.391 185.675 109.536 185.66C114.448 185.231 134.064 183.631 141.064 185.13C151.04 187.278 169.472 198.447 177.624 205.365C185.088 211.708 202.776 236.668 202.776 236.668L203.424 254.591C203.424 254.591 201.024 250.752 200.008 249.646C197.608 246.904 191.712 242.737 189.152 240.15C186.256 237.226 178.808 227.035 178.808 227.035C178.729 226.945 178.634 226.874 178.53 226.828C178.426 226.782 178.315 226.761 178.203 226.767C178.092 226.773 177.983 226.806 177.883 226.863C177.783 226.92 177.695 227.001 177.624 227.099C177.539 227.247 177.495 227.42 177.495 227.597C177.495 227.774 177.539 227.947 177.624 228.095L183.664 238.542L162.944 233.972C162.789 233.945 162.631 233.97 162.489 234.045C162.346 234.12 162.227 234.241 162.144 234.392C162.085 234.513 162.051 234.648 162.044 234.786C162.038 234.925 162.059 235.063 162.106 235.191C162.153 235.318 162.225 235.432 162.316 235.523C162.407 235.615 162.515 235.681 162.632 235.718C162.632 235.718 179.76 239.191 185.032 241.841C188.776 243.733 195.304 249.802 197.832 253.457C200.024 256.583 203.912 267.898 203.912 267.898C203.912 267.898 210.64 310.04 207.152 320.834C206.008 324.38 197.832 331.573 197.832 331.573H201.952C201.952 331.573 206.584 325.76 208.6 324.59C209.544 324.042 212.048 322.763 212.752 323.676C213.96 325.239 210.448 331.6 210.448 331.6H214.4C214.4 331.6 216.968 324.444 218.736 323C219.528 322.517 220.426 322.311 221.32 322.406C222.576 322.671 224.728 324.846 225.192 326.199C225.656 327.552 224.64 331.6 224.64 331.6H228C228 331.6 228.952 327.808 228.8 326.519C228.462 325.2 227.998 323.928 227.416 322.726L244.856 331.6H248.712C248.712 331.6 232.224 323.293 228.552 318.101C222.352 309.318 219.312 285.921 216.904 274.972C214.768 265.284 211.784 245.131 213.024 235.233C214.376 224.485 224.224 204.634 230.872 196.847C237.272 189.389 259.096 175.726 267.392 170.662C268.385 170.056 269.492 169.731 270.618 169.716C271.744 169.7 272.857 169.993 273.864 170.571L289.064 179.263C289.402 179.403 289.774 179.397 290.108 179.245C290.443 179.094 290.717 178.807 290.88 178.44C290.974 178.223 291.025 177.985 291.031 177.743C291.037 177.501 290.996 177.261 290.913 177.038C290.829 176.816 290.704 176.617 290.546 176.455C290.389 176.293 290.202 176.172 290 176.101C285.904 174.647 275.608 170.644 274.208 166.477Z" fill="#263238"/>
<path opacity="0.2" d="M248.704 331.546C248.704 331.546 232.216 323.238 228.544 318.047C222.344 309.264 219.304 285.867 216.896 274.918C214.76 265.23 211.776 245.077 213.016 235.179C213.736 229.43 216.896 221.067 220.688 213.354C217.488 217.75 213.112 224.019 211.888 226.551C210.664 229.083 208.464 234.183 208.152 236.979C207.696 241.083 209.624 249.272 210.224 253.348C210.952 258.229 212.952 267.889 213.544 272.797C213.768 274.625 214 277.851 214.208 281.151C214.213 281.343 214.156 281.531 214.048 281.679C213.94 281.827 213.788 281.924 213.621 281.952C213.454 281.981 213.284 281.938 213.143 281.832C213.002 281.726 212.9 281.565 212.856 281.379C212.188 277.662 211.309 273.998 210.224 270.412C208.887 267.288 207.372 264.269 205.688 261.373C205.637 261.252 205.546 261.158 205.435 261.114C205.324 261.069 205.202 261.077 205.096 261.135C204.99 261.193 204.908 261.297 204.869 261.424C204.83 261.551 204.837 261.69 204.888 261.811C205.984 265.303 207.432 270.037 207.92 272.313C209.152 278.016 211.312 289.916 212.8 295.546C214.352 301.468 221.824 315.47 219.544 317.362C218.168 318.504 216.344 314.501 215.032 311.019C214.988 310.922 214.916 310.844 214.828 310.8C214.74 310.755 214.642 310.746 214.549 310.774C214.456 310.801 214.374 310.864 214.316 310.952C214.259 311.039 214.229 311.147 214.232 311.256C214.424 313.56 214.36 315.826 213.336 315.945C211.152 316.137 209.336 310.937 208.024 305.115C208.328 311.805 208.184 317.645 207.16 320.798C206.016 324.344 197.84 331.537 197.84 331.537H201.96C201.96 331.537 206.592 325.724 208.608 324.555C209.552 324.006 212.056 322.727 212.76 323.641C213.968 325.203 210.456 331.565 210.456 331.565H214.4C214.4 331.565 216.968 324.408 218.736 322.964C219.528 322.481 220.426 322.275 221.32 322.37C222.576 322.635 224.728 324.81 225.192 326.163C225.656 327.516 224.64 331.565 224.64 331.565H228C228 331.565 228.952 327.772 228.8 326.483C228.462 325.164 227.998 323.892 227.416 322.69L244.856 331.565L248.704 331.546ZM216 295.317C222.848 303.616 223.248 315.004 223.248 315.004L216 295.317Z" fill="black"/>
<path d="M146.16 125.212C145.864 128.153 144.895 130.952 143.35 133.329C141.805 135.705 139.739 137.574 137.36 138.747C128.944 143.134 128.656 145.639 128.656 145.639C128.656 145.639 128.8 123.585 146.16 125.212Z" fill="#B0BEC5"/>
<path opacity="0.2" d="M146.16 125.212C145.864 128.153 144.895 130.952 143.35 133.329C141.805 135.705 139.739 137.574 137.36 138.747C128.944 143.134 128.656 145.639 128.656 145.639C128.656 145.639 128.8 123.585 146.16 125.212Z" fill="black"/>
<path opacity="0.2" d="M137.92 132.871C133.615 135.663 130.334 140.134 128.68 145.465C128.88 144.862 130.12 142.495 137.336 138.729C139.715 137.556 141.781 135.687 143.326 133.311C144.871 130.934 145.841 128.134 146.136 125.193C143.861 128.338 141.07 130.946 137.92 132.871Z" fill="black"/>
<path d="M153.136 128.603C153.136 128.603 155.072 124.554 160.64 126.254C166.208 127.954 171.84 122.735 171.84 122.735C171.84 122.735 164.424 141.544 153.136 128.603Z" fill="#B0BEC5"/>
<path opacity="0.2" d="M153.136 128.603C153.136 128.603 155.072 124.554 160.64 126.254C166.208 127.954 171.84 122.735 171.84 122.735C171.84 122.735 164.424 141.544 153.136 128.603Z" fill="black"/>
<path opacity="0.2" d="M171.856 122.735C171.856 122.735 165.784 131.326 161.12 128.52C156.456 125.714 153.12 128.603 153.12 128.603C164.424 141.544 171.856 122.735 171.856 122.735Z" fill="black"/>
<path d="M144.608 122.735C144.608 122.735 146.928 116.008 141.464 107.28C136 98.5517 137.136 96.4862 137.136 96.4862C137.136 96.4862 127.472 109.592 144.608 122.735Z" fill="#B0BEC5"/>
<path opacity="0.2" d="M144.608 122.735C144.608 122.735 146.928 116.008 141.464 107.28C136 98.5517 137.136 96.4862 137.136 96.4862C137.136 96.4862 127.472 109.592 144.608 122.735Z" fill="black"/>
<path opacity="0.2" d="M144.608 122.735C144.025 118.947 142.901 115.294 141.28 111.923C138.536 105.882 136.168 103.533 137.04 97.1625C137.026 96.9316 137.059 96.7 137.136 96.4862C137.136 96.4862 127.472 109.592 144.608 122.735Z" fill="black"/>
<path d="M147.352 125.212C146.524 127.127 146.124 129.247 146.187 131.382C146.25 133.517 146.774 135.602 147.712 137.45C150.976 143.637 149.736 145.575 149.736 145.575C149.736 145.575 159.648 132.734 147.352 125.212Z" fill="#B0BEC5"/>
<path opacity="0.2" d="M147.352 125.212C146.524 127.127 146.124 129.247 146.187 131.382C146.25 133.517 146.774 135.602 147.712 137.45C150.976 143.637 149.736 145.575 149.736 145.575C149.736 145.575 159.648 132.734 147.352 125.212Z" fill="black"/>
<path opacity="0.2" d="M147.352 125.212C147.272 128.054 147.674 130.888 148.536 133.556C149.944 138.035 151.56 139.515 149.912 144.99C149.887 145.196 149.827 145.395 149.736 145.575C149.736 145.575 159.648 132.734 147.352 125.212Z" fill="black"/>
<path d="M180.192 86.323C181.728 87.5422 183.503 88.3094 185.36 88.5565C187.218 88.8036 189.1 88.523 190.84 87.7397C196.672 84.9978 198.168 86.6521 198.168 86.6521C198.168 86.6521 188.544 73.546 180.192 86.323Z" fill="#B0BEC5"/>
<path opacity="0.2" d="M180.192 86.323C181.728 87.5422 183.503 88.3094 185.36 88.5565C187.218 88.8036 189.1 88.523 190.84 87.7397C196.672 84.9978 198.168 86.6521 198.168 86.6521C198.168 86.6521 188.544 73.546 180.192 86.323Z" fill="black"/>
<path opacity="0.2" d="M180.192 86.3231C182.638 86.8369 185.149 86.8028 187.584 86.2226C191.672 85.3086 193.184 83.6909 197.688 86.3597C197.862 86.4187 198.025 86.5148 198.168 86.643C198.168 86.643 188.544 73.546 180.192 86.3231Z" fill="black"/>
<path d="M175.792 84.7419C175.792 84.7419 172.768 77.1743 165.192 76.3244C157.616 75.4744 156.872 72.6685 156.872 72.6685C156.872 72.6685 160.56 92.867 175.792 84.7419Z" fill="#B0BEC5"/>
<path opacity="0.2" d="M175.792 84.7419C175.792 84.7419 172.768 77.1743 165.192 76.3244C157.616 75.4744 156.872 72.6685 156.872 72.6685C156.872 72.6685 160.56 92.867 175.792 84.7419Z" fill="black"/>
<path opacity="0.2" d="M175.792 84.7419C173.449 82.6048 170.765 81.0092 167.888 80.0442C163.088 78.3625 160.688 79.0754 157.24 73.3175C157.084 73.1422 156.959 72.9343 156.872 72.7051C156.872 72.7051 160.56 92.867 175.792 84.7419Z" fill="black"/>
<path d="M205.448 102.555C205.677 99.6026 206.582 96.7716 208.074 94.347C209.565 91.9224 211.59 89.9901 213.944 88.7448C222.248 84.0928 222.472 81.5794 222.472 81.5794C222.472 81.5794 222.864 103.615 205.448 102.555Z" fill="#B0BEC5"/>
<path opacity="0.2" d="M205.448 102.555C205.677 99.6026 206.582 96.7716 208.074 94.347C209.565 91.9224 211.59 89.9901 213.944 88.7448C222.248 84.0928 222.472 81.5794 222.472 81.5794C222.472 81.5794 222.864 103.615 205.448 102.555Z" fill="black"/>
<path opacity="0.2" d="M213.504 94.6125C217.727 91.6803 220.885 87.109 222.4 81.7349C222.208 82.3472 221.032 84.7509 213.912 88.7449C211.558 89.9902 209.533 91.9225 208.042 94.3471C206.55 96.7717 205.644 99.6027 205.416 102.555C207.636 99.3339 210.383 96.6365 213.504 94.6125Z" fill="black"/>
<path d="M177.984 82.6855C175.472 80.5628 173.495 77.72 172.253 74.4445C171.011 71.169 170.549 67.577 170.912 64.0316C171.944 51.3642 169.824 49.5089 169.824 49.5089C169.824 49.5089 189.888 62.9075 177.984 82.6855Z" fill="#B0BEC5"/>
<path opacity="0.2" d="M177.984 82.6855C175.472 80.5628 173.495 77.72 172.253 74.4445C171.011 71.169 170.549 67.577 170.912 64.0316C171.944 51.3642 169.824 49.5089 169.824 49.5089C169.824 49.5089 189.888 62.9075 177.984 82.6855Z" fill="black"/>
<path opacity="0.2" d="M175.912 68.2359C175.942 61.4241 173.824 54.8278 169.944 49.6552C170.368 50.2676 171.792 53.1648 170.912 64.0317C170.549 67.5771 171.011 71.1691 172.253 74.4446C173.495 77.72 175.472 80.5629 177.984 82.6855C176.48 78.0679 175.777 73.1603 175.912 68.2359Z" fill="black"/>
<path d="M210.928 104.931C210.928 104.931 212.856 100.882 218.432 102.573C224.008 104.264 229.632 99.0634 229.632 99.0634C229.632 99.0634 222.216 117.9 210.928 104.931Z" fill="#B0BEC5"/>
<path opacity="0.2" d="M210.928 104.931C210.928 104.931 212.856 100.882 218.432 102.573C224.008 104.264 229.632 99.0634 229.632 99.0634C229.632 99.0634 222.216 117.9 210.928 104.931Z" fill="black"/>
<path opacity="0.2" d="M229.64 99.0634C229.64 99.0634 223.576 107.645 218.904 104.84C214.232 102.034 210.904 104.931 210.904 104.931C222.216 117.9 229.64 99.0634 229.64 99.0634Z" fill="black"/>
<path d="M205.112 101.805C205.112 101.805 207.432 95.0786 201.968 86.3411C196.504 77.6037 197.64 75.5565 197.64 75.5565C197.64 75.5565 188 88.6534 205.112 101.805Z" fill="#B0BEC5"/>
<path opacity="0.2" d="M205.112 101.805C205.112 101.805 207.432 95.0786 201.968 86.3411C196.504 77.6037 197.64 75.5565 197.64 75.5565C197.64 75.5565 188 88.6534 205.112 101.805Z" fill="black"/>
<path opacity="0.2" d="M205.112 101.805C204.529 98.0172 203.404 94.3645 201.784 90.9932C199.04 84.9519 196.672 82.6031 197.544 76.2328C197.528 76.0018 197.561 75.7699 197.64 75.5565C197.64 75.5565 188 88.6534 205.112 101.805Z" fill="black"/>
<path d="M207.856 104.255C207.028 106.17 206.628 108.29 206.691 110.425C206.754 112.56 207.278 114.645 208.216 116.492C211.48 122.671 210.24 124.608 210.24 124.608C210.24 124.608 220.152 111.795 207.856 104.255Z" fill="#B0BEC5"/>
<path opacity="0.2" d="M207.856 104.255C207.028 106.17 206.628 108.29 206.691 110.425C206.754 112.56 207.278 114.645 208.216 116.492C211.48 122.671 210.24 124.608 210.24 124.608C210.24 124.608 220.152 111.795 207.856 104.255Z" fill="black"/>
<path opacity="0.2" d="M207.856 104.255C207.776 107.094 208.178 109.925 209.04 112.59C210.448 117.077 212.064 118.558 210.416 124.023C210.393 124.23 210.333 124.43 210.24 124.608C210.24 124.608 220.152 111.795 207.856 104.255Z" fill="black"/>
<path d="M230.168 151.433C229.319 149.531 228.071 147.897 226.536 146.679C225 145.461 223.225 144.695 221.368 144.451C215.08 143.738 214.464 141.444 214.464 141.444C214.464 141.444 217.52 158.187 230.168 151.433Z" fill="#B0BEC5"/>
<path opacity="0.2" d="M230.168 151.433C229.319 149.531 228.071 147.897 226.536 146.679C225 145.461 223.225 144.695 221.368 144.451C215.08 143.738 214.464 141.444 214.464 141.444C214.464 141.444 217.52 158.187 230.168 151.433Z" fill="black"/>
<path opacity="0.2" d="M230.168 151.433C228.221 149.665 225.994 148.343 223.608 147.54C219.608 146.141 217.616 146.735 214.768 141.955C214.636 141.811 214.533 141.637 214.464 141.444C214.464 141.444 217.52 158.187 230.168 151.433Z" fill="black"/>
<path d="M232.416 151.835C232.64 148.88 233.544 146.044 235.036 143.616C236.528 141.187 238.555 139.252 240.912 138.007C249.216 133.355 249.44 130.842 249.44 130.842C249.44 130.842 249.832 152.895 232.416 151.835Z" fill="#B0BEC5"/>
<path opacity="0.2" d="M232.416 151.835C232.64 148.88 233.544 146.044 235.036 143.616C236.528 141.187 238.555 139.252 240.912 138.007C249.216 133.355 249.44 130.842 249.44 130.842C249.44 130.842 249.832 152.895 232.416 151.835Z" fill="black"/>
<path opacity="0.2" d="M240.472 143.893C244.709 140.969 247.879 136.397 249.4 131.015C249.208 131.628 248.032 134.041 240.912 138.025C238.557 139.269 236.531 141.201 235.04 143.626C233.548 146.051 232.643 148.883 232.416 151.835C234.624 148.615 237.361 145.918 240.472 143.893Z" fill="black"/>
<path d="M233.6 153.544C233.304 156.485 232.335 159.285 230.79 161.661C229.245 164.038 227.179 165.907 224.8 167.08C216.392 171.467 216.104 173.971 216.104 173.971C216.104 173.971 216.248 151.936 233.6 153.544Z" fill="#B0BEC5"/>
<path opacity="0.2" d="M233.6 153.544C233.304 156.485 232.335 159.285 230.79 161.661C229.245 164.038 227.179 165.907 224.8 167.08C216.392 171.467 216.104 173.971 216.104 173.971C216.104 173.971 216.248 151.936 233.6 153.544Z" fill="black"/>
<path opacity="0.2" d="M225.392 161.231C221.085 164.019 217.802 168.487 216.144 173.816C216.352 173.213 217.592 170.846 224.8 167.08C227.179 165.907 229.245 164.038 230.79 161.662C232.335 159.285 233.304 156.485 233.6 153.544C231.326 156.69 228.538 159.301 225.392 161.231Z" fill="black"/>
<path d="M229.048 177.17C228.752 180.109 227.782 182.908 226.237 185.283C224.692 187.657 222.626 189.525 220.248 190.696C211.84 195.083 211.552 197.588 211.552 197.588C211.552 197.588 211.664 175.552 229.048 177.17Z" fill="#B0BEC5"/>
<path opacity="0.2" d="M229.048 177.17C228.752 180.109 227.782 182.908 226.237 185.283C224.692 187.657 222.626 189.525 220.248 190.696C211.84 195.083 211.552 197.588 211.552 197.588C211.552 197.588 211.664 175.552 229.048 177.17Z" fill="black"/>
<path opacity="0.2" d="M220.8 184.847C216.499 187.633 213.219 192.093 211.56 197.414C211.768 196.811 213.008 194.444 220.216 190.678C222.594 189.507 224.66 187.639 226.205 185.264C227.75 182.89 228.72 180.091 229.016 177.152C226.739 180.301 223.949 182.914 220.8 184.847Z" fill="black"/>
<path d="M177.6 171.824C175.733 173.904 173.417 175.382 170.887 176.106C168.357 176.83 165.705 176.775 163.2 175.945C154.256 173.268 152.648 175.032 152.648 175.032C152.648 175.032 164.992 158.041 177.6 171.824Z" fill="#B0BEC5"/>
<path opacity="0.2" d="M177.6 171.824C175.733 173.904 173.417 175.382 170.887 176.106C168.357 176.83 165.705 176.775 163.2 175.945C154.256 173.268 152.648 175.032 152.648 175.032C152.648 175.032 164.992 158.041 177.6 171.824Z" fill="black"/>
<path opacity="0.2" d="M166.92 171.823C162.042 170.878 157.03 171.971 152.8 174.903C153.296 174.592 155.568 173.651 163.2 175.945C165.705 176.774 168.357 176.83 170.887 176.106C173.417 175.382 175.733 173.904 177.6 171.823C174.074 172.615 170.446 172.615 166.92 171.823Z" fill="black"/>
<path d="M237.896 154.212C237.896 154.212 239.824 150.163 245.4 151.854C250.976 153.544 256.6 148.344 256.6 148.344C256.6 148.344 249.176 167.144 237.896 154.212Z" fill="#B0BEC5"/>
<path opacity="0.2" d="M237.896 154.212C237.896 154.212 239.824 150.163 245.4 151.854C250.976 153.544 256.6 148.344 256.6 148.344C256.6 148.344 249.176 167.144 237.896 154.212Z" fill="black"/>
<path opacity="0.2" d="M256.608 148.344C256.608 148.344 250.544 156.935 245.872 154.129C241.2 151.324 237.872 154.212 237.872 154.212C249.176 167.144 256.608 148.344 256.608 148.344Z" fill="black"/>
<path d="M232.08 151.095C232.08 151.095 234.4 144.359 228.936 135.631C223.472 126.903 224.608 124.837 224.608 124.837C224.608 124.837 214.944 137.943 232.08 151.095Z" fill="#B0BEC5"/>
<path opacity="0.2" d="M232.08 151.095C232.08 151.095 234.4 144.359 228.936 135.631C223.472 126.903 224.608 124.837 224.608 124.837C224.608 124.837 214.944 137.943 232.08 151.095Z" fill="black"/>
<path opacity="0.2" d="M232.08 151.095C231.497 147.304 230.373 143.648 228.752 140.274C226.008 134.233 223.64 131.884 224.512 125.513C224.497 125.283 224.53 125.051 224.608 124.837C224.608 124.837 214.944 137.943 232.08 151.095Z" fill="black"/>
<path d="M234.824 153.544C233.997 155.46 233.596 157.58 233.659 159.715C233.722 161.85 234.246 163.934 235.184 165.782C238.448 171.961 237.208 173.898 237.208 173.898C237.208 173.898 247.12 161.085 234.824 153.544Z" fill="#B0BEC5"/>
<path opacity="0.2" d="M234.824 153.544C233.997 155.46 233.596 157.58 233.659 159.715C233.722 161.85 234.246 163.934 235.184 165.782C238.448 171.961 237.208 173.898 237.208 173.898C237.208 173.898 247.12 161.085 234.824 153.544Z" fill="black"/>
<path opacity="0.2" d="M234.824 153.544C234.744 156.384 235.146 159.215 236.008 161.88C237.416 166.358 239.032 167.839 237.384 173.313C237.359 173.52 237.3 173.718 237.208 173.898C237.208 173.898 247.12 161.085 234.824 153.544Z" fill="black"/>
<path d="M200.936 148.755C201.784 146.851 203.032 145.216 204.567 143.996C206.102 142.776 207.878 142.009 209.736 141.764C216.016 141.051 216.64 138.757 216.64 138.757C216.64 138.757 213.6 155.5 200.936 148.755Z" fill="#B0BEC5"/>
<path opacity="0.2" d="M200.936 148.755C201.784 146.851 203.032 145.216 204.567 143.996C206.102 142.776 207.878 142.009 209.736 141.764C216.016 141.051 216.64 138.757 216.64 138.757C216.64 138.757 213.6 155.5 200.936 148.755Z" fill="black"/>
<path opacity="0.2" d="M200.936 148.755C202.877 146.981 205.103 145.655 207.488 144.853C211.488 143.454 213.48 144.049 216.336 139.269C216.464 139.121 216.567 138.947 216.64 138.757C216.64 138.757 213.6 155.5 200.936 148.755Z" fill="black"/>
<path d="M198.68 149.148C198.453 146.196 197.548 143.364 196.056 140.939C194.565 138.514 192.539 136.582 190.184 135.339C181.88 130.686 181.656 128.173 181.656 128.173C181.656 128.173 181.264 150.209 198.68 149.148Z" fill="#B0BEC5"/>
<path opacity="0.2" d="M198.68 149.148C198.453 146.196 197.548 143.364 196.056 140.939C194.565 138.514 192.539 136.582 190.184 135.339C181.88 130.686 181.656 128.173 181.656 128.173C181.656 128.173 181.264 150.209 198.68 149.148Z" fill="black"/>
<path opacity="0.2" d="M190.624 141.215C186.388 138.287 183.218 133.711 181.696 128.328C181.888 128.941 183.064 131.354 190.184 135.338C192.539 136.582 194.564 138.514 196.056 140.939C197.548 143.364 198.453 146.196 198.68 149.148C196.472 145.93 193.736 143.235 190.624 141.215Z" fill="black"/>
<path d="M197.464 150.857C197.76 153.798 198.729 156.598 200.274 158.974C201.819 161.351 203.885 163.22 206.264 164.393C214.672 168.78 214.96 171.284 214.96 171.284C214.96 171.284 214.848 149.249 197.464 150.857Z" fill="#B0BEC5"/>
<path opacity="0.2" d="M197.464 150.857C197.76 153.798 198.729 156.598 200.274 158.974C201.819 161.351 203.885 163.22 206.264 164.393C214.672 168.78 214.96 171.284 214.96 171.284C214.96 171.284 214.848 149.249 197.464 150.857Z" fill="black"/>
<path opacity="0.2" d="M205.712 158.544C210.018 161.331 213.299 165.8 214.952 171.129C214.744 170.526 213.504 168.159 206.296 164.393C203.917 163.22 201.851 161.351 200.306 158.975C198.761 156.598 197.792 153.798 197.496 150.857C199.772 154.004 202.563 156.615 205.712 158.544Z" fill="black"/>
<path d="M193.208 151.524C193.208 151.524 191.272 147.476 185.696 149.166C180.12 150.857 174.496 145.657 174.496 145.657C174.496 145.657 181.92 164.457 193.208 151.524Z" fill="#B0BEC5"/>
<path opacity="0.2" d="M193.208 151.524C193.208 151.524 191.272 147.476 185.696 149.166C180.12 150.857 174.496 145.657 174.496 145.657C174.496 145.657 181.92 164.457 193.208 151.524Z" fill="black"/>
<path opacity="0.2" d="M174.488 145.657C174.488 145.657 180.56 154.248 185.224 151.442C189.888 148.636 193.224 151.524 193.224 151.524C181.92 164.457 174.488 145.657 174.488 145.657Z" fill="black"/>
<path d="M199.024 148.408C199.024 148.408 196.696 141.672 202.16 132.944C207.624 124.216 206.488 122.15 206.488 122.15C206.488 122.15 216.152 135.265 199.024 148.408Z" fill="#B0BEC5"/>
<path opacity="0.2" d="M199.024 148.408C199.024 148.408 196.696 141.672 202.16 132.944C207.624 124.216 206.488 122.15 206.488 122.15C206.488 122.15 216.152 135.265 199.024 148.408Z" fill="black"/>
<path opacity="0.2" d="M199.024 148.408C199.606 144.618 200.727 140.962 202.344 137.587C205.096 131.545 207.456 129.197 206.584 122.826C206.604 122.595 206.571 122.362 206.488 122.15C206.488 122.15 216.152 135.265 199.024 148.408Z" fill="black"/>
<path d="M196.28 150.857C197.105 152.774 197.504 154.893 197.441 157.028C197.379 159.163 196.856 161.247 195.92 163.095C192.656 169.274 193.888 171.211 193.888 171.211C193.888 171.211 184 158.398 196.28 150.857Z" fill="#B0BEC5"/>
<path opacity="0.2" d="M196.28 150.857C197.105 152.774 197.504 154.893 197.441 157.028C197.379 159.163 196.856 161.247 195.92 163.095C192.656 169.274 193.888 171.211 193.888 171.211C193.888 171.211 184 158.398 196.28 150.857Z" fill="black"/>
<path opacity="0.2" d="M196.28 150.857C196.359 153.698 195.954 156.529 195.088 159.193C193.688 163.671 192.064 165.152 193.712 170.626C193.741 170.831 193.8 171.029 193.888 171.211C193.888 171.211 184 158.398 196.28 150.857Z" fill="black"/>
<path d="M179.856 175.004C180.632 173.059 181.816 171.363 183.304 170.067C184.792 168.77 186.537 167.914 188.384 167.574C194.632 166.55 195.168 164.228 195.168 164.228C195.168 164.228 192.752 181.109 179.856 175.004Z" fill="#B0BEC5"/>
<path opacity="0.2" d="M179.856 175.004C180.632 173.059 181.816 171.363 183.304 170.067C184.792 168.77 186.537 167.914 188.384 167.574C194.632 166.55 195.168 164.228 195.168 164.228C195.168 164.228 192.752 181.109 179.856 175.004Z" fill="black"/>
<path opacity="0.2" d="M179.856 175.004C181.73 173.135 183.904 171.698 186.256 170.772C190.176 169.182 192.208 169.676 194.872 164.759C194.995 164.603 195.092 164.423 195.16 164.228C195.16 164.228 192.752 181.109 179.856 175.004Z" fill="black"/>
<path d="M179.2 86.451C179.2 86.451 172 85.4 167.344 92.3003C162.688 99.2007 160.264 98.4695 160.264 98.4695C160.264 98.4695 177.224 105.525 179.2 86.451Z" fill="#B0BEC5"/>
<path opacity="0.2" d="M179.2 86.451C179.2 86.451 172 85.4 167.344 92.3003C162.688 99.2007 160.264 98.4695 160.264 98.4695C160.264 98.4695 177.224 105.525 179.2 86.451Z" fill="black"/>
<path opacity="0.2" d="M179.2 86.4508C176.375 87.5974 173.772 89.3605 171.536 91.6421C167.76 95.4075 167.016 98.1403 160.92 98.4327C160.703 98.4845 160.48 98.4845 160.264 98.4327C160.264 98.4327 177.224 105.525 179.2 86.4508Z" fill="black"/>
<path d="M121.264 173.907C121.731 175.973 121.744 178.137 121.303 180.21C120.862 182.283 119.98 184.199 118.736 185.789C114.448 191.081 115.312 193.265 115.312 193.265C115.312 193.265 107.88 178.441 121.264 173.907Z" fill="#B0BEC5"/>
<path opacity="0.2" d="M121.264 173.907C121.731 175.973 121.744 178.137 121.303 180.21C120.862 182.283 119.98 184.199 118.736 185.789C114.448 191.081 115.312 193.265 115.312 193.265C115.312 193.265 107.88 178.441 121.264 173.907Z" fill="black"/>
<path opacity="0.2" d="M121.264 173.907C120.837 176.706 119.94 179.385 118.624 181.795C116.456 185.853 114.624 186.931 115.248 192.671C115.236 192.878 115.257 193.085 115.312 193.283C115.312 193.283 107.88 178.441 121.264 173.907Z" fill="black"/>
<path d="M121.488 168.643C121.488 168.643 116.32 162.784 118.232 154.367C120.144 145.949 118.136 144.195 118.136 144.195C118.136 144.195 133.424 155.116 121.488 168.643Z" fill="#B0BEC5"/>
<path opacity="0.2" d="M121.488 168.643C121.488 168.643 116.32 162.784 118.232 154.367C120.144 145.949 118.136 144.195 118.136 144.195C118.136 144.195 133.424 155.116 121.488 168.643Z" fill="black"/>
<path opacity="0.2" d="M121.488 168.643C120.541 165.392 120.156 161.962 120.352 158.544C120.632 152.822 122.056 150.474 118.512 144.834C118.421 144.605 118.293 144.398 118.136 144.222C118.136 144.222 133.424 155.116 121.488 168.643Z" fill="black"/>
<path d="M119.04 170.279C118.159 166.859 116.504 163.765 114.243 161.308C111.982 158.852 109.194 157.12 106.16 156.286C95.3919 153.014 94.6079 150.108 94.6079 150.108C94.6079 150.108 98.6799 176.211 119.04 170.279Z" fill="#B0BEC5"/>
<path opacity="0.2" d="M119.04 170.279C118.159 166.859 116.504 163.765 114.243 161.308C111.982 158.852 109.194 157.12 106.16 156.286C95.3919 153.014 94.6079 150.108 94.6079 150.108C94.6079 150.108 98.6799 176.211 119.04 170.279Z" fill="black"/>
<path opacity="0.2" d="M107.888 163.068C102.286 160.752 97.5999 156.21 94.688 150.272C95.04 150.94 96.928 153.471 106.16 156.277C109.198 157.114 111.988 158.851 114.25 161.315C116.511 163.778 118.164 166.88 119.04 170.306C115.769 167.089 111.981 164.631 107.888 163.068Z" fill="black"/>
<path d="M121.704 172.902C121.704 172.902 123.304 164.795 130.608 162.209C137.912 159.622 138.12 156.725 138.12 156.725C138.12 156.725 138.056 177.353 121.704 172.902Z" fill="#B0BEC5"/>
<path opacity="0.2" d="M121.704 172.902C121.704 172.902 123.304 164.795 130.608 162.209C137.912 159.622 138.12 156.725 138.12 156.725C138.12 156.725 138.056 177.353 121.704 172.902Z" fill="black"/>
<path opacity="0.2" d="M121.704 172.902C123.627 170.282 125.974 168.11 128.616 166.504C133.016 163.762 135.52 163.899 137.872 157.474C137.989 157.264 138.072 157.032 138.12 156.789C138.12 156.789 138.056 177.353 121.704 172.902Z" fill="black"/>
<path d="M282.6 149.962C283.449 148.058 284.697 146.424 286.232 145.204C287.767 143.985 289.543 143.217 291.4 142.97C297.688 142.266 298.312 139.972 298.312 139.972C298.312 139.972 295.248 156.707 282.6 149.962Z" fill="#B0BEC5"/>
<path opacity="0.2" d="M282.6 149.962C283.449 148.058 284.697 146.424 286.232 145.204C287.767 143.985 289.543 143.217 291.4 142.97C297.688 142.266 298.312 139.972 298.312 139.972C298.312 139.972 295.248 156.707 282.6 149.962Z" fill="black"/>
<path opacity="0.2" d="M282.6 149.962C284.547 148.192 286.775 146.867 289.16 146.059C293.16 144.67 295.152 145.264 298.008 140.484C298.136 140.336 298.239 140.163 298.312 139.972C298.312 139.972 295.248 156.707 282.6 149.962Z" fill="black"/>
<path d="M280.352 150.364C280.125 147.411 279.22 144.579 277.728 142.155C276.236 139.73 274.211 137.798 271.856 136.554C263.552 131.902 263.328 129.389 263.328 129.389C263.328 129.389 262.936 151.424 280.352 150.364Z" fill="#B0BEC5"/>
<path opacity="0.2" d="M280.352 150.364C280.125 147.411 279.22 144.579 277.728 142.155C276.236 139.73 274.211 137.798 271.856 136.554C263.552 131.902 263.328 129.389 263.328 129.389C263.328 129.389 262.936 151.424 280.352 150.364Z" fill="black"/>
<path opacity="0.2" d="M272.296 142.421C268.06 139.496 264.891 134.924 263.368 129.544C263.56 130.156 264.736 132.569 271.856 136.554C274.211 137.798 276.236 139.73 277.728 142.154C279.22 144.579 280.125 147.411 280.352 150.364C278.143 147.144 275.407 144.446 272.296 142.421Z" fill="black"/>
<path d="M279.136 152.073C279.433 155.013 280.402 157.813 281.947 160.189C283.492 162.565 285.558 164.435 287.936 165.608C296.344 169.995 296.632 172.5 296.632 172.5C296.632 172.5 296.52 150.464 279.136 152.073Z" fill="#B0BEC5"/>
<path opacity="0.2" d="M279.136 152.073C279.433 155.013 280.402 157.813 281.947 160.189C283.492 162.565 285.558 164.435 287.936 165.608C296.344 169.995 296.632 172.5 296.632 172.5C296.632 172.5 296.52 150.464 279.136 152.073Z" fill="black"/>
<path opacity="0.2" d="M287.384 159.75C291.687 162.546 294.966 167.016 296.624 172.344C296.416 171.741 295.176 169.365 287.968 165.609C285.589 164.435 283.524 162.565 281.979 160.189C280.434 157.813 279.464 155.013 279.168 152.073C281.443 155.218 284.234 157.826 287.384 159.75Z" fill="black"/>
<path d="M288.36 176.722C289.615 178.726 291.338 180.287 293.333 181.226C295.328 182.165 297.513 182.444 299.64 182.032C307.096 180.606 308.264 182.352 308.264 182.352C308.264 182.352 299.616 165.636 288.36 176.722Z" fill="#B0BEC5"/>
<path opacity="0.2" d="M288.36 176.722C289.615 178.726 291.338 180.287 293.333 181.226C295.328 182.165 297.513 182.444 299.64 182.032C307.096 180.606 308.264 182.352 308.264 182.352C308.264 182.352 299.616 165.636 288.36 176.722Z" fill="black"/>
<path opacity="0.2" d="M296.968 177.901C301.057 177.623 305.078 179.188 308.168 182.261C307.792 181.922 306.032 180.807 299.64 182.032C297.513 182.444 295.328 182.165 293.333 181.226C291.338 180.287 289.615 178.726 288.36 176.722C291.122 177.817 294.058 178.219 296.968 177.901Z" fill="black"/>
<path d="M289.712 179.958C289.712 179.958 287.776 175.909 282.208 177.609C276.64 179.309 271.008 174.09 271.008 174.09C271.008 174.09 278.4 192.899 289.712 179.958Z" fill="#B0BEC5"/>
<path opacity="0.2" d="M289.712 179.958C289.712 179.958 287.776 175.909 282.208 177.609C276.64 179.309 271.008 174.09 271.008 174.09C271.008 174.09 278.4 192.899 289.712 179.958Z" fill="black"/>
<path opacity="0.2" d="M270.992 174.09C270.992 174.09 277.064 182.681 281.728 179.876C286.392 177.07 289.728 179.958 289.728 179.958C278.4 192.899 270.992 174.09 270.992 174.09Z" fill="black"/>
<path d="M280.696 149.614C280.696 149.614 278.368 142.888 283.832 134.159C289.296 125.431 288.16 123.384 288.16 123.384C288.16 123.384 297.824 136.472 280.696 149.614Z" fill="#B0BEC5"/>
<path opacity="0.2" d="M280.696 149.614C280.696 149.614 278.368 142.888 283.832 134.159C289.296 125.431 288.16 123.384 288.16 123.384C288.16 123.384 297.824 136.472 280.696 149.614Z" fill="black"/>
<path opacity="0.2" d="M280.696 149.614C281.268 145.827 282.385 142.174 284 138.802C286.744 132.761 289.112 130.412 288.24 124.042C288.254 123.811 288.221 123.579 288.144 123.366C288.144 123.366 297.824 136.472 280.696 149.614Z" fill="black"/>
<path d="M277.944 152.064C278.771 153.98 279.172 156.099 279.109 158.234C279.046 160.37 278.522 162.454 277.584 164.302C274.32 170.489 275.56 172.427 275.56 172.427C275.56 172.427 265.648 159.613 277.944 152.064Z" fill="#B0BEC5"/>
<path opacity="0.2" d="M277.944 152.064C278.771 153.98 279.172 156.099 279.109 158.234C279.046 160.37 278.522 162.454 277.584 164.302C274.32 170.489 275.56 172.427 275.56 172.427C275.56 172.427 265.648 159.613 277.944 152.064Z" fill="black"/>
<path opacity="0.2" d="M277.944 152.064C278.029 154.907 277.627 157.741 276.76 160.408C275.36 164.887 273.736 166.367 275.384 171.842C275.408 172.048 275.468 172.247 275.56 172.427C275.56 172.427 265.648 159.613 277.944 152.064Z" fill="black"/>
<path d="M203.2 102.153C202.351 100.249 201.103 98.6151 199.568 97.3953C198.033 96.1756 196.258 95.408 194.4 95.1608C188.112 94.4479 187.496 92.163 187.496 92.163C187.496 92.163 190.552 108.898 203.2 102.153Z" fill="#B0BEC5"/>
<path opacity="0.2" d="M203.2 102.153C202.351 100.249 201.103 98.6151 199.568 97.3953C198.033 96.1756 196.258 95.408 194.4 95.1608C188.112 94.4479 187.496 92.163 187.496 92.163C187.496 92.163 190.552 108.898 203.2 102.153Z" fill="black"/>
<path opacity="0.2" d="M203.2 102.153C201.255 100.378 199.027 99.0528 196.64 98.2499C192.64 96.8607 190.648 97.4548 187.8 92.6748C187.671 92.5284 187.567 92.3546 187.496 92.163C187.496 92.163 190.552 108.898 203.2 102.153Z" fill="black"/>
<path d="M206.664 104.264C206.367 107.203 205.398 110.002 203.853 112.377C202.308 114.751 200.242 116.619 197.864 117.79C189.448 122.186 189.16 124.691 189.16 124.691C189.16 124.691 189.28 102.646 206.664 104.264Z" fill="#B0BEC5"/>
<path opacity="0.2" d="M206.664 104.264C206.367 107.203 205.398 110.002 203.853 112.377C202.308 114.751 200.242 116.619 197.864 117.79C189.448 122.186 189.16 124.691 189.16 124.691C189.16 124.691 189.28 102.646 206.664 104.264Z" fill="black"/>
<path opacity="0.2" d="M198.4 111.941C194.091 114.729 190.81 119.202 189.16 124.536C189.36 123.932 190.6 121.556 197.816 117.791C200.194 116.619 202.26 114.752 203.805 112.377C205.35 110.002 206.319 107.204 206.616 104.264C204.34 107.409 201.549 110.017 198.4 111.941Z" fill="black"/>
<path d="M125.52 182.169C122.024 183.641 120.656 187.205 122.576 193.841C124.176 199.461 120.176 203.437 122.912 205.777C130.808 212.485 141.68 175.361 125.52 182.169Z" fill="#B0BEC5"/>
<path opacity="0.4" d="M125.52 182.169C122.024 183.641 120.656 187.205 122.576 193.841C124.176 199.461 120.176 203.437 122.912 205.777C130.808 212.485 141.68 175.361 125.52 182.169Z" fill="white"/>
<path opacity="0.1" d="M125.52 182.169C125.16 182.317 124.812 182.501 124.48 182.718C124.536 182.718 130.56 182.096 130.96 186.959C131.36 191.821 128 206.91 122.912 205.777C130.808 212.485 141.68 175.361 125.52 182.169Z" fill="black"/>
<path d="M186.904 167.701C183.416 169.173 182.048 172.728 183.968 179.373C185.568 184.993 181.568 188.969 184.296 191.309C192.2 198.008 203.072 160.856 186.904 167.701Z" fill="#B0BEC5"/>
<path opacity="0.4" d="M186.904 167.701C183.416 169.173 182.048 172.728 183.968 179.373C185.568 184.993 181.568 188.969 184.296 191.309C192.2 198.008 203.072 160.856 186.904 167.701Z" fill="white"/>
<path opacity="0.1" d="M186.904 167.701C186.547 167.851 186.202 168.034 185.872 168.25C185.928 168.25 191.952 167.628 192.352 172.481C192.752 177.335 189.384 192.442 184.296 191.309C192.2 198.008 203.072 160.856 186.904 167.701Z" fill="black"/>
<path d="M277.152 169.539C280.64 171.01 282.008 174.574 280.088 181.21C278.488 186.831 282.488 190.815 279.76 193.146C271.856 199.854 260.992 162.739 277.152 169.539Z" fill="#B0BEC5"/>
<path opacity="0.4" d="M277.152 169.539C280.64 171.01 282.008 174.574 280.088 181.21C278.488 186.831 282.488 190.815 279.76 193.146C271.856 199.854 260.992 162.739 277.152 169.539Z" fill="white"/>
<path opacity="0.1" d="M277.152 169.539C277.507 169.692 277.852 169.875 278.184 170.087C278.128 170.087 272.104 169.465 271.704 174.328C271.304 179.19 274.672 194.288 279.76 193.146C271.856 199.854 260.992 162.739 277.152 169.539Z" fill="black"/>
<path d="M236.256 154.559C239.4 155.884 240.632 159.129 238.904 165.079C237.44 170.142 241.08 173.725 238.6 175.836C231.48 181.877 221.688 148.426 236.256 154.559Z" fill="#B0BEC5"/>
<path opacity="0.4" d="M236.256 154.559C239.4 155.884 240.632 159.129 238.904 165.079C237.44 170.142 241.08 173.725 238.6 175.836C231.48 181.877 221.688 148.426 236.256 154.559Z" fill="white"/>
<path opacity="0.1" d="M236.256 154.559C236.575 154.699 236.885 154.864 237.184 155.052C237.136 155.052 231.704 154.495 231.344 158.873C230.984 163.251 234.016 176.859 238.6 175.836C231.48 181.877 221.688 148.426 236.256 154.559Z" fill="black"/>
<path d="M158.928 130.823C162.072 132.14 163.304 135.393 161.568 141.334C160.112 146.397 163.752 149.989 161.272 152.091C154.152 158.114 144.36 124.691 158.928 130.823Z" fill="#B0BEC5"/>
<path opacity="0.5" d="M158.928 130.823C162.072 132.14 163.304 135.393 161.568 141.334C160.112 146.397 163.752 149.989 161.272 152.091C154.152 158.114 144.36 124.691 158.928 130.823Z" fill="white"/>
<path opacity="0.1" d="M158.928 130.823C159.248 130.957 159.558 131.119 159.856 131.308C159.808 131.308 154.376 130.75 154.016 135.128C153.656 139.506 156.688 153.115 161.272 152.091C154.152 158.114 144.36 124.691 158.928 130.823Z" fill="black"/>
<path d="M169.8 78.0519C166.656 79.3771 165.424 82.6216 167.152 88.5715C168.616 93.6348 164.976 97.2175 167.456 99.3287C174.576 105.37 184.368 71.9192 169.8 78.0519Z" fill="#B0BEC5"/>
<path opacity="0.5" d="M169.8 78.0519C166.656 79.3771 165.424 82.6216 167.152 88.5715C168.616 93.6348 164.976 97.2175 167.456 99.3287C174.576 105.37 184.368 71.9192 169.8 78.0519Z" fill="white"/>
<path opacity="0.1" d="M169.8 78.0519C169.481 78.1906 169.171 78.3556 168.872 78.5454C168.92 78.5454 174.344 77.9879 174.712 82.3657C175.08 86.7435 172.04 100.352 167.456 99.3287C174.576 105.37 184.368 71.9192 169.8 78.0519Z" fill="black"/>
<path d="M173.744 237.089C170.592 238.414 169.368 241.659 171.096 247.609C172.56 252.672 168.912 256.255 171.392 258.357C178.512 264.398 188.304 230.956 173.744 237.089Z" fill="#B0BEC5"/>
<path opacity="0.5" d="M173.744 237.089C170.592 238.414 169.368 241.659 171.096 247.609C172.56 252.672 168.912 256.255 171.392 258.357C178.512 264.398 188.304 230.956 173.744 237.089Z" fill="white"/>
<path opacity="0.1" d="M173.744 237.089C173.415 237.234 173.099 237.415 172.8 237.628C172.848 237.628 178.28 237.062 178.64 241.439C179 245.817 175.968 259.426 171.384 258.402C178.512 264.398 188.304 230.956 173.744 237.089Z" fill="black"/>
<path d="M190.928 107.097C187.44 108.569 186.072 112.133 187.992 118.768C189.592 124.389 185.592 128.374 188.32 130.705C196.224 137.413 207.096 100.297 190.928 107.097Z" fill="#B0BEC5"/>
<path opacity="0.3" d="M190.928 107.097C187.44 108.569 186.072 112.133 187.992 118.768C189.592 124.389 185.592 128.374 188.32 130.705C196.224 137.413 207.096 100.297 190.928 107.097Z" fill="white"/>
<path opacity="0.1" d="M190.928 107.097C190.572 107.251 190.227 107.434 189.896 107.646C189.952 107.646 195.976 107.024 196.376 111.886C196.776 116.749 193.408 131.847 188.32 130.696C196.224 137.413 207.096 100.297 190.928 107.097Z" fill="black"/>
<path d="M179.84 235.8C177.383 234.852 174.75 234.662 172.208 235.247C169.666 235.833 167.304 237.174 165.36 239.136C158.288 245.945 156.184 245.168 156.184 245.168C156.184 245.168 173.68 254.472 179.84 235.8Z" fill="#B0BEC5"/>
<path opacity="0.2" d="M179.84 235.8C177.383 234.852 174.75 234.662 172.208 235.247C169.666 235.833 167.304 237.174 165.36 239.136C158.288 245.945 156.184 245.168 156.184 245.168C156.184 245.168 173.68 254.472 179.84 235.8Z" fill="black"/>
<path opacity="0.2" d="M170.24 241.055C166.19 244.313 161.248 245.792 156.32 245.223C156.888 245.223 159.296 245.004 165.36 239.164C167.301 237.197 169.662 235.851 172.204 235.26C174.747 234.669 177.381 234.856 179.84 235.8C176.372 236.824 173.111 238.609 170.24 241.055Z" fill="black"/>
</svg>
