<svg width="443" height="350" viewBox="0 0 443 350" fill="none" xmlns="http://www.w3.org/2000/svg">
<path d="M362.843 5.33203C350.988 2.25518 329.066 0.614551 296.405 0.205078C289.918 0 283.206 0 275.825 0H151V350H244.058V224.765C255.915 224.561 275.377 225.176 296.405 224.561C316.314 224.15 337.567 222.92 354.791 219.844C408.927 208.975 438.008 165.908 441.81 120.792C442.258 114.433 442.258 108.075 442.034 101.924C438.902 58.6523 412.505 17.431 362.843 5.33203ZM323.473 144.169C317.657 146.221 307.59 147.451 296.405 148.066C277.837 149.091 255.692 148.682 244.058 148.477V76.0833C255.021 75.8796 278.285 75.8796 296.405 76.4941C297.524 76.4941 298.641 76.6992 299.537 76.6992C302.445 76.6992 305.129 76.9043 307.59 77.1101C310.946 77.5195 313.854 77.7246 316.091 78.1355C354.344 84.4922 356.58 132.07 323.473 144.169Z" fill="#2B2D42"/>
<path d="M296.906 76.0053V0.711496C329.293 1.13163 350.991 2.77243 362.718 5.81605L362.726 5.81782C412.135 17.8554 438.412 58.8583 441.535 101.95C441.758 108.087 441.758 114.421 441.312 120.753C437.525 165.682 408.577 208.533 354.698 219.352C337.661 222.395 316.658 223.63 296.906 224.05V148.539C307.902 147.916 317.832 146.689 323.641 144.641L323.646 144.639C340.424 138.507 348.261 123.369 347.041 108.957C345.82 94.532 335.531 80.8603 316.178 77.6422C314.736 77.3777 313.006 77.1959 311.079 76.9934C309.993 76.8793 308.845 76.7587 307.651 76.6131L307.642 76.6119L307.632 76.6111C305.17 76.4059 302.469 76.1985 299.538 76.1985C299.14 76.1985 298.689 76.155 298.181 76.1058L298.103 76.0983C297.725 76.0618 297.32 76.0239 296.906 76.0053Z" fill="#92DCE5" stroke="#2B2D42"/>
<path d="M381.718 349.942C330.311 228.031 284.719 121.911 233.312 0H144.131C94.1248 121.911 50.0058 228.031 0 349.942C2.50428 349.942 102.555 349.942 99.234 349.942C100.198 347.422 128.672 273.011 127.749 275.423H250.152C251.176 277.952 281.296 352.363 280.316 349.942H381.718ZM157.05 199.643L190.644 118.797L219.65 199.643H157.05Z" fill="#92DCE5"/>
<mask id="path-4-inside-1_572_50" fill="white">
<path d="M381.718 349.942C330.312 228.03 284.719 121.912 233.312 0H190.644V118.797L219.65 199.643H190.644V275.423H250.152C251.176 277.952 281.297 352.363 280.316 349.942"/>
</mask>
<path d="M381.718 349.942C330.312 228.03 284.719 121.912 233.312 0H190.644V118.797L219.65 199.643H190.644V275.423H250.152C251.176 277.952 281.297 352.363 280.316 349.942" fill="#2B2D42"/>
<path d="M233.312 0L234.233 -0.388541L233.975 -1H233.312V0ZM190.644 0V-1H189.644V0H190.644ZM190.644 118.797H189.644V118.971L189.702 119.135L190.644 118.797ZM219.65 199.643V200.643H221.071L220.591 199.306L219.65 199.643ZM190.644 199.643V198.643H189.644V199.643H190.644ZM190.644 275.423H189.644V276.423H190.644V275.423ZM250.152 275.423L251.079 275.048L250.826 274.423H250.152V275.423ZM382.64 349.553C356.936 288.596 332.685 231.587 308.435 174.58C284.185 117.572 259.936 60.5656 234.233 -0.388541L232.39 0.388541C258.094 61.3461 282.345 118.355 306.595 175.362C330.845 232.37 355.094 289.376 380.797 350.33L382.64 349.553ZM233.312 -1H190.644V1H233.312V-1ZM189.644 0V118.797H191.644V0H189.644ZM189.702 119.135L218.709 199.981L220.591 199.306L191.585 118.459L189.702 119.135ZM219.65 198.643H190.644V200.643H219.65V198.643ZM189.644 199.643V275.423H191.644V199.643H189.644ZM190.644 276.423H250.152V274.423H190.644V276.423ZM249.225 275.799C249.737 277.063 257.523 296.298 265.059 314.914C268.827 324.222 272.532 333.375 275.234 340.05C276.585 343.388 277.685 346.106 278.417 347.914C278.782 348.818 279.056 349.494 279.223 349.907C279.307 350.113 279.364 350.254 279.392 350.323C279.399 350.341 279.404 350.354 279.408 350.362C279.409 350.367 279.41 350.37 279.411 350.371C279.412 350.372 279.412 350.373 279.412 350.373C279.411 350.372 279.963 349.073 281.264 349.618C281.265 349.621 281.26 349.608 281.243 349.567L279.389 350.317C279.403 350.351 279.413 350.376 279.415 350.381C280.716 350.926 281.268 349.627 281.267 349.625C281.267 349.625 281.266 349.624 281.266 349.622C281.265 349.62 281.263 349.617 281.262 349.613C281.258 349.604 281.253 349.591 281.246 349.573C281.217 349.503 281.161 349.363 281.077 349.157C280.91 348.744 280.636 348.067 280.27 347.163C279.539 345.356 278.438 342.638 277.088 339.3C274.386 332.625 270.68 323.471 266.913 314.163C259.377 295.547 251.591 276.312 251.079 275.048L249.225 275.799Z" fill="#92DCE5" mask="url(#path-4-inside-1_572_50)"/>
</svg>
