<svg width="1400" height="400" viewBox="0 0 1400 400" fill="none" xmlns="http://www.w3.org/2000/svg">
<g style="mix-blend-mode:overlay">
<g style="mix-blend-mode:overlay">
<path fill-rule="evenodd" clip-rule="evenodd" d="M0 107.937L58.3333 143.915C116.667 180.6 233.333 253.968 350 241.975C466.667 229.277 583.333 131.922 700 113.58C816.667 95.2381 933.333 156.614 1050 168.607C1166.67 180.6 1283.33 143.915 1341.67 126.279L1400 107.937V400H1341.67C1283.33 400 1166.67 400 1050 400C933.333 400 816.667 400 700 400C583.333 400 466.667 400 350 400C233.333 400 116.667 400 58.3333 400H0V107.937Z" fill="url(#paint0_linear_555_29)"/>
</g>
<g style="mix-blend-mode:overlay">
<path fill-rule="evenodd" clip-rule="evenodd" d="M0 0L58.3333 6.34921C116.667 11.9929 233.333 24.6914 350 55.0265C466.667 85.3615 583.333 134.039 700 176.367C816.667 219.4 933.333 256.085 1050 261.728C1166.67 268.078 1283.33 243.386 1341.67 231.393L1400 219.4V365.432H1341.67C1283.33 365.432 1166.67 365.432 1050 365.432C933.333 365.432 816.667 365.432 700 365.432C583.333 365.432 466.667 365.432 350 365.432C233.333 365.432 116.667 365.432 58.3333 365.432H0V0Z" fill="url(#paint1_linear_555_29)"/>
</g>
<g style="mix-blend-mode:overlay">
<path fill-rule="evenodd" clip-rule="evenodd" d="M0 313.227L38.8889 276.543C77.7778 240.564 155.556 167.196 233.333 155.203C311.111 142.504 388.889 191.887 466.667 222.222C544.444 252.557 622.222 264.55 700 276.543C777.778 289.242 855.556 301.235 933.333 307.584C1011.11 313.227 1088.89 313.227 1166.67 276.543C1244.44 240.564 1322.22 167.196 1361.11 130.511L1400 93.8271V349.912H1361.11C1322.22 349.912 1244.44 349.912 1166.67 349.912C1088.89 349.912 1011.11 349.912 933.333 349.912C855.556 349.912 777.778 349.912 700 349.912C622.222 349.912 544.444 349.912 466.667 349.912C388.889 349.912 311.111 349.912 233.333 349.912C155.556 349.912 77.7778 349.912 38.8889 349.912H0V313.227Z" fill="url(#paint2_linear_555_29)"/>
</g>
</g>
<defs>
<linearGradient id="paint0_linear_555_29" x1="700" y1="107.937" x2="700" y2="400" gradientUnits="userSpaceOnUse">
<stop stop-color="#B6B6B6"/>
<stop offset="1" stop-color="white" stop-opacity="0"/>
</linearGradient>
<linearGradient id="paint1_linear_555_29" x1="700" y1="0" x2="700" y2="365.432" gradientUnits="userSpaceOnUse">
<stop stop-color="#C8C8C8"/>
<stop offset="1" stop-color="#0099FF" stop-opacity="0"/>
</linearGradient>
<linearGradient id="paint2_linear_555_29" x1="700" y1="93.8271" x2="700" y2="349.912" gradientUnits="userSpaceOnUse">
<stop stop-color="#BBBBBB"/>
<stop offset="1" stop-color="#0099FF" stop-opacity="0"/>
</linearGradient>
</defs>
</svg>
