<svg width="773" height="829" viewBox="0 0 773 829" fill="none" xmlns="http://www.w3.org/2000/svg">
<g filter="url(#filter0_d_506_1341)">
<path d="M520.553 5.94629H463.25V14.003H520.553V5.94629Z" fill="#E0E0E0"/>
<path d="M488.041 20.5181H463.25V28.5748H488.041V20.5181Z" fill="#E0E0E0"/>
<path d="M226.654 95.7449C229.447 94.0195 232.453 92.6863 235.591 91.7808L237.378 82.7514L252.231 82.4761L254.376 91.4321C257.502 92.2389 260.508 93.4734 263.313 95.1026L270.82 90.0373L281.545 100.645L276.897 108.518C278.576 111.387 279.875 114.473 280.758 117.695L289.552 119.53L289.802 134.781L281.044 136.965C280.251 140.172 279.049 143.257 277.469 146.141L282.385 153.849L272.071 164.861L264.386 160.071C261.594 161.799 258.588 163.133 255.449 164.035L253.661 173.064L238.808 173.339L236.663 164.383C233.538 163.577 230.532 162.342 227.726 160.713L220.273 165.852L209.549 155.244L214.214 147.371C212.535 144.502 211.236 141.416 210.353 138.194L201.559 136.359L201.291 121.108L210.013 118.906C210.799 115.696 212.002 112.61 213.588 109.73L208.655 101.911L218.986 90.8999L226.654 95.6899V95.7449ZM234.572 116.061C232.383 118.391 230.916 121.335 230.357 124.52C229.797 127.706 230.17 130.99 231.427 133.958C232.685 136.926 234.772 139.445 237.423 141.196C240.075 142.947 243.173 143.851 246.325 143.795C249.477 143.738 252.542 142.724 255.132 140.879C257.723 139.034 259.723 136.442 260.879 133.431C262.035 130.42 262.296 127.124 261.629 123.96C260.961 120.797 259.395 117.907 257.129 115.657C255.624 114.16 253.845 112.982 251.896 112.192C249.947 111.401 247.864 111.014 245.769 111.051C243.673 111.089 241.605 111.55 239.684 112.41C237.763 113.27 236.026 114.511 234.572 116.061Z" fill="#F5F5F5"/>
<path d="M234.572 116.061C235.417 115.017 236.419 114.119 237.539 113.4C240.143 111.67 243.178 110.75 246.28 110.75C249.381 110.75 252.416 111.67 255.02 113.4C257.464 115.05 259.437 117.337 260.74 120.026C261.448 121.47 261.936 123.017 262.188 124.614C262.477 126.281 262.507 127.984 262.277 129.661C261.82 133.211 260.266 136.518 257.844 139.094C255.421 141.671 252.258 143.382 248.818 143.976C247.19 144.241 245.531 144.241 243.903 143.976C242.338 143.777 240.813 143.331 239.381 142.654C236.721 141.415 234.432 139.47 232.749 137.02C230.968 134.414 229.958 131.336 229.841 128.155C229.723 124.974 230.504 121.826 232.088 119.09C232.751 117.948 233.59 116.926 234.572 116.061C234.662 116.061 233.625 117.144 232.392 119.383C230.687 122.578 230.058 126.263 230.604 129.862C231.017 132.5 232.066 134.99 233.655 137.106C235.244 139.221 237.322 140.895 239.702 141.975C241.07 142.605 242.522 143.019 244.01 143.205C245.549 143.425 247.112 143.387 248.639 143.095C251.887 142.527 254.874 140.908 257.163 138.475C259.452 136.042 260.925 132.921 261.365 129.569C261.607 127.988 261.607 126.378 261.365 124.797C261.133 123.284 260.675 121.817 260.007 120.448C258.875 118.042 257.175 115.966 255.062 114.408C252.948 112.85 250.488 111.86 247.906 111.528C244.388 111.071 240.821 111.833 237.772 113.694C235.591 115.034 234.662 116.153 234.572 116.061Z" fill="#F5F5F5"/>
<path d="M226.654 95.7451C226.484 95.6729 226.322 95.5805 226.172 95.4698L224.688 94.6073L218.897 91.0836H219.094L208.834 102.095V101.912C210.335 104.224 211.998 106.83 213.785 109.601L213.874 109.73V109.877C212.312 112.759 211.14 115.846 210.389 119.053V119.236H210.21L201.488 121.457L201.738 121.127C201.845 125.935 201.935 131.037 202.042 136.396L201.756 136.029L210.55 137.864H210.764V138.103C211.649 141.269 212.942 144.299 214.607 147.114L214.732 147.334L214.607 147.536C213.159 149.977 211.569 152.675 209.96 155.428V154.914L220.684 165.485H220.148L227.655 160.419L227.888 160.273L228.102 160.401C230.911 162.022 233.916 163.256 237.039 164.072H237.289V164.347C237.95 167.155 238.683 170.201 239.434 173.303L238.987 172.954L253.84 172.679L253.411 173.046C253.983 170.183 254.609 167.118 255.199 164.016V163.741H255.467C258.55 162.84 261.501 161.519 264.243 159.814L264.493 159.667L264.725 159.814L272.393 164.604H271.839L282.152 153.592V154.161C280.49 151.573 278.864 149.004 277.237 146.453L277.094 146.215L277.219 145.976C278.808 143.097 280.011 140.01 280.794 136.8V136.524H281.044L289.785 134.34L289.445 134.781C289.356 129.569 289.284 124.485 289.195 119.512L289.534 119.934L280.74 118.098H280.508V117.86C279.63 114.692 278.35 111.656 276.701 108.83L276.576 108.61L276.701 108.408L281.366 100.535V101.012L270.642 90.4046H271.071L263.546 95.4331L263.385 95.5432H263.206C260.402 93.9117 257.396 92.677 254.269 91.8727H254.091V91.6892C253.322 88.4408 252.643 85.5044 251.981 82.7332L252.25 82.9351L237.396 83.1369L237.593 82.9718C236.842 86.6423 236.217 89.5236 235.698 92.0012C233.317 92.6244 231 93.4849 228.781 94.5706L227.19 95.4331C227.022 95.5447 226.842 95.637 226.654 95.7084C226.815 95.5826 226.982 95.4662 227.155 95.3597C227.494 95.1395 228.013 94.8275 228.728 94.4421C230.879 93.2449 233.15 92.2911 235.502 91.5975L235.395 91.7076C235.877 89.2483 236.467 86.2018 237.182 82.6781V82.513H237.361L252.214 82.1826H252.446V82.4029C253.107 85.1741 253.822 88.0921 254.609 91.3405L254.394 91.1203C257.573 91.9203 260.633 93.1548 263.492 94.7908H263.17L270.66 89.7255L270.892 89.5603L271.106 89.7622L281.831 100.352L282.045 100.553L281.884 100.829L277.255 108.72V108.298C278.955 111.163 280.271 114.249 281.169 117.475L280.866 117.181L289.659 119.016H289.981V119.365C290.071 124.32 290.178 129.404 290.267 134.616V134.964H289.928L281.205 137.167L281.527 136.836C280.747 140.106 279.545 143.254 277.952 146.196V145.958L282.867 153.666L283.082 153.978L282.832 154.253L272.501 165.264L272.25 165.54L271.947 165.338L264.261 160.566H264.725C261.932 162.305 258.927 163.656 255.789 164.585L256.11 164.218L254.323 173.248V173.615H253.948L239.094 173.89H238.737L238.648 173.541L236.36 164.53L236.681 164.879C233.499 164.072 230.434 162.838 227.566 161.209H228.013L220.488 166.145L220.22 166.347L219.969 166.109L209.245 155.483L209.013 155.262L209.191 154.969L213.857 147.095V147.518C212.169 144.649 210.858 141.563 209.96 138.341L210.246 138.617L201.47 136.781H201.184V136.488C201.095 131.147 201.023 126.045 200.952 121.237V120.98H201.202L209.924 118.814L209.71 119.034C210.494 115.778 211.696 112.643 213.285 109.711V110.005L208.387 102.279V102.113L208.512 101.985C212.731 97.5253 216.234 93.8548 218.897 90.9735H219.004L224.652 94.644L226.118 95.5983C226.3 95.6333 226.479 95.6824 226.654 95.7451Z" fill="#F5F5F5"/>
<path d="M500.982 428.329C504.059 426.423 507.371 424.948 510.83 423.943L512.85 413.941L529.294 413.647L531.653 423.558C535.142 424.446 538.502 425.803 541.645 427.595L549.956 422.09L561.788 433.817L556.641 442.553C558.49 445.71 559.926 449.104 560.912 452.647L570.636 454.72L570.922 471.605L561.27 474.046C560.41 477.624 559.088 481.068 557.338 484.286L562.789 492.82L551.368 504.97L542.878 499.684C539.8 501.591 536.488 503.066 533.029 504.07L531.01 514.054L514.566 514.366L512.206 504.437C508.715 503.564 505.355 502.212 502.215 500.418L493.904 505.924L482.071 494.197L487.237 485.479C485.375 482.326 483.932 478.931 482.947 475.385L473.223 473.293L472.938 456.409L482.589 453.986C483.451 450.408 484.773 446.965 486.522 443.746L481.159 435.212L492.491 423.081L500.982 428.366V428.329ZM509.829 450.83C507.418 453.412 505.805 456.67 505.194 460.192C504.584 463.715 505.003 467.344 506.398 470.622C507.794 473.9 510.104 476.681 513.037 478.612C515.97 480.544 519.394 481.541 522.878 481.477C526.362 481.413 529.749 480.292 532.613 478.254C535.477 476.215 537.688 473.352 538.969 470.025C540.25 466.698 540.543 463.055 539.81 459.558C539.077 456.06 537.352 452.863 534.852 450.371C533.185 448.705 531.212 447.394 529.049 446.515C526.886 445.636 524.574 445.205 522.248 445.248C519.921 445.29 517.626 445.805 515.495 446.763C513.363 447.722 511.438 449.104 509.829 450.83Z" fill="#F5F5F5"/>
<path d="M509.829 450.83C510.761 449.662 511.872 448.658 513.118 447.857C516.527 445.592 520.594 444.606 524.629 445.067C527.414 445.374 530.089 446.348 532.44 447.912C535.15 449.734 537.335 452.269 538.767 455.253C539.561 456.85 540.104 458.565 540.376 460.336C540.69 462.155 540.726 464.012 540.483 465.842C539.983 469.775 538.263 473.438 535.579 476.291C532.894 479.143 529.387 481.032 525.576 481.68C523.806 482.013 521.996 482.05 520.214 481.79C518.478 481.562 516.785 481.067 515.192 480.322C512.25 478.943 509.716 476.79 507.845 474.082C505.883 471.196 504.771 467.791 504.641 464.273C504.511 460.756 505.369 457.274 507.113 454.243C507.844 452.938 508.78 451.766 509.883 450.775C509.004 451.949 508.192 453.174 507.452 454.445C505.562 457.981 504.876 462.063 505.504 466.044C505.963 468.963 507.126 471.718 508.886 474.058C510.647 476.398 512.95 478.249 515.585 479.441C517.092 480.142 518.696 480.601 520.339 480.799C522.044 481.047 523.776 481.01 525.469 480.689C529.064 480.059 532.369 478.266 534.902 475.572C537.435 472.878 539.065 469.425 539.554 465.714C540.011 462.259 539.47 458.743 537.999 455.601C536.742 452.941 534.857 450.646 532.516 448.925C530.174 447.203 527.451 446.111 524.593 445.746C520.695 445.235 516.742 446.081 513.368 448.15C510.884 449.692 509.829 450.922 509.829 450.83Z" fill="#F5F5F5"/>
<path d="M500.982 428.329L500.445 428.036L498.819 427.063L492.402 423.172H492.599L481.231 435.377V435.046C482.893 437.616 484.806 440.552 486.7 443.562L486.808 443.709V443.874C485.092 447.074 483.794 450.493 482.947 454.041V454.243H482.75L473.116 456.702L473.384 456.335C473.492 461.658 473.599 467.286 473.706 473.22L473.384 472.834L483.126 474.89H483.376V475.128C484.358 478.632 485.782 481.988 487.612 485.112L487.755 485.351L487.612 485.589L482.482 494.307V493.738L494.333 505.465H493.743L502.054 499.868L502.286 499.702L502.537 499.849C505.639 501.62 508.957 502.96 512.403 503.832H512.689V504.125C513.44 507.227 514.244 510.622 515.066 514.036L514.584 513.65L531.028 513.338L530.545 513.76C531.171 510.604 531.868 507.19 532.565 503.758V503.446H532.869C536.273 502.441 539.536 500.985 542.574 499.115L542.842 498.95L543.092 499.115L551.6 504.401H550.975L562.396 492.251V492.894C560.609 490.031 558.821 487.186 557.034 484.36L556.873 484.103L557.016 483.827C558.751 480.654 560.056 477.251 560.895 473.715V473.422H561.199L570.85 470.999L570.475 471.495C570.392 465.732 570.302 460.104 570.207 454.61L570.582 455.069L560.841 452.977H560.573V452.702C559.613 449.19 558.2 445.827 556.373 442.699L556.23 442.479L556.373 442.241L561.538 433.523V434.055L549.741 422.31H550.224L541.895 427.815L541.716 427.944L541.52 427.834C538.414 426.044 535.09 424.686 531.635 423.796H531.439V423.594C530.599 419.924 529.83 416.731 529.115 413.666L529.401 413.904L512.957 414.125L513.172 413.941C512.349 417.923 511.652 421.19 511.098 423.925V424.017H511.009C508.413 424.747 505.893 425.737 503.484 426.971L501.697 427.926L501.107 428.238L501.661 427.852C502.036 427.614 502.608 427.265 503.448 426.825C505.839 425.517 508.355 424.465 510.955 423.686L510.848 423.815C511.384 421.08 512.028 417.795 512.814 413.813V413.629H512.993L529.437 413.262H529.49V413.501C530.241 416.565 531.028 419.814 531.903 423.411L531.653 423.154C535.172 424.039 538.561 425.397 541.734 427.192H541.359C543.986 425.356 546.721 423.521 549.652 421.576L549.902 421.392L550.135 421.631L561.985 433.321L562.235 433.56L562.057 433.853C560.394 436.698 558.678 439.598 556.909 442.589V442.13C558.79 445.319 560.251 448.751 561.252 452.334L560.913 452.004L570.636 454.078H571.011V454.463C571.119 459.969 571.208 465.585 571.315 471.348V471.733H570.94L561.288 474.174L561.645 473.807C560.78 477.43 559.445 480.917 557.677 484.176V483.662L563.129 492.196L563.343 492.526L563.057 492.82L551.636 504.988L551.368 505.282L551.011 505.061L542.52 499.776H543.039C539.928 501.705 536.58 503.199 533.083 504.217L533.441 503.832C532.743 507.264 532.046 510.659 531.421 513.815L531.331 514.219H530.938L514.494 514.494H514.083L513.994 514.091C513.189 510.677 512.367 507.282 511.634 504.18L511.992 504.547C508.463 503.653 505.066 502.277 501.893 500.455H502.394L494.082 505.961L493.761 506.181L493.492 505.906L481.678 494.16L481.41 493.903L481.606 493.591L486.772 484.874V485.351C484.898 482.156 483.449 478.718 482.464 475.128L482.786 475.44L473.045 473.33H472.741V473.018C472.652 467.09 472.562 461.437 472.491 456.133V456.115H472.777L482.446 453.711L482.196 453.95C483.073 450.351 484.414 446.889 486.182 443.654V443.966L480.82 435.395L480.713 435.23L480.856 435.083L492.331 422.989L492.438 422.897H492.545L498.801 426.898L500.41 427.944L500.982 428.329Z" fill="#F5F5F5"/>
<path d="M139.484 163.448C144.581 163.553 149.642 164.355 154.533 165.834L164.328 155.391L184.293 167.834L179.825 181.58C183.343 185.35 186.349 189.592 188.762 194.188L202.882 193.931L208.441 217.221L195.822 223.699C195.711 228.932 194.93 234.128 193.498 239.152L203.651 249.209L191.675 269.727L178.27 265.139C174.591 268.736 170.469 271.821 166.008 274.315L166.259 288.795L143.505 294.613L137.214 281.656C132.116 281.553 127.054 280.751 122.164 279.27L112.351 289.695L92.386 277.27L96.9439 263.414C93.4297 259.64 90.4239 255.4 88.0069 250.806L73.8866 251.063L68.167 227.847L80.8574 221.368C80.9519 216.135 81.7273 210.938 83.1631 205.915L73.0108 195.84L85.0756 175.322L98.4631 179.91C102.14 176.303 106.269 173.217 110.742 170.734L110.492 156.254L133.174 150.546L139.484 163.503V163.448ZM133.406 197.345C128.604 198.559 124.259 201.208 120.921 204.957C117.584 208.706 115.403 213.386 114.655 218.406C113.907 223.427 114.624 228.562 116.717 233.164C118.81 237.766 122.185 241.628 126.414 244.262C130.643 246.896 135.538 248.183 140.48 247.962C145.422 247.741 150.189 246.021 154.179 243.019C158.169 240.018 161.204 235.869 162.899 231.098C164.594 226.326 164.873 221.146 163.703 216.211C162.924 212.928 161.521 209.834 159.576 207.108C157.631 204.382 155.181 202.077 152.367 200.324C149.552 198.572 146.429 197.406 143.176 196.895C139.922 196.384 136.602 196.537 133.406 197.345Z" fill="#E0E0E0"/>
<path d="M133.407 197.345C135.383 196.669 137.454 196.328 139.537 196.335C145.304 196.265 150.917 198.243 155.427 201.933C158.555 204.473 161.054 207.737 162.72 211.458C164.637 215.742 165.396 220.478 164.918 225.167C164.39 230.368 162.361 235.289 159.091 239.299C155.583 243.617 150.815 246.662 145.491 247.984C140.167 249.306 134.571 248.835 129.528 246.64C127.126 245.649 124.898 244.26 122.933 242.529C121.013 240.918 119.349 239.011 117.999 236.876C115.457 232.943 113.999 228.377 113.781 223.662C113.543 218.67 114.713 213.713 117.152 209.386C119.59 205.06 123.192 201.548 127.526 199.272C129.364 198.268 131.351 197.586 133.407 197.253C133.407 197.418 131.262 197.859 127.794 199.786C122.909 202.55 119.07 206.919 116.891 212.192C115.293 216.043 114.658 220.243 115.045 224.41C115.433 228.577 116.829 232.579 119.108 236.05C120.396 238.064 121.982 239.86 123.808 241.372C125.678 243 127.79 244.307 130.064 245.245C134.846 247.289 140.14 247.707 145.17 246.439C150.2 245.171 154.703 242.283 158.019 238.197C161.119 234.412 163.059 229.77 163.596 224.855C164.056 220.681 163.491 216.455 161.952 212.563C160.413 208.671 157.948 205.237 154.784 202.575C150.474 198.947 145.109 196.899 139.537 196.757C135.587 196.794 133.442 197.473 133.407 197.345Z" fill="#E0E0E0"/>
<path d="M139.484 163.448C139.308 163.202 139.158 162.937 139.037 162.658L137.786 160.236C136.677 157.997 135.069 154.73 132.96 150.582L133.228 150.711L110.582 156.565L110.85 156.18C110.85 160.585 111.046 165.448 111.154 170.678V170.935L110.939 171.064C106.509 173.555 102.422 176.641 98.7849 180.24L98.5883 180.442L98.3202 180.35L84.9148 175.799L85.5046 175.579L73.4398 196.115V195.399L83.61 205.438L83.8781 205.695L83.7709 206.044C82.3572 211.02 81.5939 216.167 81.5009 221.35V221.735L81.1613 221.9L68.5424 228.397L68.882 227.645C70.6693 234.986 72.4567 242.841 74.4765 250.934L73.8151 250.402L87.9176 250.145H88.3287L88.5253 250.53C90.9606 255.062 93.9653 259.245 97.4622 262.973L97.7482 263.285L97.6231 263.689C96.2289 268.002 94.6918 272.7 93.1546 277.435L92.8508 276.591L112.726 289.107L111.833 289.236L121.646 278.793L121.949 278.481L122.36 278.61C127.191 280.054 132.184 280.843 137.214 280.959H137.66L137.857 281.362L144.149 294.319L143.344 293.934L166.026 288.245L165.49 288.96C165.49 284.079 165.329 279.252 165.24 274.462V274.04L165.615 273.82C170.035 271.329 174.11 268.243 177.734 264.643L178.037 264.331L178.449 264.478L191.836 269.066L191.032 269.378C195.178 262.38 199.218 255.547 203.15 248.879L203.257 249.723L193.123 239.555L192.837 239.28L192.944 238.895C194.378 233.928 195.16 228.786 195.268 223.607V223.222L195.607 223.057L208.244 216.596L207.923 217.294C205.992 209.09 204.151 201.364 202.417 193.986L202.954 194.427L188.851 194.647H188.529L188.386 194.372C185.961 189.805 182.956 185.59 179.449 181.837L179.253 181.635L179.342 181.36L183.864 167.632L184.043 168.127L164.132 155.611H164.525L154.658 165.98H154.551H154.426C150.766 164.847 147.006 164.085 143.201 163.704L140.377 163.466C140.068 163.498 139.757 163.498 139.448 163.466C139.448 163.466 139.77 163.466 140.377 163.466C140.985 163.466 141.95 163.466 143.219 163.594C147.057 163.867 150.855 164.556 154.551 165.65H154.319L164.06 155.152L164.239 154.969L164.471 155.097L184.49 167.448L184.776 167.614L184.669 167.962C183.292 172.202 181.845 176.716 180.236 181.727L180.129 181.231C183.712 185.02 186.783 189.285 189.262 193.913L188.798 193.637L202.9 193.344H203.347L203.454 193.784L209.049 217.055L209.174 217.532L208.745 217.753L196.126 224.249L196.465 223.699C196.374 228.988 195.593 234.241 194.142 239.317L193.981 238.656L204.187 248.732L204.562 249.099L204.294 249.576L192.194 270.094L191.908 270.571L191.389 270.388L178.002 265.818L178.699 265.653C174.985 269.322 170.814 272.469 166.294 275.013L166.652 274.37C166.735 279.166 166.819 283.993 166.902 288.85V289.438L166.348 289.584L143.666 295.292L143.112 295.439L142.862 294.907C140.771 290.63 138.661 286.299 136.552 281.95L137.178 282.354C132.026 282.239 126.911 281.425 121.967 279.931L122.7 279.729L112.887 290.153L112.494 290.575L111.994 290.282L92.0286 277.839L91.5817 277.545L91.7605 276.995C93.3155 272.26 94.8526 267.561 96.2468 263.249L96.4077 263.983C92.824 260.138 89.7582 255.817 87.292 251.136L87.9176 251.503L73.7973 251.741H73.261L73.1359 251.209C71.2234 243.116 69.3467 235.224 67.6129 227.902L67.4878 227.388L67.9346 227.167L80.5714 220.707L80.2318 221.258C80.3394 215.972 81.1389 210.725 82.6091 205.658L82.752 206.264L72.6176 196.17L72.2959 195.858L72.5282 195.454L84.6824 174.973L84.8969 174.624L85.2901 174.753L98.6598 179.378L98.195 179.488C101.905 175.842 106.07 172.719 110.582 170.201L110.367 170.605C110.367 165.375 110.242 160.493 110.171 156.107V155.813H110.456L133.174 150.307H133.353V150.472L137.929 160.144C138.429 161.209 138.804 161.979 139.09 162.658C139.376 163.337 139.484 163.429 139.484 163.448Z" fill="#E0E0E0"/>
<path d="M128.401 40.5039C130.128 39.9066 131.941 39.6149 133.763 39.6413C137.956 39.6158 142.068 40.8289 145.608 43.136C149.147 45.4431 151.966 48.7468 153.729 52.6532C155.372 56.3501 156.026 60.4297 155.623 64.4722C155.412 66.6521 154.882 68.7867 154.05 70.8039C153.202 72.9293 152.025 74.9 150.565 76.64C147.551 80.3727 143.447 83.0107 138.861 84.1641C134.274 85.3175 129.447 84.9252 125.095 83.045C121.049 81.3163 117.595 78.3903 115.175 74.6395C113.017 71.2416 111.783 67.3132 111.6 63.261C111.402 59.7505 112.014 56.2416 113.387 53.0203C115.396 48.3511 118.921 44.5431 123.361 42.2474C124.938 41.3557 126.647 40.7357 128.419 40.4121C126.77 41.0563 125.153 41.7852 123.575 42.596C119.371 44.9776 116.067 48.7387 114.192 53.2772C112.803 56.6019 112.25 60.2317 112.584 63.833C112.918 67.4343 114.129 70.8916 116.104 73.8871C117.211 75.6223 118.574 77.1701 120.144 78.4752C121.75 79.8697 123.559 80.9968 125.506 81.8154C129.624 83.5774 134.184 83.9383 138.517 82.845C142.85 81.7518 146.728 79.262 149.582 75.7407C152.258 72.4851 153.932 68.4863 154.39 64.252C154.783 60.6601 154.295 57.0243 152.972 53.675C151.648 50.3257 149.531 47.369 146.811 45.0736C143.105 41.9337 138.478 40.1628 133.674 40.045C131.91 40.1065 130.15 40.2596 128.401 40.5039Z" fill="#E0E0E0"/>
<path d="M133.639 11.3602C133.486 11.1477 133.355 10.9203 133.246 10.6812L132.191 8.58898L128.027 0.275284L128.241 0.385401L108.741 5.41399L108.973 5.102C108.973 8.88262 109.152 13.0853 109.241 17.5817V17.8019L109.045 17.9121C105.232 20.0739 101.716 22.7462 98.5884 25.8587L98.4097 26.0239H98.1773L86.6308 22.0964L87.1491 21.9129L76.7466 39.513V38.9073L85.5048 47.5514L85.7371 47.7716V48.0836C84.517 52.3668 83.8617 56.7987 83.7889 61.2607V61.536L83.5029 61.6828L72.6356 67.1886L72.9216 66.5462C74.4408 72.8412 76.0674 79.6316 77.7475 86.6055L77.1756 86.1467L89.3298 85.9081H89.6872L89.8481 86.2385C91.9392 90.143 94.5235 93.7468 97.5338 96.9564L97.7841 97.2133L97.659 97.562C96.4614 101.232 95.1388 105.325 93.8161 109.418L93.5659 108.684L110.76 119.383L110.01 119.493L118.446 110.501L118.714 110.225L119.072 110.335C123.225 111.59 127.523 112.268 131.852 112.354H132.245L132.406 112.703L137.768 123.861L137.071 123.531L156.607 118.612L156.142 119.236C156.071 115.027 156.005 110.868 155.946 106.757V106.39L156.267 106.206C160.042 104.113 163.533 101.522 166.652 98.498L166.902 98.241L167.26 98.3695L178.788 102.315L178.091 102.591L188.547 84.9355L188.637 85.6512L179.896 76.9705L179.646 76.7319L179.753 76.4015C180.978 72.1245 181.645 67.6998 181.737 63.2428V62.9124L182.023 62.7656L192.909 57.2599L192.64 57.8655C190.96 50.7998 189.387 44.1378 187.886 37.7878L188.351 38.1549L176.197 38.3384H175.928L175.803 38.0998C173.726 34.1746 171.147 30.5516 168.135 27.3269L167.957 27.1434L168.046 26.9048L171.925 15.0674L172.086 15.5079L154.891 4.64319H155.248L146.741 13.5625H146.633C143.479 12.5906 140.241 11.933 136.964 11.5988L134.479 11.4336C134.211 11.4569 133.942 11.4569 133.675 11.4336C133.942 11.4064 134.212 11.4064 134.479 11.4336C135.015 11.4336 135.837 11.4336 136.928 11.5437C140.234 11.8065 143.505 12.4215 146.687 13.379H146.49L154.873 4.3312L155.034 4.16602L155.231 4.29449L172.461 14.9206L172.711 15.0674L172.622 15.3611C171.442 19.0316 170.191 22.9039 168.815 27.2168L168.725 26.7947C171.808 30.0892 174.447 33.7926 176.572 37.8062L176.179 37.586L188.333 37.329H188.708L188.798 37.6961C190.335 44.046 191.926 50.6897 193.624 57.7554L193.731 58.1591L193.355 58.3427L182.488 63.8484L182.792 63.3712C182.712 67.933 182.038 72.4632 180.79 76.842L180.647 76.2547L189.405 84.9171L189.727 85.2474L189.495 85.6512L179.074 103.325L178.842 103.728L178.395 103.582L166.849 99.6358L167.456 99.489C164.255 102.667 160.647 105.384 156.732 107.564L157.036 107.014C157.107 111.124 157.185 115.284 157.268 119.493V119.989L156.803 120.117L137.25 125.036L136.785 125.164L136.552 124.705L131.19 113.529L131.744 113.896C127.3 113.796 122.889 113.092 118.625 111.804L119.251 111.638L110.796 120.631L110.457 120.98L110.046 120.723L92.833 110.005L92.4219 109.748L92.5828 109.271C93.9055 105.197 95.2281 101.141 96.4435 97.4335L96.5687 98.0575C93.4978 94.7574 90.8654 91.0548 88.7399 87.046L89.2583 87.358L77.1041 87.5599H76.6393L76.5321 87.1011C74.8877 80.1271 73.2612 73.3367 71.7776 67.0234L71.6704 66.5829L71.9206 66.3076L82.8058 60.8019L82.5019 61.2791C82.5924 56.7216 83.2777 52.1971 84.5396 47.8267L84.6826 48.3589L75.9423 39.6598L75.6741 39.3845L75.8708 39.0358L86.3448 21.399L86.5236 21.087L86.8632 21.2155L98.3739 25.198H97.9628C101.176 22.0543 104.783 19.3635 108.687 17.1963L108.491 17.545C108.491 13.0486 108.383 8.84591 108.33 5.06529V4.79001H108.562L128.134 0H128.295V0.128467L132.227 8.46051L133.228 10.6261L133.639 11.3602Z" fill="#E0E0E0"/>
<path d="M168.046 438.423H249.676V430.367H168.046V438.423Z" fill="#E0E0E0"/>
<path d="M168.046 424.787H249.676V416.731H168.046V424.787Z" fill="#E0E0E0"/>
<path d="M214.375 452.995H249.693V444.938H214.375V452.995Z" fill="#E0E0E0"/>
<path d="M557.588 798.408C552.665 796.709 547.412 796.272 542.287 797.135C537.162 797.999 532.321 800.137 528.186 803.363C526.994 797.22 524.393 791.457 520.596 786.554C516.8 781.65 511.919 777.748 506.359 775.171C500.799 772.593 494.72 771.416 488.627 771.735C482.535 772.055 476.604 773.863 471.329 777.009C471.218 772.358 469.961 767.812 467.675 763.796C465.389 759.779 462.15 756.423 458.258 754.04C454.367 751.657 449.951 750.326 445.423 750.171C440.895 750.015 436.402 751.04 432.364 753.151C424.964 726.527 417.571 699.898 410.183 673.262L353.701 675.097C344.884 705.012 336.066 734.914 327.248 764.805C314.468 752.6 296.666 744.764 279.489 747.92C262.312 751.077 247.173 767.374 248.442 785.249C243.335 782.822 237.712 781.764 232.098 782.174C226.485 782.585 221.064 784.45 216.343 787.596C211.622 790.742 207.756 795.065 205.105 800.163C202.454 805.26 201.105 810.964 201.184 816.742L577.75 821C576.444 815.829 573.924 811.065 570.409 807.126C566.894 803.187 562.492 800.194 557.588 798.408Z" fill="#F5F5F5"/>
<path fill-rule="evenodd" clip-rule="evenodd" d="M581.325 267.084C582.294 263.048 583.791 259.165 585.775 255.541L579.645 245.906L592.532 232.215L602.112 238.197C605.582 236.053 609.315 234.392 613.212 233.261L615.5 221.992L634.053 221.68L636.698 232.857C640.63 233.868 644.416 235.405 647.958 237.427L657.342 231.132L670.658 244.382L664.849 254.238C666.944 257.8 668.567 261.632 669.675 265.634L680.632 267.984L680.936 287.034L670.051 289.75C669.077 293.785 667.58 297.667 665.6 301.293L671.731 310.928L658.844 324.619L649.245 318.6C645.779 320.752 642.046 322.413 638.146 323.537L635.84 334.805L617.305 335.117L614.659 323.977C610.732 322.971 606.951 321.434 603.417 319.407L594.033 325.702L580.717 312.452L586.526 302.615C584.445 299.055 582.828 295.229 581.718 291.236L570.761 288.869L570.458 269.837L581.325 267.084ZM605.776 277.876C605.84 281.916 607.07 285.845 609.31 289.167C611.549 292.49 614.698 295.055 618.358 296.54C622.018 298.025 626.024 298.361 629.871 297.508C633.717 296.654 637.23 294.648 639.966 291.744C642.702 288.84 644.537 285.168 645.241 281.192C645.944 277.217 645.483 273.116 643.916 269.41C642.349 265.703 639.747 262.557 636.439 260.37C633.131 258.182 629.265 257.05 625.33 257.119C620.063 257.215 615.049 259.453 611.386 263.341C607.724 267.229 605.713 272.449 605.794 277.857L605.776 277.876Z" fill="#FF6A3D"/>
<path fill-rule="evenodd" clip-rule="evenodd" d="M527.703 349.248C528.18 347.287 528.907 345.399 529.866 343.633L526.881 338.953L533.137 332.327L537.802 335.227C539.476 334.183 541.28 333.375 543.164 332.823L544.272 327.317L553.209 327.17L554.496 332.676C556.403 333.151 558.237 333.892 559.948 334.878L564.505 331.832L570.976 338.255L568.152 343.027C569.16 344.751 569.947 346.602 570.493 348.533L575.855 349.671L576.016 358.847L570.654 360.168C570.177 362.124 569.449 364.006 568.491 365.766L571.476 370.446L565.381 377.199L560.734 374.3C559.059 375.338 557.255 376.14 555.372 376.686L554.264 382.191L545.327 382.338L544.04 376.924C542.165 376.43 540.362 375.683 538.678 374.703L534.12 377.75L527.649 371.327L530.474 366.555C529.464 364.832 528.677 362.981 528.132 361.049L522.77 359.893L522.627 350.717L527.989 349.395L527.703 349.248ZM539.571 354.479C539.603 356.439 540.201 358.345 541.288 359.956C542.375 361.567 543.902 362.811 545.678 363.531C547.453 364.25 549.397 364.413 551.263 363.999C553.128 363.584 554.832 362.611 556.16 361.202C557.487 359.794 558.377 358.012 558.718 356.084C559.059 354.156 558.836 352.167 558.076 350.368C557.317 348.57 556.055 347.044 554.45 345.982C552.846 344.92 550.971 344.371 549.062 344.403C546.518 344.476 544.103 345.573 542.341 347.458C540.578 349.344 539.609 351.866 539.643 354.479H539.571Z" fill="#FF6A3D"/>
<path d="M498.247 272.81C498.247 272.81 498.247 272.535 498.14 272.003C498.107 271.214 498.173 270.425 498.337 269.654C498.91 266.763 500.446 264.167 502.68 262.313C504.36 260.922 506.354 259.987 508.478 259.596C510.602 259.205 512.788 259.369 514.834 260.074C517.365 260.952 519.569 262.612 521.145 264.828C522.72 267.043 523.588 269.705 523.631 272.448C523.675 275.19 522.89 277.879 521.385 280.146C519.881 282.412 517.73 284.145 515.228 285.106C513.206 285.877 511.028 286.112 508.895 285.791C506.762 285.471 504.741 284.604 503.02 283.271C500.715 281.487 499.096 278.927 498.444 276.04C498.261 275.271 498.165 274.483 498.158 273.691C498.158 273.159 498.158 272.865 498.158 272.865C498.158 272.865 498.283 274.003 498.837 275.894C499.634 278.557 501.26 280.878 503.467 282.5C505.244 283.818 507.343 284.603 509.529 284.765C511.716 284.928 513.903 284.463 515.847 283.423C517.791 282.382 519.414 280.806 520.536 278.872C521.657 276.938 522.232 274.722 522.197 272.472C522.162 270.221 521.518 268.025 520.336 266.129C519.155 264.233 517.483 262.711 515.508 261.735C513.533 260.759 511.332 260.367 509.151 260.601C506.971 260.836 504.898 261.689 503.163 263.065C501.006 264.755 499.454 267.129 498.748 269.819C498.337 271.691 498.372 272.81 498.247 272.81Z" fill="#263238"/>
<path d="M483.019 266.112C482.476 266.32 481.921 266.492 481.356 266.625L476.298 268.002L476.459 267.8C476.459 270.865 476.638 274.847 476.763 279.637L476.495 279.307L483.323 280.72H483.555V280.94C484.246 283.384 485.25 285.723 486.54 287.896L486.665 288.135L486.54 288.355C485.414 290.19 484.198 292.337 482.965 294.503V293.897L491.276 302.101H490.633L496.46 298.155L496.728 297.972L497.014 298.137C499.178 299.356 501.484 300.287 503.877 300.908H504.217V301.257L505.897 308.194L505.325 307.735L516.854 307.515L516.264 308.01C516.693 305.826 517.193 303.441 517.676 301.018V300.633L518.051 300.523C520.418 299.832 522.684 298.819 524.79 297.513L525.111 297.311L525.433 297.513L531.403 301.183L530.599 301.293L538.624 292.778L538.535 293.604L534.853 287.731L534.638 287.401L534.835 287.033C536.023 284.831 536.93 282.481 537.534 280.041L538.016 279.546H538.213H538.428L538.856 279.436L539.697 279.215L541.395 278.793L544.773 277.949L544.272 278.61C544.272 274.609 544.147 270.663 544.094 266.772L544.612 267.415L537.784 265.946H537.409L537.301 265.561C536.639 263.13 535.659 260.803 534.388 258.642L534.191 258.312L534.388 257.963L537.963 251.87L538.07 252.659L529.794 244.401H530.545L524.7 248.31L524.397 248.512L524.093 248.328C521.942 247.086 519.64 246.142 517.247 245.52H516.925V245.171C516.371 242.786 515.835 240.473 515.299 238.216L515.835 238.638L504.306 238.785L504.789 238.381L503.323 245.373V245.667H503.055C500.666 246.35 498.376 247.356 496.245 248.658L496.031 248.787L495.798 248.658L489.864 244.988H490.347C487.219 248.236 484.556 251.026 482.268 253.43V253.045L486.004 259.083V259.193V259.303C484.783 261.552 483.795 263.927 483.054 266.387C483.03 266.229 483.03 266.068 483.054 265.91C483.054 265.598 483.215 265.121 483.394 264.515C483.93 262.635 484.661 260.82 485.575 259.101V259.321L481.696 253.375L481.571 253.173L481.732 253.008L489.686 244.437L489.9 244.199L490.168 244.364L496.138 248.034H495.691C497.878 246.663 500.234 245.601 502.698 244.878L502.358 245.226C502.805 243.006 503.27 240.693 503.752 238.234L503.842 237.83H504.235L515.764 237.592H516.192L516.3 238.032C516.854 240.29 517.408 242.584 517.98 244.97L517.569 244.547C520.069 245.167 522.475 246.136 524.718 247.429H524.128L529.955 243.501L530.349 243.226L530.706 243.575L538.999 251.797L539.357 252.145L539.107 252.586C537.909 254.586 536.712 256.623 535.532 258.697V258.037C536.864 260.294 537.892 262.727 538.588 265.267L538.106 264.809L544.934 266.258L545.434 266.369V266.901C545.434 270.792 545.559 274.737 545.613 278.738V279.27L545.094 279.399L541.734 280.243L540.036 280.665L539.178 280.885L538.749 280.996H538.535H538.428C538.642 280.794 537.945 281.491 538.91 280.518C538.283 283.084 537.327 285.552 536.068 287.859V287.162C537.373 289.217 538.678 291.255 539.875 293.163L540.161 293.604L539.804 293.989L531.778 302.486L531.421 302.853L530.974 302.596C528.936 301.312 526.899 300.027 525.022 298.926H525.683C523.477 300.286 521.102 301.335 518.623 302.046L519.07 301.569C518.57 303.991 518.087 306.377 517.622 308.561L517.533 309.057H516.979L505.45 309.222H504.968L504.86 308.745C504.306 306.34 503.734 303.955 503.234 301.807L503.645 302.229C501.148 301.581 498.745 300.6 496.496 299.311H497.05L491.205 303.202L490.865 303.422L490.561 303.129L482.322 294.87L482.053 294.595L482.232 294.283L485.896 288.171V288.63C484.586 286.381 483.576 283.961 482.894 281.436L483.197 281.711L476.405 279.931H476.137V279.656C476.137 274.866 476.137 270.902 476.137 267.818V267.653H476.298L481.321 266.497L482.643 266.222C482.764 266.169 482.89 266.132 483.019 266.112Z" fill="#263238"/>
<g opacity="0.8">
<path opacity="0.8" fill-rule="evenodd" clip-rule="evenodd" d="M581.324 267.084C582.293 263.048 583.791 259.165 585.775 255.541L579.644 245.906L592.531 232.215L602.112 238.197C605.581 236.053 609.314 234.392 613.211 233.261L615.499 221.992L634.052 221.68L636.697 232.857C640.629 233.868 644.415 235.405 647.958 237.427L657.342 231.132L670.658 244.382L664.849 254.238C666.943 257.8 668.566 261.632 669.675 265.634L680.631 267.984L680.935 287.034L670.05 289.75C669.076 293.785 667.579 297.667 665.599 301.293L671.73 310.928L658.843 324.619L649.245 318.6C645.779 320.752 642.045 322.413 638.145 323.537L635.839 334.805L617.304 335.117L614.659 323.977C610.731 322.971 606.951 321.434 603.416 319.407L594.033 325.702L580.717 312.452L586.526 302.615C584.444 299.055 582.828 295.229 581.718 291.236L570.761 288.869L570.457 269.837L581.324 267.084ZM605.776 277.876C605.84 281.916 607.07 285.845 609.309 289.167C611.549 292.49 614.698 295.055 618.357 296.54C622.017 298.025 626.024 298.361 629.87 297.508C633.716 296.654 637.23 294.648 639.965 291.744C642.701 288.84 644.537 285.168 645.24 281.192C645.943 277.217 645.482 273.116 643.916 269.41C642.349 265.703 639.747 262.557 636.438 260.37C633.13 258.182 629.264 257.05 625.33 257.119C620.063 257.215 615.048 259.453 611.386 263.341C607.723 267.229 605.712 272.449 605.794 277.857L605.776 277.876Z" fill="white"/>
</g>
<path d="M359.475 675.868C354.112 704.186 349.733 758.198 344.3 786.515C348.536 777.578 340.921 765.337 331.234 765.539C321.546 765.74 314.415 778.257 318.972 787.029C317.453 780.588 308.909 777.853 303.226 781.065C297.542 784.276 294.861 791.361 295.021 797.986C295.182 804.611 300.384 814.503 306.353 818.761H449.898C458.942 816.026 467.379 808.851 468.791 799.271C469.327 794.633 468.265 789.949 465.791 786.031C463.316 782.112 459.585 779.206 455.242 777.816C450.827 776.685 446.168 777.136 442.036 779.095C437.904 781.054 434.549 784.404 432.525 788.589C435.17 783.414 437.887 778.11 438.513 772.311C439.138 766.511 437.315 760.033 432.543 756.858C427.77 753.683 420.031 755.5 418.405 761.079C415.938 739.735 406 675.226 406 675.226" fill="#FF6A3D"/>
<g opacity="0.8">
<path opacity="0.8" d="M359.475 675.868C354.112 704.186 349.733 758.198 344.3 786.515C348.536 777.578 340.921 765.337 331.234 765.539C321.546 765.74 314.415 778.257 318.972 787.029C317.453 780.588 308.909 777.853 303.226 781.065C297.542 784.276 294.861 791.361 295.021 797.986C295.182 804.611 300.384 814.503 306.353 818.761H449.898C458.942 816.026 467.379 808.851 468.791 799.271C469.327 794.633 468.265 789.949 465.791 786.031C463.316 782.112 459.585 779.206 455.242 777.816C450.827 776.685 446.168 777.136 442.036 779.095C437.904 781.054 434.549 784.404 432.525 788.589C435.17 783.414 437.887 778.11 438.513 772.311C439.138 766.511 437.315 760.033 432.543 756.858C427.77 753.683 420.031 755.5 418.405 761.079C415.938 739.735 406 675.226 406 675.226" fill="white"/>
</g>
<path d="M365.427 675.263C359.333 686.185 356.325 698.635 356.74 711.215C356.919 716.335 357.884 722.006 361.888 725.071C365.891 728.136 373.327 725.659 372.898 720.575C371.915 731.99 373.434 742.69 377.956 751.774C379.325 754.497 381.405 756.776 383.963 758.354C386.521 759.933 389.456 760.75 392.44 760.714C395.425 760.678 398.34 759.79 400.861 758.15C403.382 756.509 405.409 754.181 406.715 751.425C410.894 743.046 412.848 733.684 412.381 724.282C411.327 707.196 406.304 691.339 401.21 675.024L365.462 675.373" fill="#FF6A3D"/>
<g opacity="0.5">
<path opacity="0.5" d="M365.427 675.263C359.333 686.185 356.325 698.635 356.74 711.215C356.919 716.335 357.884 722.006 361.888 725.071C365.891 728.136 373.327 725.659 372.898 720.575C371.915 731.99 373.434 742.69 377.956 751.774C379.325 754.497 381.405 756.776 383.963 758.354C386.521 759.933 389.456 760.75 392.44 760.714C395.425 760.678 398.34 759.79 400.861 758.15C403.382 756.509 405.409 754.181 406.715 751.425C410.894 743.046 412.848 733.684 412.381 724.282C411.327 707.196 406.304 691.339 401.21 675.024L365.462 675.373" fill="white"/>
</g>
<path d="M373.273 675.501C371.039 679.484 369.055 684.677 371.146 688.752C372.933 692.074 376.883 693.468 378.957 696.57C381.03 699.671 380.744 703.654 380.637 707.361C380.53 711.068 380.744 715.234 383.372 717.785C386.625 720.942 392.308 719.896 395.401 716.556C398.493 713.216 399.422 708.352 399.476 703.709C399.583 693.156 396.437 684.824 392.487 675.079" fill="#FF6A3D"/>
<g opacity="0.3">
<path opacity="0.3" d="M373.273 675.501C371.039 679.484 369.055 684.677 371.146 688.752C372.933 692.074 376.883 693.468 378.957 696.57C381.03 699.671 380.744 703.654 380.637 707.361C380.53 711.068 380.744 715.234 383.372 717.785C386.625 720.942 392.308 719.896 395.401 716.556C398.493 713.216 399.422 708.352 399.476 703.709C399.583 693.156 396.437 684.824 392.487 675.079" fill="white"/>
</g>
<path d="M297.238 736.395C297.241 738.048 296.767 739.665 295.875 741.041C294.982 742.417 293.712 743.49 292.226 744.124C290.739 744.759 289.102 744.926 287.523 744.604C285.944 744.282 284.493 743.487 283.355 742.318C282.216 741.149 281.441 739.659 281.128 738.038C280.815 736.416 280.977 734.736 281.595 733.209C282.213 731.683 283.258 730.379 284.598 729.462C285.938 728.546 287.513 728.059 289.123 728.063C291.274 728.068 293.335 728.947 294.856 730.509C296.377 732.07 297.233 734.187 297.238 736.395Z" fill="#FF6A3D"/>
<g opacity="0.8">
<path opacity="0.8" d="M297.238 736.395C297.241 738.048 296.767 739.665 295.875 741.041C294.982 742.417 293.712 743.49 292.226 744.124C290.739 744.759 289.102 744.926 287.523 744.604C285.944 744.282 284.493 743.487 283.355 742.318C282.216 741.149 281.441 739.659 281.128 738.038C280.815 736.416 280.977 734.736 281.595 733.209C282.213 731.683 283.258 730.379 284.598 729.462C285.938 728.546 287.513 728.059 289.123 728.063C291.274 728.068 293.335 728.947 294.856 730.509C296.377 732.07 297.233 734.187 297.238 736.395Z" fill="white"/>
</g>
<path d="M463.357 754.197C461.826 752.208 461.009 749.738 461.045 747.203C461.081 744.668 461.968 742.224 463.557 740.283C465.145 738.341 467.337 737.022 469.762 736.548C472.188 736.074 474.698 736.473 476.87 737.679C476.18 736.768 475.732 735.689 475.569 734.548C475.406 733.406 475.534 732.24 475.941 731.164C476.792 729.019 478.314 727.224 480.266 726.062C483.086 724.38 486.368 723.703 489.602 724.138C492.835 724.573 495.837 726.095 498.14 728.466C500.315 731.062 501.673 734.273 502.037 737.676C502.401 741.08 501.752 744.517 500.177 747.535C498.521 750.492 496.228 753.021 493.474 754.929C490.72 756.838 487.578 758.075 484.288 758.546C477.728 759.611 466.986 759.39 463.268 754.197" fill="#FF6A3D"/>
<g opacity="0.8">
<path opacity="0.8" d="M463.357 754.197C461.826 752.208 461.009 749.738 461.045 747.203C461.081 744.668 461.968 742.224 463.557 740.283C465.145 738.341 467.337 737.022 469.762 736.548C472.188 736.074 474.698 736.473 476.87 737.679C476.18 736.768 475.732 735.689 475.569 734.548C475.406 733.406 475.534 732.24 475.941 731.164C476.792 729.019 478.314 727.224 480.266 726.062C483.086 724.38 486.368 723.703 489.602 724.138C492.835 724.573 495.837 726.095 498.14 728.466C500.315 731.062 501.673 734.273 502.037 737.676C502.401 741.08 501.752 744.517 500.177 747.535C498.521 750.492 496.228 753.021 493.474 754.929C490.72 756.838 487.578 758.075 484.288 758.546C477.728 759.611 466.986 759.39 463.268 754.197" fill="white"/>
</g>
<path d="M336.453 300.486C336.453 300.486 342.709 353.708 378.224 355.341C419.334 357.177 421.318 300.486 421.318 300.486H336.453Z" fill="#263238"/>
<path d="M341.511 321.242C341.511 321.242 322.994 326.143 328.91 342.238L361.244 369.858C364.517 367.998 367.331 365.394 369.472 362.245C371.613 359.096 373.023 355.485 373.595 351.689L342.387 322.949" fill="#263238"/>
<path d="M336.453 300.486C336.453 300.486 379.046 342.366 421.318 300.486H336.453Z" fill="#455A64"/>
<path d="M385.982 161.245C385.982 161.336 385.955 161.424 385.906 161.5C385.857 161.575 385.787 161.634 385.706 161.669C385.624 161.704 385.534 161.713 385.448 161.695C385.361 161.677 385.281 161.634 385.219 161.569C385.156 161.505 385.114 161.423 385.096 161.334C385.079 161.245 385.088 161.153 385.122 161.069C385.156 160.986 385.213 160.914 385.286 160.863C385.36 160.813 385.446 160.786 385.535 160.786C385.653 160.786 385.767 160.834 385.851 160.921C385.935 161.007 385.982 161.123 385.982 161.245Z" fill="white"/>
<path d="M399.995 121.145H361.941V157.263H399.995V121.145Z" fill="#263238"/>
<path d="M388.484 140.709C388.484 140.709 407.984 140.25 410.737 120.668C412.077 111.198 413.257 91.5056 414.133 73.6486C415.098 54.4519 402.854 34.8881 381.138 34.9799C361.101 33.475 348.679 50.1207 347.767 70.7122C347.767 70.7122 349.251 112.336 352.611 121.861C355.971 131.386 366.463 142.048 383.854 140.782" fill="#FF6A3D"/>
<path d="M400.656 75.4102H361.28C356.502 75.4102 352.629 79.387 352.629 84.2928V84.6415C352.629 89.5472 356.502 93.5241 361.28 93.5241H400.656C405.434 93.5241 409.307 89.5472 409.307 84.6415V84.2928C409.307 79.387 405.434 75.4102 400.656 75.4102Z" fill="#263238"/>
<path d="M399.977 84.3481C399.977 85.1029 399.689 85.8275 399.174 86.3663C398.659 86.9051 397.959 87.2151 397.224 87.2295C396.867 87.2493 396.51 87.195 396.173 87.0699C395.837 86.9448 395.529 86.7515 395.267 86.5014C395.005 86.2513 394.795 85.9497 394.649 85.6144C394.503 85.2792 394.425 84.9171 394.418 84.55C394.432 83.7954 394.734 83.0766 395.259 82.5481C395.783 82.0196 396.489 81.7236 397.224 81.7237C397.926 81.7037 398.608 81.9675 399.123 82.4582C399.638 82.949 399.944 83.6276 399.977 84.3481Z" fill="white"/>
<path d="M347.874 87.9638C347.874 94.4606 346.694 99.7461 345.247 99.7461C343.799 99.7461 342.619 94.4606 342.619 87.9638C342.619 81.467 343.799 76.1631 345.247 76.1631C346.694 76.1631 347.874 81.4486 347.874 87.9638Z" fill="#263238"/>
<path d="M350.323 87.9636C350.323 94.4604 349.036 99.7459 347.445 99.7459H345.39C344.21 98.2777 344.639 93.2858 344.639 87.9636C344.639 82.6414 343.996 77.7045 345.175 76.218C345.443 75.8693 347.213 76.218 347.517 76.218C348.964 76.218 350.323 81.4484 350.323 87.9636Z" fill="#263238"/>
<path d="M413.417 87.2296C413.417 80.7144 414.597 75.4473 416.045 75.4473C417.493 75.4473 418.672 80.7144 418.672 87.2296C418.672 93.7447 417.493 99.0303 416.045 99.0303C414.597 99.0303 413.417 93.7447 413.417 87.2296Z" fill="#263238"/>
<path d="M410.969 87.2296C410.969 80.7144 412.256 75.4473 413.847 75.4473H415.956C417.136 76.8971 416.707 81.9073 416.707 87.2296C416.707 92.5518 417.35 97.4886 416.188 98.9752C415.92 99.3239 414.133 98.9752 413.847 98.9752C412.256 99.0303 410.969 93.7447 410.969 87.2296Z" fill="#263238"/>
<g opacity="0.3">
<path opacity="0.3" d="M412.757 98.2407C412.757 99.2318 411.81 111.693 410.969 119.016C410.219 125.494 408.306 130.798 403.409 134.964C399.49 138.48 394.567 140.598 389.378 141.002C383.068 141.571 376.705 141.755 370.718 139.681C364.73 137.607 358.492 133.423 355.471 127.733C355.471 127.733 382.282 142.415 400.352 129.991C400.352 129.991 406.966 126.779 409.289 112.666C411.524 99.14 412.757 98.2407 412.757 98.2407Z" fill="black"/>
</g>
<path d="M400.263 96.0939C400.263 96.0939 400.763 96.0939 401.71 95.8737C403.081 95.6572 404.394 95.1577 405.571 94.4055C407.449 93.2442 408.929 91.5127 409.807 89.4503C410.343 88.1742 410.629 86.8022 410.647 85.4128C410.724 83.8549 410.48 82.2979 409.932 80.843C409.303 79.1857 408.28 77.7164 406.957 76.5688C405.633 75.4213 404.051 74.632 402.354 74.2728C400.407 74.0545 398.448 73.987 396.491 74.0709H390.182H362.031C359.682 74.0688 357.404 74.8955 355.579 76.4124C353.753 77.9293 352.491 80.0442 352.003 82.4029C351.563 84.6506 351.756 86.9804 352.557 89.12C353.378 91.094 354.757 92.7691 356.517 93.9277C358.276 95.0863 360.334 95.6748 362.424 95.6168H368.376H379.1L394.597 95.7819H398.797C399.29 95.7312 399.787 95.7312 400.281 95.7819C399.787 95.8208 399.291 95.8208 398.797 95.7819L394.597 95.8737L379.1 96.0205H368.376H362.424C360.159 96.0986 357.923 95.473 356.01 94.2254C354.096 92.9779 352.594 91.1665 351.699 89.0282C350.797 86.6964 350.58 84.1444 351.074 81.6872C351.594 79.1041 352.963 76.783 354.951 75.1125C356.939 73.442 359.426 72.5236 361.995 72.5109H390.146H396.456C398.467 72.4212 400.482 72.5072 402.479 72.7679C404.287 73.1712 405.968 74.0298 407.372 75.2665C408.776 76.5031 409.859 78.0789 410.522 79.8519C411.586 82.8336 411.484 86.1225 410.236 89.0282C409.291 91.161 407.715 92.9335 405.732 94.0935C404.495 94.8336 403.117 95.2906 401.693 95.4332C401.242 95.7077 400.762 95.9293 400.263 96.0939Z" fill="white"/>
<path d="M381.138 34.98C381.423 36.8495 381.554 38.7404 381.531 40.6326C381.656 44.1195 381.781 48.9646 381.835 54.3052C381.888 59.6458 381.924 64.4908 381.835 67.9962C381.906 69.8842 381.822 71.7751 381.585 73.6487C381.299 71.779 381.162 69.8887 381.174 67.9962C381.048 64.4908 380.941 59.6641 380.87 54.3235C380.798 48.983 380.87 44.1562 380.87 40.6509C380.809 38.7563 380.898 36.8597 381.138 34.98Z" fill="white"/>
<path d="M381.96 141.296C381.71 141.296 381.495 131.33 381.495 119.034C381.495 106.738 381.71 96.791 381.96 96.791C382.21 96.791 382.425 106.738 382.425 119.034C382.425 131.33 382.228 141.296 381.96 141.296Z" fill="white"/>
<path d="M384.516 48.6893C384.516 48.78 384.49 48.8687 384.44 48.9442C384.391 49.0196 384.322 49.0784 384.24 49.1132C384.158 49.1479 384.068 49.157 383.982 49.1393C383.895 49.1216 383.815 49.0779 383.753 49.0137C383.69 48.9495 383.648 48.8678 383.631 48.7788C383.613 48.6898 383.622 48.5975 383.656 48.5137C383.69 48.4299 383.747 48.3582 383.821 48.3078C383.894 48.2574 383.981 48.2305 384.069 48.2305C384.187 48.2305 384.301 48.2788 384.385 48.3649C384.469 48.4509 384.516 48.5676 384.516 48.6893Z" fill="white"/>
<path d="M386.5 116.979C386.5 117.07 386.474 117.158 386.425 117.234C386.376 117.309 386.306 117.368 386.224 117.403C386.143 117.437 386.053 117.447 385.966 117.429C385.879 117.411 385.8 117.367 385.737 117.303C385.675 117.239 385.632 117.157 385.615 117.068C385.598 116.979 385.607 116.887 385.64 116.803C385.674 116.719 385.732 116.648 385.805 116.597C385.879 116.547 385.965 116.52 386.053 116.52C386.172 116.52 386.285 116.568 386.369 116.654C386.453 116.74 386.5 116.857 386.5 116.979Z" fill="white"/>
<path d="M384.963 57.6453C384.963 57.7361 384.936 57.8248 384.887 57.9002C384.838 57.9757 384.768 58.0345 384.687 58.0692C384.605 58.104 384.515 58.113 384.429 58.0953C384.342 58.0776 384.262 58.0339 384.2 57.9698C384.137 57.9056 384.095 57.8239 384.077 57.7349C384.06 57.6458 384.069 57.5536 384.103 57.4698C384.137 57.3859 384.194 57.3143 384.267 57.2639C384.341 57.2134 384.427 57.1865 384.516 57.1865C384.634 57.1865 384.748 57.2349 384.832 57.3209C384.915 57.407 384.963 57.5237 384.963 57.6453Z" fill="white"/>
<path d="M386.5 102.609C386.5 102.699 386.474 102.788 386.425 102.864C386.376 102.939 386.306 102.998 386.224 103.033C386.143 103.067 386.053 103.076 385.966 103.059C385.879 103.041 385.8 102.997 385.737 102.933C385.675 102.869 385.632 102.787 385.615 102.698C385.598 102.609 385.607 102.517 385.64 102.433C385.674 102.349 385.732 102.278 385.805 102.227C385.879 102.177 385.965 102.15 386.053 102.15C386.172 102.15 386.285 102.198 386.369 102.284C386.453 102.37 386.5 102.487 386.5 102.609Z" fill="white"/>
<path d="M416.153 98.8648C415.457 97.9593 414.952 96.9158 414.669 95.7999C413.788 93.1702 413.317 90.4138 413.275 87.6331C413.227 84.846 413.62 82.0694 414.437 79.4111C414.708 78.2968 415.181 77.2447 415.831 76.3096C414.855 79.9986 414.309 83.7935 414.204 87.6147C414.408 91.4318 415.062 95.2094 416.153 98.8648Z" fill="#455A64"/>
<path d="M344.693 100.719C344.55 100.719 345.336 99.3788 346.051 97.1398C346.935 94.2035 347.381 91.1468 347.374 88.0736C347.374 86.2384 347.374 84.5316 347.374 82.9533C347.422 81.5869 347.314 80.2196 347.052 78.879C346.954 78.4532 346.772 78.0527 346.517 77.7022C346.261 77.3518 345.939 77.0589 345.569 76.8419C345.033 76.5482 344.657 76.5849 344.657 76.4932C344.657 76.4014 345.033 76.273 345.712 76.4932C346.177 76.674 346.596 76.9614 346.936 77.3335C347.277 77.7056 347.531 78.1526 347.678 78.6404C348.05 80.0273 348.236 81.4597 348.232 82.8982C348.232 84.4765 348.375 86.2384 348.232 88.0736C348.245 91.245 347.694 94.3922 346.605 97.36C346.223 98.6134 345.569 99.7616 344.693 100.719Z" fill="#455A64"/>
<path d="M368.626 86.4585C368.465 86.4585 368.626 85.7244 368.215 84.7701C367.982 84.1697 367.579 83.6549 367.058 83.2922C366.537 82.9295 365.922 82.7356 365.293 82.7356C364.663 82.7356 364.048 82.9295 363.527 83.2922C363.006 83.6549 362.603 84.1697 362.37 84.7701C361.959 85.7244 362.066 86.4402 361.923 86.4585C361.78 86.4769 361.441 85.7611 361.745 84.6233C361.936 83.9113 362.328 83.273 362.871 82.788C363.344 82.3631 363.915 82.0701 364.53 81.9374C365.145 81.8047 365.783 81.8366 366.383 82.0301C366.982 82.2236 367.523 82.5723 367.954 83.0425C368.384 83.5127 368.689 84.0886 368.84 84.715C369.18 85.7795 368.787 86.5136 368.626 86.4585Z" fill="white"/>
<path d="M399.905 150.931C393.625 151.414 387.326 151.574 381.031 151.408C374.735 151.574 368.436 151.414 362.156 150.931C362.156 150.674 370.61 150.454 381.031 150.454C391.451 150.454 399.905 150.674 399.905 150.931Z" fill="#455A64"/>
<path d="M399.905 146.233C393.625 146.716 387.326 146.875 381.031 146.71C374.735 146.875 368.436 146.716 362.156 146.233C362.156 145.976 370.61 145.755 381.031 145.755C391.451 145.755 399.905 145.957 399.905 146.233Z" fill="#455A64"/>
<path d="M378.135 155.391C378.135 155.391 323.834 157.74 315.255 179.359C306.675 200.978 310.5 280.903 340.153 287.382C358.849 291.475 390.075 290.41 410.54 289.052C416.594 288.648 422.368 286.29 427.039 282.316C431.709 278.341 435.037 272.952 436.547 266.919C442.82 241.923 450.452 200.024 439.156 176.111C426.948 162.603 406.393 155.849 378.135 155.391Z" fill="#FF6A3D"/>
<path d="M402.3 185.599H355.31C341.579 185.599 330.447 197.029 330.447 211.127V212.137C330.447 226.236 341.579 237.665 355.31 237.665H402.3C416.031 237.665 427.163 226.236 427.163 212.137V211.127C427.163 197.029 416.031 185.599 402.3 185.599Z" fill="#263238"/>
<path d="M386.875 255.21C386.875 255.301 386.849 255.389 386.8 255.465C386.751 255.54 386.681 255.599 386.599 255.634C386.518 255.668 386.428 255.677 386.341 255.66C386.254 255.642 386.175 255.598 386.112 255.534C386.05 255.47 386.007 255.388 385.99 255.299C385.973 255.21 385.982 255.118 386.015 255.034C386.049 254.95 386.107 254.879 386.18 254.828C386.254 254.778 386.34 254.751 386.428 254.751C386.547 254.751 386.66 254.799 386.744 254.885C386.828 254.971 386.875 255.088 386.875 255.21Z" fill="white"/>
<path d="M396.045 247.832C396.045 247.923 396.018 248.012 395.969 248.087C395.92 248.163 395.85 248.222 395.769 248.256C395.687 248.291 395.597 248.3 395.511 248.282C395.424 248.265 395.344 248.221 395.282 248.157C395.219 248.093 395.177 248.011 395.159 247.922C395.142 247.833 395.151 247.741 395.185 247.657C395.219 247.573 395.276 247.501 395.349 247.451C395.423 247.4 395.509 247.374 395.598 247.374C395.716 247.374 395.83 247.422 395.914 247.508C395.997 247.594 396.045 247.711 396.045 247.832Z" fill="white"/>
<path d="M414.276 246.896C414.276 247.018 414.228 247.135 414.145 247.221C414.061 247.307 413.947 247.355 413.829 247.355C413.71 247.355 413.596 247.307 413.513 247.221C413.429 247.135 413.382 247.018 413.382 246.896C413.382 246.775 413.429 246.658 413.513 246.572C413.596 246.486 413.71 246.438 413.829 246.438C413.947 246.438 414.061 246.486 414.145 246.572C414.228 246.658 414.276 246.775 414.276 246.896Z" fill="white"/>
<path d="M427.61 239.555C427.61 239.677 427.562 239.794 427.479 239.88C427.395 239.966 427.281 240.014 427.163 240.014C427.044 240.014 426.93 239.966 426.847 239.88C426.763 239.794 426.716 239.677 426.716 239.555C426.716 239.434 426.763 239.317 426.847 239.231C426.93 239.145 427.044 239.097 427.163 239.097C427.281 239.097 427.395 239.145 427.479 239.231C427.562 239.317 427.61 239.434 427.61 239.555Z" fill="white"/>
<path d="M435.903 227.479C435.903 227.57 435.877 227.659 435.828 227.734C435.779 227.81 435.709 227.868 435.627 227.903C435.545 227.938 435.456 227.947 435.369 227.929C435.282 227.912 435.203 227.868 435.14 227.804C435.078 227.74 435.035 227.658 435.018 227.569C435.001 227.48 435.009 227.388 435.043 227.304C435.077 227.22 435.134 227.148 435.208 227.098C435.281 227.047 435.368 227.021 435.456 227.021C435.575 227.021 435.688 227.069 435.772 227.155C435.856 227.241 435.903 227.358 435.903 227.479Z" fill="white"/>
<path d="M438.923 214.651C438.923 214.742 438.897 214.831 438.848 214.906C438.799 214.982 438.729 215.04 438.648 215.075C438.566 215.11 438.476 215.119 438.389 215.101C438.303 215.084 438.223 215.04 438.161 214.976C438.098 214.911 438.056 214.83 438.038 214.741C438.021 214.652 438.03 214.559 438.064 214.476C438.098 214.392 438.155 214.32 438.228 214.27C438.302 214.219 438.388 214.192 438.477 214.192C438.595 214.192 438.709 214.241 438.793 214.327C438.876 214.413 438.923 214.53 438.923 214.651Z" fill="white"/>
<path d="M437.566 202.226C437.566 202.317 437.539 202.406 437.49 202.481C437.441 202.557 437.371 202.616 437.29 202.65C437.208 202.685 437.118 202.694 437.032 202.676C436.945 202.659 436.865 202.615 436.803 202.551C436.74 202.487 436.698 202.405 436.68 202.316C436.663 202.227 436.672 202.135 436.706 202.051C436.74 201.967 436.797 201.895 436.871 201.845C436.944 201.794 437.03 201.768 437.119 201.768C437.237 201.768 437.351 201.816 437.435 201.902C437.518 201.988 437.566 202.105 437.566 202.226Z" fill="white"/>
<path d="M431.989 190.004C431.989 190.094 431.963 190.183 431.914 190.259C431.865 190.334 431.795 190.393 431.713 190.428C431.631 190.462 431.542 190.471 431.455 190.454C431.368 190.436 431.289 190.392 431.226 190.328C431.164 190.264 431.121 190.182 431.104 190.093C431.087 190.004 431.095 189.912 431.129 189.828C431.163 189.744 431.22 189.673 431.294 189.622C431.367 189.572 431.454 189.545 431.542 189.545C431.661 189.545 431.774 189.593 431.858 189.679C431.942 189.765 431.989 189.882 431.989 190.004Z" fill="white"/>
<path d="M424.035 182.149C424.035 182.239 424.009 182.328 423.959 182.404C423.91 182.479 423.841 182.538 423.759 182.573C423.677 182.607 423.587 182.616 423.501 182.599C423.414 182.581 423.334 182.537 423.272 182.473C423.209 182.409 423.167 182.327 423.15 182.238C423.132 182.149 423.141 182.057 423.175 181.973C423.209 181.889 423.266 181.818 423.34 181.767C423.413 181.717 423.5 181.69 423.588 181.69C423.706 181.69 423.82 181.738 423.904 181.824C423.988 181.91 424.035 182.027 424.035 182.149Z" fill="white"/>
<path d="M412.56 177.157C412.56 177.278 412.513 177.395 412.429 177.481C412.345 177.567 412.231 177.615 412.113 177.615C411.994 177.615 411.881 177.567 411.797 177.481C411.713 177.395 411.666 177.278 411.666 177.157C411.666 177.035 411.713 176.918 411.797 176.832C411.881 176.746 411.994 176.698 412.113 176.698C412.231 176.698 412.345 176.746 412.429 176.832C412.513 176.918 412.56 177.035 412.56 177.157Z" fill="white"/>
<path d="M398.1 176.771C398.1 176.893 398.053 177.01 397.969 177.096C397.885 177.182 397.771 177.23 397.653 177.23C397.534 177.23 397.421 177.182 397.337 177.096C397.253 177.01 397.206 176.893 397.206 176.771C397.206 176.65 397.253 176.533 397.337 176.447C397.421 176.361 397.534 176.312 397.653 176.312C397.771 176.312 397.885 176.361 397.969 176.447C398.053 176.533 398.1 176.65 398.1 176.771Z" fill="white"/>
<path d="M384.408 177.157C384.408 177.247 384.382 177.336 384.333 177.411C384.284 177.487 384.214 177.546 384.132 177.58C384.051 177.615 383.961 177.624 383.874 177.607C383.788 177.589 383.708 177.545 383.646 177.481C383.583 177.417 383.54 177.335 383.523 177.246C383.506 177.157 383.515 177.065 383.549 176.981C383.582 176.897 383.64 176.825 383.713 176.775C383.787 176.725 383.873 176.698 383.961 176.698C384.08 176.698 384.194 176.746 384.277 176.832C384.361 176.918 384.408 177.035 384.408 177.157Z" fill="white"/>
<path d="M368.394 176.312C368.394 176.403 368.367 176.492 368.318 176.567C368.269 176.643 368.199 176.701 368.118 176.736C368.036 176.771 367.946 176.78 367.86 176.762C367.773 176.745 367.693 176.701 367.631 176.637C367.568 176.573 367.526 176.491 367.509 176.402C367.491 176.313 367.5 176.221 367.534 176.137C367.568 176.053 367.625 175.981 367.699 175.931C367.772 175.88 367.858 175.854 367.947 175.854C368.065 175.854 368.179 175.902 368.263 175.988C368.347 176.074 368.394 176.191 368.394 176.312Z" fill="white"/>
<path d="M353.272 176.312C353.272 176.434 353.225 176.551 353.141 176.637C353.057 176.723 352.944 176.771 352.825 176.771C352.707 176.771 352.593 176.723 352.509 176.637C352.426 176.551 352.378 176.434 352.378 176.312C352.378 176.191 352.426 176.074 352.509 175.988C352.593 175.902 352.707 175.854 352.825 175.854C352.944 175.854 353.057 175.902 353.141 175.988C353.225 176.074 353.272 176.191 353.272 176.312Z" fill="white"/>
<path d="M337.99 180.277C337.99 180.398 337.943 180.515 337.859 180.601C337.775 180.687 337.662 180.735 337.543 180.735C337.426 180.731 337.315 180.681 337.232 180.596C337.149 180.511 337.101 180.397 337.096 180.277C337.096 180.155 337.143 180.038 337.227 179.952C337.311 179.866 337.425 179.818 337.543 179.818C337.662 179.818 337.775 179.866 337.859 179.952C337.943 180.038 337.99 180.155 337.99 180.277Z" fill="white"/>
<path d="M324.567 190.37C324.567 190.461 324.541 190.55 324.492 190.625C324.443 190.701 324.373 190.76 324.291 190.794C324.21 190.829 324.12 190.838 324.033 190.82C323.946 190.803 323.867 190.759 323.804 190.695C323.742 190.631 323.699 190.549 323.682 190.46C323.665 190.371 323.674 190.279 323.707 190.195C323.741 190.111 323.798 190.039 323.872 189.989C323.945 189.939 324.032 189.912 324.12 189.912C324.239 189.912 324.352 189.96 324.436 190.046C324.52 190.132 324.567 190.249 324.567 190.37Z" fill="white"/>
<path d="M318.579 206.227C318.579 206.318 318.553 206.407 318.504 206.482C318.455 206.558 318.385 206.617 318.303 206.651C318.222 206.686 318.132 206.695 318.045 206.677C317.959 206.66 317.879 206.616 317.816 206.552C317.754 206.488 317.711 206.406 317.694 206.317C317.677 206.228 317.686 206.136 317.72 206.052C317.753 205.968 317.811 205.896 317.884 205.846C317.958 205.795 318.044 205.769 318.132 205.769C318.251 205.769 318.365 205.817 318.448 205.903C318.532 205.989 318.579 206.106 318.579 206.227Z" fill="white"/>
<path d="M319.884 222.322C319.884 222.444 319.837 222.56 319.753 222.647C319.669 222.733 319.556 222.781 319.437 222.781C319.319 222.781 319.205 222.733 319.121 222.647C319.037 222.56 318.99 222.444 318.99 222.322C318.99 222.2 319.037 222.084 319.121 221.998C319.205 221.912 319.319 221.863 319.437 221.863C319.556 221.863 319.669 221.912 319.753 221.998C319.837 222.084 319.884 222.2 319.884 222.322Z" fill="white"/>
<path d="M327.194 235.243C327.194 235.333 327.168 235.422 327.119 235.497C327.07 235.573 327 235.632 326.919 235.666C326.837 235.701 326.747 235.71 326.66 235.693C326.574 235.675 326.494 235.631 326.432 235.567C326.369 235.503 326.327 235.421 326.309 235.332C326.292 235.243 326.301 235.151 326.335 235.067C326.369 234.983 326.426 234.911 326.499 234.861C326.573 234.811 326.659 234.784 326.748 234.784C326.866 234.784 326.98 234.832 327.064 234.918C327.147 235.004 327.194 235.121 327.194 235.243Z" fill="white"/>
<path d="M340.117 246.456C340.117 246.547 340.091 246.635 340.042 246.711C339.993 246.786 339.923 246.845 339.841 246.88C339.76 246.915 339.67 246.924 339.583 246.906C339.497 246.888 339.417 246.845 339.355 246.78C339.292 246.716 339.249 246.634 339.232 246.545C339.215 246.456 339.224 246.364 339.258 246.28C339.291 246.196 339.349 246.125 339.422 246.074C339.496 246.024 339.582 245.997 339.67 245.997C339.789 245.997 339.903 246.045 339.986 246.131C340.07 246.218 340.117 246.334 340.117 246.456Z" fill="white"/>
<path d="M357.795 246.896C357.795 247.018 357.747 247.135 357.664 247.221C357.58 247.307 357.466 247.355 357.348 247.355C357.229 247.355 357.116 247.307 357.032 247.221C356.948 247.135 356.901 247.018 356.901 246.896C356.901 246.775 356.948 246.658 357.032 246.572C357.116 246.486 357.229 246.438 357.348 246.438C357.466 246.438 357.58 246.486 357.664 246.572C357.747 246.658 357.795 246.775 357.795 246.896Z" fill="white"/>
<path d="M374.757 247.373C374.757 247.464 374.731 247.553 374.682 247.628C374.633 247.704 374.563 247.763 374.481 247.797C374.399 247.832 374.31 247.841 374.223 247.823C374.136 247.806 374.057 247.762 373.994 247.698C373.932 247.634 373.889 247.552 373.872 247.463C373.855 247.374 373.863 247.282 373.897 247.198C373.931 247.114 373.988 247.042 374.062 246.992C374.135 246.941 374.222 246.915 374.31 246.915C374.429 246.915 374.542 246.963 374.626 247.049C374.71 247.135 374.757 247.252 374.757 247.373Z" fill="white"/>
<path d="M386.5 271.672C386.5 271.763 386.474 271.852 386.425 271.927C386.376 272.003 386.306 272.061 386.224 272.096C386.143 272.131 386.053 272.14 385.966 272.122C385.879 272.104 385.8 272.061 385.737 271.997C385.675 271.932 385.632 271.851 385.615 271.762C385.598 271.673 385.607 271.58 385.64 271.497C385.674 271.413 385.732 271.341 385.805 271.291C385.879 271.24 385.965 271.213 386.053 271.213C386.172 271.213 386.285 271.262 386.369 271.348C386.453 271.434 386.5 271.551 386.5 271.672Z" fill="white"/>
<path d="M379.207 203.952V221.075H375.346V214.046H367.768V221.075H363.907V203.952H367.768V210.705H375.346V203.952H379.207Z" fill="white"/>
<path d="M382.46 203.951C382.464 203.652 382.528 203.357 382.648 203.085C382.769 202.812 382.943 202.568 383.159 202.368C383.376 202.168 383.63 202.017 383.907 201.923C384.184 201.829 384.476 201.795 384.766 201.823C385.052 201.789 385.342 201.817 385.617 201.905C385.892 201.992 386.147 202.137 386.365 202.33C386.583 202.523 386.76 202.76 386.885 203.026C387.009 203.293 387.079 203.583 387.09 203.878C387.039 204.472 386.773 205.025 386.344 205.428C385.916 205.831 385.356 206.055 384.775 206.055C384.194 206.055 383.634 205.831 383.206 205.428C382.777 205.025 382.511 204.472 382.46 203.878V203.951ZM382.907 207.916H386.643V221.074H382.925L382.907 207.916Z" fill="white"/>
<path d="M389.539 219.056C389.539 218.433 389.78 217.835 390.209 217.395C390.638 216.954 391.22 216.707 391.826 216.707C392.433 216.707 393.015 216.954 393.444 217.395C393.873 217.835 394.114 218.433 394.114 219.056C394.114 219.679 393.873 220.276 393.444 220.717C393.015 221.157 392.433 221.405 391.826 221.405C391.22 221.405 390.638 221.157 390.209 220.717C389.78 220.276 389.539 219.679 389.539 219.056ZM389.539 203.952H393.971L393.238 215.128H390.289L389.539 203.952Z" fill="white"/>
<path d="M380.262 180.827C379.802 176.685 379.647 172.513 379.797 168.347C379.646 164.181 379.802 160.01 380.262 155.868C380.722 160.01 380.877 164.181 380.726 168.347C380.876 172.513 380.721 176.685 380.262 180.827Z" fill="white"/>
<path d="M380.798 288.226C380.548 288.226 380.333 278.004 380.333 265.378C380.333 252.751 380.548 242.51 380.798 242.51C381.048 242.51 381.281 252.751 381.281 265.378C381.281 278.004 381.138 288.226 380.798 288.226Z" fill="white"/>
<path d="M403.533 242.51C407.279 242.373 410.974 241.572 414.454 240.142C418.519 238.444 422.155 235.821 425.089 232.471C426.932 230.404 428.473 228.073 429.665 225.552C431.044 222.748 431.956 219.727 432.364 216.614C433.441 209.465 432.117 202.151 428.61 195.876C426.562 192.341 423.831 189.273 420.585 186.861C417.339 184.45 413.647 182.746 409.736 181.855C405.607 180.864 401.192 181.286 396.706 181.194H354.059C349.296 181.194 344.606 182.395 340.401 184.693C336.197 186.991 332.606 190.314 329.947 194.371C327.452 198.231 325.85 202.625 325.264 207.218C324.72 211.64 325.024 216.129 326.158 220.432C327.271 224.378 329.167 228.044 331.726 231.203C334.285 234.361 337.452 236.942 341.029 238.784C344.281 240.462 347.808 241.507 351.431 241.867L354.023 241.996H361.583L392.273 242.143L400.638 242.235H402.8C403.044 242.211 403.29 242.211 403.533 242.235H402.8H400.638L392.273 242.326L361.583 242.473H354.023L351.377 242.345C345.382 241.785 339.69 239.385 335.042 235.457C330.394 231.529 327.005 226.255 325.317 220.322C324.146 215.901 323.83 211.287 324.388 206.741C324.977 201.992 326.622 197.445 329.196 193.454C331.927 189.256 335.625 185.816 339.963 183.441C344.3 181.065 349.142 179.827 354.059 179.836H403.337L406.643 180.001C407.734 180.185 408.824 180.313 409.878 180.552C413.947 181.521 417.774 183.352 421.113 185.928C424.453 188.503 427.232 191.767 429.272 195.509C432.82 201.942 434.126 209.426 432.972 216.725C432.547 219.924 431.598 223.027 430.165 225.901C428.928 228.457 427.332 230.813 425.429 232.893C422.432 236.277 418.712 238.903 414.561 240.564C411.954 241.608 409.216 242.269 406.429 242.528H404.248L403.533 242.51Z" fill="white"/>
<g opacity="0.3">
<path opacity="0.3" d="M317.668 258.367C334.469 272.406 354.577 286.152 376.812 286.611C399.274 286.957 421.014 278.474 437.583 262.9C437.583 262.9 434.581 285.29 413.633 288.593C400.263 290.741 377.617 290.667 361.798 289.86C352.862 289.419 346.177 288.355 344.532 288.171C339.009 287.566 329.125 285.712 323.084 271.929C322.154 269.855 321.082 268.149 320.456 266.662C317.025 258.569 317.668 258.367 317.668 258.367Z" fill="black"/>
</g>
<path d="M418.941 288.043H338.652C337.388 288.043 336.364 289.094 336.364 290.392V290.465C336.364 291.763 337.388 292.814 338.652 292.814H418.941C420.204 292.814 421.229 291.763 421.229 290.465V290.392C421.229 289.094 420.204 288.043 418.941 288.043Z" fill="#263238"/>
<path d="M376.705 354.901C376.041 354.897 375.38 354.805 374.739 354.626C372.96 354.231 371.21 353.71 369.502 353.066C363.833 350.949 358.642 347.673 354.243 343.437C349.843 339.2 346.327 334.091 343.906 328.418C343.185 326.71 342.587 324.95 342.119 323.151C341.898 322.505 341.76 321.833 341.708 321.151C341.869 321.151 342.584 323.922 344.55 328.125C349.68 339.205 358.693 347.889 369.788 352.442C373.988 354.185 376.741 354.736 376.705 354.901Z" fill="#455A64"/>
<path d="M419.262 321.297C419.262 321.297 437.78 326.197 431.863 342.293L399.53 369.968C396.257 368.108 393.442 365.504 391.301 362.355C389.161 359.205 387.75 355.595 387.179 351.799L418.386 323.059" fill="#263238"/>
<path d="M384.069 354.956C384.069 354.791 386.821 354.222 391.04 352.478C402.138 347.941 411.154 339.26 416.278 328.18C418.244 323.977 418.959 321.151 419.119 321.206C419.066 321.888 418.928 322.56 418.708 323.206C418.243 325.006 417.645 326.766 416.921 328.473C414.501 334.146 410.984 339.255 406.585 343.492C402.185 347.728 396.994 351.004 391.326 353.121C389.62 353.769 387.87 354.285 386.089 354.662C385.432 354.856 384.752 354.955 384.069 354.956Z" fill="#455A64"/>
<path d="M381.137 355.378C380.677 349.469 380.522 343.539 380.673 337.613C380.522 331.681 380.677 325.745 381.137 319.829C381.598 325.745 381.753 331.681 381.602 337.613C381.752 343.539 381.597 349.469 381.137 355.378Z" fill="#455A64"/>
<path d="M332.378 488.507L318.347 501.537C318.347 501.537 316.739 549.034 334.434 593.135C352.129 637.236 363.675 650.156 363.675 650.156L376.955 649.275L366.839 490.416L352.29 487.167L332.378 488.507Z" fill="#FF6A3D"/>
<g opacity="0.3">
<path opacity="0.3" d="M346.552 487.663L368.411 645.219L377.027 646.265L366.856 490.416L352.307 487.167L346.552 487.663Z" fill="black"/>
</g>
<path d="M368.411 645.146C368.143 645.146 363.049 609.964 357.133 566.469C351.217 522.973 346.534 487.681 346.802 487.645C347.07 487.608 352.164 522.826 358.062 566.34C363.961 609.854 368.626 645.146 368.411 645.146Z" fill="white"/>
<path d="M357.634 528.149C357.639 528.209 357.632 528.27 357.614 528.327C357.596 528.385 357.567 528.438 357.529 528.484C357.49 528.53 357.444 528.568 357.391 528.596C357.339 528.623 357.281 528.639 357.223 528.644C357.102 528.649 356.985 528.606 356.895 528.524C356.805 528.442 356.749 528.327 356.74 528.204C356.738 528.143 356.747 528.083 356.767 528.027C356.787 527.97 356.818 527.918 356.858 527.874C356.898 527.829 356.946 527.794 356.999 527.768C357.053 527.743 357.11 527.729 357.169 527.727C357.285 527.721 357.398 527.763 357.484 527.841C357.571 527.92 357.625 528.03 357.634 528.149Z" fill="white"/>
<path d="M362.674 566.854C362.679 566.975 362.64 567.093 362.563 567.185C362.487 567.277 362.38 567.336 362.263 567.35C362.143 567.355 362.025 567.312 361.935 567.23C361.845 567.147 361.789 567.033 361.78 566.909C361.78 566.788 361.827 566.671 361.911 566.585C361.995 566.499 362.109 566.45 362.227 566.45C362.346 566.45 362.459 566.499 362.543 566.585C362.627 566.671 362.674 566.788 362.674 566.909V566.854Z" fill="white"/>
<path d="M367.893 611.34C367.898 611.401 367.891 611.461 367.873 611.519C367.855 611.577 367.826 611.63 367.788 611.676C367.75 611.722 367.703 611.76 367.651 611.787C367.598 611.815 367.541 611.831 367.482 611.836C367.364 611.841 367.249 611.801 367.16 611.723C367.07 611.644 367.013 611.534 366.999 611.414C366.994 611.29 367.036 611.17 367.116 611.077C367.196 610.985 367.308 610.928 367.428 610.918C367.544 610.913 367.657 610.954 367.744 611.033C367.83 611.112 367.884 611.222 367.893 611.34Z" fill="white"/>
<path d="M351.646 496.49C351.651 496.614 351.609 496.735 351.529 496.827C351.449 496.92 351.337 496.977 351.217 496.986C351.098 496.986 350.985 496.938 350.901 496.852C350.817 496.766 350.77 496.649 350.77 496.527C350.77 496.405 350.817 496.289 350.901 496.203C350.985 496.117 351.098 496.068 351.217 496.068C351.325 496.076 351.427 496.123 351.506 496.2C351.584 496.277 351.634 496.38 351.646 496.49Z" fill="white"/>
<path d="M328.91 342.329H315.97C315.97 342.329 299.883 425.338 328.91 462.979H351.539C351.539 462.979 361.244 444.149 361.244 434.202V369.858L328.91 342.329Z" fill="#FF6A3D"/>
<g opacity="0.3">
<path opacity="0.3" d="M320.045 447.031L344.782 437.01V355.837L361.244 369.913L361.065 433.982C361.07 436.075 360.848 438.161 360.404 440.203C358.592 448.196 355.577 455.849 351.467 462.887H328.91C325.252 458.051 322.268 452.714 320.045 447.031Z" fill="black"/>
</g>
<path d="M344.782 355.837C344.865 356.198 344.901 356.568 344.89 356.938C344.89 357.764 344.89 358.773 344.979 360.095C344.979 362.958 344.979 366.903 345.122 371.712C345.122 381.641 345.211 395.148 345.265 410.069C345.265 419.924 345.265 429.137 345.265 437.01V437.304L345.015 437.395L327.016 444.498L321.94 446.425C321.362 446.679 320.764 446.881 320.152 447.031C320.725 446.7 321.322 446.417 321.94 446.186L326.927 444.039L344.8 436.698L344.55 437.084C344.55 429.21 344.55 419.997 344.55 410.142C344.55 395.221 344.657 381.714 344.693 371.785C344.693 366.977 344.8 363.031 344.836 360.168C344.836 358.883 344.836 357.837 344.925 357.011C344.846 356.625 344.799 356.232 344.782 355.837Z" fill="white"/>
<path d="M348.964 417.887C348.964 417.978 348.938 418.066 348.889 418.142C348.84 418.217 348.77 418.276 348.689 418.311C348.607 418.345 348.517 418.354 348.43 418.337C348.344 418.319 348.264 418.275 348.202 418.211C348.139 418.147 348.097 418.065 348.079 417.976C348.062 417.887 348.071 417.795 348.105 417.711C348.139 417.627 348.196 417.556 348.269 417.505C348.343 417.455 348.429 417.428 348.518 417.428C348.636 417.428 348.75 417.476 348.834 417.562C348.917 417.648 348.964 417.765 348.964 417.887Z" fill="white"/>
<path d="M335.059 448.169C335.059 448.259 335.033 448.348 334.983 448.423C334.934 448.499 334.865 448.558 334.783 448.592C334.701 448.627 334.611 448.636 334.525 448.618C334.438 448.601 334.358 448.557 334.296 448.493C334.233 448.429 334.191 448.347 334.174 448.258C334.156 448.169 334.165 448.077 334.199 447.993C334.233 447.909 334.29 447.837 334.364 447.787C334.437 447.737 334.524 447.71 334.612 447.71C334.73 447.71 334.844 447.758 334.928 447.844C335.012 447.93 335.059 448.047 335.059 448.169Z" fill="white"/>
<path d="M348.964 392.377C348.964 392.498 348.917 392.615 348.834 392.701C348.75 392.787 348.636 392.836 348.518 392.836C348.399 392.836 348.285 392.787 348.202 392.701C348.118 392.615 348.071 392.498 348.071 392.377C348.071 392.255 348.118 392.138 348.202 392.052C348.285 391.966 348.399 391.918 348.518 391.918C348.636 391.918 348.75 391.966 348.834 392.052C348.917 392.138 348.964 392.255 348.964 392.377Z" fill="white"/>
<path d="M348.964 366.848C348.964 366.939 348.938 367.028 348.889 367.103C348.84 367.179 348.77 367.238 348.689 367.272C348.607 367.307 348.517 367.316 348.43 367.298C348.344 367.281 348.264 367.237 348.202 367.173C348.139 367.109 348.097 367.027 348.079 366.938C348.062 366.849 348.071 366.757 348.105 366.673C348.139 366.589 348.196 366.517 348.269 366.467C348.343 366.417 348.429 366.39 348.518 366.39C348.636 366.39 348.75 366.438 348.834 366.524C348.917 366.61 348.964 366.727 348.964 366.848Z" fill="white"/>
<path d="M345.694 462.245H335.595C328.843 462.245 323.369 467.865 323.369 474.798V475.312C323.369 482.245 328.843 487.865 335.595 487.865H345.694C352.446 487.865 357.919 482.245 357.919 475.312V474.798C357.919 467.865 352.446 462.245 345.694 462.245Z" fill="#263238"/>
<path d="M337.758 487.755C337.758 487.755 337.365 487.755 336.775 487.498C335.954 487.022 335.27 486.332 334.791 485.498C333.5 482.698 332.887 479.619 333.004 476.523C332.953 473.456 333.412 470.402 334.362 467.494C334.659 466.257 335.187 465.091 335.917 464.062C334.707 468.097 334.039 472.284 333.933 476.505C333.846 479.468 334.357 482.417 335.435 485.167C335.968 486.229 336.771 487.123 337.758 487.755Z" fill="#455A64"/>
<path d="M384.712 674.51C384.712 670.656 384.712 659.828 383.622 656.157C382.742 652.351 380.437 649.054 377.205 646.981C374.55 645.766 371.653 645.211 368.749 645.361C365.845 645.511 363.017 646.362 360.493 647.844C358.706 649.305 357.279 651.178 356.329 653.311C355.378 655.444 354.931 657.778 355.024 660.122L354.255 674.4" fill="#263238"/>
<path d="M384.14 669.775L351.664 669.463C351.664 669.463 327.659 674.528 328.124 676.51C328.589 678.493 384.945 677.281 384.945 677.281L384.14 669.775Z" fill="#FF6A3D"/>
<path d="M355.149 659.589C356.428 660.329 357.807 660.867 359.242 661.186C366.067 663.14 373.233 663.491 380.208 662.214C381.665 662.041 383.088 661.638 384.426 661.021C379.55 661.683 374.634 661.983 369.716 661.92C364.812 661.503 359.944 660.724 355.149 659.589Z" fill="#455A64"/>
<path d="M428.021 485.479L442.838 497.537C442.838 497.537 447.432 544.758 432.614 589.868C417.797 634.979 407.073 648.596 407.073 648.596H393.792V489.663L408.092 485.461L428.021 485.479Z" fill="#FF6A3D"/>
<g opacity="0.3">
<path opacity="0.3" d="M414.187 486.177L402.318 644.852L393.792 646.486L394.096 490.269L408.413 486.066L414.187 486.177Z" fill="black"/>
</g>
<path d="M402.443 644.852C402.193 644.852 404.588 609.322 407.805 565.514C411.023 521.707 413.829 486.232 414.079 486.25C414.329 486.268 411.952 521.78 408.717 565.588C405.482 609.395 402.711 644.871 402.443 644.852Z" fill="white"/>
<path d="M405.5 527.488C405.5 527.717 405.589 527.936 405.746 528.098C405.904 528.26 406.117 528.351 406.34 528.351C406.563 528.351 406.777 528.26 406.934 528.098C407.092 527.936 407.18 527.717 407.18 527.488C407.18 527.259 407.092 527.04 406.934 526.878C406.777 526.716 406.563 526.625 406.34 526.625C406.117 526.625 405.904 526.716 405.746 526.878C405.589 527.04 405.5 527.259 405.5 527.488Z" fill="white"/>
<path d="M402.157 566.983C402.154 567.154 402.2 567.323 402.29 567.467C402.38 567.611 402.51 567.724 402.663 567.792C402.817 567.861 402.986 567.88 403.15 567.849C403.314 567.818 403.466 567.737 403.585 567.617C403.704 567.498 403.786 567.344 403.82 567.176C403.854 567.008 403.838 566.834 403.775 566.675C403.712 566.517 403.604 566.381 403.466 566.285C403.327 566.19 403.164 566.138 402.997 566.138C402.778 566.138 402.567 566.227 402.41 566.385C402.253 566.542 402.162 566.757 402.157 566.983Z" fill="white"/>
<path d="M400.477 611.634C400.477 611.805 400.526 611.972 400.619 612.114C400.711 612.255 400.842 612.366 400.996 612.431C401.149 612.497 401.318 612.514 401.481 612.48C401.644 612.447 401.794 612.365 401.911 612.244C402.029 612.124 402.109 611.97 402.141 611.803C402.173 611.635 402.157 611.462 402.093 611.304C402.03 611.147 401.922 611.012 401.784 610.917C401.646 610.822 401.483 610.772 401.317 610.772C401.094 610.772 400.881 610.863 400.723 611.024C400.566 611.186 400.477 611.406 400.477 611.634Z" fill="white"/>
<path d="M408.842 494.857C408.838 495.028 408.885 495.197 408.975 495.341C409.065 495.486 409.195 495.599 409.348 495.667C409.501 495.735 409.671 495.755 409.835 495.724C409.999 495.693 410.15 495.612 410.269 495.492C410.389 495.372 410.471 495.218 410.504 495.051C410.538 494.883 410.523 494.709 410.46 494.55C410.397 494.391 410.289 494.255 410.151 494.16C410.012 494.064 409.849 494.013 409.682 494.013C409.462 494.013 409.251 494.101 409.094 494.259C408.937 494.417 408.847 494.632 408.842 494.857Z" fill="white"/>
<path d="M431.024 341.173H443.928C443.928 341.173 460.015 423.888 431.024 461.382H408.485C408.485 461.382 398.815 442.626 398.815 432.716V368.739L431.024 341.173Z" fill="#FF6A3D"/>
<g opacity="0.3">
<path opacity="0.3" d="M440.693 445.526L415.527 435.505V354.332L398.815 368.408L399.012 432.44C399.02 434.565 399.253 436.682 399.709 438.754C401.52 446.729 404.535 454.364 408.646 461.382H431.667C435.386 456.558 438.424 451.22 440.693 445.526Z" fill="black"/>
</g>
<path d="M415.527 354.919C415.609 355.28 415.645 355.65 415.634 356.02C415.634 356.846 415.634 357.856 415.723 359.177C415.723 362.058 415.723 365.986 415.866 370.812C415.866 380.741 415.866 394.267 415.991 409.188C415.991 419.061 415.991 428.293 415.991 436.184L415.741 435.799L433.615 443.14L438.602 445.287C439.22 445.508 439.818 445.784 440.389 446.113C439.775 445.98 439.177 445.783 438.602 445.526L433.526 443.58L415.527 436.496L415.276 436.386V436.111C415.276 428.219 415.276 418.988 415.276 409.114C415.276 394.194 415.384 380.668 415.419 370.739C415.419 365.912 415.527 361.985 415.562 359.104C415.562 357.819 415.562 356.773 415.652 355.947C415.586 355.608 415.544 355.264 415.527 354.919Z" fill="white"/>
<path d="M410.522 417.575C410.522 417.746 410.572 417.914 410.665 418.056C410.758 418.198 410.891 418.308 411.045 418.373C411.2 418.438 411.37 418.454 411.533 418.419C411.697 418.384 411.846 418.3 411.963 418.178C412.08 418.055 412.158 417.9 412.189 417.731C412.219 417.563 412.2 417.389 412.133 417.232C412.067 417.074 411.957 416.941 411.816 416.848C411.676 416.756 411.512 416.708 411.345 416.712C411.125 416.717 410.916 416.81 410.762 416.971C410.608 417.132 410.522 417.349 410.522 417.575Z" fill="white"/>
<path d="M423.892 446.792C423.892 446.963 423.941 447.129 424.034 447.271C424.126 447.413 424.257 447.524 424.411 447.589C424.564 447.654 424.733 447.671 424.896 447.638C425.059 447.605 425.209 447.523 425.326 447.402C425.444 447.281 425.524 447.128 425.556 446.96C425.589 446.793 425.572 446.62 425.508 446.462C425.445 446.304 425.337 446.17 425.199 446.075C425.061 445.98 424.898 445.929 424.732 445.929C424.509 445.929 424.296 446.02 424.138 446.182C423.981 446.344 423.892 446.563 423.892 446.792Z" fill="white"/>
<path d="M410.523 391.881C410.505 392.004 410.513 392.129 410.547 392.248C410.581 392.367 410.639 392.477 410.718 392.57C410.797 392.664 410.894 392.739 411.004 392.791C411.114 392.842 411.233 392.869 411.354 392.869C411.474 392.869 411.594 392.842 411.703 392.791C411.813 392.739 411.911 392.664 411.989 392.57C412.068 392.477 412.127 392.367 412.16 392.248C412.194 392.129 412.202 392.004 412.185 391.881C412.156 391.676 412.055 391.489 411.903 391.354C411.75 391.218 411.555 391.144 411.354 391.144C411.152 391.144 410.957 391.218 410.805 391.354C410.652 391.489 410.552 391.676 410.523 391.881Z" fill="white"/>
<path d="M410.522 366.078C410.522 366.249 410.572 366.416 410.665 366.559C410.758 366.701 410.891 366.811 411.045 366.876C411.2 366.941 411.37 366.957 411.533 366.922C411.697 366.887 411.846 366.803 411.963 366.681C412.08 366.558 412.158 366.403 412.189 366.234C412.219 366.066 412.2 365.892 412.133 365.735C412.067 365.577 411.957 365.444 411.816 365.351C411.676 365.259 411.512 365.211 411.345 365.215C411.125 365.22 410.916 365.313 410.762 365.474C410.608 365.635 410.522 365.852 410.522 366.078Z" fill="white"/>
<path d="M414.454 485.424H424.982C431.774 485.424 437.279 479.771 437.279 472.798V472.284C437.279 465.31 431.774 459.657 424.982 459.657H414.454C407.663 459.657 402.157 465.31 402.157 472.284V472.798C402.157 479.771 407.663 485.424 414.454 485.424Z" fill="#263238"/>
<path d="M421.998 486.066C423.008 485.441 423.836 484.547 424.393 483.479C425.46 480.732 425.971 477.791 425.894 474.835C425.778 470.607 425.105 466.415 423.892 462.373C424.625 463.404 425.158 464.569 425.465 465.805C426.398 468.718 426.857 471.769 426.824 474.835C426.943 477.931 426.33 481.01 425.036 483.809C424.565 484.649 423.879 485.341 423.052 485.809C422.391 486.103 422.015 486.121 421.998 486.066Z" fill="#455A64"/>
<path d="M383.032 674.216C383.032 670.362 383.032 659.645 384.123 655.864C385.001 652.052 387.315 648.752 390.557 646.688C393.213 645.473 396.11 644.918 399.014 645.068C401.917 645.218 404.745 646.068 407.269 647.55C409.056 649.006 410.482 650.876 411.43 653.007C412.377 655.138 412.82 657.469 412.721 659.81L413.507 674.088" fill="#263238"/>
<path d="M383.533 669.5L416.027 669.188C416.027 669.188 440.032 674.253 439.549 676.235C439.067 678.217 382.729 677.006 382.729 677.006L383.533 669.5Z" fill="#FF6A3D"/>
<path d="M415.902 659.021C414.622 659.756 413.242 660.294 411.809 660.617C404.984 662.571 397.818 662.922 390.843 661.645C389.388 661.462 387.966 661.06 386.625 660.452C386.625 660.122 393.185 661.773 401.335 661.333C406.239 660.927 411.108 660.154 415.902 659.021Z" fill="#455A64"/>
<path d="M321.206 171.413C321.206 171.413 301.224 169.889 298.721 190.444C296.219 210.999 314.289 210.926 314.289 210.926L321.206 171.413Z" fill="#263238"/>
<path d="M240.756 246.841L263.438 261.927L304.727 218.285L308.141 167.375L285.459 178.35L240.756 246.841Z" fill="#FF6A3D"/>
<g opacity="0.3">
<path opacity="0.3" d="M304.727 218.285L263.439 261.927L254.019 255.669L306.193 196.537L304.727 218.285Z" fill="black"/>
</g>
<path d="M305.817 196.72C306.014 196.904 295.951 208.613 283.368 222.873C270.785 237.133 260.418 248.566 260.239 248.383C260.06 248.199 270.088 236.49 282.689 222.23C295.29 207.971 305.621 196.537 305.817 196.72Z" fill="white"/>
<path d="M270.964 244.639C270.959 244.759 270.911 244.873 270.828 244.958C270.745 245.043 270.634 245.093 270.517 245.098C270.398 245.098 270.285 245.049 270.201 244.963C270.117 244.877 270.07 244.761 270.07 244.639C270.07 244.517 270.117 244.401 270.201 244.315C270.285 244.228 270.398 244.18 270.517 244.18C270.635 244.18 270.749 244.228 270.833 244.315C270.916 244.401 270.964 244.517 270.964 244.639Z" fill="white"/>
<path d="M283.028 230.618C283.028 230.708 283.002 230.797 282.953 230.872C282.904 230.948 282.834 231.007 282.752 231.041C282.67 231.076 282.581 231.085 282.494 231.067C282.407 231.05 282.328 231.006 282.265 230.942C282.203 230.878 282.16 230.796 282.143 230.707C282.126 230.618 282.134 230.526 282.168 230.442C282.202 230.358 282.259 230.286 282.333 230.236C282.406 230.186 282.493 230.159 282.581 230.159C282.7 230.159 282.813 230.207 282.897 230.293C282.981 230.379 283.028 230.496 283.028 230.618Z" fill="white"/>
<path d="M295.093 216.597C295.093 216.687 295.067 216.776 295.018 216.851C294.969 216.927 294.899 216.986 294.817 217.02C294.735 217.055 294.646 217.064 294.559 217.047C294.472 217.029 294.393 216.985 294.33 216.921C294.268 216.857 294.225 216.775 294.208 216.686C294.191 216.597 294.199 216.505 294.233 216.421C294.267 216.337 294.324 216.265 294.398 216.215C294.471 216.165 294.558 216.138 294.646 216.138C294.765 216.138 294.878 216.186 294.962 216.272C295.046 216.358 295.093 216.475 295.093 216.597Z" fill="white"/>
<path d="M248.603 282.776C258.86 282.776 267.174 274.239 267.174 263.707C267.174 253.176 258.86 244.639 248.603 244.639C238.347 244.639 230.032 253.176 230.032 263.707C230.032 274.239 238.347 282.776 248.603 282.776Z" fill="#263238"/>
<path d="M266.477 265.377L315.38 327.757L306.711 339.393L232.445 288.501L229.407 262.698L266.477 265.377Z" fill="#FF6A3D"/>
<g opacity="0.3">
<path opacity="0.3" d="M298.471 333.759L299.955 319.095L254.913 264.533L266.477 265.377L315.38 327.758L306.711 339.393L298.471 333.759Z" fill="black"/>
</g>
<path d="M298.471 333.759C298.424 333.418 298.424 333.072 298.471 332.731C298.471 331.942 298.596 330.896 298.686 329.795C298.9 327.097 299.222 323.463 299.597 319.059L299.687 319.334L281.723 297.751C274.216 288.575 267.424 280.408 262.616 274.388L256.914 267.249L255.395 265.267C255.205 265.045 255.042 264.798 254.913 264.533C254.913 264.533 255.163 264.735 255.538 265.139C255.914 265.543 256.539 266.258 257.183 266.974L263.117 273.911C268.103 279.821 274.931 288.006 282.42 297.091C289.248 305.423 295.45 313.021 300.294 318.82L300.384 318.948V319.095C299.883 323.5 299.454 327.115 299.15 329.795C299.007 330.969 298.864 331.924 298.775 332.713C298.721 333.074 298.619 333.426 298.471 333.759Z" fill="white"/>
<path d="M287.139 298.687C287.139 298.778 287.113 298.867 287.064 298.942C287.014 299.017 286.945 299.076 286.863 299.111C286.781 299.146 286.691 299.155 286.605 299.137C286.518 299.119 286.438 299.076 286.376 299.012C286.314 298.947 286.271 298.866 286.254 298.777C286.236 298.688 286.245 298.595 286.279 298.512C286.313 298.428 286.37 298.356 286.444 298.306C286.517 298.255 286.604 298.228 286.692 298.228C286.81 298.228 286.924 298.277 287.008 298.363C287.092 298.449 287.139 298.565 287.139 298.687Z" fill="white"/>
<path d="M298.918 312.158C298.918 312.249 298.891 312.337 298.842 312.413C298.793 312.488 298.723 312.547 298.642 312.582C298.56 312.617 298.47 312.626 298.384 312.608C298.297 312.59 298.217 312.547 298.155 312.482C298.092 312.418 298.05 312.337 298.033 312.248C298.015 312.159 298.024 312.066 298.058 311.982C298.092 311.899 298.149 311.827 298.223 311.777C298.296 311.726 298.382 311.699 298.471 311.699C298.589 311.699 298.703 311.748 298.787 311.834C298.871 311.92 298.918 312.036 298.918 312.158Z" fill="white"/>
<path d="M276.987 285.951C276.987 286.041 276.961 286.13 276.912 286.205C276.863 286.281 276.793 286.34 276.711 286.374C276.629 286.409 276.54 286.418 276.453 286.401C276.366 286.383 276.287 286.339 276.224 286.275C276.162 286.211 276.119 286.129 276.102 286.04C276.085 285.951 276.093 285.859 276.127 285.775C276.161 285.691 276.218 285.619 276.292 285.569C276.365 285.519 276.452 285.492 276.54 285.492C276.659 285.492 276.772 285.54 276.856 285.626C276.94 285.712 276.987 285.829 276.987 285.951Z" fill="white"/>
<path d="M266.745 274.425C266.745 274.516 266.719 274.605 266.67 274.68C266.621 274.755 266.551 274.814 266.469 274.849C266.388 274.884 266.298 274.893 266.211 274.875C266.125 274.857 266.045 274.814 265.982 274.75C265.92 274.685 265.877 274.604 265.86 274.515C265.843 274.426 265.852 274.333 265.886 274.25C265.919 274.166 265.977 274.094 266.05 274.044C266.124 273.993 266.21 273.966 266.298 273.966C266.417 273.966 266.531 274.015 266.614 274.101C266.698 274.187 266.745 274.303 266.745 274.425Z" fill="white"/>
<path d="M527.328 149.958L534.388 176.753L481.303 203.805L459.479 198.281L450.149 172.752L527.328 149.958Z" fill="#FF6A3D"/>
<g opacity="0.3">
<path opacity="0.3" d="M481.302 203.805L534.388 176.753L531.456 165.631L460.694 198.592L481.302 203.805Z" fill="black"/>
</g>
<path d="M460.98 198.28C460.873 198.042 474.636 191.398 491.705 183.433C508.775 175.468 522.698 169.247 522.806 169.485C522.913 169.724 509.168 176.367 492.081 184.314C474.993 192.261 461.087 198.519 460.98 198.28Z" fill="white"/>
<path d="M516.067 178.827C516.181 178.863 516.304 178.852 516.41 178.795C516.516 178.738 516.595 178.641 516.63 178.524C516.666 178.407 516.655 178.281 516.6 178.172C516.544 178.064 516.449 177.982 516.336 177.946C516.222 177.91 516.099 177.921 515.992 177.976C515.886 178.03 515.804 178.125 515.764 178.24C515.73 178.359 515.743 178.487 515.799 178.596C515.856 178.706 515.952 178.789 516.067 178.827Z" fill="white"/>
<path d="M499.373 186.333C499.457 186.362 499.548 186.364 499.633 186.34C499.719 186.316 499.796 186.266 499.854 186.196C499.911 186.127 499.948 186.041 499.958 185.951C499.968 185.86 499.952 185.768 499.911 185.687C499.871 185.606 499.807 185.539 499.729 185.496C499.651 185.452 499.562 185.433 499.474 185.441C499.385 185.449 499.301 185.484 499.232 185.542C499.163 185.599 499.113 185.677 499.087 185.764C499.053 185.878 499.064 186.002 499.117 186.108C499.171 186.214 499.262 186.295 499.373 186.333Z" fill="white"/>
<path d="M482.679 193.858C482.735 193.878 482.795 193.886 482.854 193.882C482.914 193.878 482.972 193.862 483.025 193.835C483.078 193.807 483.126 193.769 483.165 193.723C483.203 193.676 483.233 193.622 483.251 193.564C483.285 193.447 483.275 193.321 483.222 193.212C483.169 193.103 483.077 193.018 482.965 192.977C482.907 192.957 482.847 192.95 482.786 192.955C482.726 192.96 482.667 192.978 482.614 193.007C482.56 193.036 482.513 193.076 482.475 193.124C482.437 193.173 482.409 193.229 482.393 193.289C482.359 193.403 482.37 193.527 482.423 193.633C482.477 193.739 482.568 193.82 482.679 193.858Z" fill="white"/>
<path d="M436.672 173.78C436.672 173.78 456.655 172.257 459.157 192.793C461.659 213.329 443.589 213.274 443.589 213.274L436.672 173.78Z" fill="#263238"/>
<path d="M549.268 179.67C558.334 174.745 561.795 163.207 556.999 153.898C552.203 144.589 540.965 141.035 531.899 145.96C522.833 150.884 519.372 162.423 524.168 171.731C528.964 181.04 540.202 184.594 549.268 179.67Z" fill="#263238"/>
<path d="M560.859 142.764L559.537 62.6922L545.613 59.4438L520.286 147.371L552.619 150.601L560.859 142.764Z" fill="#FF6A3D"/>
<g opacity="0.3">
<path opacity="0.3" d="M542.806 69.2074L553.066 79.5032L552.494 151.005L560.859 142.764L559.536 62.6922L545.612 59.4438L542.806 69.2074Z" fill="black"/>
</g>
<path d="M542.807 69.207C542.807 69.207 543.093 69.4089 543.593 69.8494L545.702 71.8314L553.317 79.1725H553.424V79.3376C553.424 86.9356 553.424 96.8459 553.317 107.729C553.209 119.64 553.066 130.413 552.923 138.213L552.709 147.389C552.709 148.38 552.619 149.224 552.602 149.903C552.612 150.195 552.575 150.486 552.494 150.766C552.426 150.484 552.396 150.193 552.405 149.903C552.405 149.206 552.405 148.38 552.405 147.389C552.405 145.04 552.405 141.883 552.405 138.213C552.405 130.413 552.405 119.621 552.512 107.711C552.655 96.8459 552.78 86.9172 552.87 79.3376L552.977 79.5946L545.577 71.9599L543.593 69.831C543.003 69.5007 542.771 69.2254 542.807 69.207Z" fill="white"/>
<path d="M555.962 103.6C555.92 103.555 555.87 103.52 555.815 103.496C555.759 103.472 555.7 103.459 555.64 103.459C555.58 103.459 555.52 103.472 555.465 103.496C555.41 103.52 555.36 103.555 555.318 103.6C555.236 103.686 555.19 103.801 555.19 103.921C555.19 104.041 555.236 104.156 555.318 104.242C555.358 104.286 555.407 104.321 555.461 104.345C555.514 104.369 555.572 104.381 555.631 104.381C555.69 104.381 555.748 104.369 555.801 104.345C555.855 104.321 555.904 104.286 555.944 104.242C556.028 104.159 556.077 104.045 556.08 103.925C556.084 103.805 556.041 103.688 555.962 103.6Z" fill="white"/>
<path d="M555.729 85.3943C555.78 85.3626 555.837 85.3421 555.896 85.3342C555.955 85.3264 556.015 85.3312 556.073 85.3485C556.13 85.3657 556.183 85.395 556.228 85.4345C556.274 85.474 556.311 85.5228 556.337 85.5778C556.394 85.6849 556.407 85.8108 556.373 85.9278C556.34 86.0448 556.263 86.1434 556.158 86.2018C556.054 86.2602 555.931 86.2737 555.817 86.2393C555.703 86.2048 555.607 86.1253 555.551 86.0183C555.498 85.9103 555.487 85.7859 555.52 85.6702C555.554 85.5544 555.628 85.4558 555.729 85.3943Z" fill="white"/>
<path d="M556.104 120.062C556.063 120.018 556.013 119.983 555.957 119.958C555.902 119.934 555.843 119.922 555.782 119.922C555.722 119.922 555.663 119.934 555.608 119.958C555.552 119.983 555.502 120.018 555.461 120.062C555.379 120.148 555.333 120.263 555.333 120.383C555.333 120.504 555.379 120.619 555.461 120.705C555.547 120.79 555.663 120.837 555.782 120.837C555.902 120.837 556.018 120.79 556.104 120.705C556.186 120.619 556.232 120.504 556.232 120.383C556.232 120.263 556.186 120.148 556.104 120.062Z" fill="white"/>
<path d="M314.647 319.554L320.295 320.619L325.121 325.849L323.334 329.74L326.551 339.705C326.551 339.705 326.783 342.843 324.603 343.376L322.422 343.908C322.422 343.908 322.887 346.569 319.527 347.725L314.754 349.359C314.754 349.359 313.056 351.946 311.394 350.496C309.732 349.047 308.57 349.652 308.57 349.652C308.57 349.652 306.103 351.102 304.87 350.313C303.637 349.524 297.899 336.695 297.899 336.695L295.343 334.64L309.553 318.324L311.93 320.27L314.647 319.554Z" fill="#263238"/>
<path d="M308.015 317.194L293.278 332.325C292.343 333.285 292.343 334.843 293.278 335.803L293.341 335.868C294.277 336.828 295.793 336.828 296.728 335.868L311.465 320.736C312.4 319.776 312.4 318.219 311.465 317.259L311.402 317.194C310.467 316.233 308.95 316.233 308.015 317.194Z" fill="#263238"/>
<path d="M311.716 320.582C309.52 323.459 307.092 326.141 304.459 328.602C302.033 331.281 299.384 333.737 296.541 335.943C298.732 333.061 301.16 330.378 303.798 327.923C306.22 325.24 308.87 322.783 311.716 320.582Z" fill="#455A64"/>
<path d="M562.289 62.1782L564.523 47.7164L568.795 33.585C568.795 33.585 569.867 29.9145 567.615 29.9145C565.363 29.9145 560.037 40.926 560.037 40.926C560.037 40.926 564.04 28.0792 563.611 25.4181C563.182 22.757 561.931 22.7937 560.341 24.372C558.75 25.9503 554.978 35.3835 554.978 35.3835C554.978 35.3835 556.337 22.7203 554.978 21.4356C553.62 20.151 552.315 20.206 551.654 21.6008C550.992 22.9956 549.563 34.4476 549.384 34.9981C549.205 35.5487 547.596 24.2619 545.898 23.9866C544.2 23.7113 542.681 23.381 542.914 27.18C543.146 30.9789 542.395 42.1556 542.395 42.1556C542.395 42.1556 539.267 33.6584 537.033 32.9794C534.388 32.1351 534.066 33.4749 535.46 38.2098C537.122 43.8808 536.783 45.2021 536.783 45.2021C536.783 45.2021 539.106 53.9563 540.036 60.5632L562.289 62.1782Z" fill="#263238"/>
<path d="M542.288 46.193C542.288 46.193 543.021 46.0829 544.075 46.0645C545.557 46.0279 547.02 46.4019 548.312 47.1473C549.594 47.9031 550.66 48.9917 551.404 50.304C551.976 51.3134 552.172 52.0291 552.262 52.0107C552.24 51.3643 552.062 50.7335 551.743 50.1755C551.057 48.7132 549.95 47.5019 548.573 46.7046C547.196 45.9073 545.614 45.5622 544.04 45.7158C543.427 45.7285 542.826 45.8922 542.288 46.193Z" fill="#455A64"/>
<path d="M554.514 51.8091C554.621 51.9192 555.675 50.8364 557.177 49.7903C558.147 49.2367 559.084 48.6239 559.983 47.9551C558.847 48.1265 557.775 48.6011 556.873 49.3315C555.88 49.9191 555.063 50.7764 554.514 51.8091Z" fill="#455A64"/>
<path d="M540.519 64.6924H561.36C562.683 64.6924 563.755 63.5914 563.755 62.2332V62.1414C563.755 60.7832 562.683 59.6822 561.36 59.6822H540.519C539.196 59.6822 538.124 60.7832 538.124 62.1414V62.2332C538.124 63.5914 539.196 64.6924 540.519 64.6924Z" fill="#263238"/>
<path d="M540.215 59.7008C543.77 59.2276 547.36 59.0924 550.939 59.2971C554.523 59.15 558.112 59.3343 561.663 59.8476C558.107 60.2969 554.519 60.432 550.939 60.2514C547.356 60.3761 543.768 60.1919 540.215 59.7008Z" fill="#455A64"/>
<path d="M769 818.926C769 819.183 597.715 819.403 386.5 819.403C175.285 819.403 4 819.183 4 818.926C4 818.669 175.249 818.449 386.589 818.449C597.93 818.449 769 818.651 769 818.926Z" fill="#263238"/>
</g>
<defs>
<filter id="filter0_d_506_1341" x="0" y="0" width="773" height="829" filterUnits="userSpaceOnUse" color-interpolation-filters="sRGB">
<feFlood flood-opacity="0" result="BackgroundImageFix"/>
<feColorMatrix in="SourceAlpha" type="matrix" values="0 0 0 0 0 0 0 0 0 0 0 0 0 0 0 0 0 0 127 0" result="hardAlpha"/>
<feOffset dy="4"/>
<feGaussianBlur stdDeviation="2"/>
<feComposite in2="hardAlpha" operator="out"/>
<feColorMatrix type="matrix" values="0 0 0 0 0 0 0 0 0 0 0 0 0 0 0 0 0 0 0.25 0"/>
<feBlend mode="normal" in2="BackgroundImageFix" result="effect1_dropShadow_506_1341"/>
<feBlend mode="normal" in="SourceGraphic" in2="effect1_dropShadow_506_1341" result="shape"/>
</filter>
</defs>
</svg>
