<svg width="50" height="40" viewBox="0 0 50 40" fill="none" xmlns="http://www.w3.org/2000/svg">
<g clip-path="url(#clip0_1157_36)">
<path d="M40.953 0.609375C39.615 0.257735 37.1407 0.0702344 33.4544 0.0234375C32.7222 0 31.9646 0 31.1316 0H17.043V40H27.5461V25.6874C28.8844 25.6641 31.081 25.7344 33.4544 25.6641C35.7014 25.6171 38.1002 25.4766 40.0442 25.125C46.1544 23.8829 49.4366 18.9609 49.8658 13.8048C49.9163 13.0781 49.9163 12.3514 49.891 11.6485C49.5375 6.70312 46.5582 1.99211 40.953 0.609375ZM36.5094 16.4765C35.853 16.711 34.7168 16.8515 33.4544 16.9218C31.3587 17.039 28.8592 16.9922 27.5461 16.9688V8.69523C28.7835 8.67195 31.4092 8.67195 33.4544 8.74218C33.5807 8.74218 33.7067 8.76562 33.8079 8.76562C34.1361 8.76562 34.439 8.78906 34.7168 8.81258C35.0956 8.85937 35.4238 8.88281 35.6763 8.92977C39.9938 9.65625 40.2461 15.0937 36.5094 16.4765Z" fill="#3F4E4F"/>
<path d="M43.0833 40.1076C37.2812 26.1749 32.1353 14.0469 26.3332 0.114258H16.2676C10.6236 14.0469 5.644 26.1749 0 40.1076C0.28265 40.1076 11.5751 40.1076 11.2002 40.1076C11.309 39.8196 14.5228 31.3155 14.4186 31.5912H28.2339C28.3494 31.8802 31.749 40.3843 31.6384 40.1076H43.0833ZM17.7257 22.9306L21.5174 13.6911L24.7912 22.9306H17.7257Z" fill="#DCD7C9"/>
<path d="M43.0832 40.1076C37.2812 26.1748 32.1353 14.0471 26.3331 0.114258H21.5173V13.6911L24.7911 22.9306H21.5173V31.5912H28.2338C28.3494 31.8802 31.7491 40.3843 31.6383 40.1076" fill="#3F4E4F"/>
<path d="M34 8.60501V0C37.6554 0.0480153 40.1044 0.235535 41.428 0.583378L41.4289 0.58358C47.0055 1.9593 49.9713 6.64535 50.3238 11.5701C50.349 12.2715 50.349 12.9954 50.2986 13.719C49.8712 18.8538 46.6039 23.751 40.5228 24.9875C38.5999 25.3353 36.2293 25.4764 34 25.5244V16.8946C35.2411 16.8234 36.3618 16.6831 37.0175 16.4491L37.0181 16.4489C38.9117 15.7481 39.7963 14.018 39.6586 12.3709C39.5208 10.7223 38.3595 9.15987 36.1752 8.79208C36.0124 8.76185 35.8172 8.74108 35.5997 8.71793C35.4771 8.70489 35.3475 8.69111 35.2128 8.67447L35.2117 8.67433L35.2106 8.67424C34.9327 8.65079 34.6279 8.62709 34.2971 8.62709C34.2521 8.62709 34.2012 8.62212 34.1439 8.61649L34.1351 8.61564C34.0924 8.61147 34.0467 8.60713 34 8.60501Z" fill="#DCD7C9" stroke="#3F4E4F"/>
<mask id="mask0_1157_36" style="mask-type:luminance" maskUnits="userSpaceOnUse" x="21" y="0" width="23" height="40">
<path d="M43.0832 39.9934C37.2812 26.0606 32.1353 13.9328 26.3331 0H21.5173V13.5768L24.7911 22.8163H21.5173V31.4769H28.2338C28.3494 31.7659 31.7491 40.2701 31.6383 39.9934" fill="#92DCE5"/>
</mask>
<g mask="url(#mask0_1157_36)">
<path d="M26.3332 2.79546e-05L26.4372 -0.0443767L26.408 -0.114258H26.3332V2.79546e-05ZM21.5174 2.79546e-05V-0.114258H21.4045V2.79546e-05H21.5174ZM21.5174 13.5768H21.4045V13.5967L21.4111 13.6155L21.5174 13.5768ZM24.7912 22.8164V22.9307H24.9516L24.8974 22.7779L24.7912 22.8164ZM21.5174 22.8164V22.7021H21.4045V22.8164H21.5174ZM21.5174 31.477H21.4045V31.5912H21.5174V31.477ZM28.2339 31.477L28.3385 31.4341L28.31 31.3627H28.2339V31.477ZM43.1874 39.949C40.2863 32.9824 37.5491 26.4671 34.8121 19.952C32.0751 13.4368 29.3382 6.92181 26.4372 -0.0443767L26.2291 0.0444327C29.1303 7.01101 31.8674 13.5263 34.6044 20.0414C37.3414 26.5566 40.0784 33.0716 42.9794 40.0378L43.1874 39.949ZM26.3332 -0.114258H21.5174V0.114314H26.3332V-0.114258ZM21.4045 2.79546e-05V13.5768H21.6303V2.79546e-05H21.4045ZM21.4111 13.6155L24.685 22.855L24.8974 22.7779L21.6236 13.5382L21.4111 13.6155ZM24.7912 22.7021H21.5174V22.9307H24.7912V22.7021ZM21.4045 22.8164V31.477H21.6303V22.8164H21.4045ZM21.5174 31.5912H28.2339V31.3627H21.5174V31.5912ZM28.1293 31.5199C28.187 31.6644 29.0658 33.8627 29.9164 35.9902C30.3417 37.054 30.7598 38.1 31.0648 38.8629C31.2173 39.2444 31.3414 39.555 31.4241 39.7616C31.4653 39.865 31.4962 39.9422 31.515 39.9894C31.5245 40.013 31.531 40.0291 31.5341 40.037C31.5349 40.039 31.5355 40.0405 31.5359 40.0414C31.536 40.042 31.5361 40.0423 31.5363 40.0424C31.5364 40.0426 31.5364 40.0427 31.5364 40.0427C31.5363 40.0426 31.5986 39.8941 31.7454 39.9564C31.7455 39.9567 31.7449 39.9552 31.743 39.9506L31.5338 40.0363C31.5354 40.0402 31.5365 40.043 31.5367 40.0436C31.6835 40.1059 31.7459 39.9574 31.7457 39.9572C31.7457 39.9572 31.7456 39.9571 31.7456 39.9568C31.7455 39.9566 31.7453 39.9563 31.7452 39.9558C31.7447 39.9548 31.7442 39.9533 31.7434 39.9512C31.7401 39.9432 31.7338 39.9272 31.7243 39.9037C31.7054 39.8565 31.6745 39.7791 31.6332 39.6758C31.5507 39.4693 31.4264 39.1587 31.2741 38.7772C30.9691 38.0143 30.5508 36.9682 30.1256 35.9044C29.2751 33.7768 28.3963 31.5786 28.3385 31.4341L28.1293 31.5199Z" fill="#DCD7C9"/>
</g>
</g>
<defs>
<clipPath id="clip0_1157_36">
<rect width="50" height="40" fill="white"/>
</clipPath>
</defs>
</svg>
