<svg width="1108" height="549" viewBox="0 0 1108 549" fill="none" xmlns="http://www.w3.org/2000/svg">
<mask id="mask0" mask-type="alpha" maskUnits="userSpaceOnUse" x="0" y="0" width="1108" height="549">
<rect width="1108" height="549" fill="#808080"/>
</mask>
<g mask="url(#mask0)">
<ellipse cx="505.147" cy="72.5573" rx="7.55455" ry="7.61091" fill="#F44336"/>
<ellipse cx="36.2619" cy="528.704" rx="20.1455" ry="20.2957" fill="#9C27B0"/>
<ellipse cx="595.802" cy="284.648" rx="19.6418" ry="19.7884" fill="#F44336"/>
<ellipse cx="125.909" cy="391.708" rx="14.1018" ry="14.207" fill="#F44336"/>
<ellipse cx="153.609" cy="30.951" rx="8.56182" ry="8.62569" fill="#9C27B0"/>
<ellipse cx="202.462" cy="98.4344" rx="12.0873" ry="12.1774" fill="#9C27B0"/>
<ellipse cx="265.92" cy="424.181" rx="7.05091" ry="7.10351" fill="#F44336"/>
<ellipse cx="652.209" cy="439.91" rx="10.5764" ry="10.6553" fill="#E91E63"/>
<ellipse cx="649.691" cy="253.697" rx="24.1745" ry="24.3549" fill="#9C27B0"/>
<ellipse cx="745.382" cy="297.333" rx="23.1673" ry="23.3401" fill="#E91E63"/>
<ellipse cx="209.009" cy="318.136" rx="6.54727" ry="6.59612" fill="#E91E63"/>
<ellipse cx="570.116" cy="208.031" rx="20.1455" ry="20.2957" fill="#E91E63"/>
<ellipse cx="416.507" cy="420.629" rx="22.6636" ry="22.8327" fill="#9C27B0"/>
<ellipse cx="1020.87" cy="297.84" rx="6.54727" ry="6.59612" fill="#E91E63"/>
<ellipse cx="278.007" cy="298.348" rx="7.05091" ry="7.10351" fill="#E91E63"/>
<ellipse cx="691.493" cy="455.132" rx="17.6273" ry="17.7588" fill="#F44336"/>
<ellipse cx="971.011" cy="116.701" rx="24.1745" ry="24.3549" fill="#E91E63"/>
<ellipse cx="976.047" cy="104.523" rx="22.16" ry="22.3253" fill="#F44336"/>
<ellipse cx="897.984" cy="175.051" rx="10.5764" ry="10.6553" fill="#F44336"/>
<ellipse cx="348.013" cy="37.0398" rx="23.6709" ry="23.8475" fill="#E91E63"/>
<ellipse cx="366.144" cy="509.931" rx="11.5836" ry="11.6701" fill="#E91E63"/>
<ellipse cx="219.082" cy="228.835" rx="12.5909" ry="12.6848" fill="#F44336"/>
<ellipse cx="632.064" cy="285.663" rx="13.5982" ry="13.6996" fill="#9C27B0"/>
<ellipse cx="42.1164" cy="473.237" rx="16.1164" ry="16.2366" fill="#E91E63"/>
<ellipse cx="262.395" cy="325.239" rx="14.6055" ry="14.7144" fill="#F44336"/>
<ellipse cx="592.276" cy="28.414" rx="13.0945" ry="13.1922" fill="#F44336"/>
</g>
</svg>
