<svg width="729" height="512" viewBox="0 0 729 512" fill="none" xmlns="http://www.w3.org/2000/svg">
<path d="M580.808 7.8C564.909 3.299 535.51 0.899 491.709 0.3C483.01 0 474.008 0 464.11 0H296.709V512H421.508V328.799C437.409 328.501 463.509 329.4 491.709 328.501C518.409 327.9 546.91 326.1 570.009 321.6C642.61 305.701 681.61 242.7 686.709 176.701C687.31 167.399 687.31 158.099 687.009 149.1C682.809 85.8 647.409 25.499 580.808 7.8ZM528.01 210.899C520.21 213.9 506.709 215.7 491.709 216.599C466.808 218.099 437.109 217.5 421.508 217.2V111.299C436.21 111.001 467.409 111.001 491.709 111.9C493.209 111.9 494.708 112.2 495.909 112.2C499.809 112.2 503.409 112.5 506.709 112.801C511.21 113.4 515.11 113.7 518.109 114.301C569.41 123.6 572.409 193.2 528.01 210.899Z" fill="#F2FF49"/>
<path d="M687.01 149.099C687.31 158.099 687.31 167.399 686.71 176.7C681.611 242.699 642.611 305.7 570.01 321.599C546.911 326.1 518.411 327.9 491.71 328.5V216.599C506.71 215.7 520.21 213.9 528.011 210.899C572.41 193.2 569.411 123.6 518.11 114.3C515.111 113.699 511.211 113.399 506.71 112.8C503.41 112.5 499.811 112.199 495.91 112.199C494.709 112.199 493.209 111.899 491.71 111.899V0.299988C535.511 0.898988 564.91 3.29899 580.809 7.79999C647.409 25.499 682.809 85.8 687.01 149.099Z" fill="#E01A4F"/>
<path d="M511.915 511.915C442.974 333.577 381.831 178.338 312.89 0H193.291C126.229 178.338 67.0619 333.577 0 511.915C3.35844 511.915 137.534 511.915 133.081 511.915C134.374 508.229 172.559 399.376 171.322 402.905H335.474C336.847 406.603 377.24 515.456 375.927 511.915H511.915ZM210.617 292.049L255.669 173.783L294.568 292.049H210.617Z" fill="#F2FF49"/>
<path d="M511.915 511.915C442.974 333.576 381.831 178.339 312.89 0H255.669V173.783L294.568 292.049H255.669V402.905H335.474C336.847 406.603 377.241 515.456 375.927 511.915" fill="#E01A4F"/>
</svg>
