<svg width="229" height="84" viewBox="0 0 229 84" fill="none" xmlns="http://www.w3.org/2000/svg">
<path opacity="0.5" d="M81.8515 1.09999L71.7895 83H70.6195L80.2135 4.727C80.2525 4.571 80.272 4.4345 80.272 4.3175C80.272 4.1615 80.2915 4.0055 80.3305 3.8495L39.8485 66.035C39.5755 66.425 39.3025 66.62 39.0295 66.62H38.6785C38.3275 66.62 38.0935 66.425 37.9765 66.035L11.6515 3.61549C11.6125 3.81049 11.593 4.00549 11.593 4.20049C11.593 4.3565 11.5735 4.532 11.5345 4.727L1.94049 83H0.770493L10.8325 1.09999H11.3005C11.6515 1.09999 11.9245 1.25599 12.1195 1.568L38.6785 64.631C38.7955 64.865 38.893 65.138 38.971 65.45C39.049 65.333 39.127 65.1965 39.205 65.0405C39.322 64.8845 39.4195 64.748 39.4975 64.631L80.5645 1.568C80.7595 1.25599 81.0325 1.09999 81.3835 1.09999H81.8515ZM142.01 53.867L129.491 5.42899C129.374 5 129.257 4.61 129.14 4.259C129.062 3.869 128.984 3.4595 128.906 3.03049C128.711 3.4595 128.516 3.869 128.321 4.259C128.126 4.61 127.931 5 127.736 5.42899L103.283 53.867H142.01ZM151.136 83H150.083C149.732 83 149.498 82.805 149.381 82.415L142.302 55.037H102.698L88.8916 82.415C88.6186 82.805 88.3066 83 87.9556 83H87.0196L128.555 1.09999H129.725L151.136 83ZM194.454 82.766C197.535 82.766 200.323 82.5125 202.819 82.0055C205.315 81.4595 207.538 80.777 209.488 79.958C211.438 79.139 213.135 78.281 214.578 77.384C216.021 76.448 217.23 75.5705 218.205 74.7515C219.18 73.9325 219.94 73.2695 220.486 72.7625C221.071 72.2165 221.461 71.9435 221.656 71.9435C221.734 71.9435 221.812 71.9825 221.89 72.0605L222.417 72.587C220.623 74.264 218.731 75.8045 216.742 77.2085C214.753 78.5735 212.608 79.763 210.307 80.777C208.045 81.752 205.588 82.5125 202.936 83.0585C200.284 83.6435 197.418 83.936 194.337 83.936C189.774 83.936 185.62 83.117 181.876 81.479C178.132 79.802 174.934 77.423 172.282 74.342C169.63 71.261 167.563 67.5365 166.081 63.1685C164.638 58.8005 163.917 53.906 163.917 48.485C163.917 41.309 164.97 34.757 167.076 28.829C169.221 22.862 172.165 17.7725 175.909 13.5605C179.653 9.3095 184.06 6.014 189.13 3.674C194.239 1.334 199.758 0.163999 205.686 0.163999C208.416 0.163999 210.853 0.358999 212.998 0.748999C215.143 1.139 217.113 1.7435 218.907 2.56249C220.701 3.3425 222.378 4.337 223.938 5.54599C225.498 6.75499 227.058 8.15899 228.618 9.75799L228.384 10.109C228.228 10.265 227.994 10.343 227.682 10.343C227.37 10.343 226.804 9.875 225.985 8.939C225.166 8.003 223.918 6.9695 222.241 5.8385C220.603 4.7075 218.439 3.674 215.748 2.73799C213.057 1.802 209.664 1.334 205.569 1.334C199.914 1.334 194.629 2.4455 189.715 4.66849C184.84 6.85249 180.589 9.99199 176.962 14.087C173.335 18.182 170.488 23.135 168.421 28.946C166.354 34.757 165.321 41.27 165.321 48.485C165.321 53.75 166.023 58.508 167.427 62.759C168.87 66.971 170.878 70.559 173.452 73.523C176.026 76.487 179.088 78.7685 182.637 80.3675C186.225 81.9665 190.164 82.766 194.454 82.766Z" fill="black"/>
</svg>
