<svg width="782" height="1179" viewBox="0 0 782 1179" fill="none" xmlns="http://www.w3.org/2000/svg">
<g opacity="0.5" clip-path="url(#clip0)">
<rect width="782" height="1179" fill="#444444"/>
<path d="M1192.72 1037.67H-372V1038.46H1192.72V1037.67Z" fill="#141414"/>
<path d="M369.677 898.102H-234.587C-239.32 898.093 -243.857 896.207 -247.202 892.857C-250.546 889.507 -252.424 884.966 -252.424 880.232V30.8088C-252.383 26.1022 -250.487 21.6019 -247.147 18.2855C-243.807 14.969 -239.293 13.1043 -234.587 13.0962H369.677C374.416 13.0962 378.961 14.9788 382.312 18.3299C385.663 21.681 387.546 26.2261 387.546 30.9653V880.232C387.546 884.972 385.663 889.517 382.312 892.868C378.961 896.219 374.416 898.102 369.677 898.102ZM-234.587 13.7221C-239.113 13.7304 -243.451 15.5342 -246.648 18.7377C-249.846 21.9412 -251.642 26.2825 -251.642 30.8088V880.232C-251.642 884.759 -249.846 889.1 -246.648 892.304C-243.451 895.507 -239.113 897.311 -234.587 897.319H369.677C374.206 897.311 378.547 895.508 381.75 892.305C384.953 889.103 386.755 884.762 386.764 880.232V30.8088C386.755 26.2797 384.953 21.9384 381.75 18.7358C378.547 15.5332 374.206 13.7304 369.677 13.7221H-234.587Z" fill="#141414"/>
<path d="M1046.61 898.102H442.311C437.575 898.093 433.035 896.208 429.685 892.859C426.336 889.509 424.451 884.969 424.442 880.232V30.8088C424.492 26.0994 426.395 21.5991 429.74 18.2835C433.085 14.9679 437.602 13.1042 442.311 13.0962H1046.61C1051.31 13.1125 1055.81 14.9809 1059.15 18.2965C1062.48 21.612 1064.37 26.1076 1064.41 30.8088V880.232C1064.41 884.961 1062.54 889.496 1059.2 892.846C1055.86 896.195 1051.33 898.085 1046.61 898.102ZM442.311 13.7221C437.782 13.7304 433.441 15.5332 430.238 18.7358C427.036 21.9384 425.233 26.2797 425.225 30.8088V880.232C425.233 884.762 427.036 889.103 430.238 892.305C433.441 895.508 437.782 897.311 442.311 897.319H1046.61C1051.14 897.311 1055.48 895.508 1058.68 892.305C1061.88 889.103 1063.68 884.762 1063.69 880.232V30.8088C1063.68 26.2797 1061.88 21.9384 1058.68 18.7358C1055.48 15.5332 1051.14 13.7304 1046.61 13.7221H442.311Z" fill="#141414"/>
<path d="M223.157 1058.99H82.2383V1059.77H223.157V1058.99Z" fill="#141414"/>
<path d="M63.2113 1096.54H-127.027V1097.32H63.2113V1096.54Z" fill="#141414"/>
<path d="M944.179 1091.28H771.153V1092.06H944.179V1091.28Z" fill="#141414"/>
<path d="M665.472 1078.08H432.422V1078.86H665.472V1078.08Z" fill="#141414"/>
<path d="M395.145 654.655C482.552 618.449 524.06 518.241 487.855 430.833C451.649 343.425 351.441 301.918 264.033 338.123C176.626 374.329 135.118 474.537 171.323 561.945C207.529 649.352 307.737 690.86 395.145 654.655Z" fill="#0A0A0A"/>
<path d="M800.319 200.863C794.061 169.568 768.681 148.319 735.008 150.197C713.884 151.386 693.355 161.4 677.051 176.797C672.739 172.744 667.627 169.637 662.044 167.676C656.461 165.714 650.529 164.941 644.63 165.406C621.691 166.689 599.722 183.181 588.582 205.369C578.848 200.848 568.204 198.631 557.475 198.891C546.658 199.058 535.983 201.38 526.075 205.722C516.166 210.064 507.223 216.338 499.768 224.177C495.913 221.849 491.471 220.676 486.969 220.797C473.95 220.954 462.434 230.467 461.213 242.015C461.213 242.735 461.213 243.423 461.213 244.143L832.834 223.426C837.466 211.91 816.53 200.55 800.319 200.863Z" fill="#141414"/>
<path d="M1009.21 421.394C1004.23 396.891 984.487 380.336 958.199 381.807C941.147 383.219 925.132 390.573 912.948 402.586C909.581 399.422 905.589 396.996 901.229 395.466C896.869 393.935 892.237 393.333 887.631 393.699C869.668 394.7 852.518 407.593 843.818 424.993C836.217 421.471 827.91 419.737 819.534 419.923C811.084 420.055 802.746 421.873 795.008 425.269C787.27 428.665 780.287 433.572 774.47 439.701C771.453 437.88 767.979 436.958 764.456 437.041C754.285 437.041 745.304 444.615 744.333 453.627C744.333 454.191 744.333 454.723 744.333 455.286L1034.75 439.075C1038.25 430 1021.88 421.113 1009.21 421.394Z" fill="#0A0A0A"/>
<path d="M469.225 296.811C468.089 296.749 466.95 296.749 465.814 296.811C459.555 283.855 448.915 275.938 436.272 276.626C426.507 277.657 417.527 282.45 411.236 289.989C400.252 264.766 380.536 249.087 356.878 250.402C337.788 251.466 319.638 263.389 305.586 282.009C302.196 277.301 297.692 273.508 292.476 270.969C287.261 268.429 281.497 267.223 275.7 267.457C254.952 268.615 235.8 288.456 226.756 315.431C218.301 309.863 208.401 306.893 198.278 306.888C177.874 306.888 159.254 318.655 147.205 336.899C143.941 334.066 139.761 332.51 135.439 332.518C124.267 332.518 114.722 342.72 113.22 355.77L508.311 333.707C507.289 323.898 502.782 314.781 495.61 308.011C488.438 301.241 479.077 297.267 469.225 296.811Z" fill="#141414"/>
<path d="M993.437 989.544L930.535 1012.45L700.49 921.666L370.71 1000.12L220.997 952.053L-4.82306 1018.49L-139.89 979.686L-252.424 1037.61L1091.54 1037.67L993.437 989.544Z" fill="#0A0A0A"/>
<path d="M61.2709 151.574L78.1073 98.4672L126.989 65.7959L95.9451 66.015L54.793 96.7148L33.3875 133.235L22.3093 186.342L13.1401 120.999L-19.719 75.591L-65.5653 42.419L-126.558 41.5427L-84.8114 51.0875L-25.4459 98.4672L-18.968 180.74L-55.5824 169.912L-96.891 166.877L-65.5653 177.548L-25.0704 199.329L-12.4587 273.841L-22.7859 1001.5L-51.0447 1037.67H63.1798L29.1941 1009.73L25.0007 964.571L24.5938 357.147L31.4786 228.808L61.2709 151.574Z" fill="#0F0F0F"/>
<path d="M-86.6888 494.404L-94.2621 575.988L-93.8239 957.373L-90.0686 997.899L-51.8582 1037.67H-177.349L-147.15 1012.36L-134.976 543.88L-142.111 477.755L-200.037 432.097L-267.383 436.134L-299.491 452.031L-262.97 413.727L-190.586 396.233L-152.188 409.596L-193.09 350.637L-239.061 323.975L-288.162 316.996L-232.771 310.111L-172.967 325.852L-125.118 374.515L-140.234 289.958L-185.548 242.766L-127.622 271.713L-97.3915 341.312L-89.8495 427.966L-47.0388 357.96L-10.5182 344.066L30.3835 355.457L-13.0531 363.593L-43.9094 400.708L-70.3531 457.445L-86.6888 494.404Z" fill="#1F1F1F"/>
<path d="M923.244 494.404L915.671 575.988L916.109 957.373L919.864 997.899L958.074 1037.67H832.584L862.783 1012.36L874.956 543.88L867.821 477.755L809.927 432.097L742.55 436.134L710.442 452.031L746.962 413.727L819.346 396.233L857.745 409.596L816.843 350.637L770.871 323.975L721.77 316.996L777.161 310.111L836.996 325.852L884.846 374.515L869.73 289.958L824.385 242.766L882.311 271.713L912.541 341.312L920.083 427.966L962.894 357.96L999.414 344.066L1040.32 355.457L996.879 363.593L966.023 400.708L939.611 457.445L923.244 494.404Z" fill="#1F1F1F"/>
<path d="M209.95 676.256L243.561 697.661L226.004 666.335L191.612 650.281L234.391 584.563L243.561 521.442L217.586 576.927L174.024 639.579L178.625 505.075L200.781 446.993L228.289 418.734L193.145 435.539L156.468 490.555L144.983 597.55L107.555 502.791L27.3163 470.683L88.4342 514.245L115.191 613.604L36.4855 566.976H-47.5712L38.019 589.915L75.447 618.956L0.559555 627.343L-51.3892 677.789L2.84403 646.464L97.6973 646.745L112.124 677.789L117.851 777.118L106.804 1018.84L90.75 1037.67H186.824L158.189 1010.04L155.342 685.894L173.618 665.866L209.95 676.256Z" fill="#1F1F1F"/>
<path d="M474.388 616.546L457.583 563.408L408.67 530.768L439.745 530.987L480.897 561.687L502.271 598.207L513.381 651.314L522.55 585.971L555.409 540.532L601.256 507.36L662.248 506.484L620.502 516.06L561.136 563.408L554.627 645.681L591.273 634.885L632.581 631.818L601.256 642.52L560.729 664.301L548.118 738.813L558.445 1001.5L586.735 1037.67H472.479L506.496 1009.73L510.69 964.571L511.065 822.088L504.212 693.749L474.388 616.546Z" fill="#0F0F0F"/>
<path d="M622.379 344.785L629.953 426.37L629.514 957.373L625.728 997.899L587.549 1037.67H713.039L682.809 1012.36L670.635 394.262L677.77 328.137L735.696 282.478L803.073 286.484L835.181 302.413L798.661 264.077L726.245 246.615L687.847 259.946L728.78 201.019L774.72 174.356L823.821 167.378L768.43 160.493L708.627 176.234L660.777 224.897L675.893 140.308L721.207 93.1472L663.312 122.095L633.082 191.693L625.54 278.347L582.729 208.342L546.209 194.416L505.276 205.807L548.712 213.975L579.569 251.059L606.012 307.795L622.379 344.785Z" fill="#1F1F1F"/>
<path d="M325.74 464.393L292.099 485.767L309.686 454.441L344.079 438.387L301.268 372.669L292.099 309.579L318.073 365.033L361.635 427.716L357.066 293.212L334.909 235.13L307.37 206.871L342.545 223.676L379.222 278.692L390.676 385.687L428.135 290.928L508.374 258.82L447.225 302.382L420.468 401.71L499.205 355.113H583.262L497.671 378.02L460.212 407.061L535.1 415.48L587.08 465.895L532.815 434.569L437.962 434.882L423.535 465.895L417.808 565.254L428.886 1018.84L444.94 1037.67H348.835L377.501 1010.04L380.349 474.031L362.042 453.972L325.74 464.393Z" fill="#1F1F1F"/>
<path d="M410.36 1179C745.468 1179 1017.13 1163.14 1017.13 1143.57C1017.13 1124.01 745.468 1108.15 410.36 1108.15C75.2516 1108.15 -196.407 1124.01 -196.407 1143.57C-196.407 1163.14 75.2516 1179 410.36 1179Z" fill="#0A0A0A"/>
<path d="M230.042 1130.31C228.164 1093.75 173.305 1084.9 154.184 1068.59C152.15 1057.7 141.04 1033.95 129.336 1026.31C128.585 1010.32 120.449 1015.3 119.541 1002.62C118.634 989.951 127.396 978.591 115.348 963.35C119.572 956.184 101.359 923.951 106.617 911.402C111.874 898.852 166.358 880.358 170.676 852.944C180.076 850.034 188.34 844.277 194.327 836.468C200.314 828.659 203.728 819.183 204.099 809.351C209.763 804.938 243.842 790.574 248.787 764.944C264.434 756.995 287.967 693.874 284.869 667.931C303.302 630.691 337.037 608.284 343.953 581.872C326.984 592.312 312.493 606.323 301.487 622.93C286.841 644.179 272.821 637.138 272.821 637.138C260.303 648.435 257.612 658.793 266.061 677.132C260.084 699.852 257.33 721.883 223.188 736.591C211.703 734.025 145.515 760.719 137.222 788.227C110.966 764.787 85.305 786.161 85.305 786.161C85.305 786.161 48.3463 675.849 25.6266 647.903C14.7674 608.847 51.5071 586.347 25.6266 529.923C14.3606 505.326 37.0804 478.412 28.1301 445.428C40.3976 399.394 78.6393 339.403 56.7645 326.885C47.1884 304.979 13.766 228.151 -2.13152 205.431C8.82152 234.723 45.7176 317.841 45.123 332.737C44.5284 347.633 31.5725 358.774 24.9068 383.215C-5.0732 413.007 -19.4373 438.95 -11.0817 457.508C-26.416 490.179 -41.2182 531.988 -42.783 560.185C-44.3477 588.381 -59.7132 586.503 -64.4074 621.084C-71.9806 676.913 -39.5909 701.823 -53.4856 723.792C-79.7416 732.585 -89.9436 802.841 -74.0774 836.452C-83.2153 878.198 -13.8669 937.313 -39.3406 971.456C-64.8142 1005.6 -4.4473 1055.14 -14.5241 1075.38C-24.6009 1095.63 -54.1115 1093.25 -40.029 1129.59C1.40474 1140.48 200.938 1135.91 230.042 1130.31Z" fill="#D9CDC7"/>
<path d="M284.463 640.017C275.888 624.057 277.234 615.325 273.51 600.367C269.786 585.408 270.381 643.866 270.381 643.866L284.463 640.017Z" fill="#D9CDC7"/>
<path d="M32.5115 542.566C41.8998 516.466 78.483 462.734 96.1956 463.454C121.607 471.465 226.631 484.233 248.005 484.077C201.564 474.125 102.423 451.249 92.7219 452.594C83.0207 453.94 37.3935 495.906 26.5656 491.493C10.3864 516.372 22.9667 534.774 32.5115 542.566Z" fill="#D9CDC7"/>
<path d="M170.676 852.912C198.247 853.319 269.254 832.008 282.585 820.335C221.185 834.386 193.302 823.84 182.193 836.483C162.477 842.397 170.676 852.912 170.676 852.912Z" fill="#D9CDC7"/>
<path d="M260.429 728.893C251.04 697.098 210.671 671.092 195.681 638.953C204.537 670.936 241.558 697.598 243.06 716.062C244.563 734.526 223.877 721.351 223.188 736.56C240.526 739.126 260.429 728.893 260.429 728.893Z" fill="#D9CDC7"/>
<path d="M244.907 731.302C199.28 732.836 146.736 705.172 146.736 705.172C146.736 705.172 200.375 743.914 234.548 740.659C253.513 737.968 244.907 731.302 244.907 731.302Z" fill="#D9CDC7"/>
<path d="M66.1216 741.723C63.2738 709.741 87.1828 641.112 104.77 625.653C87.84 633.507 59.3307 674.253 59.0804 686.614C52.4147 676.788 30.2896 681.138 30.2896 681.138L66.1216 741.723Z" fill="#D9CDC7"/>
<path d="M170.019 421.957C166.455 426.961 162.364 431.567 157.815 435.696C153.152 439.811 148.218 443.606 143.044 447.055C137.816 450.461 132.416 453.595 126.864 456.444C121.25 459.418 115.473 462.072 109.559 464.393L106.116 453.095C111.914 451.807 117.639 450.209 123.266 448.307C128.976 446.429 134.585 444.256 140.071 441.798C145.549 439.298 150.86 436.444 155.968 433.255C161.029 429.984 165.738 426.198 170.019 421.957Z" fill="#D9CDC7"/>
<path d="M355.658 776.679C349.033 769.101 341.891 761.99 334.284 755.399C330.507 752.082 326.637 748.859 322.673 745.729C318.73 742.6 314.693 739.47 310.625 736.779L314.318 732.116C318.292 735.496 322.016 738.907 325.678 742.443C329.339 745.98 332.938 749.578 336.412 753.302C343.346 760.653 349.776 768.463 355.658 776.679Z" fill="#D9CDC7"/>
<path d="M151.524 486.205C147.143 483.607 142.73 481.104 138.193 478.819C133.655 476.535 129.086 474.375 124.454 472.341C119.823 470.307 115.066 468.398 110.372 466.646C105.678 464.893 100.983 463.172 96.1016 461.733L98.1357 456.162C102.955 458.165 107.524 460.324 112.218 462.421C116.912 464.518 121.356 467.084 125.8 469.556C130.244 472.028 134.656 474.657 138.944 477.411C143.231 480.165 147.487 483.2 151.524 486.205Z" fill="#D9CDC7"/>
<path d="M7.82031 308.077C14.8221 315.372 22.2968 322.199 30.1958 328.512C34.1389 331.683 38.155 334.75 42.2441 337.713C46.3124 340.654 50.5058 343.533 54.7619 346.193L51.1943 351.075C47.0948 347.946 43.2143 344.597 39.365 341.186C35.5158 337.775 31.8231 334.333 28.1929 330.765C20.9036 323.665 14.0975 316.086 7.82031 308.077Z" fill="#D9CDC7"/>
<path d="M144.358 420.862C140.934 425.903 138.06 431.295 135.783 436.947C134.625 439.733 133.593 442.58 132.654 445.428C131.715 448.276 130.901 451.218 130.307 454.003L124.486 452.375C125.706 449.246 127.021 446.555 128.429 443.77C129.837 440.984 131.558 438.262 133.029 435.633C136.285 430.331 140.081 425.381 144.358 420.862Z" fill="#D9CDC7"/>
<path d="M358.693 612.196C351.934 611.664 345.143 611.664 338.383 612.196C335.003 612.446 331.655 612.822 328.338 613.291C325.02 613.761 321.672 614.355 318.574 615.075L317.51 609.254C321.109 608.941 324.52 608.879 327.993 608.879C331.467 608.879 334.909 608.879 338.352 609.254C345.199 609.699 352 610.683 358.693 612.196Z" fill="#D9CDC7"/>
<path d="M183.945 691.277C186.558 697.911 189.698 704.326 193.334 710.46C195.086 713.59 196.932 716.719 198.873 719.536C200.813 722.352 202.847 725.419 204.944 728.173L199.874 731.302C198.059 728.173 196.463 724.856 194.898 721.601C193.334 718.347 191.769 714.998 190.58 711.681C187.85 705.059 185.632 698.238 183.945 691.277Z" fill="#D9CDC7"/>
<path d="M254.796 876.039C249.507 873.066 244.218 870.156 238.742 867.558C233.265 864.961 227.789 862.426 222.187 860.11C216.585 857.794 210.984 855.635 205.288 853.601C199.592 851.567 193.834 849.689 188.139 848.062L190.016 842.46C195.837 844.651 201.439 846.998 207.009 849.533C212.58 852.067 218.087 854.665 223.501 857.45C228.915 860.235 234.235 863.177 239.461 866.244C244.688 869.311 249.789 872.628 254.796 876.039Z" fill="#D9CDC7"/>
<path d="M197.996 454.535C193.165 457.462 187.966 459.735 182.537 461.294C177.115 462.97 171.597 464.319 166.014 465.331C160.443 466.395 154.81 467.209 149.146 467.866C143.482 468.523 137.911 469.055 132.028 469.368L132.56 457.57C137.817 458.227 143.419 458.697 148.864 459.041C154.309 459.385 159.88 459.51 165.388 459.448C170.901 459.433 176.408 459.088 181.88 458.415C187.398 457.828 192.816 456.524 197.996 454.535Z" fill="#D9CDC7"/>
<path d="M-13.1157 369.101C-9.44582 374.306 -6.13151 379.754 -3.19541 385.405C-0.234391 391.087 2.38848 396.939 4.65949 402.93C6.95442 408.939 8.94681 415.052 10.6367 421.269C12.3899 427.555 13.7692 433.94 14.7676 440.39L2.71923 441.078C2.73768 435.003 2.40331 428.932 1.71781 422.896C1.0502 416.762 0.0905104 410.66 -1.16127 404.589C-2.39262 398.486 -4.00218 392.466 -5.9806 386.563C-7.95025 380.584 -10.3344 374.749 -13.1157 369.101Z" fill="#D9CDC7"/>
<path d="M61.5842 604.56C64.0723 610.1 66.1638 615.81 67.8431 621.647C69.527 627.524 70.8336 633.503 71.7549 639.547C72.674 645.635 73.2799 651.767 73.57 657.917C73.8757 664.175 73.7921 670.446 73.3196 676.694L61.4277 674.659C62.8116 669.042 63.8566 663.347 64.5572 657.604C65.2669 651.746 65.6639 645.854 65.7464 639.954C65.8553 634.027 65.573 628.1 64.9014 622.21C64.2285 616.254 63.1198 610.354 61.5842 604.56Z" fill="#D9CDC7"/>
<path d="M141.979 905.456C142.245 914.648 141.668 923.845 140.258 932.932C138.79 942.179 136.624 951.301 133.78 960.221C130.936 969.256 127.54 978.108 123.609 986.727C121.607 991.046 119.541 995.364 117.351 999.62C116.224 1001.75 115.066 1003.88 113.846 1005.88C112.625 1007.88 111.436 1010.01 109.809 1012.45L86.6821 993.455C87.9652 992.423 89.8116 990.827 91.1259 989.356C92.4403 987.885 94.2554 986.226 95.6636 984.787C98.793 981.657 101.547 978.372 104.395 975.054C110.011 968.33 115.235 961.287 120.042 953.962C124.927 946.557 129.247 938.795 132.967 930.741C136.738 922.606 139.755 914.142 141.979 905.456Z" fill="#D9CDC7"/>
<path d="M357.473 729.487C345.243 730.665 333.119 732.757 321.202 735.746C309.39 738.608 297.776 742.235 286.434 746.605C275.173 750.831 264.142 755.647 253.387 761.032C248.067 763.786 242.779 766.571 237.74 769.575C232.702 772.58 227.382 775.834 222.938 778.776L210.608 758.466C213.737 756.932 216.648 755.712 219.652 754.46C222.656 753.208 225.598 752.082 228.571 750.955C234.517 748.671 240.525 746.637 246.534 744.696C258.558 740.886 270.768 737.69 283.117 735.12C295.355 732.558 307.74 730.76 320.201 729.738C332.603 728.763 345.059 728.679 357.473 729.487Z" fill="#D9CDC7"/>
<path d="M127.209 697.661C123.118 704.227 118.424 710.398 113.189 716.093C107.783 721.825 101.99 727.178 95.8515 732.116C89.6321 737.085 83.1557 741.723 76.449 746.011C73.0692 748.17 69.6581 750.267 66.1531 752.27C62.6482 754.272 59.2058 756.15 55.1062 758.059L47.3452 735.621C50.4747 735.089 54.2926 734.15 57.7663 733.211C61.2399 732.272 64.8701 731.24 68.4063 730.082C75.5132 727.812 82.4917 725.159 89.311 722.133C96.1562 719.072 102.785 715.549 109.152 711.587C115.603 707.534 121.65 702.871 127.209 697.661Z" fill="#D9CDC7"/>
<path d="M140.978 1114.19C140.576 1114.18 140.191 1114.02 139.901 1113.74C139.611 1113.47 139.437 1113.09 139.413 1112.69L134.218 985.882C134.218 985.467 134.383 985.069 134.677 984.776C134.97 984.482 135.368 984.317 135.783 984.317C136.198 984.317 136.596 984.482 136.889 984.776C137.183 985.069 137.348 985.467 137.348 985.882L142.574 1112.69C142.582 1112.89 142.55 1113.1 142.479 1113.29C142.408 1113.48 142.3 1113.66 142.16 1113.81C142.021 1113.96 141.853 1114.09 141.666 1114.17C141.479 1114.26 141.277 1114.31 141.072 1114.31L140.978 1114.19Z" fill="#D9CDC7"/>
<path d="M151.806 1114.19C151.396 1114.19 151.003 1114.03 150.71 1113.74C150.418 1113.46 150.249 1113.07 150.241 1112.66L147.487 979.091C147.483 978.883 147.52 978.677 147.597 978.483C147.674 978.29 147.789 978.113 147.934 977.965C148.08 977.816 148.254 977.698 148.446 977.617C148.638 977.537 148.844 977.495 149.052 977.495C149.256 977.491 149.459 977.528 149.648 977.603C149.838 977.678 150.011 977.791 150.156 977.933C150.302 978.076 150.418 978.247 150.497 978.435C150.576 978.623 150.617 978.825 150.617 979.029L153.245 1112.59C153.249 1112.8 153.213 1113 153.138 1113.19C153.063 1113.39 152.952 1113.56 152.809 1113.71C152.667 1113.86 152.497 1113.98 152.308 1114.06C152.12 1114.14 151.917 1114.19 151.712 1114.19H151.806Z" fill="#D9CDC7"/>
<path d="M164.824 1113.88C164.617 1113.88 164.413 1113.83 164.223 1113.75C164.032 1113.67 163.86 1113.55 163.717 1113.41C163.574 1113.26 163.462 1113.08 163.389 1112.89C163.316 1112.69 163.282 1112.49 163.291 1112.28L165.544 986.07C165.544 985.655 165.709 985.257 166.002 984.964C166.296 984.67 166.694 984.505 167.109 984.505C167.524 984.505 167.922 984.67 168.215 984.964C168.509 985.257 168.673 985.655 168.673 986.07L166.264 1112.34C166.25 1112.73 166.097 1113.1 165.832 1113.38C165.568 1113.66 165.209 1113.84 164.824 1113.88Z" fill="#D9CDC7"/>
<path d="M175.652 1113.88C175.447 1113.87 175.245 1113.82 175.058 1113.73C174.871 1113.65 174.703 1113.53 174.564 1113.37C174.424 1113.22 174.316 1113.05 174.245 1112.85C174.174 1112.66 174.142 1112.45 174.15 1112.25L179.376 979.31C179.376 978.895 179.541 978.497 179.835 978.204C180.128 977.91 180.526 977.746 180.941 977.746C181.356 977.746 181.754 977.91 182.048 978.204C182.341 978.497 182.506 978.895 182.506 979.31L177.28 1112.25C177.288 1112.47 177.252 1112.68 177.174 1112.88C177.095 1113.08 176.976 1113.27 176.823 1113.42C176.67 1113.57 176.487 1113.69 176.285 1113.77C176.084 1113.85 175.868 1113.89 175.652 1113.88Z" fill="#D9CDC7"/>
<path d="M191.737 1114.19C191.532 1114.19 191.329 1114.14 191.141 1114.06C190.953 1113.98 190.782 1113.86 190.64 1113.71C190.498 1113.56 190.386 1113.39 190.311 1113.19C190.236 1113 190.2 1112.8 190.204 1112.59L192.238 985.788C192.238 985.584 192.279 985.382 192.358 985.194C192.437 985.006 192.553 984.835 192.698 984.693C192.844 984.55 193.017 984.438 193.206 984.362C193.396 984.287 193.599 984.251 193.803 984.255C194.221 984.263 194.619 984.435 194.911 984.733C195.204 985.032 195.368 985.433 195.368 985.851L193.333 1112.66C193.329 1112.86 193.285 1113.06 193.202 1113.25C193.12 1113.44 193.001 1113.61 192.853 1113.75C192.705 1113.9 192.53 1114.01 192.339 1114.08C192.147 1114.16 191.943 1114.19 191.737 1114.19Z" fill="#D9CDC7"/>
<path d="M204.6 1114.19C204.394 1114.18 204.192 1114.13 204.005 1114.05C203.819 1113.96 203.651 1113.84 203.511 1113.69C203.372 1113.54 203.263 1113.36 203.192 1113.17C203.121 1112.97 203.089 1112.77 203.097 1112.56L208.105 978.998C208.108 978.791 208.154 978.587 208.239 978.398C208.324 978.209 208.446 978.04 208.598 977.899C208.75 977.759 208.929 977.651 209.123 977.581C209.318 977.512 209.525 977.483 209.732 977.496C209.937 977.504 210.139 977.552 210.326 977.638C210.513 977.724 210.681 977.847 210.82 977.998C210.96 978.149 211.068 978.326 211.139 978.519C211.21 978.712 211.242 978.917 211.234 979.123L206.227 1112.69C206.219 1112.89 206.17 1113.09 206.084 1113.28C205.998 1113.47 205.876 1113.64 205.725 1113.78C205.574 1113.92 205.396 1114.02 205.203 1114.09C205.01 1114.17 204.805 1114.2 204.6 1114.19Z" fill="#D9CDC7"/>
<path d="M217.649 1113.88C217.443 1113.86 217.243 1113.8 217.059 1113.71C216.875 1113.62 216.711 1113.49 216.578 1113.33C216.444 1113.17 216.342 1112.99 216.279 1112.8C216.216 1112.6 216.192 1112.39 216.209 1112.19L225.598 985.976C225.631 985.561 225.828 985.176 226.145 984.907C226.462 984.637 226.873 984.504 227.288 984.537C227.703 984.57 228.087 984.767 228.357 985.083C228.627 985.4 228.76 985.812 228.727 986.227L219.339 1112.44C219.327 1112.64 219.274 1112.85 219.182 1113.03C219.089 1113.22 218.96 1113.38 218.802 1113.52C218.644 1113.65 218.461 1113.75 218.262 1113.82C218.064 1113.88 217.855 1113.9 217.649 1113.88Z" fill="#D9CDC7"/>
<path d="M233.359 1113.88C232.947 1113.84 232.563 1113.65 232.289 1113.34C232.014 1113.03 231.871 1112.63 231.888 1112.22L239.837 979.279C239.849 979.074 239.902 978.873 239.992 978.688C240.082 978.503 240.208 978.337 240.362 978.2C240.516 978.064 240.695 977.959 240.89 977.892C241.084 977.824 241.29 977.796 241.495 977.808C241.701 977.821 241.902 977.874 242.087 977.964C242.272 978.054 242.438 978.179 242.574 978.333C242.711 978.487 242.816 978.667 242.883 978.861C242.95 979.056 242.979 979.262 242.966 979.467L235.018 1112.41C235.01 1112.61 234.96 1112.82 234.872 1113C234.783 1113.19 234.658 1113.36 234.503 1113.5C234.348 1113.63 234.166 1113.74 233.97 1113.8C233.773 1113.87 233.565 1113.89 233.359 1113.88Z" fill="#D9CDC7"/>
<path d="M246.628 1114.19C246.422 1114.17 246.222 1114.12 246.038 1114.02C245.854 1113.93 245.691 1113.8 245.557 1113.64C245.423 1113.49 245.321 1113.31 245.258 1113.11C245.195 1112.91 245.171 1112.71 245.188 1112.5L255.109 985.695C255.149 985.282 255.347 984.902 255.662 984.633C255.978 984.364 256.385 984.229 256.799 984.255C257.004 984.271 257.205 984.327 257.389 984.421C257.573 984.515 257.736 984.644 257.87 984.801C258.004 984.958 258.105 985.14 258.168 985.336C258.232 985.532 258.255 985.739 258.238 985.945L248.287 1112.75C248.255 1113.16 248.063 1113.54 247.752 1113.81C247.442 1114.08 247.038 1114.22 246.628 1114.19Z" fill="#D9CDC7"/>
<path d="M257.424 1114.19C257.012 1114.14 256.634 1113.94 256.371 1113.61C256.108 1113.29 255.981 1112.88 256.016 1112.47L269.379 978.904C269.398 978.698 269.458 978.498 269.556 978.315C269.653 978.133 269.786 977.971 269.946 977.84C270.106 977.709 270.29 977.612 270.488 977.552C270.686 977.493 270.894 977.474 271.1 977.495C271.51 977.543 271.885 977.75 272.143 978.072C272.401 978.395 272.521 978.806 272.477 979.217L259.145 1112.78C259.126 1112.99 259.066 1113.19 258.968 1113.37C258.871 1113.55 258.739 1113.71 258.579 1113.84C258.419 1113.98 258.234 1114.07 258.036 1114.13C257.838 1114.19 257.63 1114.21 257.424 1114.19Z" fill="#D9CDC7"/>
<path d="M270.474 1113.88H270.286C270.08 1113.85 269.881 1113.78 269.701 1113.68C269.521 1113.57 269.364 1113.43 269.239 1113.27C269.114 1113.1 269.023 1112.91 268.971 1112.71C268.92 1112.51 268.91 1112.3 268.941 1112.09L286.246 985.882C286.305 985.467 286.525 985.092 286.86 984.84C287.194 984.588 287.615 984.479 288.03 984.537C288.445 984.595 288.82 984.815 289.073 985.15C289.325 985.484 289.434 985.905 289.376 986.32L272.07 1112.53C272.01 1112.91 271.816 1113.25 271.523 1113.5C271.23 1113.75 270.857 1113.88 270.474 1113.88Z" fill="#D9CDC7"/>
<path d="M281.333 1113.88H281.083C280.675 1113.8 280.313 1113.57 280.074 1113.23C279.834 1112.89 279.736 1112.47 279.8 1112.06L300.83 979.123C300.906 978.713 301.137 978.348 301.475 978.103C301.813 977.859 302.231 977.753 302.645 977.808C302.849 977.842 303.044 977.916 303.219 978.026C303.394 978.136 303.545 978.28 303.665 978.448C303.784 978.617 303.869 978.808 303.914 979.01C303.959 979.211 303.964 979.42 303.928 979.623L282.835 1112.56C282.777 1112.92 282.595 1113.25 282.321 1113.49C282.047 1113.73 281.698 1113.87 281.333 1113.88Z" fill="#D9CDC7"/>
<path d="M297.356 1114.19H297.168C296.962 1114.16 296.763 1114.09 296.583 1113.99C296.403 1113.89 296.246 1113.75 296.121 1113.58C295.996 1113.41 295.905 1113.22 295.854 1113.02C295.802 1112.82 295.792 1112.61 295.823 1112.41L312.972 985.601C313.03 985.186 313.251 984.811 313.585 984.558C313.92 984.306 314.341 984.197 314.756 984.255C315.171 984.313 315.546 984.534 315.798 984.868C316.05 985.203 316.16 985.624 316.102 986.039L298.921 1112.84C298.868 1113.22 298.68 1113.56 298.392 1113.81C298.104 1114.06 297.736 1114.19 297.356 1114.19Z" fill="#D9CDC7"/>
<path d="M310.218 1114.19H309.968C309.56 1114.11 309.198 1113.88 308.958 1113.54C308.719 1113.2 308.621 1112.78 308.685 1112.37L329.652 978.81C329.721 978.402 329.946 978.038 330.279 977.793C330.611 977.547 331.026 977.441 331.436 977.495C331.843 977.565 332.208 977.789 332.453 978.122C332.698 978.455 332.805 978.869 332.75 979.279L311.783 1112.87C311.723 1113.25 311.532 1113.58 311.245 1113.82C310.957 1114.06 310.593 1114.19 310.218 1114.19Z" fill="#D9CDC7"/>
<path d="M323.299 1113.88H323.017C322.815 1113.84 322.62 1113.77 322.447 1113.66C322.273 1113.55 322.123 1113.4 322.007 1113.23C321.89 1113.07 321.808 1112.87 321.767 1112.67C321.726 1112.47 321.725 1112.26 321.766 1112.06L346.301 985.851C346.334 985.648 346.408 985.454 346.519 985.281C346.629 985.107 346.773 984.957 346.943 984.84C347.112 984.724 347.303 984.642 347.505 984.601C347.706 984.559 347.914 984.559 348.116 984.599C348.524 984.683 348.884 984.923 349.118 985.268C349.352 985.613 349.441 986.036 349.367 986.446L324.833 1112.66C324.754 1113 324.559 1113.31 324.281 1113.54C324.002 1113.76 323.655 1113.88 323.299 1113.88Z" fill="#D9CDC7"/>
<path d="M334.158 1113.88H333.814C333.614 1113.84 333.423 1113.76 333.254 1113.64C333.085 1113.52 332.941 1113.38 332.83 1113.2C332.719 1113.03 332.644 1112.84 332.609 1112.64C332.574 1112.44 332.579 1112.23 332.625 1112.03L361.322 979.06C361.409 978.645 361.657 978.282 362.013 978.05C362.368 977.818 362.8 977.737 363.215 977.824C363.63 977.911 363.994 978.16 364.225 978.515C364.457 978.87 364.538 979.303 364.451 979.718L335.754 1112.69C335.668 1113.04 335.461 1113.35 335.17 1113.57C334.879 1113.79 334.521 1113.89 334.158 1113.88Z" fill="#D9CDC7"/>
<path d="M121.826 1013.8C121.411 1013.8 121.013 1013.63 120.72 1013.34C120.426 1013.05 120.261 1012.65 120.261 1012.23C120.261 1011.82 120.426 1011.42 120.72 1011.13C121.013 1010.83 121.411 1010.67 121.826 1010.67L369.678 1002.47C369.884 1002.46 370.091 1002.48 370.286 1002.55C370.481 1002.62 370.66 1002.73 370.812 1002.87C370.964 1003.01 371.086 1003.18 371.171 1003.37C371.255 1003.56 371.301 1003.76 371.305 1003.97C371.313 1004.18 371.281 1004.38 371.21 1004.57C371.139 1004.77 371.031 1004.94 370.891 1005.1C370.752 1005.25 370.584 1005.37 370.397 1005.45C370.21 1005.54 370.008 1005.59 369.803 1005.6L121.951 1013.8H121.826Z" fill="#D9CDC7"/>
<path d="M130.995 1087.09C130.58 1087.09 130.182 1086.92 129.888 1086.63C129.595 1086.34 129.43 1085.94 129.43 1085.52C129.43 1085.11 129.595 1084.71 129.888 1084.42C130.182 1084.12 130.58 1083.96 130.995 1083.96L359.976 1081.96C360.391 1081.96 360.789 1082.12 361.082 1082.41C361.376 1082.71 361.541 1083.11 361.541 1083.52C361.541 1083.94 361.376 1084.33 361.082 1084.63C360.789 1084.92 360.391 1085.09 359.976 1085.09L130.995 1087.09Z" fill="#D9CDC7"/>
<path d="M172.523 571.826C177.186 554.27 181.911 528.515 155.593 526.355C129.274 524.196 133.248 560.779 134.312 569.542C135.376 578.304 104.864 574.956 96.9156 625.121C88.9668 675.285 83.5216 733.024 83.5216 733.024C83.5216 733.024 90.0621 727.86 102.83 718.472C101.359 749.046 98.8558 778.745 72.0991 815.14C119.98 788.915 157.595 727.704 169.112 681.231C169.146 696.811 167.04 712.322 162.853 727.328C162.853 727.328 178.312 680.793 182.099 635.01C185.573 590.384 168.517 586.566 172.523 571.826Z" fill="#D9CDC7"/>
<path d="M155.405 545.602C155.405 545.602 151.493 543.317 146.016 540.469C145.832 541.082 145.774 541.725 145.846 542.36C145.917 542.996 146.117 543.61 146.433 544.166C146.749 544.722 147.175 545.208 147.684 545.594C148.193 545.981 148.776 546.26 149.396 546.415C150.392 546.757 151.454 546.861 152.497 546.72C153.54 546.579 154.536 546.196 155.405 545.602Z" fill="black"/>
<path d="M163.541 546.572C163.541 546.572 167.234 544.412 172.522 541.721C172.698 542.296 172.756 542.901 172.693 543.499C172.63 544.097 172.447 544.677 172.155 545.202C171.863 545.728 171.468 546.19 170.993 546.559C170.519 546.929 169.974 547.199 169.393 547.354C168.426 547.699 167.39 547.808 166.372 547.672C165.354 547.536 164.384 547.159 163.541 546.572Z" fill="black"/>
<path d="M264.341 1139.38C263.746 1140.2 269.285 1140.6 273.291 1139.16C274.398 1130.27 276.262 1121.48 278.861 1112.91C286.497 1106.65 294.821 1086.37 294.821 1086.37C294.821 1086.37 278.799 1109.5 273.729 1113.94C269.535 1117.79 264.341 1139.38 264.341 1139.38Z" fill="#D9CDC7"/>
<path d="M264.403 1139.13C263.185 1139.99 261.803 1140.59 260.344 1140.89C258.886 1141.19 257.381 1141.19 255.922 1140.88C258.113 1135.69 264.184 1115.1 265.78 1108.74C265.154 1101.45 268.91 1079.77 268.91 1079.77C268.91 1079.77 268.91 1104.39 269.41 1109.09C269.911 1113.78 264.403 1139.13 264.403 1139.13Z" fill="#D9CDC7"/>
<path d="M262.307 1140.85C262.619 1141.63 255.171 1142.42 250.696 1141.2C254.039 1132.72 256.463 1123.9 257.925 1114.91C251.416 1108.96 255.203 1088.9 255.203 1088.9C255.203 1088.9 260.272 1109.71 264.059 1115.6C266.406 1119.48 262.307 1140.85 262.307 1140.85Z" fill="#D9CDC7"/>
<path d="M259.208 1140.48C259.677 1141.98 265.467 1142.95 269.254 1141.95C270.625 1129.69 272.62 1117.51 275.231 1105.46C280.3 1097.01 287.749 1072.22 287.749 1072.22C287.749 1072.22 273.165 1100.67 269.911 1106.12C266.656 1111.56 259.208 1140.48 259.208 1140.48Z" fill="#D9CDC7"/>
<path d="M266.406 1139.88C266.813 1141.07 270.036 1141.23 272.915 1141.38C272.915 1137.19 276.921 1123.36 277.891 1118.48C281.396 1113.47 285.182 1096.57 285.182 1096.57C285.182 1096.57 276.263 1114.38 274.073 1117.6C271.882 1120.82 266.406 1139.88 266.406 1139.88Z" fill="#D9CDC7"/>
<path d="M257.894 1144.51V913.842L237.646 897.851L248.099 1151.05L257.894 1144.51Z" fill="#D9CDC7"/>
<path d="M316.54 1002.06L169.393 1028L152.62 1017.93L296.887 952.116L313.692 962.193L316.54 1002.06Z" fill="#D9CDC7"/>
<path d="M219.464 1148.61L189.328 907.302L237.646 897.851L248.099 1151.05L219.464 1148.61Z" fill="#C8B8B0"/>
<path d="M299.766 991.985L152.619 1017.93L146.642 967.137L296.887 952.116L299.766 991.985Z" fill="#C8B8B0"/>
<path d="M160.787 1008.51C160.403 1008.51 160.031 1008.37 159.742 1008.12C159.454 1007.86 159.269 1007.51 159.223 1007.13L155.53 975.837C155.5 975.63 155.515 975.42 155.575 975.22C155.634 975.02 155.736 974.835 155.874 974.679C155.968 974.473 156.107 974.29 156.28 974.144C156.453 973.998 156.657 973.892 156.876 973.834L204.881 969.046L198.09 914.907C198.051 914.516 198.157 914.124 198.388 913.807C198.618 913.489 198.958 913.268 199.342 913.185L228.352 907.521C228.554 907.476 228.763 907.471 228.966 907.508C229.169 907.546 229.363 907.624 229.535 907.738C229.708 907.852 229.856 907.999 229.97 908.172C230.083 908.344 230.161 908.538 230.198 908.742C230.273 909.147 230.188 909.566 229.96 909.911C229.733 910.255 229.381 910.498 228.978 910.588L201.408 915.971L208.167 970.235C208.196 970.444 208.184 970.657 208.13 970.861C208.076 971.065 207.982 971.257 207.854 971.424C207.577 971.748 207.184 971.951 206.759 971.988L158.816 976.963L162.321 1006.79C162.352 1006.99 162.341 1007.2 162.289 1007.4C162.238 1007.6 162.146 1007.79 162.021 1007.95C161.895 1008.11 161.738 1008.25 161.558 1008.35C161.379 1008.45 161.18 1008.52 160.975 1008.54L160.787 1008.51Z" fill="#D9CDC7"/>
<path d="M227.82 1141.48C227.441 1141.47 227.077 1141.33 226.794 1141.08C226.512 1140.82 226.332 1140.48 226.286 1140.1L208.574 998.431C208.53 998.021 208.65 997.61 208.908 997.287C209.166 996.965 209.541 996.757 209.951 996.71C210.362 996.657 210.777 996.769 211.105 997.021C211.434 997.273 211.649 997.645 211.703 998.056L229.385 1139.69C229.438 1140.11 229.326 1140.52 229.074 1140.85C228.822 1141.18 228.45 1141.39 228.039 1141.45L227.82 1141.48Z" fill="#D9CDC7"/>
<path d="M11.2939 1139.69C11.732 1140.79 4.81595 1141.32 0.403443 1139.41C2.24008 1127.86 3.1193 1116.18 3.03216 1104.49C-4.04037 1096.07 -6.91943 1069.16 -6.91943 1069.16C-6.91943 1069.16 4.37784 1099.92 8.94682 1105.83C12.9212 1110.78 11.2939 1139.69 11.2939 1139.69Z" fill="black"/>
<path d="M11.3252 1139.35C12.0137 1141.13 17.5841 1142.64 21.0578 1141.67C20.2754 1134.78 20.2441 1107.4 20.6196 1098.95C23.9994 1089.25 26.8785 1060.43 26.8785 1060.43C26.8785 1060.43 17.8344 1093.16 15.7064 1099.39C13.5784 1105.61 11.3252 1139.35 11.3252 1139.35Z" fill="black"/>
<path d="M13.2655 1141.63C12.6084 1142.7 21.4647 1143.73 27.3793 1142.14C26.3317 1130.48 26.5416 1118.75 28.0052 1107.15C38.1133 1099.26 40.742 1072.72 40.742 1072.72C40.742 1072.72 26.9725 1100.36 20.2129 1108.21C15.8004 1113.22 13.2655 1141.63 13.2655 1141.63Z" fill="#C8B8B0"/>
<path d="M17.1774 1141.13C16.082 1143.14 8.79044 1144.45 4.37793 1143.11C6.2243 1135.31 9.63539 1104.21 10.1987 1094.6C7.06925 1083.33 6.69373 1050.35 6.69373 1050.35C6.69373 1050.35 14.3296 1088.18 16.3011 1095.44C18.2727 1102.7 17.1774 1141.13 17.1774 1141.13Z" fill="#C8B8B0"/>
<path d="M8.75918 1140.35C7.82034 1141.95 3.78338 1142.14 0.21582 1142.35C1.81183 1136.75 1.81182 1118.38 2.37512 1111.87C-0.0971399 1105.24 1.27982 1082.96 1.27982 1082.96C1.27982 1082.96 5.78621 1106.62 7.31964 1110.93C8.85306 1115.25 8.75918 1140.35 8.75918 1140.35Z" fill="#C8B8B0"/>
<path d="M591.304 1091.09C591.992 1092.35 580.351 1090.41 573.028 1086.9C576.602 1075.76 578.573 1064.17 578.88 1052.48C567.364 1041.43 563.64 1013.17 563.64 1013.17C563.64 1013.17 581.29 1048.35 588.675 1055.98C594.997 1062.37 591.304 1091.09 591.304 1091.09Z" fill="#D9CDC7"/>
<path d="M591.335 1090.75C592.462 1092.82 601.631 1096.32 607.577 1096.6C606.544 1089.34 607.577 1061.65 608.547 1053.23C614.65 1044.65 620.846 1016.55 620.846 1016.55C620.846 1016.55 604.354 1046.41 600.505 1051.98C596.655 1057.55 591.335 1090.75 591.335 1090.75Z" fill="#D9CDC7"/>
<path d="M594.527 1093.79C593.338 1094.6 608.14 1098.82 618.123 1099.32C616.59 1093.35 617.841 1070.72 620.595 1064.15C637.839 1059.83 643.346 1033.79 643.346 1033.79C643.346 1033.79 619.187 1056.83 607.546 1062.33C599.91 1065.93 594.527 1093.79 594.527 1093.79Z" fill="#D9CDC7"/>
<path d="M601.255 1094.66C599.284 1096.29 587.016 1094.97 579.694 1092.03C583.105 1084.83 590.115 1054.48 591.46 1045.09C586.578 1032.57 587.392 999.088 587.392 999.088C587.392 999.088 598.595 1040.08 601.662 1048.16C604.729 1056.23 601.255 1094.66 601.255 1094.66Z" fill="#D9CDC7"/>
<path d="M586.985 1090.84C585.358 1092.13 578.63 1090.84 572.621 1089.81C575.531 1084.71 576.251 1066.12 577.472 1059.77C573.622 1052.13 576.815 1030.1 576.815 1030.1C576.815 1030.1 583.418 1055.67 585.827 1060.58C588.237 1065.49 586.985 1090.84 586.985 1090.84Z" fill="#D9CDC7"/>
<path d="M457.865 1124.27C454.141 1069.94 436.741 995.02 458.146 968.232C469.318 954.244 482.618 951.114 496.638 948.36C534.192 940.943 552.624 962.787 552.624 962.787L474.388 1128.9L457.865 1124.27Z" fill="#C8B8B0"/>
<path d="M474.294 1128.37C470.57 1074.07 447.725 990.67 476.297 962.724C500.143 939.379 545.301 941.35 563.608 977.088C581.916 1012.83 576.126 1126.11 576.126 1126.11L474.294 1128.37Z" fill="#D9CDC7"/>
<path d="M566.268 1103.14H563.139C563.139 1102.27 566.988 1015.77 553.751 989.825C551.066 984.358 547.105 979.615 542.204 975.999C537.302 972.383 531.602 969.998 525.586 969.046C519.428 968.015 513.115 968.425 507.142 970.244C501.169 972.063 495.7 975.241 491.162 979.53L488.971 977.276C493.868 972.633 499.77 969.184 506.219 967.197C512.668 965.21 519.488 964.74 526.149 965.823C532.663 966.836 538.838 969.404 544.149 973.31C549.46 977.216 553.752 982.344 556.661 988.261C570.149 1014.95 566.456 1099.57 566.268 1103.14Z" fill="#C8B8B0"/>
<path d="M446.473 370.134C439.964 345.63 433.392 309.673 470.101 306.669C506.809 303.664 501.395 354.768 499.799 366.942C498.203 379.115 538.51 360.902 560.135 428.373C581.759 495.843 638.371 534.586 638.371 534.586C638.371 534.586 627.042 531.801 605.418 527.294C625.039 565.254 645.412 601.493 700.49 632.162C624.539 626.654 541.295 570.793 499.799 518.469C516.761 553.957 534.505 573.266 534.505 573.266C534.505 573.266 459.93 522.381 444.94 460.074C430.357 399.394 451.887 390.694 446.473 370.134Z" fill="#D9CDC7"/>
<path d="M485.216 353.704C485.216 353.704 466.283 347.445 451.011 356.646C452.482 349.417 456.988 342.814 468.348 343.565C471.761 343.803 475.068 344.845 478 346.608C480.932 348.37 483.405 350.802 485.216 353.704Z" fill="black"/>
<path d="M649.668 582.028C697.267 617.266 713.383 618.924 733.819 624.307C693.261 608.19 683.153 588.193 649.668 582.028Z" fill="#D9CDC7"/>
<path d="M511.065 569.542C523.309 576.756 536.195 582.822 549.557 587.661C542.059 588.924 534.354 587.865 527.475 584.627C520.595 581.388 514.87 576.125 511.065 569.542Z" fill="#D9CDC7"/>
<path d="M577.972 453.846C567.896 439.764 562.325 411.442 562.325 411.442C562.325 411.442 580.445 435.789 577.972 453.846Z" fill="#D9CDC7"/>
<path d="M520.046 1144.83C518.388 1091.63 591.554 1079.11 615.526 1055.54C617.028 1039.71 629.358 1005.28 644.285 994.238C643.503 971.017 655.05 978.309 654.831 959.814C654.612 941.319 641.469 924.858 656.021 902.796C649.48 892.375 651.045 846.998 661.873 827.376C672.701 807.755 577.597 781.999 568.615 742.13C551.247 737.53 523.176 716.375 518.544 678.665C510.408 672.406 462.684 651.376 453.045 613.98C430.92 602.338 375.31 491.055 366.798 457.007C322.36 416.324 263.526 399.77 240.807 368.725C266.875 376.08 289.094 383.465 321.077 405.809C352.371 427.715 368.644 413.789 368.644 413.789C391.99 423.678 400.815 435.852 397.967 462.077C417.651 488.739 436.584 551.297 484.402 572.89C499.674 569.229 592.211 608.315 606.45 648.31C650.262 668.557 676.425 645.556 676.425 645.556C676.425 645.556 713.915 485.641 741.298 445.146C732.504 425.838 707.844 329.357 708.783 284.199C687.378 252.905 655.207 230.404 641.844 186.248C591.335 139.306 504.149 108.982 488.095 84.1655C456.456 79.5653 346.425 63.4487 314.505 50.5867C356.721 54.2481 475.921 72.4927 498.14 66.2339C520.359 59.975 572.214 86.4813 599.284 111.329C660.527 128.885 698.706 150.791 701.836 177.517C746.274 206.933 796.939 247.397 820.191 279.599C843.443 311.801 824.572 377.081 852.737 393.636C880.902 410.191 835.431 523.539 856.712 555.522C893.232 568.384 915.013 670.497 897.394 719.223C914.512 779.934 827.483 865.43 865.818 915.157C904.154 964.884 828.265 1036.55 844.163 1066C860.06 1095.44 899.71 1092.13 884.845 1144.83C830.299 1160.72 560.009 1153.15 520.046 1144.83Z" fill="#C8B8B0"/>
<path d="M353.529 421.707C357.754 398.486 351.589 387.909 349.43 367.661C347.27 347.414 375.154 421.707 375.154 421.707H353.529Z" fill="#C8B8B0"/>
<path d="M709.534 303.039C677.927 277.753 591.617 248.774 568.709 245.113C534.442 250.151 393.617 244.643 366.078 238.666C427.759 236.382 559.79 228.996 572.058 233.596C584.325 238.197 668.163 251.09 678.866 239.574C718.547 259.352 716.075 288.487 709.534 303.039Z" fill="#C8B8B0"/>
<path d="M568.615 742.255C531.375 742.725 432.954 711.462 413.583 694.438C498.078 715.123 534.724 699.945 551.278 718.346C578.504 727.046 568.615 742.255 568.615 742.255Z" fill="#C8B8B0"/>
<path d="M446.129 551.547C434.644 508.611 468.035 454.535 463.873 408.062C475.984 450.967 447.537 503.698 459.273 526.387C471.008 549.075 481.68 550.921 484.308 572.984C461.182 576.677 446.129 551.547 446.129 551.547Z" fill="#C8B8B0"/>
<path d="M392.929 508.611C336.599 488.395 262.65 508.611 262.65 508.611C262.65 508.611 341.669 472.435 383.04 490.711C405.76 502.165 392.929 508.611 392.929 508.611Z" fill="#C8B8B0"/>
<path d="M697.11 581.277C697.267 534.836 657.147 435.038 631.611 412.506C655.364 423.991 698.581 483.326 700.459 501.257C708.345 486.987 738.763 493.434 738.763 493.434L697.11 581.277Z" fill="#C8B8B0"/>
<path d="M477.768 167.377C482.048 174.372 486.916 180.988 492.32 187.155C497.715 193.239 503.517 198.948 509.688 204.242C515.84 209.538 522.264 214.511 528.934 219.138C535.554 223.716 542.441 227.896 549.557 231.656L542.015 242.609C535.176 237.658 528.634 232.308 522.425 226.586C516.282 220.965 510.443 215.022 504.931 208.78C499.409 202.57 494.327 195.982 489.722 189.064C485.138 182.183 481.139 174.928 477.768 167.377Z" fill="#C8B8B0"/>
<path d="M577.722 457.226C572.371 461.42 567.082 465.676 562.075 470.245C557.068 474.814 552.123 479.476 547.429 484.358C542.735 489.24 538.041 494.153 533.66 499.254C529.278 504.355 524.897 509.55 520.923 514.902L516.166 511.397C520.798 506.17 525.554 501.257 530.405 496.407C535.256 491.556 540.263 487.018 545.395 482.324C550.527 477.63 555.785 473.405 561.042 469.212C566.3 465.018 572.089 461.013 577.722 457.226Z" fill="#C8B8B0"/>
<path d="M500.894 269.898C506.809 266.768 512.786 263.482 518.92 260.728C525.054 257.975 531.25 255.315 537.509 252.936C543.768 250.558 550.027 248.367 556.473 246.364C562.92 244.361 569.21 242.546 575.813 240.982L576.157 247.241C569.898 248.211 563.483 249.494 557.162 250.965C550.84 252.435 544.487 254.094 538.166 256.003C531.844 257.912 525.648 259.946 519.389 262.262C513.13 264.578 506.997 267.112 500.894 269.898Z" fill="#C8B8B0"/>
<path d="M466.095 24.9253C471.457 27.657 476.679 30.6546 481.742 33.9068C486.812 37.0362 491.756 40.6351 496.513 44.2965C501.27 47.958 505.901 51.7759 510.47 55.7816C515.039 59.7873 519.295 63.9181 523.52 68.2993L518.451 72.6492C514.883 68.1116 510.94 63.6052 506.934 59.2865C502.928 54.9679 498.672 50.7745 494.416 46.7688C490.16 42.7631 485.529 38.8826 480.835 35.1899C476.14 31.4971 471.165 28.1799 466.095 24.9253Z" fill="#C8B8B0"/>
<path d="M511.222 172.698C513.512 176.615 515.601 180.647 517.481 184.777C519.39 188.908 521.142 193.164 522.707 197.483C524.271 201.801 525.836 206.214 526.994 210.689C528.152 215.164 529.404 219.67 530.343 224.396L524.084 225.992C523.708 221.454 523.114 216.823 522.362 212.285C521.611 207.747 520.704 203.21 519.671 198.734C518.638 194.259 517.387 189.847 516.01 185.497C514.633 181.147 512.974 176.891 511.222 172.698Z" fill="#C8B8B0"/>
<path d="M234.923 412.506C239.524 410.378 244.155 408.344 248.881 406.623C253.606 404.902 258.269 403.243 263.182 401.804C268.095 400.364 272.821 399.081 277.703 397.954C282.585 396.828 287.404 395.826 292.442 395.013L292.192 401.272C287.561 401.522 282.804 401.991 277.953 402.586C273.103 403.181 268.346 403.963 263.558 404.87C258.77 405.778 253.95 406.873 249.194 408C244.437 409.126 239.68 410.848 234.923 412.506Z" fill="#C8B8B0"/>
<path d="M304.397 543.818C306.494 539.249 308.684 534.711 311.188 530.299C313.691 525.886 316.258 521.442 319.043 517.155C321.828 512.868 324.707 508.611 327.743 504.449C330.778 500.287 334.001 496.219 337.287 492.119L341.637 496.062C338.132 499.536 334.659 503.291 331.31 507.047C327.962 510.802 324.676 514.745 321.546 518.72C318.417 522.694 315.287 526.794 312.502 530.956C309.717 535.118 307.088 539.436 304.397 543.818Z" fill="#C8B8B0"/>
<path d="M457.552 775.427C464.061 770.577 470.664 765.82 477.517 761.47C484.371 757.12 491.318 752.927 498.422 748.952C505.526 744.978 512.692 741.316 519.984 737.811C527.275 734.306 534.598 731.052 542.203 728.016L543.549 733.9C536.226 736.309 528.746 739.095 521.423 742.068C514.1 745.04 506.778 748.326 499.517 751.675C492.257 755.023 485.153 758.779 478.143 762.691C471.133 766.602 464.311 770.984 457.552 775.427Z" fill="#C8B8B0"/>
<path d="M435.865 208.248C441.854 212.495 448.365 215.955 455.236 218.544C462.169 221.226 469.266 223.463 476.485 225.241C483.682 227.118 491.068 228.62 498.391 229.904C505.714 231.187 513.349 232.251 520.704 233.033L517.136 245.394C509.5 243.579 502.271 241.451 495.011 239.135C487.751 236.82 480.615 234.253 473.699 231.343C466.751 228.518 459.998 225.235 453.483 221.517C447.058 217.88 441.135 213.419 435.865 208.248Z" fill="#C8B8B0"/>
<path d="M638.277 72.5554C638.712 81.0671 639.81 89.5319 641.563 97.8726C643.343 106.019 645.632 114.046 648.416 121.907C651.151 129.647 654.285 137.241 657.805 144.658C661.25 151.949 665.116 159.033 669.383 165.875L658.149 173.01C654.625 165.199 651.543 157.196 648.917 149.039C646.309 140.923 644.098 132.672 642.283 124.285C640.462 115.852 639.177 107.313 638.433 98.7175C637.708 90.0138 637.656 81.2672 638.277 72.5554Z" fill="#C8B8B0"/>
<path d="M687.753 381.9C686.054 390.53 685.008 399.276 684.624 408.063C684.283 416.64 684.46 425.23 685.156 433.786C685.844 442.257 686.939 450.602 688.442 458.822C689.881 466.94 691.761 474.974 694.075 482.887L681.807 487.331C680.388 478.649 679.458 469.893 679.022 461.106C678.542 452.344 678.48 443.529 678.834 434.663C679.209 425.773 680.097 416.912 681.494 408.125C682.929 399.241 685.021 390.475 687.753 381.9Z" fill="#C8B8B0"/>
<path d="M613.398 818.676C617.089 831.573 621.863 844.136 627.668 856.23C633.394 868.044 639.908 879.461 647.164 890.403C654.345 901.23 662.085 911.676 670.353 921.697C674.484 926.642 678.709 931.524 683.059 936.249C685.25 938.596 687.44 940.943 689.662 943.197C691.884 945.45 694.231 947.797 696.297 949.675L671.261 971.925C669.039 968.795 667.255 966.01 665.378 963.037C663.5 960.064 661.716 957.185 659.995 954.243C656.49 948.329 653.173 942.32 649.981 936.281C643.65 924.066 637.957 911.531 632.925 898.727C627.828 885.938 623.573 872.829 620.189 859.484C616.831 846.086 614.56 832.439 613.398 818.676Z" fill="#C8B8B0"/>
<path d="M507.623 453.064C509.941 469.952 513.625 486.624 518.638 502.916C523.603 518.869 529.615 534.477 536.633 549.638C543.539 564.635 551.227 579.259 559.665 593.451C563.89 600.492 568.24 607.439 572.778 614.199C577.315 620.958 582.166 627.749 586.797 633.82L565.392 649.749C560.886 641.988 557.005 634.603 553.219 626.873C549.432 619.143 545.927 611.414 542.516 603.59C535.772 587.85 529.839 571.775 524.741 555.428C519.576 538.956 515.478 522.168 512.473 505.169C509.501 487.954 507.879 470.532 507.623 453.064Z" fill="#C8B8B0"/>
<path d="M609.674 516.936C617.41 524.509 625.786 531.398 634.709 537.528C643.662 543.616 653.008 549.104 662.686 553.957C672.441 558.814 682.437 563.169 692.635 567.007C697.736 568.916 702.837 570.731 708.032 572.389C713.227 574.048 718.547 575.519 723.429 576.833L712.444 600.617C706.843 598.02 701.992 595.453 696.985 592.637C691.978 589.82 687.19 587.004 682.433 584.031C672.958 578.087 663.807 571.641 655.019 564.722C646.296 557.883 638.046 550.46 630.328 542.503C622.715 534.596 615.804 526.041 609.674 516.936Z" fill="#C8B8B0"/>
<path d="M441.967 1160.5C441.623 1161.44 447.506 1161.91 451.355 1160.29C449.776 1150.42 449.023 1140.45 449.102 1130.46C455.142 1123.3 462.621 1113.09 462.621 1113.09C462.621 1113.09 446.348 1126.83 444.033 1131.62C441.717 1136.41 441.967 1160.5 441.967 1160.5Z" fill="#D9CDC7"/>
<path d="M444.533 1160.22C443.939 1161.76 439.213 1163.04 436.209 1162.19C436.897 1156.31 436.929 1132.97 436.616 1125.74C433.705 1117.48 431.139 1092.88 431.139 1092.88C431.139 1092.88 438.869 1120.79 440.684 1126.14C442.499 1131.5 444.533 1160.22 444.533 1160.22Z" fill="#D9CDC7"/>
<path d="M440.277 1162.16C440.872 1163.07 433.298 1163.95 428.26 1162.6C429.153 1152.66 428.975 1142.65 427.728 1132.75C419.122 1126.02 408.294 1116.38 408.294 1116.38C408.294 1116.38 430.858 1128.9 434.362 1133.53C437.867 1138.16 440.277 1162.16 440.277 1162.16Z" fill="#C8B8B0"/>
<path d="M436.96 1162.07C437.93 1163.54 444.126 1164.48 447.913 1163.45C445.681 1151.44 444.104 1139.32 443.188 1127.15C445.941 1118.7 446.317 1094 446.317 1094C446.317 1094 439.62 1122.39 437.868 1127.83C436.115 1133.28 436.96 1162.07 436.96 1162.07Z" fill="#C8B8B0"/>
<path d="M451.731 1162.01C450.636 1163.13 447.256 1162.48 444.251 1162.01C446.755 1157.69 450.51 1142.48 452.388 1137.22C451.762 1131.21 457.52 1113.06 457.52 1113.06C457.52 1113.06 456.331 1133.59 456.707 1137.47C457.082 1141.35 451.731 1162.01 451.731 1162.01Z" fill="#C8B8B0"/>
<path d="M795.719 1154.4C796.532 1155.97 785.861 1157.53 778.757 1155.12C779.995 1137.82 779.744 1120.44 778.006 1103.17C765.833 1091.47 750.592 1074.7 750.592 1074.7C750.592 1074.7 782.387 1096.6 787.363 1104.55C792.339 1112.5 795.719 1154.4 795.719 1154.4Z" fill="black"/>
<path d="M434.863 788.696C434.451 788.688 434.057 788.521 433.766 788.229C433.474 787.937 433.306 787.544 433.298 787.132C433.298 781.718 433.111 772.016 432.892 759.749C431.671 695.533 429.105 561.968 442.28 538.122C442.483 537.757 442.823 537.487 443.225 537.373C443.627 537.259 444.058 537.308 444.424 537.512C444.789 537.715 445.058 538.055 445.173 538.457C445.287 538.859 445.237 539.29 445.034 539.655C432.172 562.751 434.832 700.759 435.958 759.686C436.177 771.985 436.365 781.592 436.365 787.132C436.366 787.536 436.209 787.925 435.929 788.216C435.649 788.508 435.267 788.68 434.863 788.696Z" fill="#D9CDC7"/>
<path d="M422.878 788.696C406.417 788.696 393.023 818.52 393.023 855.197C393.023 891.874 406.417 921.666 422.878 921.666C439.338 921.666 452.732 891.843 452.732 855.197C452.732 818.551 439.37 788.696 422.878 788.696Z" fill="black"/>
<path d="M422.877 924.796C404.382 924.796 389.893 894.221 389.893 855.197C389.893 816.173 404.382 785.567 422.877 785.567C441.372 785.567 455.862 816.142 455.862 855.197C455.862 894.252 441.404 924.796 422.877 924.796ZM422.877 788.696C406.416 788.696 393.023 818.52 393.023 855.197C393.023 891.874 406.416 921.666 422.877 921.666C439.338 921.666 452.732 891.843 452.732 855.197C452.732 818.551 439.369 788.696 422.877 788.696Z" fill="#D9CDC7"/>
<path d="M438.525 855.197C438.525 876.727 431.515 894.19 422.877 894.19C414.24 894.19 407.23 876.727 407.23 855.197C407.23 833.666 414.24 816.204 422.877 816.204C431.515 816.204 438.525 833.635 438.525 855.197Z" fill="#D9CDC7"/>
<path d="M422.877 895.754C413.239 895.754 405.666 877.916 405.666 855.071C405.666 832.226 413.239 814.389 422.877 814.389C432.516 814.389 440.089 832.195 440.089 855.071C440.089 877.948 432.579 895.754 422.877 895.754ZM422.877 817.769C416.087 817.769 408.795 832.79 408.795 855.322C408.795 877.854 416.087 892.875 422.877 892.875C429.668 892.875 436.96 877.822 436.96 855.322C436.96 832.821 429.7 817.769 422.877 817.769Z" fill="#D9CDC7"/>
<path d="M454.172 787.131H422.877C440.246 787.131 454.172 817.612 454.172 855.197C454.172 892.781 440.121 923.231 422.877 923.231H454.172C471.54 923.231 485.466 892.781 485.466 855.197C485.466 817.612 471.572 787.131 454.172 787.131Z" fill="#D9CDC7"/>
<path d="M454.172 924.796H422.877C422.462 924.796 422.065 924.631 421.771 924.337C421.478 924.044 421.313 923.646 421.313 923.231C421.321 922.818 421.488 922.425 421.78 922.133C422.072 921.842 422.465 921.674 422.877 921.666C439.338 921.666 452.732 891.843 452.732 855.197C452.732 818.551 439.338 788.696 422.877 788.696C422.465 788.688 422.072 788.521 421.78 788.229C421.488 787.938 421.321 787.544 421.313 787.132C421.313 786.717 421.478 786.319 421.771 786.025C422.065 785.732 422.462 785.567 422.877 785.567H454.172C472.667 785.567 487.156 816.142 487.156 855.197C487.156 894.252 472.698 924.796 454.172 924.796ZM432.86 921.666H454.172C470.633 921.666 484.027 891.843 484.027 855.197C484.027 818.551 470.633 788.696 454.172 788.696H432.892C446.38 797.427 455.893 823.527 455.893 855.197C455.893 886.867 446.38 912.935 432.892 921.666H432.86Z" fill="#D9CDC7"/>
<path d="M427.133 584.563C426.899 584.56 426.668 584.505 426.457 584.402C426.246 584.299 426.06 584.151 425.913 583.968C418.934 575.237 422.971 544.412 438.212 531.613C438.533 531.348 438.946 531.219 439.361 531.254C439.776 531.289 440.161 531.485 440.433 531.8C440.568 531.955 440.67 532.136 440.733 532.331C440.796 532.526 440.82 532.731 440.802 532.935C440.785 533.14 440.727 533.338 440.631 533.52C440.535 533.701 440.404 533.861 440.246 533.991C426.382 545.633 422.189 574.298 428.354 582.028C428.61 582.352 428.727 582.765 428.68 583.175C428.633 583.585 428.426 583.96 428.104 584.219C427.827 584.437 427.486 584.558 427.133 584.563Z" fill="#D9CDC7"/>
<path d="M422.564 818.77C422.036 818.759 421.532 818.546 421.156 818.175C419.091 815.797 418.027 794.955 421.469 786.506C421.551 786.316 421.669 786.145 421.817 786.001C421.966 785.857 422.141 785.745 422.333 785.669C422.525 785.593 422.73 785.556 422.936 785.56C423.142 785.564 423.346 785.609 423.535 785.692C423.91 785.857 424.205 786.162 424.357 786.543C424.509 786.923 424.506 787.348 424.348 787.726C421.939 793.39 422.032 804.124 422.658 810.759C425.007 803.562 427.873 796.544 431.233 789.76C431.323 789.575 431.449 789.409 431.603 789.273C431.757 789.136 431.937 789.032 432.132 788.965C432.327 788.898 432.533 788.87 432.738 788.883C432.944 788.896 433.145 788.95 433.33 789.04C433.698 789.229 433.979 789.552 434.113 789.943C434.247 790.334 434.225 790.762 434.05 791.137C434.05 791.325 426.101 807.191 424.442 816.454C424.442 817.08 424.129 818.394 422.94 818.707L422.564 818.77Z" fill="#D9CDC7"/>
<path d="M275.794 230.06C237.959 239.448 245.376 267.613 223.845 295.246C223.374 293.159 222.148 291.32 220.403 290.083C219.166 286.606 217.67 283.227 215.928 279.975L215.771 288.299C214.619 288 213.448 287.78 212.266 287.642C211.182 288.22 210.137 288.868 209.137 289.582L206.007 281.915C205.623 285.584 205.508 289.276 205.663 292.962C204.498 294.756 204.051 296.924 204.411 299.033C174.15 281.633 170.426 252.655 131.777 258.1C123.417 259.719 115.557 263.29 108.838 268.521C108.838 268.521 133.311 282.541 135.313 298.751C150.116 296.185 163.478 301.255 164.386 315.713C174.212 312.02 204.693 311.676 207.447 311.645C207.666 312.583 207.885 313.522 208.073 314.492C211.734 314.211 218.306 318.623 218.306 318.623C218.306 318.623 222.75 312.051 226.255 310.956C226.067 309.986 225.911 309.016 225.786 308.077C228.352 307.076 256.736 295.966 267.219 295.559C262.556 281.852 273.134 272.12 287.811 268.928C283.586 253.281 301.017 230.999 301.017 230.999C292.8 228.707 284.159 228.385 275.794 230.06Z" fill="#D9CDC7"/>
<path d="M803.855 5.46022C775.346 15.318 782.982 36.5981 768.274 59.2553C767.748 57.7049 766.696 56.3873 765.301 55.5312C764.1 52.9187 762.709 50.3979 761.139 47.9893L761.608 54.2482C760.695 54.1169 759.776 54.0333 758.854 53.9978C758.077 54.5111 757.334 55.0756 756.632 55.6877L753.503 49.9921C753.438 52.879 753.594 55.7666 753.972 58.6294C753.241 60.0695 753.052 61.7245 753.44 63.2923C728.968 51.9637 724.086 29.9011 694.701 36.7546C688.372 38.5678 682.561 41.8488 677.739 46.3307C677.739 46.3307 697.548 55.4687 700.177 67.7987C711.412 64.6692 722.083 67.7986 723.742 78.8768C731.096 75.3406 754.723 72.9935 756.632 72.8057C756.851 73.5255 757.102 74.214 757.321 74.965C760.197 75.1513 762.992 75.9972 765.489 77.4373C765.489 77.4373 768.618 72.086 771.059 70.9907C770.84 70.2396 770.683 69.5198 770.496 68.8001C772.217 67.9551 793.466 57.3776 801.571 56.4388C797.033 46.2055 804.544 37.9751 815.622 34.5327C811.303 22.6721 823.195 4.39621 823.195 4.39621C816.754 3.2426 810.132 3.60691 803.855 5.46022Z" fill="#D9CDC7"/>
<path d="M263.652 163.309C263.887 160.474 263.062 157.653 261.336 155.392C261.148 150.496 260.594 145.621 259.677 140.808L256.204 151.292C254.841 150.469 253.43 149.727 251.979 149.07C250.423 149.399 248.887 149.817 247.379 150.322L246.315 139.306C244.316 143.795 242.663 148.429 241.37 153.17C239.187 155.001 237.759 157.576 237.364 160.399C206.008 126.319 212.798 88.2025 161.663 79.6591C145.484 76.9991 128.429 83.7587 128.429 83.7587C128.429 83.7587 153.871 111.235 149.991 132.578C169.769 135.207 184.821 146.973 180.096 165.625C194.022 164.842 232.796 176.515 236.426 177.579C236.426 178.831 236.238 180.114 236.081 181.46C240.838 182.524 247.41 190.848 247.41 190.848C247.41 190.848 255.672 184.276 260.522 184.276C260.522 182.962 260.867 181.679 261.054 180.458C264.747 180.177 305.117 177.329 318.542 181.178C318.041 161.963 335.347 153.827 355.219 155.611C356.127 133.924 387.046 112.769 387.046 112.769C387.046 112.769 371.868 102.41 355.501 101.44C303.677 98.248 301.831 137.053 263.652 163.309Z" fill="#D9CDC7"/>
</g>
<defs>
<clipPath id="clip0">
<rect width="782" height="1179" fill="white"/>
</clipPath>
</defs>
</svg>
