<svg width="782" height="1179" viewBox="0 0 782 1179" fill="none" xmlns="http://www.w3.org/2000/svg">
<g opacity="0.5" clip-path="url(#clip0)">
<path d="M733.532 87.3292C735.958 69.607 710.957 55.0495 692.153 53.5199C683.187 52.8079 673.877 54.1792 665.385 51.1992C646.925 44.7907 639.646 21.0292 621.687 13.4604C608.263 7.79034 592.677 12.8275 579.807 19.3942C566.938 25.9609 553.936 34.1626 539.405 35.2175C526.773 36.0087 513.033 31.3408 501.956 37.5119C493.728 42.1007 489.403 51.6211 481.808 57.212C474.213 62.803 464.666 63.8579 455.436 64.3589C446.205 64.86 436.659 64.9655 428.272 68.7895C419.886 72.6135 412.924 81.5273 414.664 90.5994L733.532 87.3292Z" fill="#EBEBEB"/>
<path d="M208.274 826.413C208.274 826.808 -61.0924 827.098 -393.278 827.098C-725.463 827.098 -994.883 826.729 -994.883 826.413C-994.883 826.096 -725.595 825.727 -393.278 825.727C-60.9606 825.727 208.274 826.044 208.274 826.413Z" fill="#263238"/>
<path d="M770.637 678.464C678.334 698.085 448.157 712.748 353.955 709.346C281.747 706.709 247.859 710.823 175.652 708.16C117.976 706.076 21.7167 704.626 -35.7749 699.641C-115.973 692.705 -180.269 673.955 -267.614 644.972C-315.216 629.148 -363.161 604.2 -406.781 579.463C-437.821 561.872 -470.311 545.97 -501.721 529.092C-671.295 438.107 -824.755 418.75 -982.752 447.628L-1111 459.258V826.729L672.4 824.092L770.637 678.464Z" fill="#EBEBEB"/>
<path d="M72.9844 332.143C74.725 319.537 56.9501 309.199 43.6057 308.118C37.25 307.617 30.6305 308.566 24.5912 306.483C11.5897 301.921 6.31522 285.042 -6.44897 279.662C-15.9694 275.654 -26.9402 279.214 -36.1969 283.882C-45.4536 288.55 -54.6575 294.431 -64.89 295.037C-73.8566 295.618 -83.6143 292.4 -91.4732 296.672C-97.3279 299.943 -100.387 306.694 -105.793 310.676C-111.2 314.658 -117.951 315.37 -124.518 315.74C-131.084 316.109 -137.836 316.162 -143.796 318.904C-149.756 321.647 -154.714 327.924 -153.475 334.385L72.9844 332.143Z" fill="#F5F5F5"/>
<path d="M629.836 425.079C631.55 412.473 613.801 402.135 600.431 401.054C594.075 400.527 587.455 401.502 581.442 399.419C568.256 394.857 563.14 377.978 550.402 372.598C540.855 368.59 529.885 372.15 520.654 376.818C511.424 381.486 502.194 387.367 491.961 387.973C482.968 388.554 473.237 385.336 465.378 389.609C459.523 392.879 456.438 399.63 451.058 403.586C445.678 407.542 438.874 408.306 432.333 408.676C425.793 409.045 418.989 409.098 413.029 411.814C407.069 414.53 402.137 420.86 403.377 427.295L629.836 425.079Z" fill="#F5F5F5"/>
<path d="M57.6123 112.924C61.491 88.8966 45.1574 66.2746 21.1303 62.396C-2.89684 58.5173 -25.5189 74.8509 -29.3975 98.878C-33.2761 122.905 -16.9426 145.527 7.08449 149.406C31.1116 153.284 53.7337 136.951 57.6123 112.924Z" fill="#FE5E41"/>
<path d="M14.0917 150.006C3.21604 149.974 -7.26048 145.905 -15.3064 138.588C-23.3524 131.271 -28.3945 121.226 -29.4552 110.402C-30.516 99.5787 -27.5198 88.7466 -21.0474 80.0065C-14.5751 71.2664 -5.08791 65.241 5.57467 63.0987C16.2373 60.9564 27.3155 62.8497 36.6614 68.4116C46.0072 73.9735 52.9549 82.8077 56.1571 93.2012C59.3594 103.595 58.5881 114.807 53.9929 124.664C49.3976 134.521 41.3058 142.321 31.2864 146.551C25.8442 148.843 19.9968 150.018 14.0917 150.006Z" fill="#FE5E41"/>
<path d="M7.81506 204.438C7.57771 204.438 7.3667 196.315 7.3667 186.268C7.3667 176.22 7.57771 168.097 7.81506 168.097C8.29053 174.141 8.44896 180.207 8.28975 186.268C8.44896 192.329 8.29053 198.394 7.81506 204.438Z" fill="#FE5E41"/>
<path d="M7.815 204.491C7.815 204.491 7.57761 204.491 7.44575 199.216C7.44575 195.762 7.44575 191.305 7.44575 186.347C7.44575 181.389 7.44575 176.932 7.44575 173.503C7.57761 168.229 7.73589 168.229 7.815 168.229C7.89412 168.229 8.05234 168.229 8.21057 173.503C8.21057 176.932 8.3424 181.415 8.3424 186.347C8.3424 191.278 8.34243 195.762 8.21057 199.216C8.05234 204.491 7.92049 204.491 7.815 204.491ZM7.815 168.176C7.6304 168.835 7.41943 175.745 7.41943 186.268C7.41943 196.79 7.6304 203.7 7.815 204.359C8.02598 203.7 8.23697 196.79 8.23697 186.268C8.23697 175.745 8.02598 168.835 7.815 168.176Z" fill="#FE5E41"/>
<path d="M51.8829 186.531C51.3621 185.084 50.9737 183.592 50.7225 182.074C50.0896 179.279 49.1929 175.455 48.0853 171.288C46.9777 167.121 45.8173 163.376 44.9734 160.739C44.4231 159.295 44.0081 157.803 43.7339 156.282C44.4926 157.631 45.1112 159.054 45.5799 160.528C46.6084 163.165 47.8479 166.963 48.9819 171.077C50.116 175.191 50.9071 179.173 51.3818 181.995C51.7068 183.486 51.8748 185.006 51.8829 186.531Z" fill="#FE5E41"/>
<path d="M51.8829 186.584C51.7247 186.584 51.5401 185.898 50.6698 182.074C50.0896 179.437 49.1666 175.56 48.0326 171.288C46.8986 167.016 45.6854 163.113 44.9206 160.739C43.7866 157.1 43.5756 156.335 43.7075 156.282C43.8394 156.229 43.8394 156.282 44.3668 157.39C44.8943 158.498 45.158 159.315 45.6327 160.528C46.3184 162.374 47.6634 166.172 49.0348 171.077C50.4061 175.982 51.1181 180.07 51.4346 181.969C51.7597 183.495 51.9364 185.05 51.962 186.61L51.8829 186.584ZM43.7339 156.229C44.0731 157.691 44.4868 159.135 44.9734 160.555C45.7646 163.034 46.925 166.858 48.1117 171.103C49.2985 175.349 50.1688 179.305 50.7489 181.89C51.0438 183.375 51.4134 184.845 51.8565 186.294C51.8065 184.777 51.6212 183.268 51.3027 181.784C50.9863 179.859 50.2478 175.903 48.9028 170.892C47.5579 165.882 46.2656 162.084 45.5272 160.344C45.0147 158.924 44.3885 157.548 43.6548 156.229H43.7339Z" fill="#FE5E41"/>
<path d="M96.5049 154.805C91.9786 151.469 87.6464 147.876 83.5297 144.046C79.1851 140.449 75.0386 136.619 71.1084 132.574C75.6213 135.956 79.9523 139.574 84.0835 143.413C88.4189 146.992 92.565 150.795 96.5049 154.805Z" fill="#FE5E41"/>
<path d="M96.4787 154.858C91.9822 151.485 87.6604 147.885 83.5299 144.072C80.1279 141.118 76.9632 138.27 74.6161 136.16C70.9503 132.785 71.0559 132.653 71.1086 132.6C71.5569 132.6 78.15 138.165 84.1365 143.386C87.5386 146.366 90.7032 149.188 93.0503 151.298C96.716 154.7 96.6106 154.805 96.5579 154.885L96.4787 154.858ZM71.1086 132.626C71.4514 133.18 76.1457 137.558 83.5035 144.019C90.8614 150.48 95.8458 154.568 96.4523 154.753C96.1095 154.199 91.4153 149.821 84.0574 143.386C76.6995 136.951 71.7152 132.864 71.1086 132.626Z" fill="#FE5E41"/>
<path d="M113.621 111.212C111.846 111.094 110.082 110.838 108.346 110.447C105.076 109.92 100.566 109.208 95.5557 108.628C90.545 108.047 85.9826 107.731 82.6597 107.52C80.8912 107.513 79.1266 107.354 77.3853 107.045C79.1335 106.815 80.8997 106.754 82.6597 106.861C85.9826 106.861 90.5714 107.151 95.6348 107.705C100.698 108.258 105.182 109.102 108.425 109.814C110.197 110.117 111.936 110.585 113.621 111.212Z" fill="#FE5E41"/>
<path d="M113.463 111.291C113.067 111.291 112.012 111.107 109.349 110.685L108.294 110.5C103.837 109.762 99.538 109.155 95.5031 108.68C91.4681 108.206 87.1694 107.836 82.6334 107.573H81.6048C77.9655 107.335 77.2534 107.283 77.2534 107.124C79.0012 106.89 80.767 106.82 82.5279 106.913C86.8647 106.987 91.1952 107.277 95.5031 107.784C101.437 108.469 106.052 109.392 108.32 109.867C110.116 110.188 111.881 110.664 113.594 111.291C113.594 111.291 113.594 111.291 113.463 111.291ZM77.3853 107.045C77.7018 107.045 79.3632 107.256 81.6048 107.414H82.6598C87.1958 107.705 91.5208 108.074 95.5294 108.548C99.538 109.023 103.837 109.603 108.32 110.368L109.375 110.526C111.485 110.896 113.067 111.159 113.489 111.159C111.823 110.574 110.112 110.124 108.373 109.814C99.9015 107.989 91.2715 107 82.607 106.861C80.8643 106.807 79.1199 106.869 77.3853 107.045Z" fill="#FE5E41"/>
<path d="M113.674 68.3571C113.674 68.5945 104.206 71.1526 92.3648 74.0271C80.5236 76.9017 70.8977 79.0379 70.8449 78.8005C70.7922 78.5632 80.3126 76.0051 92.1537 73.1305C103.995 70.2559 113.621 68.0934 113.674 68.3571Z" fill="#FE5E41"/>
<path d="M70.9238 78.8532H70.792C70.792 78.8532 70.792 78.6159 77.0158 76.9544C81.0508 75.8732 86.4308 74.5282 92.1272 73.1304C97.8236 71.7327 103.256 70.4932 107.318 69.5702C113.673 68.1725 113.7 68.3043 113.726 68.3834C113.726 68.3834 113.726 68.6208 107.502 70.3086C103.467 71.3635 98.1136 72.7349 92.3908 74.1062C86.668 75.4776 81.2618 76.7435 77.2004 77.6665C75.1328 78.1825 73.0371 78.5787 70.9238 78.8532ZM113.594 68.3043C112.724 68.3043 104.548 70.0713 92.1535 73.0777C79.7585 76.0842 71.715 78.3522 71.0557 78.695C71.9523 78.695 80.1014 76.9017 92.4963 73.8952C104.891 70.8888 112.803 68.779 113.594 68.3834V68.3043Z" fill="#FE5E41"/>
<path d="M63.8827 18.4079C64.0937 18.4079 59.5313 25.8186 53.6766 34.6796C47.822 43.5407 42.9167 50.503 42.7058 50.503C42.4948 50.503 47.0573 43.0924 52.9119 34.2313C58.7666 25.3702 63.6717 18.2761 63.8827 18.4079Z" fill="#FE5E41"/>
<path d="M42.7056 50.4766C42.7056 50.0547 47.9801 41.7738 52.9117 34.1786C55.7599 29.9063 58.4498 25.924 60.5069 22.944C63.6979 18.3552 63.8825 18.3815 63.9616 18.4079C63.9616 18.4079 64.1463 18.5398 61.1399 23.3395C59.2147 26.4251 56.6038 30.4601 53.782 34.7587C50.9601 39.0574 48.2438 43.0133 46.1867 45.9934C43.233 50.1074 42.8111 50.4766 42.7056 50.4766ZM63.8034 18.487C63.2232 18.9617 59.0301 24.9219 52.9117 34.1786C46.7933 43.4352 42.9693 49.6327 42.732 50.3448C43.3122 49.8701 47.5054 43.9099 53.6237 34.5214C59.7421 25.1329 63.5925 19.1991 63.8298 18.487H63.8034Z" fill="#FE5E41"/>
<path d="M14.4607 7.96448C14.5982 9.98402 14.5982 12.0106 14.4607 14.0301C14.4607 17.7486 14.3288 22.9176 14.3288 28.5876C14.3288 34.2577 14.3288 39.453 14.4871 43.1715C14.6413 45.1904 14.6413 47.2182 14.4871 49.2371C14.1315 47.2424 13.9287 45.2235 13.8805 43.1979C13.6695 39.4794 13.4585 34.3104 13.4585 28.614C13.4585 22.9176 13.6431 17.7222 13.8541 14.0037C13.869 11.9762 14.0721 9.95447 14.4607 7.96448Z" fill="#FE5E41"/>
<path d="M14.4873 49.2635C14.4873 49.2635 14.3554 49.2635 14.1971 47.6284C14.1971 46.4944 13.9598 44.9912 13.8543 43.1979C13.696 40.5606 13.4324 35.4444 13.406 28.5876C13.3796 21.7308 13.6697 16.5091 13.8015 14.0037C13.8015 12.2368 14.0389 10.7072 14.1444 9.57319C14.3026 7.99085 14.3817 7.93811 14.4345 7.93811C14.5663 7.93811 14.6191 8.49192 14.4345 14.0301C14.4345 17.5376 14.3026 22.8648 14.3026 28.5876C14.3026 34.3104 14.3026 39.1365 14.4609 42.9342V43.1979C14.4609 48.7361 14.4609 49.2899 14.4609 49.2899L14.4873 49.2635ZM14.4873 8.06997C14.4873 8.46555 14.1708 10.549 13.9598 14.0037C13.8015 16.641 13.5642 21.7572 13.5642 28.5876C13.5642 35.418 13.8279 40.6925 13.9862 43.1979C14.066 45.1842 14.2508 47.1649 14.54 49.1316C14.54 48.6306 14.54 45.3868 14.54 43.1715V42.9342C14.54 39.242 14.4081 34.1785 14.4081 28.5876C14.4081 22.9967 14.4081 17.5376 14.4081 14.0301C14.4873 11.8148 14.5399 8.57104 14.4345 8.06997H14.4873Z" fill="#FE5E41"/>
<path d="M-1025.9 1177.47C-1025.9 1177.1 -624.698 1176.78 -129.927 1176.78C364.843 1176.78 766.124 1177.1 766.124 1177.47C766.124 1177.84 365.001 1178.16 -129.927 1178.16C-624.856 1178.16 -1025.9 1177.87 -1025.9 1177.47Z" fill="#263238"/>
<path d="M138.727 771.654L133.136 769.517L125.857 776.717L130.604 763.346L120.926 761.5L112.856 774.845L116.759 757.887L107.001 756.7L101.436 775.161L103.151 749.791L98.6673 751.241L91.9688 777.35L94.2632 744.385C94.2632 744.385 82.712 740.139 82.4483 741.062C82.1846 741.985 67.337 774.396 67.337 774.396L71.0819 741.695L43.4701 736.288L36.4023 775.847L35.2683 736.578L11.3486 734.099L5.62579 779.46L1.35352 732.121L-3.92096 732.464L-2.07486 780.857L-15.683 730.223L-45.5892 731.33L-44.2178 784.998L-57.1929 732.886L-63.9971 733.967L-54.925 786.712L-71.1439 741.009L-83.0643 744.727L-87.8904 756.489L-89.2881 804.988L-96.8833 751.927L-103.687 752.982L-100.022 806.544L-115.212 755.092L-144.09 763.162L-141.452 815.563L-154.639 768.937L-159.913 770.256L-149.364 816.618L-168.748 775.214L-190.742 784.945L-179.745 822.658L-198.654 787.292L-223.286 800.927L-209.651 830.886C-209.651 830.886 -233.756 804.513 -234.283 803.801C-234.81 803.089 -244.489 810.605 -244.489 810.605L-232.2 841.25L-246.52 818.543H-251.24L-241.799 842.279L-252.796 826.323L-261.71 830.437L-252.796 845.364L-264.585 834.973L-273.235 839.641L-264.585 850.902L-273.736 846.287L-278.404 850.19L-270.888 858.102L-56.982 816.46L-61.017 805.12L134.006 781.622L138.727 771.654Z" fill="#00A878"/>
<path d="M-388.534 882.048C-388.534 882.048 -66.5284 789.534 29.6514 777.086C125.831 764.638 277.894 777.086 277.894 777.086L250.757 829.831L-256.435 880.676L-388.534 882.048Z" fill="#E0E0E0"/>
<path d="M-388.534 882.048L-256.383 880.281L250.704 829.092L250.15 829.461C257.244 815.748 264.813 801.059 272.435 786.264L277.287 776.849L277.841 777.851C230.898 774.396 184.984 772.576 140.705 772.418C118.552 772.418 96.7688 772.708 75.5128 773.895C54.7098 774.821 33.9801 776.978 13.4324 780.356C8.39532 781.042 3.43732 782.176 -1.49432 782.993L-16.1837 785.842L-44.8768 792.171L-72.6204 798.579L-99.4411 805.041C-134.543 813.664 -167.165 822.051 -196.86 829.883C-256.277 845.549 -304.169 858.761 -337.24 867.939L-375.295 878.488L-385.185 881.125L-388.587 882.021L-385.238 880.993L-375.348 878.145L-337.372 867.279C-304.327 857.97 -256.488 844.599 -197.071 828.828C-167.376 820.917 -134.78 812.478 -99.6784 803.828L-72.8842 797.445L-45.1405 790.984L-16.4738 784.76L-1.75806 781.912C3.17358 780.989 8.10519 779.881 13.1687 779.275C33.7581 775.869 54.5324 773.693 75.3809 772.761C96.6898 771.548 118.473 771.179 140.652 771.231C185.037 771.231 230.977 773.183 277.946 776.506H278.975L278.5 777.429L273.648 786.897L251.39 830.094L251.205 830.437H250.836L-256.383 881.072L-388.534 882.048Z" fill="#263238"/>
<g opacity="0.2">
<path opacity="0.2" d="M-281.041 851.482C-281.041 851.482 -190.848 858.708 -165.003 858.023C-139.158 857.337 -28.6317 838.797 -25.2297 839.035C-21.8277 839.272 34.5035 802.72 57.1573 801.56C79.8111 800.399 156.897 810.922 156.897 810.922L170.98 801.48C170.98 801.48 70.7654 788.584 52.6477 789.165C34.5299 789.745 -11.015 828.591 -26.7857 831.36C-42.5563 834.129 -209.678 842.7 -221.941 838.982L-227.664 837.004L-281.041 851.482Z" fill="black"/>
</g>
<path d="M182.057 830.094L175.833 575.338L208.113 548.438L205.475 543.164L175.332 564.631L160.432 378.548H153.021C153.021 378.548 147.746 794.044 138.885 808.416C130.024 822.789 113.489 830.253 113.489 830.253L182.057 830.094Z" fill="#DB8A76"/>
<path d="M172.879 816.961C172.836 816.69 172.836 816.414 172.879 816.143C172.879 815.537 173.011 814.746 173.09 813.744C173.327 811.555 173.67 808.469 174.092 804.461C174.936 796.417 176.228 784.787 177.389 770.388C178.821 753.532 179.209 736.604 178.549 719.7C178.115 709.725 177.103 699.783 175.516 689.926C173.802 679.667 171.349 669.144 168.95 658.279C166.484 647.787 164.643 637.158 163.438 626.448C162.963 621.337 162.76 616.205 162.831 611.072C162.964 606.157 163.368 601.253 164.044 596.383C165.31 586.889 167.262 577.923 169.029 569.615C170.796 561.308 172.352 553.502 173.327 546.355C175.141 535.087 175.141 523.602 173.327 512.335C172.778 509.267 172.039 506.238 171.112 503.263C170.796 502.313 170.532 501.548 170.347 500.968C170.244 500.705 170.173 500.431 170.136 500.151C170.136 500.151 170.268 500.414 170.479 500.915L171.349 503.21C172.384 506.162 173.204 509.185 173.802 512.256C175.838 523.582 175.972 535.169 174.198 546.54C173.275 553.739 171.745 561.545 170.031 569.905C168.317 578.265 166.418 587.153 165.178 596.621C164.52 601.456 164.133 606.325 164.018 611.204C163.943 616.293 164.154 621.382 164.651 626.448C165.863 637.096 167.703 647.663 170.163 658.094C172.563 668.907 175.015 679.43 176.703 689.741C178.298 699.641 179.293 709.628 179.683 719.647C180.295 736.591 179.819 753.557 178.259 770.44C176.993 784.866 175.622 796.496 174.54 804.513C174.039 808.469 173.617 811.581 173.327 813.744C173.195 814.772 173.064 815.563 172.985 816.17C172.966 816.436 172.931 816.7 172.879 816.961Z" fill="#9A5D53"/>
<path d="M124.011 829.91C127.917 830.102 131.829 829.702 135.615 828.723C145.62 825.898 154.301 819.619 160.115 811.001C163.93 805.28 166.806 798.985 168.633 792.356C170.682 784.811 172.163 777.124 173.064 769.359C175.568 751.621 175.913 733.645 174.092 715.823C173.939 712.793 173.176 709.824 171.851 707.094C171.174 705.776 170.165 704.658 168.923 703.85C167.645 703.096 166.145 702.807 164.677 703.033C163.249 703.407 161.912 704.067 160.747 704.974C159.581 705.88 158.613 707.015 157.9 708.307C156.388 710.819 155.116 713.468 154.102 716.219C150.223 726.295 149.21 737.249 151.175 747.866C151.434 750.271 152.188 752.596 153.39 754.696C153.689 755.158 154.1 755.537 154.583 755.8C155.067 756.062 155.609 756.2 156.159 756.199C156.702 756.149 157.229 755.99 157.71 755.732C158.19 755.474 158.613 755.122 158.955 754.696C159.688 753.849 160.292 752.898 160.748 751.874C161.251 750.889 161.7 749.876 162.093 748.841C162.842 746.871 163.39 744.83 163.728 742.749C164.927 735.682 163.739 728.417 160.352 722.1H160.932C157.884 726.287 156.215 731.32 156.159 736.499C156.17 737.84 156.267 739.179 156.449 740.508C156.549 740.96 156.62 741.418 156.66 741.879C156.114 740.174 155.829 738.395 155.816 736.605C155.72 731.321 157.319 726.145 160.379 721.836L160.695 721.388L160.959 721.863C164.502 728.289 165.793 735.716 164.625 742.96C164.004 747.42 162.332 751.669 159.746 755.355C159.314 755.897 158.774 756.342 158.162 756.665C157.549 756.987 156.876 757.179 156.185 757.228C155.466 757.235 154.755 757.066 154.116 756.735C153.477 756.404 152.929 755.921 152.52 755.329C151.207 753.13 150.379 750.675 150.093 748.129C147.979 737.262 148.976 726.018 152.968 715.691C153.992 712.894 155.281 710.2 156.818 707.648C157.694 706.329 158.741 705.132 159.93 704.088C161.204 702.933 162.775 702.156 164.466 701.846C166.245 701.586 168.058 701.94 169.609 702.848C171.033 703.761 172.188 705.035 172.958 706.54C174.387 709.39 175.204 712.507 175.358 715.691C177.173 733.595 176.793 751.653 174.224 769.465C173.295 777.281 171.761 785.014 169.635 792.593C167.746 799.299 164.79 805.657 160.88 811.423C154.878 820.122 145.964 826.389 135.747 829.092C132.9 829.792 129.976 830.129 127.044 830.094C126.286 830.086 125.528 830.033 124.776 829.936C124.521 829.971 124.263 829.962 124.011 829.91Z" fill="#9A5D53"/>
<path d="M164.414 541.054C164.044 540.816 163.691 540.551 163.359 540.263L160.194 537.626H160.458C159.594 539.853 159.086 542.203 158.955 544.588C158.78 547.993 159.412 551.39 160.801 554.504C161.152 555.46 161.66 556.352 162.304 557.141C162.611 557.535 163.017 557.839 163.48 558.025C163.943 558.21 164.447 558.269 164.941 558.196C165.451 558.043 165.922 557.783 166.322 557.433C166.722 557.082 167.043 556.65 167.262 556.165C167.799 555.167 168.139 554.075 168.264 552.948C169.05 547.856 169.095 542.677 168.396 537.573C168.012 534.74 167.395 531.944 166.55 529.213C166.161 527.793 165.613 526.422 164.915 525.125C164.222 523.792 163.172 522.678 161.882 521.908C161.217 521.55 160.474 521.363 159.719 521.363C158.965 521.363 158.222 521.55 157.557 521.908C156.226 522.734 155.171 523.936 154.524 525.363C153.828 526.829 153.298 528.368 152.942 529.951C152.467 531.56 152.177 533.195 151.808 534.857C149.17 548.043 150.7 562.838 152.388 577.896C154.351 594.912 155.232 612.036 155.025 629.164C154.834 643.101 153.91 657.019 152.256 670.859C150.832 682.7 149.17 692.247 147.852 698.813C147.245 702.083 146.612 704.615 146.243 706.356C146.059 707.147 145.9 707.806 145.795 708.307C145.757 708.536 145.686 708.758 145.584 708.967C145.548 708.739 145.548 708.508 145.584 708.281C145.584 707.78 145.768 707.12 145.927 706.303C146.217 704.562 146.744 702.031 147.272 698.734C148.458 692.167 149.909 682.621 151.307 670.753C152.704 658.886 153.627 644.75 153.759 629.006C153.938 611.914 153.057 594.827 151.122 577.843C149.434 562.785 147.957 548.016 150.621 534.487C151.017 532.826 151.307 531.165 151.808 529.529C152.18 527.877 152.747 526.275 153.496 524.756C154.234 523.126 155.447 521.756 156.977 520.827C157.817 520.379 158.754 520.144 159.706 520.144C160.658 520.144 161.596 520.379 162.436 520.827C163.898 521.693 165.086 522.955 165.864 524.466C166.604 525.826 167.18 527.269 167.578 528.765C168.403 531.553 169.011 534.401 169.398 537.283C170.057 542.464 169.968 547.713 169.134 552.869C168.957 554.085 168.574 555.263 168 556.35C167.715 556.931 167.309 557.443 166.808 557.852C166.308 558.262 165.725 558.559 165.099 558.724C164.47 558.818 163.828 558.746 163.236 558.514C162.643 558.283 162.122 557.9 161.724 557.405C161.059 556.616 160.525 555.725 160.141 554.768C158.972 552.048 158.37 549.118 158.37 546.157C158.37 543.196 158.972 540.267 160.141 537.547V537.336L160.326 537.494L163.359 540.131C163.744 540.398 164.098 540.708 164.414 541.054Z" fill="#9A5D53"/>
<path d="M161.935 204.069C161.935 206.706 103.546 361.591 103.546 361.591L132.74 336.59L90.5448 444.927L118.394 412.41L74.1148 549.546L101.568 534.118L73.8511 629.955L97.5861 604.954L73.8511 676.634L261.886 664.951L217.343 529.951L244.243 554.952L209.431 456.61L227.259 464.944L186.672 338.357L205.475 349.196L161.935 204.069Z" fill="#00A878"/>
<path d="M-223.101 1177.5L-103.687 1086.06L-46.7759 1028.2L-59.7775 900.139L222.696 840.802L778.888 838.929L781.604 1177.26L-77.9743 1177.5H-223.101Z" fill="#9A5D53"/>
<g opacity="0.2">
<path opacity="0.2" d="M512.185 994.447C512.185 994.447 435.706 978.254 367.797 990.517C299.888 1002.78 200.86 1039.07 120.952 1033.87C41.0442 1028.68 -48.1997 987.643 -48.1997 987.643L-50.8369 988.091L-47.6986 1018.97C-47.6986 1018.97 57.3687 1047.48 114.043 1065.92C170.717 1084.35 293.374 1021.95 341.926 1008.71C390.477 995.475 475.712 1004.92 502.111 1018.97C528.51 1033.03 779.996 978.913 779.996 978.913L779.495 915.62L512.185 994.447Z" fill="white"/>
</g>
<path d="M379.664 834.604C377.792 835.817 355.349 855.306 355.349 855.306L352.712 883.129L342.163 886.294L317.478 880.465L298.728 897.027L277.788 888.773L298.095 900.614L304.345 897.977L318.059 885.951L341.794 891.41L320.221 895.761L307.035 907.734L307.694 923.189L310.332 909.871L321.302 900.166L346.673 893.915L358.909 886.557L363.92 868.097L367.823 887.111L347.754 900.825L344.616 926.67L317.294 933.632L301.048 945.42L291.502 931.443L259.538 927.883L287.915 935.32L299.809 952.594L292.24 961.428L271.142 956.154L247.249 980.786L270.984 963.195L293.954 967.204L302.235 960.294L306.85 947.266L319.193 936.401L341.873 932.946L344.51 948.19L319.535 962.932L314.815 989.963L290.816 999.589L319.825 989.911L323.808 966.439L351.736 951.381L349.099 931.127L353.398 901.563L361.942 897.133L361.23 922.793L377.766 932.023L367.006 920.657L367.454 897.054L375.366 886.663L370.909 864.088L368.271 854.331L382.908 841.144L379.664 834.604Z" fill="#F3C178"/>
<path d="M368.904 869.073C370.566 869.442 391.796 877.591 391.796 877.591L400.868 896.975L409.386 896.447L425.631 885.898L443.432 892.913L456.355 881.52L444.83 895.234L439.556 894.918L426.528 889.88L410.942 899.981L427.609 897.344L440.268 902.618L443.802 913.906L438.527 904.992L427.978 900.878L408.094 903.014L397.36 900.93L388.921 888.852L390.978 903.673L408.99 908.288L418.062 926.09L439.529 923.98L454.298 928.199L457.515 915.646L479.563 904.728L461.102 917.492L457.067 933.026L464.794 937.403L478.64 928.12L502.375 939.619L480.776 933.131L465.295 942.019L457.542 939.223L450.817 931.048L439.081 926.459L421.86 929.887L423.943 941.57L445.753 945.632L456.118 963.908L475.923 964.567L452.505 965.173L443.512 949.35L419.487 945.816L416.137 930.547L405.325 910.424L398.019 909.475L405.245 927.725L395.751 938.669L400.525 927.698L394.037 910.82L385.624 905.546L382.987 888.14L382.301 880.466L368.351 874.716L368.904 869.073Z" fill="#F3C178"/>
<path d="M778.888 670.859C778.888 670.859 85.6657 791.828 37.8264 822.763C3.13971 845.333 -29.251 871.249 -58.8809 900.139L-57.193 916.965C-57.193 916.965 81.5252 911.189 187.463 880.782L388.551 848.951L778.862 852.511L778.888 670.859Z" fill="#00A878"/>
<path d="M664.169 729.379L657.681 463.018L691.438 434.906L688.8 429.341L657.154 451.757L641.594 257.235H633.92C633.92 257.235 628.381 691.64 619.151 706.54C609.921 721.441 592.515 729.379 592.515 729.379H664.169Z" fill="#DB8A76"/>
<path d="M654.569 715.691C654.528 715.403 654.528 715.11 654.569 714.821C654.569 714.215 654.701 713.371 654.807 712.316C655.044 710.021 655.387 706.778 655.835 702.611C656.732 694.224 658.103 682.04 659.29 666.982C660.796 649.364 661.201 631.669 660.503 614C660.056 603.573 658.99 593.181 657.312 582.881C655.545 572.147 652.987 561.15 650.481 549.836C647.902 538.866 645.974 527.752 644.706 516.554C644.196 511.217 643.985 505.855 644.073 500.493C644.209 495.358 644.632 490.233 645.339 485.145C646.684 475.202 648.715 465.867 650.613 457.164C652.512 448.461 654.121 440.312 655.123 432.822C657.017 421.039 657.017 409.029 655.123 397.246C654.537 394.056 653.762 390.903 652.802 387.805C652.459 386.776 652.196 385.985 652.011 385.378C651.898 385.108 651.818 384.824 651.774 384.534C651.929 384.782 652.053 385.048 652.143 385.326C652.354 385.932 652.67 386.723 653.066 387.725C654.173 390.805 655.054 393.96 655.703 397.167C657.808 408.984 657.942 421.067 656.099 432.928C655.149 440.444 653.462 448.751 651.747 457.348C650.033 465.946 647.976 475.387 646.684 485.277C645.995 490.331 645.59 495.42 645.471 500.52C645.408 505.802 645.628 511.084 646.13 516.343C647.368 527.512 649.261 538.599 651.8 549.546C654.305 560.833 656.864 571.857 658.631 582.643C660.29 592.989 661.338 603.425 661.769 613.894C662.403 631.613 661.892 649.355 660.239 667.008C658.921 682.067 657.417 694.224 656.363 702.611C655.835 706.751 655.413 709.995 655.097 712.289C654.938 713.344 654.833 714.162 654.728 714.927C654.701 715.186 654.648 715.443 654.569 715.691Z" fill="#9A5D53"/>
<path d="M603.486 729.194C607.57 729.362 611.656 728.936 615.617 727.928C626.07 725.001 635.144 718.459 641.225 709.468C645.22 703.49 648.229 696.91 650.139 689.979C652.29 682.081 653.842 674.032 654.78 665.901C657.383 647.366 657.746 628.586 655.862 609.965C655.692 606.786 654.885 603.674 653.488 600.814C652.782 599.44 651.727 598.276 650.429 597.438C649.099 596.64 647.532 596.332 645.998 596.568C644.509 596.962 643.114 597.65 641.896 598.592C640.677 599.534 639.66 600.711 638.904 602.053C637.333 604.658 636.009 607.404 634.948 610.255C630.89 620.784 629.83 632.232 631.889 643.326C632.147 645.838 632.938 648.265 634.21 650.446C634.519 650.93 634.943 651.327 635.446 651.604C635.948 651.88 636.511 652.026 637.085 652.029C637.653 651.973 638.205 651.804 638.708 651.532C639.21 651.261 639.654 650.892 640.012 650.446C640.777 649.553 641.416 648.56 641.911 647.493C642.436 646.465 642.903 645.409 643.308 644.328C644.081 642.269 644.655 640.141 645.022 637.972C646.258 630.58 645.015 622.987 641.489 616.373H642.069C638.898 620.759 637.166 626.02 637.111 631.432C637.108 632.835 637.205 634.236 637.401 635.625C637.5 636.095 637.57 636.571 637.612 637.049C637.036 635.241 636.743 633.356 636.742 631.458C636.627 625.936 638.302 620.524 641.515 616.031L641.832 615.556L642.095 616.057C645.806 622.75 647.171 630.493 645.972 638.051C645.309 642.731 643.547 647.186 640.829 651.053C640.376 651.616 639.812 652.079 639.173 652.415C638.533 652.751 637.831 652.951 637.111 653.005C636.361 653.011 635.62 652.833 634.954 652.489C634.288 652.144 633.716 651.642 633.287 651.027C631.889 648.725 630.991 646.155 630.65 643.484C628.498 632.208 629.53 620.555 633.63 609.833C634.719 606.909 636.079 604.092 637.691 601.42C638.587 600.023 639.68 598.762 640.935 597.675C642.272 596.478 643.915 595.674 645.682 595.355C647.505 595.106 649.36 595.467 650.956 596.383C652.44 597.341 653.648 598.668 654.464 600.234C655.937 603.223 656.789 606.479 656.969 609.807C658.861 628.518 658.462 647.391 655.782 666.006C654.801 674.186 653.196 682.28 650.983 690.216C649.007 697.227 645.908 703.871 641.805 709.89C635.508 719.002 626.15 725.553 615.433 728.35C612.464 729.076 609.417 729.43 606.361 729.405C605.306 729.405 604.515 729.273 603.987 729.247L603.486 729.194Z" fill="#9A5D53"/>
<path d="M645.734 427.179C645.335 426.95 644.963 426.676 644.627 426.361L641.304 423.724H641.594C640.474 426.535 639.928 429.541 639.987 432.567C640.046 435.592 640.709 438.575 641.937 441.34C642.321 442.298 642.856 443.188 643.519 443.978C643.83 444.368 644.236 444.672 644.697 444.861C645.159 445.05 645.661 445.118 646.156 445.059C646.683 444.906 647.17 444.64 647.585 444.28C647.999 443.921 648.33 443.476 648.556 442.976C649.127 441.921 649.485 440.766 649.611 439.574C650.392 434.248 650.392 428.838 649.611 423.513C649.22 420.556 648.585 417.636 647.712 414.784C647.304 413.295 646.72 411.861 645.972 410.511C645.258 409.109 644.16 407.938 642.807 407.136C642.113 406.766 641.339 406.573 640.552 406.573C639.766 406.573 638.991 406.766 638.297 407.136C636.903 407.995 635.801 409.254 635.133 410.749C634.395 412.279 633.837 413.89 633.471 415.548C632.97 417.21 632.68 418.95 632.285 420.665C629.647 434.616 631.124 449.911 632.891 465.682C634.905 483.471 635.786 501.37 635.528 519.271C635.339 533.895 634.38 548.499 632.654 563.022C631.15 575.417 629.436 585.386 628.038 592.243C627.406 595.671 626.746 598.335 626.377 600.154L625.876 602.185C625.847 602.424 625.776 602.657 625.665 602.871V602.159C625.665 601.631 625.876 600.946 626.034 600.102C626.324 598.282 626.878 595.645 627.458 592.19C628.671 585.307 630.254 575.338 631.652 562.943C633.049 550.548 634.078 535.753 634.289 519.297C634.434 501.428 633.482 483.567 631.441 465.814C629.674 449.991 628.144 434.642 630.913 420.48C631.309 418.739 631.625 416.999 632.153 415.206C632.538 413.474 633.122 411.792 633.893 410.195C634.682 408.498 635.958 407.075 637.559 406.107C638.434 405.634 639.413 405.386 640.407 405.386C641.402 405.386 642.381 405.634 643.255 406.107C644.789 407.005 646.033 408.322 646.842 409.905C647.617 411.331 648.22 412.845 648.635 414.414C649.514 417.319 650.149 420.292 650.534 423.302C651.237 428.719 651.139 434.211 650.244 439.6C650.09 440.871 649.687 442.098 649.057 443.213C648.775 443.826 648.358 444.367 647.837 444.796C647.317 445.225 646.706 445.532 646.051 445.692C645.395 445.799 644.724 445.73 644.103 445.494C643.483 445.258 642.935 444.862 642.517 444.347C641.822 443.478 641.262 442.509 640.856 441.472C639.447 438.143 638.833 434.531 639.062 430.923C639.248 428.385 639.863 425.897 640.882 423.566V423.355L641.066 423.513L644.257 426.308C644.775 426.554 645.269 426.845 645.734 427.179Z" fill="#9A5D53"/>
<path d="M643.124 74.8446C643.124 77.4818 582.098 239.54 582.098 239.54L612.611 213.378L568.648 326.779L597.658 292.785L551.375 436.119L580.068 420.005L551.058 520.22L575.874 494.085L551.058 569.035L747.637 556.825L701.064 415.68L729.203 441.815L692.783 338.963L711.428 347.692L668.995 215.013L688.669 226.353L643.124 74.8446Z" fill="#00A878"/>
<path d="M212.279 883.287L200.543 863.376C205.343 867.227 210.249 870.901 215.259 874.4C212.13 866.627 210.346 858.377 209.985 850.006C213.212 858.273 217.474 866.097 222.67 873.292C223.171 868.018 223.83 862.48 227.048 858.313C227.427 867.284 229.673 876.077 233.641 884.131C228.242 882.901 222.636 882.901 217.237 884.131" fill="#9A5D53"/>
<path d="M8.02614 1050.41C14.4639 1050.41 19.6827 1045.19 19.6827 1038.75C19.6827 1032.31 14.4639 1027.1 8.02614 1027.1C1.5884 1027.1 -3.63037 1032.31 -3.63037 1038.75C-3.63037 1045.19 1.5884 1050.41 8.02614 1050.41Z" fill="#F3C178"/>
<path d="M636.109 914.855C636.114 917.324 635.386 919.74 634.018 921.795C632.649 923.851 630.701 925.454 628.421 926.401C626.14 927.348 623.63 927.598 621.208 927.117C618.786 926.637 616.56 925.448 614.814 923.702C613.068 921.956 611.88 919.731 611.399 917.308C610.919 914.886 611.168 912.376 612.115 910.096C613.063 907.815 614.666 905.867 616.721 904.499C618.776 903.13 621.192 902.402 623.661 902.407C626.962 902.407 630.129 903.719 632.463 906.053C634.797 908.388 636.109 911.554 636.109 914.855Z" fill="#F3C178"/>
<g opacity="0.2">
<path opacity="0.2" d="M427.53 1023.03C427.53 1025.5 426.799 1027.91 425.428 1029.96C424.057 1032.02 422.109 1033.61 419.83 1034.56C417.55 1035.5 415.042 1035.75 412.623 1035.27C410.203 1034.79 407.98 1033.6 406.236 1031.85C404.491 1030.11 403.303 1027.89 402.822 1025.47C402.34 1023.05 402.587 1020.54 403.532 1018.26C404.476 1015.98 406.075 1014.03 408.126 1012.66C410.177 1011.29 412.589 1010.56 415.056 1010.56C416.695 1010.56 418.319 1010.88 419.834 1011.5C421.349 1012.13 422.725 1013.05 423.884 1014.21C425.043 1015.36 425.962 1016.74 426.588 1018.26C427.214 1019.77 427.534 1021.4 427.53 1023.03Z" fill="black"/>
</g>
<path d="M41.466 1018.97C41.466 1020.35 41.0577 1021.7 40.2927 1022.84C39.5277 1023.99 38.4403 1024.88 37.1681 1025.41C35.8959 1025.93 34.496 1026.07 33.1455 1025.8C31.7949 1025.53 30.5544 1024.87 29.5807 1023.9C28.607 1022.92 27.9439 1021.68 27.6753 1020.33C27.4067 1018.98 27.5445 1017.58 28.0714 1016.31C28.5984 1015.04 29.4908 1013.95 30.6357 1013.18C31.7807 1012.42 33.1268 1012.01 34.5038 1012.01C36.3503 1012.01 38.1212 1012.74 39.4269 1014.05C40.7325 1015.36 41.466 1017.13 41.466 1018.97Z" fill="#F3C178"/>
<path d="M584.34 902.012C588.447 902.012 591.777 898.682 591.777 894.575C591.777 890.467 588.447 887.138 584.34 887.138C580.233 887.138 576.903 890.467 576.903 894.575C576.903 898.682 580.233 902.012 584.34 902.012Z" fill="#F3C178"/>
<g opacity="0.2">
<path opacity="0.2" d="M378.029 1065.28C382.137 1065.28 385.466 1061.95 385.466 1057.85C385.466 1053.74 382.137 1050.41 378.029 1050.41C373.922 1050.41 370.592 1053.74 370.592 1057.85C370.592 1061.95 373.922 1065.28 378.029 1065.28Z" fill="black"/>
</g>
<path d="M-223.101 1177.47C-186.523 1169.08 -148.336 1138.49 -108.039 1139.97C-96.9888 1140.36 -86.4135 1144.14 -75.5481 1146.19C-40.763 1152.81 -5.1604 1141.76 27.7522 1128.63C47.5578 1120.72 67.8645 1111.88 89.1733 1112.57C107.37 1113.17 124.802 1120.74 143.026 1121.43C191.92 1123.3 232.111 1076.28 281.058 1076.6C307.43 1076.73 333.038 1090.71 358.857 1085.93C380.271 1081.98 397.386 1065.86 417.904 1058.61C441.639 1050.28 468.407 1054.6 490.692 1066.13C490.692 1066.13 513.873 1076.28 535.656 1071.06C557.44 1065.84 584.603 1037.96 600.189 1038.75C615.775 1039.54 780.523 1044.03 780.523 1044.03L781.604 1177.21L5.07204 1177.79L-90.3429 1178.89L-223.101 1177.47Z" fill="#F3C178"/>
<path d="M227.417 729.906C229.311 731.333 231.021 732.99 232.507 734.838C240.077 743.39 245.965 753.295 249.86 764.032C250.782 766.209 251.42 768.496 251.759 770.836C250.672 768.753 249.738 766.593 248.963 764.375C246.782 759.191 244.253 754.16 241.394 749.316C238.498 744.483 235.282 739.849 231.768 735.444C230.184 733.707 228.73 731.856 227.417 729.906Z" fill="#263238"/>
<path d="M252.972 708.597C253.02 709.397 253.02 710.198 252.972 710.997C252.944 713.179 253.111 715.359 253.473 717.511C254.237 723.023 255.292 730.697 256.69 739.031C258.088 747.365 259.485 754.854 260.514 760.472C261.216 763.405 261.719 766.384 262.017 769.385C260.948 766.561 260.127 763.649 259.565 760.683C258.272 755.25 256.716 747.681 255.319 739.268C253.921 730.856 253.024 723.181 252.523 717.617C252.264 715.409 252.264 713.178 252.523 710.971C252.487 710.156 252.64 709.343 252.972 708.597Z" fill="#263238"/>
<path d="M269.454 740.481C269.85 740.481 268.822 746.468 268.822 753.826C268.822 761.184 269.824 767.012 269.428 767.17C266.773 758.472 266.773 749.18 269.428 740.481H269.454Z" fill="#263238"/>
<path d="M502.665 724.447C502.295 724.605 498.709 716.535 493.144 707.437C487.58 698.339 482.252 691.35 482.595 691.086C484.069 692.324 485.372 693.752 486.472 695.332C489.351 698.956 491.994 702.761 494.384 706.725C496.779 710.69 498.919 714.804 500.792 719.041C501.653 720.752 502.283 722.57 502.665 724.447Z" fill="#263238"/>
<path d="M507.359 721.256C506.964 721.256 504.722 713.766 501.241 704.747C497.76 695.728 494.041 688.739 494.384 688.528C495.556 689.83 496.517 691.307 497.232 692.906C501.198 700.261 504.278 708.06 506.41 716.14C506.972 717.79 507.292 719.514 507.359 721.256Z" fill="#263238"/>
<path d="M510.761 679.139C511.088 681.161 511.194 683.213 511.077 685.258C511.077 689.53 511.262 694.488 511.367 699.947C511.473 705.406 511.763 710.338 511.948 714.636C512.17 716.67 512.17 718.722 511.948 720.755C511.379 718.788 511.042 716.761 510.946 714.716C510.524 710.944 510.128 705.749 509.97 699.974C509.812 694.198 509.97 689.003 509.97 685.231C509.993 683.177 510.259 681.132 510.761 679.139Z" fill="#263238"/>
<path d="M96.1358 864.695C95.7929 864.879 92.892 860.106 88.5933 854.832C84.2946 849.557 80.2069 845.733 80.4706 845.417C87.3844 850.26 92.8096 856.936 96.1358 864.695Z" fill="#263238"/>
<path d="M104.179 864.431C102.95 863.048 101.928 861.494 101.147 859.816C99.4324 856.889 97.2172 852.748 94.9228 848.107C92.6284 843.465 90.7296 839.14 89.4637 836.002C88.6469 834.326 88.0444 832.554 87.6704 830.727C90.7874 836.15 93.6219 841.731 96.1623 847.447C100.698 856.783 104.628 864.246 104.179 864.431Z" fill="#263238"/>
<path d="M114.042 863.165C113.188 861.58 112.583 859.872 112.249 858.102C111.138 853.915 110.301 849.66 109.744 845.364C109.194 841.079 108.939 836.761 108.979 832.441C108.876 830.67 109.036 828.892 109.454 827.167C109.849 827.167 109.823 835.342 111.115 845.285C112.407 855.227 114.438 863.06 114.042 863.165Z" fill="#263238"/>
<path d="M584.762 741.167L629.489 718.408L671.711 707.569L676.353 748.446L619.837 753.562L584.762 741.167Z" fill="#00A878"/>
<path d="M61.0606 975.986L92.5492 981.287L118.078 950.51L93.103 930.863L48.0327 946.423L61.0606 975.986Z" fill="#F3C178"/>
<path d="M254.185 1016.86L258.721 1033L279.028 1038.22L282.773 1021.98L265.288 1004.07L254.185 1016.86Z" fill="#F3C178"/>
<path d="M74.0356 1070.43L95.9247 1093.69L146.586 1099.43L167.868 1063.49L120.952 1050.41L74.0356 1070.43Z" fill="#F3C178"/>
<path d="M183.956 1054.23C184.668 1056.87 186.593 1068.08 186.593 1068.08H196.43L206.979 1061.14L183.956 1054.23Z" fill="#F3C178"/>
<g opacity="0.2">
<path opacity="0.2" d="M335.834 846.577C336.045 847.342 323.597 851.509 302.605 852.485C290.308 853.006 277.992 852.201 265.868 850.085C262.122 849.562 258.46 848.551 254.976 847.078C252.846 846.175 250.951 844.795 249.438 843.043C248.531 841.97 247.873 840.709 247.513 839.351C247.197 837.945 247.197 836.485 247.513 835.079C248.079 832.888 249.016 830.81 250.282 828.934C250.783 828.09 251.258 827.325 251.653 826.613C251.976 826.032 252.224 825.411 252.392 824.767C252.551 824.339 252.614 823.881 252.578 823.425C252.541 822.97 252.406 822.528 252.181 822.13C251.891 821.734 251.047 821.286 249.306 821.154C233.826 820.442 218.609 819.704 205.001 818.913L185.617 817.726C182.34 817.642 179.105 816.963 176.07 815.722C174.286 814.957 172.79 813.646 171.798 811.977C171.324 811.105 171.033 810.145 170.942 809.156C170.851 808.168 170.963 807.171 171.27 806.228C172.272 803.593 173.849 801.214 175.886 799.265L180.369 794.466C183.191 791.459 185.643 788.901 187.7 786.844C191.788 782.756 194.214 780.62 194.584 780.937C194.953 781.253 193.186 783.943 189.731 788.611C187.991 790.932 185.828 793.727 183.27 796.971L179.182 802.113C177.743 803.675 176.639 805.515 175.938 807.52C175.839 807.836 175.811 808.17 175.857 808.499C175.903 808.827 176.021 809.141 176.202 809.419C176.713 810.106 177.422 810.621 178.233 810.895C180.708 811.709 183.302 812.102 185.907 812.056L205.291 812.583C219.031 813.032 233.852 813.559 249.886 814.324C251.183 814.407 252.462 814.673 253.684 815.115C255.179 815.637 256.508 816.547 257.534 817.752C258.528 819.026 259.149 820.551 259.328 822.156C259.467 823.527 259.36 824.911 259.011 826.244C258.7 827.461 258.23 828.631 257.613 829.725C257.086 830.675 256.558 831.519 256.084 832.363C255.222 833.589 254.554 834.941 254.106 836.371C254 836.782 253.996 837.212 254.092 837.626C254.189 838.039 254.383 838.423 254.66 838.745C255.545 839.732 256.633 840.514 257.851 841.039C260.814 842.301 263.924 843.187 267.107 843.676C278.783 846.024 290.645 847.321 302.552 847.553C322.99 847.896 335.623 845.496 335.834 846.577Z" fill="white"/>
</g>
<path d="M381.431 340.625L407.276 303.994L411.021 315.228L380.508 360.061L381.431 340.625Z" fill="#DB8A76"/>
<path d="M314.34 716.43C312.178 728.007 314.525 739.928 316.978 751.479C309.769 741.774 302.895 731.823 296.354 721.625C298.008 732.899 301.576 743.807 306.903 753.879C300.584 748.219 293.973 742.893 287.098 737.923C293.761 746.503 300.082 755.347 306.059 764.454L328.739 762.186C322.202 747.536 317.37 732.183 314.34 716.43Z" fill="#00A878"/>
<path d="M712.984 644.091C710.821 655.695 713.168 667.588 715.621 679.14C708.413 669.434 701.538 659.492 694.998 649.312C696.655 660.585 700.223 671.492 705.547 681.566C699.227 675.906 692.616 670.581 685.741 665.611C692.422 674.19 698.743 683.034 704.703 692.141L727.383 689.847C720.842 675.199 716.01 659.845 712.984 644.091Z" fill="#00A878"/>
<path d="M290.236 824.187L312.494 798.21L343.059 783.125L364.975 798.896L347.965 817.04L290.236 824.187Z" fill="#E0E0E0"/>
<path d="M290.078 824.266V824.134L312.362 798.158L342.954 783.046L364.949 798.87L347.912 817.067L290.078 824.266ZM312.52 798.263L290.394 824.082L347.938 816.988L364.869 798.896L343.059 783.205L312.52 798.263Z" fill="#263238"/>
<path d="M391.664 0C391.664 3.27017 321.408 205.493 321.408 205.493L356.536 172.87L305.927 314.226L339.341 271.819L286.069 450.676L319.087 430.554L285.673 555.612L314.261 522.989L285.673 616.479L511.948 601.262L458.359 425.121L490.718 457.744L448.839 329.443L470.279 340.308L421.438 175.059L444.065 189.195L391.664 0Z" fill="#00A878"/>
<path d="M415.821 816.882L408.357 484.591L447.283 449.331L444.197 442.395L407.909 470.429L389.976 227.804H381.062C381.062 227.804 374.68 769.86 364.052 788.453C353.424 807.045 333.487 816.961 333.487 816.961L415.821 816.882Z" fill="#DB8A76"/>
<path d="M404.823 799.74C404.794 799.38 404.794 799.019 404.823 798.659C404.823 797.868 404.982 796.839 405.087 795.52C405.351 792.655 405.746 788.62 406.274 783.416C407.302 772.867 408.911 757.755 410.256 738.952C411.965 716.957 412.431 694.884 411.654 672.837C411.152 659.814 409.946 646.829 408.041 633.937C405.984 620.567 403.03 606.827 400.129 592.744C397.146 579.023 394.928 565.148 393.483 551.181C392.899 544.526 392.653 537.845 392.745 531.165C392.9 524.753 393.385 518.354 394.195 511.992C395.751 499.597 398.098 487.94 400.208 477.075C402.318 466.21 404.217 455.977 405.483 446.72C407.673 432.007 407.673 417.05 405.483 402.336C404.844 398.348 403.963 394.402 402.845 390.521C402.476 389.255 402.16 388.253 401.922 387.515C401.81 387.169 401.722 386.817 401.659 386.46C401.828 386.781 401.969 387.116 402.081 387.462L403.136 390.442C404.393 394.298 405.38 398.237 406.089 402.23C408.511 416.985 408.671 432.023 406.564 446.826C405.456 456.241 403.61 466.421 401.553 477.312C399.496 488.204 397.202 499.834 395.699 512.176C394.96 518.348 394.433 524.703 394.301 531.191C394.169 537.678 394.485 544.377 395.066 551.049C396.543 564.95 398.761 578.763 401.712 592.427C404.586 606.51 407.54 620.277 409.623 633.726C411.512 646.672 412.7 659.71 413.183 672.784C413.916 694.881 413.335 717.003 411.443 739.031C409.94 757.834 408.199 772.998 406.986 783.495C406.353 788.769 405.878 792.699 405.509 795.547C405.351 796.865 405.193 797.894 405.087 798.685C405.043 799.046 404.954 799.4 404.823 799.74Z" fill="#9A5D53"/>
<path d="M346.04 816.645C350.742 816.851 355.449 816.326 359.991 815.089C372.282 811.192 382.747 802.976 389.448 791.96C394.075 784.41 397.534 776.203 399.707 767.619C402.166 757.751 403.929 747.722 404.982 737.607C407.984 714.456 408.4 691.042 406.221 667.799C406.076 663.86 405.181 659.984 403.584 656.38C402.796 654.696 401.588 653.243 400.077 652.161C398.564 651.178 396.738 650.802 394.96 651.106C393.206 651.624 391.577 652.497 390.175 653.672C388.772 654.848 387.628 656.299 386.811 657.936C384.991 661.197 383.465 664.612 382.249 668.142C377.576 681.384 376.36 695.598 378.715 709.441C379.012 712.546 379.907 715.564 381.352 718.329C381.692 718.912 382.176 719.398 382.758 719.74C383.34 720.082 384 720.268 384.675 720.28C385.346 720.209 385.994 719.996 386.576 719.655C387.158 719.314 387.661 718.853 388.051 718.302C388.947 717.193 389.675 715.958 390.213 714.637C390.846 713.344 391.347 711.999 391.848 710.681C392.729 708.106 393.382 705.458 393.8 702.769C395.241 693.581 393.823 684.172 389.738 675.817H390.424C386.722 681.392 384.733 687.928 384.701 694.62C384.695 696.384 384.81 698.146 385.044 699.895C385.159 700.478 385.238 701.068 385.282 701.661C384.622 699.39 384.285 697.038 384.279 694.673C384.134 687.85 386.046 681.142 389.765 675.421L390.134 674.841L390.451 675.474C394.732 683.946 396.279 693.538 394.881 702.927C394.161 708.698 392.151 714.232 389 719.12C388.497 719.802 387.857 720.373 387.122 720.795C386.386 721.217 385.571 721.482 384.728 721.573C383.84 721.565 382.969 721.334 382.195 720.901C381.42 720.468 380.768 719.846 380.297 719.094C378.717 716.178 377.731 712.978 377.396 709.679C374.912 695.622 376.092 681.162 380.825 667.694C382.059 664.044 383.621 660.513 385.493 657.145C386.505 655.421 387.757 653.849 389.211 652.477C390.719 650.997 392.625 649.989 394.696 649.576C396.843 649.215 399.046 649.677 400.868 650.868C402.608 652.089 403.999 653.744 404.903 655.668C406.619 659.43 407.604 663.484 407.804 667.615C409.981 690.976 409.521 714.507 406.432 737.765C405.311 747.939 403.469 758.021 400.92 767.935C398.681 776.619 395.123 784.908 390.371 792.514C383.468 803.668 372.701 811.892 360.122 815.616C356.685 816.544 353.134 816.988 349.574 816.935C348.36 816.935 347.437 816.777 346.936 816.75C346.635 816.736 346.336 816.7 346.04 816.645Z" fill="#9A5D53"/>
<path d="M394.723 439.784C394.277 439.472 393.854 439.128 393.457 438.756L389.66 435.407H389.976C387.376 442.534 387.517 450.372 390.372 457.401C390.808 458.594 391.422 459.714 392.191 460.724C392.542 461.227 393.027 461.62 393.592 461.858C394.157 462.096 394.778 462.169 395.382 462.069C395.985 461.844 396.533 461.493 396.988 461.038C397.443 460.583 397.795 460.035 398.02 459.432C398.663 458.105 399.074 456.678 399.233 455.212C400.713 444.87 400.012 434.333 397.176 424.277C396.701 422.455 396.038 420.688 395.198 419.003C394.391 417.291 393.121 415.839 391.532 414.81C390.741 414.317 389.827 414.055 388.895 414.055C387.962 414.055 387.049 414.317 386.257 414.81C384.619 415.92 383.344 417.489 382.592 419.319C381.742 421.249 381.105 423.265 380.693 425.332C380.113 427.389 379.77 429.552 379.322 431.688C376.21 449.094 378.003 468.214 380.034 487.861C382.377 510.075 383.425 532.406 383.172 554.741C382.935 575.338 381.563 593.851 379.875 609.332C378.188 624.812 376.157 637.234 374.601 645.805C373.862 650.077 373.124 653.374 372.676 655.642L372.122 658.279C372.075 658.577 371.996 658.869 371.885 659.149C371.849 658.851 371.849 658.55 371.885 658.253C371.885 657.593 372.148 656.749 372.307 655.615C372.649 653.374 373.309 650.051 373.942 645.752C375.366 637.181 377.185 624.654 378.768 609.253C380.35 593.851 381.59 575.338 381.748 554.794C381.928 532.509 380.836 510.232 378.478 488.072C376.447 468.425 374.68 449.147 377.871 431.504C378.346 429.315 378.689 427.126 379.295 425.016C379.755 422.88 380.426 420.795 381.299 418.792C382.176 416.711 383.643 414.932 385.519 413.676C386.513 413.086 387.647 412.775 388.802 412.775C389.958 412.775 391.092 413.086 392.086 413.676C393.887 414.835 395.322 416.481 396.226 418.423C397.1 420.221 397.79 422.103 398.283 424.04C399.283 427.672 400.006 431.375 400.446 435.117C401.26 441.886 401.154 448.735 400.129 455.476C399.955 457.059 399.49 458.597 398.758 460.012C398.444 460.748 397.971 461.406 397.374 461.939C396.777 462.473 396.07 462.868 395.303 463.098C394.53 463.216 393.739 463.119 393.018 462.816C392.297 462.514 391.673 462.018 391.215 461.383C390.42 460.281 389.781 459.074 389.317 457.797C387.668 453.606 386.966 449.104 387.26 444.611C387.465 441.469 388.169 438.38 389.343 435.459V435.169L389.554 435.38L393.22 438.861C393.752 439.115 394.256 439.424 394.723 439.784Z" fill="#9A5D53"/>
<path d="M350.286 222.028C346.04 268.127 372.597 309.057 383.172 329.364C384.879 318.662 384.682 307.743 382.592 297.11C383.349 301.623 385.206 305.88 387.998 309.505L408.779 341.495C405.263 327.271 402.485 312.934 400.446 298.482C410.484 313.433 425.396 324.44 442.641 329.627C442.641 329.627 413.632 312.459 410.098 277.173C406.564 241.887 413.263 222.028 413.263 222.028" fill="#00A878"/>
<path d="M413.183 222.028C413.206 222.212 413.206 222.398 413.183 222.582C413.183 223.004 412.946 223.505 412.788 224.191C412.445 225.615 411.997 227.725 411.496 230.52C410.18 238.55 409.51 246.672 409.491 254.809C409.491 260.084 409.676 265.833 410.151 272.083C410.511 278.831 411.771 285.5 413.896 291.915C419.241 307.148 429.43 320.209 442.905 329.1L446.386 331.394L442.404 330.208C425.079 324.95 410.101 313.874 399.997 298.851L401.237 298.403C402.872 309.426 404.955 320.872 407.54 332.476L409.597 341.337L410.467 345.134L408.357 341.864L393.905 319.632L386.811 308.872C384.256 305.424 382.582 301.405 381.932 297.163L383.225 296.978C385.312 307.692 385.499 318.69 383.778 329.469L383.488 331.236L382.618 329.654C374.94 316.179 367.985 302.306 361.784 288.091C357.071 276.995 353.612 265.407 351.472 253.543C350.136 245.864 349.526 238.076 349.652 230.283C349.837 227.646 349.969 225.589 350.075 224.138C350.075 223.479 350.075 222.951 350.075 222.556C350.075 222.16 350.075 222.028 350.075 222.028C350.086 222.204 350.086 222.38 350.075 222.556C350.075 222.978 350.075 223.479 350.075 224.138C350.075 225.615 350.074 227.646 349.863 230.283C349.874 238.041 350.589 245.782 352 253.411C354.257 265.189 357.794 276.686 362.549 287.695C368.852 301.848 375.894 315.66 383.646 329.073L382.486 329.258C384.151 318.632 383.945 307.797 381.879 297.242L383.172 297.058C383.8 301.084 385.402 304.895 387.84 308.16L394.828 318.894L409.28 341.099L408.041 341.653L405.984 332.766C403.347 321.135 401.316 309.663 399.681 298.482L399.259 295.502L400.92 298.007C410.848 312.789 425.562 323.703 442.589 328.915L442.114 330.049C428.382 321.007 418.033 307.672 412.682 292.126C410.564 285.631 409.331 278.881 409.017 272.057C408.568 265.754 408.384 259.952 408.515 254.677C408.613 246.512 409.399 238.369 410.863 230.336C411.416 227.698 411.944 225.43 412.339 224.033C412.55 223.321 412.709 222.793 412.841 222.45C412.948 222.304 413.062 222.163 413.183 222.028Z" fill="#263238"/>
<path d="M438.158 783.125L384.332 791.565L321.25 828.591L445.595 835.554L470.649 803.248L438.158 783.125Z" fill="#00A878"/>
<path d="M489.32 824.266C488.944 824.067 488.591 823.828 488.265 823.554L485.391 821.365L474.657 813.005L437.736 783.626L438.263 783.785L407.645 788.611L384.438 792.171H384.675L339.341 818.543L326.155 826.112L322.568 828.09C322.18 828.357 321.753 828.561 321.302 828.697C321.665 828.391 322.053 828.118 322.463 827.879L325.944 825.717L339.13 817.805L384.147 791.09L407.355 787.424L437.973 782.677H438.263L438.475 782.862L475.079 812.61L485.628 821.26L488.265 823.633C488.642 823.799 488.996 824.012 489.32 824.266Z" fill="#263238"/>
<g opacity="0.2">
<path opacity="0.2" d="M774.695 784.26C774.854 784.681 769.078 787.187 758.397 791.09C747.716 794.993 732.025 800.136 712.668 805.911C693.31 811.687 669.918 818.095 643.651 824.161C636.771 825.788 629.75 826.751 622.685 827.035C614.994 827.396 607.324 825.979 600.269 822.895C592.815 819.389 586.719 813.534 582.916 806.228C580.931 802.36 579.9 798.074 579.909 793.727C579.909 792.62 579.909 791.486 580.173 790.404C580.437 789.323 580.595 788.163 580.885 787.161C581.467 785.2 582.153 783.272 582.942 781.385C584.427 777.999 585.713 774.53 586.793 770.994C587.205 769.556 587.366 768.057 587.267 766.564C587.166 765.452 586.67 764.414 585.87 763.636C584.393 761.949 581.386 761.579 577.721 761.5C574.055 761.421 570.442 761.342 566.829 761.5C552.937 761.868 539.073 762.951 525.292 764.744C498.92 768.041 474.684 771.495 454.087 771.812C448.903 772.348 443.667 771.597 438.844 769.623C438.245 769.318 437.672 768.965 437.13 768.568C436.849 768.398 436.585 768.204 436.339 767.988L435.943 767.671C435.741 767.477 435.555 767.265 435.389 767.038C434.749 766.194 434.448 765.14 434.545 764.085C434.594 763.35 434.763 762.628 435.046 761.949C435.912 759.845 437.056 757.866 438.448 756.068C442.767 750.578 447.511 745.437 452.637 740.693C460.944 732.781 465.981 729.089 466.271 729.432C466.561 729.774 462.183 734.258 454.562 742.618C449.898 747.597 445.572 752.884 441.613 758.441C440.523 759.982 439.637 761.657 438.976 763.425C438.857 763.757 438.786 764.103 438.765 764.454C438.765 764.612 438.765 764.612 438.765 764.691C438.704 764.678 438.641 764.678 438.58 764.691H438.422L438.58 764.507L438.87 764.691L439.424 765.087C439.823 765.341 440.237 765.57 440.664 765.773C444.892 767.253 449.417 767.687 453.85 767.038C473.945 766.115 497.654 762.212 524.29 758.547C538.278 756.549 552.364 755.316 566.486 754.854C570.178 754.696 573.923 754.854 577.694 754.854C579.774 754.855 581.848 755.049 583.892 755.435C586.372 755.917 588.656 757.118 590.458 758.889C592.376 760.77 593.58 763.259 593.86 765.931C594.066 768.245 593.851 770.576 593.227 772.814C592.083 776.638 590.71 780.39 589.113 784.049C588.419 785.721 587.811 787.429 587.294 789.165C587.03 790.009 586.951 790.773 586.766 791.565C586.582 792.356 586.766 793.147 586.555 793.938C586.563 797.202 587.34 800.419 588.823 803.327C591.935 809.282 596.896 814.066 602.959 816.961C609.059 819.635 615.687 820.888 622.342 820.627C629.003 820.362 635.624 819.479 642.122 817.99C668.151 812.346 691.596 806.386 711.138 801.27C730.68 796.153 746.477 791.644 757.369 788.558C768.26 785.473 774.484 783.758 774.695 784.26Z" fill="white"/>
</g>
<path d="M167.921 927.171L163.016 930.256C163.016 930.256 158.321 946.739 158.532 947.135C158.743 947.53 136.116 962.958 137.936 969.841C138.885 973.349 140.256 980.232 141.364 986.087C141.954 989.232 143.33 992.177 145.363 994.648C147.397 997.12 150.022 999.037 152.994 1000.22L167.895 1006.13C170.2 1007.05 172.698 1007.39 175.165 1007.11C177.632 1006.83 179.991 1005.94 182.03 1004.52C189.151 999.563 199.7 991.941 201.783 988.908C205.001 984.241 207.058 964.488 207.058 963.749C207.058 963.749 207.058 963.486 207.058 963.169C206.067 956.451 203.312 950.116 199.072 944.811C194.833 939.506 189.261 935.421 182.927 932.973L167.921 927.171Z" fill="#F3C178"/>
<path d="M162.04 955.996C157.682 957.613 153.639 959.978 150.093 962.984C146.525 966.023 144.268 970.322 143.79 974.984C143.701 977.8 144.204 980.603 145.267 983.212C148.432 991.677 155.632 999.035 164.572 1000.33C168.177 1000.71 171.821 1000.44 175.332 999.536C186.171 997.084 197.221 990.834 200.675 980.285C201.645 977.09 202.082 973.758 201.968 970.421C202.049 965.433 201.132 960.479 199.27 955.85C197.409 951.222 194.641 947.012 191.129 943.469C184.562 937.403 175.49 934.713 166.576 933.843L162.04 955.996Z" fill="#E0E0E0"/>
<path d="M169.082 971.819C168.075 972.144 167.197 972.782 166.576 973.639C165.851 974.626 165.522 975.849 165.653 977.067C165.754 977.872 166.02 978.648 166.432 979.347C166.845 980.045 167.397 980.652 168.053 981.129C169.855 982.241 171.983 982.703 174.084 982.439C176.185 982.175 178.133 981.201 179.604 979.678C181.445 977.974 182.739 975.762 183.323 973.322C183.957 970.676 183.698 967.894 182.584 965.411C181.495 962.942 179.742 960.824 177.521 959.292C175.43 957.896 173.049 956.994 170.559 956.655C168.318 956.212 166.021 956.132 163.755 956.418C161.791 956.737 159.882 957.331 158.084 958.185C155.471 959.436 153.011 960.985 150.753 962.8L148.907 964.277C148.715 964.466 148.502 964.634 148.274 964.778C149.019 964.017 149.802 963.296 150.621 962.615C152.856 960.73 155.308 959.118 157.926 957.816C159.744 956.928 161.68 956.306 163.675 955.969C165.991 955.664 168.341 955.727 170.638 956.154C173.206 956.479 175.667 957.381 177.837 958.791C180.155 960.375 181.983 962.577 183.112 965.147C184.262 967.722 184.531 970.605 183.877 973.349C183.257 975.884 181.898 978.179 179.973 979.942C178.419 981.534 176.363 982.539 174.152 982.789C171.942 983.039 169.713 982.518 167.842 981.313C167.161 980.801 166.59 980.156 166.164 979.417C165.738 978.678 165.466 977.861 165.363 977.015C165.266 975.718 165.651 974.432 166.444 973.402C166.926 972.751 167.572 972.241 168.317 971.925C168.564 971.847 168.823 971.811 169.082 971.819Z" fill="#263238"/>
<path d="M169.003 999.747C168.364 996.935 168.364 994.015 169.003 991.203C169.398 988.856 169.899 986.772 170.242 985.269C170.377 984.439 170.597 983.626 170.901 982.843C170.612 985.679 170.163 988.496 169.556 991.282C169.218 993.251 169.041 995.244 169.029 997.242C169.076 998.077 169.068 998.914 169.003 999.747Z" fill="#263238"/>
<path d="M192.659 989.014C191.029 986.991 189.267 985.08 187.384 983.291C185.381 981.631 183.276 980.099 181.081 978.702C181.834 978.918 182.553 979.238 183.217 979.652C186.482 981.469 189.309 983.981 191.498 987.01C191.991 987.611 192.382 988.288 192.659 989.014Z" fill="#263238"/>
<path d="M201.044 962.694C201.176 963.195 196.983 963.538 192.052 964.54C189.599 965.041 187.357 965.569 185.749 965.964C184.89 966.248 184.007 966.452 183.111 966.571C183.94 966.123 184.828 965.795 185.749 965.595C187.82 964.951 189.924 964.414 192.052 963.987C196.93 962.984 201.071 962.905 201.044 962.694Z" fill="#263238"/>
<path d="M186.83 939.856C185.91 940.336 185.066 940.949 184.325 941.676C182.673 943.571 181.231 945.64 180.026 947.847C178.779 950.048 177.72 952.35 176.862 954.73C176.555 955.733 176.194 956.719 175.78 957.684C175.895 956.631 176.134 955.595 176.492 954.598C177.278 952.228 178.293 949.94 179.525 947.768C180.755 945.518 182.281 943.442 184.061 941.597C184.619 941.046 185.271 940.6 185.986 940.278C186.223 940.061 186.515 939.915 186.83 939.856Z" fill="#263238"/>
<path d="M170.11 975.01C170.11 975.01 169.82 975.195 169.372 975.458C169.093 975.686 168.909 976.009 168.856 976.365C168.802 976.721 168.883 977.084 169.082 977.384C169.334 977.875 169.71 978.291 170.172 978.592C170.635 978.892 171.168 979.067 171.719 979.098C172.373 979.135 173.022 978.964 173.572 978.609C174.122 978.253 174.544 977.732 174.778 977.12C174.963 976.48 174.99 975.806 174.857 975.153C174.724 974.501 174.434 973.891 174.013 973.375C173.71 972.936 173.319 972.564 172.865 972.282C172.412 972.001 171.905 971.816 171.376 971.74C170.339 971.685 169.301 971.828 168.317 972.162C168.317 972.162 168.554 971.951 169.055 971.74C169.808 971.437 170.618 971.302 171.429 971.344C172.103 971.43 172.751 971.659 173.329 972.017C173.907 972.374 174.401 972.851 174.779 973.416C175.156 973.982 175.408 974.621 175.517 975.292C175.626 975.963 175.59 976.649 175.411 977.305C175.165 977.956 174.733 978.521 174.167 978.927C173.602 979.334 172.929 979.564 172.233 979.59C171.537 979.615 170.849 979.434 170.256 979.07C169.662 978.705 169.19 978.174 168.897 977.542C168.686 977.164 168.625 976.72 168.728 976.299C168.831 975.878 169.089 975.512 169.451 975.274C169.653 975.147 169.876 975.058 170.11 975.01Z" fill="#263238"/>
<path d="M165.706 977.911C164.732 978.322 163.737 978.682 162.726 978.993C160.37 979.876 158.122 981.026 156.027 982.421C153.936 983.829 152.016 985.475 150.305 987.326C148.986 988.75 148.274 989.726 148.195 989.673C148.299 989.408 148.441 989.159 148.617 988.935C149.041 988.28 149.508 987.655 150.015 987.062C151.671 985.105 153.588 983.384 155.711 981.946C157.858 980.523 160.192 979.405 162.647 978.623C163.379 978.369 164.128 978.166 164.889 978.017C165.155 977.942 165.43 977.907 165.706 977.911Z" fill="#263238"/>
<path d="M167.605 972.347C166.563 971.863 165.657 971.129 164.967 970.211C164.188 969.308 163.302 968.502 162.33 967.811C161.077 967.057 159.688 966.555 158.242 966.334C155.619 965.947 152.954 965.947 150.331 966.334C149.227 966.549 148.106 966.655 146.981 966.65C148.061 966.338 149.163 966.109 150.278 965.965C152.974 965.491 155.731 965.491 158.427 965.965C159.937 966.205 161.382 966.753 162.673 967.573C163.673 968.323 164.561 969.211 165.31 970.211C166.018 970.981 166.785 971.696 167.605 972.347Z" fill="#263238"/>
<path d="M170.268 957.525C170.767 958.048 171.153 958.667 171.402 959.345C172.132 960.923 172.57 962.621 172.694 964.356C172.816 966.089 172.628 967.831 172.14 969.498C171.977 970.198 171.681 970.86 171.27 971.45C171.938 969.156 172.232 966.769 172.14 964.382C171.875 962.013 171.243 959.7 170.268 957.525Z" fill="#263238"/>
<path d="M183.085 974.852C182.632 975.499 182.033 976.029 181.337 976.4C180.64 976.772 179.866 976.973 179.077 976.988C178.292 977.095 177.492 977.009 176.748 976.738C176.004 976.467 175.336 976.019 174.804 975.432C176.08 976.187 177.556 976.536 179.035 976.433C180.514 976.329 181.927 975.778 183.085 974.852Z" fill="#263238"/>
<path d="M184.667 996.741C183.843 994.115 182.857 991.544 181.714 989.04C180.401 986.625 178.957 984.283 177.389 982.025C178.014 982.542 178.572 983.136 179.05 983.792C181.533 986.897 183.331 990.492 184.325 994.341C184.55 995.121 184.665 995.929 184.667 996.741Z" fill="#263238"/>
<path d="M200.359 980.1C199.743 979.404 199.179 978.664 198.671 977.885C197.342 976.104 195.502 974.77 193.397 974.061C191.286 973.379 189.126 972.859 186.936 972.505C186.037 972.372 185.154 972.151 184.298 971.845C185.185 971.846 186.07 971.943 186.936 972.136C189.178 972.36 191.388 972.829 193.529 973.533C195.69 974.303 197.542 975.757 198.803 977.674C199.425 978.411 199.948 979.227 200.359 980.1Z" fill="#263238"/>
<path d="M195.533 948.532C192.486 950.143 189.568 951.985 186.804 954.044C184.929 955.593 183.31 957.426 182.004 959.477C181.028 961.059 180.606 962.114 180.527 962.114C180.545 961.831 180.616 961.553 180.738 961.297C180.995 960.593 181.312 959.914 181.688 959.266C182.914 957.096 184.532 955.174 186.461 953.596C188.374 952.026 190.474 950.697 192.711 949.64C193.606 949.162 194.552 948.79 195.533 948.532Z" fill="#263238"/>
<path d="M166.761 933.21C166.922 933.508 167.037 933.828 167.104 934.16C167.366 935.021 167.551 935.903 167.657 936.797C168.023 939.801 168.023 942.838 167.657 945.842C167.499 948.909 166.424 951.858 164.572 954.308C163.968 955.006 163.255 955.603 162.462 956.075C162.177 956.268 161.853 956.394 161.513 956.444C162.565 955.807 163.501 954.995 164.282 954.044C165.994 951.62 166.974 948.755 167.104 945.79C167.486 942.826 167.584 939.832 167.394 936.85C167.077 934.581 166.655 933.237 166.761 933.21Z" fill="#263238"/>
<g opacity="0.3">
<path opacity="0.3" d="M165.838 978.65C165.568 979.374 165.509 980.159 165.668 980.915C165.827 981.672 166.196 982.367 166.734 982.922C167.823 984.02 169.258 984.709 170.796 984.873C173.418 985.056 176.039 984.507 178.368 983.287C180.696 982.067 182.64 980.224 183.982 977.964C186.225 974.762 187.228 970.853 186.804 966.967C186.394 964.668 185.427 962.504 183.989 960.665C182.55 958.826 180.682 957.368 178.549 956.418C174.188 954.533 169.259 954.448 164.835 956.18C169.06 956.082 173.236 957.101 176.94 959.134C177.831 959.748 178.661 960.446 179.419 961.217C181.485 963.001 182.987 965.347 183.744 967.969C184.138 970.411 183.836 972.915 182.874 975.195C182.46 976.446 181.845 977.622 181.054 978.676C179.59 980.193 177.723 981.262 175.672 981.757C173.622 982.252 171.473 982.153 169.477 981.471C168.053 981.076 166.471 980.285 166.128 978.834" fill="black"/>
</g>
<g opacity="0.2">
<path opacity="0.2" d="M594.572 962.536C594.572 962.747 594.836 962.905 594.968 963.116L594.572 962.536Z" fill="black"/>
</g>
<g opacity="0.2">
<path opacity="0.2" d="M665.013 1048.67C660.857 1038.49 655.232 1028.97 648.319 1020.42C631.889 1000.04 608.523 985.454 594.968 963.116C591.611 959.289 587.426 956.277 582.731 954.308C568.279 948.401 552.904 949.297 537.345 950.484C534.6 950.554 531.903 951.211 529.433 952.409C526.484 954.283 524.219 957.058 522.972 960.321C515.719 976.434 522.47 995.765 517.46 1012.72C516.456 1015.24 515.928 1017.92 515.904 1020.63C516.606 1024.01 518.327 1027.1 520.835 1029.47C535.156 1045.98 549.634 1062.65 567.277 1075.54C584.92 1088.44 606.255 1097.43 628.092 1096.45C637.913 1096.26 647.457 1093.15 655.519 1087.54C659.549 1084.74 662.848 1081.01 665.142 1076.67C667.437 1072.33 668.658 1067.5 668.705 1062.59C668.288 1057.77 667.039 1053.06 665.013 1048.67Z" fill="black"/>
</g>
<g opacity="0.2">
<path opacity="0.2" d="M595.653 963.986L599.609 969.604C598.35 967.293 596.818 965.142 595.047 963.195L598.554 968.153L595.653 963.986Z" fill="black"/>
</g>
<path d="M595.152 978.096L581.966 961.534L558.706 955.679L533.151 962.536L531.49 996.556L542.039 1009.74C542.039 1009.74 576.323 1052.94 572.868 1056.71C569.413 1060.48 533.468 1009.51 533.468 1009.51L525.714 1014.25L555.937 1052.18C555.937 1052.18 581.439 1074.75 588.428 1077.68C597.315 1081.42 606.888 1086.59 616.989 1084.88C645.998 1079.95 591.038 1056.71 580.938 1052.18C570.837 1047.64 552.798 1018.97 549.766 1013.96C546.733 1008.95 549.766 1001.33 556.069 1002.86C562.372 1004.39 572.499 1025.06 576.033 1034.66C579.566 1044.26 596.735 1051.86 611.873 1059.43C627.01 1067 659.87 1068.53 659.87 1068.53C659.87 1068.53 664.907 1057.98 653.804 1043.76C642.702 1029.55 616.883 998.93 616.883 998.93L595.152 978.096ZM600.427 1005.31C600.19 1007.32 599.952 1009.32 599.741 1011.35C599.664 1012.75 599.342 1014.12 598.792 1015.41C597.643 1017.23 596.02 1018.7 594.097 1019.66C592.133 1021.26 589.635 1022.05 587.109 1021.87C585.907 1021.57 584.783 1021.01 583.812 1020.24C581.659 1018.93 579.851 1017.12 578.538 1014.96C577.344 1012.34 576.767 1009.48 576.85 1006.6C576.718 1003.97 576.613 1001.33 576.481 998.692C576.259 997.16 576.507 995.597 577.193 994.209C577.595 993.658 578.156 993.243 578.802 993.022C584.076 990.095 590.485 992.759 594.994 995.396C596.279 995.99 597.426 996.846 598.361 997.909C599.297 998.971 600 1000.22 600.427 1001.57C600.625 1002.81 600.625 1004.07 600.427 1005.31ZM651.431 1057.42C647.818 1057.98 636.979 1056.66 632.97 1053.81C631.119 1052.76 629.667 1051.13 628.841 1049.17C628.016 1047.21 627.863 1045.03 628.408 1042.97C628.761 1040.83 629.754 1038.84 631.256 1037.28C631.836 1037.28 634.684 1033.27 642.095 1039.91C649.506 1046.56 655.07 1056.84 651.457 1057.42H651.431Z" fill="#E0E0E0"/>
<path d="M629.199 1062.59C629.199 1062.59 626.061 1080.1 629.199 1076.97C632.337 1073.83 635.687 1061.14 635.687 1061.14L628.118 1061.91" fill="#E0E0E0"/>
<path d="M640.17 1063.81C640.17 1063.81 637.032 1081.29 640.17 1078.15C643.308 1075.01 646.658 1062.33 646.658 1062.33L639.089 1063.12" fill="#E0E0E0"/>
<path d="M649.664 1066.07C649.664 1066.07 643.546 1087.78 647.633 1083.51C651.721 1079.23 656.152 1065.05 656.152 1065.05L649.664 1066.07Z" fill="#E0E0E0"/>
<path d="M599.398 1023.96C598.91 1024.43 598.38 1024.87 597.816 1025.25C596.298 1026.31 594.626 1027.14 592.858 1027.7C590.211 1028.58 587.372 1028.71 584.656 1028.07C583.009 1027.67 581.46 1026.94 580.101 1025.92C578.742 1024.91 577.6 1023.63 576.745 1022.16C575.933 1020.6 575.381 1018.92 575.11 1017.18C574.82 1015.52 574.582 1013.91 574.371 1012.38C573.976 1009.32 573.738 1006.53 573.633 1004.2C573.527 1001.88 573.475 999.985 573.633 998.666C573.633 998.139 573.633 997.638 573.633 997.163C573.633 996.688 573.633 996.635 573.633 996.635C573.633 996.635 573.633 997.374 573.633 998.666C573.633 999.958 573.633 1001.86 573.923 1004.18C574.213 1006.5 574.371 1009.27 574.793 1012.3C575.057 1015.61 575.849 1018.85 577.14 1021.9C577.98 1023.31 579.09 1024.54 580.408 1025.52C581.725 1026.49 583.223 1027.2 584.815 1027.6C587.428 1028.21 590.16 1028.12 592.726 1027.33C595.112 1026.56 597.363 1025.42 599.398 1023.96Z" fill="#263238"/>
<path d="M636.662 1036.51L636.24 1036.19L635.133 1035.22L631.098 1031.61L625.19 1026.17L621.709 1022.98C621.155 1022.38 620.505 1021.88 619.784 1021.5C619.029 1021.21 618.209 1021.13 617.411 1021.27C616.567 1021.27 615.723 1021.61 614.773 1021.77C613.902 1021.93 613.007 1021.93 612.136 1021.77C610.558 1021.42 609.063 1020.76 607.732 1019.84C605.46 1018.34 603.543 1016.36 602.115 1014.04C601.144 1012.49 600.49 1010.76 600.189 1008.95C600.119 1008.29 600.119 1007.61 600.189 1006.95C600.404 1009.4 601.209 1011.76 602.537 1013.83C603.976 1016.06 605.862 1017.96 608.075 1019.42C609.362 1020.29 610.803 1020.91 612.321 1021.24C613.105 1021.39 613.91 1021.39 614.694 1021.24C615.512 1021.08 616.356 1020.85 617.331 1020.71C618.221 1020.57 619.132 1020.67 619.969 1021C620.735 1021.41 621.423 1021.94 621.999 1022.59L625.481 1025.8L631.309 1031.32L635.238 1035.06L636.267 1036.11C636.557 1036.35 636.689 1036.48 636.662 1036.51Z" fill="#263238"/>
</g>
<defs>
<clipPath id="clip0">
<rect width="782" height="1179" fill="white"/>
</clipPath>
</defs>
</svg>
